<svg xmlns="http://www.w3.org/2000/svg" xmlns:xlink="http://www.w3.org/1999/xlink" viewBox="0 0 512 512">
  <defs>
   <radialGradient cx="55%" cy="25%" r="60%" id="b">
      <stop stop-color="#0DF" stop-opacity=".4" offset="10%"/>
      <stop stop-color="#7542E5" stop-opacity=".25" offset="90%"/>
    </radialGradient>
    <radialGradient cx="49.238%" cy="52.7%" fx="49%" fy="52.7%" r="51%" id="c">
      <stop stop-color="#7542E5" stop-opacity="0" offset="91%"/>
      <stop stop-color="#0DF" stop-opacity=".4" offset="100%"/>
    </radialGradient>
    <radialGradient cx="86%" cy="-13%" fx="86%" fy="-13%" r="128%" gradientTransform="matrix(.81263 0 0 1 .16 0)" id="d">
      <stop stop-color="#80EBFF" offset="0%"/>
      <stop stop-color="#0DF" offset="26%"/>
      <stop stop-color="#0090ED" offset="53%"/>
      <stop stop-color="#0060DF" offset="86%"/>
    </radialGradient>
    <radialGradient cx="47.729%" cy="40%" fx="48%" fy="40%" r="128%" gradientTransform="matrix(.81263 0 0 1 .09 0)" id="e">
      <stop stop-color="#321C64" stop-opacity=".8" offset="30%"/>
      <stop stop-color="#212F83" stop-opacity=".5" offset="37%"/>
      <stop stop-color="#0A47AC" stop-opacity=".14" offset="48%"/>
      <stop stop-color="#0250BB" stop-opacity="0" offset="53%"/>
    </radialGradient>
    <radialGradient cx="90%" cy="-50%" r="210%" gradientTransform="matrix(.83857 0 0 1 .128 0)" id="f">
      <stop stop-color="#80EBFF" offset="0%"/>
      <stop stop-color="#00B3F4" offset="47%"/>
      <stop stop-color="#0060DF" offset="84%"/>
      <stop stop-color="#592ACB" offset="100%"/>
    </radialGradient>

    <linearGradient x1="42%" y1="-10%" x2="61%" y2="114%" id="g">
      <stop stop-color="#AAF2FF" offset="0%"/>
      <stop stop-color="#0DF" offset="29%"/>
      <stop stop-color="#0090ED" offset="61%"/>
      <stop stop-color="#0250BB" offset="89%"/>
    </linearGradient>
    <linearGradient x1="38%" y1="0%" x2="63%" y2="124%" id="h">
      <stop stop-color="#AAF2FF" offset="0%"/>
      <stop stop-color="#0DF" offset="29%"/>
      <stop stop-color="#0090ED" offset="74%"/>
      <stop stop-color="#0250BB" offset="100%"/>
    </linearGradient>

    <radialGradient cx="208%" cy="-104%" fx="208%" fy="-104%" r="300%" gradientTransform="matrix(1 0 0 .99746 0 -.003)" id="i">
      <stop stop-color="#0DF" offset="0%"/>
      <stop stop-color="#0090ED" offset="82%"/>
    </radialGradient>
    <radialGradient cx="155%" cy="-45%" fx="155%" fy="-45%" r="313%" gradientTransform="matrix(.8937 0 0 1 .165 0)" id="j">
      <stop stop-color="#80EBFF" offset="29%"/>
      <stop stop-color="#00B3F4" offset="100%"/>
    </radialGradient>
    <radialGradient cx="15%" cy="-43%" fx="15%" fy="-43%" r="230%" gradientTransform="matrix(.9814 0 0 1 .003 0)" id="k">
      <stop stop-color="#AAF2FF" offset="18%"/>
      <stop stop-color="#0DF" offset="43%"/>
      <stop stop-color="#0060DF" offset="69%"/>
    </radialGradient>

    <linearGradient x1="86%" y1="15%" x2="20%" y2="84%" id="l">
      <stop stop-color="#80EBFF" stop-opacity=".5" offset="24%"/>
      <stop stop-color="#0DF" stop-opacity="0" offset="70%"/>
    </linearGradient>
    <linearGradient x1="61%" y1="-10%" x2="20%" y2="149%" id="m">
      <stop stop-color="#BFF3FF" stop-opacity=".9" offset="0%"/>
      <stop stop-color="#80EBFF" stop-opacity=".5" offset="100%"/>
    </linearGradient>
    <linearGradient x1="51%" y1="-2%" x2="48%" y2="139%" id="a">
      <stop stop-color="#BFF3FF" offset="0%"/>
      <stop stop-color="#0DF" stop-opacity="0" offset="100%"/>
    </linearGradient>
    <linearGradient x1="52%" y1="-4%" x2="47%" y2="143%" id="n">
      <stop stop-color="#BFF3FF" offset="0%"/>
      <stop stop-color="#AAF2FF" stop-opacity=".5" offset="100%"/>
    </linearGradient>
    <linearGradient x1="53%" y1="-2%" x2="47%" y2="142%" id="o">
      <stop stop-color="#BFF3FF" offset="0%"/>
      <stop stop-color="#0DF" stop-opacity="0" offset="100%"/>
    </linearGradient>
    <linearGradient x1="49%" y1="-2%" x2="57%" y2="123%" id="p">
      <stop stop-color="#BFF3FF" stop-opacity=".8" offset="0%"/>
      <stop stop-color="#80EBFF" stop-opacity=".2" offset="100%"/>
    </linearGradient>
    <linearGradient x1="117%" y1="-23%" x2="24%" y2="128%" id="q">
      <stop stop-color="#BFF3FF" stop-opacity=".8" offset="0%"/>
      <stop stop-color="#80EBFF" stop-opacity=".2" offset="100%"/>
    </linearGradient>
    <linearGradient x1="52%" y1="-1%" x2="47%" y2="137%" id="r">
      <stop stop-color="#0DF" stop-opacity=".4" offset="0%"/>
      <stop stop-color="#0DF" stop-opacity="0" offset="100%"/>
    </linearGradient>
    <linearGradient x1="50%" y1="-12%" x2="50%" y2="99%" id="s">
      <stop stop-color="#BFF3FF" offset="0%"/>
      <stop stop-color="#0DF" stop-opacity="0" offset="100%"/>
    </linearGradient>

    <linearGradient x1="53%" y1="-3%" x2="47%" y2="142%" id="t">
      <stop stop-color="#BFF3FF" stop-opacity=".8" offset="0%"/>
      <stop stop-color="#0DF" stop-opacity="0" offset="100%"/>
    </linearGradient>
  </defs>
  <path id="globe-back" fill="#09204d" d="M146.622 289.098l15.141 41.978 22.752 30.697 53.417 10.188 25.555 2.174 43.626-10.899 18.794-18.015-179.285-56.123z"/>
  <path fill="#09204d" d="M372.686 227.178l-5.348-17.744-15.292-28.856-17.493-18.437-18.57-13.258-16.124-6.329-19.347-6.882-31.855-2.027-20.087 3.625-16.39 5.038-29.082 17.02-18.176 20.277-16.76 27.22-6.593 23.164-1.232 35.146 6.285 23.963 13.863 27.282 9.778 13.177 13.52 12.395 16.886 11.423 20.822 9.056 34.846 4.09 18.195 0.507 26.929-7.585 24.07-13.21 15.486-13.211 12.008-14.326 16.977-33.232 3.748-22.733-1.064-35.553z"/>
  <path fill="#0e56d7" d="M249.24 149.615l-14.266 14.154 23.271 9.433 17.311-21.467-26.316-2.12z"/>
  <path fill="#1053d1" d="M258.245 173.202l45.053-1.367-27.742-20.1-17.311 21.467z"/>
  <path fill="#0b4fbf" d="M299.951 151.584l-24.395 0.151 27.742 20.1 25.654-1.675-29.001-18.576z"/>
  <path fill="#0b48b0" d="M328.952 170.16l-14.584-20.11 20.185 12.091-5.601 8.019z"/>
  <path fill="#0c45a7" d="M348.265 182.475l-19.313-12.315 5.601-8.019 13.712 20.334z"/>
  <path fill="#0f46af" d="M328.952 170.16l-3.231 13.777 17.664 7.06-14.433-20.837z"/>
  <path fill="#0c47ad" d="M328.952 170.16l19.313 12.315-4.88 8.522-14.433-20.837z"/>
  <path fill="#0e4fc3" d="M303.298 171.835l25.654-1.675-3.231 13.777-22.423-12.102z"/>
  <path fill="#174dca" d="M303.298 171.835l-20.269 18.347 26.087 12.775-5.818-31.122z"/>
  <path fill="#1650d4" d="M258.245 173.202l45.053-1.367-20.269 18.347-24.784-16.98z"/>
  <path fill="#1246b2" d="M325.721 183.937l12.268 23.791 5.396-16.731-17.664-7.06z"/>
  <path fill="#133ea1" d="M337.989 207.728l5.396-16.731 12.853 30.569-18.249-13.838z"/>
  <path fill="#103d98" d="M343.385 190.997l19.589 14.346-6.736 16.223-12.853-30.569z"/>
  <path fill="#0b3785" d="M348.265 182.475l3.781-1.897 10.928 24.765-14.709-22.868z"/>
  <path fill="#0b3685" d="M362.974 205.343l4.364 4.091-15.292-28.856 10.928 24.765z"/>
  <path d="M362.974 205.342l-14.709-22.867-4.88 8.525zm-28.421-43.2l13.712 20.334 3.781-1.9z" fill="#0c3b91"/>
  <path fill="#0b3279" d="M371.703 241.042l-4.365-31.608 5.348 17.744-1.054 13.864h0.071z"/>
  <path fill="#0f388d" d="M362.974 205.343l8.729 35.699-4.365-31.608-4.364-4.091z"/>
  <path fill="#0d3481" d="M356.238 221.566l15.465 19.476-8.729-35.699-6.736 16.223z"/>
  <path fill="#0b2e71" d="M371.632 241.042l1.054-13.864 1.064 35.553-2.047-21.689h-0.071z"/>
  <path fill="#0e2f77" d="M369.111 269.139l4.639-6.408-2.047-21.689-2.592 28.097z"/>
  <path fill="#0e2969" d="M370.002 285.464l-3.709 1.787 7.457-24.52-3.748 22.733z"/>
  <path fill="#0c2a69" d="M366.293 287.251l7.457-24.52-4.639 6.408-2.818 18.112z"/>
  <path fill="#123180" d="M369.111 269.139l2.592-28.097-7.945 9.372 5.353 18.725z"/>
  <path fill="#112b70" d="M366.293 287.251l2.818-18.112-15.324 25.753 12.506-7.641z"/>
  <path fill="#12378c" d="M356.238 221.566l15.465 19.476-7.945 9.372-7.52-28.848z"/>
  <path fill="#122e7b" d="M369.111 269.139l-5.353-18.725-8.079 23.064 13.432-4.339z"/>
  <path fill="#11296c" d="M353.025 318.696l13.268-31.445-12.413 22.923-0.855 8.522z"/>
  <path fill="#142a72" d="M353.88 310.174l12.413-22.923-12.506 7.641 0.093 15.282z"/>
  <path d="M366.293 287.251L353.025 318.7 370 285.464zm-25.276 45.771l12.008-14.322 0.855-8.522zm-15.486 13.211l15.486-13.211-16.366 7.527z" fill="#112768"/>
  <path fill="#1c226a" d="M235.149 355.435l-15.646 3.827 0.477-10.919 15.169 7.092z"/>
  <path fill="#182b7a" d="M148.162 206.825l4.313-1.598-10.906 24.762 6.593-23.164z"/>
  <path fill="#1f308d" d="M141.569 229.989l8.257-1.536 2.649-23.226-10.906 24.762z"/>
  <path fill="#1e2b7f" d="M142.062 259.728l-0.493-29.739 8.257-1.536-7.764 31.275z"/>
  <path d="M325.721 183.937l-16.605 19.02 28.873 4.771zm-144.9-19.509l21.2-14.5-18.916 9.4z" fill="#1346b5"/>
  <path fill="#1244ac" d="M183.098 159.328l29.082-17.02-10.166 7.619-18.916 9.401"/>
  <path fill="#0e4ab6" d="M202.014 149.927l26.556-12.657-16.39 5.038-10.166 7.619z"/>
  <path d="M303.3 171.835l5.818 31.122 16.605-19.02zm-85.11-23.382l24.738-9.893-14.356-1.29z" fill="#0e4bba"/>
  <path fill="#0a4ebc" d="M248.657 133.645l-20.087 3.625 14.356 1.29 5.731-4.915z"/>
  <path fill="#0c54cc" d="M267.655 138.314l-24.729 0.246 5.731-4.915"/>
  <path d="M314.368 150.05l-14.417 1.534 29 18.576zm-46.713-11.736l32.2 4.24-19.347-6.882z" fill="#0b4bb4"/>
  <path fill="#0c3889" d="M314.368 150.05l-14.509-7.496 16.124 6.329-1.615 1.167z"/>
  <path d="M146.622 289.1l9.52 7.834-14.079-37.2zm131.394 73.985l8.369-19.7-30.5 8.194zm8.369-19.7l25.5 7.075 1.547-19.716z" fill="#202575"/>
  <path fill="#1b2773" d="M324.651 340.549l-11.222-9.81 27.114-18.018-15.892 27.828z"/>
  <path fill="#15276d" d="M340.544 312.721l-15.893 27.828 16.366-7.527 12.863-22.848-13.336 2.547z"/>
  <path d="M315.983 148.883l-1.615 1.167 20.185 12.091zm-16.032 2.7l14.417-1.534-14.509-7.5z" fill="#0c409d"/>
  <path d="M248.657 133.645l19 4.669 12.857-2.642zm51.2 8.909l-32.2-4.24 32.3 13.27z" fill="#0b4cb7"/>
  <path fill="#0b55ce" d="M267.655 138.314l7.901 13.421 24.395-0.151-32.296-13.27z"/>
  <path fill="#0a52c5" d="M267.655 138.314l7.901 13.421-26.316-2.119 18.415-11.302z"/>
  <path fill="#0951c4" d="M242.926 138.56l6.314 11.056 18.415-11.302-24.729 0.246z"/>
  <path fill="#0b50c4" d="M218.188 148.453l24.738-9.893 6.314 11.056-31.052-1.163z"/>
  <path d="M202.014 149.927l16.174-1.474 10.382-11.183zm16.174-1.474l16.786 15.316 14.266-14.154z" fill="#0f4dbf"/>
  <path fill="#1546b6" d="M218.188 148.453l-27.326 25.622 11.152-24.148 16.174-1.474z"/>
  <path fill="#1549bd" d="M190.862 174.075l17.437 2.9 9.889-28.522-27.326 25.622z"/>
  <path fill="#144bc3" d="M208.299 176.975l9.889-28.522 16.787 15.316-26.676 13.206z"/>
  <path fill="#173794" d="M164.922 179.605l1.062 10.307 14.834-25.484-15.896 15.177z"/>
  <path fill="#192f84" d="M152.475 205.227l12.447-25.622 1.062 10.307-13.509 15.315z"/>
  <path fill="#1a389b" d="M165.984 189.912l14.834-25.484 10.044 9.647-24.878 15.837z"/>
  <path fill="#1d3089" d="M165.086 212.006l0.898-22.094-13.509 15.315 12.611 6.779z"/>
  <path fill="#1e389f" d="M165.086 212.006l0.898-22.094 17.53 14.231-18.428 7.863z"/>
  <path fill="#1c40af" d="M183.514 204.143l7.348-30.068-24.878 15.837 17.53 14.231z"/>
  <path fill="#1e41b7" d="M183.514 204.143l7.348-30.068 17.437 2.9-24.785 27.168z"/>
  <path fill="#192c7d" d="M149.826 228.453l2.649-23.226 12.611 6.779-15.26 16.447z"/>
  <path d="M278.016 363.083l23.445-3.64 10.42-8.989zm-137.679-97.948l1.726-5.407-0.494-29.739zm9.489-36.682l-7.763 31.275 14.079 37.2-6.871-43.1z" fill="#162467"/>
  <path fill="#1a236a" d="M156.141 296.933l11.615 1.628-8.133-18.986-3.482 17.358z"/>
  <path d="M324.651 340.549l-12.77 9.905-10.42 8.989 24.07-13.21zm-68.314 25.972l18.195 0.507 26.929-7.585-23.445 3.64zm-89.358-48l12.207 2.348-11.43-22.3z" fill="#132668"/>
  <path d="M219.98 348.343l-20.668-15.908-8.59 8.259 28.778 18.568zM146.622 289.1l13.863 27.282-4.343-19.448zm-6.285-23.963l6.285 23.963-4.559-29.37zm115.547 86.438l-35.9-3.23 15.169 7.093-15.653 3.824-18.834-5.887 20.822 9.056 34.846 4.09 21.679-3.438zm-88.128-53.012l-11.614-1.629 10.837 21.585zm-18.485-44.733l6.871 43.1 3.481-17.358zm29.915 67.035l-12.207-2.348-6.494-2.137 9.778 13.177 13.52 12.395 16.886 11.423-9.947-12.681z" fill="#1b2268"/>
  <path fill="#212a81" d="M149.826 228.453l16.39 25.352-1.13-41.799-15.26 16.447z"/>
  <path fill="#21267a" d="M149.271 253.829l10.352 25.746 6.593-25.77-16.945 0.024z"/>
  <path fill="#262781" d="M159.623 279.575l6.593-25.77 8.194 20.362-14.787 5.408z"/>
  <path fill="#272379" d="M167.756 298.561l31.424 19.472-24.77-43.866-6.654 24.394z"/>
  <path d="M160.485 316.38l6.494 2.137-10.837-21.585zm69.413 11.2l-9.918 20.759 35.9 3.23zm-62.142-29.023l11.43 22.3 11.536 19.829 8.59-8.259-0.132-14.4z" fill="#1e226d"/>
  <path d="M313.428 330.738l-1.547 19.716 12.77-9.905zm-54.935-2.829l-2.609 23.664 30.5-8.194-1.086-26.6z" fill="#222475"/>
  <path d="M149.271 253.83l16.944-0.025-16.389-25.352zM285.3 316.777l1.086 26.6 27.043-12.641z" fill="#23277d"/>
  <path fill="#1e2776" d="M285.299 316.777l17.405-15.76 10.725 29.722-28.13-13.962z"/>
  <path fill="#222b86" d="M313.429 330.739l13.156-39.844-23.881 10.122 10.725 29.722z"/>
  <path fill="#192974" d="M340.543 312.721l-27.114 18.018 13.156-39.844 13.958 21.826z"/>
  <path fill="#172a75" d="M353.787 294.892l-27.202-3.998 13.959 21.827 13.336-2.547-0.093-15.282z"/>
  <path fill="#172d7d" d="M355.679 273.478l-29.094 17.416 27.202 3.998 15.324-25.753-13.432 4.339z"/>
  <path d="M152.475 205.227l12.447-25.622-16.76 27.22zm192.352 31.713l10.852 36.538 8.079-23.064z" fill="#18338a"/>
  <path fill="#153791" d="M363.758 250.414l-7.52-28.848-11.411 15.373 18.931 13.475z"/>
  <path fill="#1b318b" d="M326.585 290.895l29.094-17.417-28.198-12.552-0.896 29.969z"/>
  <path fill="#242d8d" d="M326.585 290.895l-26.367-26.642 2.486 36.764 23.881-10.122z"/>
  <path fill="#2a2b8f" d="M285.299 316.777l-20.243-17.923 37.648 2.163-17.405 15.76z"/>
  <path d="M167.756 298.561l6.654-24.393-14.787 5.406zm97.3 0.293l-6.563 29.055 26.807-11.132z" fill="#27267f"/>
  <path fill="#2d2381" d="M223.15 304.797l-19.487-9.905-4.483 23.141 30.718 9.551 28.595 0.325-35.343-23.112z"/>
  <path fill="#2f2485" d="M258.492 327.909l6.564-29.055-41.906 5.943 35.342 23.112z"/>
  <path fill="#233196" d="M166.216 253.805l8.406-26.833-9.536-14.966 1.13 41.799z"/>
  <path fill="#293cb7" d="M183.514 204.143l36.893-10.754-19.487 39.809-17.406-29.055z"/>
  <path fill="#25339c" d="M326.585 290.895l-26.367-26.642 27.263-3.327-0.896 29.969z"/>
  <path fill="#19348f" d="M355.679 273.478l-10.852-36.539-17.346 23.987 28.198 12.552z"/>
  <path fill="#2a309a" d="M302.704 301.017l-30.153-29.154 27.667-7.61 2.486 36.764z"/>
  <path fill="#302b96" d="M265.056 298.854l37.648 2.163-30.153-29.154-7.495 26.991z"/>
  <path fill="#3630a7" d="M265.056 298.854l-20.622-16.791 28.117-10.2-7.495 26.991z"/>
  <path d="M180.818 164.428l2.28-5.1-18.176 20.277zm157.171 43.3l6.838 29.212 11.411-15.374z" fill="#173da2"/>
  <path fill="#2a36a8" d="M183.514 204.143l17.406 29.055-26.298-6.226 8.892-22.829z"/>
  <path fill="#312e9f" d="M174.622 226.972l26.298 6.226-17.784 28.011-8.514-34.237z"/>
  <path fill="#184dcd" d="M220.407 193.389l14.568-29.62-26.676 13.206 12.108 16.414z"/>
  <path fill="#272986" d="M166.216 253.805l16.92 7.404-8.726 12.958-8.194-20.362z"/>
  <path fill="#2c2584" d="M183.136 261.209l-8.726 12.959 24.77 43.865 4.483-23.141-20.527-33.683z"/>
  <path fill="#32268b" d="M203.663 294.892l2.744-40.752-23.271 7.069 20.527 33.683z"/>
  <path fill="#372999" d="M203.663 294.892l40.771-12.829-38.027-27.923-2.744 40.752z"/>
  <path fill="#392da5" d="M244.434 282.063l-3.973-31.508-34.054 3.585 38.027 27.923z"/>
  <path fill="#3338bc" d="M240.461 250.555l28.757-10.754 3.333 32.062-32.09-21.308z"/>
  <path fill="#362896" d="M223.15 304.797l41.906-5.943-20.622-16.791-21.284 22.734z"/>
  <path fill="#35268f" d="M223.15 304.797l-19.487-9.905 40.771-12.829-21.284 22.734z"/>
  <path fill="#2648d3" d="M220.407 193.389l24.973 2.642-10.405-32.262-14.568 29.62z"/>
  <path fill="#1057dc" d="M258.245 173.202l-23.27-9.433 10.405 32.262 12.865-22.829z"/>
  <path fill="#1653da" d="M258.245 173.202l24.784 16.98-37.649 5.849 12.865-22.829z"/>
  <path fill="#2b46d5" d="M245.38 196.031l36.93 19.583-13.092 24.187-23.838-43.77z"/>
  <path fill="#244ad7" d="M282.31 215.614l0.719-25.432-37.649 5.849 36.93 19.583z"/>
  <path fill="#2547cf" d="M282.31 215.614l0.719-25.432 26.087 12.775-26.806 12.657z"/>
  <path fill="#333cc5" d="M245.38 196.031l23.838 43.77-41.811-20.942 17.973-22.828z"/>
  <path fill="#3833b6" d="M240.461 250.555l28.757-10.754-41.811-20.942 13.054 31.696z"/>
  <path fill="#2a41c6" d="M269.218 239.801l36.876-6.735-23.784-17.452-13.092 24.187z"/>
  <path fill="#2045c1" d="M309.116 202.957l-3.022 30.109-23.784-17.452 26.806-12.657z"/>
  <path fill="#1b43b7" d="M309.116 202.957l17.406 23.638-20.428 6.471 3.022-30.109z"/>
  <path fill="#1742af" d="M337.989 207.728l-28.873-4.771 17.406 23.638 11.467-18.867z"/>
  <path d="M190.862 174.075l11.152-24.148-21.2 14.5zm147.127 33.653L326.522 226.6l18.305 10.345z" fill="#1740a9"/>
  <path fill="#1b3ca4" d="M327.481 260.926l17.346-23.987-18.305-10.344 0.959 34.331z"/>
  <path fill="#1f3dad" d="M327.481 260.926l-0.959-34.331-20.428 6.471 21.387 27.86z"/>
  <path d="M183.515 204.143l36.892-10.754-12.107-16.414zm85.7 35.658l31 24.452 5.876-31.187z" fill="#2543c3"/>
  <path fill="#2e37b2" d="M272.551 271.863l27.667-7.61-31-24.452 3.333 32.062z"/>
  <path fill="#2d40c7" d="M220.407 193.389l7 25.47 17.973-22.828-24.973-2.642z"/>
  <path fill="#3537b8" d="M220.407 193.389l-19.487 39.809 26.487-14.339-7-25.47z"/>
  <path fill="#3931b0" d="M227.407 218.859l-21 35.281 34.054-3.585-13.054-31.696z"/>
  <path d="M240.461 250.555l3.973 31.508 28.117-10.2zm-34.054 3.585l21-35.28-26.487 14.34z" fill="#3735b8"/>
  <path fill="#342892" d="M183.136 261.209l17.784-28.011 5.487 20.942-23.271 7.069z"/>
  <path d="M200.669 353.375l18.834 5.887-28.781-18.568zm-1.357-20.94l20.668 15.908 9.918-20.759-30.718-9.551zm56.572 19.138l2.609-23.664-28.595-0.325zm30.5-8.194l-8.369 19.7 33.865-12.629z" fill="#232372"/>
  <path fill="#2a2f96" d="M166.216 253.805l8.406-26.833 8.514 34.237-16.92-7.404z"/>
  <path d="M174.622 226.972l8.893-22.829-18.429 7.863zm131.472 6.094l-5.876 31.187 27.263-3.327z" fill="#2636a5"/>
  <path id="globe-lines" d="M374.274 262.764v-0.055l-1.064-35.547v-0.04c0-0.013 0-0.025-0.006-0.037s-0.006-0.032-0.01-0.047v-0.011l-5.345-17.738v-0.011l-0.011-0.029c0-0.013-0.01-0.026-0.016-0.038l-0.007-0.016-15.293-28.856-0.009-0.014-0.019-0.03-0.017-0.025-0.011-0.015-0.016-0.018-0.011-0.014-17.503-18.443-0.008-0.007-0.012-0.012c-0.01-0.01-0.022-0.018-0.033-0.027l-0.023-0.02-18.565-13.253h-0.009l-0.017-0.012a0.36 0.36 0 0 0-0.039-0.02 0.3 0.3 0 0 0-0.04-0.02h-0.008l-16.113-6.324h-0.025l-19.343-6.88h-0.018l-0.037-0.01-0.034-0.007h-0.054l-31.855-2.027h-0.055a0.455 0.455 0 0 0-0.052 0h-0.02l-20.087 3.625h-0.043l-0.036 0.01-16.372 5.033-0.036 0.014c-0.014 0.006-0.029 0.012-0.042 0.019l-0.021 0.01h-0.007l-29.082 17.021h-0.006l-0.024 0.016-0.023 0.015-0.019 0.017-0.018 0.014-0.02 0.022-0.016 0.014-0.007 0.008-18.169 20.268-0.007 0.01-0.013 0.015-0.012 0.017-0.016 0.023-0.008 0.01-0.006 0.01-16.772 27.198-0.008 0.016-0.016 0.028-0.014 0.033c0 0.013-0.01 0.025-0.014 0.038l-0.006 0.016-6.593 23.165v0.076a0.26 0.26 0 0 0-0.005 0.039v0.01l-1.232 35.146v0.087a0.3 0.3 0 0 0 0.008 0.043v0.036l6.281 23.948v0.01l0.006 0.018a0.521 0.521 0 0 0 0.02 0.05c0 0.008 0.006 0.017 0.01 0.025l13.86 27.274 0.009 0.013a0.492 0.492 0 0 0 0.028 0.045l0.007 0.013 9.772 13.169 0.012 0.015c0.009 0.011 0.02 0.02 0.029 0.03a0.25 0.25 0 0 0 0.022 0.024l13.52 12.4c0.011 0.01 0.022 0.017 0.034 0.026l0.027 0.022 16.885 11.422 0.012 0.006 0.04 0.024 0.022 0.01h0.007l20.822 9.056 0.021 0.007a0.353 0.353 0 0 0 0.046 0.015l0.024 0.007 0.037 0.007h0.021l34.846 4.091h0.047l18.195 0.506h0.019a0.569 0.569 0 0 0 0.1-0.01l0.022-0.007h0.015l26.929-7.585 0.016-0.006 0.023-0.006 0.021-0.01 0.015-0.007 0.032-0.014 0.011-0.006 24.056-13.2h0.007l0.01-0.006a0.348 0.348 0 0 0 0.039-0.028l0.032-0.022 15.486-13.21 0.016-0.017 0.02-0.018 0.02-0.022h0.006l12.006-14.323 0.005-0.007a0.531 0.531 0 0 0 0.042-0.063l0.015-0.022v-0.006l17.012-33.221c0-0.007 0.006-0.016 0.01-0.024l0.017-0.039v-0.019a0.3 0.3 0 0 0 0.011-0.043c0-0.009 0.006-0.018 0.008-0.028l3.747-22.727v-0.039zM184.111 341.54l-3.5-3.212 7.877 6.171zm51.108 13.348l-12.307-5.754 29.13 2.62zm4.488-104.781l-32.312 3.4 19.926-33.476zm-11.278-30.148l39.477 19.772-27.152 10.154zM240 251.131l3.756 29.784-35.947-26.4zm3.285 30.742L204.24 294.16l2.627-39.03zm-2.161-30.245l30.265 20.1-26.518 9.62zm0.482-0.941l27.156-10.155 3.147 30.275zm41.723-34.975l25.171-11.883-2.838 28.271zm21.471 17.056l-34.6 6.32 12.286-22.688zm-35.583 5.932l-22.539-41.385L281.6 215.83zm-1.263-0.118l-39.735-19.9 17.081-21.699zM206.6 252.791l-5.063-19.328 24.445-13.233zm-3.35 40.409l-19.312-31.688 21.892-6.65zm39.432-10.038l-19.646 20.985-17.987-9.142zm29.089-10.46l-7.007 25.234-19.279-15.7zm-1.9-31.718l29.206 23.037-26.067 7.169zm0.586-0.877l34.978-6.389-5.573 29.582zm36.241-7.785l2.802-27.952 16.159 21.946zm19.317-5.018l0.894 32.012-19.941-25.976zm-43.154-12.532l0.671-23.76 24.368 11.937zm-1.053-0.021l-34.786-18.446 35.463-5.509zm-54.17 2.962l-6.519-23.722 23.259 2.46zm-0.849 0.882l-24.674 13.357 18.153-37.084zm-21.02 35.188l-21.429 6.509 16.377-25.792zm-3.881 39.205l-26.755-18.954 7.981-11.852zm2.16 2.687l17.98 9.139-22.117 12.216zm40.435-12.9l19.309 15.725-39.239 5.564zm28.339-9.924l28.5 27.556-35.584-2.045zm0.756-0.731l26.158-7.195 2.35 34.759zm32.816-37.805l20.109 26.2-25.634 3.129zm20.68-6.81l16.983 9.6-16.094 22.253zm0.179-1.106l10.517-17.3 6.272 26.791zm-0.773-0.753l-16.174-21.965 26.83 4.433zm-42.523-35.6l19-17.195 5.454 29.168zm-37.587 5.3l12.052-21.386 23.217 15.907zm-25.159-2.4l13.662-27.779 9.758 30.256zM200.873 232.1l-16.558-27.64 35.1-10.23zm-17.522 27.79l-8.009-32.208 24.739 5.857zm-8.823 13.161l-7.344-18.251 15.164 6.635zm28.554 22.073l-4.147 21.4-22.911-40.574zm19.749 10.449l6.283 21.217-28.6-8.892zm41.544-6.092l-6.229 27.573-33.54-21.933zm37.046 1.988l-16.125 14.6-18.757-16.607zm-0.582-35.841l24.827 25.086-22.487 9.531zm0.507-0.983l25.59-3.124-0.841 28.131zm43.281-26.531l10.222 34.42-26.563-11.824zm-5.793-29.086l16.672 12.642-10.425 14.045zm-28.7-6.435l15.475-17.727 11.434 22.173zm-0.7-0.8l-5.416-28.972 20.874 11.266zm-26.45-12.279l-23.114-15.836 42.017-1.275zm-37.472 5.211l-9.691-30.046 21.673 8.785zm-25.2-2.344l-11.222-15.213 24.724-12.24zm-0.779 0.715l-34.373 10.02 23.095-25.316zm-19.708 39.3l-24.5-5.8 8.283-21.265zm-17.462 27.9l-15.508-6.786 7.7-24.594zm-8.647 13.562l-13.34 4.878 5.947-23.247zm23.993 42.645l-29.346-18.185 6.214-22.78zm29.881 10.911l-27.761 4.4-0.12-13.071zm-3.533-21.4l32.643 21.349-26.4-0.3zm41.312-6.184l18.949 16.777-25.088 10.426zm37.1 2.1l10.014 27.752-26.259-13.032zm0.893-0.628l22.354-9.475-12.316 37.3zm24.615-39.581l26.558 11.822-27.4 16.4zm17.784-23.472l17.364 12.359-7.411 21.156zm-0.2-1.43l10.437-14.061 6.878 26.384zm-6.964-29.288l4.846-15.025 11.542 27.452zm-0.728-1.173l-11.043-21.415 15.9 6.355zm-32.714-34.118l23.122-1.51-2.911 12.418zm-45.783 0.4l16.28-20.189 26.09 18.9zm-0.962-0.484l-8.382-21.953 24.5 1.973zm-1.087 0.1l-21.413-8.68 13.126-13.023zm-48.106 3.674l9.207-26.556 15.628 14.26zm-24.7 26.331l6.742-27.593 16 2.662zm-10.006 23.548l-8.646-13.568 16.707-7.128zm-0.462 1.234l-7.39 23.589-0.993-36.745zm-8.509 27.283l-6.027 23.556-9.462-23.533zm-15.73-1.026l0.5-23.126 14.936 23.1zm23.825 21.706l-5.99 21.956-7.32-17.089zm24.036 42.707l-18.187 2.576L169.087 300zm0.988 0.921l0.118 12.883-18-10.35zm30.333 9.621l-9.207 19.271-19.185-14.764zm1.073 0.195l24.328 22.457-33.612-3.023zm1.193-0.33l26.648 0.3-2.431 22.053zm53.542-10.568l1.017 24.914-26.117-14.489zm1.058 0.091l26.356 13.081-25.34 11.845zm40.876-25.533l13.084 20.459-25.416 16.889zm0.911-0.528l25.192 3.7-12.261 16.518zm0.469-0.993l26.946-16.13-1.753 19.832zm35.589-38.438l4.758 16.645-11.94 3.857zm-6.331-28.306l13.647 17.186-7.011 8.27zm-12.77-31.3l17.724 12.98-6.091 14.675zm-18.269-8.925l2.857-12.184 12.765 18.428zm-22.6-12.337l-3.076-18.616 26.658 17.076zm-1.17-0.621l-25.4-18.412 22.342-0.138zm-51.684-21.438l16.587-10.179 7.116 12.089zm-15.927 13.822L219.6 149.031l28.41 1.069zm-27.013 13.342L192 173.731l24.995-23.436zM183.2 203.211l-16.318-13.247 23.158-14.743zm-0.693 0.791l-16.861 7.198 0.822-20.214zm-16.868 47.942l-15.149-23.433 14.1-15.2zm-6.563 27.681L156.2 293.96l-5.674-35.6zm0.73 1.714l7.1 16.572-10.138-1.421zm18.42 38.807l-10.7-2.059 0.681-17.5zm20.217 12.395l-7.6 7.31L180.63 322.3zm0.907 0.586l18.258 14.053-25.846-6.757zm59.579-4.375L285 343.209l-28.5 7.657zm53.9 2.845l-1.427 18.18-23.502-6.524zm26.153-17.21l-14.469 25.343-10.221-8.93zm14.288-17.917l0.08 13.271-11.58 2.211zm2.9-22.6l11.774-3.8-13.433 22.574zm8.168-23.331l6.685-7.885-2.181 23.639zm-7.5-29.057l6-14.454 7.777 31.805zm-12.763-30.632l4.216-7.362L361 203.245zm-0.732-0.838l-12.472-18 16.689 10.641zm-41.849-38.064l12.626-1.348 12.773 17.613zm-25.638-0.74l-6.956-11.814 28.43 11.681zm-26.428-2.324l-5.6-9.808 21.937-0.218zm-1.114 0.172l-27.631-1.035 22.013-8.8zm-55.843 22.789l9.894-21.422 14.349-1.309zm-1.778 1.339l-9.044-8.687 19.088-13.059zm-0.678 0.807l-22.487 14.316 13.409-23.036zm-25.421 37.155l-11.286-6.068 12.09-13.706zm-0.356 1l-13.707 14.774 2.38-20.862zm-15.488 41.43l-5.795 4.742 6.241-25.143zm0.145 1.239l5.916 37.113-12.123-32.028zm18.317 44.2l-0.679 17.44-9.472-18.863zm11.639 22.32l9.621 16.538-19.8-18.5zm40.585 27.409l-0.419 9.58-25.251-16.292zm1.036 0.409l13.1 6.127-13.516 3.306zm34.9 3.048l0.407 13.437-19.045-9.965zm30.1-8.035l-7.725 18.189-20.43-10.625zm1.21-0.157l23.492 6.518-31.2 11.637zm27.182-12.185l9.954 8.7-11.318 8.785zm27.01-18.633L352.355 311l-25.148 26.135zm13.513-5.071l-0.079-12.935 10.585-6.468zm0.93-14.783l12.849-21.592-2.356 15.185zm16.385-46.629l1.5 15.876-3.395 4.69zm-7.8-39.771l2.936 2.753 2.937 21.265zm-14.882-24.255l2.763-1.386 7.987 18.1zm-19.32-12.67l4.849-6.942 11.869 17.6zm-0.753-0.759L316.3 151.821l17.5 10.479zM300.472 151l-0.078-7.579 12.177 6.291zm-1.055-0.205l-27.832-11.435 27.752 3.654zm-55.054-12.775l4.431-3.8 14.693 3.612zm-24.2 9.076l8.616-9.281 11.914 1.071zm-2.226 0.851l-13.047 1.19 21.422-10.211zm-35.88 14.994l1.443-3.228 11.974-5.951zM166.34 188.25l-0.87-8.444 13.03-12.434zm-0.905 1.487l-10.8 12.244 9.951-20.485zm-16.09 38.27l-6.9 1.283 9.107-20.678zm-0.229 1.111l-6.6 26.572-0.419-25.267zm5.832 66.152l-7.839-6.451-3.754-24.183zm10.991 22.352l-5.007-1.649-3.349-14.994zm21.4 20.632l-16.633-9.054-2.67-8.975zm3.034 2.848l7.2 9.181-22.015-17.245zm2.694 1.73l22.9 14.774-14.985-4.684zm42.013 13.16l17.8 9.311-30.938-6.1zm21.356-3.54l19.923 10.361-19.515 3.095zm52.882-0.483l-8.088 6.977-18.2 2.826zm14.949-10.458l0.673 4.353-10.454 3.236zm27.127-28l-10.754 19.1-13.682 6.293zm3-3.184l7.2-13.3-7.7 18.243zm15.219-40.987l2.719-3.755-4.371 14.37zm2.615-28.34v-0.032l-0.039-0.279 0.271-3.56 0.276 9.219zm-0.723-5.242l-2.72-19.7 3.368 11.179zm-8.092-30.726l-4.965-11.251 6.948 13.109zm-14.97-23.232l-9.915-14.7 12.649 13.332zm-33.121-31.789l0.663-0.479 7.622 5.442zm-1-0.574l-5.154-2.663 5.727 2.248zM270.816 138.2l9.658-1.985 14.533 5.17zm-3.151-0.425l-13.151-3.232 22.051 1.4zm-24.913 0.241l-10.258-0.922 14.352-2.59zm-36.2 9.164l5.869-4.4 9.461-2.908zm-4.817 2.3l-5.091 2.53 7.827-4.58zm-21.356 14.64l-6.039 5.766 6.905-7.7zm-28.285 40.688l-2.685 1 10.431-16.942zm-3.5 2.416l2.9-1.073-7.327 16.636zm-7.215 43.167l0.154 9.26-0.533 1.683zm0.5 11.626l2.642 17.019-3.642-13.886zm13.782 35.206l3.393 15.19-10.823-21.313zm10.886 21.707l2.355 7.919-7.002-9.449zm52.607 40.775l0.983 1.567-10.288-4.472zm2.643 2.234l-1.208-1.926 22.392 4.412zm54.851 1.892L274.3 366.5l-12.292-0.342zm1.631-0.258l14.653-2.275-16.831 4.74zm33.857-12.65l8.593-2.658-15.153 8.317zm13.765-5.7l-0.675-4.361 12.557-5.775zm27.2-32.6l-0.588 5.86-8.258 9.852zm13.6-24.986l2.122-1.022-9.712 19.012zm2.826-2.527l-2.382 1.147 4.788-15.743z" fill="url(#b)"/>
  <path id="globe-lines-edge" d="M374.274 262.764v-0.055l-1.064-35.547v-0.04c0-0.013 0-0.025-0.006-0.037s-0.006-0.032-0.01-0.047v-0.011l-5.345-17.738v-0.011l-0.011-0.029c0-0.013-0.01-0.026-0.016-0.038l-0.007-0.016-15.293-28.856-0.009-0.014-0.019-0.03-0.017-0.025-0.011-0.015-0.016-0.018-0.011-0.014-17.503-18.443-0.008-0.007-0.012-0.012c-0.01-0.01-0.022-0.018-0.033-0.027l-0.023-0.02-18.565-13.253h-0.009l-0.017-0.012a0.36 0.36 0 0 0-0.039-0.02 0.3 0.3 0 0 0-0.04-0.02h-0.008l-16.113-6.324h-0.025l-19.343-6.88h-0.018l-0.037-0.01-0.034-0.007h-0.054l-31.855-2.027h-0.055a0.455 0.455 0 0 0-0.052 0h-0.02l-20.087 3.625h-0.043l-0.036 0.01-16.372 5.033-0.036 0.014c-0.014 0.006-0.029 0.012-0.042 0.019l-0.021 0.01h-0.007l-29.082 17.021h-0.006l-0.024 0.016-0.023 0.015-0.019 0.017-0.018 0.014-0.02 0.022-0.016 0.014-0.007 0.008-18.169 20.268-0.007 0.01-0.013 0.015-0.012 0.017-0.016 0.023-0.008 0.01-0.006 0.01-16.772 27.198-0.008 0.016-0.016 0.028-0.014 0.033c0 0.013-0.01 0.025-0.014 0.038l-0.006 0.016-6.593 23.165v0.076a0.26 0.26 0 0 0-0.005 0.039v0.01l-1.232 35.146v0.087a0.3 0.3 0 0 0 0.008 0.043v0.036l6.281 23.948v0.01l0.006 0.018a0.521 0.521 0 0 0 0.02 0.05c0 0.008 0.006 0.017 0.01 0.025l13.86 27.274 0.009 0.013a0.492 0.492 0 0 0 0.028 0.045l0.007 0.013 9.772 13.169 0.012 0.015c0.009 0.011 0.02 0.02 0.029 0.03a0.25 0.25 0 0 0 0.022 0.024l13.52 12.4c0.011 0.01 0.022 0.017 0.034 0.026l0.027 0.022 16.885 11.422 0.012 0.006 0.04 0.024 0.022 0.01h0.007l20.822 9.056 0.021 0.007a0.353 0.353 0 0 0 0.046 0.015l0.024 0.007 0.037 0.007h0.021l34.846 4.091h0.047l18.195 0.506h0.019a0.569 0.569 0 0 0 0.1-0.01l0.022-0.007h0.015l26.929-7.585 0.016-0.006 0.023-0.006 0.021-0.01 0.015-0.007 0.032-0.014 0.011-0.006 24.056-13.2h0.007l0.01-0.006a0.348 0.348 0 0 0 0.039-0.028l0.032-0.022 15.486-13.21 0.016-0.017 0.02-0.018 0.02-0.022h0.006l12.006-14.323 0.005-0.007a0.531 0.531 0 0 0 0.042-0.063l0.015-0.022v-0.006l17.012-33.221c0-0.007 0.006-0.016 0.01-0.024l0.017-0.039v-0.019a0.3 0.3 0 0 0 0.011-0.043c0-0.009 0.006-0.018 0.008-0.028l3.747-22.727v-0.039zM184.111 341.54l-3.5-3.212 7.877 6.171zm51.108 13.348l-12.307-5.754 29.13 2.62zm4.488-104.781l-32.312 3.4 19.926-33.476zm-11.278-30.148l39.477 19.772-27.152 10.154zM240 251.131l3.756 29.784-35.947-26.4zm3.285 30.742L204.24 294.16l2.627-39.03zm-2.161-30.245l30.265 20.1-26.518 9.62zm0.482-0.941l27.156-10.155 3.147 30.275zm41.723-34.975l25.171-11.883-2.838 28.271zm21.471 17.056l-34.6 6.32 12.286-22.688zm-35.583 5.932l-22.539-41.385L281.6 215.83zm-1.263-0.118l-39.735-19.9 17.081-21.699zM206.6 252.791l-5.063-19.328 24.445-13.233zm-3.35 40.409l-19.312-31.688 21.892-6.65zm39.432-10.038l-19.646 20.985-17.987-9.142zm29.089-10.46l-7.007 25.234-19.279-15.7zm-1.9-31.718l29.206 23.037-26.067 7.169zm0.586-0.877l34.978-6.389-5.573 29.582zm36.241-7.785l2.802-27.952 16.159 21.946zm19.317-5.018l0.894 32.012-19.941-25.976zm-43.154-12.532l0.671-23.76 24.368 11.937zm-1.053-0.021l-34.786-18.446 35.463-5.509zm-54.17 2.962l-6.519-23.722 23.259 2.46zm-0.849 0.882l-24.674 13.357 18.153-37.084zm-21.02 35.188l-21.429 6.509 16.377-25.792zm-3.881 39.205l-26.755-18.954 7.981-11.852zm2.16 2.687l17.98 9.139-22.117 12.216zm40.435-12.9l19.309 15.725-39.239 5.564zm28.339-9.924l28.5 27.556-35.584-2.045zm0.756-0.731l26.158-7.195 2.35 34.759zm32.816-37.805l20.109 26.2-25.634 3.129zm20.68-6.81l16.983 9.6-16.094 22.253zm0.179-1.106l10.517-17.3 6.272 26.791zm-0.773-0.753l-16.174-21.965 26.83 4.433zm-42.523-35.6l19-17.195 5.454 29.168zm-37.587 5.3l12.052-21.386 23.217 15.907zm-25.159-2.4l13.662-27.779 9.758 30.256zM200.873 232.1l-16.558-27.64 35.1-10.23zm-17.522 27.79l-8.009-32.208 24.739 5.857zm-8.823 13.161l-7.344-18.251 15.164 6.635zm28.554 22.073l-4.147 21.4-22.911-40.574zm19.749 10.449l6.283 21.217-28.6-8.892zm41.544-6.092l-6.229 27.573-33.54-21.933zm37.046 1.988l-16.125 14.6-18.757-16.607zm-0.582-35.841l24.827 25.086-22.487 9.531zm0.507-0.983l25.59-3.124-0.841 28.131zm43.281-26.531l10.222 34.42-26.563-11.824zm-5.793-29.086l16.672 12.642-10.425 14.045zm-28.7-6.435l15.475-17.727 11.434 22.173zm-0.7-0.8l-5.416-28.972 20.874 11.266zm-26.45-12.279l-23.114-15.836 42.017-1.275zm-37.472 5.211l-9.691-30.046 21.673 8.785zm-25.2-2.344l-11.222-15.213 24.724-12.24zm-0.779 0.715l-34.373 10.02 23.095-25.316zm-19.708 39.3l-24.5-5.8 8.283-21.265zm-17.462 27.9l-15.508-6.786 7.7-24.594zm-8.647 13.562l-13.34 4.878 5.947-23.247zm23.993 42.645l-29.346-18.185 6.214-22.78zm29.881 10.911l-27.761 4.4-0.12-13.071zm-3.533-21.4l32.643 21.349-26.4-0.3zm41.312-6.184l18.949 16.777-25.088 10.426zm37.1 2.1l10.014 27.752-26.259-13.032zm0.893-0.628l22.354-9.475-12.316 37.3zm24.615-39.581l26.558 11.822-27.4 16.4zm17.784-23.472l17.364 12.359-7.411 21.156zm-0.2-1.43l10.437-14.061 6.878 26.384zm-6.964-29.288l4.846-15.025 11.542 27.452zm-0.728-1.173l-11.043-21.415 15.9 6.355zm-32.714-34.118l23.122-1.51-2.911 12.418zm-45.783 0.4l16.28-20.189 26.09 18.9zm-0.962-0.484l-8.382-21.953 24.5 1.973zm-1.087 0.1l-21.413-8.68 13.126-13.023zm-48.106 3.674l9.207-26.556 15.628 14.26zm-24.7 26.331l6.742-27.593 16 2.662zm-10.006 23.548l-8.646-13.568 16.707-7.128zm-0.462 1.234l-7.39 23.589-0.993-36.745zm-8.509 27.283l-6.027 23.556-9.462-23.533zm-15.73-1.026l0.5-23.126 14.936 23.1zm23.825 21.706l-5.99 21.956-7.32-17.089zm24.036 42.707l-18.187 2.576L169.087 300zm0.988 0.921l0.118 12.883-18-10.35zm30.333 9.621l-9.207 19.271-19.185-14.764zm1.073 0.195l24.328 22.457-33.612-3.023zm1.193-0.33l26.648 0.3-2.431 22.053zm53.542-10.568l1.017 24.914-26.117-14.489zm1.058 0.091l26.356 13.081-25.34 11.845zm40.876-25.533l13.084 20.459-25.416 16.889zm0.911-0.528l25.192 3.7-12.261 16.518zm0.469-0.993l26.946-16.13-1.753 19.832zm35.589-38.438l4.758 16.645-11.94 3.857zm-6.331-28.306l13.647 17.186-7.011 8.27zm-12.77-31.3l17.724 12.98-6.091 14.675zm-18.269-8.925l2.857-12.184 12.765 18.428zm-22.6-12.337l-3.076-18.616 26.658 17.076zm-1.17-0.621l-25.4-18.412 22.342-0.138zm-51.684-21.438l16.587-10.179 7.116 12.089zm-15.927 13.822L219.6 149.031l28.41 1.069zm-27.013 13.342L192 173.731l24.995-23.436zM183.2 203.211l-16.318-13.247 23.158-14.743zm-0.693 0.791l-16.861 7.198 0.822-20.214zm-16.868 47.942l-15.149-23.433 14.1-15.2zm-6.563 27.681L156.2 293.96l-5.674-35.6zm0.73 1.714l7.1 16.572-10.138-1.421zm18.42 38.807l-10.7-2.059 0.681-17.5zm20.217 12.395l-7.6 7.31L180.63 322.3zm0.907 0.586l18.258 14.053-25.846-6.757zm59.579-4.375L285 343.209l-28.5 7.657zm53.9 2.845l-1.427 18.18-23.502-6.524zm26.153-17.21l-14.469 25.343-10.221-8.93zm14.288-17.917l0.08 13.271-11.58 2.211zm2.9-22.6l11.774-3.8-13.433 22.574zm8.168-23.331l6.685-7.885-2.181 23.639zm-7.5-29.057l6-14.454 7.777 31.805zm-12.763-30.632l4.216-7.362L361 203.245zm-0.732-0.838l-12.472-18 16.689 10.641zm-41.849-38.064l12.626-1.348 12.773 17.613zm-25.638-0.74l-6.956-11.814 28.43 11.681zm-26.428-2.324l-5.6-9.808 21.937-0.218zm-1.114 0.172l-27.631-1.035 22.013-8.8zm-55.843 22.789l9.894-21.422 14.349-1.309zm-1.778 1.339l-9.044-8.687 19.088-13.059zm-0.678 0.807l-22.487 14.316 13.409-23.036zm-25.421 37.155l-11.286-6.068 12.09-13.706zm-0.356 1l-13.707 14.774 2.38-20.862zm-15.488 41.43l-5.795 4.742 6.241-25.143zm0.145 1.239l5.916 37.113-12.123-32.028zm18.317 44.2l-0.679 17.44-9.472-18.863zm11.639 22.32l9.621 16.538-19.8-18.5zm40.585 27.409l-0.419 9.58-25.251-16.292zm1.036 0.409l13.1 6.127-13.516 3.306zm34.9 3.048l0.407 13.437-19.045-9.965zm30.1-8.035l-7.725 18.189-20.43-10.625zm1.21-0.157l23.492 6.518-31.2 11.637zm27.182-12.185l9.954 8.7-11.318 8.785zm27.01-18.633L352.355 311l-25.148 26.135zm13.513-5.071l-0.079-12.935 10.585-6.468zm0.93-14.783l12.849-21.592-2.356 15.185zm16.385-46.629l1.5 15.876-3.395 4.69zm-7.8-39.771l2.936 2.753 2.937 21.265zm-14.882-24.255l2.763-1.386 7.987 18.1zm-19.32-12.67l4.849-6.942 11.869 17.6zm-0.753-0.759L316.3 151.821l17.5 10.479zM300.472 151l-0.078-7.579 12.177 6.291zm-1.055-0.205l-27.832-11.435 27.752 3.654zm-55.054-12.775l4.431-3.8 14.693 3.612zm-24.2 9.076l8.616-9.281 11.914 1.071zm-2.226 0.851l-13.047 1.19 21.422-10.211zm-35.88 14.994l1.443-3.228 11.974-5.951zM166.34 188.25l-0.87-8.444 13.03-12.434zm-0.905 1.487l-10.8 12.244 9.951-20.485zm-16.09 38.27l-6.9 1.283 9.107-20.678zm-0.229 1.111l-6.6 26.572-0.419-25.267zm5.832 66.152l-7.839-6.451-3.754-24.183zm10.991 22.352l-5.007-1.649-3.349-14.994zm21.4 20.632l-16.633-9.054-2.67-8.975zm3.034 2.848l7.2 9.181-22.015-17.245zm2.694 1.73l22.9 14.774-14.985-4.684zm42.013 13.16l17.8 9.311-30.938-6.1zm21.356-3.54l19.923 10.361-19.515 3.095zm52.882-0.483l-8.088 6.977-18.2 2.826zm14.949-10.458l0.673 4.353-10.454 3.236zm27.127-28l-10.754 19.1-13.682 6.293zm3-3.184l7.2-13.3-7.7 18.243zm15.219-40.987l2.719-3.755-4.371 14.37zm2.615-28.34v-0.032l-0.039-0.279 0.271-3.56 0.276 9.219zm-0.723-5.242l-2.72-19.7 3.368 11.179zm-8.092-30.726l-4.965-11.251 6.948 13.109zm-14.97-23.232l-9.915-14.7 12.649 13.332zm-33.121-31.789l0.663-0.479 7.622 5.442zm-1-0.574l-5.154-2.663 5.727 2.248zM270.816 138.2l9.658-1.985 14.533 5.17zm-3.151-0.425l-13.151-3.232 22.051 1.4zm-24.913 0.241l-10.258-0.922 14.352-2.59zm-36.2 9.164l5.869-4.4 9.461-2.908zm-4.817 2.3l-5.091 2.53 7.827-4.58zm-21.356 14.64l-6.039 5.766 6.905-7.7zm-28.285 40.688l-2.685 1 10.431-16.942zm-3.5 2.416l2.9-1.073-7.327 16.636zm-7.215 43.167l0.154 9.26-0.533 1.683zm0.5 11.626l2.642 17.019-3.642-13.886zm13.782 35.206l3.393 15.19-10.823-21.313zm10.886 21.707l2.355 7.919-7.002-9.449zm52.607 40.775l0.983 1.567-10.288-4.472zm2.643 2.234l-1.208-1.926 22.392 4.412zm54.851 1.892L274.3 366.5l-12.292-0.342zm1.631-0.258l14.653-2.275-16.831 4.74zm33.857-12.65l8.593-2.658-15.153 8.317zm13.765-5.7l-0.675-4.361 12.557-5.775zm27.2-32.6l-0.588 5.86-8.258 9.852zm13.6-24.986l2.122-1.022-9.712 19.012zm2.826-2.527l-2.382 1.147 4.788-15.743z" fill="url(#c)"/>
  <path id="body-outer" d="M478.979 166.36c-10.457-25.124-31.636-52.248-48.267-60.82 13.536 26.5 21.369 53.092 24.363 72.934 0-0.057 0.011 0.049 0.036 0.226 0.012 0.086 0.027 0.174 0.04 0.26 22.7 61.468 10.334 123.975-7.487 162.171-27.572 59.1-94.325 119.668-198.808 116.713-112.89-3.192-212.335-86.853-230.9-196.43-3.382-17.279 0-26.053 1.7-40.083-2.074 10.816-2.863 13.94-3.9 33.157 0 0.41-0.025 0.816-0.025 1.227C15.732 388.421 123.453 496 256.335 496a240.565 240.565 0 0 0 237.156-199.626c0.408-3.076 0.734-6.168 1.094-9.27 4.783-41.21-0.531-84.524-15.606-120.744z" fill="url(#d)"/>
  <path id="body-outer-shadow-overlay" d="M478.979 166.36c-10.457-25.124-31.636-52.248-48.267-60.82 13.536 26.5 21.369 53.092 24.363 72.934 0-0.057 0.011 0.049 0.036 0.226 0.012 0.086 0.027 0.174 0.04 0.26 22.7 61.468 10.334 123.975-7.487 162.171-27.572 59.1-94.325 119.668-198.808 116.713-112.89-3.192-212.335-86.853-230.9-196.43-3.382-17.279 0-26.053 1.7-40.083-2.074 10.816-2.863 13.94-3.9 33.157 0 0.41-0.025 0.816-0.025 1.227C15.732 388.421 123.453 496 256.335 496a240.565 240.565 0 0 0 237.156-199.626c0.408-3.076 0.734-6.168 1.094-9.27 4.783-41.21-0.531-84.524-15.606-120.744z" fill="url(#e)"/>
  <path id="body-center" d="M17.957 261.414c18.564 109.577 118.009 193.238 230.9 196.43 104.483 2.955 171.236-57.618 198.808-116.713 17.821-38.2 30.188-100.7 7.487-162.171l-0.008-0.026-0.032-0.234c-0.025-0.177-0.041-0.283-0.036-0.226 0 0.04 0.015 0.136 0.047 0.4 8.533 55.66-19.813 109.581-64.126 146.04-0.079 0.189-0.133 0.313-0.133 0.313-86.345 70.222-168.97 42.368-185.7 30.966a137.192 137.192 0 0 1-3.5-1.743c-50.34-24.029-71.137-69.837-66.678-109.122-42.506 0-57-35.808-57-35.808s38.163-27.179 88.461-3.541c46.583 21.893 90.332 3.543 90.337 3.541-0.09-1.952-41.965-18.589-58.291-34.655-8.723-8.585-12.865-12.723-16.533-15.828a71.492 71.492 0 0 0-6.232-4.7 281.912 281.912 0 0 0-4.987-3.3c-17.548-11.392-52.448-10.764-53.6-10.735h-0.112c-9.538-12.066-8.865-51.871-8.321-60.182-0.115-0.516-7.116 3.63-8.033 4.254A175.239 175.239 0 0 0 77.156 104.5a210.379 210.379 0 0 0-22.469 26.912c0 0.012-0.007 0.025-0.011 0.037 0-0.012 0.007-0.025 0.011-0.038a202.707 202.707 0 0 0-32.284 72.8c-0.116 0.527-8.661 37.847-4.446 57.203z" fill="url(#f)"/>
  <path id="tail-right" d="M341.214 166.593a130.73 130.73 0 0 1 22.336 29.112c1.325 0.994 2.561 1.985 3.612 2.952 54.545 50.2 25.967 121.2 23.834 126.257 44.313-36.459 72.659-90.38 64.126-146.04-27.207-67.731-73.339-95.043-111.015-154.509-1.905-3.007-3.809-6.022-5.667-9.2a73.154 73.154 0 0 1-2.649-4.971 43.74 43.74 0 0 1-3.591-9.506 0.627 0.627 0 0 0-0.546-0.645 0.822 0.822 0 0 0-0.452 0c-0.034 0.012-0.084 0.051-0.12 0.065-0.053 0.021-0.12 0.069-0.176 0.1-9.306 4.428-64.484 91.692 10.308 166.385z" fill="url(#g)"/>
  <path id="tail-left" d="M248.657 133.645l31.855 2.027 19.347 6.882 16.124 6.329 18.57 13.258 17.493 18.437 6.077 11.467c0.816 0.5 2.5 1.586 3.932 2.558 0.525 0.368 1 0.735 1.5 1.1a130.73 130.73 0 0 0-22.336-29.112C266.422 91.9 321.6 4.636 330.908 0.2c0.027-0.036 0.083-0.117 0.1-0.136-60.44 35.356-80.944 100.759-82.828 133.482l-0.009 0.183z" fill="url(#h)"/>
  <path id="ear" d="M170.74 151.043a243.329 243.329 0 0 1 4.987 3.3 111.208 111.208 0 0 1-0.675-58.731c-24.716 11.241-43.941 29.01-57.916 44.7 1.156-0.033 36.056-0.661 53.604 10.731z" fill="url(#i)"/>
  <path id="tufts" d="M148.32,277.45s11.11-41.34,79.53-41.34c7.4,0,28.54-20.61,28.93-26.59,0,0-43.75,18.35-90.33-3.54C116.15,182.34,78,209.52,78,209.52s14.5,35.81,57,35.81c-4.45,39.28,16.34,85.09,66.68,109.12,1.13.54,2.19,1.12,3.34,1.64C175.62,340.92,151.36,312.26,148.32,277.45Z" fill="url(#j)"/>
  <path id="tail-flame-small" d="M367.162 198.657c-1.051-0.967-2.287-1.958-3.612-2.952-0.49-0.367-0.97-0.734-1.5-1.1-12.847-9.014-35.851-17.917-58.014-14.067 86.541 43.213 63.308 192.023-56.611 186.4a106.974 106.974 0 0 1-31.307-6.03 133.003 133.003 0 0 1-7.067-2.886c-1.358-0.619-2.714-1.243-4.055-1.936 0.048 0.034 0.114 0.071 0.163 0.1 16.729 11.4 99.354 39.256 185.7-30.966 0 0 0.054-0.124 0.133-0.313 2.137-5.048 30.715-76.05-23.83-126.25z" fill="url(#k)"/>
  <path id="highlight-overlay" d="M478.959 166.35c-10.457-25.124-31.637-52.248-48.268-60.82 13.536 26.5 21.37 53.092 24.364 72.934 0 0.04 0.015 0.136 0.047 0.4-27.202-67.731-73.34-95.043-111.015-154.509-1.9-3.008-3.809-6.022-5.668-9.2a73.11 73.11 0 0 1-2.648-4.971 43.755 43.755 0 0 1-3.589-9.5 0.626 0.626 0 0 0-0.547-0.644 0.818 0.818 0 0 0-0.451 0c-0.034 0.012-0.084 0.051-0.12 0.065-0.053 0.021-0.12 0.069-0.176 0.1 0.026-0.036 0.083-0.117 0.1-0.136-60.44 35.356-80.933 100.952-82.817 133.675l0.488-0.088 31.855 2.027 17.928 6.377 17.543 6.834 18.57 13.258 17.472 18.427s6.014 11.287 6.1 11.477c-13.944-8.293-34.208-14.975-54.1-11.519 86.541 43.213 63.308 192.023-56.611 186.4A106.936 106.936 0 0 1 216.1 360.9a131.807 131.807 0 0 1-7.067-2.885c-1.358-0.619-2.714-1.244-4.055-1.936 0.048 0.034 0.114 0.071 0.163 0.105a137.192 137.192 0 0 1-3.5-1.743c1.125 0.537 2.183 1.123 3.338 1.638-29.384-15.167-53.646-43.832-56.677-78.641 0 0 11.106-41.334 79.524-41.334 7.4 0 28.542-20.614 28.935-26.593-0.09-1.952-41.966-18.589-58.291-34.655-8.723-8.585-12.865-12.723-16.533-15.828a71.492 71.492 0 0 0-6.232-4.7 111.208 111.208 0 0 1-0.675-58.731c-24.716 11.241-43.941 29.01-57.917 44.7h-0.111c-9.538-12.066-8.865-51.871-8.322-60.182-0.114-0.516-7.115 3.63-8.033 4.254a175.3 175.3 0 0 0-23.513 20.12A210.463 210.463 0 0 0 54.666 131.4a0.259 0.259 0 0 1-0.011 0.037 0.272 0.272 0 0 0 0.011-0.038 202.724 202.724 0 0 0-32.284 72.8c-0.115 0.521-0.212 1.061-0.325 1.586-0.452 2.116-2.488 12.852-2.772 15.156-0.022 0.176 0.021-0.177 0 0a279.127 279.127 0 0 0-3.548 33.529c0 0.41-0.026 0.816-0.026 1.227 0 132.705 107.722 240.285 240.6 240.285a240.568 240.568 0 0 0 237.16-199.618c0.408-3.076 0.734-6.168 1.094-9.27 4.782-41.21-0.531-84.524-15.606-120.744zm-23.868 12.34c0.012 0.086 0.027 0.174 0.04 0.26l-0.009-0.026c-0.011-0.083-0.022-0.157-0.031-0.234z" fill="url(#l)"/>

  <path id="line-chin" d="M256.78 209.522s-1.02 0.427-2.9 1.071c-4.7 7.943-21.409 23.1-27.8 23.075-68.418-0.3-79.7 40.587-79.7 40.587a87.34 87.34 0 0 0 13.4 39.263 88.025 88.025 0 0 1-11.456-36.069s11.106-41.334 79.525-41.334c7.4 0 28.541-20.614 28.935-26.593z" fill="url(#m)"/>
  <path id="line-tail-right" d="M455.152 178.958l-0.009-0.024c-0.012-0.082-0.021-0.157-0.033-0.233a2.116 2.116 0 0 0-0.033-0.227 5.804 5.804 0 0 0 0.045 0.4 239.04 239.04 0 0 0-5.168-11.9c-0.612-1.314-1.269-2.543-1.9-3.826-1.2-2.465-2.4-4.935-3.657-7.293-0.775-1.456-1.59-2.837-2.383-4.254-1.163-2.076-2.316-4.165-3.515-6.166-0.879-1.463-1.787-2.864-2.68-4.29-1.169-1.862-2.334-3.73-3.533-5.534-0.948-1.429-1.92-2.813-2.886-4.208-1.193-1.723-2.386-3.448-3.6-5.128-1.008-1.387-2.032-2.743-3.052-4.1a349.149 349.149 0 0 0-3.673-4.825q-1.589-2.034-3.2-4.033a486.632 486.632 0 0 0-3.751-4.619q-1.644-1.989-3.307-3.963c-0.6-0.714-1.2-1.447-1.8-2.159 0.26 0.309 0.511 0.63 0.769 0.942-20.846-24.591-43.47-47.254-63.674-79.15-1.908-3.006-3.812-6.021-5.668-9.2a72.064 72.064 0 0 1-2.649-4.971 49.1 49.1 0 0 1-3.31-8.434c-0.042-0.155-0.118-0.391-0.145-0.509-0.082-0.318-0.133-0.56-0.133-0.56a0.63 0.63 0 0 0-0.548-0.645 0.847 0.847 0 0 0-0.451 0c-0.034 0.012-0.085 0.052-0.122 0.067s-0.118 0.067-0.175 0.094a7.406 7.406 0 0 0-1.46 1.072 17.267 17.267 0 0 0-0.348 0.311A25.044 25.044 0 0 0 327.2 3.6c-0.024 0.027-0.043 0.042-0.067 0.069 0.006-0.006 0.012-0.006 0.018-0.012-14.415 16.944-51.226 90.584 8.1 156.635-55.543-65.345-20.542-135.964-5.33-154.464a53.657 53.657 0 0 0 2.964 7.268 74.305 74.305 0 0 0 2.649 4.971c1.856 3.182 3.761 6.2 5.668 9.2 37.675 59.466 83.806 86.779 111.013 154.51a9.121 9.121 0 0 1-0.045-0.4 1.707 1.707 0 0 1 0.033 0.227c0.012 0.076 0.021 0.152 0.033 0.233l0.01 0.025c22.7 61.47 10.333 123.975-7.488 162.171a199.358 199.358 0 0 1-38.217 54.8 199.8 199.8 0 0 0 41.124-57.7c17.821-38.199 30.186-100.704 7.487-162.175z" fill="url(#a)"/>
  <path id="line-tail-left" d="M330.908 0.2c0.027-0.036 0.083-0.117 0.1-0.136-54.445 31.849-76.48 88.075-81.693 122.836 5.988-32.116 26.574-81.173 72.71-112.144 3.797-5.996 7.143-9.723 8.883-10.556z" fill="url(#n)"/>
  <path id="line-tail-flame-small" d="M390.863 325.227s0.054-0.124 0.133-0.313c2.133-5.055 30.711-76.057-23.834-126.257-1.051-0.967-2.287-1.958-3.612-2.952-0.49-0.367-0.97-0.734-1.5-1.1-12.415-8.711-34.316-17.316-55.776-14.41l-0.052 0.006q-1.093 0.15-2.186 0.337c85.565 42.726 63.813 188.673-52.595 186.529 0.316 0.015 0.633 0.04 0.948 0.053 118.009 4.618 141.259-140.089 59.271-185.457 17.768-0.174 34.954 6.314 45.567 13.158 0.539 0.347 1.034 0.694 1.537 1.042 1.363 0.941 2.637 1.883 3.725 2.809 56.473 48.028 30.696 120.09 28.763 125.228a72.283 72.283 0 0 1-0.12 0.318" fill="url(#o)"/>
  <path id="line-tufts" d="M167.09,208.38c39.38,17.06,75.93,6.22,87,2.14-10.2,3.52-47.89,14.14-87.64-4.54-45.22-21.25-80.62-1.44-87.32,2.78v0l-.32.2,0,0-.26.17h0l-.2.13,0,0-.13.08,0,0-.09.06h0l0,0,.12.26v0l.14.31,0,.06.21.45,0,0c.34.72.86,1.75,1.58,3h0c5.34,9.45,21.43,31.63,54.89,31.63-4.32,38.11,15.12,82.35,62.24,106.9-45-26-64-73-58.7-110.49-34.76-.92-50.31-21.76-54.75-30.59C96.5,204.23,128.59,191.7,167.09,208.38Z" fill="url(#p)"/>
  <path id="line-ear" d="M175.69 154.205q-0.568-0.333-1.176-0.684 0.628 0.42 1.213 0.818c-0.013-0.045-0.027-0.089-0.037-0.134zm-0.247-0.882a111.35 111.35 0 0 1-0.391-57.715c-23.43 10.656-41.917 27.176-55.684 42.233 13.11-12.77 30.093-26.473 50.778-35.862-1.28 9.821-2.383 29.926 5.297 51.344z" fill="url(#q)"/>
  <path id="line-body-outer" d="M23.758 286.6c-0.067-0.229-0.126-0.459-0.191-0.689a220.739 220.739 0 0 1-5.61-24.5c-1.836-8.43-1.25-20.266 0-30.987-0.929 5.565-1.511 11.221-2.2 24.061 0 0.41-0.025 0.816-0.025 1.227C15.732 360.731 83.2 450 177.2 482.683 95.716 451.478 35.35 376.8 23.758 286.6z" fill="url(#r)"/>
  <path id="line-body-head" d="M21.832 262.383c-4.214-19.356 4.331-56.676 4.446-57.2a202.7 202.7 0 0 1 32.284-72.8l-0.011 0.038c0-0.012 0.007-0.025 0.011-0.037a210.463 210.463 0 0 1 22.47-26.912 175.229 175.229 0 0 1 23.513-20.12 29.207 29.207 0 0 1 1.015-0.634c-0.083 18.28 0.954 49.124 9.423 59.237h0.111c1.16-0.06 36.177-1.605 54.092 9.322a273.279 273.279 0 0 1 5.092 3.164 71.848 71.848 0 0 1 6.378 4.532c3.764 3.008 8.03 7.036 17.012 15.389 13 12.091 41.356 24.121 53.6 29.852-11.929-6.009-40.077-18.848-52.774-31.343-8.723-8.585-12.865-12.723-16.533-15.828a71.492 71.492 0 0 0-6.232-4.7 281.912 281.912 0 0 0-4.987-3.3c-17.548-11.392-52.448-10.765-53.6-10.735h-0.112c-8.718-11.028-8.905-45.214-8.458-57.362 0.018-0.468 0.036-0.9 0.054-1.3l0.021-0.429a119.792 119.792 0 0 1 0.018-0.356c0.015-0.262 0.029-0.515 0.044-0.734-0.007-0.031-0.042-0.043-0.095-0.042-0.018 0-0.048 0.009-0.071 0.012a1.022 1.022 0 0 0-0.151 0.034c-0.039 0.011-0.087 0.03-0.132 0.046a4.265 4.265 0 0 0-0.39 0.157l-0.234 0.106a16.595 16.595 0 0 0-0.495 0.24l-0.3 0.151-0.245 0.128-0.359 0.188-0.2 0.109c-2.121 1.141-4.813 2.754-5.358 3.125A175.239 175.239 0 0 0 77.156 104.5a210.379 210.379 0 0 0-22.469 26.912c0 0.012-0.007 0.025-0.011 0.037 0-0.012 0.007-0.025 0.011-0.038a202.707 202.707 0 0 0-32.284 72.8c-0.116 0.521-8.661 37.841-4.446 57.2 15.8 93.251 90.176 167.72 181.563 189.812-89.608-23.234-162.113-96.911-177.688-188.84z" fill="url(#s)"/>
  <path id="line-body-tail" d="M478.979 166.36c-9.226-22.167-26.8-45.883-42.231-57.048l-0.425-0.3q-0.717-0.508-1.428-0.982-0.27-0.18-0.54-0.356-0.675-0.435-1.341-0.834c-0.172-0.1-0.345-0.212-0.517-0.312a42.518 42.518 0 0 0-1.786-0.986c0.65 1.272 1.275 2.544 1.9 3.816a394.886 394.886 0 0 1 1.148 2.373c11.668 24.415 18.557 48.448 21.317 66.745 0 0.04 0.015 0.136 0.047 0.4 8.533 55.66-19.813 109.581-64.126 146.04-0.079 0.189-0.133 0.313-0.133 0.313-55.08 44.8-108.642 49.678-144.555 44.383 35.786 6.684 92.233 3.866 150.369-43.414l0.133-0.313c44.312-36.459 72.659-90.381 64.126-146.04a12.553 12.553 0 0 1-0.047-0.4c-2.451-16.242-8.159-37.005-17.57-58.54a159 159 0 0 1 26.316 37.486c17.047 34.76 24.739 77.04 22.235 117.816-0.188 3.07-0.343 6.128-0.58 9.174-13.068 112.5-106.967 202.843-225.783 209.5a245.659 245.659 0 0 1-47.5-1.93A242.635 242.635 0 0 0 256.335 496c119 0 217.812-86.287 237.156-199.626 0.408-3.076 0.734-6.168 1.094-9.27 4.783-41.21-0.531-84.524-15.606-120.744zm-23.828 12.6l-0.008-0.026-0.032-0.234c0.012 0.086 0.027 0.174 0.04 0.26z" fill="url(#t)"/>
</svg>
