<?xml version="1.0" encoding="utf-8"?>
<!-- Generator: Adobe Illustrator 23.0.2, SVG Export Plug-In . SVG Version: 6.00 Build 0)  -->
<svg version="1.1" xmlns="http://www.w3.org/2000/svg" xmlns:xlink="http://www.w3.org/1999/xlink" x="0px" y="0px"
	 viewBox="0 0 3085 1100" style="enable-background:new 0 0 3085 1100;" xml:space="preserve">
<g id="LiveType" style="display:none;">
	<rect x="1224.4104004" y="275.0574646" style="display:inline;fill:none;" width="3026.0895996" height="864.9425659"/>
	
		<text transform="matrix(1 0 0 1 1224.4101562 749.0722656)" style="display:inline; font-family:'FirefoxLogo-FINAL'; font-size:548px;">a</text>
</g>
<g id="Outlined">
	<g>
		<g>
			
				<radialGradient id="SVGID_1_" cx="-313.1169128" cy="-294.0256348" r="1137.4468994" fx="-272.4334412" fy="-314.1337891" gradientTransform="matrix(1 0 0 1 1258.4412842 532.8895874)" gradientUnits="userSpaceOnUse">
				<stop  offset="0" style="stop-color:#FFF44F"/>
				<stop  offset="0.2948518" style="stop-color:#FF980E"/>
				<stop  offset="0.4315208" style="stop-color:#FF5D36"/>
				<stop  offset="0.5302083" style="stop-color:#FF3750"/>
				<stop  offset="0.7493189" style="stop-color:#F5156C"/>
				<stop  offset="0.7647903" style="stop-color:#F1136E"/>
				<stop  offset="0.8800957" style="stop-color:#DA057A"/>
				<stop  offset="0.9527844" style="stop-color:#D2007F"/>
			</radialGradient>
			<path style="fill:url(#SVGID_1_);" d="M950.5007935,245.6908417
				C859.913208,126.6757278,718.6820068,52.5020866,570.1432495,49.5448685
				c-116.3605957-2.3164749-196.7597961,32.5675659-242.2490234,60.6121597
				c60.8618774-35.2124557,148.92453-55.1841888,226.0307007-54.2016525
				c198.3574219,2.5272446,411.3792114,137.2709656,443.0187378,380.1703491
				c36.319519,278.8270264-158.3357544,511.5388794-432.1899414,512.2414551
				c-301.2767334,0.7728882-484.5157471-265.3595581-436.6246033-504.3979187
				c2.3915405-11.9366455,1.1977234-23.5464478,5.1847534-34.828064
				C135.5961761,367.1107483,151.5112,301.22995,185.843399,233.9146423
				c-34.6892395,17.9047241-78.8668747,74.5549011-100.679184,127.0298157
				c-31.4452057,75.6491699-42.5270462,166.1155396-32.5512428,252.18573
				c0.7509918,6.4788208,1.4312096,12.9389038,2.2805061,19.3625488
				c40.3513565,236.7232666,246.4529266,416.9420776,494.675354,416.9420776
				c277.1729736,0,501.8654785-224.6925049,501.8654785-501.8637695
				C1051.4343262,434.2424927,1013.8554688,329.7010193,950.5007935,245.6908417z M156.1669769,289.2738037l-0.0016937,0.001709
				L156.1669769,289.2738037z"/>
			<g style="opacity:0.67;">
				
					<radialGradient id="SVGID_2_" cx="-1126.3173828" cy="-246.9715271" r="673.1715088" fx="-1102.2398682" fy="-258.8720703" gradientTransform="matrix(1 0 0 1 1258.4412842 532.8895874)" gradientUnits="userSpaceOnUse">
					<stop  offset="0" style="stop-color:#B5007F"/>
					<stop  offset="1" style="stop-color:#F5156C;stop-opacity:0"/>
				</radialGradient>
				<path style="fill:url(#SVGID_2_);" d="M950.5007935,245.6908417
					C859.913208,126.6757278,718.6820068,52.5020866,570.1432495,49.5448685
					c-116.3605957-2.3164749-196.7597961,32.5675659-242.2490234,60.6121597
					c60.8618774-35.2124557,148.92453-55.1841888,226.0307007-54.2016525
					c198.3574219,2.5272446,411.3792114,137.2709656,443.0187378,380.1703491
					c36.319519,278.8270264-158.3357544,511.5388794-432.1899414,512.2414551
					c-301.2767334,0.7728882-484.5157471-265.3595581-436.6246033-504.3979187
					c2.3915405-11.9366455,1.1977234-23.5464478,5.1847534-34.828064
					C135.5961761,367.1107483,151.5112,301.22995,185.843399,233.9146423
					c-34.6892395,17.9047241-78.8668747,74.5549011-100.679184,127.0298157
					c-31.4452057,75.6491699-42.5270462,166.1155396-32.5512428,252.18573
					c0.7509918,6.4788208,1.4312096,12.9389038,2.2805061,19.3625488
					c40.3513565,236.7232666,246.4529266,416.9420776,494.675354,416.9420776
					c277.1729736,0,501.8654785-224.6925049,501.8654785-501.8637695
					C1051.4343262,434.2424927,1013.8554688,329.7010193,950.5007935,245.6908417z M156.1669769,289.2738037l-0.0016937,0.001709
					L156.1669769,289.2738037z"/>
			</g>
			
				<radialGradient id="SVGID_3_" cx="-215.8832245" cy="-358.7468262" r="1335.6573486" fx="-168.1103058" fy="-382.3590088" gradientTransform="matrix(1 0 0 1 1258.4412842 532.8895874)" gradientUnits="userSpaceOnUse">
				<stop  offset="0" style="stop-color:#FFDD00;stop-opacity:0.6"/>
				<stop  offset="0.0836672" style="stop-color:#FFD801;stop-opacity:0.524402"/>
				<stop  offset="0.1822441" style="stop-color:#FECA05;stop-opacity:0.4353322"/>
				<stop  offset="0.2883662" style="stop-color:#FEB20C;stop-opacity:0.3394448"/>
				<stop  offset="0.399791" style="stop-color:#FD9115;stop-opacity:0.2387661"/>
				<stop  offset="0.5154039" style="stop-color:#FB6621;stop-opacity:0.1343033"/>
				<stop  offset="0.6328723" style="stop-color:#F9332F;stop-opacity:0.028164"/>
				<stop  offset="0.6640424" style="stop-color:#F92433;stop-opacity:0"/>
			</radialGradient>
			<path style="fill:url(#SVGID_3_);" d="M950.5007935,245.6908417
				C859.913208,126.6757278,718.6820068,52.5020866,570.1432495,49.5448685
				c-116.3605957-2.3164749-196.7597961,32.5675659-242.2490234,60.6121597
				c60.8618774-35.2124557,148.92453-55.1841888,226.0307007-54.2016525
				c198.3574219,2.5272446,411.3792114,137.2709656,443.0187378,380.1703491
				c36.319519,278.8270264-158.3357544,511.5388794-432.1899414,512.2414551
				c-301.2767334,0.7728882-484.5157471-265.3595581-436.6246033-504.3979187
				c2.3915405-11.9366455,1.1977234-23.5464478,5.1847534-34.828064
				C135.5961761,367.1107483,151.5112,301.22995,185.843399,233.9146423
				c-34.6892395,17.9047241-78.8668747,74.5549011-100.679184,127.0298157
				c-31.4452057,75.6491699-42.5270462,166.1155396-32.5512428,252.18573
				c0.7509918,6.4788208,1.4312096,12.9389038,2.2805061,19.3625488
				c40.3513565,236.7232666,246.4529266,416.9420776,494.675354,416.9420776
				c277.1729736,0,501.8654785-224.6925049,501.8654785-501.8637695
				C1051.4343262,434.2424927,1013.8554688,329.7010193,950.5007935,245.6908417z M156.1669769,289.2738037l-0.0016937,0.001709
				L156.1669769,289.2738037z"/>
		</g>
		<g>
			<radialGradient id="SVGID_4_" cx="578.8758545" cy="605.8076172" r="1723.1037598" gradientUnits="userSpaceOnUse">
				<stop  offset="0.1528494" style="stop-color:#960E18"/>
				<stop  offset="0.2061304" style="stop-color:#CC2335;stop-opacity:0.5541388"/>
				<stop  offset="0.2494777" style="stop-color:#F13148;stop-opacity:0.1914039"/>
				<stop  offset="0.2723507" style="stop-color:#FF3750;stop-opacity:0"/>
			</radialGradient>
			<path style="fill:url(#SVGID_4_);" d="M950.5007935,245.6908417
				C859.913208,126.6757278,718.6820068,52.5020866,570.1432495,49.5448685
				c-116.3605957-2.3164749-196.7597961,32.5675659-242.2490234,60.6121597
				c60.8618774-35.2124557,148.92453-55.1841888,226.0307007-54.2016525
				c198.3574219,2.5272446,411.3792114,137.2709656,443.0187378,380.1703491
				c36.319519,278.8270264-158.3357544,511.5388794-432.1899414,512.2414551
				c-301.2767334,0.7728882-484.5157471-265.3595581-436.6246033-504.3979187
				c2.3915405-11.9366455,1.1977234-23.5464478,5.1847534-34.828064
				C135.5961761,367.1107483,151.5112,301.22995,185.843399,233.9146423
				c-34.6892395,17.9047241-78.8668747,74.5549011-100.679184,127.0298157
				c-31.4452057,75.6491699-42.5270462,166.1155396-32.5512428,252.18573
				c0.7509918,6.4788208,1.4312096,12.9389038,2.2805061,19.3625488
				c40.3513565,236.7232666,246.4529266,416.9420776,494.675354,416.9420776
				c277.1729736,0,501.8654785-224.6925049,501.8654785-501.8637695
				C1051.4343262,434.2424927,1013.8554688,329.7010193,950.5007935,245.6908417z M156.1669769,289.2738037l-0.0016937,0.001709
				L156.1669769,289.2738037z"/>
			<radialGradient id="SVGID_5_" cx="448.4836731" cy="584.1409302" r="1723.1037598" gradientUnits="userSpaceOnUse">
				<stop  offset="0.1129055" style="stop-color:#960E18"/>
				<stop  offset="0.1893459" style="stop-color:#CC2335;stop-opacity:0.5541388"/>
				<stop  offset="0.2515348" style="stop-color:#F13148;stop-opacity:0.1914039"/>
				<stop  offset="0.2843499" style="stop-color:#FF3750;stop-opacity:0"/>
			</radialGradient>
			<path style="fill:url(#SVGID_5_);" d="M950.5007935,245.6908417
				C859.913208,126.6757278,718.6820068,52.5020866,570.1432495,49.5448685
				c-116.3605957-2.3164749-196.7597961,32.5675659-242.2490234,60.6121597
				c60.8618774-35.2124557,148.92453-55.1841888,226.0307007-54.2016525
				c198.3574219,2.5272446,411.3792114,137.2709656,443.0187378,380.1703491
				c36.319519,278.8270264-158.3357544,511.5388794-432.1899414,512.2414551
				c-301.2767334,0.7728882-484.5157471-265.3595581-436.6246033-504.3979187
				c2.3915405-11.9366455,1.1977234-23.5464478,5.1847534-34.828064
				C135.5961761,367.1107483,151.5112,301.22995,185.843399,233.9146423
				c-34.6892395,17.9047241-78.8668747,74.5549011-100.679184,127.0298157
				c-31.4452057,75.6491699-42.5270462,166.1155396-32.5512428,252.18573
				c0.7509918,6.4788208,1.4312096,12.9389038,2.2805061,19.3625488
				c40.3513565,236.7232666,246.4529266,416.9420776,494.675354,416.9420776
				c277.1729736,0,501.8654785-224.6925049,501.8654785-501.8637695
				C1051.4343262,434.2424927,1013.8554688,329.7010193,950.5007935,245.6908417z M156.1669769,289.2738037l-0.0016937,0.001709
				L156.1669769,289.2738037z"/>
		</g>
		
			<linearGradient id="SVGID_6_" gradientUnits="userSpaceOnUse" x1="-635.1375122" y1="-386.265686" x2="-340.3103638" y2="124.3899536" gradientTransform="matrix(1 0 0 1 1258.4412842 532.8895874)">
			<stop  offset="0" style="stop-color:#FFBC04"/>
			<stop  offset="0.2596934" style="stop-color:#FFA202;stop-opacity:0.4886038"/>
			<stop  offset="0.5078125" style="stop-color:#FF8E00;stop-opacity:0"/>
		</linearGradient>
		<path style="fill:url(#SVGID_6_);" d="M996.9436646,436.1257324c4.0106812,30.7896423,5.1936035,61.0677185,3.7756348,90.5787354
			c16.6187134-2.4597168,33.2676392-4.6887817,49.9487915-6.6194458
			c-5.5478516-102.7183533-41.9695435-197.2221375-100.1672974-274.394165
			C859.913208,126.6757278,718.6820068,52.5020866,570.1432495,49.5448685
			c-116.3605957-2.3164749-196.7597961,32.5675659-242.2490234,60.6121597
			c60.8618774-35.2124557,148.92453-55.1841888,226.0307007-54.2016525
			C752.2823486,58.4826202,965.3041382,193.2263489,996.9436646,436.1257324z"/>
		<g>
			
				<radialGradient id="SVGID_7_" cx="-416.9147644" cy="106.3577499" r="1113.4276123" fx="-377.0904236" fy="86.6742096" gradientTransform="matrix(0.9588647 0 0 0.9588647 1321.222168 98.4515228)" gradientUnits="userSpaceOnUse">
				<stop  offset="0" style="stop-color:#FF980E"/>
				<stop  offset="0.295012" style="stop-color:#FF7139"/>
				<stop  offset="0.4846462" style="stop-color:#FF5B51"/>
				<stop  offset="0.6260016" style="stop-color:#FF4F5E"/>
				<stop  offset="0.73652" style="stop-color:#FF4055"/>
				<stop  offset="0.8428285" style="stop-color:#FF3750"/>
			</radialGradient>
			<path style="fill:url(#SVGID_7_);" d="M1009.1436768,422.2587585
				C980.9385376,168.412735,754.015625,54.3102264,553.9249268,55.9553757
				c-77.1098328,0.6339989-165.1688232,18.9891968-226.0307007,54.2016525
				c-28.4297791,17.5273438-43.2206726,32.3715973-44.6003113,33.789566
				c1.6130066-1.3360138,6.4342651-5.2958984,14.4319458-10.7717896c0.2618103-0.1829834,0.526062-0.3620605,0.7885132-0.5441284
				c0.2273865-0.1544037,0.4650574-0.3126984,0.6972351-0.4693146c29.0118103-20.003418,61.756134-34.5315933,96.3812256-44.6540756
				c52.8805542-15.4594193,110.1348877-20.647789,165.1827393-19.267746
				c226.295105,13.0186615,385.9902344,200.3981628,391.5496216,399.8522644
				c4.6011353,165.0761108-130.8373413,296.7229004-286.9577637,304.3478394
				c-113.5421143,5.5453491-220.4953613-49.2664795-272.7671509-158.9206543
				c-11.6286011-24.394043-20.1567993-49.1885376-24.6047058-79.1616211
				c-24.7638245-166.8764954,87.5666199-309.1864014,190.57547-344.4183655
				c-55.5786133-48.4276428-194.8154602-45.1428223-298.4481812,30.9161987
				c-74.6321259,54.7746582-123.0462189,138.1130066-139.0859833,237.5387573
				c-12.2292175,75.8052673-0.7115555,154.6369934,29.3205719,225.0426331
				c30.6013641,71.7401733,80.3686371,134.9858398,142.9360352,181.5567017
				c67.941925,50.5714111,149.7554932,79.998291,234.08078,86.4076538
				c12.4359131,0.9452515,24.9078979,1.4075928,37.3794556,1.4075928
				C896.3232422,952.8085327,1040.1950684,701.7214966,1009.1436768,422.2587585z"/>
			
				<radialGradient id="SVGID_8_" cx="-416.9147644" cy="106.3577499" r="1113.4276123" fx="-377.0904236" fy="86.6742096" gradientTransform="matrix(0.9588647 0 0 0.9588647 1321.222168 98.4515228)" gradientUnits="userSpaceOnUse">
				<stop  offset="0.0840745" style="stop-color:#FFDE08"/>
				<stop  offset="0.2081029" style="stop-color:#FFD609;stop-opacity:0.8320085"/>
				<stop  offset="0.4032703" style="stop-color:#FFBF0B;stop-opacity:0.5676619"/>
				<stop  offset="0.643689" style="stop-color:#FF9B0F;stop-opacity:0.2420242"/>
				<stop  offset="0.8223758" style="stop-color:#FF7B12;stop-opacity:0"/>
			</radialGradient>
			<path style="fill:url(#SVGID_8_);" d="M1009.1436768,422.2587585
				C980.9385376,168.412735,754.015625,54.3102264,553.9249268,55.9553757
				c-77.1098328,0.6339989-165.1688232,18.9891968-226.0307007,54.2016525
				c-28.4297791,17.5273438-43.2206726,32.3715973-44.6003113,33.789566
				c1.6130066-1.3360138,6.4342651-5.2958984,14.4319458-10.7717896c0.2618103-0.1829834,0.526062-0.3620605,0.7885132-0.5441284
				c0.2273865-0.1544037,0.4650574-0.3126984,0.6972351-0.4693146c29.0118103-20.003418,61.756134-34.5315933,96.3812256-44.6540756
				c52.8805542-15.4594193,110.1348877-20.647789,165.1827393-19.267746
				c226.295105,13.0186615,385.9902344,200.3981628,391.5496216,399.8522644
				c4.6011353,165.0761108-130.8373413,296.7229004-286.9577637,304.3478394
				c-113.5421143,5.5453491-220.4953613-49.2664795-272.7671509-158.9206543
				c-11.6286011-24.394043-20.1567993-49.1885376-24.6047058-79.1616211
				c-24.7638245-166.8764954,87.5666199-309.1864014,190.57547-344.4183655
				c-55.5786133-48.4276428-194.8154602-45.1428223-298.4481812,30.9161987
				c-74.6321259,54.7746582-123.0462189,138.1130066-139.0859833,237.5387573
				c-12.2292175,75.8052673-0.7115555,154.6369934,29.3205719,225.0426331
				c30.6013641,71.7401733,80.3686371,134.9858398,142.9360352,181.5567017
				c67.941925,50.5714111,149.7554932,79.998291,234.08078,86.4076538
				c12.4359131,0.9452515,24.9078979,1.4075928,37.3794556,1.4075928
				C896.3232422,952.8085327,1040.1950684,701.7214966,1009.1436768,422.2587585z"/>
		</g>
		<g>
			
				<radialGradient id="SVGID_9_" cx="674.8007812" cy="532.5661621" r="523.6132202" gradientTransform="matrix(0.2472277 0.9689574 -1.011201 0.2580061 1046.5028076 -258.6923828)" gradientUnits="userSpaceOnUse">
				<stop  offset="0.3633813" style="stop-color:#FF3750"/>
				<stop  offset="0.4111364" style="stop-color:#FF444B;stop-opacity:0.7894784"/>
				<stop  offset="0.5902234" style="stop-color:#FF7139;stop-opacity:0"/>
			</radialGradient>
			<path style="opacity:0.53;fill:url(#SVGID_9_);" d="M1009.1436768,422.2587585
				C980.9385376,168.412735,754.015625,54.3102264,553.9249268,55.9553757
				c-77.1098328,0.6339989-165.1688232,18.9891968-226.0307007,54.2016525
				c-28.4297791,17.5273438-43.2206726,32.3715973-44.6003113,33.789566
				c1.6130066-1.3360138,6.4342651-5.2958984,14.4319458-10.7717896c0.2618103-0.1829834,0.526062-0.3620605,0.7885132-0.5441284
				c0.2273865-0.1544037,0.4650574-0.3126984,0.6972351-0.4693146c29.0118103-20.003418,61.756134-34.5315933,96.3812256-44.6540756
				c52.8805542-15.4594193,110.1348877-20.647789,165.1827393-19.267746
				c226.295105,13.0186615,385.9902344,200.3981628,391.5496216,399.8522644
				c4.6011353,165.0761108-130.8373413,296.7229004-286.9577637,304.3478394
				c-113.5421143,5.5453491-220.4953613-49.2664795-272.7671509-158.9206543
				c-11.6286011-24.394043-20.1567993-49.1885376-24.6047058-79.1616211
				c-24.7638245-166.8764954,87.5666199-309.1864014,190.57547-344.4183655
				c-55.5786133-48.4276428-194.8154602-45.1428223-298.4481812,30.9161987
				c-74.6321259,54.7746582-123.0462189,138.1130066-139.0859833,237.5387573
				c-12.2292175,75.8052673-0.7115555,154.6369934,29.3205719,225.0426331
				c30.6013641,71.7401733,80.3686371,134.9858398,142.9360352,181.5567017
				c67.941925,50.5714111,149.7554932,79.998291,234.08078,86.4076538
				c12.4359131,0.9452515,24.9078979,1.4075928,37.3794556,1.4075928
				C896.3232422,952.8085327,1040.1950684,701.7214966,1009.1436768,422.2587585z"/>
			
				<radialGradient id="SVGID_10_" cx="584.5467529" cy="576.9088745" r="523.6132202" gradientTransform="matrix(0.2472277 0.9689574 -0.9698079 0.2474447 999.5214233 -132.2451019)" gradientUnits="userSpaceOnUse">
				<stop  offset="0.2158888" style="stop-color:#FF3750;stop-opacity:0.8"/>
				<stop  offset="0.2702094" style="stop-color:#FF444B;stop-opacity:0.6315827"/>
				<stop  offset="0.4739173" style="stop-color:#FF7139;stop-opacity:0"/>
			</radialGradient>
			<path style="opacity:0.53;fill:url(#SVGID_10_);" d="M1009.1436768,422.2587585
				C980.9385376,168.412735,754.015625,54.3102264,553.9249268,55.9553757
				c-77.1098328,0.6339989-165.1688232,18.9891968-226.0307007,54.2016525
				c-28.4297791,17.5273438-43.2206726,32.3715973-44.6003113,33.789566
				c1.6130066-1.3360138,6.4342651-5.2958984,14.4319458-10.7717896c0.2618103-0.1829834,0.526062-0.3620605,0.7885132-0.5441284
				c0.2273865-0.1544037,0.4650574-0.3126984,0.6972351-0.4693146c29.0118103-20.003418,61.756134-34.5315933,96.3812256-44.6540756
				c52.8805542-15.4594193,110.1348877-20.647789,165.1827393-19.267746
				c226.295105,13.0186615,385.9902344,200.3981628,391.5496216,399.8522644
				c4.6011353,165.0761108-130.8373413,296.7229004-286.9577637,304.3478394
				c-113.5421143,5.5453491-220.4953613-49.2664795-272.7671509-158.9206543
				c-11.6286011-24.394043-20.1567993-49.1885376-24.6047058-79.1616211
				c-24.7638245-166.8764954,87.5666199-309.1864014,190.57547-344.4183655
				c-55.5786133-48.4276428-194.8154602-45.1428223-298.4481812,30.9161987
				c-74.6321259,54.7746582-123.0462189,138.1130066-139.0859833,237.5387573
				c-12.2292175,75.8052673-0.7115555,154.6369934,29.3205719,225.0426331
				c30.6013641,71.7401733,80.3686371,134.9858398,142.9360352,181.5567017
				c67.941925,50.5714111,149.7554932,79.998291,234.08078,86.4076538
				c12.4359131,0.9452515,24.9078979,1.4075928,37.3794556,1.4075928
				C896.3232422,952.8085327,1040.1950684,701.7214966,1009.1436768,422.2587585z"/>
		</g>
		<g>
			
				<radialGradient id="SVGID_11_" cx="-194.7042084" cy="-19.4151573" r="1881.8966064" gradientTransform="matrix(0.9588647 0 0 0.9588647 1321.222168 98.4515228)" gradientUnits="userSpaceOnUse">
				<stop  offset="0.0535657" style="stop-color:#FFF44F"/>
				<stop  offset="0.4572717" style="stop-color:#FF980E"/>
				<stop  offset="0.5210502" style="stop-color:#FF8424"/>
				<stop  offset="0.587052" style="stop-color:#FF7634"/>
				<stop  offset="0.639343" style="stop-color:#FF7139"/>
			</radialGradient>
			<path style="fill:url(#SVGID_11_);" d="M665.3674316,772.4396362
				c214.2891235-13.0015259,305.9779053-189.951355,311.7249756-315.5655212
				c8.9743652-196.1537476-107.6922607-407.6920776-416.3168335-388.6345825
				c-55.0478516-1.380043-112.3021851,3.8083267-165.1827393,19.267746
				c-46.3563232,14.1419678-78.5527344,32.6317139-96.3812256,44.6540756
				c-0.2306213,0.1590729-0.4671021,0.3095856-0.6972351,0.4693146c-0.2770996,0.1881714-0.5186462,0.3593292-0.7885132,0.5441284
				c-4.7990417,3.3544617-9.4916077,6.8642426-14.0743103,10.526474
				c8.5806274-5.8567657,115.0122375-68.561264,262.8816528-49.2011871
				c177.1461182,23.1932144,339.1634521,160.7157288,339.1634521,342.1664124
				c0,139.6087646-108.1513062,246.1913452-234.77948,238.5826416
				C462.77948,663.944458,415.4045105,471.4837036,513.2272949,388.3259583
				c-26.3902283-5.6702881-75.9858704,5.4332275-110.5151367,56.9367676
				c-30.982605,46.2134399-29.2337036,117.622467-10.1118774,168.2562561
				C444.8720703,723.1731567,551.8986816,779.3241577,665.3674316,772.4396362z"/>
		</g>
		<g>
			
				<linearGradient id="SVGID_12_" gradientUnits="userSpaceOnUse" x1="788.5723877" y1="137.6502228" x2="277.0056763" y2="1023.7097168">
				<stop  offset="0" style="stop-color:#FFF44F;stop-opacity:0.8"/>
				<stop  offset="0.75" style="stop-color:#FFF44F;stop-opacity:0"/>
			</linearGradient>
			<path style="fill:url(#SVGID_12_);" d="M950.4990234,245.690979
				c-13.4321899-17.6513672-28.1028442-34.1841278-43.6257324-49.7758484
				c-12.4511719-13.181366-25.7945557-25.3262634-39.8082275-36.5744781
				c8.0744019,7.0600891,15.8469238,14.470871,23.1622925,22.3677216
				c27.1395264,29.296875,48.6328125,63.907135,61.168335,101.79776
				c26.1762695,79.1193542,24.4672852,178.1294861-25.5060425,255.894928
				c-59.5526123,92.6691284-156.5030518,138.4144287-261.3059692,136.1860962
				c-4.5321655,0.0199585-9.0820312-0.0621338-13.6674805-0.3373413
				c-188.1347656-11.3059692-235.5113831-203.766449-137.6864624-286.9230042
				c-26.3937988-5.6707153-75.9854126,5.4332581-110.5157776,56.9358215
				c-30.9836731,46.213623-29.2347412,117.6225586-10.1118774,168.255127
				c-11.6299744-24.3919067-20.157135-49.1877441-24.60495-79.1593018
				c-24.76474-166.8768005,87.5666199-309.1885986,190.5762329-344.4203491
				c-55.5797424-48.4264069-194.8153992-45.1416016-298.4508667,30.9170837
				C199.7353973,265.1756287,156.5313873,328.208313,133.733078,403.3215027
				c3.3513947-42.1453247,19.3093109-105.093689,52.1085052-169.4069824
				c-34.68573,17.9043884-78.8663177,74.5561218-100.674736,127.028595
				c-31.4453163,75.6503296-42.5293007,166.1177368-32.5550461,252.1884155
				c0.7546158,6.4763794,1.433773,12.9372559,2.2816048,19.3626099
				c40.3497963,236.7221069,246.4533386,416.9411621,494.6778259,416.9411621
				c277.1706543,0,501.8644409-224.6937256,501.8644409-501.8643799
				C1051.4356689,434.2430115,1013.8557129,329.7019958,950.4990234,245.690979z"/>
		</g>
		
			<linearGradient id="SVGID_13_" gradientUnits="userSpaceOnUse" x1="-632.7390137" y1="145.4889221" x2="-632.7390137" y2="-477.1130676" gradientTransform="matrix(1 0 0 1 1258.4412842 532.8895874)">
			<stop  offset="0" style="stop-color:#3A8EE6"/>
			<stop  offset="0.2359339" style="stop-color:#5C79F0"/>
			<stop  offset="0.6293269" style="stop-color:#9059FF"/>
			<stop  offset="1" style="stop-color:#C139E6"/>
		</linearGradient>
		<path style="fill:url(#SVGID_13_);" d="M951.3945923,283.5067139
			c-12.5362549-37.8920288-34.0290527-72.5027466-61.1689453-101.7970886
			c-31.9752197-34.5134583-71.7949219-60.7394333-113.9485474-81.1636047
			c-35.8624878-17.3760071-73.3149414-31.0893021-112.0202637-39.6108818
			c-69.3267212-15.2633095-142.0620728-14.9926338-207.5569458-1.2080498
			c-71.2038574,14.9861298-133.820343,45.7270737-173.4199829,84.1589584
			c29.6925354-18.0002594,71.1118164-32.5988998,100.6249084-40.0382233
			c136.95755-34.5226517,287.7667542,2.8698883,390.5877991,101.2432251
			c20.6723022,19.7780762,39.2091675,41.9087372,54.2386475,66.2847443
			c61.3394775,99.4852905,55.5358276,224.5552673,7.7124634,298.3190308
			c-35.5273438,54.7980957-111.6057129,106.2053223-182.5895386,105.6468506
			c108.8991699,5.7005615,210.4522705-40.1100464,272.0344238-135.9393311
			C975.8633423,461.6353455,977.5701904,362.6251831,951.3945923,283.5067139z"/>
		
			<linearGradient id="SVGID_14_" gradientUnits="userSpaceOnUse" x1="-861.8531494" y1="-479.9674072" x2="-356.6594238" y2="25.2263165" gradientTransform="matrix(1 0 0 1 1258.4412842 532.8895874)">
			<stop  offset="0.8054287" style="stop-color:#9059FF;stop-opacity:0"/>
			<stop  offset="1" style="stop-color:#6E008B;stop-opacity:0.5"/>
		</linearGradient>
		<path style="fill:url(#SVGID_14_);" d="M951.3945923,283.5067139
			c-12.5362549-37.8920288-34.0290527-72.5027466-61.1689453-101.7970886
			c-31.9752197-34.5134583-71.7949219-60.7394333-113.9485474-81.1636047
			c-35.8624878-17.3760071-73.3149414-31.0893021-112.0202637-39.6108818
			c-69.3267212-15.2633095-142.0620728-14.9926338-207.5569458-1.2080498
			c-71.2038574,14.9861298-133.820343,45.7270737-173.4199829,84.1589584
			c29.6925354-18.0002594,71.1118164-32.5988998,100.6249084-40.0382233
			c136.95755-34.5226517,287.7667542,2.8698883,390.5877991,101.2432251
			c20.6723022,19.7780762,39.2091675,41.9087372,54.2386475,66.2847443
			c61.3394775,99.4852905,55.5358276,224.5552673,7.7124634,298.3190308
			c-35.5273438,54.7980957-111.6057129,106.2053223-182.5895386,105.6468506
			c108.8991699,5.7005615,210.4522705-40.1100464,272.0344238-135.9393311
			C975.8633423,461.6353455,977.5701904,362.6251831,951.3945923,283.5067139z"/>
	</g>
	<g>
		<path d="M1251.8105469,349.0292969h267.4257812v72.3369141H1328.53125v98.0927734h190.7050781v71.7880859H1328.53125v157.8251953
			h-76.7207031V349.0292969z M1610.2050781,321.0810547c26.3046875,0,44.3886719,19.1796875,44.3886719,44.9365234
			c0,25.7558594-17.5361328,44.9365234-44.9365234,44.9365234c-26.3046875,0-44.3886719-18.6328125-44.3886719-43.8408203
			C1565.2685547,339.7128906,1585.5449219,321.0810547,1610.2050781,321.0810547z M1572.3925781,453.1503906h75.625v295.921875
			h-75.625V453.1503906z M1867.21875,535.3505859c-9.3154297-7.671875-23.5634766-13.1523438-36.7158203-13.1523438
			c-30.6884766,0-48.2246094,19.7285156-48.2246094,63.0205078v163.8535156h-75.0761719v-295.921875h71.7880859v42.7441406
			c15.34375-33.4287109,38.9082031-45.484375,70.6923828-45.484375c17.5361328,0,36.7167969,5.4794922,50.4169922,15.34375
			L1867.21875,535.3505859z M1898.4550781,602.7548828c0-84.9404297,63.0205078-155.6328125,152.3457031-155.6328125
			c88.7763672,0,151.796875,63.0205078,151.796875,150.7011719v31.2363281h-230.1621094
			c8.2207031,37.2636719,37.2646484,61.9238281,81.6533203,61.9238281c34.5234375,0,58.0878906-16.4394531,73.4326172-43.8398438
			l63.0195312,37.8125c-31.2353516,46.0322266-75.6240234,70.1445312-138.6445312,70.1445312
			C1955.9960938,755.1005859,1898.4550781,690.9833984,1898.4550781,602.7548828z M1973.5322266,569.3271484h155.6328125
			c-8.2197266-37.8125-38.9082031-58.6367188-78.9130859-58.6367188
			C2014.0839844,510.6904297,1983.9443359,530.9667969,1973.5322266,569.3271484z M2221.2294922,453.1503906h53.15625v-14.796875
			c0-80.5566406,33.9765625-113.984375,108.5048828-113.984375h26.3046875v65.2128906h-21.3720703
			c-35.0722656,0-42.7451172,12.0556641-42.7451172,48.7714844v14.796875h64.1171875v67.9521484h-62.4726562v227.9697266
			h-72.3369141V521.1025391h-53.15625V453.1503906z M2423.4433594,601.1113281
			c0-84.9404297,64.6640625-153.9892578,154.5371094-153.9892578c85.4882812,0,154.5371094,68.5,154.5371094,153.9892578
			c0,85.4882812-69.0488281,153.9892578-154.5371094,153.9892578
			C2485.9160156,755.1005859,2423.4433594,687.6953125,2423.4433594,601.1113281z M2659.0849609,601.1113281
			c0-47.1289062-35.0722656-83.8447266-81.1044922-83.8447266c-46.5800781,0-81.1044922,36.7158203-81.1044922,83.8447266
			c0,47.1279297,34.5244141,83.8447266,81.1044922,83.8447266
			C2624.0126953,684.9560547,2659.0849609,648.2392578,2659.0849609,601.1113281z M2834.4462891,597.8232422
			l-106.8603516-144.6728516h88.7763672l63.0205078,90.96875l64.6640625-90.96875h87.1328125l-108.5048828,144.125
			l113.9853516,151.796875h-88.2285156l-70.6933594-96.4492188l-68.5,96.4492188h-88.2285156L2834.4462891,597.8232422z"/>
	</g>
</g>
<g id="Layer_3">
</g>
<g id="Layer_4">
</g>
<g id="Layer_5">
</g>
</svg>
