<?xml version="1.0" encoding="utf-8"?>
<!-- Generator: Adobe Illustrator 17.0.0, SVG Export Plug-In . SVG Version: 6.00 Build 0)  -->
<!DOCTYPE svg PUBLIC "-//W3C//DTD SVG 1.1//EN" "http://www.w3.org/Graphics/SVG/1.1/DTD/svg11.dtd">
<svg version="1.1"
	 id="svg3541" xmlns:dc="http://purl.org/dc/elements/1.1/" xmlns:rdf="http://www.w3.org/1999/02/22-rdf-syntax-ns#" xmlns:cc="http://creativecommons.org/ns#" xmlns:svg="http://www.w3.org/2000/svg" xmlns:sodipodi="http://sodipodi.sourceforge.net/DTD/sodipodi-0.dtd" xmlns:inkscape="http://www.inkscape.org/namespaces/inkscape" sodipodi:docname="New document 3" inkscape:version="0.48.5 r10040"
	 xmlns="http://www.w3.org/2000/svg" xmlns:xlink="http://www.w3.org/1999/xlink" x="0px" y="0px" width="337.728px"
	 height="58.379px" viewBox="387.362 120.138 337.728 58.379" enable-background="new 387.362 120.138 337.728 58.379"
	 xml:space="preserve">
<g>
	<circle fill="#74A9CF" cx="394.171" cy="167.804" r="6.81"/>
</g>
<g>
	<circle fill="#74A9CF" cx="421.409" cy="167.804" r="6.81"/>
</g>
<g>
	<circle fill="#74A9CF" cx="448.647" cy="167.804" r="6.81"/>
</g>
<g>
	<circle fill="#74A9CF" cx="475.885" cy="167.804" r="6.81"/>
</g>
<g enable-background="new    ">
	<circle fill="#2B8CBE" cx="394.171" cy="147.376" r="6.81"/>
</g>
<g enable-background="new    ">
	<circle fill="#2B8CBE" cx="421.409" cy="147.376" r="6.81"/>
</g>
<g enable-background="new    ">
	<circle fill="#2B8CBE" cx="448.647" cy="147.376" r="6.81"/>
</g>
<g enable-background="new    ">
	<circle fill="#2B8CBE" cx="475.885" cy="147.376" r="6.81"/>
</g>
<g enable-background="new    ">
	<circle fill="#045A8D" cx="394.171" cy="126.947" r="6.81"/>
</g>
<g enable-background="new    ">
	<circle fill="#045A8D" cx="421.409" cy="126.947" r="6.81"/>
</g>
<g enable-background="new    ">
	<circle fill="#045A8D" cx="448.647" cy="126.947" r="6.81"/>
</g>
<g enable-background="new    ">
	<circle fill="#045A8D" cx="475.885" cy="126.947" r="6.81"/>
</g>
<g>
	<path fill="#55565A" d="M513.774,132.798c9.42,0,14.88,6.6,14.88,16.739c0,10.2-5.52,16.799-14.939,16.799
		s-14.939-6.36-14.939-16.799C498.775,139.578,504.355,132.798,513.774,132.798z M513.774,138.618c-4.499,0-6.96,3.42-6.96,10.919
		c0,7.62,2.4,10.979,6.9,10.979c4.56,0,6.899-3.36,6.899-10.979C520.614,142.038,518.274,138.618,513.774,138.618z"/>
	<path fill="#55565A" d="M533.035,178.517v-44.818h6.719l0.42,3.9c2.521-3.3,5.881-4.8,9.18-4.8c8.4,0,11.88,6.54,11.88,16.679
		c0,9.72-4.499,16.859-12.539,16.859c-3.24,0-6-1.14-7.979-3.48v14.82L533.035,178.517z M553.193,149.538
		c0-8.04-2.159-10.979-6.119-10.979c-2.641,0-4.859,1.92-6.359,4.26v14.339c1.439,2.22,3.42,3.3,5.819,3.3
		C550.734,160.457,553.193,157.217,553.193,149.538z"/>
	<path fill="#55565A" d="M571.494,151.938c0.6,6,3.54,8.58,7.8,8.58c2.7,0,4.979-0.78,7.68-2.94l3.3,4.62
		c-3,2.46-6.84,4.14-11.46,4.14c-10.199,0-15.299-6.899-15.299-16.739c0-9.479,5.1-16.799,14.279-16.799c8.699,0,13.8,6,13.8,16.02
		c0,1.02-0.12,2.28-0.181,3.12H571.494z M571.434,146.958h12.539c-0.06-5.46-1.74-8.7-6.12-8.7
		C574.194,138.258,571.854,140.958,571.434,146.958z"/>
	<path fill="#55565A" d="M613.793,142.998c0-3.18-1.2-4.44-3.9-4.44c-2.64,0-4.8,2.04-6.539,4.44v22.439h-7.68v-31.739h6.659
		l0.54,3.96c2.7-3.18,6.24-4.86,9.96-4.86c5.88,0,8.64,3.48,8.64,9.419v23.219h-7.68V142.998z"/>
	<path fill="#55565A" d="M638.992,166.337c-6.72,0-11.819-2.34-15.239-5.7l4.26-4.68c2.94,2.7,6.42,4.26,10.68,4.26
		c4.439,0,7.68-2.16,7.68-6.18c0-3.42-1.8-5.04-8.1-7.02c-8.88-2.7-12.539-6.18-12.539-12.479c0-7.02,6.119-11.459,14.219-11.459
		c6.06,0,10.14,1.8,13.68,5.1l-4.02,4.56c-2.82-2.52-5.76-3.6-9.12-3.6c-3.84,0-6.539,1.68-6.539,4.919c0,3,1.499,4.32,8.399,6.48
		c7.26,2.34,12.299,5.28,12.299,13.02C654.651,161.057,648.772,166.337,638.992,166.337z"/>
	<path fill="#55565A" d="M678.59,165.437l-13.799-33.239h-0.24c0.36,1.8,1.2,8.64,1.2,15.54v17.699h-7.26v-41.458h10.14
		l13.979,33.359h0.239c-0.42-2.04-1.14-8.04-1.14-15.54v-17.819h7.26v41.458H678.59z"/>
	<path fill="#55565A" d="M708.831,150.978h-4.8v14.459h-7.979v-41.458h12.06c10.68,0,16.979,4.26,16.979,13.2
		C725.089,146.898,718.43,150.978,708.831,150.978z M708.411,129.798h-4.38v15.24h4.62c4.919,0,8.159-1.92,8.159-7.86
		C716.81,131.959,713.63,129.798,708.411,129.798z"/>
</g>
</svg>
