<?xml version="1.0" encoding="utf-8"?>
<!-- Generator: Adobe Illustrator 23.0.2, SVG Export Plug-In . SVG Version: 6.00 Build 0)  -->
<svg version="1.1" xmlns="http://www.w3.org/2000/svg" xmlns:xlink="http://www.w3.org/1999/xlink" x="0px" y="0px"
	 viewBox="0 0 1856 2511" style="enable-background:new 0 0 1856 2511;" xml:space="preserve">
<g id="LiveType" style="display:none;">
</g>
<g id="Outlined">
	<rect x="745.5" y="50.5" style="fill:none;" width="50" height="50"/>
	<path style="fill:#FFFFFF;" d="M1696.2485352,614.28125c-9.4829102-23.6362305-20.0258789-46.7321777-31.5664062-69.2329102
		c-0.0649414-0.1264648-0.1293945-0.2529297-0.1943359-0.3791504c-1.0629883-2.0690918-2.1337891-4.1333008-3.2133789-6.1923828
		c-0.1230469-0.2353516-0.2470703-0.470459-0.3706055-0.7055664c-1.0424805-1.9838867-2.0917969-3.963623-3.1499023-5.9377441
		c-0.159668-0.2973633-0.3198242-0.5942383-0.4794922-0.8911133c-1.0419922-1.9377441-2.0888672-3.8720703-3.1455078-5.800293
		c-0.1635742-0.298584-0.3286133-0.5959473-0.4926758-0.8942871c-1.065918-1.9401855-2.1367188-3.8771973-3.2177734-5.8078613
		c-0.1201172-0.2143555-0.2421875-0.4277344-0.3623047-0.6420898c-4.7045898-8.3840332-9.5483398-16.6789551-14.5332031-24.8793945
		c-0.1171875-0.1928711-0.2329102-0.387207-0.3500977-0.5803223c-0.9111328-1.4956055-1.831543-2.9846191-2.7519531-4.4741211
		c-0.4609375-0.7463379-0.918457-1.494873-1.3818359-2.2397461c-0.8164062-1.3120117-1.6401367-2.6184082-2.4633789-3.9255371
		c-0.578125-0.9179688-1.1547852-1.8369141-1.7363281-2.7524414c-0.7700195-1.2116699-1.5458984-2.4189453-2.3217773-3.6262207
		c-0.6469727-1.0073242-1.2944336-2.0146484-1.9458008-3.019043c-0.7426758-1.1447754-1.4902344-2.2866211-2.2387695-3.4277344
		c-0.6948242-1.0595703-1.390625-2.1179199-2.090332-3.1743164c-0.7255859-1.095459-1.4541016-2.1887207-2.1850586-3.2805176
		c-0.7373047-1.1020508-1.4775391-2.2019043-2.2202148-3.3000488c-0.7080078-1.0471191-1.4174805-2.0930176-2.1298828-3.1364746
		c-0.7783203-1.1396484-1.5610352-2.276123-2.3447266-3.4116211c-0.6918945-1.0026855-1.3837891-2.005127-2.0800781-3.0043945
		c-0.824707-1.1833496-1.6547852-2.3625488-2.4848633-3.5415039c-0.6665039-0.9460449-1.331543-1.8930664-2.0019531-2.8361816
		c-0.8896484-1.2519531-1.7866211-2.4985352-2.6831055-3.7453613c-0.6240234-0.8676758-1.2456055-1.7375488-1.8725586-2.6027832
		c-1.0048828-1.3859863-2.0185547-2.7653809-3.0317383-4.1450195c-0.5292969-0.7209473-1.0546875-1.4450684-1.5864258-2.1643066
		c-1.5488281-2.0944824-3.1064453-4.182373-4.6743164-6.2617188
		c-23.9394531-31.4516602-50.0317383-60.9941406-77.9643555-88.4709473
		c-19.5634766-20.1523438-40.3374023-38.9050293-62.1411133-56.2617188
		c-13.2939453-11.4821777-27.1381836-22.3149414-41.4335938-32.5368652
		c-25.4726562-18.9501953-53.2680664-36.0285645-83.4746094-50.9165039
		c-7.4335938-3.8811035-14.9199219-7.6518555-22.4555664-11.3027344
		c-59.1728516-28.6704102-120.9697266-51.2973633-184.8334961-65.3580322
		c-8.5004883-1.87146-17.034668-3.5841064-25.590332-5.1738281c-42.578125-8.1134033-85.9433594-12.7490234-129.6967773-13.6201172
		c-6.7202148-0.1337891-13.359375-0.1844482-19.934082-0.1710205
		c-57.2563477-0.0808105-113.7182617,5.7054443-167.2475586,16.9716797
		c-117.4865723,24.7270508-220.8037109,75.449707-286.1430664,138.8623047
		c0.0959473-0.0583496,0.1950684-0.1154785,0.2912598-0.173584c-0.1086426,0.1103516-0.1994629,0.203125-0.2680664,0.2734375
		c0.145752-0.1208496,0.3144531-0.2602539,0.4921875-0.4067383c0.1367188-0.0825195,0.2770996-0.1640625,0.4140625-0.246582
		c-0.1047363,0.0834961-0.2114258,0.1647949-0.3161621,0.2485352c0.2424316-0.1655273,0.5366211-0.3608398,0.873291-0.5800781
		c48.8820801-29.2919922,116.3344727-53.0258789,164.5446777-65.1782227c3.0437012-0.7670898,6.09375-1.5024414,9.1455078-2.2268066
		c1.451416-0.3415527,2.9101562-0.6804199,4.376709-1.0161133c1.0791016-0.2485352,2.1591797-0.4904785,3.2392578-0.7336426
		c6.2680664-1.404541,12.6665039-2.7536621,19.1989746-4.0334473c0.6765137-0.1318359,1.3532715-0.2619629,2.0300293-0.3918457
		c2.0683594-0.3989258,4.1467285-0.7927246,6.2407227-1.1777344
		c213.6945801-38.9453125,441.5871582,24.8422852,600.2385254,176.6311035
		c34.109375,32.6337891,64.6953125,69.1494141,89.4936523,109.369873
		c101.2104492,164.1506348,91.6342773,370.5161133,12.7255859,492.2263184
		c-58.6201172,90.416748-184.1494141,175.2387695-301.2729492,174.3171387
		c2.3657227,0.1240234,4.7275391,0.2248535,7.0888672,0.3190918c-3.840332-0.081543-7.6914062-0.2248535-11.5581055-0.4516602
		c-0.1254883-0.0073242-0.2509766-0.0124512-0.3764648-0.0200195
		c-55.8051758-3.3530273-104.1040039-16.3664551-144.8549805-36.2546387
		c-185.9316406-90.7458496-214.7236328-324.6245117-82.3293457-437.1669922
		c-0.0014648-0.0004883-0.0031738-0.0007324-0.0046387-0.0009766c0.0002441-0.0002441,0.0004883-0.0004883,0.0004883-0.0004883
		c-43.5437012-9.355957-125.3764648,8.9648438-182.3498535,93.9455566
		c-51.1130371,76.2399902-48.2365723,194.0388184-16.699707,277.5822754
		c-19.1799316-40.2341309-33.2434082-81.1369629-40.5800781-130.5742188
		c-39.9038086-268.8918457,135.9189453-499.1293945,302.4748535-563.9155273
		c3.9970703-1.5549316,7.9887695-3.0141602,11.972168-4.376709l0,0c0.0009766-0.0004883,0.0024414-0.0009766,0.0039062-0.0014648
		c-35.8232422-31.2126465-92.7089844-49.4055176-158.9282227-52.5075684
		c-98.0031738-4.5917969-216.4506836,23.8718262-317.3186035,92.105957
		c-5.4523926,3.6884766-10.8535156,7.4931641-16.1972656,11.4147949c-0.0212402,0.0153809-0.0415039,0.0314941-0.0627441,0.0471191
		c-2.7587891,2.0251465-5.4882812,4.0822754-8.2036133,6.1547852c-0.5722656,0.4367676-1.1452637,0.8725586-1.7155762,1.3115234
		c-2.6552734,2.0432129-5.2915039,4.1071777-7.9047852,6.1953125c-0.4506836,0.3601074-0.8972168,0.7246094-1.3466797,1.0859375
		c-2.4780273,1.9931641-4.9382324,4.0043945-7.3776855,6.0375977c-0.3027344,0.2521973-0.6086426,0.5014648-0.9108887,0.7543945
		c-2.6218262,2.1943359-5.2167969,4.4162598-7.7937012,6.6567383c-0.4824219,0.4194336-0.963623,0.8398438-1.4443359,1.2607422
		c-2.6132812,2.2880859-5.2087402,4.5942383-7.7753906,6.9291992c-0.0964355,0.0878906-0.1914062,0.1767578-0.2875977,0.2646484
		c-2.5598145,2.3320312-5.0917969,4.6911621-7.6049805,7.0693359c-0.3098145,0.2932129-0.621582,0.5847168-0.9306641,0.8786621
		c-2.550293,2.4250488-5.0756836,4.8742676-7.5776367,7.3464355c-0.2702637,0.2670898-0.5385742,0.5361328-0.8085938,0.8039551
		c-5.1608887,5.1213379-10.2175293,10.3430176-15.1691895,15.6628418c-0.1875,0.201416-0.3752441,0.4025879-0.5625,0.604248
		c-59.7075195,64.340332-104.0556641,142.9753418-131.0554199,231.8850098
		c3.9873047-49.9543457,18.6977539-117.590332,46.7182617-191.0419922c0.0136719-0.0358887,0.0270996-0.0717773,0.0407715-0.1074219
		c1.1616211-3.0441895,2.3491211-6.0991211,3.5566406-9.1623535c0.0917969-0.232666,0.182373-0.4645996,0.2744141-0.6975098
		c1.1538086-2.9196777,2.3312988-5.8486328,3.5270996-8.7839355c0.1513672-0.3713379,0.302002-0.7424316,0.4541016-1.1140137
		c1.1591797-2.8347168,2.3398438-5.6767578,3.5383301-8.5246582c0.1975098-0.4689941,0.3952637-0.9379883,0.59375-1.4074707
		c1.1748047-2.7780762,2.3691406-5.5620117,3.5817871-8.3510742c0.2321777-0.5339355,0.4655762-1.0683594,0.6992188-1.6025391
		c1.2009277-2.7478027,2.4194336-5.5,3.6574707-8.2570801c0.2548828-0.567627,0.5124512-1.1359863,0.7687988-1.7038574
		c1.2373047-2.7407227,2.4907227-5.4851074,3.7651367-8.2336426c0.2661133-0.5739746,0.5356445-1.1486816,0.8034668-1.7229004
		c1.2861328-2.7590332,2.5871582-5.5209961,3.9106445-8.286377c0.2590332-0.5412598,0.5222168-1.083252,0.7827148-1.6245117
		c1.3500977-2.8068848,2.7150879-5.6162109,4.1037598-8.4284668c0.2353516-0.4765625,0.4758301-0.9541016,0.7124023-1.4309082
		c1.3374023-2.6955566,2.690918-5.3933105,4.064209-8.0925293c0.1403809-0.2758789,0.277832-0.5512695,0.418457-0.8271484
		c-0.0014648,0.0007324-0.0026855,0.0014648-0.0041504,0.0021973c0.0004883-0.0007324,0.0007324-0.001709,0.0012207-0.0024414
		c-19.0688477,9.8430176-39.8764648,26.7902832-60.4787598,48.208252
		c-41.232666,42.8642578-81.6401367,103.65625-105.638916,161.3911133
		c-39.8730469,95.9243164-59.878418,206.2878418-59.5446777,316.701416
		c0.0996094,33.2624512,2.0231934,66.5292969,5.833252,99.4074707c0.1955566,1.6782227,0.3850098,3.3547363,0.5759277,5.0317383
		c0.9526367,8.3933105,1.8823242,16.7644043,2.9597168,25.0996094c0.078125,0.6052246,0.1491699,1.2119141,0.2290039,1.8168945
		c66.5771484,390.5913086,406.6479492,687.9528809,816.2185059,687.9528809
		c457.331543,0,828.0761719-370.7446289,828.0761719-828.076416
		C1755.4902344,813.4814453,1734.4560547,709.5119629,1696.2485352,614.28125z"/>
	<g>
		<path style="fill:#FFFFFF;" d="M205.3575287,2081.0910645h220.6027985v59.6716309H268.6453857v80.9179688h157.3149414v59.21875
			H268.6453857v130.1921387h-63.2878571V2081.0910645z M501.0015564,2058.036377
			c21.6990662,0,36.6167297,15.8215332,36.6167297,37.0686035c0,21.2463379-14.4657593,37.0686035-37.0686646,37.0686035
			c-21.6990662,0-36.6167603-15.3703613-36.6167603-36.1647949
			C463.9328613,2073.4060059,480.6590881,2058.036377,501.0015564,2058.036377z M469.8095398,2166.9819336h62.3840027v244.1096191
			h-62.3840027V2166.9819336z M713.0152588,2234.7897949c-7.6843872-6.3286133-19.4378052-10.8493652-30.2873535-10.8493652
			c-25.3152466,0-39.7810669,16.2741699-39.7810669,51.9863281v135.1647949H581.015625v-244.1096191h59.2188721v35.2600098
			c12.6572266-27.5756836,32.0958252-37.5205078,58.3150024-37.5205078c14.4657593,0,30.288147,4.5200195,41.5895996,12.6572266
			L713.0152588,2234.7897949z M738.7824707,2290.3925781c0-70.0686035,51.9863892-128.3835449,125.671814-128.3835449
			c73.2327271,0,125.2191162,51.9863281,125.2191162,124.3151855v25.767334H799.8098755
			c6.7813721,30.7392578,30.7400513,51.0817871,67.3568115,51.0817871c28.4788208,0,47.9174194-13.5612793,60.5754395-36.1640625
			l51.9855957,31.1918945c-25.7664185,37.9726562-62.3831787,57.8630371-114.3695679,57.8630371
			C786.2487793,2416.064209,738.7824707,2363.1733398,738.7824707,2290.3925781z M800.7145386,2262.817627h128.3834229
			c-6.7805786-31.1921387-32.0958862-48.3703613-65.0963745-48.3703613
			C834.1661987,2214.4472656,809.3035889,2231.173584,800.7145386,2262.817627z M1005.0430298,2166.9819336h43.8491821v-12.2060547
			c0-66.4521484,28.02771-94.0270996,89.5070801-94.0270996h21.6990967v53.7949219h-17.630127
			c-28.9315186,0-35.2609863,9.9448242-35.2609863,40.2321777v12.2060547h52.8911133v56.0544434h-51.5345459v188.0551758
			h-59.6716309V2223.036377h-43.8491821V2166.9819336z M1171.8516846,2289.0366211
			c0-70.0683594,53.3421631-127.0275879,127.4796143-127.0275879c70.5202637,0,127.4794922,56.5065918,127.4794922,127.0275879
			c0,70.5202637-56.9592285,127.0275879-127.4794922,127.0275879
			C1223.3862305,2416.064209,1171.8516846,2360.4609375,1171.8516846,2289.0366211z M1366.2353516,2289.0366211
			c0-38.8771973-28.9315186-69.1645508-66.9040527-69.1645508c-38.4245605,0-66.9041748,30.2873535-66.9041748,69.1645508
			c0,38.8764648,28.4796143,69.1645508,66.9041748,69.1645508
			C1337.303833,2358.2011719,1366.2353516,2327.9130859,1366.2353516,2289.0366211z M1510.8930664,2286.3242188
			l-88.1503906-119.3422852h73.232666l51.9863281,75.0412598l53.3422852-75.0412598h71.8768311l-89.506958,118.8903809
			l94.0279541,125.2192383h-72.7808838l-58.3157959-79.5622559l-56.5064697,79.5622559h-72.7807617L1510.8930664,2286.3242188z"/>
	</g>
	<rect x="745.5" y="50.5" style="fill:none;" width="50" height="50"/>
</g>
<g id="Layer_3">
</g>
<g id="Layer_4">
</g>
<g id="Layer_5">
</g>
</svg>
