<?xml version="1.0" encoding="utf-8"?>
<!-- Generator: Adobe Illustrator 17.0.0, SVG Export Plug-In . SVG Version: 6.00 Build 0)  -->
<!DOCTYPE svg PUBLIC "-//W3C//DTD SVG 1.1//EN" "http://www.w3.org/Graphics/SVG/1.1/DTD/svg11.dtd">
<svg version="1.1" id="Layer_1" xmlns="http://www.w3.org/2000/svg" xmlns:xlink="http://www.w3.org/1999/xlink" x="0px" y="0px"
	 width="299.805px" height="227.045px" viewBox="0 0 299.805 227.045" enable-background="new 0 0 299.805 227.045"
	 xml:space="preserve">
<g>
	<g>
		<path d="M0,0h165.854v54.245H0V0z M42.676,39.364v-9.889c0-5.184-3.6-7.537-7.393-7.537c-3.457,0-5.953,1.824-7.104,4.705
			c-1.008-3.216-3.889-4.705-7.057-4.705c-3.024,0-5.281,1.44-6.577,3.696V22.37H5.473v4.705h2.88v12.289h-2.88v4.656h13.153v-4.656
			h-4.081v-7.585c0-3.024,1.248-5.136,4.176-5.136c2.4,0,3.696,1.488,3.696,5.232V44.02h9.073v-4.656h-2.88v-7.585
			c0-3.024,1.2-5.136,4.128-5.136c2.544,0,3.792,1.488,3.792,5.232V44.02h9.073v-4.656H42.676z M48.244,33.507
			c0,6.96,4.561,10.993,11.281,10.993c6.913,0,11.953-4.368,11.953-11.233c0-6.097-3.84-11.329-11.617-11.329
			S48.244,27.17,48.244,33.507z M54.581,33.123c0-4.032,2.016-6.433,5.184-6.433c2.928,0,5.281,2.016,5.281,6.336
			c0,4.128-2.112,6.721-5.376,6.721C56.357,39.748,54.581,36.819,54.581,33.123z M90.872,36.003l-1.008,3.36h-7.008l12.001-13.777
			l-0.48-3.216H75.319l-0.768,7.584l4.56,0.48l0.96-3.409h6.72L74.887,40.756l0.624,3.264h18.961l1.296-7.584L90.872,36.003z
			 M100.329,22.37v7.777h6.433V22.37H100.329z M100.329,36.243v7.777h6.433v-7.777H100.329z M120.203,10.993l-9.361,33.027h6.097
			l9.36-33.027H120.203z M132.731,10.993l-9.313,33.027h6.048l9.361-33.027H132.731z M160.43,40.228
			c-0.288,0.144-0.624,0.144-0.816,0.144c-1.008,0-1.488-0.384-1.488-1.68v-9.361c0-4.944-4.033-7.393-8.593-7.393
			c-3.552,0-5.569,0.48-9.313,1.968l-0.816,4.993l4.896,0.576l0.72-2.448c1.008-0.576,2.016-0.624,3.36-0.624
			c3.457,0,3.457,2.592,3.457,4.849v0.72c-1.056-0.192-2.304-0.192-3.457-0.192c-5.041,0-10.081,1.248-10.081,6.529
			c0,4.56,3.504,6.192,6.625,6.192c3.504,0,5.712-2.112,6.913-4.272c0.336,2.64,1.872,4.272,4.8,4.272
			c1.344,0,2.736-0.384,3.888-1.008L160.43,40.228z M144.589,37.635c0-2.448,1.968-3.024,4.176-3.024
			c1.008,0,2.064,0.144,3.072,0.288c-0.144,3.552-2.448,5.232-4.657,5.232C145.356,40.132,144.589,38.979,144.589,37.635z"/>
		<g>
			<path fill="#006B4F" d="M14.209,82.707c-4.081,0-6.673,3.696-6.769,6.865v3.216c0,3.6,2.88,6.432,6.577,6.432
				c4.704,0,6.672-4.08,6.672-8.497C20.69,85.395,17.857,82.707,14.209,82.707z"/>
			<path fill="#006B4F" d="M31.201,95.716c0,2.736,2.112,3.6,3.984,3.6c2.976,0,6.048-2.208,6.289-5.712v-1.632
				c-1.2-0.096-2.544-0.24-3.984-0.24C34.321,91.731,31.201,92.403,31.201,95.716z"/>
			<path fill="#006B4F" d="M88.416,82.754c-4.848,0-6.864,3.984-6.864,8.497c0,5.232,2.784,7.729,6.289,7.729
				c4.032,0,6.816-3.36,6.913-6.577v-3.696C94.752,85.107,91.872,82.754,88.416,82.754z"/>
			<path fill="#006B4F" d="M120.287,95.716c0,2.736,2.112,3.6,3.984,3.6c2.976,0,6.048-2.208,6.289-5.712v-1.632
				c-1.2-0.096-2.544-0.24-3.984-0.24C123.407,91.731,120.287,92.403,120.287,95.716z"/>
			<path fill="#006B4F" d="M150.095,82.707c-4.752,0-6.865,4.032-6.865,8.545c0,5.232,2.784,7.968,6.481,7.968
				c3.84,0,6.625-3.84,6.769-7.057v-3.408C156.336,85.203,153.503,82.707,150.095,82.707z"/>
			<path fill="#006B4F" d="M175.583,82.61c-3.936,0-5.665,3.024-6.096,6.625h11.713C181.535,86.067,179.759,82.61,175.583,82.61z"/>
			<path fill="#006B4F" d="M207.887,57.6h-1.154h-19.63h-1.154h-21.213h-1.155h-25.053h-1.154h-21.838h-1.154h-11.421h-1.154H76.802
				h-1.155H49.442h-1.155H26.45h-1.154H0v54.245h25.296h1.154h21.837h1.155h26.205h1.155h10.174
				c-4.176-0.192-7.825-2.208-8.881-6.289l2.688-1.344c1.104,3.36,4.128,4.704,7.008,4.704c4.081,0,6.961-2.88,6.961-8.208v-3.456
				c-1.296,2.496-3.601,4.656-7.633,4.656c-5.088,0-9.169-3.696-9.169-10.417c0-5.712,2.928-11.665,9.553-11.665
				c3.216,0,5.857,1.344,7.249,3.792v-3.36h6.864v2.736h-3.456v17.857c0,6.528-3.648,10.753-10.033,10.993h13.679h1.154h11.421
				h1.154h21.838h1.154h25.053h1.155h21.213h1.154h19.63h1.154h26.689V57.6H207.887z M14.689,102.1c-3.313,0-6.097-1.44-7.489-4.032
				c0,0.24-0.384,3.312-0.432,3.552h-3.36c0.288-1.872,0.624-4.128,0.624-6.241V71.33H0.384v-2.736h7.057v16.082
				c1.296-2.64,3.552-4.849,7.632-4.849c5.329,0,9.169,3.792,9.169,10.561C24.242,96.052,21.506,102.1,14.689,102.1z M45.362,102.1
				c-2.496,0-3.84-1.68-3.888-4.32v-0.096c-1.344,2.304-3.84,4.417-7.297,4.417c-2.832,0-6.48-1.44-6.48-6
				c0-5.376,5.185-6.577,9.985-6.577c1.296,0,2.64,0.096,3.792,0.192v-1.92c0-3.072-1.008-5.185-4.849-5.185
				c-1.44,0-2.832,0.24-4.128,0.864l-0.816,3.696l-2.784-0.336l0.768-4.944c2.208-1.488,4.752-2.064,7.537-2.064
				c4.944,0,7.632,2.352,7.632,7.153v10.177c0,1.584,0.576,2.304,1.824,2.304c0.432,0,1.008-0.096,1.44-0.288l0.048,2.208
				C47.378,101.812,46.37,102.1,45.362,102.1z M65.041,101.62v-2.736h3.696v-9.937c0-4.608-2.064-6.288-4.944-6.288
				c-3.84,0-6.336,2.976-6.48,6.24v9.985h3.744v2.736H50.208v-2.736h3.744V82.995h-3.84v-2.736h7.201v3.792
				c1.44-2.641,4.081-4.225,7.489-4.225c4.176,0,7.345,2.448,7.345,8.113v10.945h3.501v2.736H65.041z M114.096,101.62h-10.849
				v-2.736h3.744V71.33h-3.792v-2.736h7.153v30.291h3.744V101.62z M134.448,102.1c-2.496,0-3.84-1.68-3.888-4.32v-0.096
				c-1.344,2.304-3.84,4.417-7.297,4.417c-2.832,0-6.48-1.44-6.48-6c0-5.376,5.185-6.577,9.985-6.577
				c1.296,0,2.64,0.096,3.792,0.192v-1.92c0-3.072-1.008-5.185-4.849-5.185c-1.44,0-2.832,0.24-4.128,0.864l-0.816,3.696
				l-2.784-0.336l0.768-4.944c2.208-1.488,4.752-2.064,7.537-2.064c4.944,0,7.632,2.352,7.632,7.153v10.177
				c0,1.584,0.576,2.304,1.824,2.304c0.432,0,1.008-0.096,1.44-0.288l0.048,2.208C136.464,101.812,135.456,102.1,134.448,102.1z
				 M163.537,101.62h-7.057V97.3c-1.392,2.544-3.745,4.8-7.633,4.8c-5.521,0-9.169-3.937-9.169-10.609
				c0-5.712,2.688-11.665,9.649-11.665c3.12,0,5.761,1.392,7.153,3.888V71.33h-5.185v-2.736h8.544v30.291h3.697V101.62z
				 M175.967,102.1c-6.049,0-10.081-3.937-10.081-10.849c0-6.625,3.745-11.425,9.793-11.425c5.856,0,9.025,4.32,9.073,9.361
				c0,0.816-0.096,1.68-0.288,2.544h-15.025c0.192,4.752,2.544,7.488,6.769,7.488c3.36,0,5.233-1.728,5.905-4.368l2.832,0.624
				C184.368,99.124,181.247,102.1,175.967,102.1z M196.51,102.1c-3.024,0-6.289-0.912-8.113-2.112l0.672-4.848l2.688,0.288
				l-0.144,2.832c1.392,0.672,2.976,1.056,4.752,1.056c2.976,0,5.761-1.152,5.761-3.6c0-5.857-13.394-1.392-13.394-9.697
				c0-4.512,4.033-6.192,7.921-6.192c2.928,0,5.665,0.912,7.44,1.968l0.528,4.992l-2.784,0.336l-0.528-3.457
				c-1.296-0.672-2.64-1.056-4.368-1.056c-2.688,0-4.608,0.96-4.608,3.168c0,5.568,13.249,1.152,13.249,9.649
				C205.583,99.604,201.646,102.1,196.51,102.1z M233.664,101.62h-10.849v-2.736h3.744v-9.937c0-4.608-2.064-6.288-5.041-6.288
				c-3.744,0-6.24,3.024-6.384,6.145v10.081h3.696v2.736H208.03v-2.736h3.696V71.33h-3.696v-2.736h7.104v15.505
				c1.44-2.64,4.032-4.272,7.489-4.272c4.176,0,7.345,2.448,7.345,8.113v10.945h3.696V101.62z"/>
		</g>
	</g>
	<g>
		<path fill="#E2273E" d="M12.529,140.354c-4.656,0-6.625,4.032-6.625,8.449c0,5.329,2.832,7.969,6.384,7.969
			c4.032,0,6.721-3.792,6.817-7.009v-3.216C19.106,142.947,16.129,140.354,12.529,140.354z"/>
		<path fill="#E2273E" d="M31.296,153.316c0,2.736,2.112,3.6,3.984,3.6c2.976,0,6.048-2.208,6.289-5.712v-1.632
			c-1.2-0.096-2.544-0.24-3.984-0.24C34.417,149.332,31.296,150.003,31.296,153.316z"/>
		<path fill="#E2273E" d="M94.991,140.259c-4.464,0-6.96,3.504-6.96,8.256c0,4.657,2.4,8.305,6.96,8.305s7.057-3.552,7.057-8.353
			C102.047,143.571,99.455,140.259,94.991,140.259z"/>
		<path fill="#E2273E" d="M275.469,115.2h-1.154h-16.462h-1.153h-12.141h-1.155h-26.205h-1.154h-25.628h-1.156h-40.123h-1.156
			h-40.125h-1.155H83.425H82.27H60.334H49.538H26.546h-1.155H0v54.245h14.113v-2.736h4.993v-11.857
			c-1.296,2.592-3.601,4.848-7.633,4.848c-5.28,0-9.169-3.792-9.169-10.561c0-5.616,2.736-11.713,9.505-11.713
			c3.36,0,6.241,1.488,7.584,4.128c0.096-1.2,0.24-2.448,0.48-3.696h3.36c-0.432,2.208-0.72,4.417-0.72,6.625v22.226h2.877v2.736
			h0.387h0.768h22.991h10.797H82.27h1.155h23.276h1.155h40.125h1.156h40.123h1.156h25.628h1.154h26.205h1.155h12.141h1.153h16.462
			h1.154h3.262v-2.736h3.984l2.785-7.537l-7.777-18.578h-2.254v-2.736h9.599v2.736h-3.744l6,14.353h0.288l5.329-14.353h-3.456
			v-2.736h9.408v2.736h-2.544l-7.537,18.625l-2.88,7.489h3.648v2.736h10.225V115.2H275.469z M45.458,159.7
			c-2.496,0-3.84-1.68-3.888-4.32v-0.096c-1.344,2.304-3.84,4.417-7.297,4.417c-2.832,0-6.48-1.44-6.48-6
			c0-5.376,5.185-6.577,9.985-6.577c1.296,0,2.64,0.096,3.792,0.192v-1.92c0-3.072-1.008-5.185-4.849-5.185
			c-1.44,0-2.832,0.24-4.128,0.864l-0.816,3.696l-2.784-0.336l0.768-4.944c2.208-1.488,4.752-2.064,7.537-2.064
			c4.944,0,7.632,2.352,7.632,7.153v10.177c0,1.584,0.576,2.304,1.824,2.304c0.432,0,1.008-0.096,1.44-0.288l0.048,2.208
			C47.474,159.412,46.465,159.7,45.458,159.7z M72.335,159.7c-5.904,0-9.697-3.984-9.697-10.849c0-5.904,3.36-11.425,9.985-11.425
			c2.833,0,5.137,0.576,7.297,2.208l0.816,5.137l-2.784,0.336l-0.816-3.6c-1.296-0.816-2.736-1.2-4.561-1.2
			c-4.561,0-6.385,3.744-6.385,8.353c0,5.137,2.304,8.161,6.529,8.161c3.312,0,5.136-1.92,5.76-5.424l2.88,0.624
			C80.784,155.764,78.24,159.7,72.335,159.7z M94.895,159.7c-6.48,0-10.369-4.561-10.369-10.993c0-6.241,3.648-11.329,10.561-11.329
			c6.96,0,10.513,5.088,10.513,11.137C105.6,154.996,101.471,159.7,94.895,159.7z M137.952,159.22v-2.736h3.12v-9.937
			c0-4.608-2.016-6.289-4.849-6.289c-3.936,0-6.048,3.744-6.145,6.432v9.793h3.696v2.736h-10.177v-2.736h3.072v-9.937
			c0-4.657-1.968-6.289-4.752-6.289c-3.984,0-6.096,3.6-6.192,6.336v9.889h3.937v2.736h-11.041v-2.736h3.744v-15.889h-3.792v-2.736
			h7.153v3.984c1.392-2.592,3.744-4.417,7.153-4.417c3.312,0,5.952,1.584,6.864,5.137c1.296-2.977,3.84-5.137,7.537-5.137
			c4.081,0,7.153,2.448,7.153,8.113v10.945h3.548v2.736H137.952z M179.231,159.22v-2.736h3.12v-9.937
			c0-4.608-2.016-6.289-4.849-6.289c-3.936,0-6.048,3.744-6.145,6.432v9.793h3.696v2.736h-10.177v-2.736h3.072v-9.937
			c0-4.657-1.968-6.289-4.752-6.289c-3.984,0-6.096,3.6-6.192,6.336v9.889h3.937v2.736h-11.041v-2.736h3.744v-15.889h-3.792v-2.736
			h7.153v3.984c1.392-2.592,3.744-4.417,7.153-4.417c3.312,0,5.952,1.584,6.864,5.137c1.296-2.977,3.84-5.137,7.537-5.137
			c4.081,0,7.153,2.448,7.153,8.113v10.945h3.548v2.736H179.231z M215.95,159.22h-7.201v-4.032c-1.344,2.688-4.032,4.512-7.44,4.512
			c-4.176,0-7.393-2.448-7.393-8.161v-10.945h-3.5v-2.736h6.86v12.721c0,4.608,2.112,6.24,5.137,6.24c3.648,0,6.24-3.36,6.336-6.433
			v-9.792h-4.464v-2.736h7.825v18.625h3.84V159.22z M232.797,159.22v-2.736h3.696v-9.937c0-4.608-2.064-6.289-4.944-6.289
			c-3.84,0-6.336,2.976-6.48,6.24v9.985h3.744v2.736h-10.849v-2.736h3.744v-15.889h-3.84v-2.736h7.201v3.792
			c1.44-2.641,4.081-4.225,7.489-4.225c4.176,0,7.345,2.448,7.345,8.113v10.945h3.501v2.736H232.797z M248.924,127.97h3.648v4.368
			h-3.648V127.97z M256.364,159.22h-10.849v-2.736h3.744v-15.889h-3.84v-2.736h7.2v18.625h3.744V159.22z M267.788,159.7
			c-4.272,0-6.433-2.592-6.433-6.769v-12.385h-3.456v-2.688h3.456v-6.865h3.36v6.865h8.353v2.688h-8.353V152.5
			c0,2.592,0.864,4.272,3.456,4.272c1.633,0,2.833-0.672,3.457-4.128l2.592,0.816C273.597,157.588,271.629,159.7,267.788,159.7z"/>
		<path fill="#E2273E" d="M53.28,197.81c-3.936,0-5.664,3.024-6.096,6.625h11.713C59.233,201.267,57.457,197.81,53.28,197.81z"/>
		<path fill="#E2273E" d="M75.647,197.81c-3.936,0-5.664,3.024-6.096,6.625h11.713C81.6,201.267,79.824,197.81,75.647,197.81z"/>
		<path fill="#E2273E" d="M145.055,214.419c4.8,0,6.864-4.032,6.864-8.593c0-5.136-2.784-7.92-6.528-7.92
			c-3.84,0-6.577,3.744-6.721,7.008v3.168C138.67,211.684,141.502,214.419,145.055,214.419z"/>
		<path fill="#E2273E" d="M207.406,194.45c-5.281,0-7.873,3.553-7.873,9.841c0,6.289,2.641,9.889,7.825,9.889
			c5.041,0,7.873-3.457,7.873-9.937C215.23,198.194,212.782,194.45,207.406,194.45z"/>
		<path fill="#E2273E" d="M238.795,172.8h-17.18h-1.155h-26.253h-1.155h-24.527h-10.797h-26.16h-1.154h-25.63h-1.154h-16.46h-1.155
			H64.801h-1.155H42.436h-1.156H0v54.245h41.279h1.156h21.211h1.155h21.212h1.155h16.46h1.154h25.63h1.104h0.05v-2.736h3.742
			v-26.114h-3.742v-2.736h7.103v4.464c1.296-2.592,3.648-4.896,7.584-4.896c5.473,0,9.217,3.888,9.217,10.513
			c0,5.712-2.784,11.761-9.745,11.761c-3.024,0-5.617-1.248-7.057-3.6v10.609h4.944v2.736h14.113h10.797h24.527h1.155h26.253h1.155
			h17.18h1.155h22.415V172.8H239.95H238.795z M31.251,216.82v-2.736h3.12v-9.937c0-4.608-2.016-6.289-4.849-6.289
			c-3.936,0-6.048,3.744-6.145,6.432v9.793h3.696v2.736H16.897v-2.736h3.072v-9.937c0-4.657-1.968-6.289-4.752-6.289
			c-3.984,0-6.096,3.6-6.192,6.336v9.889h3.937v2.736H1.92v-2.736h3.744v-15.889H1.872v-2.736h7.153v3.984
			c1.392-2.592,3.744-4.417,7.153-4.417c3.312,0,5.952,1.584,6.864,5.137c1.296-2.977,3.84-5.137,7.537-5.137
			c4.081,0,7.153,2.448,7.153,8.113v10.945h3.548v2.736H31.251z M53.665,217.3c-6.048,0-10.081-3.936-10.081-10.849
			c0-6.625,3.745-11.425,9.793-11.425c5.856,0,9.025,4.32,9.073,9.361c0,0.816-0.096,1.68-0.288,2.544H47.136
			c0.192,4.752,2.544,7.488,6.769,7.488c3.36,0,5.232-1.728,5.905-4.368l2.832,0.624C62.065,214.324,58.945,217.3,53.665,217.3z
			 M76.032,217.3c-6.048,0-10.081-3.936-10.081-10.849c0-6.625,3.745-11.425,9.793-11.425c5.856,0,9.025,4.32,9.073,9.361
			c0,0.816-0.096,1.68-0.288,2.544H69.503c0.192,4.752,2.544,7.488,6.769,7.488c3.36,0,5.232-1.728,5.905-4.368l2.832,0.624
			C84.433,214.324,81.312,217.3,76.032,217.3z M97.103,217.3c-4.272,0-6.432-2.592-6.432-6.769v-12.385h-3.457v-2.688h3.457v-6.865
			h3.36v6.865h8.353v2.688H94.03v11.953c0,2.592,0.864,4.272,3.457,4.272c1.632,0,2.832-0.672,3.456-4.128l2.592,0.816
			C102.911,215.188,100.943,217.3,97.103,217.3z M130.319,216.82h-7.201v-4.032c-1.344,2.688-4.032,4.512-7.44,4.512
			c-4.176,0-7.393-2.448-7.393-8.161v-10.945h-3.502v-2.736h6.862v12.721c0,4.608,2.112,6.24,5.137,6.24
			c3.648,0,6.24-3.36,6.336-6.433v-9.792h-4.464v-2.736h7.825v18.625h3.84V216.82z M191.183,216.82h-19.49l-0.384-2.736
			c9.121-6.145,14.881-10.177,14.881-14.929c0-2.976-2.064-4.8-5.712-4.8c-1.344,0-3.456,0.384-5.088,1.104l-0.768,3.6l-2.784-0.336
			l0.816-5.28c2.304-1.344,5.761-2.112,8.593-2.112c6.289,0,8.689,3.937,8.689,7.44c0,6.625-8.833,11.809-14.065,14.978h12.481
			l0.432-3.84l2.928,0.24L191.183,216.82z M207.262,217.3c-7.585,0-11.473-5.041-11.473-12.769c0-7.537,3.984-13.201,11.665-13.201
			c7.873,0,11.473,5.712,11.473,13.057C218.927,212.308,214.75,217.3,207.262,217.3z M238.462,216.82h-15.025v-3.072h5.856v-18.866
			h-5.856v-3.072h9.409v21.938h5.617V216.82z M240.907,191.81h19.729l0.48,2.016l-11.857,29.235h-3.504l11.617-28.227h-13.298v5.329
			h-3.168V191.81z"/>
	</g>
</g>
</svg>
