<?xml version="1.0" encoding="utf-8"?>
<!-- Generator: Adobe Illustrator 21.0.0, SVG Export Plug-In . SVG Version: 6.00 Build 0)  -->
<svg version="1.1" xmlns="http://www.w3.org/2000/svg" xmlns:xlink="http://www.w3.org/1999/xlink" x="0px" y="0px"
	 viewBox="0 0 1200 630" style="enable-background:new 0 0 1200 630;" xml:space="preserve">
<style type="text/css">
	.st0{fill:#004B98;}
	.st1{fill:#FE9E19;}
	.st2{fill:#003C85;}
	.st3{fill:#FEFEFE;}
	.st4{fill:#0057B7;}
	.st5{fill:#003C86;}
	.st6{fill:#00B5E5;}
	.st7{fill:#07B7E6;}
	.st8{fill:#F36CA5;}
	.st9{fill:#013C86;}
	.st10{fill:#013C85;}
	.st11{fill:#FFFFFF;}
	.st12{fill:#F7B83C;}
	.st13{fill-rule:evenodd;clip-rule:evenodd;fill:#FFFFFF;}
	.st14{font-family:'ZillaSlab-Bold';}
	.st15{font-size:47px;}
	.st16{letter-spacing:2;}
	.st17{font-family:'ZillaSlab-LightItalic';}
	.st18{font-size:33.2813px;}
	.st19{font-family:'ZillaSlab-Medium';}
	.st20{font-size:28.3961px;}
	.st21{letter-spacing:1;}
</style>
<g id="background">
	<rect x="-11.5" y="-9" class="st0" width="1223" height="648"/>
</g>
<g id="elements">
	<path class="st1" d="M1020.1,85.7c-0.8-18.1,1-35.7,7.8-52.7c4.6-11.5,10.8-22,18.8-31.4c0.9-1.1,2.4-1.8,2.3-3.6
		c50.3,0,100.7,0,151-0.1c3.4,0,4.1,0.7,4.1,4.1c-0.1,54.3-0.1,108.7-0.1,163c-1.3,3.4-3.8,5.6-6.8,7.6
		c-22.2,14.4-46.5,20.4-72.7,18.3c-28.4-2.2-53-13.8-73-34c-19-19.2-30.4-42.2-31-69.7C1020.5,86.6,1020.3,86.2,1020.1,85.7z"/>
	<path class="st2" d="M1020.1,85.7c1.7,10,3.4,19.9,7.1,29.5c27.6,72,115.1,96.7,176.8,49.8c0,4.3,0,8.7,0,13
		c-22.5,17.4-48.2,25.4-76.4,23.8c-25.4-1.4-48.2-10.4-67.6-27.3c-22.5-19.5-35.4-43.9-39.1-73.4C1020.2,96,1020,90.9,1020.1,85.7z"
		/>
	<path class="st3" d="M1162.7,35.8c-23.4,20.3-46.5,40-69.2,60.1c-4.3,3.8-7.6,5-13,2.3c-7.1-3.6-14.7-6.2-22.1-9.2
		c-2.5-1-4.5-2.2-4.6-5.2c-0.1-2.8,1.7-4.2,3.8-5.4c41.7-24,83.3-48.1,125-72.1c2.3-1.3,4.8-2.6,7.4-0.7c2.7,1.9,2.1,4.8,1.7,7.3
		c-4,24.6-8.2,49.2-12.3,73.9c-2.2,13-4.4,25.9-6.5,38.9c-1.2,7.4-3.5,8.7-10.6,5.8c-9.1-3.7-18.3-7.2-27.2-11.2
		c-3.6-1.6-5.5-0.9-7.8,2.2c-4.5,6-9.5,11.6-14.2,17.4c-1.8,2.2-3.8,3.8-6.8,2.7c-2.8-1.1-3.4-3.4-3.3-6.1c0-0.3,0-0.7,0-1
		c0.1-8.2-1.9-17,0.7-24.3c2.6-7.3,9.6-13,14.7-19.3c13.9-17.1,27.8-34.1,41.6-51.1C1161.1,39.5,1162.7,38.6,1162.7,35.8z"/>
	<path class="st4" d="M-3,355c22.5-17.4,48.2-25.4,76.4-23.8c25.4,1.4,48.2,10.4,67.6,27.3c22.7,19.7,35.8,44.4,39.2,74.4
		c1,8.5,0.6,16.9-0.2,25.3c1.1,9.7-1.7,18.8-4.6,27.7c-6.2,18.8-17.6,34.1-32.5,47c-14.6,12.7-31.3,21.3-50.2,25.4
		c-32.3,7-62.4,1.5-90.2-16.5c-2.7-1.7-4.4-4-5.6-6.8C-3,475-3,415-3,355z"/>
	<path class="st5" d="M-3,535c22.8,17.6,48.8,25.6,77.4,23.8c24.9-1.6,47.1-10.6,66.3-26.9c21.3-18.1,33.8-41.1,38.9-68.4
		c0.3-1.8,0.3-3.6,0.5-5.5c2.4,5.4,0.5,10.9-0.3,16.1c-3.6,25.9-15,48.2-33.9,66.2c-18.6,17.6-40.8,28.1-66.6,30.8
		C48.7,574.3,21.4,566.4-3,548C-3,543.7-3,539.3-3,535z"/>
	<path class="st3" d="M28.9,422.2c0.1-23.3,17.6-40.8,39.4-40.9c22,0,39.5,17.6,39.6,39.7c0,5.4-0.9,10.6-3.2,15.5
		c-8.8,18.6-17.6,37.2-26.3,55.9c-2,4.4-4.7,7.6-10,7.6c-5.6,0.1-8.2-3.4-10.3-7.9c-8.3-17.9-16.7-35.8-25.2-53.6
		C30.2,432.7,28.5,427,28.9,422.2z"/>
	<path class="st4" d="M68.3,440.3c-10.7,0-19.3-8.7-19.4-19.3c0-10.8,8.8-19.5,19.8-19.3c10.5,0.1,19.4,9.1,19.2,19.5
		C87.7,431.8,78.9,440.4,68.3,440.3z"/>
	<g>
		<circle class="st6" cx="1083" cy="518" r="83"/>
		<path class="st3" d="M1103.5,489.2c4,0,7.1-0.1,10.1,0c10.8,0.4,18,10.5,14.1,20.6c-2,5.2-1.5,10.5-2.5,15.7
			c-1.2,6.2-3.5,12-4.6,18.2c-1.4,8.4-8,13.6-17.3,14c-9.9,0.5-19.6-0.2-28.9-4.1c-8.6-3.6-17.5-3.9-26.5-3.7
			c-7.7,0.2-10.1-2.3-10.1-9.7c-0.1-11.3-0.1-22.7,0-34c0-6.8,2.7-10,9.4-9.1c11.3,1.5,18.8-2.5,24.8-12c3-4.7,6.2-8.9,7.3-14.7
			c1.7-8.7,5.3-11.9,11.7-11.5c7.9,0.5,13.7,5.8,14.6,13.7C1106.4,478,1106,483.3,1103.5,489.2z"/>
		<path class="st6" d="M1060.8,522.9c0-1.9,0-3.8,0-5.8c-0.1-6.2,0.1-10.9,6.6-16c9.2-7.1,18-16.4,19.6-29.5c0.3-2.1,0.4-5,3.7-4.9
			c3.5,0,6,1.7,6.9,5.1c1.3,5,0.6,9.8-1.6,14.6c-4.8,10.4-4.7,10.5,6.9,10.5c3.3,0,6.6-0.1,9.8,0c7.3,0.4,10.7,6.4,6.9,12.6
			c-1.4,2.3-2.3,4.1-1,6.7c0.4,0.8,0.6,2.2,0.1,2.8c-4.1,5.1,0.1,12.7-5.2,17.5c-0.5,0.5-0.4,1.8-0.4,2.8
			c-0.7,7.9-3.3,10.2-11.2,10.8c-11,0.7-21.3-2.3-31.5-5.8c-9.5-3.3-9.5-3.1-9.5-13.1C1060.8,528.3,1060.8,525.6,1060.8,522.9z"/>
		<path class="st7" d="M1053,538.6c-0.4,2.6-1.8,3.7-4,3.5c-2.3-0.1-3.5-1.5-3.3-3.8c0.2-2.2,1.6-3.5,3.8-3.3
			C1051.8,535.2,1052.7,536.8,1053,538.6z"/>
	</g>
	<path class="st4" d="M483.9,58.1c-2.8-16.8,0.5-32.6,8.3-47.5c2.3-4.4,5.1-8.4,7.7-12.6c39.3,0,78.7,0,118,0
		c3.4,6.4,8.1,12,10.8,18.8c5.3,13.3,7.6,27,5.2,41.2c0.6,10.5-2.3,20.1-7.8,28.8c-17.1,27.2-42.1,40.5-74,37.9
		c-28.5-2.3-49.9-17.1-63.1-42.8C485.4,74.7,483.2,66.6,483.9,58.1z"/>
	<path class="st5" d="M483.9,58.1c3.4,31,29.9,58.4,61.7,63.8c41.7,7,80.2-19.7,88.2-61.3c0.2-0.8,0.1-1.7,0.2-2.5
		c2.4,5.3,0.6,10.5-0.3,15.7c-5.7,32-31.4,56.4-63.6,61.4c-40.3,6.2-80.5-21.8-86.3-64.4C483.3,66.5,482.1,62.3,483.9,58.1z"/>
	<path class="st3" d="M606,35.4c0,8-3.4,14.7-8.7,20.1C586.1,66.9,574.5,77.9,563,89c-2,2-4,2.1-6.1,0
		c-11.2-10.9-22.6-21.6-33.6-32.7c-5.8-5.9-9.6-13.1-9.4-21.9c0.5-17.2,17.2-27.8,33-20.9c3.8,1.7,7.4,3.8,10.4,6.8
		c2,1.9,3.2,1.8,5.3,0c6.3-5.5,13.2-9.5,22.1-8.5C598.2,13.2,606,21.8,606,35.4z"/>
	<path class="st4" d="M269,407.1c-2.3-10,0.7-18.8,8.1-23.7c8.8-5.9,17.1-5.9,25.9,0c7.3,4.9,10.3,13.8,8.1,23.7
		c0,10-6.9,14.8-14.4,17.2c-10.5,3.3-25.6-1.7-27.9-15.3C268.6,408.3,268.5,407.6,269,407.1z"/>
	<path class="st5" d="M269,407.1c3.6,10.1,11.3,15.9,21,15.9c9.7,0,17.5-5.9,21-15.9c2.6,6.5-1.4,11.2-4.7,15.8
		c-4.4,6.1-14.8,8.7-22.2,6.4c-8.6-2.7-15.5-10.5-16.1-18.4C268,409.5,268,408.1,269,407.1z"/>
	<path class="st8" d="M919.7,392c-2.3-12.2,2.8-22.5,13.3-26.5c9.9-3.8,21-0.2,26.7,8.8c3.5,5.5,4.1,11.5,2.7,17.8
		c-0.4,14.2-16.3,20.5-27.4,17.3C925.4,406.7,920.5,401,919.7,392z"/>
	<path class="st9" d="M919.7,392c4.3,10.6,11.6,16,21.5,16c9.7-0.1,16.8-5.5,21-16c2,8.9-4.8,18.7-15.2,22.1
		c-12.3,4-26.8-5.4-28.1-18.2C918.9,394.6,919,393.2,919.7,392z"/>
	<path class="st1" d="M439.1,563.7c-0.9-9.6,1.6-17.9,10.1-23.2c7.1-4.5,14.7-4.8,22.2-0.7c7.4,4.1,11.2,10.5,11.5,19
		c0.1,1.7-0.1,3.3-0.1,5c-2.2,12.8-9.6,19.4-21.9,19.4C448.7,583.1,441.3,576.5,439.1,563.7z"/>
	<path class="st4" d="M742,577.1c-2.3-10,0.7-18.8,8.1-23.7c8.8-5.9,17.1-5.9,25.9,0c7.3,4.9,10.3,13.8,8.1,23.7
		c0,10-6.9,14.8-14.4,17.2c-10.5,3.3-25.6-1.7-27.9-15.3C741.6,578.3,741.5,577.6,742,577.1z"/>
	<path class="st10" d="M439.1,563.7c3.5,10.1,9.9,16.7,21.1,17.2c10.5,0.5,17.6-5.1,22.6-17.2c0.6,14-8.7,24.3-21.9,24.3
		C447.9,588,438.6,577.7,439.1,563.7z"/>
	<path class="st5" d="M742,577.1c3.6,10.1,11.3,15.9,21,15.9c9.7,0,17.5-5.9,21-15.9c2.6,6.5-1.4,11.2-4.7,15.8
		c-4.4,6.1-14.8,8.7-22.2,6.4c-8.6-2.7-15.5-10.5-16.1-18.4C741,579.5,741,578.1,742,577.1z"/>
	<path class="st8" d="M806.7,118c-2.3-12.2,2.8-22.5,13.3-26.5c9.9-3.8,21-0.2,26.7,8.8c3.5,5.5,4.1,11.5,2.7,17.8
		c-0.4,14.2-16.3,20.5-27.4,17.3C812.4,132.7,807.5,127,806.7,118z"/>
	<path class="st9" d="M806.7,118c4.3,10.6,11.6,16,21.5,16c9.7-0.1,16.8-5.5,21-16c2,8.9-4.8,18.7-15.2,22.1
		c-12.3,4-26.8-5.4-28.1-18.2C805.9,120.6,806,119.2,806.7,118z"/>
	<g>
		<rect x="99.2" y="103.3" class="st11" width="139.8" height="36.7"/>
		<g>
			<path class="st11" d="M98.1,47H241v46.7H98.1V47z M134.9,80.9v-8.5c0-4.5-3.1-6.5-6.4-6.5c-3,0-5.1,1.6-6.1,4.1
				c-0.9-2.8-3.3-4.1-6.1-4.1c-2.6,0-4.5,1.2-5.7,3.2v-2.8h-7.8v4.1h2.5v10.6h-2.5v4h11.3v-4h-3.5v-6.5c0-2.6,1.1-4.4,3.6-4.4
				c2.1,0,3.2,1.3,3.2,4.5v10.5h7.8v-4h-2.5v-6.5c0-2.6,1-4.4,3.6-4.4c2.2,0,3.3,1.3,3.3,4.5v10.5h7.8v-4H134.9z M139.7,75.9
				c0,6,3.9,9.5,9.7,9.5c6,0,10.3-3.8,10.3-9.7c0-5.3-3.3-9.8-10-9.8S139.7,70.4,139.7,75.9z M145.2,75.5c0-3.5,1.7-5.5,4.5-5.5
				c2.5,0,4.5,1.7,4.5,5.5c0,3.6-1.8,5.8-4.6,5.8C146.7,81.2,145.2,78.7,145.2,75.5z M176.4,78l-0.9,2.9h-6L179.8,69l-0.4-2.8H163
				l-0.7,6.5l3.9,0.4l0.8-2.9h5.8l-10.3,11.8l0.5,2.8h16.3l1.1-6.5L176.4,78z M184.6,66.3V73h5.5v-6.7H184.6z M184.6,78.2v6.7h5.5
				v-6.7H184.6z M201.7,56.5l-8.1,28.4h5.3l8.1-28.4H201.7z M212.5,56.5l-8,28.4h5.2l8.1-28.4H212.5z M236.3,81.6
				c-0.2,0.1-0.5,0.1-0.7,0.1c-0.9,0-1.3-0.3-1.3-1.4v-8.1c0-4.3-3.5-6.4-7.4-6.4c-3.1,0-4.8,0.4-8,1.7l-0.7,4.3l4.2,0.5l0.6-2.1
				c0.9-0.5,1.7-0.5,2.9-0.5c3,0,3,2.2,3,4.2v0.6c-0.9-0.2-2-0.2-3-0.2c-4.3,0-8.7,1.1-8.7,5.6c0,3.9,3,5.3,5.7,5.3
				c3,0,4.9-1.8,6-3.7c0.3,2.3,1.6,3.7,4.1,3.7c1.2,0,2.4-0.3,3.3-0.9L236.3,81.6z M222.7,79.4c0-2.1,1.7-2.6,3.6-2.6
				c0.9,0,1.8,0.1,2.6,0.2c-0.1,3.1-2.1,4.5-4,4.5C223.3,81.6,222.7,80.6,222.7,79.4z"/>
			<g>
				<path class="st12" d="M103.2,129.4c0,2.4,1.8,3.1,3.4,3.1c2.6,0,5.2-1.9,5.4-4.9v-1.4c-1-0.1-2.2-0.2-3.4-0.2
					C105.9,126,103.2,126.6,103.2,129.4z"/>
				<path class="st12" d="M128.9,118.2c-4.1,0-5.9,3.5-5.9,7.4c0,4.5,2.4,6.9,5.6,6.9c3.3,0,5.7-3.3,5.8-6.1v-2.9
					C134.3,120.4,131.8,118.2,128.9,118.2z"/>
				<path class="st12" d="M151.5,118.2c-4.1,0-5.9,3.5-5.9,7.4c0,4.5,2.4,6.9,5.6,6.9c3.3,0,5.7-3.3,5.8-6.1v-2.9
					C156.9,120.4,154.4,118.2,151.5,118.2z"/>
				<path class="st12" d="M188.3,118.2c-3.8,0-6,3-6,7.1c0,4,2.1,7.2,6,7.2c3.9,0,6.1-3.1,6.1-7.2
					C194.4,121,192.2,118.2,188.3,118.2z"/>
				<path class="st12" d="M98.1,96.6v46.7h142.7V96.6H98.1z M115.4,134.9c-2.2,0-3.3-1.4-3.3-3.7v-0.1c-1.2,2-3.3,3.8-6.3,3.8
					c-2.4,0-5.6-1.2-5.6-5.2c0-4.6,4.5-5.7,8.6-5.7c1.1,0,2.3,0.1,3.3,0.2v-1.7c0-2.6-0.9-4.5-4.2-4.5c-1.2,0-2.4,0.2-3.6,0.7
					l-0.7,3.2l-2.4-0.3l0.7-4.3c1.9-1.3,4.1-1.8,6.5-1.8c4.3,0,6.6,2,6.6,6.2v8.8c0,1.4,0.5,2,1.6,2c0.4,0,0.9-0.1,1.2-0.2l0,1.9
					C117.2,134.7,116.3,134.9,115.4,134.9z M140.5,134.5h-6.1v-3.7c-1.2,2.2-3.2,4.1-6.6,4.1c-4.8,0-7.9-3.4-7.9-9.1
					c0-4.9,2.3-10,8.3-10c2.7,0,5,1.2,6.2,3.3v-10.7h-4.5v-2.4h7.4v26.1h3.2V134.5z M163.1,134.5H157v-3.7c-1.2,2.2-3.2,4.1-6.6,4.1
					c-4.8,0-7.9-3.4-7.9-9.1c0-4.9,2.3-10,8.3-10c2.7,0,5,1.2,6.2,3.3v-10.7h-4.5v-2.4h7.4v26.1h3.2V134.5z M175.5,126.3h-9.6v-2.5
					h9.6V126.3z M188.2,134.9c-5.6,0-8.9-3.9-8.9-9.5c0-5.4,3.1-9.8,9.1-9.8c6,0,9.1,4.4,9.1,9.6
					C197.5,130.9,193.9,134.9,188.2,134.9z M212.8,134.5v-2.4h3.2v-8.6c0-4-1.8-5.4-4.3-5.4c-3.3,0-5.5,2.6-5.6,5.4v8.6h3.2v2.4
					h-9.3v-2.4h3.2v-13.7H200v-2.4h6.2v3.3c1.2-2.3,3.5-3.6,6.5-3.6c3.6,0,6.3,2.1,6.3,7v9.4h3v2.4H212.8z M231.1,134.9
					c-2.6,0-5.4-0.8-7-1.8l0.6-4.2l2.3,0.2l-0.1,2.4c1.2,0.6,2.6,0.9,4.1,0.9c2.6,0,5-1,5-3.1c0-5-11.5-1.2-11.5-8.4
					c0-3.9,3.5-5.3,6.8-5.3c2.5,0,4.9,0.8,6.4,1.7l0.5,4.3l-2.4,0.3l-0.5-3c-1.1-0.6-2.3-0.9-3.8-0.9c-2.3,0-4,0.8-4,2.7
					c0,4.8,11.4,1,11.4,8.3C238.9,132.8,235.5,134.9,231.1,134.9z"/>
			</g>
		</g>
		<rect x="48.5" y="47" class="st12" width="46.7" height="46.7"/>
		<path class="st13" d="M56.1,71.6l3.2,3.3c0,0,1.6,0.8,2.6-0.1c1.6-1.4-0.5-3.1,1.1-4.8c1.2-1.3,3.7-0.7,5.4,0.9
			c1.6,1.6,2.4,4.1,0.9,5.6c-1.5,1.5-3.7,0-4.7,1c-0.9,0.9-0.3,2.2-0.3,2.2l6,6.2c0,0,0.7,0.6,1.4,0.7c0,0,0.3,0,0.4,0
			c0.7-0.1,1.5-0.7,1.5-0.7l6-6.2c0,0,0.6-1.3-0.3-2.2c-1-1-3.2,0.5-4.7-1c-1.5-1.5-0.7-4,0.9-5.6c1.6-1.6,4.1-2.2,5.4-0.9
			c1.6,1.7-0.4,3.3,1.1,4.8c1,0.9,2.6,0.1,2.6,0.1l3.2-3.3c0,0,0.6-0.4,0.5-1.3c-0.1-0.8-5.1-5.4-5.1-5.4s-0.6-0.7-0.5-1.5
			c0.1-0.8,0.6-1.3,1.4-1.4c0.7-0.1,2.5,0.7,4-0.8c1.5-1.5,0.4-4.4-0.7-5.5c-1.2-1.2-4.3-2.6-5.9-0.9c-2.4,2.5,0.4,3.2-1,4.9
			c-0.9,1.2-2.5,0-2.5,0L72.9,55c0,0-0.2-0.3-1-0.2c0,0,0,0,0,0c0,0,0,0,0,0c-0.8-0.1-1,0.2-1,0.2L66,59.8c0,0-1.6,1.1-2.5,0
			c-1.4-1.7,1.4-2.5-1-4.9c-1.6-1.6-4.7-0.2-5.9,0.9c-1.2,1.2-2.2,4-0.7,5.5c1.5,1.5,3.2,0.7,4,0.8c0.7,0.1,1.3,0.6,1.4,1.4
			c0.1,0.8-0.5,1.5-0.5,1.5s-5,4.6-5.1,5.4C55.5,71.2,56.1,71.6,56.1,71.6z"/>
	</g>
</g>
<g id="texts">
	<g>
		<text transform="matrix(1 0 0 1 166.2649 243.1443)"><tspan x="0" y="0" class="st11 st14 st15 st16">Build Your Own WebExtension </tspan><tspan x="166.4" y="56.4" class="st11 st14 st15 st16">Add-on FOR FIREFOX</tspan></text>
		<text transform="matrix(1 0 0 1 398.4836 359.1177)"><tspan x="0" y="0" class="st11 st17 st18">Mozilla Space Mountain View</tspan><tspan x="84" y="39.9" class="st11 st17 st18">331, E Evelyn Ave</tspan><tspan x="64.6" y="79.9" class="st11 st17 st18">Sat, Aug 12, 1:00 pm</tspan></text>
	</g>
	<text transform="matrix(1 0 0 1 463.9128 499.2891)" class="st11 st19 st20 st21">MZL.LA/WEBEXMV</text>
</g>
</svg>
