<?xml version="1.0" encoding="utf-8"?>
<!-- Generator: Adobe Illustrator 17.0.0, SVG Export Plug-In . SVG Version: 6.00 Build 0)  -->
<!DOCTYPE svg PUBLIC "-//W3C//DTD SVG 1.1//EN" "http://www.w3.org/Graphics/SVG/1.1/DTD/svg11.dtd">
<svg version="1.1" id="Layer_1" xmlns="http://www.w3.org/2000/svg" xmlns:xlink="http://www.w3.org/1999/xlink" x="0px" y="0px"
	 width="736.179px" height="66.699px" viewBox="0 0 736.179 66.699" enable-background="new 0 0 736.179 66.699"
	 xml:space="preserve">
<rect x="614.433" y="-84.994" display="none" width="397.392" height="501.836"/>
<g>
	<path fill="#FFFFFF" d="M198.358,32.395c-3.127,0-4.839,2.242-5.311,5.546h9.972C203.374,35.286,201.958,32.395,198.358,32.395z"/>
	<path fill="#FFFFFF" d="M292.58,32.749c-3.894,0-6.313,2.95-6.313,7.965c0,4.543,2.124,8.143,6.255,8.143
		c3.953,0,6.55-3.187,6.55-8.261C299.071,35.167,296.18,32.749,292.58,32.749z"/>
	<path fill="#FFFFFF" d="M10.031,46.202c0,1.711,0.826,3.068,3.127,3.068c2.655,0,5.429-1.829,5.782-6.019v-0.354
		c-1.238-0.177-2.596-0.354-3.835-0.354C12.392,42.543,10.031,43.311,10.031,46.202z"/>
	<path fill="#FFFFFF" d="M139.889,46.202c0,1.711,0.826,3.068,3.128,3.068c2.655,0,5.428-1.829,5.782-6.019v-0.354
		c-1.239-0.177-2.597-0.354-3.835-0.354C142.249,42.543,139.889,43.311,139.889,46.202z"/>
	<path fill="#FFFFFF" d="M474.811,32.771c-3.894,0-6.313,2.95-6.313,7.965c0,4.543,2.124,8.143,6.255,8.143
		c3.953,0,6.549-3.187,6.549-8.261C481.301,35.19,478.41,32.771,474.811,32.771z"/>
	<path fill="#FFFFFF" d="M397.816,46.224c0,1.711,0.826,3.068,3.127,3.068c2.655,0,5.428-1.829,5.782-6.019V42.92
		c-1.239-0.177-2.596-0.354-3.835-0.354C400.176,42.566,397.816,43.333,397.816,46.224z"/>
	<path fill="#FFFFFF" d="M0,0v66.699h710.275v-5.901h4.249l2.124-6.254l-9.323-21.301h-2.417v-5.724h13.273v5.724h-2.655
		l5.429,12.273h0.354l4.012-12.273h-2.301v-5.724h12.155v5.724h-2.596l-8.556,20.888l-2.537,6.667h3.481v5.901h11.211V0H0z
		 M668.327,14.892h7.612v7.907h-7.612V14.892z M341.372,14.87h7.611v7.907h-7.611V14.87z M86.848,14.87h7.612v7.907h-7.612V14.87z
		 M24.782,54.698c-3.54,0-5.487-2.065-5.842-5.251v-0.059c-1.534,2.714-4.248,5.311-8.556,5.311c-3.835,0-8.201-2.065-8.201-7.611
		c0-6.55,6.313-8.084,12.391-8.084c1.476,0,3.01,0.059,4.366,0.236v-0.885c0-2.714-0.059-5.959-4.366-5.959
		c-1.593,0-2.832,0.118-4.071,0.767L9.5,36.937l-6.078-0.649l1.181-6.904c4.661-1.888,7.021-2.419,11.388-2.419
		c5.724,0,10.563,2.95,10.563,9.028v11.565c0,1.534,0.59,2.065,1.829,2.065c0.354,0,0.708-0.059,1.121-0.177l0.059,4.013
		C28.146,54.227,26.435,54.698,24.782,54.698z M44.96,54.698c-7.671,0-13.276-4.484-13.276-13.453
		c0-9.441,6.195-14.279,13.925-14.279c2.95,0,6.373,0.708,9.618,2.419l1.18,8.084l-6.077,0.649l-0.885-4.366
		c-1.417-0.472-2.773-0.767-4.013-0.767c-3.245,0-5.842,2.301-5.842,7.907c0,4.897,2.006,7.789,6.078,7.789
		c3.068,0,4.72-1.829,5.251-5.665l6.373,1.18C56.761,49.034,53.516,54.698,44.96,54.698z M81.125,48.585
		c-1.344,4.208-4.448,6.114-9.085,6.114c-5.9,0-9.677-3.068-9.677-8.556V32.925h-3.597v-5.429h3.597v-8.083h7.611v8.083h9.56v5.429
		h-9.56v11.919c0,2.537,1.063,3.481,2.95,3.481c0.944,0,2.773-0.236,3.245-4.189l4.955,1.529V48.585z M98.295,54.108H83.603v-5.724
		h3.541V33.279h-3.836v-5.783h11.447v20.888h3.54V54.108z M129.858,33.22h-2.534l-9.5,20.888h-5.487L102.306,33.22h-2.358v-5.724
		h13.098v5.724h-2.538l5.193,11.152h0.354l3.953-11.152h-2.124v-5.724h11.976V33.22z M154.641,54.698
		c-3.541,0-5.488-2.065-5.842-5.251v-0.059c-1.534,2.714-4.248,5.311-8.556,5.311c-3.836,0-8.202-2.065-8.202-7.611
		c0-6.55,6.313-8.084,12.392-8.084c1.475,0,3.009,0.059,4.366,0.236v-0.885c0-2.714-0.059-5.959-4.366-5.959
		c-1.594,0-2.833,0.118-4.071,0.767l-1.004,3.776l-6.077-0.649l1.18-6.904c4.662-1.888,7.022-2.419,11.389-2.419
		c5.724,0,10.562,2.95,10.562,9.028v11.565c0,1.534,0.591,2.065,1.829,2.065c0.354,0,0.709-0.059,1.121-0.177l0.06,4.013
		C158.004,54.227,156.293,54.698,154.641,54.698z M183.194,48.585c-1.344,4.208-4.448,6.114-9.085,6.114
		c-5.9,0-9.677-3.068-9.677-8.556V32.925h-3.479v-5.429h3.479v-8.083h7.611v8.083h9.56v5.429h-9.56v11.919
		c0,2.537,1.063,3.481,2.95,3.481c0.944,0,2.773-0.236,3.245-4.189l4.955,1.529V48.585z M198.712,54.698
		c-7.906,0-13.688-4.484-13.688-13.394c0-8.202,4.897-14.338,13.335-14.338c7.376,0,12.392,4.662,12.509,11.565
		c0,1.18-0.117,2.479-0.413,3.835h-17.465c0.413,4.13,2.419,6.313,6.254,6.313c4.071,0,5.192-2.537,5.488-4.13l6.372,1.18
		C210.75,50.45,206.383,54.698,198.712,54.698z M223.314,54.108h-9.027V44.49h9.027V54.108z M276.536,54.108h-11.151V39.121
		c0-4.603-1.534-6.373-4.544-6.373c-3.658,0-5.134,2.596-5.134,6.313v9.323h3.541v5.724h-11.152V39.121
		c0-4.603-1.534-6.373-4.544-6.373c-3.658,0-5.133,2.596-5.133,6.313v9.323h5.074v5.724h-16.227v-5.724h3.54V33.279h-3.481v-5.783
		h11.094v4.013c1.593-2.833,4.366-4.543,8.084-4.543c3.835,0,7.375,1.829,8.674,5.724c1.475-3.541,4.484-5.724,8.674-5.724
		c4.779,0,9.146,2.891,9.146,9.205v12.214h3.54V54.108z M292.285,54.698c-8.201,0-13.866-5.015-13.866-13.571
		c0-7.789,4.721-14.22,14.279-14.22c9.618,0,14.221,6.432,14.221,13.925C306.919,49.27,300.782,54.698,292.285,54.698z
		 M333.469,54.108H310.22l-0.767-4.012l14.279-16.876h-7.966l-1.18,4.072l-5.488-0.472l0.944-9.323h23.366l0.59,4.013
		l-14.692,16.875h8.557l1.238-4.189l6.019,0.59L333.469,54.108z M352.819,54.108h-14.692v-5.724h3.54V33.279h-3.835v-5.783h11.446
		v20.888h3.541V54.108z M369.634,54.108h-14.692v-5.724h3.54v-29.09h-3.835v-5.782h11.447v34.872h3.54V54.108z M386.271,54.108
		h-14.692v-5.724h3.54v-29.09h-3.835v-5.782h11.447v34.872h3.54V54.108z M412.567,54.721c-3.541,0-5.488-2.065-5.842-5.251V49.41
		c-1.534,2.714-4.248,5.311-8.556,5.311c-3.835,0-8.202-2.065-8.202-7.611c0-6.55,6.313-8.084,12.391-8.084
		c1.475,0,3.009,0.059,4.366,0.236v-0.885c0-2.714-0.059-5.959-4.366-5.959c-1.593,0-2.833,0.118-4.071,0.767l-1.003,3.776
		l-6.078-0.649l1.18-6.904c4.662-1.888,7.022-2.419,11.388-2.419c5.724,0,10.562,2.95,10.562,9.028v11.565
		c0,1.534,0.59,2.065,1.829,2.065c0.354,0,0.708-0.059,1.121-0.177l0.059,4.013C415.931,54.249,414.22,54.721,412.567,54.721z
		 M429.44,54.131h-9.028v-9.618h9.028V54.131z M446.196,54.721c-7.671,0-13.276-4.484-13.276-13.453
		c0-9.441,6.195-14.279,13.925-14.279c2.95,0,6.373,0.708,9.618,2.419l1.18,8.084l-6.078,0.649l-0.885-4.366
		c-1.417-0.472-2.773-0.767-4.013-0.767c-3.245,0-5.841,2.301-5.841,7.907c0,4.897,2.006,7.789,6.078,7.789
		c3.068,0,4.72-1.829,5.251-5.665l6.373,1.18C457.997,49.056,454.752,54.721,446.196,54.721z M474.516,54.721
		c-8.202,0-13.866-5.015-13.866-13.571c0-7.789,4.72-14.22,14.279-14.22c9.618,0,14.22,6.432,14.22,13.925
		C489.149,49.292,483.013,54.721,474.516,54.721z M541.307,54.131h-11.152V39.144c0-4.603-1.534-6.373-4.543-6.373
		c-3.659,0-5.134,2.596-5.134,6.313v9.323h3.541v5.724h-11.152V39.144c0-4.603-1.534-6.373-4.543-6.373
		c-3.658,0-5.133,2.596-5.133,6.313v9.323h5.075v5.724h-16.227v-5.724h3.541V33.302h-3.481v-5.783h11.093v4.013
		c1.593-2.833,4.366-4.543,8.084-4.543c3.835,0,7.375,1.829,8.674,5.724c1.475-3.541,4.484-5.724,8.674-5.724
		c4.779,0,9.146,2.891,9.146,9.205v12.214h3.541V54.131z M592.99,54.131h-11.152V39.144c0-4.603-1.534-6.373-4.543-6.373
		c-3.659,0-5.134,2.596-5.134,6.313v9.323h3.541v5.724h-11.152V39.144c0-4.603-1.534-6.373-4.543-6.373
		c-3.658,0-5.133,2.596-5.133,6.313v9.323h5.075v5.724H543.72v-5.724h3.541V33.302h-3.481v-5.783h11.093v4.013
		c1.593-2.833,4.366-4.543,8.084-4.543c3.835,0,7.375,1.829,8.674,5.724c1.475-3.541,4.484-5.724,8.674-5.724
		c4.779,0,9.146,2.891,9.146,9.205v12.214h3.541V54.131z M627.385,54.131h-11.447V50.06c-1.711,2.95-4.662,4.603-8.556,4.603
		c-5.016,0-9.323-2.892-9.323-9.205V33.243h-3.54v-5.724h11.152v14.988c0,4.603,1.534,6.373,4.543,6.373
		c3.659,0,5.724-2.596,5.724-6.313v-9.323h-4.307v-5.724h11.919v20.888h3.835V54.131z M662.49,54.131h-14.692v-5.724h3.541v-9.264
		c0-4.603-1.534-6.373-4.543-6.373c-3.6,0-5.665,2.478-5.724,6.077v9.559h3.541v5.724h-14.693v-5.724h3.541V33.302h-3.835v-5.783
		h11.447v4.072c1.652-2.892,4.662-4.603,8.556-4.603c5.016,0,9.323,2.891,9.323,9.205v12.214h3.54V54.131z M679.774,54.131h-14.692
		v-5.724h3.541V33.302h-3.835v-5.783h11.447v20.888h3.541V54.131z M703.726,48.61c-1.344,4.206-4.448,6.111-9.084,6.111
		c-5.9,0-9.677-3.068-9.677-8.556V32.948h-3.538v-5.429h3.538v-8.083h7.612v8.083h9.559v5.429h-9.559v11.919
		c0,2.537,1.062,3.481,2.95,3.481c0.944,0,2.773-0.236,3.246-4.189l4.954,1.529V48.61z"/>
</g>
</svg>
