<?xml version="1.0" encoding="utf-8"?>
<!-- Generator: Adobe Illustrator 17.0.0, SVG Export Plug-In . SVG Version: 6.00 Build 0)  -->
<!DOCTYPE svg PUBLIC "-//W3C//DTD SVG 1.1//EN" "http://www.w3.org/Graphics/SVG/1.1/DTD/svg11.dtd">
<svg version="1.1" id="Layer_1" xmlns="http://www.w3.org/2000/svg" xmlns:xlink="http://www.w3.org/1999/xlink" x="0px" y="0px"
	 width="397.392px" height="501.836px" viewBox="0 0 397.392 501.836" enable-background="new 0 0 397.392 501.836"
	 xml:space="preserve">
<g>
	<polyline fill="#209D9A" points="84.392,450.709 36.392,450.709 36.392,40.212 84.392,40.212 84.392,450.709 	"/>
	<polyline fill="#F6B73A" points="115.392,411.335 84.392,411.335 84.392,13.404 115.392,13.404 115.392,411.335 	"/>
	<polyline fill="#5F3760" points="183.392,434.791 108.392,434.791 108.392,51.103 183.392,51.103 183.392,434.791 	"/>
	<polyline fill="#6B9C41" points="202.392,476.679 183.392,476.679 183.392,0 202.392,0 202.392,476.679 	"/>
	<polyline fill="#578194" points="252.392,404.632 202.392,404.632 202.392,40.212 252.392,40.212 252.392,404.632 	"/>
	<polyline fill="#FBE74B" points="282.392,434.791 252.392,434.791 252.392,85.45 282.392,85.45 282.392,434.791 	"/>
	<rect x="282.392" y="98.854" fill="#8ACFED" width="115" height="268.079"/>
	<rect x="326.648" y="15.104" fill="#F58F93" width="22" height="486.732"/>
	<polyline fill="#A2509B" points="202.392,56.916 195.216,56.916 195.216,71.4 202.392,71.4 202.392,56.916 	"/>
	<polyline fill="#B1745C" points="212.726,56.916 202.392,56.916 202.392,71.4 212.726,71.4 212.726,56.916 	"/>
	<polyline fill="#8D9A63" points="181.489,56.916 163.978,56.916 163.978,71.4 181.489,71.4 181.489,56.916 	"/>
	<polyline fill="#A2509B" points="195.108,81.775 183.434,81.775 183.434,107.608 195.108,107.608 195.108,81.775 	"/>
	<path fill="#8D9A63" d="M144.198,111.068v12.322c12.503,9.686,25.723,15.139,39.193,16.828v-11.813
		C169.729,126.605,156.567,120.786,144.198,111.068"/>
	<path fill="#A2509B" d="M202.392,128.341c-3.263,0.446-6.526,0.669-9.77,0.669c-3.099,0-6.178-0.202-9.23-0.604v11.813
		c3.065,0.384,6.145,0.574,9.23,0.574c3.251,0,6.51-0.203,9.77-0.622V128.341"/>
	<path fill="#B1745C" d="M241.585,111.068c-12.028,9.675-25.603,15.414-39.194,17.273v11.829
		c13.217-1.698,26.449-6.94,39.194-16.564V111.068"/>
	<polyline fill="#927A72" points="252.392,351.041 243.492,351.041 243.492,362.423 252.392,362.423 252.392,351.041 	"/>
	<polyline fill="#7E717F" points="257.253,351.041 252.392,351.041 252.392,362.423 257.253,362.423 257.253,351.041 	"/>
	<polyline fill="#927A72" points="232.704,351.041 218.943,351.041 218.943,362.423 232.704,362.423 232.704,351.041 	"/>
	<polyline fill="#927A72" points="243.407,370.577 234.233,370.577 234.233,390.879 243.407,390.879 243.407,370.577 	"/>
	<path fill="#808285" d="M223.229,404.632h-18.034c11.543,8.411,23.824,12.326,36.258,12.326c3.638,0,7.29-0.324,10.938-1v-9.327
		c-3.646,0.712-7.308,1.067-10.938,1.067C235.254,407.699,229.165,406.671,223.229,404.632"/>
	<path fill="#927A72" d="M203.398,393.598v9.684c0.597,0.463,1.196,0.912,1.797,1.351h18.034
		C216.394,402.285,209.762,398.598,203.398,393.598"/>
	<path fill="#7E717F" d="M279.933,393.598c-8.49,6.829-17.962,11.163-27.542,13.034v9.327c9.298-1.723,18.574-5.735,27.542-12.506
		V393.598"/>
	<path d="M36.392,102.54C15.236,109.839,0,129.951,0,153.554c0,23.604,15.236,43.715,36.392,51.014V187.19
		C24.281,180.844,16,168.148,16,153.554c0-14.594,8.281-27.29,20.392-33.636V102.54"/>
	<path fill="#C5525E" d="M84.392,176.179c-6.923,9.293-17.993,15.322-30.446,15.322c-6.329,0-12.302-1.558-17.554-4.31v17.378
		c5.505,1.899,11.412,2.932,17.554,2.932c11.287,0,21.775-3.484,30.446-9.434V176.179 M53.946,99.608
		c-6.142,0-12.049,1.032-17.554,2.932v17.378c5.252-2.752,11.225-4.31,17.554-4.31c12.453,0,23.523,6.029,30.446,15.322v-21.888
		C75.721,103.092,65.233,99.608,53.946,99.608"/>
	<path fill="#005B9C" d="M84.392,109.042v21.888c4.709,6.321,7.5,14.154,7.5,22.624c0,8.471-2.791,16.303-7.5,22.624v21.888
		c14.18-9.73,23.5-26.054,23.5-44.512S98.572,118.772,84.392,109.042"/>
	<path fill="#005B9C" d="M108.392,332.103c-13.153,6.087-22.299,19.41-22.299,34.831s9.146,28.744,22.299,34.831v-19.291
		c-3.897-4.026-6.299-9.507-6.299-15.54c0-6.033,2.401-11.514,6.299-15.54V332.103"/>
	<path fill="#8D9A63" d="M124.448,328.578c-5.729,0-11.17,1.263-16.056,3.524v19.291c4.067-4.2,9.762-6.815,16.056-6.815
		c12.327,0,22.356,10.028,22.356,22.355s-10.029,22.355-22.356,22.355c-6.294,0-11.989-2.615-16.056-6.815v19.291
		c4.886,2.261,10.327,3.524,16.056,3.524c21.149,0,38.356-17.206,38.356-38.355S145.597,328.578,124.448,328.578"/>
	<rect x="223.602" y="188.28" fill="#FFFFFF" width="4.586" height="5.492"/>
	<path fill="#FFFFFF" d="M169.104,224.128v-13.76c0-7.122-3.983-10.199-9.234-10.199c-4.285,0-7.604,1.992-9.414,5.311v-4.768
		h-9.053v3.44h4.828v19.976h-4.707v3.44h13.639v-3.44h-4.707v-12.553c0.181-4.104,3.319-7.846,8.147-7.846
		c3.621,0,6.216,2.112,6.216,7.906v12.492h-4.647v3.44h13.339v-3.44H169.104z"/>
	<path fill="#FFFFFF" d="M137.721,214.11c0-7.604-4.466-14.001-13.217-14.001c-8.69,0-13.277,6.397-13.277,14.242
		c0,8.087,4.889,13.82,13.036,13.82C132.532,228.172,137.721,222.257,137.721,214.11z M115.633,214.11
		c0-5.975,3.138-10.38,8.75-10.38c5.613,0,8.872,4.164,8.872,10.32c0,6.035-3.138,10.501-8.872,10.501
		C118.651,224.55,115.633,219.964,115.633,214.11z"/>
	<path fill="#FFFFFF" d="M200.125,211.937c-0.06-6.336-4.043-11.768-11.406-11.768c-7.604,0-12.311,6.035-12.311,14.363
		c0,8.69,5.07,13.639,12.674,13.639c6.638,0,10.561-3.742,11.286-8.328l-3.561-0.784c-0.845,3.319-3.198,5.492-7.423,5.492
		c-5.31,0-8.268-3.44-8.51-9.414h18.89C200.004,214.05,200.125,212.963,200.125,211.937z M195.659,211.998h-14.726
		c0.543-4.526,2.716-8.328,7.664-8.328C193.848,203.67,196.082,208.014,195.659,211.998z"/>
	<path fill="#FFFFFF" d="M298.376,212.36c-6.034,0-12.553,1.508-12.553,8.268c0,5.733,4.587,7.544,8.147,7.544
		c4.346,0,7.484-2.656,9.174-5.552v0.121c0.06,3.319,1.75,5.432,4.888,5.432c1.268,0,2.535-0.362,3.501-0.905l-0.061-2.776
		c-0.543,0.242-1.267,0.362-1.81,0.362c-1.569,0-2.293-0.905-2.293-2.897v-12.794c0-6.035-3.38-8.992-9.596-8.992
		c-3.5,0-6.699,0.724-9.475,2.595l-0.966,6.216l3.501,0.423l1.026-4.647c1.63-0.784,3.38-1.086,5.19-1.086
		c4.828,0,6.095,2.655,6.095,6.518v2.414C301.695,212.48,300.006,212.36,298.376,212.36z M303.144,217.49
		c-0.302,4.406-4.164,7.182-7.906,7.182c-2.354,0-5.01-1.086-5.01-4.526c0-4.164,3.923-5.009,7.907-5.009
		c1.81,0,3.5,0.181,5.009,0.302V217.49z"/>
	<polygon fill="#FFFFFF" points="219.196,204.152 224.024,204.152 224.024,224.128 219.317,224.128 219.317,227.568 
		232.956,227.568 232.956,224.128 228.249,224.128 228.249,200.712 219.196,200.712 	"/>
	<path fill="#FFFFFF" d="M235.672,200.712v3.44h4.828v19.976h-4.707v3.44h13.638v-3.44h-4.707v-12.553
		c0.182-4.104,3.319-7.846,8.147-7.846c3.622,0,6.216,2.112,6.216,7.906v12.492h-4.646v3.44h13.578v-3.44h-4.647v-13.76
		c0-7.122-3.982-10.199-9.233-10.199c-4.286,0-7.605,1.992-9.415,5.311v-4.768H235.672z"/>
	<path fill="#FFFFFF" d="M155.826,282.792c0-7.122-3.862-10.199-8.992-10.199c-4.646,0-7.846,2.716-9.474,6.457
		c-1.147-4.466-4.467-6.457-8.63-6.457c-4.285,0-7.243,2.293-8.992,5.552v-5.009h-8.992v3.44h4.767v19.976h-4.707v3.44h13.881v-3.44
		h-4.949v-12.432c0.121-3.44,2.776-7.966,7.785-7.966c3.501,0,5.975,2.052,5.975,7.906v12.492h-3.862v3.44h12.793v-3.44h-4.646
		V284.24c0.12-3.38,2.776-8.087,7.725-8.087c3.56,0,6.095,2.112,6.095,7.906v12.492h-3.923v3.44h12.615v-3.44h-4.467V282.792z"/>
	<path fill="#FFFFFF" d="M189.624,286.533c0-7.604-4.467-14.001-13.217-14.001c-8.69,0-13.277,6.397-13.277,14.242
		c0,8.087,4.888,13.82,13.035,13.82C184.433,300.595,189.624,294.68,189.624,286.533z M167.536,286.533
		c0-5.975,3.137-10.38,8.75-10.38c5.613,0,8.871,4.164,8.871,10.32c0,6.035-3.137,10.501-8.871,10.501
		C170.553,296.973,167.536,292.387,167.536,286.533z"/>
	<path fill="#FFFFFF" d="M342.795,282.792c0-7.122-3.983-10.199-9.234-10.199c-4.285,0-7.604,1.992-9.414,5.311v-4.768h-9.053v3.44
		h4.828v19.976h-4.707v3.44h13.639v-3.44h-4.707v-12.553c0.181-4.104,3.319-7.846,8.147-7.846c3.621,0,6.216,2.112,6.216,7.906
		v12.492h-4.647v3.44h13.579v-3.44h-4.647V282.792z"/>
	<polygon fill="#FFFFFF" points="221.369,276.575 226.197,276.575 226.197,296.551 221.49,296.551 221.49,299.991 235.129,299.991 
		235.129,296.551 230.422,296.551 230.422,273.136 221.369,273.136 	"/>
	<polygon fill="#FFFFFF" points="237.302,258.47 237.302,261.91 242.069,261.91 242.069,296.551 237.362,296.551 237.362,299.991 
		251.001,299.991 251.001,296.551 246.294,296.551 246.294,258.47 	"/>
	<rect x="225.774" y="260.703" fill="#FFFFFF" width="4.586" height="5.492"/>
	<polygon fill="#FFFFFF" points="253.114,258.47 253.114,261.91 257.881,261.91 257.881,296.551 253.174,296.551 253.174,299.991 
		266.813,299.991 266.813,296.551 262.106,296.551 262.106,258.47 	"/>
	<path fill="#FFFFFF" d="M299.463,284.783c-6.034,0-12.553,1.508-12.553,8.268c0,5.733,4.587,7.544,8.147,7.544
		c4.346,0,7.484-2.656,9.174-5.552v0.121c0.06,3.319,1.75,5.432,4.888,5.432c1.268,0,2.535-0.362,3.501-0.905l-0.061-2.776
		c-0.543,0.242-1.267,0.362-1.81,0.362c-1.569,0-2.293-0.905-2.293-2.897v-12.794c0-6.035-3.38-8.992-9.596-8.992
		c-3.5,0-6.699,0.724-9.475,2.595l-0.966,6.216l3.501,0.423l1.026-4.647c1.63-0.784,3.38-1.086,5.19-1.086
		c4.828,0,6.095,2.655,6.095,6.518v2.414C302.782,284.903,301.092,284.783,299.463,284.783z M304.231,289.913
		c-0.302,4.406-4.164,7.182-7.906,7.182c-2.354,0-5.01-1.086-5.01-4.526c0-4.164,3.923-5.009,7.907-5.009
		c1.81,0,3.5,0.181,5.009,0.302V289.913z"/>
	<polygon fill="#FFFFFF" points="269.71,276.575 274.538,276.575 274.538,296.551 269.831,296.551 269.831,299.991 283.47,299.991 
		283.47,296.551 278.763,296.551 278.763,273.136 269.71,273.136 	"/>
	<rect x="274.115" y="260.703" fill="#FFFFFF" width="4.587" height="5.492"/>
	<polygon fill="#FFFFFF" points="193.969,299.991 216.54,299.991 217.989,291.663 214.549,291.119 213.161,296.551 199.34,296.551 
		216.359,275.67 216.177,273.136 194.573,273.136 193.849,281.524 197.228,281.946 198.013,276.575 210.686,276.575 
		193.788,297.396 	"/>
	<path fill="#BE7BB4" d="M133.256,214.05c0-6.156-3.259-10.32-8.872-10.32c-5.612,0-8.75,4.406-8.75,10.38
		c0,5.854,3.018,10.44,8.75,10.44C130.117,224.55,133.256,220.085,133.256,214.05z"/>
	<path fill="#BE7BB4" d="M188.597,203.67c-4.948,0-7.121,3.802-7.664,8.328h14.726C196.082,208.014,193.848,203.67,188.597,203.67z"
		/>
	<path fill="#BE7BB4" d="M290.229,220.145c0,3.44,2.656,4.526,5.01,4.526c3.742,0,7.604-2.776,7.906-7.182v-2.052
		c-1.509-0.121-3.198-0.302-5.009-0.302C294.152,215.136,290.229,215.981,290.229,220.145z"/>
	<path fill="#BE7BB4" d="M185.157,286.473c0-6.156-3.258-10.32-8.871-10.32c-5.613,0-8.75,4.406-8.75,10.38
		c0,5.854,3.017,10.44,8.75,10.44C182.02,296.973,185.157,292.508,185.157,286.473z"/>
	<path fill="#BE7BB4" d="M291.315,292.568c0,3.44,2.656,4.526,5.01,4.526c3.742,0,7.604-2.776,7.906-7.182v-2.052
		c-1.509-0.121-3.198-0.302-5.009-0.302C295.239,287.559,291.315,288.404,291.315,292.568z"/>
	<path fill="#BE7BB4" d="M314.249,244.65h-1.448h-27.46h-1.448h-15.27h-1.448h-14.364h-1.448h-14.364h-1.448h-15.27h-1.447H192.46
		h-1.448H161.74h-1.447h-51.902v68.195h51.902h1.447h29.272h1.448h26.375h1.447h15.27h1.448h14.364h1.448h14.364h1.448h15.27h1.448
		h27.46h1.448h34.399V244.65H314.249z M160.293,299.991h-12.615v-3.44h3.923v-12.492c0-5.794-2.535-7.906-6.095-7.906
		c-4.949,0-7.605,4.708-7.725,8.087v12.311h4.646v3.44h-12.793v-3.44h3.862v-12.492c0-5.854-2.474-7.906-5.975-7.906
		c-5.009,0-7.664,4.526-7.785,7.966v12.432h4.949v3.44h-13.881v-3.44h4.707v-19.976h-4.767v-3.44h8.992v5.009
		c1.749-3.259,4.707-5.552,8.992-5.552c4.164,0,7.483,1.992,8.63,6.457c1.629-3.742,4.828-6.457,9.474-6.457
		c5.13,0,8.992,3.078,8.992,10.199v13.76h4.467V299.991z M176.165,300.595c-8.147,0-13.035-5.733-13.035-13.82
		c0-7.845,4.586-14.242,13.277-14.242c8.75,0,13.217,6.397,13.217,14.001C189.624,294.68,184.433,300.595,176.165,300.595z
		 M216.54,299.991h-22.571l-0.181-2.595l16.898-20.821h-12.674l-0.785,5.371l-3.379-0.422l0.724-8.388h21.605l0.182,2.534
		l-17.019,20.881h13.821l1.388-5.432l3.44,0.543L216.54,299.991z M225.774,260.703h4.586v5.492h-4.586V260.703z M235.129,299.991
		H221.49v-3.44h4.707v-19.976h-4.828v-3.44h9.053v23.416h4.707V299.991z M251.001,299.991h-13.639v-3.44h4.707V261.91h-4.767v-3.44
		h8.992v38.081h4.707V299.991z M266.813,299.991h-13.639v-3.44h4.707V261.91h-4.767v-3.44h8.992v38.081h4.707V299.991z
		 M274.115,260.703h4.587v5.492h-4.587V260.703z M283.47,299.991h-13.639v-3.44h4.707v-19.976h-4.828v-3.44h9.053v23.416h4.707
		V299.991z M309.119,300.595c-3.137,0-4.828-2.112-4.888-5.432v-0.121c-1.69,2.897-4.828,5.552-9.174,5.552
		c-3.56,0-8.147-1.811-8.147-7.544c0-6.759,6.519-8.268,12.553-8.268c1.63,0,3.319,0.12,4.768,0.241v-2.414
		c0-3.862-1.267-6.518-6.095-6.518c-1.81,0-3.561,0.302-5.19,1.086l-1.026,4.647l-3.501-0.423l0.966-6.216
		c2.776-1.871,5.975-2.595,9.475-2.595c6.216,0,9.596,2.957,9.596,8.992v12.794c0,1.992,0.724,2.897,2.293,2.897
		c0.543,0,1.267-0.121,1.81-0.362l0.061,2.776C311.654,300.233,310.387,300.595,309.119,300.595z M347.442,299.991h-13.579v-3.44
		h4.647v-12.492c0-5.794-2.595-7.906-6.216-7.906c-4.828,0-7.966,3.742-8.147,7.846v12.553h4.707v3.44h-13.639v-3.44h4.707v-19.976
		h-4.828v-3.44h9.053v4.768c1.81-3.319,5.13-5.311,9.414-5.311c5.25,0,9.234,3.078,9.234,10.199v13.76h4.647V299.991z"/>
	<path fill="#BE7BB4" d="M282.807,172.227h-13.58h-34.4h-1.448h-16.717h-13.58h-28.124h-1.447h-32.952h-1.448h-30.718v68.195h30.718
		h1.448h32.952h1.447h28.124h13.58h16.717h1.448h34.4h13.58h30.356v-4.999v-52.895v-10.301H282.807z M124.264,228.172
		c-8.147,0-13.036-5.733-13.036-13.82c0-7.845,4.586-14.242,13.277-14.242c8.751,0,13.217,6.397,13.217,14.001
		C137.721,222.257,132.532,228.172,124.264,228.172z M173.51,227.568h-13.339v-3.44h4.647v-12.492c0-5.794-2.595-7.906-6.216-7.906
		c-4.828,0-7.966,3.742-8.147,7.846v12.553h4.707v3.44h-13.639v-3.44h4.707v-19.976h-4.828v-3.44h9.053v4.768
		c1.81-3.319,5.13-5.311,9.414-5.311c5.25,0,9.234,3.078,9.234,10.199v13.76h4.407V227.568z M189.081,228.172
		c-7.604,0-12.674-4.949-12.674-13.639c0-8.328,4.707-14.363,12.311-14.363c7.363,0,11.347,5.432,11.406,11.768
		c0,1.026-0.121,2.112-0.362,3.199h-18.89c0.242,5.974,3.199,9.414,8.51,9.414c4.225,0,6.578-2.172,7.423-5.492l3.561,0.784
		C199.641,224.43,195.719,228.172,189.081,228.172z M223.602,188.28h4.586v5.492h-4.586V188.28z M232.956,227.568h-13.639v-3.44
		h4.707v-19.976h-4.828v-3.44h9.053v23.416h4.707V227.568z M268.019,227.568h-13.578v-3.44h4.646v-12.492
		c0-5.794-2.594-7.906-6.216-7.906c-4.828,0-7.965,3.742-8.147,7.846v12.553h4.707v3.44h-13.638v-3.44h4.707v-19.976h-4.828v-3.44
		h9.052v4.768c1.81-3.319,5.13-5.311,9.415-5.311c5.25,0,9.233,3.078,9.233,10.199v13.76h4.647V227.568z M308.032,228.172
		c-3.137,0-4.828-2.112-4.888-5.432v-0.121c-1.69,2.897-4.828,5.552-9.174,5.552c-3.56,0-8.147-1.811-8.147-7.544
		c0-6.759,6.519-8.268,12.553-8.268c1.63,0,3.319,0.12,4.768,0.241v-2.414c0-3.862-1.267-6.518-6.095-6.518
		c-1.81,0-3.561,0.302-5.19,1.086l-1.026,4.647l-3.501-0.423l0.966-6.216c2.776-1.871,5.975-2.595,9.475-2.595
		c6.216,0,9.596,2.957,9.596,8.992v12.794c0,1.992,0.724,2.897,2.293,2.897c0.543,0,1.267-0.121,1.81-0.362l0.061,2.776
		C310.568,227.81,309.3,228.172,308.032,228.172z"/>
</g>
</svg>
