<?xml version="1.0" encoding="utf-8"?>
<!-- Generator: Adobe Illustrator 23.0.2, SVG Export Plug-In . SVG Version: 6.00 Build 0)  -->
<svg version="1.1" xmlns="http://www.w3.org/2000/svg" xmlns:xlink="http://www.w3.org/1999/xlink" x="0px" y="0px"
	 viewBox="0 0 1856 2511" style="enable-background:new 0 0 1856 2511;" xml:space="preserve">
<g id="LiveType" style="display:none;">
</g>
<g id="Outlined">
	<g>
		<g>
			
				<radialGradient id="SVGID_1_" cx="321.9653015" cy="-119.884819" r="1876.7873535" fx="389.0930176" fy="-153.0632935" gradientTransform="matrix(1 0 0 1 1258.4412842 532.8895874)" gradientUnits="userSpaceOnUse">
				<stop  offset="0" style="stop-color:#FFF44F"/>
				<stop  offset="0.2948518" style="stop-color:#FF980E"/>
				<stop  offset="0.4315208" style="stop-color:#FF5D36"/>
				<stop  offset="0.5302083" style="stop-color:#FF3750"/>
				<stop  offset="0.7493189" style="stop-color:#F5156C"/>
				<stop  offset="0.7647903" style="stop-color:#F1136E"/>
				<stop  offset="0.8800957" style="stop-color:#DA057A"/>
				<stop  offset="0.9527844" style="stop-color:#D2007F"/>
			</radialGradient>
			<path style="fill:url(#SVGID_1_);" d="M1588.9476318,424.2691345
				c-149.4694824-196.3749237-382.5009766-318.7614441-627.5899048-323.6408386
				c-191.9949951-3.8221893-324.6536865,53.7364655-399.7108765,100.0100555
				c100.4220581-58.1005554,245.7254639-91.0539093,372.9506226-89.432724
				c327.2897339,4.1699524,678.7756958,226.4971008,730.9810181,627.2811279
				c59.927124,460.0645142-261.2540283,844.0391235-713.1134644,845.1983032
				c-497.1066589,1.2753906-799.4509888-437.8432617-720.430603-832.2564697
				c3.9460297-19.6954956,1.9762421-38.8516235,8.5548248-57.4663086
				c3.7658081-69.3502808,30.0256042-178.0535889,86.6737366-289.1238708
				c-57.2372437,29.5427856-130.1303406,123.0155945-166.1206665,209.5992126
				c-51.8845825,124.821106-70.1696243,274.0906372-53.709549,416.1064453
				c1.2391357,10.6900635,2.361496,21.3492432,3.7628326,31.9482422
				c66.5797424,390.5933838,406.6473694,687.9543457,816.2143555,687.9543457
				c457.3353882,0,828.0779419-370.7425537,828.0779419-828.0751343
				C1755.487915,735.3793335,1693.4829102,562.8859253,1588.9476318,424.2691345z M278.296875,496.1810608l-0.0028076,0.0027771
				L278.296875,496.1810608z"/>
			<g style="opacity:0.67;">
				
					<radialGradient id="SVGID_2_" cx="-1019.8154907" cy="-42.2455254" r="1110.7330322" fx="-980.0875244" fy="-61.8814316" gradientTransform="matrix(1 0 0 1 1258.4412842 532.8895874)" gradientUnits="userSpaceOnUse">
					<stop  offset="0" style="stop-color:#B5007F"/>
					<stop  offset="1" style="stop-color:#F5156C;stop-opacity:0"/>
				</radialGradient>
				<path style="fill:url(#SVGID_2_);" d="M1588.9476318,424.2691345
					c-149.4694824-196.3749237-382.5009766-318.7614441-627.5899048-323.6408386
					c-191.9949951-3.8221893-324.6536865,53.7364655-399.7108765,100.0100555
					c100.4220581-58.1005554,245.7254639-91.0539093,372.9506226-89.432724
					c327.2897339,4.1699524,678.7756958,226.4971008,730.9810181,627.2811279
					c59.927124,460.0645142-261.2540283,844.0391235-713.1134644,845.1983032
					c-497.1066589,1.2753906-799.4509888-437.8432617-720.430603-832.2564697
					c3.9460297-19.6954956,1.9762421-38.8516235,8.5548248-57.4663086
					c3.7658081-69.3502808,30.0256042-178.0535889,86.6737366-289.1238708
					c-57.2372437,29.5427856-130.1303406,123.0155945-166.1206665,209.5992126
					c-51.8845825,124.821106-70.1696243,274.0906372-53.709549,416.1064453
					c1.2391357,10.6900635,2.361496,21.3492432,3.7628326,31.9482422
					c66.5797424,390.5933838,406.6473694,687.9543457,816.2143555,687.9543457
					c457.3353882,0,828.0779419-370.7425537,828.0779419-828.0751343
					C1755.487915,735.3793335,1693.4829102,562.8859253,1588.9476318,424.2691345z M278.296875,496.1810608l-0.0028076,0.0027771
					L278.296875,496.1810608z"/>
			</g>
			
				<radialGradient id="SVGID_3_" cx="482.4009094" cy="-226.6747589" r="2203.8347168" fx="561.2261963" fy="-265.6348877" gradientTransform="matrix(1 0 0 1 1258.4412842 532.8895874)" gradientUnits="userSpaceOnUse">
				<stop  offset="0" style="stop-color:#FFDD00;stop-opacity:0.6"/>
				<stop  offset="0.0836672" style="stop-color:#FFD801;stop-opacity:0.524402"/>
				<stop  offset="0.1822441" style="stop-color:#FECA05;stop-opacity:0.4353322"/>
				<stop  offset="0.2883662" style="stop-color:#FEB20C;stop-opacity:0.3394448"/>
				<stop  offset="0.399791" style="stop-color:#FD9115;stop-opacity:0.2387661"/>
				<stop  offset="0.5154039" style="stop-color:#FB6621;stop-opacity:0.1343033"/>
				<stop  offset="0.6328723" style="stop-color:#F9332F;stop-opacity:0.028164"/>
				<stop  offset="0.6640424" style="stop-color:#F92433;stop-opacity:0"/>
			</radialGradient>
			<path style="fill:url(#SVGID_3_);" d="M1588.9476318,424.2691345
				c-149.4694824-196.3749237-382.5009766-318.7614441-627.5899048-323.6408386
				c-191.9949951-3.8221893-324.6536865,53.7364655-399.7108765,100.0100555
				c100.4220581-58.1005554,245.7254639-91.0539093,372.9506226-89.432724
				c327.2897339,4.1699524,678.7756958,226.4971008,730.9810181,627.2811279
				c59.927124,460.0645142-261.2540283,844.0391235-713.1134644,845.1983032
				c-497.1066589,1.2753906-799.4509888-437.8432617-720.430603-832.2564697
				c3.9460297-19.6954956,1.9762421-38.8516235,8.5548248-57.4663086
				c3.7658081-69.3502808,30.0256042-178.0535889,86.6737366-289.1238708
				c-57.2372437,29.5427856-130.1303406,123.0155945-166.1206665,209.5992126
				c-51.8845825,124.821106-70.1696243,274.0906372-53.709549,416.1064453
				c1.2391357,10.6900635,2.361496,21.3492432,3.7628326,31.9482422
				c66.5797424,390.5933838,406.6473694,687.9543457,816.2143555,687.9543457
				c457.3353882,0,828.0779419-370.7425537,828.0779419-828.0751343
				C1755.487915,735.3793335,1693.4829102,562.8859253,1588.9476318,424.2691345z M278.296875,496.1810608l-0.0028076,0.0027771
				L278.296875,496.1810608z"/>
		</g>
		<g>
			<radialGradient id="SVGID_4_" cx="975.7664795" cy="1018.461853" r="2843.1210938" gradientUnits="userSpaceOnUse">
				<stop  offset="0.1528494" style="stop-color:#960E18"/>
				<stop  offset="0.2061304" style="stop-color:#CC2335;stop-opacity:0.5541388"/>
				<stop  offset="0.2494777" style="stop-color:#F13148;stop-opacity:0.1914039"/>
				<stop  offset="0.2723507" style="stop-color:#FF3750;stop-opacity:0"/>
			</radialGradient>
			<path style="fill:url(#SVGID_4_);" d="M1588.9476318,424.2691345
				c-149.4694824-196.3749237-382.5009766-318.7614441-627.5899048-323.6408386
				c-191.9949951-3.8221893-324.6536865,53.7364655-399.7108765,100.0100555
				c100.4220581-58.1005554,245.7254639-91.0539093,372.9506226-89.432724
				c327.2897339,4.1699524,678.7756958,226.4971008,730.9810181,627.2811279
				c59.927124,460.0645142-261.2540283,844.0391235-713.1134644,845.1983032
				c-497.1066589,1.2753906-799.4509888-437.8432617-720.430603-832.2564697
				c3.9460297-19.6954956,1.9762421-38.8516235,8.5548248-57.4663086
				c3.7658081-69.3502808,30.0256042-178.0535889,86.6737366-289.1238708
				c-57.2372437,29.5427856-130.1303406,123.0155945-166.1206665,209.5992126
				c-51.8845825,124.821106-70.1696243,274.0906372-53.709549,416.1064453
				c1.2391357,10.6900635,2.361496,21.3492432,3.7628326,31.9482422
				c66.5797424,390.5933838,406.6473694,687.9543457,816.2143555,687.9543457
				c457.3353882,0,828.0779419-370.7425537,828.0779419-828.0751343
				C1755.487915,735.3793335,1693.4829102,562.8859253,1588.9476318,424.2691345z M278.296875,496.1810608l-0.0028076,0.0027771
				L278.296875,496.1810608z"/>
			<radialGradient id="SVGID_5_" cx="760.6193848" cy="982.711853" r="2843.1210938" gradientUnits="userSpaceOnUse">
				<stop  offset="0.1129055" style="stop-color:#960E18"/>
				<stop  offset="0.1893459" style="stop-color:#CC2335;stop-opacity:0.5541388"/>
				<stop  offset="0.2515348" style="stop-color:#F13148;stop-opacity:0.1914039"/>
				<stop  offset="0.2843499" style="stop-color:#FF3750;stop-opacity:0"/>
			</radialGradient>
			<path style="fill:url(#SVGID_5_);" d="M1588.9476318,424.2691345
				c-149.4694824-196.3749237-382.5009766-318.7614441-627.5899048-323.6408386
				c-191.9949951-3.8221893-324.6536865,53.7364655-399.7108765,100.0100555
				c100.4220581-58.1005554,245.7254639-91.0539093,372.9506226-89.432724
				c327.2897339,4.1699524,678.7756958,226.4971008,730.9810181,627.2811279
				c59.927124,460.0645142-261.2540283,844.0391235-713.1134644,845.1983032
				c-497.1066589,1.2753906-799.4509888-437.8432617-720.430603-832.2564697
				c3.9460297-19.6954956,1.9762421-38.8516235,8.5548248-57.4663086
				c3.7658081-69.3502808,30.0256042-178.0535889,86.6737366-289.1238708
				c-57.2372437,29.5427856-130.1303406,123.0155945-166.1206665,209.5992126
				c-51.8845825,124.821106-70.1696243,274.0906372-53.709549,416.1064453
				c1.2391357,10.6900635,2.361496,21.3492432,3.7628326,31.9482422
				c66.5797424,390.5933838,406.6473694,687.9543457,816.2143555,687.9543457
				c457.3353882,0,828.0779419-370.7425537,828.0779419-828.0751343
				C1755.487915,735.3793335,1693.4829102,562.8859253,1588.9476318,424.2691345z M278.296875,496.1810608l-0.0028076,0.0027771
				L278.296875,496.1810608z"/>
		</g>
		
			<linearGradient id="SVGID_6_" gradientUnits="userSpaceOnUse" x1="-209.3686981" y1="-272.0808716" x2="277.0961304" y2="570.5009155" gradientTransform="matrix(1 0 0 1 1258.4412842 532.8895874)">
			<stop  offset="0" style="stop-color:#FFBC04"/>
			<stop  offset="0.2596934" style="stop-color:#FFA202;stop-opacity:0.4886038"/>
			<stop  offset="0.5078125" style="stop-color:#FF8E00;stop-opacity:0"/>
		</linearGradient>
		<path style="fill:url(#SVGID_6_);" d="M1665.5784912,738.4867554
			c6.6175537,50.8028564,8.5693359,100.7617188,6.2297363,149.454834
			c27.4207764-4.0584717,54.8916016-7.7365112,82.4155273-10.9220581
			c-9.1539307-169.4852905-69.2498779-325.4165649-165.276123-452.7503967
			c-149.4694824-196.3749237-382.5009766-318.7614441-627.5899048-323.6408386
			c-191.9949951-3.8221893-324.6536865,53.7364655-399.7108765,100.0100555
			c100.4220581-58.1005554,245.7254639-91.0539093,372.9506226-89.432724
			C1261.887207,115.3755798,1613.3731689,337.7027283,1665.5784912,738.4867554z"/>
		<g>
			
				<radialGradient id="SVGID_7_" cx="257.6331177" cy="346.1094666" r="1837.1556396" fx="323.3432922" fy="313.6316223" gradientTransform="matrix(0.9588647 0 0 0.9588647 1293.9906006 17.7235451)" gradientUnits="userSpaceOnUse">
				<stop  offset="0" style="stop-color:#FF980E"/>
				<stop  offset="0.295012" style="stop-color:#FF7139"/>
				<stop  offset="0.4846462" style="stop-color:#FF5B51"/>
				<stop  offset="0.6260016" style="stop-color:#FF4F5E"/>
				<stop  offset="0.73652" style="stop-color:#FF4055"/>
				<stop  offset="0.8428285" style="stop-color:#FF3750"/>
			</radialGradient>
			<path style="fill:url(#SVGID_7_);" d="M1685.708374,715.6062012
				c-46.5383301-418.8459473-420.9613037-607.1150513-751.1109009-604.4005737
				c-127.2312012,1.0460968-272.5285645,31.3321686-372.9506226,89.432724
				c-46.9091187,28.9201202-71.3141174,53.413147-73.5905457,55.7527924
				c2.6614685-2.2044373,10.6165466-8.7382507,23.8127136-17.773468c0.4320068-0.3018951,0.868042-0.5973816,1.3010864-0.8977966
				c0.3751831-0.2547607,0.7672729-0.5159607,1.1503906-0.7743835
				c47.8695068-33.0056305,101.897583-56.9771271,159.0289917-73.6792145
				c87.2529907-25.5080414,181.7225952-34.0688629,272.5515137-31.7917938
				c373.3869629,21.4808044,636.8839111,330.6569824,646.0568848,659.7562256
				c7.5919189,272.3756104-215.8815918,489.5927734-473.4803467,502.1739502
				c-187.3443604,9.1499023-363.8172607-81.2896729-450.0657349-262.2191162
				c-19.1871948-40.2501221-33.258728-81.1610718-40.5977173-130.6166382
				C586.9537354,625.2227173,772.2990112,390.4113159,942.2636108,332.278595
				c-91.7047729-79.9056091-321.4455566-74.4856262-492.4395447,51.0117188
				C326.6810608,473.6684875,246.797821,611.1767578,220.3321991,775.229248
				c-20.1782074,125.0787354-1.174057,255.151001,48.378952,371.3204346
				c50.4922485,118.3712158,132.6082458,222.7265625,235.8444214,299.5684814
				c112.1042175,83.4428711,247.0965881,131.9971924,386.2333679,142.5726318
				c20.519165,1.5596924,41.0980225,2.3226318,61.6760864,2.3226318
				C1499.5546875,1591.0134277,1736.9432373,1176.7197266,1685.708374,715.6062012z"/>
			
				<radialGradient id="SVGID_8_" cx="257.6331177" cy="346.1094666" r="1837.1556396" fx="323.3432922" fy="313.6316223" gradientTransform="matrix(0.9588647 0 0 0.9588647 1293.9906006 17.7235451)" gradientUnits="userSpaceOnUse">
				<stop  offset="0.0840745" style="stop-color:#FFDE08"/>
				<stop  offset="0.2081029" style="stop-color:#FFD609;stop-opacity:0.8320085"/>
				<stop  offset="0.4032703" style="stop-color:#FFBF0B;stop-opacity:0.5676619"/>
				<stop  offset="0.643689" style="stop-color:#FF9B0F;stop-opacity:0.2420242"/>
				<stop  offset="0.8223758" style="stop-color:#FF7B12;stop-opacity:0"/>
			</radialGradient>
			<path style="fill:url(#SVGID_8_);" d="M1685.708374,715.6062012
				c-46.5383301-418.8459473-420.9613037-607.1150513-751.1109009-604.4005737
				c-127.2312012,1.0460968-272.5285645,31.3321686-372.9506226,89.432724
				c-46.9091187,28.9201202-71.3141174,53.413147-73.5905457,55.7527924
				c2.6614685-2.2044373,10.6165466-8.7382507,23.8127136-17.773468c0.4320068-0.3018951,0.868042-0.5973816,1.3010864-0.8977966
				c0.3751831-0.2547607,0.7672729-0.5159607,1.1503906-0.7743835
				c47.8695068-33.0056305,101.897583-56.9771271,159.0289917-73.6792145
				c87.2529907-25.5080414,181.7225952-34.0688629,272.5515137-31.7917938
				c373.3869629,21.4808044,636.8839111,330.6569824,646.0568848,659.7562256
				c7.5919189,272.3756104-215.8815918,489.5927734-473.4803467,502.1739502
				c-187.3443604,9.1499023-363.8172607-81.2896729-450.0657349-262.2191162
				c-19.1871948-40.2501221-33.258728-81.1610718-40.5977173-130.6166382
				C586.9537354,625.2227173,772.2990112,390.4113159,942.2636108,332.278595
				c-91.7047729-79.9056091-321.4455566-74.4856262-492.4395447,51.0117188
				C326.6810608,473.6684875,246.797821,611.1767578,220.3321991,775.229248
				c-20.1782074,125.0787354-1.174057,255.151001,48.378952,371.3204346
				c50.4922485,118.3712158,132.6082458,222.7265625,235.8444214,299.5684814
				c112.1042175,83.4428711,247.0965881,131.9971924,386.2333679,142.5726318
				c20.519165,1.5596924,41.0980225,2.3226318,61.6760864,2.3226318
				C1499.5546875,1591.0134277,1736.9432373,1176.7197266,1685.708374,715.6062012z"/>
		</g>
		<g>
			
				<radialGradient id="SVGID_9_" cx="1134.0427246" cy="897.6134033" r="863.961792" gradientTransform="matrix(0.2472277 0.9689574 -1.011201 0.2580061 1761.3436279 -432.8153381)" gradientUnits="userSpaceOnUse">
				<stop  offset="0.3633813" style="stop-color:#FF3750"/>
				<stop  offset="0.4111364" style="stop-color:#FF444B;stop-opacity:0.7894784"/>
				<stop  offset="0.5902234" style="stop-color:#FF7139;stop-opacity:0"/>
			</radialGradient>
			<path style="opacity:0.53;fill:url(#SVGID_9_);" d="M1685.708374,715.6062012
				c-46.5383301-418.8459473-420.9613037-607.1150513-751.1109009-604.4005737
				c-127.2312012,1.0460968-272.5285645,31.3321686-372.9506226,89.432724
				c-46.9091187,28.9201202-71.3141174,53.413147-73.5905457,55.7527924
				c2.6614685-2.2044373,10.6165466-8.7382507,23.8127136-17.773468c0.4320068-0.3018951,0.868042-0.5973816,1.3010864-0.8977966
				c0.3751831-0.2547607,0.7672729-0.5159607,1.1503906-0.7743835
				c47.8695068-33.0056305,101.897583-56.9771271,159.0289917-73.6792145
				c87.2529907-25.5080414,181.7225952-34.0688629,272.5515137-31.7917938
				c373.3869629,21.4808044,636.8839111,330.6569824,646.0568848,659.7562256
				c7.5919189,272.3756104-215.8815918,489.5927734-473.4803467,502.1739502
				c-187.3443604,9.1499023-363.8172607-81.2896729-450.0657349-262.2191162
				c-19.1871948-40.2501221-33.258728-81.1610718-40.5977173-130.6166382
				C586.9537354,625.2227173,772.2990112,390.4113159,942.2636108,332.278595
				c-91.7047729-79.9056091-321.4455566-74.4856262-492.4395447,51.0117188
				C326.6810608,473.6684875,246.797821,611.1767578,220.3321991,775.229248
				c-20.1782074,125.0787354-1.174057,255.151001,48.378952,371.3204346
				c50.4922485,118.3712158,132.6082458,222.7265625,235.8444214,299.5684814
				c112.1042175,83.4428711,247.0965881,131.9971924,386.2333679,142.5726318
				c20.519165,1.5596924,41.0980225,2.3226318,61.6760864,2.3226318
				C1499.5546875,1591.0134277,1736.9432373,1176.7197266,1685.708374,715.6062012z"/>
			
				<radialGradient id="SVGID_10_" cx="985.1235352" cy="970.7788696" r="863.961792" gradientTransform="matrix(0.2472277 0.9689574 -0.9698079 0.2474447 1683.0427246 -223.977951)" gradientUnits="userSpaceOnUse">
				<stop  offset="0.2158888" style="stop-color:#FF3750;stop-opacity:0.8"/>
				<stop  offset="0.2702094" style="stop-color:#FF444B;stop-opacity:0.6315827"/>
				<stop  offset="0.4739173" style="stop-color:#FF7139;stop-opacity:0"/>
			</radialGradient>
			<path style="opacity:0.53;fill:url(#SVGID_10_);" d="M1685.708374,715.6062012
				c-46.5383301-418.8459473-420.9613037-607.1150513-751.1109009-604.4005737
				c-127.2312012,1.0460968-272.5285645,31.3321686-372.9506226,89.432724
				c-46.9091187,28.9201202-71.3141174,53.413147-73.5905457,55.7527924
				c2.6614685-2.2044373,10.6165466-8.7382507,23.8127136-17.773468c0.4320068-0.3018951,0.868042-0.5973816,1.3010864-0.8977966
				c0.3751831-0.2547607,0.7672729-0.5159607,1.1503906-0.7743835
				c47.8695068-33.0056305,101.897583-56.9771271,159.0289917-73.6792145
				c87.2529907-25.5080414,181.7225952-34.0688629,272.5515137-31.7917938
				c373.3869629,21.4808044,636.8839111,330.6569824,646.0568848,659.7562256
				c7.5919189,272.3756104-215.8815918,489.5927734-473.4803467,502.1739502
				c-187.3443604,9.1499023-363.8172607-81.2896729-450.0657349-262.2191162
				c-19.1871948-40.2501221-33.258728-81.1610718-40.5977173-130.6166382
				C586.9537354,625.2227173,772.2990112,390.4113159,942.2636108,332.278595
				c-91.7047729-79.9056091-321.4455566-74.4856262-492.4395447,51.0117188
				C326.6810608,473.6684875,246.797821,611.1767578,220.3321991,775.229248
				c-20.1782074,125.0787354-1.174057,255.151001,48.378952,371.3204346
				c50.4922485,118.3712158,132.6082458,222.7265625,235.8444214,299.5684814
				c112.1042175,83.4428711,247.0965881,131.9971924,386.2333679,142.5726318
				c20.519165,1.5596924,41.0980225,2.3226318,61.6760864,2.3226318
				C1499.5546875,1591.0134277,1736.9432373,1176.7197266,1685.708374,715.6062012z"/>
		</g>
		<g>
			
				<radialGradient id="SVGID_11_" cx="624.2805176" cy="138.5841827" r="3105.1293945" gradientTransform="matrix(0.9588647 0 0 0.9588647 1293.9906006 17.7235451)" gradientUnits="userSpaceOnUse">
				<stop  offset="0.0535657" style="stop-color:#FFF44F"/>
				<stop  offset="0.4572717" style="stop-color:#FF980E"/>
				<stop  offset="0.5210502" style="stop-color:#FF8424"/>
				<stop  offset="0.587052" style="stop-color:#FF7634"/>
				<stop  offset="0.639343" style="stop-color:#FF7139"/>
			</radialGradient>
			<path style="fill:url(#SVGID_11_);" d="M1118.4775391,1293.4046631
				c353.5771484-21.4525146,504.8636475-313.4196777,514.3463135-520.6831055
				c14.8076172-323.6536865-177.6922607-672.6919556-686.9228516-641.2470703
				c-90.8289185-2.2770691-185.2985229,6.2837524-272.5515137,31.7917938
				c-76.487854,23.3342438-129.6119385,53.8423309-159.0289917,73.6792145
				c-0.3805542,0.2624969-0.7706909,0.5108337-1.1503906,0.7743835c-0.4572754,0.3104858-0.855835,0.5928955-1.3010864,0.8977966
				c-7.9184265,5.5348663-15.6611633,11.326004-23.2225952,17.3686981
				c14.15802-9.663681,189.7702026-113.1260986,433.7546997-81.1819611
				c292.2911377,38.2687988,559.619751,265.1809692,559.619751,564.574585
				c0,230.3544312-178.449707,406.2157593-387.3862305,393.6613159
				c-310.427124-18.6525879-388.5958252-336.2128906-227.1882324-473.4232178
				c-43.5438843-9.355957-125.376709,8.9648438-182.3499756,93.9456787
				c-51.1213379,76.2521973-48.2356567,194.0770264-16.6846313,277.6228027
				C754.6602783,1212.1149902,931.2541504,1304.7640381,1118.4775391,1293.4046631z"/>
		</g>
		<g>
			
				<linearGradient id="SVGID_12_" gradientUnits="userSpaceOnUse" x1="1321.7657471" y1="246.002121" x2="477.6807251" y2="1708.0002441">
				<stop  offset="0" style="stop-color:#FFF44F;stop-opacity:0.8"/>
				<stop  offset="0.75" style="stop-color:#FFF44F;stop-opacity:0"/>
			</linearGradient>
			<path style="fill:url(#SVGID_12_);" d="M1588.9447021,424.2693787
				c-22.1630859-29.1247559-46.3696289-56.4038391-71.9824219-82.1301575
				c-20.5444336-21.7492676-42.5610352-41.7883301-65.6835938-60.3479004
				c13.3227539,11.6491699,26.1474609,23.8769531,38.2177734,36.9067383
				c44.7802734,48.3398438,80.2441406,105.4468079,100.9277344,167.9663391
				c43.190918,130.5469055,40.3710938,293.9136047-42.0849609,422.226593
				c-98.2617188,152.9040527-258.2299805,228.3837891-431.1549072,224.7070312
				c-7.4780273,0.032959-14.9853516-0.1025391-22.5512695-0.5566406
				c-310.4223633-18.6547852-388.59375-336.2145996-227.1826172-473.4228516
				c-43.5498047-9.3566895-125.3759766,8.9648438-182.3510742,93.9440918
				c-51.1230469,76.2524414-48.2373047,194.0772095-16.6845703,277.6208496
				c-19.1894531-40.246521-33.2592773-81.1596069-40.5981445-130.612793
				C586.954834,625.223999,772.3015137,390.4095154,942.267395,332.2771606
				c-91.706604-79.9035645-321.4453735-74.4836426-492.4439392,51.0131836
				c-99.6387024,73.1286926-170.9253235,177.1326294-208.542511,301.069397
				c5.5297852-69.5397949,31.8603516-173.4045715,85.9790039-279.5215149
				c-57.2314453,29.5422363-130.1294098,123.0176086-166.1132965,209.5971985
				c-51.8847733,124.822998-70.1733475,274.0942383-53.7158279,416.1108398
				c1.2451172,10.6860352,2.3657227,21.3464355,3.7646484,31.9482422
				c66.5771561,390.5915527,406.6480408,687.9530029,816.2183228,687.9530029
				c457.331665,0,828.0762939-370.7446289,828.0762939-828.0762939
				C1755.4901123,735.380249,1693.4832764,562.8875732,1588.9447021,424.2693787z"/>
		</g>
		
			<linearGradient id="SVGID_13_" gradientUnits="userSpaceOnUse" x1="-205.4111481" y1="605.314209" x2="-205.4111481" y2="-421.9790649" gradientTransform="matrix(1 0 0 1 1258.4412842 532.8895874)">
			<stop  offset="0" style="stop-color:#3A8EE6"/>
			<stop  offset="0.2359339" style="stop-color:#5C79F0"/>
			<stop  offset="0.6293269" style="stop-color:#9059FF"/>
			<stop  offset="1" style="stop-color:#C139E6"/>
		</linearGradient>
		<path style="fill:url(#SVGID_13_);" d="M1590.4223633,486.6653442
			c-20.6848145-62.5218506-56.1479492-119.6295471-100.9287109-167.96521
			c-52.7590332-56.9472046-118.4615479-100.2200623-188.0151367-133.9199371
			c-59.1730957-28.6704254-120.9696045-51.2973633-184.833374-65.3579636
			c-114.3890991-25.1844559-234.4024048-24.7378387-342.4689941-1.9932785
			c-117.4863892,24.7271118-220.8035278,75.4496765-286.1429443,138.8622742
			c48.9926758-29.7004242,117.3344727-53.7881775,166.0311279-66.0630493
			c225.9799194-56.9623871,474.8150635,4.7353058,644.4698486,167.0513
			c34.109375,32.6338196,64.6950684,69.1494141,89.4937744,109.3698425
			c101.210083,164.1507263,91.6341553,370.5162048,12.7255859,492.2264099
			c-58.6201172,90.4168701-184.1494141,175.2387695-301.2728271,174.3172607
			c179.6837158,9.4058838,347.2463379-66.1815186,448.8568115-224.2998657
			C1630.7958984,780.5775757,1633.6121826,617.2108154,1590.4223633,486.6653442z"/>
		
			<linearGradient id="SVGID_14_" gradientUnits="userSpaceOnUse" x1="-583.4494629" y1="-426.6887207" x2="250.1201935" y2="406.8809204" gradientTransform="matrix(1 0 0 1 1258.4412842 532.8895874)">
			<stop  offset="0.8054287" style="stop-color:#9059FF;stop-opacity:0"/>
			<stop  offset="1" style="stop-color:#6E008B;stop-opacity:0.5"/>
		</linearGradient>
		<path style="fill:url(#SVGID_14_);" d="M1590.4223633,486.6653442
			c-20.6848145-62.5218506-56.1479492-119.6295471-100.9287109-167.96521
			c-52.7590332-56.9472046-118.4615479-100.2200623-188.0151367-133.9199371
			c-59.1730957-28.6704254-120.9696045-51.2973633-184.833374-65.3579636
			c-114.3890991-25.1844559-234.4024048-24.7378387-342.4689941-1.9932785
			c-117.4863892,24.7271118-220.8035278,75.4496765-286.1429443,138.8622742
			c48.9926758-29.7004242,117.3344727-53.7881775,166.0311279-66.0630493
			c225.9799194-56.9623871,474.8150635,4.7353058,644.4698486,167.0513
			c34.109375,32.6338196,64.6950684,69.1494141,89.4937744,109.3698425
			c101.210083,164.1507263,91.6341553,370.5162048,12.7255859,492.2264099
			c-58.6201172,90.4168701-184.1494141,175.2387695-301.2728271,174.3172607
			c179.6837158,9.4058838,347.2463379-66.1815186,448.8568115-224.2998657
			C1630.7958984,780.5775757,1633.6121826,617.2108154,1590.4223633,486.6653442z"/>
	</g>
	<g>
		<path d="M205.3575287,2081.0910645h220.6027985v59.6716309H268.6453857v80.9179688h157.3149414v59.21875H268.6453857v130.1921387
			h-63.2878571V2081.0910645z M501.0015564,2058.036377c21.6990662,0,36.6167297,15.8215332,36.6167297,37.0686035
			c0,21.2463379-14.4657593,37.0686035-37.0686646,37.0686035c-21.6990662,0-36.6167603-15.3703613-36.6167603-36.1647949
			C463.9328613,2073.4060059,480.6590881,2058.036377,501.0015564,2058.036377z M469.8095398,2166.9819336h62.3840027v244.1096191
			h-62.3840027V2166.9819336z M713.0152588,2234.7897949c-7.6843872-6.3286133-19.4378052-10.8493652-30.2873535-10.8493652
			c-25.3152466,0-39.7810669,16.2741699-39.7810669,51.9863281v135.1647949H581.015625v-244.1096191h59.2188721v35.2600098
			c12.6572266-27.5756836,32.0958252-37.5205078,58.3150024-37.5205078c14.4657593,0,30.288147,4.5200195,41.5895996,12.6572266
			L713.0152588,2234.7897949z M738.7824707,2290.3925781c0-70.0686035,51.9863892-128.3835449,125.671814-128.3835449
			c73.2327271,0,125.2191162,51.9863281,125.2191162,124.3151855v25.767334H799.8098755
			c6.7813721,30.7392578,30.7400513,51.0817871,67.3568115,51.0817871c28.4788208,0,47.9174194-13.5612793,60.5754395-36.1640625
			l51.9855957,31.1918945c-25.7664185,37.9726562-62.3831787,57.8630371-114.3695679,57.8630371
			C786.2487793,2416.064209,738.7824707,2363.1733398,738.7824707,2290.3925781z M800.7145386,2262.817627h128.3834229
			c-6.7805786-31.1921387-32.0958862-48.3703613-65.0963745-48.3703613
			C834.1661987,2214.4472656,809.3035889,2231.173584,800.7145386,2262.817627z M1005.0430298,2166.9819336h43.8491821v-12.2060547
			c0-66.4521484,28.02771-94.0270996,89.5070801-94.0270996h21.6990967v53.7949219h-17.630127
			c-28.9315186,0-35.2609863,9.9448242-35.2609863,40.2321777v12.2060547h52.8911133v56.0544434h-51.5345459v188.0551758
			h-59.6716309V2223.036377h-43.8491821V2166.9819336z M1171.8516846,2289.0366211
			c0-70.0683594,53.3421631-127.0275879,127.4796143-127.0275879c70.5202637,0,127.4794922,56.5065918,127.4794922,127.0275879
			c0,70.5202637-56.9592285,127.0275879-127.4794922,127.0275879
			C1223.3862305,2416.064209,1171.8516846,2360.4609375,1171.8516846,2289.0366211z M1366.2353516,2289.0366211
			c0-38.8771973-28.9315186-69.1645508-66.9040527-69.1645508c-38.4245605,0-66.9041748,30.2873535-66.9041748,69.1645508
			c0,38.8764648,28.4796143,69.1645508,66.9041748,69.1645508
			C1337.303833,2358.2011719,1366.2353516,2327.9130859,1366.2353516,2289.0366211z M1510.8930664,2286.3242188
			l-88.1503906-119.3422852h73.232666l51.9863281,75.0412598l53.3422852-75.0412598h71.8768311l-89.506958,118.8903809
			l94.0279541,125.2192383h-72.7808838l-58.3157959-79.5622559l-56.5064697,79.5622559h-72.7807617L1510.8930664,2286.3242188z"/>
	</g>
	<rect x="745.5" y="50.5" style="fill:none;" width="50" height="50"/>
</g>
<g id="Layer_3">
</g>
<g id="Layer_4">
</g>
<g id="Layer_5">
</g>
</svg>
