<svg xmlns="http://www.w3.org/2000/svg" viewBox="0 0 230 80">
  <defs>
    <radialGradient id="c" cx="87.4%" cy="-12.9%" r="128%" gradientTransform="matrix(.8 0 0 1 .178 .129)">
      <stop offset=".13" stop-color="#ffbd4f"/>
      <stop offset=".28" stop-color="#ff980e"/>
      <stop offset=".47" stop-color="#ff3750"/>
      <stop offset=".78" stop-color="#eb0878"/>
      <stop offset=".86" stop-color="#e50080"/>
    </radialGradient>
    <radialGradient id="d" cx="49%" cy="40%" r="128%" gradientTransform="matrix(.82 0 0 1 .088 0)">
      <stop offset=".3" stop-color="#960e18"/>
      <stop offset=".35" stop-color="#b11927" stop-opacity=".74"/>
      <stop offset=".43" stop-color="#db293d" stop-opacity=".34"/>
      <stop offset=".5" stop-color="#f5334b" stop-opacity=".09"/>
      <stop offset=".53" stop-color="#ff3750" stop-opacity="0"/>
    </radialGradient>
    <radialGradient id="e" cx="48%" cy="-12%" r="140%">
      <stop offset=".13" stop-color="#fff44f"/>
      <stop offset=".53" stop-color="#ff980e"/>
    </radialGradient>
    <radialGradient id="f" cx="22.76%" cy="110.11%" r="100%">
      <stop offset=".35" stop-color="#3a8ee6"/>
      <stop offset=".67" stop-color="#9059ff"/>
      <stop offset="1" stop-color="#c139e6"/>
    </radialGradient>
    <radialGradient id="g" cx="52%" cy="33%" r="59%" gradientTransform="scale(.9 1)">
      <stop offset=".21" stop-color="#9059ff" stop-opacity="0"/>
      <stop offset=".97" stop-color="#6e008b" stop-opacity=".6"/>
    </radialGradient>
    <radialGradient id="h" cx="210%" cy="-100%" r="290%">
      <stop offset=".1" stop-color="#ffe226"/>
      <stop offset=".79" stop-color="#ff7139"/>
    </radialGradient>
    <radialGradient id="i" cx="84%" cy="-41%" r="180%">
      <stop offset=".11" stop-color="#fff44f"/>
      <stop offset=".46" stop-color="#ff980e"/>
      <stop offset=".72" stop-color="#ff3647"/>
      <stop offset=".9" stop-color="#e31587"/>
    </radialGradient>
    <radialGradient id="j" cx="16.1%" cy="-18.6%" r="348.8%" gradientTransform="scale(1 .47) rotate(84 .279 -.297)">
      <stop offset="0" stop-color="#fff44f"/>
      <stop offset=".3" stop-color="#ff980e"/>
      <stop offset=".57" stop-color="#ff3647"/>
      <stop offset=".74" stop-color="#e31587"/>
    </radialGradient>
    <radialGradient id="k" cx="18.9%" cy="-42.5%" r="238.4%">
      <stop offset=".14" stop-color="#fff44f"/>
      <stop offset=".48" stop-color="#ff980e"/>
      <stop offset=".66" stop-color="#ff3647"/>
      <stop offset=".9" stop-color="#e31587"/>
    </radialGradient>
    <radialGradient id="l" cx="159.3%" cy="-44.72%" r="313.1%">
      <stop offset=".09" stop-color="#fff44f"/>
      <stop offset=".63" stop-color="#ff980e"/>
    </radialGradient>
    <linearGradient id="b" x1="87.25%" y1="15.5%" x2="9.4%" y2="93.1%">
      <stop offset=".05" stop-color="#fff44f"/>
      <stop offset=".37" stop-color="#ff980e"/>
      <stop offset=".53" stop-color="#ff3647"/>
      <stop offset=".7" stop-color="#e31587"/>
    </linearGradient>
    <linearGradient id="m" x1="80%" y1="14%" x2="18%" y2="84%">
      <stop offset=".17" stop-color="#fff44f" stop-opacity=".8"/>
      <stop offset=".6" stop-color="#fff44f" stop-opacity="0"/>
    </linearGradient>
    <linearGradient id="a" x1="70.4%" y1="81.3%" x2="51.1%" y2="59.94%">
      <stop offset="0" stop-color="#054096" stop-opacity=".5"/>
      <stop offset=".054" stop-color="#0f3d9c" stop-opacity=".441"/>
      <stop offset=".261" stop-color="#2f35b1" stop-opacity=".249"/>
      <stop offset=".466" stop-color="#462fbf" stop-opacity=".111"/>
      <stop offset=".669" stop-color="#542bc8" stop-opacity=".028"/>
      <stop offset=".864" stop-color="#592acb" stop-opacity="0"/>
    </linearGradient>
    <linearGradient id="n" x1="9.6%" y1="41.3%" x2="104.18%" y2="60.86%">
      <stop offset=".001" stop-color="#54ffbd"/>
      <stop offset="1" stop-color="#0df"/>
    </linearGradient>
    <filter id="o" x="-1" y="-1" width="200%" height="200%">
      <feOffset result="offOut" in="SourceGraphic" dx="-2" dy="-2"/>
      <feColorMatrix result="matrixOut" in="offOut" values=".01 0 0 0 0 0 0 0 0 0 0 .2 0 0 0 0 0 0 .1 0"/>
      <feGaussianBlur result="blurOut" in="matrixOut" stdDeviation="4"/>
      <feBlend in="SourceGraphic" in2="blurOut"/>
    </filter>
  </defs>
  <path d="M70.784 48H68.8L54.872 71.282h13.172A11.956 11.956 0 0 0 80 59.326V54.1c0-2.994-2.989-6.1-9.216-6.1z" fill="#008787"/>
  <path d="M70.784 48H68.8L54.872 71.282h13.172A11.956 11.956 0 0 0 80 59.326V54.1c0-2.994-2.989-6.1-9.216-6.1z" opacity=".9" fill="url(#a)"/>
  <path id="shape-base" d="M75.916 26.831c-1.684-4.052-5.1-8.427-7.775-9.81a40.266 40.266 0 0 1 3.925 11.764l0.007 0.065C67.691 17.925 60.26 13.52 54.191 3.928a47.099 47.099 0 0 1-0.913-1.484 12.24 12.24 0 0 1-0.427-0.8 7.053 7.053 0 0 1-0.578-1.535 0.1 0.1 0 0 0-0.088-0.1 0.138 0.138 0 0 0-0.073 0c-0.005 0-0.013 0.009-0.019 0.011s-0.019 0.011-0.028 0.015l0.015-0.026c-9.735 5.7-13.038 16.252-13.342 21.53a19.387 19.387 0 0 0-10.666 4.111 11.587 11.587 0 0 0-1-0.758 17.968 17.968 0 0 1-0.109-9.473 28.705 28.705 0 0 0-9.329 7.21h-0.018c-1.536-1.947-1.428-8.367-1.34-9.708a6.928 6.928 0 0 0-1.294 0.687 28.225 28.225 0 0 0-3.788 3.245A33.845 33.845 0 0 0 7.571 21.2v0.006-0.007a32.733 32.733 0 0 0-5.2 11.743l-0.052 0.256a61.89 61.89 0 0 0-0.381 2.42c0 0.029-0.006 0.056-0.009 0.085A36.937 36.937 0 0 0 1.3 41.046v0.2A38.759 38.759 0 0 0 78.254 47.8c0.065-0.5 0.118-0.995 0.176-1.5a39.857 39.857 0 0 0-2.514-19.469zm-44.67 30.338c0.181 0.087 0.351 0.181 0.537 0.264l0.027 0.017q-0.282-0.135-0.564-0.281zm8.878-23.376zm31.952-4.934v-0.037l0.007 0.041z" fill="url(#b)"/>
  <path id="body-outer-ring" d="M75.916 26.831c-1.684-4.052-5.1-8.427-7.775-9.81a40.266 40.266 0 0 1 3.925 11.764v0.037l0.007 0.041a35.1 35.1 0 0 1-1.206 26.158c-4.442 9.531-15.194 19.3-32.024 18.825-18.185-0.515-34.2-14.009-37.194-31.683-0.545-2.787 0-4.2 0.274-6.465A28.876 28.876 0 0 0 1.3 41.046v0.2A38.759 38.759 0 0 0 78.254 47.8c0.065-0.5 0.118-0.995 0.176-1.5a39.857 39.857 0 0 0-2.514-19.469z" fill="url(#c)"/>
  <path id="body-outer-ring-shadow" d="M75.916 26.831c-1.684-4.052-5.1-8.427-7.775-9.81a40.266 40.266 0 0 1 3.925 11.764v0.037l0.007 0.041a35.1 35.1 0 0 1-1.206 26.158c-4.442 9.531-15.194 19.3-32.024 18.825-18.185-0.515-34.2-14.009-37.194-31.683-0.545-2.787 0-4.2 0.274-6.465A28.876 28.876 0 0 0 1.3 41.046v0.2A38.759 38.759 0 0 0 78.254 47.8c0.065-0.5 0.118-0.995 0.176-1.5a39.857 39.857 0 0 0-2.514-19.469z" fill="url(#d)"/>
  <path id="tail-tip" d="M57.082 31.387c0.084 0.059 0.162 0.118 0.241 0.177a21.1 21.1 0 0 0-3.6-4.695C41.677 14.821 50.566 0.746 52.065 0.031l0.015-0.022c-9.735 5.7-13.038 16.252-13.342 21.53 0.452-0.031 0.9-0.069 1.362-0.069a19.56 19.56 0 0 1 16.982 9.917z" fill="url(#e)"/>
  <path id="globe-base" d="M40.125 33.793c-0.064 0.964-3.47 4.289-4.661 4.289-11.021 0-12.81 6.667-12.81 6.667 0.488 5.614 4.4 10.238 9.129 12.684a13.44 13.44 0 0 0 0.654 0.312q0.569 0.252 1.138 0.466a17.235 17.235 0 0 0 5.043 0.973c19.317 0.906 23.059-23.1 9.119-30.066a13.38 13.38 0 0 1 9.345 2.269A19.56 19.56 0 0 0 40.1 21.47c-0.46 0-0.91 0.038-1.362 0.069a19.387 19.387 0 0 0-10.666 4.111c0.591 0.5 1.258 1.168 2.663 2.553 2.63 2.591 9.375 5.275 9.39 5.59z" fill="url(#f)"/>
  <path id="globe-shadow" d="M40.125 33.793c-0.064 0.964-3.47 4.289-4.661 4.289-11.021 0-12.81 6.667-12.81 6.667 0.488 5.614 4.4 10.238 9.129 12.684a13.44 13.44 0 0 0 0.654 0.312q0.569 0.252 1.138 0.466a17.235 17.235 0 0 0 5.043 0.973c19.317 0.906 23.059-23.1 9.119-30.066a13.38 13.38 0 0 1 9.345 2.269A19.56 19.56 0 0 0 40.1 21.47c-0.46 0-0.91 0.038-1.362 0.069a19.387 19.387 0 0 0-10.666 4.111c0.591 0.5 1.258 1.168 2.663 2.553 2.63 2.591 9.375 5.275 9.39 5.59z" fill="url(#g)"/>
  <path id="ear" d="M26.265 24.361a24.874 24.874 0 0 1 0.8 0.531 17.968 17.968 0 0 1-0.109-9.473 28.705 28.705 0 0 0-9.329 7.21c0.189-0.005 5.811-0.106 8.638 1.732z" fill="url(#h)"/>
  <path id="body" d="M1.654 42.163c2.991 17.674 19.009 31.168 37.194 31.683 16.83 0.476 27.582-9.294 32.024-18.825a35.1 35.1 0 0 0 1.206-26.158v-0.037c0-0.029-0.006-0.046 0-0.037l0.007 0.065c1.375 8.977-3.191 17.674-10.329 23.555l-0.022 0.05c-13.908 11.327-27.218 6.834-29.912 5q-0.282-0.135-0.564-0.281c-8.109-3.876-11.459-11.264-10.741-17.6a9.953 9.953 0 0 1-9.181-5.775 14.618 14.618 0 0 1 14.249-0.572 19.3 19.3 0 0 0 14.552 0.572c-0.015-0.315-6.76-3-9.39-5.59-1.405-1.385-2.072-2.052-2.663-2.553a11.587 11.587 0 0 0-1-0.758 54.245 54.245 0 0 0-0.8-0.531c-2.827-1.838-8.449-1.737-8.635-1.732h-0.018c-1.536-1.947-1.428-8.367-1.34-9.708a6.928 6.928 0 0 0-1.294 0.687 28.225 28.225 0 0 0-3.788 3.245A33.845 33.845 0 0 0 7.571 21.2v0.006-0.007a32.733 32.733 0 0 0-5.2 11.743c-0.019 0.079-1.396 6.099-0.717 9.221z" fill="url(#i)"/>
  <path id="tail-flame" d="M53.725 26.869a21.1 21.1 0 0 1 3.6 4.7 8.083 8.083 0 0 1 0.581 0.476c8.787 8.1 4.183 19.55 3.84 20.365 7.138-5.881 11.7-14.578 10.329-23.555C67.691 17.925 60.26 13.52 54.191 3.928a47.099 47.099 0 0 1-0.913-1.484 12.24 12.24 0 0 1-0.427-0.8 7.053 7.053 0 0 1-0.578-1.535 0.1 0.1 0 0 0-0.088-0.1 0.138 0.138 0 0 0-0.073 0c-0.005 0-0.013 0.009-0.019 0.011s-0.019 0.011-0.028 0.015c-1.499 0.711-10.388 14.786 1.66 26.834z" fill="url(#j)"/>
  <path id="tail-small" d="M57.9 32.04a8.083 8.083 0 0 0-0.581-0.476c-0.079-0.059-0.157-0.118-0.241-0.177a13.38 13.38 0 0 0-9.345-2.269c13.94 6.97 10.2 30.972-9.119 30.066a17.235 17.235 0 0 1-5.043-0.973q-0.569-0.213-1.138-0.466a14.44 14.44 0 0 1-0.654-0.312l0.027 0.017c2.694 1.839 16 6.332 29.912-5l0.022-0.05c0.347-0.81 4.951-12.263-3.84-20.36z" fill="url(#k)"/>
  <path id="cheek-tufts" d="M22.654 44.749s1.789-6.667 12.81-6.667c1.191 0 4.6-3.325 4.661-4.289a19.3 19.3 0 0 1-14.552-0.572 14.618 14.618 0 0 0-14.249 0.572 9.953 9.953 0 0 0 9.181 5.775c-0.718 6.337 2.632 13.725 10.741 17.6 0.181 0.087 0.351 0.181 0.537 0.264-4.733-2.445-8.641-7.069-9.129-12.683z" fill="url(#l)"/>
  <path id="overlay-yellow" d="M75.916 26.831c-1.684-4.052-5.1-8.427-7.775-9.81a40.266 40.266 0 0 1 3.925 11.764l0.007 0.065C67.691 17.925 60.26 13.52 54.191 3.928a47.099 47.099 0 0 1-0.913-1.484 12.24 12.24 0 0 1-0.427-0.8 7.053 7.053 0 0 1-0.578-1.535 0.1 0.1 0 0 0-0.088-0.1 0.138 0.138 0 0 0-0.073 0c-0.005 0-0.013 0.009-0.019 0.011s-0.019 0.011-0.028 0.015l0.015-0.026c-9.735 5.7-13.038 16.252-13.342 21.53 0.452-0.031 0.9-0.069 1.362-0.069a19.56 19.56 0 0 1 16.982 9.917 13.38 13.38 0 0 0-9.345-2.269c13.94 6.97 10.2 30.972-9.119 30.066a17.235 17.235 0 0 1-5.043-0.973q-0.569-0.213-1.138-0.466a14.44 14.44 0 0 1-0.654-0.312l0.027 0.017q-0.282-0.135-0.564-0.281c0.181 0.087 0.351 0.181 0.537 0.264-4.733-2.446-8.641-7.07-9.129-12.684 0 0 1.789-6.667 12.81-6.667 1.191 0 4.6-3.325 4.661-4.289-0.015-0.315-6.76-3-9.39-5.59-1.405-1.385-2.072-2.052-2.663-2.553a11.587 11.587 0 0 0-1-0.758 17.968 17.968 0 0 1-0.109-9.473 28.705 28.705 0 0 0-9.329 7.21h-0.018c-1.536-1.947-1.428-8.367-1.34-9.708a6.928 6.928 0 0 0-1.294 0.687 28.225 28.225 0 0 0-3.788 3.245A33.845 33.845 0 0 0 7.571 21.2v0.006-0.007a32.733 32.733 0 0 0-5.2 11.743l-0.052 0.256c-0.073 0.341-0.4 2.073-0.447 2.445 0 0.028 0-0.029 0 0A45.094 45.094 0 0 0 1.3 41.046v0.2A38.759 38.759 0 0 0 78.254 47.8c0.065-0.5 0.118-0.995 0.176-1.5a39.857 39.857 0 0 0-2.514-19.469zm-3.845 1.991l0.007 0.041z" fill="url(#m)"/>
  <path d="M78.007 56.015h-39.07a12 12 0 0 0-12 12v9.992A1.993 1.993 0 0 0 28.93 80H68a12 12 0 0 0 12-12V54.022a1.993 1.993 0 0 1-1.993 1.993z" fill="url(#n)" filter="url(#o)"/>
  <path d="M41.5 67.786a2.666 2.666 0 0 0 1.338-2.433C42.837 63.2 41.388 62 38.809 62H34v12h4.84c2.579 0 4.171-1.183 4.171-3.551a2.807 2.807 0 0 0-1.511-2.663zm-5.285-3.731h2.643c1.178 0 1.735 0.51 1.735 1.348 0 0.822-0.509 1.43-1.7 1.43h-2.679zm2.659 7.857h-2.66V68.92h2.563c1.417 0 1.958 0.543 1.958 1.48s-0.635 1.512-1.862 1.512zM45.16 74h7.817v-2.203h-5.572v-2.729h5.572v-2.186h-5.572v-2.696h5.572V62H45.16v12zm18.387-12h-8.644v2.137h3.231V74h2.213v-9.863h3.2V62zm6.017 0h-2.213l-4.393 12h2.308l0.764-2.186h4.856L71.65 74h2.308zm-2.785 7.71l1.687-4.767 1.671 4.767zm33.837-43.168h11.474v-4.317h-11.474v-5.9h11.474v-4.35H96v24.056h4.616zm75.172 9.851a9.259 9.259 0 1 0 0-18.517 9.113 9.113 0 0 0-9.3 9.259 8.977 8.977 0 0 0 9.3 9.258zm0-14.3a4.885 4.885 0 0 1 4.88 5.041 4.882 4.882 0 1 1-9.759 0 4.864 4.864 0 0 1 4.879-5.04zm-31.651 14.3a9.354 9.354 0 0 0 8.341-4.217l-3.791-2.276a4.772 4.772 0 0 1-4.418 2.636 4.661 4.661 0 0 1-4.913-3.723H153.2v-1.876a8.759 8.759 0 0 0-9.133-9.061 9.1 9.1 0 0 0-9.166 9.357c0.004 5.305 3.466 9.16 9.236 9.16zm-0.1-14.695a4.486 4.486 0 0 1 4.748 3.526h-9.364a4.573 4.573 0 0 1 4.617-3.524zm13.485 14.333h4.352V22.324h3.758v-4.085h-3.857v-0.89c0-2.208 0.461-2.932 2.572-2.932h1.285V10.5h-1.582c-4.484 0-6.528 2.01-6.528 6.853v0.89h-3.2v4.085h3.2zM117.53 15.7a2.578 2.578 0 0 0 2.7-2.7 2.588 2.588 0 0 0-2.67-2.7 2.669 2.669 0 0 0-2.7 2.768 2.554 2.554 0 0 0 2.67 2.632zm15.5 7.479L135 19a5.4 5.4 0 0 0-3.033-0.922 4.244 4.244 0 0 0-4.254 2.735v-2.57H123.4v17.788h4.517v-9.852c0-2.6 1.055-3.789 2.9-3.789a3.676 3.676 0 0 1 2.209 0.791zm70.358 12.85l-6.861-9.129 6.528-8.665h-5.243l-3.89 5.469-3.792-5.469h-5.341l6.429 8.7-6.824 9.094h5.306l4.121-5.8 4.253 5.8zm-83.55-17.79h-4.55v17.792h4.55zm85.068 31.608a9.2 9.2 0 0 0-9.433 9.34c0 5.214 3.746 9.206 9.533 9.206a9.309 9.309 0 0 0 8.4-4.521l-2.341-1.353a6.995 6.995 0 0 1-12.913-2.375h15.957v-1.222a8.852 8.852 0 0 0-9.203-9.075zm-6.69 7.92a6.685 6.685 0 0 1 6.69-5.511 6.06 6.06 0 0 1 6.39 5.511zm26.965-7.821a5 5 0 0 0-5.152 3.63V50.21h-2.643v17.82h2.71v-9.768c0-3.927 1.739-5.643 4.75-5.643a4.007 4.007 0 0 1 2.208 0.561l1.137-2.573a5.955 5.955 0 0 0-3.01-0.661zm-114.488 5.61a5.553 5.553 0 0 0 3.245-5.214c0-3.893-3.011-6.4-7.56-6.4H95.94V68.03h10.772c4.617 0 7.728-2.573 7.728-6.8a5.786 5.786 0 0 0-3.747-5.674zm-11.977-9.107h7.629c2.976 0 4.816 1.583 4.816 3.893s-1.605 4.026-4.582 4.026h-7.863zm7.963 19.041h-7.963v-8.581h7.829c3.345 0 5.085 1.749 5.085 4.291 0 2.507-1.94 4.29-4.951 4.29zm62.8-1.255l-5.39-14.025h-2.542l-5.52 14.124-4.549-14.124H148.6l5.921 17.82h2.679l5.553-14.124L168.3 68.03h2.476l6.256-17.82h-2.843zM138.06 49.847a9.274 9.274 0 1 0 9.4 9.274 9.212 9.212 0 0 0-9.4-9.274zm0 15.972a6.717 6.717 0 0 1 0-13.431 6.716 6.716 0 0 1 0 13.431zM120.4 53.576V50.21h-2.643v17.82h2.71v-9.768c0-3.927 1.739-5.643 4.75-5.643a4 4 0 0 1 2.208 0.561l1.138-2.573a5.959 5.959 0 0 0-3.011-0.661 5 5 0 0 0-5.152 3.63zm66.31 4.158c-2.81-0.561-4.985-0.924-4.985-2.771 0-1.651 1.137-2.839 3.914-2.839a5.858 5.858 0 0 1 4.952 2.376l2.275-1.518a8.785 8.785 0 0 0-7.227-3.168c-4.282-0.033-6.724 2.409-6.724 5.181 0 3.564 3.312 4.389 6.423 4.983 2.643 0.528 5.118 0.924 5.118 2.9 0 1.782-1.471 3.1-4.282 3.1a6.7 6.7 0 0 1-5.82-2.9l-2.375 1.584c1.605 2.277 4.181 3.729 8.128 3.729 4.718 0.033 7.126-2.739 7.126-5.544-0.004-3.66-3.416-4.519-6.527-5.113z" fill="#20123a"/>
</svg>
