<svg id="Assets" xmlns="http://www.w3.org/2000/svg" xmlns:xlink="http://www.w3.org/1999/xlink" viewBox="0 0 876 448"><defs><style>.cls-1{fill:#fff;}.cls-2{fill:url(#linear-gradient);}.cls-3{fill:url(#linear-gradient-2);}.cls-4{fill:url(#linear-gradient-3);}.cls-5{fill:url(#linear-gradient-4);}.cls-6{opacity:0.9;fill:url(#linear-gradient-5);}</style><linearGradient id="linear-gradient" x1="213.87" y1="104.42" x2="80.88" y2="334.75" gradientTransform="translate(69.36)" gradientUnits="userSpaceOnUse"><stop offset="0" stop-color="#ff980e"/><stop offset="0.21" stop-color="#ff7139"/><stop offset="0.36" stop-color="#ff5854"/><stop offset="0.46" stop-color="#ff4f5e"/><stop offset="0.69" stop-color="#ff3750"/><stop offset="0.86" stop-color="#f92261"/><stop offset="1" stop-color="#f5156c"/></linearGradient><linearGradient id="linear-gradient-2" x1="213.87" y1="104.42" x2="80.88" y2="334.75" gradientTransform="translate(69.36)" gradientUnits="userSpaceOnUse"><stop offset="0" stop-color="#fff44f" stop-opacity="0.8"/><stop offset="0.09" stop-color="#fff44f" stop-opacity="0.7"/><stop offset="0.75" stop-color="#fff44f" stop-opacity="0"/></linearGradient><linearGradient id="linear-gradient-3" x1="187.33" y1="248.94" x2="248.03" y2="143.8" gradientTransform="translate(69.36)" gradientUnits="userSpaceOnUse"><stop offset="0" stop-color="#3a8ee6"/><stop offset="0.24" stop-color="#5c79f0"/><stop offset="0.63" stop-color="#9059ff"/><stop offset="1" stop-color="#c139e6"/></linearGradient><linearGradient id="linear-gradient-4" x1="248.05" y1="143.68" x2="222.58" y2="187.79" gradientTransform="translate(69.36)" gradientUnits="userSpaceOnUse"><stop offset="0" stop-color="#6e008b" stop-opacity="0.5"/><stop offset="0.5" stop-color="#c846cb" stop-opacity="0"/></linearGradient><linearGradient id="linear-gradient-5" x1="259.34" y1="264.32" x2="195.04" y2="200.03" gradientTransform="translate(69.36)" gradientUnits="userSpaceOnUse"><stop offset="0.14" stop-color="#6a2bea" stop-opacity="0"/><stop offset="0.34" stop-color="#642de4" stop-opacity="0.03"/><stop offset="0.55" stop-color="#5131d3" stop-opacity="0.12"/><stop offset="0.76" stop-color="#3139b7" stop-opacity="0.27"/><stop offset="0.98" stop-color="#054490" stop-opacity="0.48"/><stop offset="1" stop-color="#00458b" stop-opacity="0.5"/></linearGradient></defs><title>FF_Send_</title><path class="cls-1" d="M414.82,305.46l8.25-6.53c6.31,10,15.48,15,27.63,15,12.84,0,19.83-6.53,19.83-15.82,0-11.12-11.81-13.18-24.42-15.93-13.07-2.64-26.71-6.08-26.71-22.13,0-12.84,11.24-23.15,28.2-23.15,14.56,0,24.08,5.73,31.41,14.78l-7.79,6.08c-5.16-7.57-12.15-12.27-23.62-12.27-12.72,0-18.45,6-18.45,14.33,0,10.09,9.86,11.7,22,14.33,13.29,2.76,29.11,6.65,29.11,23.85,0,13.18-11.23,24.88-29.34,24.88C434,322.89,422.61,316,414.82,305.46Z"/><path class="cls-1" d="M489.82,291c0-18.23,13.76-32.45,32.33-32.45,18.12,0,31.53,13.19,31.53,31.53v4.24H499c1.38,11.81,10.44,20.18,23.51,20.18,9.85,0,16.5-4.36,20.75-11.93l8,4.7C545,317.15,536,323,522.5,323,502.66,323,489.82,309.13,489.82,291Zm9.4-4.93h44.83c-1.49-11.7-9.86-19.15-21.9-19.15A23,23,0,0,0,499.22,286.09Z"/><path class="cls-1" d="M565.52,259.83h9.17v10.32c4.24-6.88,11.92-11.58,21.55-11.58,16.17,0,26.37,10.55,26.37,27.86v35.31H613.1V286.89c0-12-6.65-19.83-18.69-19.83-11,0-19.49,8.36-19.49,20.29v34.39h-9.4Z"/><path class="cls-1" d="M634.11,290.79c0-18.92,14.22-32.22,31.53-32.22,8.94,0,18.22,4.47,23.15,12V231.29h9.29v90.45h-9.29v-11c-4.93,7.69-14.21,12.27-23.15,12.27C648.1,323,634.11,309.7,634.11,290.79Zm55.37-.12c0-12.84-9.86-23.5-23-23.5-13,0-22.81,10.32-22.81,23.5,0,13.53,9.85,23.5,22.81,23.5C679.62,314.17,689.48,303.74,689.48,290.67Z"/><path class="cls-1" d="M419.77,126.31h55.74v15.08H435.76v20.45h39.75v15H435.76v32.9h-16Zm74.71-5.82a9.37,9.37,0,0,1-.12,18.73,8.85,8.85,0,0,1-9.25-9.14A9.25,9.25,0,0,1,494.48,120.49ZM486.59,148h15.77V209.7H486.59Zm61.46,17.13a12.72,12.72,0,0,0-7.65-2.74c-6.4,0-10.06,4.11-10.06,13.14V209.7H514.69V148h15v8.91c3.2-7,8.11-9.48,14.73-9.48a18.71,18.71,0,0,1,10.51,3.19Zm6.51,14c0-17.7,13.14-32.44,31.76-32.44S618,159.9,618,178.17v6.51H570c1.71,7.77,7.77,12.91,17,12.91,7.2,0,12.11-3.42,15.31-9.14l13.13,7.89c-6.51,9.59-15.76,14.62-28.9,14.62C566.55,211,554.56,197.59,554.56,179.2Zm15.65-7h32.44c-1.71-7.88-8.11-12.22-16.45-12.22C578.66,160,572.38,164.24,570.21,172.23ZM621.84,148h11.08v-3.09c0-16.79,7.08-23.76,22.62-23.76H661v13.6h-4.45c-7.31,0-8.91,2.51-8.91,10.16V148H661v14.16H648V209.7H632.92V162.18H621.84ZM664,178.86c0-17.71,13.48-32.1,32.21-32.1a32.1,32.1,0,1,1,0,64.2C677,211,664,196.91,664,178.86Zm49.12,0c0-9.82-7.31-17.48-16.91-17.48s-16.9,7.66-16.9,17.48,7.19,17.48,16.9,17.48S713.11,188.68,713.11,178.86Zm36.55-.69L727.39,148h18.5L759,167l13.48-19h18.16l-22.62,30,23.76,31.64H773.42l-14.73-20.1-14.28,20.1H726Z"/><g id="Icon"><path class="cls-2" d="M223.91,86C146.76,86,84,147.57,84,223.24A14.72,14.72,0,0,0,98.72,238H209.19v40h0v32.8L175,276.52a14.72,14.72,0,1,0-20.81,20.82l59.34,59.34c.35.34.71.67,1.08,1l.19.14c.31.25.64.49,1,.72l.21.12c.34.22.68.43,1,.62l.16.08c.38.19.75.37,1.14.54l.12,0c.4.16.81.31,1.23.44l.14,0c.41.12.83.23,1.25.31l.36.06c.36.06.71.12,1.07.15a13.55,13.55,0,0,0,2.94,0c.36,0,.72-.09,1.07-.15l.36-.06c.42-.08.83-.19,1.24-.31l.15,0a13.26,13.26,0,0,0,1.25-.45l.1,0c.4-.17.78-.35,1.15-.55l.15-.07c.36-.19.71-.41,1.05-.63l.19-.11c.34-.23.67-.48,1-.74l.15-.12a12.8,12.8,0,0,0,1.09-1l59.34-59.33a14.72,14.72,0,0,0-20.82-20.82l-34.22,34.23V238H349.1a14.72,14.72,0,0,0,14.72-14.72C363.82,147.57,301.05,86,223.91,86ZM114.46,208.52c7.38-52.5,53.65-93.08,109.45-93.08S326,156,333.35,208.52Z"/><path class="cls-3" d="M223.91,86C146.76,86,84,147.57,84,223.24A14.72,14.72,0,0,0,98.72,238H209.19v40h0v32.8L175,276.52a14.72,14.72,0,1,0-20.81,20.82l59.34,59.34c.35.34.71.67,1.08,1l.19.14c.31.25.64.49,1,.72l.21.12c.34.22.68.43,1,.62l.16.08c.38.19.75.37,1.14.54l.12,0c.4.16.81.31,1.23.44l.14,0c.41.12.83.23,1.25.31l.36.06c.36.06.71.12,1.07.15a13.55,13.55,0,0,0,2.94,0c.36,0,.72-.09,1.07-.15l.36-.06c.42-.08.83-.19,1.24-.31l.15,0a13.26,13.26,0,0,0,1.25-.45l.1,0c.4-.17.78-.35,1.15-.55l.15-.07c.36-.19.71-.41,1.05-.63l.19-.11c.34-.23.67-.48,1-.74l.15-.12a12.8,12.8,0,0,0,1.09-1l59.34-59.33a14.72,14.72,0,0,0-20.82-20.82l-34.22,34.23V238H349.1a14.72,14.72,0,0,0,14.72-14.72C363.82,147.57,301.05,86,223.91,86ZM114.46,208.52c7.38-52.5,53.65-93.08,109.45-93.08S326,156,333.35,208.52Z"/><path class="cls-4" d="M238.67,116.41c49,6.42,88,44.32,94.68,92.11H268.11A29.44,29.44,0,0,0,238.67,238H349.1a14.78,14.78,0,0,0,14.72-14.78c0-52.4-37.1-77.89-68.6-92.75A153.32,153.32,0,0,0,238.67,116.41Z"/><path class="cls-5" d="M332.75,205.28c9.91,8,19.88,15.93,29.66,24.09a14.6,14.6,0,0,0,1.41-6.19c0-52.4-37.1-77.89-68.6-92.75a153.32,153.32,0,0,0-56.55-14C286.57,122.68,324.76,159,332.75,205.28Z"/><path class="cls-6" d="M331.07,208.52h-63A29.44,29.44,0,0,0,238.67,238H349.1a14.61,14.61,0,0,0,11.37-5.53C350.78,224.33,340.89,216.46,331.07,208.52Z"/></g></svg>