<svg id="Assets" xmlns="http://www.w3.org/2000/svg" xmlns:xlink="http://www.w3.org/1999/xlink" viewBox="0 0 308 309"><defs><style>.cls-1{fill:url(#linear-gradient);}.cls-2{fill:url(#linear-gradient-2);}.cls-3{fill:url(#linear-gradient-3);}.cls-4{fill:url(#linear-gradient-4);}.cls-5{opacity:0.9;fill:url(#linear-gradient-5);}</style><linearGradient id="linear-gradient" x1="144.05" y1="35.92" x2="11.06" y2="266.25" gradientTransform="translate(69.36)" gradientUnits="userSpaceOnUse"><stop offset="0" stop-color="#ff980e"/><stop offset="0.21" stop-color="#ff7139"/><stop offset="0.36" stop-color="#ff5854"/><stop offset="0.46" stop-color="#ff4f5e"/><stop offset="0.69" stop-color="#ff3750"/><stop offset="0.86" stop-color="#f92261"/><stop offset="1" stop-color="#f5156c"/></linearGradient><linearGradient id="linear-gradient-2" x1="144.05" y1="35.92" x2="11.06" y2="266.25" gradientTransform="translate(69.36)" gradientUnits="userSpaceOnUse"><stop offset="0" stop-color="#fff44f" stop-opacity="0.8"/><stop offset="0.09" stop-color="#fff44f" stop-opacity="0.7"/><stop offset="0.75" stop-color="#fff44f" stop-opacity="0"/></linearGradient><linearGradient id="linear-gradient-3" x1="117.52" y1="180.44" x2="178.22" y2="75.3" gradientTransform="translate(69.36)" gradientUnits="userSpaceOnUse"><stop offset="0" stop-color="#3a8ee6"/><stop offset="0.24" stop-color="#5c79f0"/><stop offset="0.63" stop-color="#9059ff"/><stop offset="1" stop-color="#c139e6"/></linearGradient><linearGradient id="linear-gradient-4" x1="178.23" y1="75.18" x2="152.76" y2="119.29" gradientTransform="translate(69.36)" gradientUnits="userSpaceOnUse"><stop offset="0" stop-color="#6e008b" stop-opacity="0.5"/><stop offset="0.5" stop-color="#c846cb" stop-opacity="0"/></linearGradient><linearGradient id="linear-gradient-5" x1="189.52" y1="195.82" x2="125.23" y2="131.53" gradientTransform="translate(69.36)" gradientUnits="userSpaceOnUse"><stop offset="0.14" stop-color="#6a2bea" stop-opacity="0"/><stop offset="0.34" stop-color="#642de4" stop-opacity="0.03"/><stop offset="0.55" stop-color="#5131d3" stop-opacity="0.12"/><stop offset="0.76" stop-color="#3139b7" stop-opacity="0.27"/><stop offset="0.98" stop-color="#054490" stop-opacity="0.48"/><stop offset="1" stop-color="#00458b" stop-opacity="0.5"/></linearGradient></defs><title>FF_Send_</title><g id="Icon"><path class="cls-1" d="M154.09,17.5C77,17.5,14.18,79.07,14.18,154.74A14.72,14.72,0,0,0,28.9,169.46H139.37v40h0v32.8L105.15,208a14.72,14.72,0,0,0-20.82,20.82l59.35,59.34a14.45,14.45,0,0,0,1.08,1l.18.14c.32.25.64.49,1,.72l.21.12c.33.22.67.43,1,.62l.17.08c.37.19.75.37,1.13.54l.12,0c.4.16.82.31,1.24.44l.14,0a12.68,12.68,0,0,0,1.25.31l.36.06c.35.06.7.12,1.07.15a13.45,13.45,0,0,0,2.93,0c.37,0,.72-.09,1.07-.15l.36-.06a12.68,12.68,0,0,0,1.25-.31l.14,0q.65-.19,1.26-.45l.09,0c.4-.17.78-.35,1.16-.55l.15-.07c.36-.19.7-.41,1-.63l.19-.11a12.3,12.3,0,0,0,1-.74l.16-.12a14.53,14.53,0,0,0,1.09-1l59.33-59.33A14.72,14.72,0,0,0,203,208l-34.23,34.23V169.46H279.28A14.72,14.72,0,0,0,294,154.74C294,79.07,231.24,17.5,154.09,17.5ZM44.65,140C52,87.52,98.3,46.94,154.09,46.94S256.16,87.52,263.54,140Z"/><path class="cls-2" d="M154.09,17.5C77,17.5,14.18,79.07,14.18,154.74A14.72,14.72,0,0,0,28.9,169.46H139.37v40h0v32.8L105.15,208a14.72,14.72,0,0,0-20.82,20.82l59.35,59.34a14.45,14.45,0,0,0,1.08,1l.18.14c.32.25.64.49,1,.72l.21.12c.33.22.67.43,1,.62l.17.08c.37.19.75.37,1.13.54l.12,0c.4.16.82.31,1.24.44l.14,0a12.68,12.68,0,0,0,1.25.31l.36.06c.35.06.7.12,1.07.15a13.45,13.45,0,0,0,2.93,0c.37,0,.72-.09,1.07-.15l.36-.06a12.68,12.68,0,0,0,1.25-.31l.14,0q.65-.19,1.26-.45l.09,0c.4-.17.78-.35,1.16-.55l.15-.07c.36-.19.7-.41,1-.63l.19-.11a12.3,12.3,0,0,0,1-.74l.16-.12a14.53,14.53,0,0,0,1.09-1l59.33-59.33A14.72,14.72,0,0,0,203,208l-34.23,34.23V169.46H279.28A14.72,14.72,0,0,0,294,154.74C294,79.07,231.24,17.5,154.09,17.5ZM44.65,140C52,87.52,98.3,46.94,154.09,46.94S256.16,87.52,263.54,140Z"/><path class="cls-3" d="M168.85,47.91c49,6.42,88,44.32,94.69,92.11H198.29a29.44,29.44,0,0,0-29.44,29.44H279.28A14.78,14.78,0,0,0,294,154.68c0-52.4-37.1-77.89-68.6-92.75A153.32,153.32,0,0,0,168.85,47.91Z"/><path class="cls-4" d="M262.94,136.78c9.9,8,19.88,15.93,29.65,24.09a14.6,14.6,0,0,0,1.41-6.19c0-52.4-37.1-77.89-68.6-92.75a153.32,153.32,0,0,0-56.55-14C216.75,54.18,254.94,90.53,262.94,136.78Z"/><path class="cls-5" d="M261.25,140h-63a29.44,29.44,0,0,0-29.44,29.44H279.28a14.6,14.6,0,0,0,11.37-5.53C281,155.83,271.08,148,261.25,140Z"/></g></svg>