<svg id="Assets" xmlns="http://www.w3.org/2000/svg" xmlns:xlink="http://www.w3.org/1999/xlink" viewBox="0 0 392 588"><defs><style>.cls-1{fill:#fff;}.cls-2{fill:url(#linear-gradient);}.cls-3{fill:url(#linear-gradient-2);}.cls-4{fill:url(#linear-gradient-3);}.cls-5{fill:url(#linear-gradient-4);}.cls-6{opacity:0.9;fill:url(#linear-gradient-5);}</style><linearGradient id="linear-gradient" x1="186.05" y1="79.42" x2="53.06" y2="309.75" gradientTransform="translate(69.36)" gradientUnits="userSpaceOnUse"><stop offset="0" stop-color="#ff980e"/><stop offset="0.21" stop-color="#ff7139"/><stop offset="0.36" stop-color="#ff5854"/><stop offset="0.46" stop-color="#ff4f5e"/><stop offset="0.69" stop-color="#ff3750"/><stop offset="0.86" stop-color="#f92261"/><stop offset="1" stop-color="#f5156c"/></linearGradient><linearGradient id="linear-gradient-2" x1="186.05" y1="79.42" x2="53.06" y2="309.75" gradientTransform="translate(69.36)" gradientUnits="userSpaceOnUse"><stop offset="0" stop-color="#fff44f" stop-opacity="0.8"/><stop offset="0.09" stop-color="#fff44f" stop-opacity="0.7"/><stop offset="0.75" stop-color="#fff44f" stop-opacity="0"/></linearGradient><linearGradient id="linear-gradient-3" x1="159.52" y1="223.94" x2="220.22" y2="118.8" gradientTransform="translate(69.36)" gradientUnits="userSpaceOnUse"><stop offset="0" stop-color="#3a8ee6"/><stop offset="0.24" stop-color="#5c79f0"/><stop offset="0.63" stop-color="#9059ff"/><stop offset="1" stop-color="#c139e6"/></linearGradient><linearGradient id="linear-gradient-4" x1="220.23" y1="118.68" x2="194.76" y2="162.79" gradientTransform="translate(69.36)" gradientUnits="userSpaceOnUse"><stop offset="0" stop-color="#6e008b" stop-opacity="0.5"/><stop offset="0.5" stop-color="#c846cb" stop-opacity="0"/></linearGradient><linearGradient id="linear-gradient-5" x1="231.52" y1="239.32" x2="167.23" y2="175.03" gradientTransform="translate(69.36)" gradientUnits="userSpaceOnUse"><stop offset="0.14" stop-color="#6a2bea" stop-opacity="0"/><stop offset="0.34" stop-color="#642de4" stop-opacity="0.03"/><stop offset="0.55" stop-color="#5131d3" stop-opacity="0.12"/><stop offset="0.76" stop-color="#3139b7" stop-opacity="0.27"/><stop offset="0.98" stop-color="#054490" stop-opacity="0.48"/><stop offset="1" stop-color="#00458b" stop-opacity="0.5"/></linearGradient></defs><title>FF_Send_</title><path class="cls-1" d="M101.17,521.25l5.53-4.38c4.23,6.68,10.38,10.06,18.52,10.06,8.6,0,13.29-4.38,13.29-10.6,0-7.45-7.91-8.84-16.36-10.68-8.76-1.77-17.9-4.07-17.9-14.83,0-8.6,7.52-15.52,18.9-15.52,9.75,0,16.13,3.84,21,9.91L139,489.28c-3.46-5.07-8.14-8.22-15.82-8.22-8.53,0-12.37,4-12.37,9.61,0,6.76,6.6,7.83,14.75,9.6,8.91,1.85,19.51,4.46,19.51,16,0,8.84-7.53,16.67-19.67,16.67C114,532.92,106.4,528.31,101.17,521.25Z"/><path class="cls-1" d="M151.44,511.56a21.28,21.28,0,0,1,21.66-21.74c12.14,0,21.13,8.84,21.13,21.13v2.84H157.58c.93,7.92,7,13.52,15.75,13.52,6.61,0,11.07-2.91,13.91-8l5.38,3.15C188.39,529.08,182.4,533,173.33,533,160,533,151.44,523.7,151.44,511.56Zm6.3-3.3h30c-1-7.84-6.61-12.83-14.68-12.83A15.41,15.41,0,0,0,157.74,508.26Z"/><path class="cls-1" d="M202.17,490.67h6.14v6.91a16.58,16.58,0,0,1,14.45-7.76c10.83,0,17.67,7.07,17.67,18.67v23.66h-6.38V508.8c0-8.07-4.46-13.29-12.52-13.29-7.38,0-13.06,5.61-13.06,13.6v23h-6.3Z"/><path class="cls-1" d="M248.13,511.41c0-12.68,9.53-21.59,21.13-21.59a18.86,18.86,0,0,1,15.52,8.07V471.54H291v60.61h-6.22v-7.37A18.8,18.8,0,0,1,269.26,533C257.5,533,248.13,524.09,248.13,511.41Zm37.11-.08a15.47,15.47,0,0,0-15.44-15.75c-8.69,0-15.29,6.92-15.29,15.75,0,9.07,6.6,15.75,15.29,15.75A15.37,15.37,0,0,0,285.24,511.33Z"/><path class="cls-1" d="M71.73,392h37.34v10.1H82.45v13.7h26.62v10H82.45v22H71.73Zm50.05-3.9a6.28,6.28,0,0,1-.08,12.55,5.93,5.93,0,0,1-6.2-6.12A6.2,6.2,0,0,1,121.78,388.11Zm-5.28,18.44h10.56v41.32H116.5ZM157.66,418a8.54,8.54,0,0,0-5.12-1.84c-4.29,0-6.74,2.76-6.74,8.8v22.88H135.32V406.55h10v6c2.15-4.67,5.44-6.35,9.87-6.35a12.57,12.57,0,0,1,7,2.14Zm4.36,9.41c0-11.86,8.8-21.73,21.28-21.73s21.19,8.8,21.19,21v4.36H172.35c1.15,5.21,5.21,8.65,11.4,8.65A11.07,11.07,0,0,0,194,433.64l8.8,5.28c-4.36,6.43-10.56,9.79-19.36,9.79C170.06,448.71,162,439.76,162,427.44Zm10.49-4.67h21.73c-1.15-5.28-5.44-8.18-11-8.18A10.61,10.61,0,0,0,172.51,422.77Zm34.58-16.22h7.42v-2.06c0-11.25,4.75-15.92,15.15-15.92h3.68v9.11h-3c-4.89,0-6,1.68-6,6.81v2.06h9V416h-8.73v31.83h-10.1V416h-7.42Zm28.24,20.66a21.15,21.15,0,0,1,21.57-21.5,21.5,21.5,0,1,1,0,43C244.05,448.71,235.33,439.3,235.33,427.21Zm32.9,0a11.34,11.34,0,0,0-11.33-11.7c-6.5,0-11.32,5.12-11.32,11.7s4.82,11.71,11.32,11.71A11.35,11.35,0,0,0,268.23,427.21Zm24.48-.46-14.92-20.2h12.4l8.8,12.7,9-12.7h12.16L305,426.68,321,447.87H308.63l-9.87-13.47-9.57,13.47H276.88Z"/><g id="Icon"><path class="cls-2" d="M196.09,61C119,61,56.18,122.57,56.18,198.24A14.72,14.72,0,0,0,70.9,213H181.37v40h0v32.8l-34.23-34.23a14.72,14.72,0,0,0-20.82,20.82l59.35,59.34a14.45,14.45,0,0,0,1.08,1l.18.14c.32.25.64.49,1,.72l.21.12c.33.22.67.43,1,.62l.17.08c.37.19.75.37,1.13.54l.12,0c.4.16.82.31,1.24.44l.14,0a12.68,12.68,0,0,0,1.25.31l.36.06c.35.06.7.12,1.07.15a13.45,13.45,0,0,0,2.93,0c.37,0,.72-.09,1.07-.15l.36-.06a12.68,12.68,0,0,0,1.25-.31l.14,0q.65-.19,1.26-.45l.09,0c.4-.17.78-.35,1.16-.55l.15-.07c.36-.19.7-.41,1-.63l.19-.11a12.3,12.3,0,0,0,1-.74l.16-.12a14.53,14.53,0,0,0,1.09-1l59.33-59.33A14.72,14.72,0,0,0,245,251.52l-34.23,34.23V213H321.28A14.72,14.72,0,0,0,336,198.24C336,122.57,273.24,61,196.09,61ZM86.65,183.52C94,131,140.3,90.44,196.09,90.44S298.16,131,305.54,183.52Z"/><path class="cls-3" d="M196.09,61C119,61,56.18,122.57,56.18,198.24A14.72,14.72,0,0,0,70.9,213H181.37v40h0v32.8l-34.23-34.23a14.72,14.72,0,0,0-20.82,20.82l59.35,59.34a14.45,14.45,0,0,0,1.08,1l.18.14c.32.25.64.49,1,.72l.21.12c.33.22.67.43,1,.62l.17.08c.37.19.75.37,1.13.54l.12,0c.4.16.82.31,1.24.44l.14,0a12.68,12.68,0,0,0,1.25.31l.36.06c.35.06.7.12,1.07.15a13.45,13.45,0,0,0,2.93,0c.37,0,.72-.09,1.07-.15l.36-.06a12.68,12.68,0,0,0,1.25-.31l.14,0q.65-.19,1.26-.45l.09,0c.4-.17.78-.35,1.16-.55l.15-.07c.36-.19.7-.41,1-.63l.19-.11a12.3,12.3,0,0,0,1-.74l.16-.12a14.53,14.53,0,0,0,1.09-1l59.33-59.33A14.72,14.72,0,0,0,245,251.52l-34.23,34.23V213H321.28A14.72,14.72,0,0,0,336,198.24C336,122.57,273.24,61,196.09,61ZM86.65,183.52C94,131,140.3,90.44,196.09,90.44S298.16,131,305.54,183.52Z"/><path class="cls-4" d="M210.85,91.41c49,6.42,88,44.32,94.69,92.11H240.29A29.44,29.44,0,0,0,210.85,213H321.28A14.78,14.78,0,0,0,336,198.18c0-52.4-37.1-77.89-68.6-92.75A153.32,153.32,0,0,0,210.85,91.41Z"/><path class="cls-5" d="M304.94,180.28c9.9,8,19.88,15.93,29.65,24.09a14.6,14.6,0,0,0,1.41-6.19c0-52.4-37.1-77.89-68.6-92.75a153.32,153.32,0,0,0-56.55-14C258.75,97.68,296.94,134,304.94,180.28Z"/><path class="cls-6" d="M303.25,183.52h-63A29.44,29.44,0,0,0,210.85,213H321.28a14.6,14.6,0,0,0,11.37-5.53C323,199.33,313.08,191.46,303.25,183.52Z"/></g></svg>