<svg id="Assets" xmlns="http://www.w3.org/2000/svg" xmlns:xlink="http://www.w3.org/1999/xlink" viewBox="0 0 875.04 448"><defs><style>.cls-1{fill:#20133a;}.cls-2{fill:url(#linear-gradient);}.cls-3{fill:url(#linear-gradient-2);}.cls-4{fill:url(#linear-gradient-3);}.cls-5{fill:url(#linear-gradient-4);}.cls-6{opacity:0.9;fill:url(#linear-gradient-5);}</style><linearGradient id="linear-gradient" x1="214.09" y1="104.42" x2="81.11" y2="334.75" gradientTransform="translate(69.36)" gradientUnits="userSpaceOnUse"><stop offset="0" stop-color="#ff980e"/><stop offset="0.21" stop-color="#ff7139"/><stop offset="0.36" stop-color="#ff5854"/><stop offset="0.46" stop-color="#ff4f5e"/><stop offset="0.69" stop-color="#ff3750"/><stop offset="0.86" stop-color="#f92261"/><stop offset="1" stop-color="#f5156c"/></linearGradient><linearGradient id="linear-gradient-2" x1="214.09" y1="104.42" x2="81.11" y2="334.75" gradientTransform="translate(69.36)" gradientUnits="userSpaceOnUse"><stop offset="0" stop-color="#fff44f" stop-opacity="0.8"/><stop offset="0.09" stop-color="#fff44f" stop-opacity="0.7"/><stop offset="0.75" stop-color="#fff44f" stop-opacity="0"/></linearGradient><linearGradient id="linear-gradient-3" x1="187.56" y1="248.94" x2="248.26" y2="143.8" gradientTransform="translate(69.36)" gradientUnits="userSpaceOnUse"><stop offset="0" stop-color="#3a8ee6"/><stop offset="0.24" stop-color="#5c79f0"/><stop offset="0.63" stop-color="#9059ff"/><stop offset="1" stop-color="#c139e6"/></linearGradient><linearGradient id="linear-gradient-4" x1="248.27" y1="143.68" x2="222.81" y2="187.79" gradientTransform="translate(69.36)" gradientUnits="userSpaceOnUse"><stop offset="0" stop-color="#6e008b" stop-opacity="0.5"/><stop offset="0.5" stop-color="#c846cb" stop-opacity="0"/></linearGradient><linearGradient id="linear-gradient-5" x1="259.57" y1="264.32" x2="195.27" y2="200.03" gradientTransform="translate(69.36)" gradientUnits="userSpaceOnUse"><stop offset="0.14" stop-color="#6a2bea" stop-opacity="0"/><stop offset="0.34" stop-color="#642de4" stop-opacity="0.03"/><stop offset="0.55" stop-color="#5131d3" stop-opacity="0.12"/><stop offset="0.76" stop-color="#3139b7" stop-opacity="0.27"/><stop offset="0.98" stop-color="#054490" stop-opacity="0.48"/><stop offset="1" stop-color="#00458b" stop-opacity="0.5"/></linearGradient></defs><title>FF_Send_</title><path class="cls-1" d="M415,305.46l8.26-6.53c6.3,10,15.48,15,27.63,15,12.84,0,19.83-6.53,19.83-15.82,0-11.12-11.81-13.18-24.42-15.93-13.07-2.64-26.71-6.08-26.71-22.13,0-12.84,11.23-23.15,28.2-23.15,14.56,0,24.08,5.73,31.41,14.78l-7.79,6.08c-5.16-7.57-12.15-12.27-23.62-12.27-12.72,0-18.46,6-18.46,14.33,0,10.09,9.86,11.7,22,14.33,13.29,2.76,29.11,6.65,29.11,23.85,0,13.18-11.23,24.88-29.34,24.88C434.19,322.89,422.84,316,415,305.46Z"/><path class="cls-1" d="M490.05,291c0-18.23,13.76-32.45,32.33-32.45,18.11,0,31.53,13.19,31.53,31.53v4.24H499.22c1.38,11.81,10.44,20.18,23.5,20.18,9.86,0,16.51-4.36,20.75-11.93l8,4.7c-6.31,9.86-15.25,15.71-28.78,15.71C502.89,323,490.05,309.13,490.05,291Zm9.4-4.93h44.83c-1.49-11.7-9.86-19.15-21.9-19.15A23,23,0,0,0,499.45,286.09Z"/><path class="cls-1" d="M565.75,259.83h9.17v10.32c4.24-6.88,11.92-11.58,21.55-11.58,16.17,0,26.37,10.55,26.37,27.86v35.31h-9.52V286.89c0-12-6.64-19.83-18.68-19.83-11,0-19.49,8.36-19.49,20.29v34.39h-9.4Z"/><path class="cls-1" d="M634.34,290.79c0-18.92,14.21-32.22,31.52-32.22,8.95,0,18.23,4.47,23.16,12V231.29h9.29v90.45H689v-11c-4.93,7.69-14.21,12.27-23.16,12.27C648.33,323,634.34,309.7,634.34,290.79Zm55.37-.12c0-12.84-9.86-23.5-23-23.5-13,0-22.82,10.32-22.82,23.5,0,13.53,9.86,23.5,22.82,23.5C679.85,314.17,689.71,303.74,689.71,290.67Z"/><path class="cls-1" d="M420,126.31h55.74v15.08H436v20.45h39.75v15H436v32.9H420Zm74.71-5.82a9.37,9.37,0,0,1-.12,18.73,8.85,8.85,0,0,1-9.25-9.14A9.24,9.24,0,0,1,494.71,120.49ZM486.82,148h15.77V209.7H486.82Zm61.46,17.13a12.73,12.73,0,0,0-7.66-2.74c-6.39,0-10,4.11-10,13.14V209.7H514.92V148h15v8.91c3.2-7,8.11-9.48,14.73-9.48a18.71,18.71,0,0,1,10.51,3.19Zm6.51,14c0-17.7,13.14-32.44,31.75-32.44s31.65,13.14,31.65,31.41v6.51h-48c1.71,7.77,7.77,12.91,17,12.91,7.2,0,12.11-3.42,15.31-9.14l13.13,7.89c-6.51,9.59-15.76,14.62-28.9,14.62C566.78,211,554.79,197.59,554.79,179.2Zm15.65-7h32.44c-1.71-7.88-8.11-12.22-16.45-12.22C578.89,160,572.61,164.24,570.44,172.23ZM622.07,148h11.08v-3.09c0-16.79,7.08-23.76,22.62-23.76h5.48v13.6h-4.46c-7.31,0-8.91,2.51-8.91,10.16V148h13.37v14.16h-13V209.7H633.15V162.18H622.07Zm42.15,30.84c0-17.71,13.48-32.1,32.21-32.1a32.1,32.1,0,1,1,0,64.2C677.24,211,664.22,196.91,664.22,178.86Zm49.12,0c0-9.82-7.31-17.48-16.91-17.48s-16.9,7.66-16.9,17.48,7.19,17.48,16.9,17.48S713.34,188.68,713.34,178.86Zm36.55-.69L727.62,148h18.5l13.14,19,13.48-19H790.9l-22.62,30L792,209.7H773.65l-14.74-20.1-14.27,20.1H726.25Z"/><g id="Icon"><path class="cls-2" d="M224.14,86C147,86,84.23,147.57,84.23,223.24A14.72,14.72,0,0,0,99,238H209.42v40h0v32.8l-34.23-34.23a14.72,14.72,0,1,0-20.81,20.82l59.34,59.34c.35.34.71.67,1.08,1l.19.14c.31.25.63.49,1,.72l.21.12a11.71,11.71,0,0,0,1,.62l.16.08q.55.29,1.14.54l.12,0c.4.16.81.31,1.23.44l.14,0c.41.12.83.23,1.25.31l.36.06c.35.06.71.12,1.07.15a13.55,13.55,0,0,0,2.94,0c.36,0,.72-.09,1.07-.15l.36-.06c.42-.08.83-.19,1.24-.31l.15,0a13.26,13.26,0,0,0,1.25-.45l.1,0c.39-.17.78-.35,1.15-.55l.15-.07c.36-.19.7-.41,1-.63l.2-.11c.34-.23.67-.48,1-.74l.15-.12a12.8,12.8,0,0,0,1.09-1l59.34-59.33a14.72,14.72,0,1,0-20.82-20.82l-34.22,34.23V238H349.33A14.72,14.72,0,0,0,364,223.24C364,147.57,301.28,86,224.14,86ZM114.69,208.52c7.38-52.5,53.65-93.08,109.45-93.08S326.2,156,333.58,208.52Z"/><path class="cls-3" d="M224.14,86C147,86,84.23,147.57,84.23,223.24A14.72,14.72,0,0,0,99,238H209.42v40h0v32.8l-34.23-34.23a14.72,14.72,0,1,0-20.81,20.82l59.34,59.34c.35.34.71.67,1.08,1l.19.14c.31.25.63.49,1,.72l.21.12a11.71,11.71,0,0,0,1,.62l.16.08q.55.29,1.14.54l.12,0c.4.16.81.31,1.23.44l.14,0c.41.12.83.23,1.25.31l.36.06c.35.06.71.12,1.07.15a13.55,13.55,0,0,0,2.94,0c.36,0,.72-.09,1.07-.15l.36-.06c.42-.08.83-.19,1.24-.31l.15,0a13.26,13.26,0,0,0,1.25-.45l.1,0c.39-.17.78-.35,1.15-.55l.15-.07c.36-.19.7-.41,1-.63l.2-.11c.34-.23.67-.48,1-.74l.15-.12a12.8,12.8,0,0,0,1.09-1l59.34-59.33a14.72,14.72,0,1,0-20.82-20.82l-34.22,34.23V238H349.33A14.72,14.72,0,0,0,364,223.24C364,147.57,301.28,86,224.14,86ZM114.69,208.52c7.38-52.5,53.65-93.08,109.45-93.08S326.2,156,333.58,208.52Z"/><path class="cls-4" d="M238.9,116.41c49,6.42,88,44.32,94.68,92.11H268.34A29.44,29.44,0,0,0,238.9,238H349.33A14.78,14.78,0,0,0,364,223.18c0-52.4-37.1-77.89-68.6-92.75A153.25,153.25,0,0,0,238.9,116.41Z"/><path class="cls-5" d="M333,205.28c9.91,8,19.88,15.93,29.66,24.09a14.59,14.59,0,0,0,1.4-6.19c0-52.4-37.1-77.89-68.6-92.75a153.25,153.25,0,0,0-56.54-14C286.8,122.68,325,159,333,205.28Z"/><path class="cls-6" d="M331.29,208.52h-63A29.44,29.44,0,0,0,238.9,238H349.33a14.61,14.61,0,0,0,11.37-5.53C351,224.33,341.12,216.46,331.29,208.52Z"/></g></svg>