<svg id="Assets" xmlns="http://www.w3.org/2000/svg" xmlns:xlink="http://www.w3.org/1999/xlink" viewBox="0 0 1479 504"><defs><style>.cls-1{font-size:153.3px;font-family:FirefoxSharpSans-Medium, Firefox Sharp Sans;letter-spacing:-0.02em;}.cls-1,.cls-5{fill:#20133a;}.cls-2{letter-spacing:-0.02em;}.cls-3{letter-spacing:-0.02em;}.cls-4{letter-spacing:-0.01em;}.cls-6{fill:url(#linear-gradient);}.cls-7{fill:url(#linear-gradient-2);}.cls-8{fill:url(#linear-gradient-3);}.cls-9{fill:url(#linear-gradient-4);}.cls-10{opacity:0.9;fill:url(#linear-gradient-5);}</style><linearGradient id="linear-gradient" x1="242.05" y1="132.92" x2="109.06" y2="363.25" gradientTransform="translate(69.36)" gradientUnits="userSpaceOnUse"><stop offset="0" stop-color="#ff980e"/><stop offset="0.21" stop-color="#ff7139"/><stop offset="0.36" stop-color="#ff5854"/><stop offset="0.46" stop-color="#ff4f5e"/><stop offset="0.69" stop-color="#ff3750"/><stop offset="0.86" stop-color="#f92261"/><stop offset="1" stop-color="#f5156c"/></linearGradient><linearGradient id="linear-gradient-2" x1="242.05" y1="132.92" x2="109.06" y2="363.25" gradientTransform="translate(69.36)" gradientUnits="userSpaceOnUse"><stop offset="0" stop-color="#fff44f" stop-opacity="0.8"/><stop offset="0.09" stop-color="#fff44f" stop-opacity="0.7"/><stop offset="0.75" stop-color="#fff44f" stop-opacity="0"/></linearGradient><linearGradient id="linear-gradient-3" x1="215.52" y1="277.44" x2="276.22" y2="172.3" gradientTransform="translate(69.36)" gradientUnits="userSpaceOnUse"><stop offset="0" stop-color="#3a8ee6"/><stop offset="0.24" stop-color="#5c79f0"/><stop offset="0.63" stop-color="#9059ff"/><stop offset="1" stop-color="#c139e6"/></linearGradient><linearGradient id="linear-gradient-4" x1="276.23" y1="172.18" x2="250.76" y2="216.29" gradientTransform="translate(69.36)" gradientUnits="userSpaceOnUse"><stop offset="0" stop-color="#6e008b" stop-opacity="0.5"/><stop offset="0.5" stop-color="#c846cb" stop-opacity="0"/></linearGradient><linearGradient id="linear-gradient-5" x1="287.52" y1="292.82" x2="223.23" y2="228.53" gradientTransform="translate(69.36)" gradientUnits="userSpaceOnUse"><stop offset="0.14" stop-color="#6a2bea" stop-opacity="0"/><stop offset="0.34" stop-color="#642de4" stop-opacity="0.03"/><stop offset="0.55" stop-color="#5131d3" stop-opacity="0.12"/><stop offset="0.76" stop-color="#3139b7" stop-opacity="0.27"/><stop offset="0.98" stop-color="#054490" stop-opacity="0.48"/><stop offset="1" stop-color="#00458b" stop-opacity="0.5"/></linearGradient></defs><title>FF_Send_</title><text class="cls-1" transform="translate(984 307.83)">S<tspan class="cls-2" x="96.47" y="0">e</tspan><tspan class="cls-3" x="194.47" y="0">n</tspan><tspan class="cls-4" x="289.4" y="0">d</tspan></text><path class="cls-5" d="M448.29,195.8h74.87v20.25H469.77v27.46h53.39v20.1H469.77V307.8H448.29ZM548.63,188c7.36,0,12.43,5.37,12.43,12.58s-4.91,12.58-12.59,12.58c-7.36,0-12.42-5.21-12.42-12.27C536.05,193.19,541.72,188,548.63,188ZM538,225h21.17V307.8H538Zm82.55,23a17.1,17.1,0,0,0-10.28-3.68c-8.6,0-13.51,5.52-13.51,17.64V307.8h-21V225h20.1v12c4.3-9.36,10.9-12.74,19.8-12.74a25.1,25.1,0,0,1,14.11,4.3Zm8.74,18.87c0-23.78,17.64-43.57,42.65-43.57s42.5,17.64,42.5,42.19v8.75H650c2.3,10.43,10.44,17.34,22.86,17.34,9.67,0,16.27-4.61,20.56-12.28l17.65,10.59c-8.75,12.89-21.18,19.64-38.82,19.64C645.44,309.49,629.33,291.54,629.33,266.83Zm21-9.36h43.57c-2.3-10.58-10.89-16.41-22.09-16.41C661.7,241.06,653.27,246.73,650.35,257.47ZM719.7,225h14.88v-4.14c0-22.56,9.51-31.92,30.38-31.92h7.37v18.26h-6c-9.82,0-12,3.38-12,13.66V225h18v19h-17.5V307.8H734.58V244H719.7Zm56.61,41.42c0-23.78,18.11-43.11,43.27-43.11a43.12,43.12,0,1,1,0,86.23C793.81,309.49,776.31,290.62,776.31,266.37Zm66,0c0-13.19-9.82-23.47-22.71-23.47-13,0-22.71,10.28-22.71,23.47s9.67,23.48,22.71,23.48C832.47,289.85,842.29,279.57,842.29,266.37Zm49.1-.92L861.47,225h24.85L904,250.42,922.07,225h24.4L916.09,265.3,948,307.8H923.3l-19.79-27-19.18,27h-24.7Z"/><g id="Icon"><path class="cls-6" d="M252.09,114.5c-77.14,0-139.91,61.57-139.91,137.24a14.72,14.72,0,0,0,14.72,14.72H237.37v40h0v32.8L203.15,305a14.72,14.72,0,1,0-20.82,20.82l59.35,59.34a14.45,14.45,0,0,0,1.08,1l.18.14c.32.25.64.49,1,.72l.21.12c.33.22.67.43,1,.62l.17.08c.37.19.75.37,1.13.54l.12,0c.4.16.82.31,1.24.44l.14,0a12.68,12.68,0,0,0,1.25.31l.36.06c.35.06.7.12,1.07.15a13.45,13.45,0,0,0,2.93,0c.37,0,.72-.09,1.07-.15l.36-.06a12.68,12.68,0,0,0,1.25-.31l.14,0q.64-.19,1.26-.45l.09,0c.4-.17.78-.35,1.16-.55l.15-.07c.36-.19.7-.41,1-.63l.19-.11a12.3,12.3,0,0,0,1-.74l.16-.12a14.53,14.53,0,0,0,1.09-1l59.33-59.33A14.72,14.72,0,1,0,301,305l-34.23,34.23V266.46H377.28A14.72,14.72,0,0,0,392,251.74C392,176.07,329.24,114.5,252.09,114.5ZM142.65,237c7.38-52.5,53.65-93.08,109.44-93.08S354.16,184.52,361.54,237Z"/><path class="cls-7" d="M252.09,114.5c-77.14,0-139.91,61.57-139.91,137.24a14.72,14.72,0,0,0,14.72,14.72H237.37v40h0v32.8L203.15,305a14.72,14.72,0,1,0-20.82,20.82l59.35,59.34a14.45,14.45,0,0,0,1.08,1l.18.14c.32.25.64.49,1,.72l.21.12c.33.22.67.43,1,.62l.17.08c.37.19.75.37,1.13.54l.12,0c.4.16.82.31,1.24.44l.14,0a12.68,12.68,0,0,0,1.25.31l.36.06c.35.06.7.12,1.07.15a13.45,13.45,0,0,0,2.93,0c.37,0,.72-.09,1.07-.15l.36-.06a12.68,12.68,0,0,0,1.25-.31l.14,0q.64-.19,1.26-.45l.09,0c.4-.17.78-.35,1.16-.55l.15-.07c.36-.19.7-.41,1-.63l.19-.11a12.3,12.3,0,0,0,1-.74l.16-.12a14.53,14.53,0,0,0,1.09-1l59.33-59.33A14.72,14.72,0,1,0,301,305l-34.23,34.23V266.46H377.28A14.72,14.72,0,0,0,392,251.74C392,176.07,329.24,114.5,252.09,114.5ZM142.65,237c7.38-52.5,53.65-93.08,109.44-93.08S354.16,184.52,361.54,237Z"/><path class="cls-8" d="M266.85,144.91c49,6.42,88,44.32,94.69,92.11H296.29a29.44,29.44,0,0,0-29.44,29.44H377.28A14.78,14.78,0,0,0,392,251.68c0-52.4-37.1-77.89-68.6-92.75A153.32,153.32,0,0,0,266.85,144.91Z"/><path class="cls-9" d="M360.94,233.78c9.9,8,19.88,15.93,29.65,24.09a14.6,14.6,0,0,0,1.41-6.19c0-52.4-37.1-77.89-68.6-92.75a153.32,153.32,0,0,0-56.55-14C314.75,151.18,352.94,187.53,360.94,233.78Z"/><path class="cls-10" d="M359.25,237h-63a29.44,29.44,0,0,0-29.44,29.44H377.28a14.6,14.6,0,0,0,11.37-5.53C379,252.83,369.08,245,359.25,237Z"/></g></svg>