<?xml version="1.0" encoding="utf-8"?>
<!-- Generator: Adobe Illustrator 21.0.2, SVG Export Plug-In . SVG Version: 6.00 Build 0)  -->
<svg version="1.1" id="Icon" xmlns="http://www.w3.org/2000/svg" xmlns:xlink="http://www.w3.org/1999/xlink" x="0px" y="0px"
	 viewBox="0 0 500 500" style="enable-background:new 0 0 500 500;" xml:space="preserve">
<path d="M456.4,237.9c-0.1-1.3-0.2-2.6-0.2-3.9c0,0,0-0.1,0-0.1c-0.1-1.3-0.2-2.6-0.3-3.9c0,0,0,0,0-0.1
	c-1.1-11.7-3.1-23.2-6.1-34.3c0-0.1,0-0.1-0.1-0.2c-0.3-1.1-0.6-2.2-0.9-3.3c-0.1-0.2-0.1-0.4-0.2-0.5c-0.3-1-0.6-2.1-0.9-3.1
	c-0.1-0.2-0.1-0.5-0.2-0.7c-0.3-1-0.6-2-0.9-2.9c-0.1-0.3-0.2-0.5-0.3-0.8c-0.3-1-0.6-1.9-1-2.9c-0.1-0.3-0.2-0.6-0.3-0.9
	c-0.3-0.9-0.7-1.9-1-2.8c-0.1-0.3-0.2-0.6-0.3-0.8c-0.4-0.9-0.7-1.9-1.1-2.8c-0.1-0.2-0.2-0.5-0.3-0.7c-0.4-1-0.8-1.9-1.2-2.9
	c0-0.1-0.1-0.2-0.1-0.3c-1.3-3.2-2.7-6.4-4.2-9.5c-0.1-0.2-0.2-0.4-0.3-0.6c-0.4-0.8-0.7-1.5-1.1-2.2c-0.2-0.4-0.4-0.9-0.6-1.3
	c-0.3-0.7-0.7-1.3-1-2c-0.3-0.5-0.5-1-0.8-1.5c-0.3-0.6-0.7-1.2-1-1.9c-0.3-0.5-0.6-1.1-0.9-1.6c-0.3-0.6-0.7-1.2-1-1.8
	c-0.3-0.6-0.6-1.1-1-1.7c-0.3-0.6-0.7-1.1-1-1.7c-0.3-0.6-0.7-1.1-1-1.7c-0.3-0.5-0.7-1.1-1-1.6c-0.4-0.6-0.7-1.2-1.1-1.8
	c-0.3-0.5-0.6-1-1-1.5c-0.4-0.6-0.8-1.2-1.2-1.8c-0.3-0.5-0.6-1-1-1.5c-0.4-0.6-0.9-1.3-1.3-1.9c-0.3-0.4-0.6-0.9-0.9-1.3
	c-0.5-0.7-1-1.4-1.5-2.1c-0.3-0.4-0.5-0.7-0.8-1.1c-0.8-1.1-1.5-2.1-2.3-3.1c-6-7.9-12.6-15.3-19.6-22.2c-4.8-5-9.9-9.6-15.3-13.9
	c-3.3-2.9-6.8-5.6-10.4-8.2c-6.3-4.7-13.1-8.9-20.5-12.6c-2-1.1-4-2.1-6-3.1C328.4,57.7,313,52,297,48.5c-1.6-0.3-3.2-0.7-4.7-1
	c0,0,0,0-0.1,0c-0.8-0.1-1.5-0.3-2.3-0.4c-10.4-1.9-21-3.1-31.7-3.3c-1.5,0-3.1,0-4.6,0c0,0,0,0,0,0c-1.4,0-2.8,0-4.2,0
	c-13,0.2-25.8,1.6-37.9,4.2c-28,5.9-52.7,17.7-69.1,32.5c-0.9,0.8-1.6,1.4-2,1.8c-0.1,0.1-0.3,0.3-0.4,0.4c0,0,0,0,0.1,0
	c0,0-0.1,0.1-0.1,0.1c0,0,0.1-0.1,0.1-0.1c0,0,0.1,0,0.1-0.1c0,0,0,0-0.1,0.1c0,0,0.1-0.1,0.2-0.1c12.2-7.3,29.1-13.3,41.2-16.3
	c1.6-0.4,3.3-0.8,4.9-1.2c0.3-0.1,0.7-0.1,1-0.2c1.4-0.3,2.8-0.6,4.3-0.9c0.2,0,0.5-0.1,0.7-0.1c53.5-9.8,110.5,6.2,150.2,44.1
	c8.5,8.2,16.2,17.3,22.4,27.3c25.3,41,22.9,92.6,3.2,123c-28.7,44.2-92.8,59.4-132.5,20.7c-13.2-12.8-21.1-30.7-21.3-49.2
	c-0.1-8.9,1.6-17.7,5.2-25.8c1.4-3.2,10.9-21.4,15.2-20.5c-10.9-2.3-31.3,2.2-45.6,23.5c-12.8,19.1-12.1,48.5-4.2,69.4
	c-4.8-10.1-8.3-20.3-10.1-32.7c-10.2-68.8,36.1-127.5,78.6-142.1c-22.9-20-80.4-18.6-123.1,12.8c-24.9,18.3-42.7,44.3-52.1,75.3
	c1.4-17.4,8-43.4,21.5-69.9c-14.3,7.4-32.5,30.8-41.5,52.4c-13,31.2-17.5,68.5-13.4,104c0.3,2.7,0.6,5.3,0.9,8
	c16.6,97.6,101.7,172,204,172c114.3,0,207-92.7,207-207C456.7,245.4,456.6,241.6,456.4,237.9z"/>
</svg>
