<?xml version="1.0" encoding="utf-8"?>
<!-- Generator: Adobe Illustrator 21.0.2, SVG Export Plug-In . SVG Version: 6.00 Build 0)  -->
<svg version="1.1" id="Glyph" xmlns="http://www.w3.org/2000/svg" xmlns:xlink="http://www.w3.org/1999/xlink" x="0px" y="0px"
	 viewBox="0 0 500 500" style="enable-background:new 0 0 500 500;" xml:space="preserve">
<style type="text/css">
	.st0{fill:none;stroke:#000000;stroke-width:61.9433;stroke-linecap:round;stroke-linejoin:round;stroke-miterlimit:10;}
	.st1{fill:none;}
</style>
<g>
	<path class="st0" d="M250,250"/>
	<path d="M250,475c-21.4,0-41.2-7.1-55.8-19.9c0,0-0.1,0-0.1-0.1c-54.6-48.6-100.6-94.6-149.2-149.2c0,0,0-0.1-0.1-0.1
		C32.1,291.2,25,271.4,25,250s7.1-41.2,19.9-55.8c0,0,0-0.1,0.1-0.1c48.6-54.6,94.6-100.6,149.2-149.2c0,0,0.1,0,0.1-0.1
		C208.8,32.1,228.6,25,250,25s41.2,7.1,55.8,19.9c0,0,0.1,0,0.1,0.1c54.6,48.6,100.6,94.6,149.2,149.2c0,0,0,0.1,0.1,0.1
		c12.8,14.5,19.9,34.3,19.9,55.8s-7.1,41.2-19.9,55.8c0,0,0,0.1-0.1,0.1c-9.2,10.4-15.3,17.1-24.5,27.1c-8.5,9.1-22.7,9.7-31.9,1.2
		c-9.1-8.5-9.7-22.7-1.2-31.9c9-9.7,14.9-16.2,23.9-26.3c11.5-13.1,11.5-38.7,0-51.8C374,170.9,329.1,126,275.9,78.6
		c-13.1-11.5-38.7-11.5-51.8,0C170.9,126,126,170.9,78.6,224.1c-11.5,13.1-11.5,38.7,0,51.8c47.4,53.2,92.2,98.1,145.5,145.5
		c13.1,11.5,38.6,11.5,51.7,0c18.4-16.6,36.1-32.3,53.7-49.2l-57.2-60c-0.1-0.1-0.1-0.1-0.2-0.2c-8.2-8.4-12.6-20-12-31.7
		s6.1-22.8,15-30.4l0.7-0.6c10.9-9.2,16.9-22.7,16.3-37c-0.2-4.3-0.9-8.5-2.3-12.6c-7-20.8-25.2-28.2-40-28.2
		c-14.7,0-32.9,7.4-40,28.2c-1.4,4.1-2.2,8.3-2.3,12.6c-0.5,14.3,5.4,27.8,16.3,37l0.3,0.2c9,7.6,14.4,18.6,15,30.3
		s-3.7,23.2-11.9,31.7l-22,22.6c-8.6,9-22.9,9.2-31.9,0.6s-9.2-22.9-0.6-31.9l17.2-17.7c1.5-1.6,1.5-4.1-0.1-5.6
		c-18.5-18-28.5-42.8-27.5-68.8c0.3-8.6,1.9-17.1,4.6-25.3c12.1-35.8,44.5-58.9,82.7-58.9s70.6,23.1,82.7,58.9
		c2.8,8.2,4.3,16.7,4.6,25.3c1,26.3-9.1,51.2-27.9,69.2c-1.6,1.5-1.6,4-0.1,5.6l62.7,65.4c5.7,5.8,8.9,13.4,8.9,21.6
		s-3.2,15.8-9,21.5c-21.2,21-43.3,40.6-65.8,61c-0.1,0.1-0.1,0.1-0.2,0.2C291.2,467.9,271.4,475,250,475z"/>
	<path class="st1" d="M80.9,221.6l73.4-77.5C129.5,168.7,105.5,194,80.9,221.6z"/>
</g>
</svg>
