<?xml version="1.0" encoding="utf-8"?>
<!-- Generator: Adobe Illustrator 21.0.2, SVG Export Plug-In . SVG Version: 6.00 Build 0)  -->
<svg version="1.1" id="Icon" xmlns="http://www.w3.org/2000/svg" xmlns:xlink="http://www.w3.org/1999/xlink" x="0px" y="0px"
	 viewBox="0 0 500 500" style="enable-background:new 0 0 500 500;" xml:space="preserve">
<style type="text/css">
	.st0{fill:none;stroke:#000000;stroke-width:61.9433;stroke-linecap:round;stroke-linejoin:round;stroke-miterlimit:10;}
	.st1{fill:url(#SVGID_1_);}
	.st2{fill:url(#SVGID_2_);}
	.st3{fill:none;}
	.st4{fill:url(#SVGID_3_);}
	.st5{fill:url(#SVGID_4_);}
	.st6{opacity:0.9;fill:url(#SVGID_5_);}
	.st7{fill:url(#SVGID_6_);}
</style>
<g>
	<path class="st0" d="M250,250"/>
	<linearGradient id="SVGID_1_" gradientUnits="userSpaceOnUse" x1="349.2433" y1="78.1049" x2="170.7119" y2="387.3303">
		<stop  offset="0" style="stop-color:#FF980E"/>
		<stop  offset="0.2075" style="stop-color:#FF7139"/>
		<stop  offset="0.3633" style="stop-color:#FF5854"/>
		<stop  offset="0.4563" style="stop-color:#FF4F5E"/>
		<stop  offset="0.6929" style="stop-color:#FF3750"/>
		<stop  offset="0.8575" style="stop-color:#F92261"/>
		<stop  offset="1" style="stop-color:#F5156C"/>
	</linearGradient>
	<path class="st1" d="M250,475c-21.4,0-41.2-7.1-55.8-19.9c0,0-0.1,0-0.1-0.1c-54.6-48.6-100.6-94.6-149.2-149.2c0,0,0-0.1-0.1-0.1
		C32.1,291.2,25,271.4,25,250s7.1-41.2,19.9-55.8c0,0,0-0.1,0.1-0.1c48.6-54.6,94.6-100.6,149.2-149.2c0,0,0.1,0,0.1-0.1
		C208.8,32.1,228.6,25,250,25c21.4,0,41.2,7.1,55.8,19.9c0,0,0.1,0,0.1,0.1c54.6,48.6,100.6,94.6,149.2,149.2c0,0,0,0.1,0.1,0.1
		c12.8,14.5,19.9,34.3,19.9,55.8s-7.1,41.2-19.9,55.8c0,0,0,0.1-0.1,0.1c-9.2,10.4-15.3,17.1-24.5,27.1c-8.5,9.1-22.7,9.7-31.9,1.2
		c-9.1-8.5-9.7-22.7-1.2-31.9c9-9.7,14.9-16.2,23.9-26.3c11.5-13.1,11.5-38.7,0-51.8C374,170.9,329.1,126,275.9,78.6
		c-13.1-11.5-38.7-11.5-51.8,0C170.9,126,126,170.9,78.6,224.1c-11.5,13.1-11.5,38.7,0,51.8c47.4,53.2,92.2,98.1,145.5,145.5
		c13.1,11.5,38.6,11.5,51.7,0c18.4-16.6,36.1-32.3,53.7-49.2l-57.2-60c-0.1-0.1-0.1-0.1-0.2-0.2c-8.2-8.4-12.6-20-12-31.7
		c0.6-11.7,6.1-22.8,15-30.4l0.7-0.6c10.9-9.2,16.9-22.7,16.3-37c-0.2-4.3-0.9-8.5-2.3-12.6c-7-20.8-25.2-28.2-40-28.2
		c-14.7,0-32.9,7.4-40,28.2c-1.4,4.1-2.2,8.3-2.3,12.6c-0.5,14.3,5.4,27.8,16.3,37l0.3,0.2c9,7.6,14.4,18.6,15,30.3
		c0.6,11.7-3.7,23.2-11.9,31.7l-22,22.6c-8.6,9-22.9,9.2-31.9,0.6c-9-8.6-9.2-22.9-0.6-31.9l17.2-17.7c1.5-1.6,1.5-4.1-0.1-5.6
		c-18.5-18-28.5-42.8-27.5-68.8c0.3-8.6,1.9-17.1,4.6-25.3c12.1-35.8,44.5-58.9,82.7-58.9s70.6,23.1,82.7,58.9
		c2.8,8.2,4.3,16.7,4.6,25.3c1,26.3-9.1,51.2-27.9,69.2c-1.6,1.5-1.6,4-0.1,5.6l62.7,65.4c5.7,5.8,8.9,13.4,8.9,21.6
		c0,8.2-3.2,15.8-9,21.5c-21.2,21-43.3,40.6-65.8,61c-0.1,0.1-0.1,0.1-0.2,0.2C291.2,467.9,271.4,475,250,475z"/>
	<linearGradient id="SVGID_2_" gradientUnits="userSpaceOnUse" x1="356.736" y1="65.127" x2="173.6909" y2="382.1704">
		<stop  offset="0" style="stop-color:#FFF44F;stop-opacity:0.8"/>
		<stop  offset="0.4" style="stop-color:#FFF44F;stop-opacity:0.3"/>
		<stop  offset="0.9" style="stop-color:#FFF44F;stop-opacity:0"/>
	</linearGradient>
	<path class="st2" d="M250,475c-21.4,0-41.2-7.1-55.8-19.9c0,0-0.1,0-0.1-0.1c-54.6-48.6-100.6-94.6-149.2-149.2c0,0,0-0.1-0.1-0.1
		C32.1,291.2,25,271.4,25,250s7.1-41.2,19.9-55.8c0,0,0-0.1,0.1-0.1c48.6-54.6,94.6-100.6,149.2-149.2c0,0,0.1,0,0.1-0.1
		C208.8,32.1,228.6,25,250,25c21.4,0,41.2,7.1,55.8,19.9c0,0,0.1,0,0.1,0.1c54.6,48.6,100.6,94.6,149.2,149.2c0,0,0,0.1,0.1,0.1
		c12.8,14.5,19.9,34.3,19.9,55.8s-7.1,41.2-19.9,55.8c0,0,0,0.1-0.1,0.1c-9.2,10.4-15.3,17.1-24.5,27.1c-8.5,9.1-22.7,9.7-31.9,1.2
		c-9.1-8.5-9.7-22.7-1.2-31.9c9-9.7,14.9-16.2,23.9-26.3c11.5-13.1,11.5-38.7,0-51.8C374,170.9,329.1,126,275.9,78.6
		c-13.1-11.5-38.7-11.5-51.8,0C170.9,126,126,170.9,78.6,224.1c-11.5,13.1-11.5,38.7,0,51.8c47.4,53.2,92.2,98.1,145.5,145.5
		c13.1,11.5,38.6,11.5,51.7,0c18.4-16.6,36.1-32.3,53.7-49.2l-57.2-60c-0.1-0.1-0.1-0.1-0.2-0.2c-8.2-8.4-12.6-20-12-31.7
		c0.6-11.7,6.1-22.8,15-30.4l0.7-0.6c10.9-9.2,16.9-22.7,16.3-37c-0.2-4.3-0.9-8.5-2.3-12.6c-7-20.8-25.2-28.2-40-28.2
		c-14.7,0-32.9,7.4-40,28.2c-1.4,4.1-2.2,8.3-2.3,12.6c-0.5,14.3,5.4,27.8,16.3,37l0.3,0.2c9,7.6,14.4,18.6,15,30.3
		c0.6,11.7-3.7,23.2-11.9,31.7l-22,22.6c-8.6,9-22.9,9.2-31.9,0.6c-9-8.6-9.2-22.9-0.6-31.9l17.2-17.7c1.5-1.6,1.5-4.1-0.1-5.6
		c-18.5-18-28.5-42.8-27.5-68.8c0.3-8.6,1.9-17.1,4.6-25.3c12.1-35.8,44.5-58.9,82.7-58.9s70.6,23.1,82.7,58.9
		c2.8,8.2,4.3,16.7,4.6,25.3c1,26.3-9.1,51.2-27.9,69.2c-1.6,1.5-1.6,4-0.1,5.6l62.7,65.4c5.7,5.8,8.9,13.4,8.9,21.6
		c0,8.2-3.2,15.8-9,21.5c-21.2,21-43.3,40.6-65.8,61c-0.1,0.1-0.1,0.1-0.2,0.2C291.2,467.9,271.4,475,250,475z"/>
	<path class="st3" d="M80.9,221.6l73.4-77.5C129.5,168.7,105.5,194,80.9,221.6z"/>
	<g>
		<g>
			<linearGradient id="SVGID_3_" gradientUnits="userSpaceOnUse" x1="105.929" y1="420.1522" x2="357.9106" y2="185.5189">
				<stop  offset="4.712318e-04" style="stop-color:#3A8EE6"/>
				<stop  offset="0.2807" style="stop-color:#706DF6"/>
				<stop  offset="0.4402" style="stop-color:#9059FF"/>
				<stop  offset="0.6413" style="stop-color:#A34DF5"/>
				<stop  offset="0.9989" style="stop-color:#C139E6"/>
			</linearGradient>
			<path class="st4" d="M447.5,250.9c-14.6-15.1-28.7-29.6-26.1-26.8c11.5,13.1,11.5,38.7,0,51.8c-9,10.1-14.9,16.7-23.9,26.3
				c-8.5,9.1-7.9,23.4,1.2,31.9c9.1,8.5,23.4,7.9,31.9-1.2c6.4-6.9,11.2-12.2,16.6-18.2c0.3-0.3,0.9-1,1.7-2
				C464.6,294.9,464,268,447.5,250.9z M329.5,372.2c-17.6,16.9-35.3,32.6-53.7,49.2c-13.1,11.4-38.7,11.4-51.7,0
				C170.9,374,126,329.1,78.7,275.9c-11.5-13.1-11.5-38.7,0-51.8c0.8-0.8,1.5-1.7,2.3-2.5l-28.4,29.8c-16.4,17.2-16.8,44.2-0.9,61.9
				c4.3,4.8,7.7,8.6,9.2,10.2c42.9,47.1,84.7,88.3,133.4,131.6c0,0,0.1,0,0.1,0.1c14.5,12.8,34.3,19.9,55.8,19.9s41.2-7.1,55.8-19.9
				c0.1-0.1,0.2-0.1,0.2-0.2c10.9-9.9,21.8-19.6,32.4-29.4c12.2-11.2,12.9-30.3,1.5-42.4L329.5,372.2z"/>
		</g>
	</g>
	<linearGradient id="SVGID_4_" gradientUnits="userSpaceOnUse" x1="451.3987" y1="252.7308" x2="388.0626" y2="316.0669">
		<stop  offset="0" style="stop-color:#6E008B;stop-opacity:0.5"/>
		<stop  offset="0.5" style="stop-color:#C846CB;stop-opacity:0"/>
	</linearGradient>
	<path class="st5" d="M447.5,250.9c-14.6-15.1-28.7-29.6-26.1-26.8c11.5,13.1,11.5,38.7,0,51.8c-9,10.1-14.9,16.7-23.9,26.3
		c-8.5,9.1-7.9,23.4,1.2,31.9c9.1,8.5,23.4,7.9,31.9-1.2c6.4-6.9,11.2-12.2,16.6-18.2c0.3-0.3,0.9-1,1.7-2
		C464.6,294.9,464,268,447.5,250.9z"/>
	<linearGradient id="SVGID_5_" gradientUnits="userSpaceOnUse" x1="135.6923" y1="328.7674" x2="44.9012" y2="268.3788">
		<stop  offset="0.136" style="stop-color:#6A2BEA;stop-opacity:0"/>
		<stop  offset="0.2995" style="stop-color:#662CE6;stop-opacity:9.459748e-02"/>
		<stop  offset="0.4689" style="stop-color:#592FDB;stop-opacity:0.1926"/>
		<stop  offset="0.641" style="stop-color:#4534C9;stop-opacity:0.2923"/>
		<stop  offset="0.815" style="stop-color:#283BAF;stop-opacity:0.393"/>
		<stop  offset="0.989" style="stop-color:#03448D;stop-opacity:0.4936"/>
		<stop  offset="1" style="stop-color:#00458B;stop-opacity:0.5"/>
	</linearGradient>
	<path class="st6" d="M131.6,332.9c-17.7-18.2-35.1-37-52.9-57c-11.5-13.1-11.5-38.7,0-51.8c0.8-0.8,1.5-1.7,2.3-2.5l-28.4,29.8
		c-16.4,17.2-16.8,44.2-0.9,61.9c4.3,4.8,7.7,8.6,9.2,10.2c23.5,25.8,46.6,49.8,70.8,73.3V332.9z"/>
	<linearGradient id="SVGID_6_" gradientUnits="userSpaceOnUse" x1="351.6013" y1="390.2514" x2="272.0714" y2="445.7722">
		<stop  offset="0" style="stop-color:#6E008B;stop-opacity:0.5"/>
		<stop  offset="0.4051" style="stop-color:#3A8EE6;stop-opacity:0"/>
	</linearGradient>
	<path class="st7" d="M339.9,383.2l-10.4-11c-17.6,16.9-35.3,32.6-53.7,49.2c-5.8,5.1-14.1,7.9-22.7,8.5v45.1
		c20.2-0.7,38.8-7.6,52.6-19.8c0.1-0.1,0.2-0.1,0.2-0.2c10.9-9.9,21.8-19.6,32.4-29.4C350.7,414.3,351.3,395.2,339.9,383.2z"/>
</g>
</svg>
