<svg id="Assets" xmlns="http://www.w3.org/2000/svg" xmlns:xlink="http://www.w3.org/1999/xlink" viewBox="0 0 1019 448"><defs><style>.cls-1{fill:#fff;}.cls-2{fill:url(#linear-gradient);}.cls-3{fill:url(#linear-gradient-2);}.cls-4{fill:none;}.cls-5{fill:url(#linear-gradient-3);}.cls-6{fill:url(#linear-gradient-4);}.cls-7{opacity:0.9;fill:url(#linear-gradient-5);}.cls-8{fill:url(#linear-gradient-6);}</style><linearGradient id="linear-gradient" x1="367.75" y1="189.04" x2="256.67" y2="381.45" gradientTransform="translate(-82 -72)" gradientUnits="userSpaceOnUse"><stop offset="0" stop-color="#ff980e"/><stop offset="0.21" stop-color="#ff7139"/><stop offset="0.36" stop-color="#ff5854"/><stop offset="0.46" stop-color="#ff4f5e"/><stop offset="0.69" stop-color="#ff3750"/><stop offset="0.86" stop-color="#f92261"/><stop offset="1" stop-color="#f5156c"/></linearGradient><linearGradient id="linear-gradient-2" x1="372.41" y1="180.97" x2="258.52" y2="378.24" gradientTransform="translate(-82 -72)" gradientUnits="userSpaceOnUse"><stop offset="0" stop-color="#fff44f" stop-opacity="0.8"/><stop offset="0.13" stop-color="#fff44f" stop-opacity="0.59"/><stop offset="0.25" stop-color="#fff44f" stop-opacity="0.43"/><stop offset="0.34" stop-color="#fff44f" stop-opacity="0.34"/><stop offset="0.4" stop-color="#fff44f" stop-opacity="0.3"/><stop offset="0.42" stop-color="#fff44f" stop-opacity="0.28"/><stop offset="0.63" stop-color="#fff44f" stop-opacity="0.13"/><stop offset="0.8" stop-color="#fff44f" stop-opacity="0.04"/><stop offset="0.9" stop-color="#fff44f" stop-opacity="0"/></linearGradient><linearGradient id="linear-gradient-3" x1="-2324.64" y1="-204.13" x2="-2167.85" y2="-350.12" gradientTransform="translate(2459 534)" gradientUnits="userSpaceOnUse"><stop offset="0" stop-color="#3a8ee6"/><stop offset="0.28" stop-color="#706df6"/><stop offset="0.44" stop-color="#9059ff"/><stop offset="0.64" stop-color="#a34df5"/><stop offset="1" stop-color="#c139e6"/></linearGradient><linearGradient id="linear-gradient-4" x1="431.32" y1="297.7" x2="391.91" y2="337.11" gradientTransform="translate(-82 -72)" gradientUnits="userSpaceOnUse"><stop offset="0" stop-color="#6e008b" stop-opacity="0.5"/><stop offset="0.5" stop-color="#c846cb" stop-opacity="0"/></linearGradient><linearGradient id="linear-gradient-5" x1="234.88" y1="345.01" x2="178.38" y2="307.44" gradientTransform="translate(-82 -72)" gradientUnits="userSpaceOnUse"><stop offset="0.14" stop-color="#6a2bea" stop-opacity="0"/><stop offset="0.34" stop-color="#642de4" stop-opacity="0.03"/><stop offset="0.55" stop-color="#5131d3" stop-opacity="0.12"/><stop offset="0.76" stop-color="#3139b7" stop-opacity="0.27"/><stop offset="0.98" stop-color="#054490" stop-opacity="0.48"/><stop offset="1" stop-color="#00458b" stop-opacity="0.5"/></linearGradient><linearGradient id="linear-gradient-6" x1="369.22" y1="383.27" x2="319.73" y2="417.81" gradientTransform="translate(-82 -72)" gradientUnits="userSpaceOnUse"><stop offset="0" stop-color="#6e008b" stop-opacity="0.5"/><stop offset="0.41" stop-color="#3a8ee6" stop-opacity="0"/></linearGradient></defs><title>FF_Lockwise_</title><path class="cls-1" d="M420.61,238.44h9.6v74.23h43v9.26h-52.6Z"/><path class="cls-1" d="M479.34,291.05a32.08,32.08,0,1,1,32,32.14C493.17,323.19,479.34,309.24,479.34,291.05Zm54.66,0c0-13.15-9.83-23.33-22.64-23.33s-22.53,10.18-22.53,23.33,9.72,23.22,22.53,23.22S534,304.2,534,291.05Z"/><path class="cls-1" d="M552.34,291.05c0-18.3,14.18-32.13,32.25-32.13,13.49,0,24.47,7.66,29.16,18.75l-8.58,3.77c-3.65-8.46-11.09-13.72-20.7-13.72-12.92,0-22.75,10.41-22.75,23.33a23.08,23.08,0,0,0,23.1,23.33c9.95,0,17.15-6.17,20.58-14.29l8.7,3.66c-4.81,11.43-15.22,19.44-29.4,19.44A31.86,31.86,0,0,1,552.34,291.05Z"/><path class="cls-1" d="M647.49,291.85,634.34,305.8v16.13h-9.26V231.81h9.26v63.24l32.71-34.88h11.78L654.35,286l26,35.91H669Z"/><path class="cls-1" d="M685.66,260.17h9.83l15.56,48.95,18.87-48.95h8.69L757,308.78l16.13-48.61h9.72l-21.39,61.76H753L734,273l-19,48.95H705.9Z"/><path class="cls-1" d="M796.73,233.75a7.44,7.44,0,1,1-7.32,7.44A7.22,7.22,0,0,1,796.73,233.75ZM792,260.17h9.5v61.76H792Z"/><path class="cls-1" d="M810.71,310.26l8.12-5.48c4.23,6.06,10.52,10.06,19.9,10.06,9.61,0,14.64-4.58,14.64-10.75,0-6.86-8.47-8.24-17.5-10.07-10.64-2-22-4.91-22-17.26,0-9.61,8.35-18.07,23-18,11.44,0,19.21,4.23,24.7,11L853.83,275c-3.66-4.92-9-8.23-16.93-8.23-9.49,0-13.38,4.11-13.38,9.83,0,6.41,7.43,7.66,17,9.61,10.63,2.06,22.3,5,22.3,17.72,0,9.73-8.23,19.33-24.36,19.22C825,323.19,816.2,318.16,810.71,310.26Z"/><path class="cls-1" d="M870.62,291.28c0-18.18,13.72-32.36,32.25-32.36,18.07,0,31.45,13.15,31.45,31.45v4.23H879.77c1.37,11.78,10.4,20.12,23.44,20.12,9.84,0,16.47-4.34,20.7-11.89l8,4.69c-6.29,9.84-15.21,15.67-28.71,15.67C883.43,323.19,870.62,309.35,870.62,291.28Zm9.38-4.92h44.71c-1.49-11.66-9.83-19.1-21.84-19.1A22.93,22.93,0,0,0,880,286.36Z"/><path class="cls-1" d="M420,126.31h55.74v15.08H436v20.45h39.75v15H436v32.9H420Zm74.71-5.82a9.37,9.37,0,0,1-.12,18.73,8.85,8.85,0,0,1-9.25-9.14A9.24,9.24,0,0,1,494.71,120.49ZM486.82,148h15.77V209.7H486.82Zm61.46,17.13a12.73,12.73,0,0,0-7.66-2.74c-6.39,0-10,4.11-10,13.14V209.7H514.92V148h15v8.91c3.2-7,8.11-9.48,14.73-9.48a18.71,18.71,0,0,1,10.51,3.19Zm6.51,14c0-17.7,13.14-32.44,31.75-32.44s31.65,13.14,31.65,31.41v6.51h-48c1.71,7.77,7.77,12.91,17,12.91,7.2,0,12.11-3.42,15.31-9.14l13.13,7.89c-6.51,9.59-15.76,14.62-28.9,14.62C566.78,211,554.79,197.59,554.79,179.2Zm15.65-7h32.44c-1.71-7.88-8.11-12.22-16.45-12.22C578.89,160,572.61,164.24,570.44,172.23ZM622.07,148h11.08v-3.09c0-16.79,7.08-23.76,22.62-23.76h5.48v13.6h-4.46c-7.31,0-8.91,2.51-8.91,10.16V148h13.37v14.16h-13V209.7H633.15V162.18H622.07Zm42.15,30.84c0-17.71,13.48-32.1,32.21-32.1a32.1,32.1,0,1,1,0,64.2C677.24,211,664.22,196.91,664.22,178.86Zm49.12,0c0-9.82-7.31-17.48-16.91-17.48s-16.9,7.66-16.9,17.48,7.19,17.48,16.9,17.48S713.34,188.68,713.34,178.86Zm36.55-.69L727.62,148h18.5l13.14,19,13.48-19H790.9l-22.62,30L792,209.7H773.65l-14.74-20.1-14.27,20.1H726.25Z"/><path class="cls-2" d="M224,364c-13.33,0-25.65-4.39-34.69-12.36l-.05-.05a1090.54,1090.54,0,0,1-92.85-92.85l0-.05c-8-9-12.36-21.36-12.36-34.69s4.39-25.65,12.36-34.69l0-.05a1090.54,1090.54,0,0,1,92.85-92.85l.05,0c9-8,21.36-12.36,34.69-12.36s25.65,4.39,34.69,12.36l.05,0a1090.54,1090.54,0,0,1,92.85,92.85l.05.05c8,9,12.36,21.36,12.36,34.69s-4.39,25.65-12.36,34.69l0,.05c-5.76,6.46-9.51,10.63-15.27,16.84a14,14,0,0,1-20.56-19.09c5.58-6,9.24-10.08,14.85-16.37,7.16-8.14,7.16-24.09,0-32.23a1064.81,1064.81,0,0,0-90.51-90.51c-8.14-7.16-24.08-7.15-32.22,0a1064.81,1064.81,0,0,0-90.51,90.51c-7.16,8.14-7.16,24.09,0,32.23a1066.16,1066.16,0,0,0,90.51,90.5c8.13,7.15,24,7.16,32.19,0,11.42-10.34,22.49-20.09,33.43-30.63l-35.57-37.35-.1-.09a26.45,26.45,0,0,1,1.89-38.67l.42-.36a28.51,28.51,0,0,0,10.15-23,27.55,27.55,0,0,0-1.44-7.83c-4.36-12.95-15.7-17.56-24.86-17.56s-20.5,4.61-24.86,17.56a27.9,27.9,0,0,0-1.44,7.83,28.5,28.5,0,0,0,10.14,23l.16.14a26.44,26.44,0,0,1,2,38.54l-13.67,14.06a14,14,0,0,1-20.19-19.47l10.73-11a2.47,2.47,0,0,0-.05-3.49,56.32,56.32,0,0,1-17.11-42.83,55.45,55.45,0,0,1,2.89-15.71c7.5-22.26,27.69-36.65,51.44-36.65s43.94,14.39,51.44,36.65a55.45,55.45,0,0,1,2.89,15.71A56.33,56.33,0,0,1,261,242.54a2.47,2.47,0,0,0-.08,3.49l39,40.71a19,19,0,0,1-.1,26.84c-13.18,13.07-27,25.27-40.94,37.93a.86.86,0,0,1-.14.13C249.65,359.61,237.33,364,224,364Z"/><path class="cls-3" d="M224,364c-13.33,0-25.65-4.39-34.69-12.36l-.05-.05a1090.54,1090.54,0,0,1-92.85-92.85l0-.05c-8-9-12.36-21.36-12.36-34.69s4.39-25.65,12.36-34.69l0-.05a1090.54,1090.54,0,0,1,92.85-92.85l.05,0c9-8,21.36-12.36,34.69-12.36s25.65,4.39,34.69,12.36l.05,0a1090.54,1090.54,0,0,1,92.85,92.85l.05.05c8,9,12.36,21.36,12.36,34.69s-4.39,25.65-12.36,34.69l0,.05c-5.76,6.46-9.51,10.63-15.27,16.84a14,14,0,0,1-20.56-19.09c5.58-6,9.24-10.08,14.85-16.37,7.16-8.14,7.16-24.09,0-32.23a1064.81,1064.81,0,0,0-90.51-90.51c-8.14-7.16-24.08-7.15-32.22,0a1064.81,1064.81,0,0,0-90.51,90.51c-7.16,8.14-7.16,24.09,0,32.23a1066.16,1066.16,0,0,0,90.51,90.5c8.13,7.15,24,7.16,32.19,0,11.42-10.34,22.49-20.09,33.43-30.63l-35.57-37.35-.1-.09a26.45,26.45,0,0,1,1.89-38.67l.42-.36a28.51,28.51,0,0,0,10.15-23,27.55,27.55,0,0,0-1.44-7.83c-4.36-12.95-15.7-17.56-24.86-17.56s-20.5,4.61-24.86,17.56a27.9,27.9,0,0,0-1.44,7.83,28.5,28.5,0,0,0,10.14,23l.16.14a26.44,26.44,0,0,1,2,38.54l-13.67,14.06a14,14,0,0,1-20.19-19.47l10.73-11a2.47,2.47,0,0,0-.05-3.49,56.32,56.32,0,0,1-17.11-42.83,55.45,55.45,0,0,1,2.89-15.71c7.5-22.26,27.69-36.65,51.44-36.65s43.94,14.39,51.44,36.65a55.45,55.45,0,0,1,2.89,15.71A56.33,56.33,0,0,1,261,242.54a2.47,2.47,0,0,0-.08,3.49l39,40.71a19,19,0,0,1-.1,26.84c-13.18,13.07-27,25.27-40.94,37.93a.86.86,0,0,1-.14.13C249.65,359.61,237.33,364,224,364Z"/><path class="cls-4" d="M118.79,206.31l45.7-48.23C149,173.42,134.1,189.18,118.79,206.31Z"/><path class="cls-5" d="M346.89,224.54c-9.07-9.38-17.83-18.4-16.27-16.65,7.16,8.14,7.16,24.09,0,32.23-5.61,6.29-9.27,10.36-14.85,16.37a14,14,0,0,0,20.56,19.09c4-4.27,7-7.57,10.33-11.32.18-.2.56-.62,1.08-1.22A28.36,28.36,0,0,0,346.89,224.54Zm-73.41,75.51c-10.93,10.53-22,20.27-33.4,30.6-8.15,7.13-24.06,7.12-32.19,0a1066.16,1066.16,0,0,1-90.51-90.5c-7.16-8.14-7.16-24.09,0-32.23l1.41-1.58-17.66,18.52a28.37,28.37,0,0,0-.57,38.53c2.66,3,4.82,5.35,5.72,6.34a1086.36,1086.36,0,0,0,83,81.89l.05.05c9,8,21.36,12.36,34.69,12.36s25.65-4.39,34.69-12.36a.86.86,0,0,0,.14-.13c6.79-6.15,13.54-12.19,20.19-18.28a18.5,18.5,0,0,0,.92-26.36Z"/><path class="cls-6" d="M346.89,224.54c-9.07-9.38-17.83-18.4-16.27-16.65,7.16,8.14,7.16,24.09,0,32.23-5.61,6.29-9.27,10.36-14.85,16.37a14,14,0,0,0,20.56,19.09c4-4.27,7-7.57,10.33-11.32.18-.2.56-.62,1.08-1.22A28.36,28.36,0,0,0,346.89,224.54Z"/><path class="cls-7" d="M150.31,275.6c-11-11.33-21.85-23-32.93-35.48-7.16-8.14-7.16-24.09,0-32.23l1.41-1.58-17.66,18.52a28.37,28.37,0,0,0-.57,38.53c2.66,3,4.82,5.35,5.72,6.34,14.61,16,29,31,44,45.63Z"/><path class="cls-8" d="M279.94,306.87l-6.46-6.82c-10.93,10.53-22,20.27-33.4,30.6-3.63,3.18-8.8,4.93-14.14,5.27v28c12.58-.4,24.15-4.74,32.75-12.32a.86.86,0,0,0,.14-.13c6.79-6.15,13.54-12.19,20.19-18.28A18.5,18.5,0,0,0,279.94,306.87Z"/></svg>