<svg id="Assets" xmlns="http://www.w3.org/2000/svg" xmlns:xlink="http://www.w3.org/1999/xlink" viewBox="0 0 308 309"><defs><style>.cls-1{fill:url(#linear-gradient);}.cls-2{fill:url(#linear-gradient-2);}.cls-3{fill:none;}.cls-4{fill:url(#linear-gradient-3);}.cls-5{fill:url(#linear-gradient-4);}.cls-6{opacity:0.9;fill:url(#linear-gradient-5);}.cls-7{fill:url(#linear-gradient-6);}</style><linearGradient id="linear-gradient" x1="297.75" y1="120.04" x2="186.67" y2="312.45" gradientTransform="translate(-82 -72)" gradientUnits="userSpaceOnUse"><stop offset="0" stop-color="#ff980e"/><stop offset="0.21" stop-color="#ff7139"/><stop offset="0.36" stop-color="#ff5854"/><stop offset="0.46" stop-color="#ff4f5e"/><stop offset="0.69" stop-color="#ff3750"/><stop offset="0.86" stop-color="#f92261"/><stop offset="1" stop-color="#f5156c"/></linearGradient><linearGradient id="linear-gradient-2" x1="302.41" y1="111.97" x2="188.52" y2="309.24" gradientTransform="translate(-82 -72)" gradientUnits="userSpaceOnUse"><stop offset="0" stop-color="#fff44f" stop-opacity="0.8"/><stop offset="0.13" stop-color="#fff44f" stop-opacity="0.59"/><stop offset="0.25" stop-color="#fff44f" stop-opacity="0.43"/><stop offset="0.34" stop-color="#fff44f" stop-opacity="0.34"/><stop offset="0.4" stop-color="#fff44f" stop-opacity="0.3"/><stop offset="0.42" stop-color="#fff44f" stop-opacity="0.28"/><stop offset="0.63" stop-color="#fff44f" stop-opacity="0.13"/><stop offset="0.8" stop-color="#fff44f" stop-opacity="0.04"/><stop offset="0.9" stop-color="#fff44f" stop-opacity="0"/></linearGradient><linearGradient id="linear-gradient-3" x1="-548.64" y1="1186.87" x2="-391.86" y2="1040.88" gradientTransform="translate(613 -926)" gradientUnits="userSpaceOnUse"><stop offset="0" stop-color="#3a8ee6"/><stop offset="0.28" stop-color="#706df6"/><stop offset="0.44" stop-color="#9059ff"/><stop offset="0.64" stop-color="#a34df5"/><stop offset="1" stop-color="#c139e6"/></linearGradient><linearGradient id="linear-gradient-4" x1="361.32" y1="228.7" x2="321.91" y2="268.11" gradientTransform="translate(-82 -72)" gradientUnits="userSpaceOnUse"><stop offset="0" stop-color="#6e008b" stop-opacity="0.5"/><stop offset="0.5" stop-color="#c846cb" stop-opacity="0"/></linearGradient><linearGradient id="linear-gradient-5" x1="164.88" y1="276.01" x2="108.38" y2="238.44" gradientTransform="translate(-82 -72)" gradientUnits="userSpaceOnUse"><stop offset="0.14" stop-color="#6a2bea" stop-opacity="0"/><stop offset="0.34" stop-color="#642de4" stop-opacity="0.03"/><stop offset="0.55" stop-color="#5131d3" stop-opacity="0.12"/><stop offset="0.76" stop-color="#3139b7" stop-opacity="0.27"/><stop offset="0.98" stop-color="#054490" stop-opacity="0.48"/><stop offset="1" stop-color="#00458b" stop-opacity="0.5"/></linearGradient><linearGradient id="linear-gradient-6" x1="299.22" y1="314.27" x2="249.73" y2="348.81" gradientTransform="translate(-82 -72)" gradientUnits="userSpaceOnUse"><stop offset="0" stop-color="#6e008b" stop-opacity="0.5"/><stop offset="0.41" stop-color="#3a8ee6" stop-opacity="0"/></linearGradient></defs><title>FF_Lockwise_</title><path class="cls-1" d="M154,295c-13.33,0-25.65-4.39-34.69-12.36l0-.05a1090.54,1090.54,0,0,1-92.85-92.85l-.05-.05c-8-9-12.36-21.36-12.36-34.69s4.39-25.65,12.36-34.69l.05,0a1090.54,1090.54,0,0,1,92.85-92.85l0-.05c9-8,21.36-12.36,34.69-12.36s25.65,4.39,34.69,12.36l.05.05a1090.54,1090.54,0,0,1,92.85,92.85l.05,0c8,9,12.36,21.36,12.36,34.69s-4.39,25.65-12.36,34.69l0,.05c-5.76,6.46-9.51,10.63-15.27,16.84a14,14,0,0,1-20.56-19.09c5.58-6,9.24-10.08,14.85-16.37,7.16-8.14,7.16-24.09,0-32.23a1064.81,1064.81,0,0,0-90.51-90.51c-8.14-7.16-24.08-7.15-32.22,0a1064.81,1064.81,0,0,0-90.51,90.51c-7.16,8.14-7.16,24.09,0,32.23a1066.16,1066.16,0,0,0,90.51,90.5c8.13,7.15,24,7.16,32.19,0,11.42-10.34,22.49-20.09,33.43-30.63l-35.57-37.35-.1-.09a26.45,26.45,0,0,1,1.89-38.67l.42-.36a28.51,28.51,0,0,0,10.15-23,27.55,27.55,0,0,0-1.44-7.83c-4.36-13-15.7-17.56-24.86-17.56s-20.5,4.61-24.86,17.56a27.9,27.9,0,0,0-1.44,7.83,28.5,28.5,0,0,0,10.14,23l.16.14a26.44,26.44,0,0,1,2,38.54l-13.67,14.06a14,14,0,0,1-20.19-19.47l10.73-11a2.47,2.47,0,0,0,0-3.49,56.32,56.32,0,0,1-17.11-42.83,55.45,55.45,0,0,1,2.89-15.71c7.5-22.26,27.69-36.65,51.44-36.65s43.94,14.39,51.44,36.65a55.45,55.45,0,0,1,2.89,15.71A56.33,56.33,0,0,1,191,173.54a2.47,2.47,0,0,0-.08,3.49l39,40.71a19,19,0,0,1-.1,26.84c-13.18,13.07-27,25.27-40.94,37.93a.86.86,0,0,1-.14.13C179.65,290.61,167.33,295,154,295Z"/><path class="cls-2" d="M154,295c-13.33,0-25.65-4.39-34.69-12.36l0-.05a1090.54,1090.54,0,0,1-92.85-92.85l-.05-.05c-8-9-12.36-21.36-12.36-34.69s4.39-25.65,12.36-34.69l.05,0a1090.54,1090.54,0,0,1,92.85-92.85l0-.05c9-8,21.36-12.36,34.69-12.36s25.65,4.39,34.69,12.36l.05.05a1090.54,1090.54,0,0,1,92.85,92.85l.05,0c8,9,12.36,21.36,12.36,34.69s-4.39,25.65-12.36,34.69l0,.05c-5.76,6.46-9.51,10.63-15.27,16.84a14,14,0,0,1-20.56-19.09c5.58-6,9.24-10.08,14.85-16.37,7.16-8.14,7.16-24.09,0-32.23a1064.81,1064.81,0,0,0-90.51-90.51c-8.14-7.16-24.08-7.15-32.22,0a1064.81,1064.81,0,0,0-90.51,90.51c-7.16,8.14-7.16,24.09,0,32.23a1066.16,1066.16,0,0,0,90.51,90.5c8.13,7.15,24,7.16,32.19,0,11.42-10.34,22.49-20.09,33.43-30.63l-35.57-37.35-.1-.09a26.45,26.45,0,0,1,1.89-38.67l.42-.36a28.51,28.51,0,0,0,10.15-23,27.55,27.55,0,0,0-1.44-7.83c-4.36-13-15.7-17.56-24.86-17.56s-20.5,4.61-24.86,17.56a27.9,27.9,0,0,0-1.44,7.83,28.5,28.5,0,0,0,10.14,23l.16.14a26.44,26.44,0,0,1,2,38.54l-13.67,14.06a14,14,0,0,1-20.19-19.47l10.73-11a2.47,2.47,0,0,0,0-3.49,56.32,56.32,0,0,1-17.11-42.83,55.45,55.45,0,0,1,2.89-15.71c7.5-22.26,27.69-36.65,51.44-36.65s43.94,14.39,51.44,36.65a55.45,55.45,0,0,1,2.89,15.71A56.33,56.33,0,0,1,191,173.54a2.47,2.47,0,0,0-.08,3.49l39,40.71a19,19,0,0,1-.1,26.84c-13.18,13.07-27,25.27-40.94,37.93a.86.86,0,0,1-.14.13C179.65,290.61,167.33,295,154,295Z"/><path class="cls-3" d="M48.79,137.31l45.7-48.23C79,104.42,64.1,120.18,48.79,137.31Z"/><path class="cls-4" d="M276.89,155.54c-9.07-9.38-17.83-18.4-16.27-16.65,7.16,8.14,7.16,24.09,0,32.23-5.61,6.29-9.27,10.36-14.85,16.37a14,14,0,0,0,20.56,19.09c4-4.27,7-7.57,10.33-11.32.18-.2.56-.62,1.08-1.22A28.36,28.36,0,0,0,276.89,155.54Zm-73.41,75.51c-10.93,10.53-22,20.27-33.4,30.6-8.15,7.13-24.06,7.12-32.19,0a1066.16,1066.16,0,0,1-90.51-90.5c-7.16-8.14-7.16-24.09,0-32.23l1.41-1.58L31.13,155.83a28.37,28.37,0,0,0-.57,38.53c2.66,3,4.82,5.35,5.72,6.34a1086.36,1086.36,0,0,0,83,81.89l0,.05c9,8,21.36,12.36,34.69,12.36s25.65-4.39,34.69-12.36a.86.86,0,0,0,.14-.13c6.79-6.15,13.54-12.19,20.19-18.28a18.5,18.5,0,0,0,.92-26.36Z"/><path class="cls-5" d="M276.89,155.54c-9.07-9.38-17.83-18.4-16.27-16.65,7.16,8.14,7.16,24.09,0,32.23-5.61,6.29-9.27,10.36-14.85,16.37a14,14,0,0,0,20.56,19.09c4-4.27,7-7.57,10.33-11.32.18-.2.56-.62,1.08-1.22A28.36,28.36,0,0,0,276.89,155.54Z"/><path class="cls-6" d="M80.31,206.6c-11-11.33-21.85-23-32.93-35.48-7.16-8.14-7.16-24.09,0-32.23l1.41-1.58L31.13,155.83a28.37,28.37,0,0,0-.57,38.53c2.66,3,4.82,5.35,5.72,6.34,14.61,16,29,31,44,45.63Z"/><path class="cls-7" d="M209.94,237.87l-6.46-6.82c-10.93,10.53-22,20.27-33.4,30.6-3.63,3.18-8.8,4.93-14.14,5.27v28c12.58-.4,24.15-4.74,32.75-12.32a.86.86,0,0,0,.14-.13c6.79-6.15,13.54-12.19,20.19-18.28A18.5,18.5,0,0,0,209.94,237.87Z"/></svg>