<svg id="Assets" xmlns="http://www.w3.org/2000/svg" xmlns:xlink="http://www.w3.org/1999/xlink" viewBox="0 0 1793 504"><defs><style>.cls-1{font-size:153.3px;font-family:FirefoxSharpSans-Medium, Firefox Sharp Sans;letter-spacing:-0.05em;}.cls-1,.cls-9{fill:#20133a;}.cls-2{letter-spacing:-0.02em;}.cls-3{letter-spacing:-0.02em;}.cls-4{letter-spacing:0em;}.cls-5{letter-spacing:-0.03em;}.cls-6{letter-spacing:-0.02em;}.cls-7{letter-spacing:-0.02em;}.cls-8{letter-spacing:-0.01em;}.cls-10{fill:url(#linear-gradient);}.cls-11{fill:url(#linear-gradient-2);}.cls-12{fill:none;}.cls-13{fill:url(#linear-gradient-3);}.cls-14{fill:url(#linear-gradient-4);}.cls-15{opacity:0.9;fill:url(#linear-gradient-5);}.cls-16{fill:url(#linear-gradient-6);}</style><linearGradient id="linear-gradient" x1="395.75" y1="217.04" x2="284.67" y2="409.45" gradientTransform="translate(-82 -72)" gradientUnits="userSpaceOnUse"><stop offset="0" stop-color="#ff980e"/><stop offset="0.21" stop-color="#ff7139"/><stop offset="0.36" stop-color="#ff5854"/><stop offset="0.46" stop-color="#ff4f5e"/><stop offset="0.69" stop-color="#ff3750"/><stop offset="0.86" stop-color="#f92261"/><stop offset="1" stop-color="#f5156c"/></linearGradient><linearGradient id="linear-gradient-2" x1="400.41" y1="208.97" x2="286.52" y2="406.24" gradientTransform="translate(-82 -72)" gradientUnits="userSpaceOnUse"><stop offset="0" stop-color="#fff44f" stop-opacity="0.8"/><stop offset="0.13" stop-color="#fff44f" stop-opacity="0.59"/><stop offset="0.25" stop-color="#fff44f" stop-opacity="0.43"/><stop offset="0.34" stop-color="#fff44f" stop-opacity="0.34"/><stop offset="0.4" stop-color="#fff44f" stop-opacity="0.3"/><stop offset="0.42" stop-color="#fff44f" stop-opacity="0.28"/><stop offset="0.63" stop-color="#fff44f" stop-opacity="0.13"/><stop offset="0.8" stop-color="#fff44f" stop-opacity="0.04"/><stop offset="0.9" stop-color="#fff44f" stop-opacity="0"/></linearGradient><linearGradient id="linear-gradient-3" x1="244.36" y1="430.87" x2="401.14" y2="284.88" gradientTransform="translate(-82 -73)" gradientUnits="userSpaceOnUse"><stop offset="0" stop-color="#3a8ee6"/><stop offset="0.28" stop-color="#706df6"/><stop offset="0.44" stop-color="#9059ff"/><stop offset="0.64" stop-color="#a34df5"/><stop offset="1" stop-color="#c139e6"/></linearGradient><linearGradient id="linear-gradient-4" x1="459.32" y1="325.7" x2="419.91" y2="365.11" gradientTransform="translate(-82 -72)" gradientUnits="userSpaceOnUse"><stop offset="0" stop-color="#6e008b" stop-opacity="0.5"/><stop offset="0.5" stop-color="#c846cb" stop-opacity="0"/></linearGradient><linearGradient id="linear-gradient-5" x1="262.88" y1="373.01" x2="206.38" y2="335.44" gradientTransform="translate(-82 -72)" gradientUnits="userSpaceOnUse"><stop offset="0.14" stop-color="#6a2bea" stop-opacity="0"/><stop offset="0.34" stop-color="#642de4" stop-opacity="0.03"/><stop offset="0.55" stop-color="#5131d3" stop-opacity="0.12"/><stop offset="0.76" stop-color="#3139b7" stop-opacity="0.27"/><stop offset="0.98" stop-color="#054490" stop-opacity="0.48"/><stop offset="1" stop-color="#00458b" stop-opacity="0.5"/></linearGradient><linearGradient id="linear-gradient-6" x1="397.22" y1="411.27" x2="347.73" y2="445.81" gradientTransform="translate(-82 -72)" gradientUnits="userSpaceOnUse"><stop offset="0" stop-color="#6e008b" stop-opacity="0.5"/><stop offset="0.41" stop-color="#3a8ee6" stop-opacity="0"/></linearGradient></defs><title>FF_Lockwise_</title><text class="cls-1" transform="translate(980 307.83)">L<tspan class="cls-2" x="83.78" y="0">o</tspan><tspan class="cls-3" x="181.62" y="0">c</tspan><tspan class="cls-4" x="275.75" y="0">k</tspan><tspan class="cls-5" x="363.08" y="0">w</tspan><tspan class="cls-6" x="499.54" y="0">i</tspan><tspan class="cls-7" x="532.07" y="0">s</tspan><tspan class="cls-8" x="608.22" y="0">e</tspan></text><path class="cls-9" d="M448.29,195.8h74.87v20.25H469.77v27.46h53.39v20.1H469.77V307.8H448.29ZM548.63,188c7.36,0,12.43,5.37,12.43,12.58s-4.91,12.58-12.59,12.58c-7.36,0-12.42-5.21-12.42-12.27C536.05,193.19,541.72,188,548.63,188ZM538,225h21.17V307.8H538Zm82.55,23a17.1,17.1,0,0,0-10.28-3.68c-8.6,0-13.51,5.52-13.51,17.64V307.8h-21V225h20.1v12c4.3-9.36,10.9-12.74,19.8-12.74a25.1,25.1,0,0,1,14.11,4.3Zm8.74,18.87c0-23.78,17.64-43.57,42.65-43.57s42.5,17.64,42.5,42.19v8.75H650c2.3,10.43,10.44,17.34,22.86,17.34,9.67,0,16.27-4.61,20.56-12.28l17.65,10.59c-8.75,12.89-21.18,19.64-38.82,19.64C645.44,309.49,629.33,291.54,629.33,266.83Zm21-9.36h43.57c-2.3-10.58-10.89-16.41-22.09-16.41C661.7,241.06,653.27,246.73,650.35,257.47ZM719.7,225h14.88v-4.14c0-22.56,9.51-31.92,30.38-31.92h7.37v18.26h-6c-9.82,0-12,3.38-12,13.66V225h18v19h-17.5V307.8H734.58V244H719.7Zm56.61,41.42c0-23.78,18.11-43.11,43.27-43.11a43.12,43.12,0,1,1,0,86.23C793.81,309.49,776.31,290.62,776.31,266.37Zm66,0c0-13.19-9.82-23.47-22.71-23.47-13,0-22.71,10.28-22.71,23.47s9.67,23.48,22.71,23.48C832.47,289.85,842.29,279.57,842.29,266.37Zm49.1-.92L861.47,225h24.85L904,250.42,922.07,225h24.4L916.09,265.3,948,307.8H923.3l-19.79-27-19.18,27h-24.7Z"/><path class="cls-10" d="M252,392c-13.33,0-25.65-4.39-34.69-12.36l-.05-.05a1090.54,1090.54,0,0,1-92.85-92.85l0-.05c-8-9-12.36-21.36-12.36-34.69s4.39-25.65,12.36-34.69l0-.05a1090.54,1090.54,0,0,1,92.85-92.85l.05,0c9-8,21.36-12.36,34.69-12.36s25.65,4.39,34.69,12.36l.05,0a1090.54,1090.54,0,0,1,92.85,92.85l.05.05c8,9,12.36,21.36,12.36,34.69s-4.39,25.65-12.36,34.69l0,.05c-5.76,6.46-9.51,10.63-15.27,16.84a14,14,0,0,1-20.56-19.09c5.58-6,9.24-10.08,14.85-16.37,7.16-8.14,7.16-24.09,0-32.23a1064.81,1064.81,0,0,0-90.51-90.51c-8.14-7.16-24.08-7.15-32.22,0a1064.81,1064.81,0,0,0-90.51,90.51c-7.16,8.14-7.16,24.09,0,32.23a1066.16,1066.16,0,0,0,90.51,90.5c8.13,7.15,24,7.16,32.19,0,11.42-10.34,22.49-20.09,33.43-30.63l-35.57-37.35-.1-.09a26.45,26.45,0,0,1,1.89-38.67l.42-.36a28.51,28.51,0,0,0,10.15-23,27.55,27.55,0,0,0-1.44-7.83c-4.36-12.95-15.7-17.56-24.86-17.56s-20.5,4.61-24.86,17.56a27.9,27.9,0,0,0-1.44,7.83,28.5,28.5,0,0,0,10.14,23l.16.14a26.44,26.44,0,0,1,2,38.54l-13.67,14.06a14,14,0,0,1-20.19-19.47l10.73-11a2.47,2.47,0,0,0-.05-3.49,56.32,56.32,0,0,1-17.11-42.83,55.45,55.45,0,0,1,2.89-15.71c7.5-22.26,27.69-36.65,51.44-36.65s43.94,14.39,51.44,36.65a55.45,55.45,0,0,1,2.89,15.71A56.33,56.33,0,0,1,289,270.54a2.47,2.47,0,0,0-.08,3.49l39,40.71a19,19,0,0,1-.1,26.84c-13.18,13.07-27,25.27-40.94,37.93a.86.86,0,0,1-.14.13C277.65,387.61,265.33,392,252,392Z"/><path class="cls-11" d="M252,392c-13.33,0-25.65-4.39-34.69-12.36l-.05-.05a1090.54,1090.54,0,0,1-92.85-92.85l0-.05c-8-9-12.36-21.36-12.36-34.69s4.39-25.65,12.36-34.69l0-.05a1090.54,1090.54,0,0,1,92.85-92.85l.05,0c9-8,21.36-12.36,34.69-12.36s25.65,4.39,34.69,12.36l.05,0a1090.54,1090.54,0,0,1,92.85,92.85l.05.05c8,9,12.36,21.36,12.36,34.69s-4.39,25.65-12.36,34.69l0,.05c-5.76,6.46-9.51,10.63-15.27,16.84a14,14,0,0,1-20.56-19.09c5.58-6,9.24-10.08,14.85-16.37,7.16-8.14,7.16-24.09,0-32.23a1064.81,1064.81,0,0,0-90.51-90.51c-8.14-7.16-24.08-7.15-32.22,0a1064.81,1064.81,0,0,0-90.51,90.51c-7.16,8.14-7.16,24.09,0,32.23a1066.16,1066.16,0,0,0,90.51,90.5c8.13,7.15,24,7.16,32.19,0,11.42-10.34,22.49-20.09,33.43-30.63l-35.57-37.35-.1-.09a26.45,26.45,0,0,1,1.89-38.67l.42-.36a28.51,28.51,0,0,0,10.15-23,27.55,27.55,0,0,0-1.44-7.83c-4.36-12.95-15.7-17.56-24.86-17.56s-20.5,4.61-24.86,17.56a27.9,27.9,0,0,0-1.44,7.83,28.5,28.5,0,0,0,10.14,23l.16.14a26.44,26.44,0,0,1,2,38.54l-13.67,14.06a14,14,0,0,1-20.19-19.47l10.73-11a2.47,2.47,0,0,0-.05-3.49,56.32,56.32,0,0,1-17.11-42.83,55.45,55.45,0,0,1,2.89-15.71c7.5-22.26,27.69-36.65,51.44-36.65s43.94,14.39,51.44,36.65a55.45,55.45,0,0,1,2.89,15.71A56.33,56.33,0,0,1,289,270.54a2.47,2.47,0,0,0-.08,3.49l39,40.71a19,19,0,0,1-.1,26.84c-13.18,13.07-27,25.27-40.94,37.93a.86.86,0,0,1-.14.13C277.65,387.61,265.33,392,252,392Z"/><path class="cls-12" d="M146.79,234.31l45.7-48.23C177,201.42,162.1,217.18,146.79,234.31Z"/><path class="cls-13" d="M374.89,252.54c-9.07-9.38-17.83-18.4-16.27-16.65,7.16,8.14,7.16,24.09,0,32.23-5.61,6.29-9.27,10.36-14.85,16.37a14,14,0,0,0,20.56,19.09c4-4.27,7-7.57,10.33-11.32.18-.2.56-.62,1.08-1.22A28.36,28.36,0,0,0,374.89,252.54Zm-73.41,75.51c-10.93,10.53-22,20.27-33.4,30.6-8.15,7.13-24.06,7.12-32.19,0a1066.16,1066.16,0,0,1-90.51-90.5c-7.16-8.14-7.16-24.09,0-32.23l1.41-1.58-17.66,18.52a28.37,28.37,0,0,0-.57,38.53c2.66,3,4.82,5.35,5.72,6.34a1086.36,1086.36,0,0,0,83,81.89l.05.05c9,8,21.36,12.36,34.69,12.36s25.65-4.39,34.69-12.36a.86.86,0,0,0,.14-.13c6.79-6.15,13.54-12.19,20.19-18.28a18.5,18.5,0,0,0,.92-26.36Z"/><path class="cls-14" d="M374.89,252.54c-9.07-9.38-17.83-18.4-16.27-16.65,7.16,8.14,7.16,24.09,0,32.23-5.61,6.29-9.27,10.36-14.85,16.37a14,14,0,0,0,20.56,19.09c4-4.27,7-7.57,10.33-11.32.18-.2.56-.62,1.08-1.22A28.36,28.36,0,0,0,374.89,252.54Z"/><path class="cls-15" d="M178.31,303.6c-11-11.33-21.85-23-32.93-35.48-7.16-8.14-7.16-24.09,0-32.23l1.41-1.58-17.66,18.52a28.37,28.37,0,0,0-.57,38.53c2.66,3,4.82,5.35,5.72,6.34,14.61,16,29,31,44,45.63Z"/><path class="cls-16" d="M307.94,334.87l-6.46-6.82c-10.93,10.53-22,20.27-33.4,30.6-3.63,3.18-8.8,4.93-14.14,5.27v28c12.58-.4,24.15-4.74,32.75-12.32a.86.86,0,0,0,.14-.13c6.79-6.15,13.54-12.19,20.19-18.28A18.5,18.5,0,0,0,307.94,334.87Z"/></svg>