<svg id="Assets" xmlns="http://www.w3.org/2000/svg" xmlns:xlink="http://www.w3.org/1999/xlink" viewBox="0 0 735 504"><defs><style>.cls-1{fill:#20133a;}.cls-2{fill:url(#linear-gradient);}.cls-3{fill:url(#linear-gradient-2);}.cls-4{fill:none;}.cls-5{fill:url(#linear-gradient-3);}.cls-6{fill:url(#linear-gradient-4);}.cls-7{opacity:0.9;fill:url(#linear-gradient-5);}.cls-8{fill:url(#linear-gradient-6);}</style><linearGradient id="linear-gradient" x1="510.75" y1="161.04" x2="399.66" y2="353.45" gradientTransform="translate(-82 -72)" gradientUnits="userSpaceOnUse"><stop offset="0" stop-color="#ff980e"/><stop offset="0.21" stop-color="#ff7139"/><stop offset="0.36" stop-color="#ff5854"/><stop offset="0.46" stop-color="#ff4f5e"/><stop offset="0.69" stop-color="#ff3750"/><stop offset="0.86" stop-color="#f92261"/><stop offset="1" stop-color="#f5156c"/></linearGradient><linearGradient id="linear-gradient-2" x1="515.41" y1="152.97" x2="401.52" y2="350.24" gradientTransform="translate(-82 -72)" gradientUnits="userSpaceOnUse"><stop offset="0" stop-color="#fff44f" stop-opacity="0.8"/><stop offset="0.13" stop-color="#fff44f" stop-opacity="0.59"/><stop offset="0.25" stop-color="#fff44f" stop-opacity="0.43"/><stop offset="0.34" stop-color="#fff44f" stop-opacity="0.34"/><stop offset="0.4" stop-color="#fff44f" stop-opacity="0.3"/><stop offset="0.42" stop-color="#fff44f" stop-opacity="0.28"/><stop offset="0.63" stop-color="#fff44f" stop-opacity="0.13"/><stop offset="0.8" stop-color="#fff44f" stop-opacity="0.04"/><stop offset="0.9" stop-color="#fff44f" stop-opacity="0"/></linearGradient><linearGradient id="linear-gradient-3" x1="-1372.64" y1="-205.13" x2="-1215.86" y2="-351.12" gradientTransform="translate(1650 507)" gradientUnits="userSpaceOnUse"><stop offset="0" stop-color="#3a8ee6"/><stop offset="0.28" stop-color="#706df6"/><stop offset="0.44" stop-color="#9059ff"/><stop offset="0.64" stop-color="#a34df5"/><stop offset="1" stop-color="#c139e6"/></linearGradient><linearGradient id="linear-gradient-4" x1="574.31" y1="269.7" x2="534.91" y2="309.11" gradientTransform="translate(-82 -72)" gradientUnits="userSpaceOnUse"><stop offset="0" stop-color="#6e008b" stop-opacity="0.5"/><stop offset="0.5" stop-color="#c846cb" stop-opacity="0"/></linearGradient><linearGradient id="linear-gradient-5" x1="377.87" y1="317.01" x2="321.38" y2="279.44" gradientTransform="translate(-82 -72)" gradientUnits="userSpaceOnUse"><stop offset="0.14" stop-color="#6a2bea" stop-opacity="0"/><stop offset="0.34" stop-color="#642de4" stop-opacity="0.03"/><stop offset="0.55" stop-color="#5131d3" stop-opacity="0.12"/><stop offset="0.76" stop-color="#3139b7" stop-opacity="0.27"/><stop offset="0.98" stop-color="#054490" stop-opacity="0.48"/><stop offset="1" stop-color="#00458b" stop-opacity="0.5"/></linearGradient><linearGradient id="linear-gradient-6" x1="512.22" y1="355.27" x2="462.73" y2="389.81" gradientTransform="translate(-82 -72)" gradientUnits="userSpaceOnUse"><stop offset="0" stop-color="#6e008b" stop-opacity="0.5"/><stop offset="0.41" stop-color="#3a8ee6" stop-opacity="0"/></linearGradient></defs><title>FF_Lockwise_</title><path class="cls-1" d="M333.93,391.92h6.45v49.86h28.89V448H333.93Z"/><path class="cls-1" d="M373.38,427.26a21.55,21.55,0,1,1,21.51,21.59A21.3,21.3,0,0,1,373.38,427.26Zm36.72,0c0-8.84-6.61-15.68-15.21-15.68s-15.14,6.84-15.14,15.68,6.53,15.59,15.14,15.59S410.1,436.09,410.1,427.26Z"/><path class="cls-1" d="M422.41,427.26a21.29,21.29,0,0,1,21.67-21.59,20.87,20.87,0,0,1,19.59,12.6l-5.76,2.53A14.67,14.67,0,0,0,444,411.58a15.32,15.32,0,0,0-15.29,15.68,15.51,15.51,0,0,0,15.52,15.67c6.69,0,11.53-4.15,13.83-9.6l5.84,2.45a20.74,20.74,0,0,1-19.74,13.07A21.41,21.41,0,0,1,422.41,427.26Z"/><path class="cls-1" d="M486.33,427.79l-8.83,9.38V448h-6.23V387.46h6.23V430l22-23.44h7.91l-16.44,17.37L508.38,448h-7.6Z"/><path class="cls-1" d="M512,406.51h6.6L529,439.4l12.68-32.89h5.84l12.37,32.65,10.83-32.65h6.53L562.9,448h-5.68l-12.76-32.88L531.71,448h-6.15Z"/><path class="cls-1" d="M586.58,388.77a5,5,0,1,1-4.92,5A4.84,4.84,0,0,1,586.58,388.77Zm-3.15,17.74h6.38V448h-6.38Z"/><path class="cls-1" d="M596,440.16l5.46-3.68c2.84,4.07,7.07,6.76,13.37,6.76,6.45,0,9.83-3.08,9.83-7.23,0-4.6-5.68-5.53-11.75-6.76-7.15-1.38-14.75-3.3-14.75-11.6,0-6.45,5.6-12.14,15.44-12.06,7.68,0,12.91,2.84,16.59,7.38l-5.22,3.53A13.4,13.4,0,0,0,613.56,411c-6.38,0-9,2.76-9,6.61,0,4.3,5,5.14,11.45,6.45,7.14,1.38,15,3.38,15,11.91,0,6.53-5.53,13-16.37,12.91C605.57,448.85,599.65,445.46,596,440.16Z"/><path class="cls-1" d="M636.21,427.41a21.27,21.27,0,0,1,21.66-21.74C670,405.67,679,414.5,679,426.8v2.84H642.35c.92,7.91,7,13.52,15.75,13.52,6.61,0,11.07-2.92,13.91-8l5.38,3.15c-4.23,6.61-10.22,10.53-19.29,10.53C644.81,448.85,636.21,439.55,636.21,427.41Zm6.3-3.3h30c-1-7.84-6.61-12.83-14.68-12.83A15.4,15.4,0,0,0,642.51,424.11Z"/><path class="cls-1" d="M55.47,392H92.81v10.1H66.19v13.7H92.81v10H66.19v22H55.47Zm50-3.9a6.28,6.28,0,0,1-.07,12.55,5.93,5.93,0,0,1-6.2-6.12A6.19,6.19,0,0,1,105.51,388.11Zm-5.28,18.44h10.56v41.32H100.23ZM141.4,418a8.54,8.54,0,0,0-5.13-1.84c-4.28,0-6.73,2.76-6.73,8.8v22.88H119.06V406.55h10v6c2.14-4.67,5.43-6.35,9.87-6.35a12.57,12.57,0,0,1,7,2.14Zm4.36,9.41c0-11.86,8.8-21.73,21.27-21.73s21.2,8.8,21.2,21v4.36H156.09c1.15,5.21,5.21,8.65,11.4,8.65a11.08,11.08,0,0,0,10.26-6.12l8.8,5.28c-4.37,6.43-10.56,9.79-19.36,9.79C153.8,448.71,145.76,439.76,145.76,427.44Zm10.49-4.67H178c-1.15-5.28-5.44-8.18-11-8.18A10.61,10.61,0,0,0,156.25,422.77Zm34.58-16.22h7.42v-2.06c0-11.25,4.75-15.92,15.15-15.92h3.68v9.11h-3c-4.9,0-6,1.68-6,6.81v2.06h9V416h-8.73v31.83h-10.1V416h-7.42Zm28.24,20.66a21.15,21.15,0,0,1,21.57-21.5,21.5,21.5,0,1,1,0,43C227.79,448.71,219.07,439.3,219.07,427.21Zm32.9,0a11.34,11.34,0,0,0-11.33-11.7c-6.5,0-11.32,5.12-11.32,11.7s4.82,11.71,11.32,11.71A11.35,11.35,0,0,0,252,427.21Zm24.48-.46-14.92-20.2h12.4l8.8,12.7,9-12.7h12.16l-15.15,20.13,15.92,21.19H292.37L282.5,434.4l-9.57,13.47H260.61Z"/><path class="cls-2" d="M367,336c-13.33,0-25.65-4.39-34.69-12.36l-.05-.05a1092.12,1092.12,0,0,1-92.86-92.85l0-.05c-8-9-12.36-21.36-12.36-34.69s4.39-25.65,12.36-34.69l0-.05a1092.12,1092.12,0,0,1,92.86-92.85l.05,0c9-8,21.36-12.36,34.69-12.36s25.65,4.39,34.69,12.36l.05,0a1090.54,1090.54,0,0,1,92.85,92.85l.05.05c8,9,12.36,21.36,12.36,34.69s-4.39,25.65-12.36,34.69l-.05.05c-5.75,6.46-9.5,10.63-15.26,16.84a14,14,0,0,1-20.56-19.09c5.58-6,9.24-10.08,14.85-16.37,7.16-8.14,7.16-24.09,0-32.23a1064.81,1064.81,0,0,0-90.51-90.51c-8.14-7.16-24.08-7.15-32.22,0a1064.81,1064.81,0,0,0-90.51,90.51c-7.16,8.14-7.16,24.09,0,32.23a1064.69,1064.69,0,0,0,90.51,90.5c8.13,7.15,24,7.16,32.19,0,11.42-10.34,22.49-20.09,33.43-30.63l-35.57-37.35-.1-.09a26.44,26.44,0,0,1,1.88-38.67l.43-.36a28.51,28.51,0,0,0,10.15-23,27.9,27.9,0,0,0-1.44-7.83c-4.36-12.95-15.7-17.56-24.86-17.56s-20.5,4.61-24.86,17.56a27.55,27.55,0,0,0-1.44,7.83,28.47,28.47,0,0,0,10.14,23l.16.14a26.44,26.44,0,0,1,2,38.54l-13.67,14.06a14,14,0,0,1-20.19-19.47l10.73-11a2.47,2.47,0,0,0-.06-3.49,56.31,56.31,0,0,1-17.1-42.83,55.45,55.45,0,0,1,2.89-15.71c7.5-22.26,27.69-36.65,51.44-36.65s43.94,14.39,51.44,36.65a55.8,55.8,0,0,1,2.89,15.71A56.37,56.37,0,0,1,404,214.54a2.46,2.46,0,0,0-.08,3.49l39,40.71a19,19,0,0,1-.1,26.84c-13.18,13.07-27,25.27-40.94,37.93l-.14.13C392.65,331.61,380.33,336,367,336Z"/><path class="cls-3" d="M367,336c-13.33,0-25.65-4.39-34.69-12.36l-.05-.05a1092.12,1092.12,0,0,1-92.86-92.85l0-.05c-8-9-12.36-21.36-12.36-34.69s4.39-25.65,12.36-34.69l0-.05a1092.12,1092.12,0,0,1,92.86-92.85l.05,0c9-8,21.36-12.36,34.69-12.36s25.65,4.39,34.69,12.36l.05,0a1090.54,1090.54,0,0,1,92.85,92.85l.05.05c8,9,12.36,21.36,12.36,34.69s-4.39,25.65-12.36,34.69l-.05.05c-5.75,6.46-9.5,10.63-15.26,16.84a14,14,0,0,1-20.56-19.09c5.58-6,9.24-10.08,14.85-16.37,7.16-8.14,7.16-24.09,0-32.23a1064.81,1064.81,0,0,0-90.51-90.51c-8.14-7.16-24.08-7.15-32.22,0a1064.81,1064.81,0,0,0-90.51,90.51c-7.16,8.14-7.16,24.09,0,32.23a1064.69,1064.69,0,0,0,90.51,90.5c8.13,7.15,24,7.16,32.19,0,11.42-10.34,22.49-20.09,33.43-30.63l-35.57-37.35-.1-.09a26.44,26.44,0,0,1,1.88-38.67l.43-.36a28.51,28.51,0,0,0,10.15-23,27.9,27.9,0,0,0-1.44-7.83c-4.36-12.95-15.7-17.56-24.86-17.56s-20.5,4.61-24.86,17.56a27.55,27.55,0,0,0-1.44,7.83,28.47,28.47,0,0,0,10.14,23l.16.14a26.44,26.44,0,0,1,2,38.54l-13.67,14.06a14,14,0,0,1-20.19-19.47l10.73-11a2.47,2.47,0,0,0-.06-3.49,56.31,56.31,0,0,1-17.1-42.83,55.45,55.45,0,0,1,2.89-15.71c7.5-22.26,27.69-36.65,51.44-36.65s43.94,14.39,51.44,36.65a55.8,55.8,0,0,1,2.89,15.71A56.37,56.37,0,0,1,404,214.54a2.46,2.46,0,0,0-.08,3.49l39,40.71a19,19,0,0,1-.1,26.84c-13.18,13.07-27,25.27-40.94,37.93l-.14.13C392.65,331.61,380.33,336,367,336Z"/><path class="cls-4" d="M261.79,178.31l45.7-48.23C292,145.42,277.09,161.18,261.79,178.31Z"/><path class="cls-5" d="M489.89,196.54c-9.07-9.38-17.83-18.4-16.27-16.65,7.16,8.14,7.16,24.09,0,32.23-5.61,6.29-9.27,10.36-14.85,16.37a14,14,0,0,0,20.56,19.09c4-4.27,7-7.57,10.33-11.32l1.08-1.22A28.36,28.36,0,0,0,489.89,196.54Zm-73.41,75.51c-10.94,10.53-22,20.27-33.4,30.6-8.15,7.13-24.06,7.12-32.19,0a1064.69,1064.69,0,0,1-90.51-90.5c-7.16-8.14-7.16-24.09,0-32.23l1.41-1.58-17.66,18.52a28.37,28.37,0,0,0-.57,38.53c2.66,3,4.82,5.35,5.72,6.34a1086.36,1086.36,0,0,0,83,81.89l.05.05c9,8,21.36,12.36,34.69,12.36s25.65-4.39,34.69-12.36l.14-.13c6.79-6.15,13.53-12.19,20.19-18.28a18.51,18.51,0,0,0,.92-26.36Z"/><path class="cls-6" d="M489.89,196.54c-9.07-9.38-17.83-18.4-16.27-16.65,7.16,8.14,7.16,24.09,0,32.23-5.61,6.29-9.27,10.36-14.85,16.37a14,14,0,0,0,20.56,19.09c4-4.27,7-7.57,10.33-11.32l1.08-1.22A28.36,28.36,0,0,0,489.89,196.54Z"/><path class="cls-7" d="M293.31,247.6c-11-11.33-21.85-23-32.93-35.48-7.16-8.14-7.16-24.09,0-32.23l1.41-1.58-17.66,18.52a28.37,28.37,0,0,0-.57,38.53c2.66,3,4.82,5.35,5.72,6.34,14.61,16,29,31,44,45.63Z"/><path class="cls-8" d="M422.94,278.87l-6.46-6.82c-10.94,10.53-22,20.27-33.4,30.6-3.63,3.18-8.81,4.93-14.14,5.27v28c12.58-.4,24.15-4.74,32.75-12.32l.14-.13c6.79-6.15,13.53-12.19,20.19-18.28A18.51,18.51,0,0,0,422.94,278.87Z"/></svg>