<?xml version="1.0" encoding="UTF-8" standalone="no"?>
<!-- Created with Inkscape (http://www.inkscape.org/) -->

<svg
   xmlns:dc="http://purl.org/dc/elements/1.1/"
   xmlns:cc="http://creativecommons.org/ns#"
   xmlns:rdf="http://www.w3.org/1999/02/22-rdf-syntax-ns#"
   xmlns:svg="http://www.w3.org/2000/svg"
   xmlns="http://www.w3.org/2000/svg"
   xmlns:sodipodi="http://sodipodi.sourceforge.net/DTD/sodipodi-0.dtd"
   xmlns:inkscape="http://www.inkscape.org/namespaces/inkscape"
   version="1.1"
   id="svg2"
   xml:space="preserve"
   width="576"
   height="519.85065"
   viewBox="0 0 576 519.85065"
   sodipodi:docname="A-Frame.svg"
   inkscape:version="0.92.3 (2405546, 2018-03-11)"><metadata
     id="metadata8"><rdf:RDF><cc:Work
         rdf:about=""><dc:format>image/svg+xml</dc:format><dc:type
           rdf:resource="http://purl.org/dc/dcmitype/StillImage" /><dc:title /></cc:Work></rdf:RDF></metadata><defs
     id="defs6"><clipPath
       clipPathUnits="userSpaceOnUse"
       id="clipPath22"><path
         d="M 0,389.888 H 432 V 0 H 0 Z"
         id="path20"
         inkscape:connector-curvature="0" /></clipPath><clipPath
       clipPathUnits="userSpaceOnUse"
       id="clipPath30"><path
         d="M 104.687,186.069 H 336.748 V 54.3268 H 104.687 Z"
         id="path28"
         inkscape:connector-curvature="0" /></clipPath><clipPath
       clipPathUnits="userSpaceOnUse"
       id="clipPath78"><path
         d="M 0,389.888 H 432 V 0 H 0 Z"
         id="path76"
         inkscape:connector-curvature="0" /></clipPath><clipPath
       clipPathUnits="userSpaceOnUse"
       id="clipPath86"><path
         d="m 58.4166,130.5 h 26.0001 v -15 H 58.4166 Z"
         id="path84"
         inkscape:connector-curvature="0" /></clipPath><clipPath
       clipPathUnits="userSpaceOnUse"
       id="clipPath102"><path
         d="m 68.833,140.125 v -17.291 c 0,-0.645 1.157,-1.167 2.584,-1.167 v 0 c 1.426,0 2.583,0.522 2.583,1.167 v 0 17.291 z"
         id="path100"
         inkscape:connector-curvature="0" /></clipPath><linearGradient
       x1="0"
       y1="0"
       x2="1"
       y2="0"
       gradientUnits="userSpaceOnUse"
       gradientTransform="matrix(5.166687,0,0,-5.166687,68.833321,130.89584)"
       spreadMethod="pad"
       id="linearGradient114"><stop
         style="stop-opacity:1;stop-color:#6e5146"
         offset="0"
         id="stop108" /><stop
         style="stop-opacity:1;stop-color:#b68573"
         offset="0.994898"
         id="stop110" /><stop
         style="stop-opacity:1;stop-color:#b68573"
         offset="1"
         id="stop112" /></linearGradient><clipPath
       clipPathUnits="userSpaceOnUse"
       id="clipPath124"><path
         d="M 0,389.888 H 432 V 0 H 0 Z"
         id="path122"
         inkscape:connector-curvature="0" /></clipPath><clipPath
       clipPathUnits="userSpaceOnUse"
       id="clipPath144"><path
         d="m 349.439,130.5 h 26 v -15 h -26 z"
         id="path142"
         inkscape:connector-curvature="0" /></clipPath><clipPath
       clipPathUnits="userSpaceOnUse"
       id="clipPath160"><path
         d="m 359.855,140.125 v -17.291 c 0,-0.645 1.157,-1.167 2.584,-1.167 v 0 c 1.426,0 2.583,0.522 2.583,1.167 v 0 17.291 z"
         id="path158"
         inkscape:connector-curvature="0" /></clipPath><linearGradient
       x1="0"
       y1="0"
       x2="1"
       y2="0"
       gradientUnits="userSpaceOnUse"
       gradientTransform="matrix(5.166687,0,0,-5.166687,359.85532,130.89584)"
       spreadMethod="pad"
       id="linearGradient172"><stop
         style="stop-opacity:1;stop-color:#6e5146"
         offset="0"
         id="stop166" /><stop
         style="stop-opacity:1;stop-color:#b68573"
         offset="0.994898"
         id="stop168" /><stop
         style="stop-opacity:1;stop-color:#b68573"
         offset="1"
         id="stop170" /></linearGradient><clipPath
       clipPathUnits="userSpaceOnUse"
       id="clipPath182"><path
         d="M 0,389.888 H 432 V 0 H 0 Z"
         id="path180"
         inkscape:connector-curvature="0" /></clipPath><clipPath
       clipPathUnits="userSpaceOnUse"
       id="clipPath206"><path
         d="m 174.395,65.6667 h 26 v -15 h -26 z"
         id="path204"
         inkscape:connector-curvature="0" /></clipPath><clipPath
       clipPathUnits="userSpaceOnUse"
       id="clipPath222"><path
         d="m 184.811,75.291 v -17.29 c 0,-0.645 1.157,-1.168 2.583,-1.168 v 0 c 1.428,0 2.584,0.523 2.584,1.168 v 0 17.29 z"
         id="path220"
         inkscape:connector-curvature="0" /></clipPath><linearGradient
       x1="0"
       y1="0"
       x2="1"
       y2="0"
       gradientUnits="userSpaceOnUse"
       gradientTransform="matrix(5.166687,0,0,-5.166687,184.81131,66.06253)"
       spreadMethod="pad"
       id="linearGradient234"><stop
         style="stop-opacity:1;stop-color:#6e5146"
         offset="0"
         id="stop228" /><stop
         style="stop-opacity:1;stop-color:#b68573"
         offset="0.994898"
         id="stop230" /><stop
         style="stop-opacity:1;stop-color:#b68573"
         offset="1"
         id="stop232" /></linearGradient><clipPath
       clipPathUnits="userSpaceOnUse"
       id="clipPath244"><path
         d="M 0,389.888 H 432 V 0 H 0 Z"
         id="path242"
         inkscape:connector-curvature="0" /></clipPath></defs><sodipodi:namedview
     pagecolor="#ffffff"
     bordercolor="#666666"
     borderopacity="1"
     objecttolerance="10"
     gridtolerance="10"
     guidetolerance="10"
     inkscape:pageopacity="0"
     inkscape:pageshadow="2"
     inkscape:window-width="1920"
     inkscape:window-height="1009"
     id="namedview4"
     showgrid="false"
     inkscape:zoom="1"
     inkscape:cx="387.35905"
     inkscape:cy="314.58845"
     inkscape:window-x="0"
     inkscape:window-y="40"
     inkscape:window-maximized="1"
     inkscape:current-layer="g10" /><g
     id="g10"
     inkscape:groupmode="layer"
     inkscape:label="A-Frame Stickers"
     transform="matrix(1.3333333,0,0,-1.3333333,0,519.85067)"><g
       id="g6973"><g
         transform="translate(0,123.0003)"
         id="g12"><path
           inkscape:connector-curvature="0"
           id="path14"
           style="fill:#1d8376;fill-opacity:1;fill-rule:nonzero;stroke:none"
           d="M 0,0 216,-123 432,0 216,122.999 Z" /></g><g
         id="g16"><g
           clip-path="url(#clipPath22)"
           id="g18"><g
             id="g24"><g
               id="g26" /><g
               id="g38"><g
                 style="opacity:0.25"
                 id="g36"
                 clip-path="url(#clipPath30)"><g
                   id="g34"
                   transform="translate(245.1112,54.3268)"><path
                     inkscape:connector-curvature="0"
                     id="path32"
                     style="fill:#808285;fill-opacity:1;fill-rule:nonzero;stroke:none"
                     d="M 0,0 91.637,51.646 -48.787,131.743 -140.425,80.097 Z" /></g></g></g></g></g></g><g
         transform="translate(261.4509,389.8881)"
         id="g40"><path
           inkscape:connector-curvature="0"
           id="path42"
           style="fill:#9e1e3f;fill-opacity:1;fill-rule:nonzero;stroke:none"
           d="m 0,0 -73.973,-198.914 8.172,-4.654 0.674,-0.25 69.904,187.974 70.521,-268.072 7.342,-4.181 0.931,0.245 L 8.698,-3.234 Z" /></g><g
         transform="translate(174.5,336.5)"
         id="g44"><path
           inkscape:connector-curvature="0"
           id="path46"
           style="fill:#231f20;fill-opacity:1;fill-rule:nonzero;stroke:none"
           d="M 0,0 -4.687,1.743 Z" /></g><g
         transform="translate(104.6865,134.4238)"
         id="g48"><path
           inkscape:connector-curvature="0"
           id="path50"
           style="fill:#3dc7f4;fill-opacity:1;fill-rule:nonzero;stroke:none"
           d="M 0,0 91.637,51.646 161.541,239.62 69.904,187.975 Z" /></g><g
         transform="translate(126.8245,193.9536)"
         id="g52"><path
           inkscape:connector-curvature="0"
           id="path54"
           style="fill:#f2e646;fill-opacity:1;fill-rule:nonzero;stroke:none"
           d="M 0,0 89.182,45.044 190.038,-12.388 95.925,-54.624 Z" /></g><g
         transform="translate(104.6865,134.4238)"
         id="g56"><path
           inkscape:connector-curvature="0"
           id="path58"
           style="fill:#9e1e3f;fill-opacity:1;fill-rule:nonzero;stroke:none"
           d="m 0,0 69.904,187.975 70.521,-268.072 7.342,-4.181 0.931,0.245 -74.873,284.618 -8.698,3.234 L -8.846,4.904 -0.673,0.25 Z" /></g><g
         transform="translate(126.8245,193.9536)"
         id="g60"><path
           inkscape:connector-curvature="0"
           id="path62"
           style="fill:#9e1e3f;fill-opacity:1;fill-rule:nonzero;stroke:none"
           d="m 0,0 -2.455,-6.602 100.856,-57.432 -2.476,9.41 z" /></g><g
         transform="translate(252.4537,50.1456)"
         id="g64"><path
           inkscape:connector-curvature="0"
           id="path66"
           style="fill:#e62c5c;fill-opacity:1;fill-rule:nonzero;stroke:none"
           d="M 0,0 92.568,51.891 17.695,336.508 -73.942,284.863 Z" /></g><g
         transform="translate(261.4509,389.8881)"
         id="g68"><path
           inkscape:connector-curvature="0"
           id="path70"
           style="fill:#e62c5c;fill-opacity:1;fill-rule:nonzero;stroke:none"
           d="m 0,0 -91.637,-51.646 8.698,-3.233 91.637,51.645 z" /></g><g
         id="g72"><g
           clip-path="url(#clipPath78)"
           id="g74"><g
             id="g80"><g
               id="g82" /><g
               id="g94"><g
                 style="opacity:0.25"
                 id="g92"
                 clip-path="url(#clipPath86)"><g
                   id="g90"
                   transform="translate(84.4167,123)"><path
                     inkscape:connector-curvature="0"
                     id="path88"
                     style="fill:#808285;fill-opacity:1;fill-rule:nonzero;stroke:none"
                     d="m 0,0 c 0,4.142 -5.82,7.5 -13,7.5 -7.18,0 -13,-3.358 -13,-7.5 0,-4.142 5.82,-7.5 13,-7.5 7.18,0 13,3.358 13,7.5" /></g></g></g></g></g></g><g
         id="g96"><g
           clip-path="url(#clipPath102)"
           id="g98"><g
             id="g104"><g
               id="g106"><path
                 inkscape:connector-curvature="0"
                 id="path116"
                 style="fill:url(#linearGradient114);stroke:none"
                 d="m 68.833,140.125 v -17.291 c 0,-0.645 1.157,-1.167 2.584,-1.167 v 0 c 1.426,0 2.583,0.522 2.583,1.167 v 0 17.291 z" /></g></g></g></g><g
         id="g118"><g
           clip-path="url(#clipPath124)"
           id="g120"><g
             transform="translate(54,177.3333)"
             id="g126"><path
               inkscape:connector-curvature="0"
               id="path128"
               style="fill:#1d7977;fill-opacity:1;fill-rule:nonzero;stroke:none"
               d="m 0,0 v -32 l 17.5,-9.167 v 32 z" /></g><g
             transform="translate(89,177.3333)"
             id="g130"><path
               inkscape:connector-curvature="0"
               id="path132"
               style="fill:#32bdb8;fill-opacity:1;fill-rule:nonzero;stroke:none"
               d="m 0,0 v -32 l -17.5,-9.167 v 32 z" /></g><g
             transform="translate(71.5,186.5)"
             id="g134"><path
               inkscape:connector-curvature="0"
               id="path136"
               style="fill:#25a19c;fill-opacity:1;fill-rule:nonzero;stroke:none"
               d="M 0,0 -17.5,-9.167 0,-18.333 17.5,-9.167 Z" /></g><g
             id="g138"><g
               id="g140" /><g
               id="g152"><g
                 style="opacity:0.25"
                 id="g150"
                 clip-path="url(#clipPath144)"><g
                   id="g148"
                   transform="translate(375.4387,123)"><path
                     inkscape:connector-curvature="0"
                     id="path146"
                     style="fill:#808285;fill-opacity:1;fill-rule:nonzero;stroke:none"
                     d="m 0,0 c 0,4.142 -5.82,7.5 -13,7.5 -7.18,0 -13,-3.358 -13,-7.5 0,-4.142 5.82,-7.5 13,-7.5 7.18,0 13,3.358 13,7.5" /></g></g></g></g></g></g><g
         id="g154"><g
           clip-path="url(#clipPath160)"
           id="g156"><g
             id="g162"><g
               id="g164"><path
                 inkscape:connector-curvature="0"
                 id="path174"
                 style="fill:url(#linearGradient172);stroke:none"
                 d="m 359.855,140.125 v -17.291 c 0,-0.645 1.157,-1.167 2.584,-1.167 v 0 c 1.426,0 2.583,0.522 2.583,1.167 v 0 17.291 z" /></g></g></g></g><g
         id="g176"><g
           clip-path="url(#clipPath182)"
           id="g178"><g
             transform="translate(345.022,177.3333)"
             id="g184"><path
               inkscape:connector-curvature="0"
               id="path186"
               style="fill:#1d7977;fill-opacity:1;fill-rule:nonzero;stroke:none"
               d="m 0,0 v -32 l 17.5,-9.167 v 32 z" /></g><g
             transform="translate(380.022,177.3333)"
             id="g188"><path
               inkscape:connector-curvature="0"
               id="path190"
               style="fill:#32bdb8;fill-opacity:1;fill-rule:nonzero;stroke:none"
               d="m 0,0 v -32 l -17.5,-9.167 v 32 z" /></g><g
             transform="translate(362.522,186.5)"
             id="g192"><path
               inkscape:connector-curvature="0"
               id="path194"
               style="fill:#25a19c;fill-opacity:1;fill-rule:nonzero;stroke:none"
               d="M 0,0 -17.5,-9.167 0,-18.333 17.5,-9.167 Z" /></g><g
             transform="translate(187.478,121.6667)"
             id="g196"><path
               inkscape:connector-curvature="0"
               id="path198"
               style="fill:#25a19c;fill-opacity:1;fill-rule:nonzero;stroke:none"
               d="M 0,0 -17.5,-9.167 0,-18.333 17.5,-9.167 Z" /></g><g
             id="g200"><g
               id="g202" /><g
               id="g214"><g
                 style="opacity:0.25"
                 id="g212"
                 clip-path="url(#clipPath206)"><g
                   id="g210"
                   transform="translate(200.3947,58.1667)"><path
                     inkscape:connector-curvature="0"
                     id="path208"
                     style="fill:#808285;fill-opacity:1;fill-rule:nonzero;stroke:none"
                     d="m 0,0 c 0,4.142 -5.82,7.5 -13,7.5 -7.18,0 -13,-3.358 -13,-7.5 0,-4.142 5.82,-7.5 13,-7.5 7.18,0 13,3.358 13,7.5" /></g></g></g></g></g></g><g
         id="g216"><g
           clip-path="url(#clipPath222)"
           id="g218"><g
             id="g224"><g
               id="g226"><path
                 inkscape:connector-curvature="0"
                 id="path236"
                 style="fill:url(#linearGradient234);stroke:none"
                 d="m 184.811,75.291 v -17.29 c 0,-0.645 1.157,-1.168 2.583,-1.168 v 0 c 1.428,0 2.584,0.523 2.584,1.168 v 0 17.29 z" /></g></g></g></g><g
         id="g238"><g
           clip-path="url(#clipPath244)"
           id="g240"><g
             transform="translate(169.978,112.5)"
             id="g246"><path
               inkscape:connector-curvature="0"
               id="path248"
               style="fill:#1d7977;fill-opacity:1;fill-rule:nonzero;stroke:none"
               d="m 0,0 v -32 l 17.5,-9.167 v 32 z" /></g><g
             transform="translate(204.978,112.5)"
             id="g250"><path
               inkscape:connector-curvature="0"
               id="path252"
               style="fill:#32bdb8;fill-opacity:1;fill-rule:nonzero;stroke:none"
               d="m 0,0 v -32 l -17.5,-9.167 v 32 z" /></g></g></g></g></g></svg>