<?xml version="1.0" encoding="UTF-8" standalone="no"?>
<svg
   xmlns:dc="http://purl.org/dc/elements/1.1/"
   xmlns:cc="http://creativecommons.org/ns#"
   xmlns:rdf="http://www.w3.org/1999/02/22-rdf-syntax-ns#"
   xmlns:svg="http://www.w3.org/2000/svg"
   xmlns="http://www.w3.org/2000/svg"
   xmlns:sodipodi="http://sodipodi.sourceforge.net/DTD/sodipodi-0.dtd"
   xmlns:inkscape="http://www.inkscape.org/namespaces/inkscape"
   id="svg5319"
   version="1.1"
   viewBox="0 0 105.83333 105.83334"
   height="400"
   width="400"
   sodipodi:docname="clubs-clubs.svg"
   inkscape:version="0.92.3 (2405546, 2018-03-11)">
  <sodipodi:namedview
     pagecolor="#ffffff"
     bordercolor="#666666"
     borderopacity="1"
     objecttolerance="10"
     gridtolerance="10"
     guidetolerance="10"
     inkscape:pageopacity="0"
     inkscape:pageshadow="2"
     inkscape:window-width="1920"
     inkscape:window-height="1009"
     id="namedview6147"
     showgrid="false"
     inkscape:zoom="1.7884375"
     inkscape:cx="200"
     inkscape:cy="200"
     inkscape:window-x="0"
     inkscape:window-y="40"
     inkscape:window-maximized="1"
     inkscape:current-layer="svg5319" />
  <defs
     id="defs5313" />
  <metadata
     id="metadata5316">
    <rdf:RDF>
      <cc:Work
         rdf:about="">
        <dc:format>image/svg+xml</dc:format>
        <dc:type
           rdf:resource="http://purl.org/dc/dcmitype/StillImage" />
        <dc:title />
      </cc:Work>
    </rdf:RDF>
  </metadata>
  <g
     transform="matrix(0.51457314,0,0,-0.5145732,205.58029,490.33206)"
     id="g5311">
    <g
       transform="translate(-293.54791,789.5958)"
       id="g250">
      <path
         inkscape:connector-curvature="0"
         id="path252"
         style="fill:#39b897;fill-opacity:1;fill-rule:nonzero;stroke:none"
         d="m 0,0 c -1.425,0 -2.584,-1.159 -2.584,-2.584 0,-1.425 1.159,-2.583 2.584,-2.583 1.38,0 2.54,1.172 2.584,2.615 C 2.584,-1.159 1.425,0 0,0 m -1.558,-19.749 h 3.035 v -12.504 c 0,-0.577 0.417,-1.029 0.95,-1.029 0.533,0 0.95,0.452 0.95,1.029 v 12.344 H 4.4 c 0.782,0 1.265,0.456 1.313,1.229 l -0.07,9.272 c 0,0.308 -0.046,0.403 -0.046,0.404 -0.014,-0.024 -0.219,0.037 -0.932,0.037 h -10.2 c -0.882,0 -0.882,-0.177 -0.882,-0.334 v -9.251 c 0,-1.292 1.614,-1.357 1.937,-1.357 h 1.023 v -12.282 c 0,-0.577 0.417,-1.029 0.95,-1.029 0.532,0 0.949,0.452 0.949,1.029 z M 2.427,-35.33 c -1.035,0 -1.949,0.541 -2.488,1.362 -0.544,-0.786 -1.437,-1.3 -2.446,-1.3 -1.652,0 -2.997,1.38 -2.997,3.077 v 10.337 c -1.564,0.317 -2.961,1.378 -2.961,3.302 v 9.251 c 0,0.716 0.286,2.382 2.93,2.382 h 3.905 c -1.752,0.661 -3.001,2.355 -3.001,4.335 0,2.554 2.077,4.632 4.631,4.632 2.554,0 4.631,-2.078 4.631,-4.632 C 4.569,-4.573 3.309,-6.26 1.593,-6.919 h 3.072 c 1.058,0 3.026,0 3.026,-2.481 l 0.074,-9.792 H 7.713 c -0.215,-1.293 -1.079,-2.27 -2.289,-2.622 v -10.439 c 0,-1.697 -1.345,-3.077 -2.997,-3.077" />
    </g>
    <g
       transform="translate(-320.08561,809.3083)"
       id="g254">
      <path
         inkscape:connector-curvature="0"
         id="path256"
         style="fill:#39b897;fill-opacity:1;fill-rule:nonzero;stroke:none"
         d="m 0,0 c -1.483,0 -2.689,-1.206 -2.689,-2.688 0,-1.482 1.206,-2.688 2.689,-2.688 1.436,0 2.642,1.22 2.689,2.72 C 2.688,-1.206 1.482,0 0,0 m -1.584,-20.167 h 3.035 v -13.051 c 0,-0.527 0.333,-1.088 0.95,-1.088 0.617,0 0.95,0.561 0.95,1.088 v 12.673 h 1.023 c 0.854,0 1.418,0.543 1.459,1.393 l -0.036,9.367 c 0,0.179 -0.014,0.287 -0.026,0.346 -0.222,0.053 -0.756,0.053 -0.972,0.053 H -5.696 c -0.444,0 -0.651,-0.025 -0.745,-0.052 0.003,-0.024 -0.003,-0.08 -0.003,-0.163 v -9.451 c 0,-1.451 1.739,-1.493 1.937,-1.493 h 1.023 v -12.609 c 0,-0.527 0.333,-1.088 0.95,-1.088 0.617,0 0.95,0.561 0.95,1.088 z m 3.985,-16.187 c -1.048,0 -1.955,0.535 -2.489,1.365 -0.539,-0.793 -1.425,-1.3 -2.446,-1.3 -1.68,0 -2.997,1.376 -2.997,3.135 v 10.671 c -1.593,0.346 -2.961,1.511 -2.961,3.431 v 9.451 c 0,2.263 2.031,2.263 2.796,2.263 h 4.795 c -2.183,0.422 -3.835,2.347 -3.835,4.65 0,2.611 2.124,4.736 4.736,4.736 2.611,0 4.735,-2.125 4.735,-4.736 -0.072,-2.315 -1.731,-4.229 -3.857,-4.65 h 3.921 c 1.213,0 3.046,0 3.046,-2.443 l 0.038,-9.996 H 7.819 c -0.243,-1.331 -1.155,-2.331 -2.421,-2.681 v -10.76 c 0,-1.759 -1.317,-3.136 -2.997,-3.136" />
    </g>
    <g
       transform="translate(-337.85111,924.3032)"
       id="g258">
      <path
         inkscape:connector-curvature="0"
         id="path260"
         style="fill:#39b897;fill-opacity:1;fill-rule:nonzero;stroke:none"
         d="m 0,0 13.331,-14.1 -0.718,-1.32 c -0.504,-0.926 -0.799,-2.071 -0.83,-3.224 -0.056,-1.965 0.655,-3.787 2.058,-5.269 1.509,-1.53 2.967,-2.428 4.406,-2.704 l -3.703,3.915 1.936,6.917 6.8,1.572 3.798,-4.016 c -0.201,1.497 -1.034,3.05 -2.443,4.54 -2.239,2.367 -5.698,3.01 -8.611,1.597 L 14.659,-12.753 1.092,1.592 C 1,1.69 0.928,1.714 0.911,1.715 L -0.104,0.745 C -0.107,0.733 -0.157,0.523 0,0 m 19.21,-28.756 c -2.303,0 -4.597,1.145 -6.842,3.42 -1.798,1.9 -2.703,4.229 -2.633,6.749 0.041,1.469 0.424,2.942 1.08,4.146 l 0.007,0.014 -12.618,13.346 -0.073,0.207 c -0.483,1.382 -0.362,2.428 0.359,3.108 l 1.018,0.962 C -0.092,3.575 0.44,3.767 0.967,3.762 1.558,3.746 2.131,3.475 2.58,2.999 l 12.535,-13.256 0.015,0.008 c 3.72,1.801 8.137,0.986 10.993,-2.034 2.057,-2.174 3.11,-4.542 3.047,-6.848 -0.018,-0.621 -0.103,-1.196 -0.261,-1.759 l -0.486,-1.741 -5.825,6.158 -4.474,-1.034 -1.296,-4.63 5.713,-6.04 -1.748,-0.399 c -0.527,-0.12 -1.055,-0.18 -1.583,-0.18" />
    </g>
    <g
       transform="translate(-233.55451,919.1569)"
       id="g262">
      <path
         inkscape:connector-curvature="0"
         id="path264"
         style="fill:#3bba99;fill-opacity:1;fill-rule:nonzero;stroke:none"
         d="M 0,0 C -0.468,-0.066 -0.935,-0.166 -1.871,-0.183 V 2.622 C -0.935,2.601 -0.468,2.493 0,2.423 Z m -4.209,-0.184 h -1.403 v 2.806 h 1.403 z m -3.742,0 h -4.457 v 2.806 h 4.457 z m -6.423,-2.064 c -0.124,-1.099 -0.771,-1.863 -1.654,-1.863 -1.091,0 -1.58,1.212 -1.58,1.855 v 9.417 l 1.502,-0.003 c 1.734,0 1.608,-1.639 1.732,-2.668 z m 0,-4.473 c -0.124,-0.446 -0.745,-1.49 -0.826,-1.611 -0.517,-0.775 -3.899,-6.707 -3.899,-6.707 l -0.002,-17.049 H -30.4 v 17.242 l -6.547,6.142 v 3.059 c 0,0.35 1.882,3.389 3.459,5.462 h 7.765 v -0.991 c 0,-0.499 -0.146,-0.877 -1.361,-0.877 h -3.839 l -0.166,-1.967 c 0.277,-0.047 6.771,-1.236 6.771,-8.251 h 1.967 c 0,4.209 -2.002,6.781 -4.052,8.26 0.874,0 1.454,0.216 1.848,0.528 0.48,-1.5 1.812,-2.528 3.378,-2.528 1.025,0 1.934,0.43 2.585,1.171 0.652,-0.741 1.466,-1.212 2.492,-1.212 0.576,0 1.134,0.139 1.726,0.399 z m -32.862,9.343 h 11.121 v -2.806 h -11.121 z m 13.088,2.577 c 0.007,1.727 1.278,1.985 2.031,1.985 0.501,0 1.045,0 1.628,0 0.011,-1.178 -0.007,-3.36 -0.03,-5.454 h -3.629 z m 5.642,1.962 3.759,0.013 V 1.73 h -3.803 c 0.042,3.029 0.044,5.431 0.044,5.431 m 5.726,0.01 c 0.799,-0.002 3.234,-0.007 3.234,-0.007 v -9.412 c -0.097,-1.138 -0.701,-1.838 -1.675,-1.838 -0.883,0 -1.696,0.866 -1.559,1.838 z M -1.793,4.574 -12.371,4.566 c -0.03,2.662 -1.319,4.54 -3.828,4.54 l -4.453,0.008 c -3.614,0.007 -8.337,0.017 -11.398,0.017 -1.983,0 -4.079,-1.222 -4.079,-3.952 V 4.567 l -11.252,-0.003 -7.515,-3.409 7.476,-3.411 h 10.237 c -0.833,-1.403 -1.635,-2.987 -1.768,-3.313 v -4.012 l 6.617,-6.142 v -18.332 h 15.199 l 0.013,18.499 c 0.987,1.725 3.028,5.353 3.364,5.865 0,0 1.351,2.115 1.351,3.188 v 4.376 l 10.394,0.002 c 1.403,0.009 3.884,0.136 3.884,1.933 v 2.823 c 0,1.772 -2.26,1.922 -3.664,1.943" />
    </g>
    <g
       transform="translate(-230.66491,872.886)"
       id="g266">
      <path
         inkscape:connector-curvature="0"
         id="path268"
         style="fill:#39b897;fill-opacity:1;fill-rule:nonzero;stroke:none"
         d="m 0,0 c -3.512,0 -7.424,-8.818 -7.424,-21.473 0,-12.654 3.912,-21.473 7.424,-21.473 3.511,0 7.423,8.819 7.423,21.473 C 7.423,-8.818 3.511,0 0,0 m 0,-44.993 c -5.399,0 -9.472,10.111 -9.472,23.52 0,13.409 4.073,23.521 9.472,23.521 5.399,0 9.471,-10.112 9.471,-23.521 0,-13.409 -4.072,-23.52 -9.471,-23.52" />
    </g>
    <g
       transform="translate(-230.66491,858.8362)"
       id="g270">
      <path
         inkscape:connector-curvature="0"
         id="path272"
         style="fill:#39b897;fill-opacity:1;fill-rule:nonzero;stroke:none"
         d="m 0,0 c -12.654,0 -21.473,-3.912 -21.473,-7.423 0,-3.511 8.819,-7.423 21.473,-7.423 12.654,0 21.472,3.912 21.472,7.423 C 21.472,-3.912 12.654,0 0,0 m 0,-16.894 c -13.409,0 -23.521,4.072 -23.521,9.471 0,5.399 10.112,9.471 23.521,9.471 13.408,0 23.52,-4.072 23.52,-9.471 0,-5.399 -10.112,-9.471 -23.52,-9.471" />
    </g>
    <g
       transform="translate(-243.46031,867.3732)"
       id="g274">
      <path
         inkscape:connector-curvature="0"
         id="path276"
         style="fill:#39b897;fill-opacity:1;fill-rule:nonzero;stroke:none"
         d="m 0,0 c -1.042,0 -1.857,-0.264 -2.39,-0.796 -1.254,-1.254 -1.019,-4.073 0.644,-7.736 1.827,-4.023 5.127,-8.532 9.291,-12.697 4.165,-4.164 8.673,-7.463 12.697,-9.29 3.661,-1.663 6.481,-1.899 7.736,-0.644 1.253,1.254 1.018,4.073 -0.644,7.735 -1.827,4.024 -5.127,8.533 -9.291,12.697 C 13.878,-6.567 9.37,-3.267 5.346,-1.44 3.24,-0.484 1.412,0 0,0 m 25.593,-33.994 c -1.739,0 -3.835,0.538 -6.197,1.61 -4.243,1.926 -8.965,5.373 -13.299,9.707 -4.334,4.334 -7.781,9.057 -9.708,13.299 -2.064,4.549 -2.145,8.111 -0.227,10.029 1.917,1.92 5.48,1.839 10.03,-0.227 4.243,-1.926 8.965,-5.373 13.299,-9.707 4.334,-4.333 7.781,-9.056 9.707,-13.298 2.065,-4.549 2.146,-8.111 0.227,-10.03 -0.922,-0.922 -2.224,-1.383 -3.832,-1.383" />
    </g>
    <g
       transform="translate(-217.85451,867.3582)"
       id="g278">
      <path
         inkscape:connector-curvature="0"
         id="path280"
         style="fill:#39b897;fill-opacity:1;fill-rule:nonzero;stroke:none"
         d="m 0,0 c -3.897,0 -10.996,-3.65 -18.062,-10.716 -4.164,-4.164 -7.464,-8.673 -9.291,-12.697 -1.662,-3.662 -1.897,-6.481 -0.644,-7.735 2.484,-2.485 11.485,0.988 20.433,9.935 8.947,8.947 12.416,17.949 9.935,20.432 C 1.849,-0.259 1.038,0 0,0 m -25.584,-33.988 c -1.598,0 -2.918,0.45 -3.86,1.392 -1.919,1.919 -1.838,5.481 0.227,10.03 1.926,4.242 5.373,8.965 9.707,13.298 9.479,9.479 19.508,13.754 23.329,9.935 3.817,-3.818 -0.454,-13.847 -9.935,-23.328 -7.141,-7.141 -14.593,-11.327 -19.468,-11.327" />
    </g>
    <path
       inkscape:connector-curvature="0"
       id="path282"
       style="fill:#39b897;fill-opacity:1;fill-rule:nonzero;stroke:none"
       d="m -377.26001,871.393 h 31.559 v 19.622 h -31.559 z m 33.607,-2.048 h -35.654 v 23.718 h 35.654 z" />
    <path
       inkscape:connector-curvature="0"
       id="path284"
       style="fill:#39b897;fill-opacity:1;fill-rule:nonzero;stroke:none"
       d="m -373.05201,875.257 h 23.144 v 11.894 h -23.144 z m 25.192,-2.047 h -27.24 v 15.989 h 27.24 z" />
    <g
       transform="translate(-382.74371,861.915)"
       id="g286">
      <path
         inkscape:connector-curvature="0"
         id="path288"
         style="fill:#39b897;fill-opacity:1;fill-rule:nonzero;stroke:none"
         d="M 0,0 H 42.1 L 37.859,7.43 H 4.665 Z M 45.627,-2.048 H -3.704 L 3.534,9.478 h 35.514 z" />
    </g>
    <path
       inkscape:connector-curvature="0"
       id="path290"
       style="fill:#39b897;fill-opacity:1;fill-rule:nonzero;stroke:none"
       d="m -348.52401,864.606 h -26.91 v 2.048 h 26.91 z" />
    <g
       transform="translate(-248.52741,809.0239)"
       id="g292">
      <path
         inkscape:connector-curvature="0"
         id="path294"
         style="fill:#39b897;fill-opacity:1;fill-rule:nonzero;stroke:none"
         d="m 0,0 c -6.873,0 -12.464,-5.592 -12.464,-12.464 0,-6.873 5.591,-12.464 12.464,-12.464 6.873,0 12.464,5.591 12.464,12.464 C 12.464,-5.592 6.873,0 0,0 m 0,-26.976 c -8.002,0 -14.512,6.51 -14.512,14.512 0,8.002 6.51,14.512 14.512,14.512 8.002,0 14.512,-6.51 14.512,-14.512 0,-8.002 -6.51,-14.512 -14.512,-14.512" />
    </g>
    <g
       transform="translate(-248.52741,809.0239)"
       id="g296">
      <path
         inkscape:connector-curvature="0"
         id="path298"
         style="fill:#39b897;fill-opacity:1;fill-rule:nonzero;stroke:none"
         d="m 0,0 c -3.516,0 -6.485,-5.708 -6.485,-12.464 0,-6.756 2.969,-12.464 6.485,-12.464 3.515,0 6.484,5.708 6.484,12.464 C 6.484,-5.708 3.515,0 0,0 m 0,-26.976 c -4.784,0 -8.533,6.374 -8.533,14.512 0,8.137 3.749,14.512 8.533,14.512 4.784,0 8.532,-6.375 8.532,-14.512 0,-8.138 -3.748,-14.512 -8.532,-14.512" />
    </g>
    <path
       inkscape:connector-curvature="0"
       id="path300"
       style="fill:#39b897;fill-opacity:1;fill-rule:nonzero;stroke:none"
       d="m -235.96401,800.49 h -25.127 v 2.048 h 25.127 z" />
    <path
       inkscape:connector-curvature="0"
       id="path302"
       style="fill:#39b897;fill-opacity:1;fill-rule:nonzero;stroke:none"
       d="m -235.96401,791.132 h -25.127 v 2.048 h 25.127 z" />
    <path
       inkscape:connector-curvature="0"
       id="path304"
       style="fill:#39b897;fill-opacity:1;fill-rule:nonzero;stroke:none"
       d="m -247.50401,783.622 h -2.048 v 26.976 h 2.048 z" />
    <g
       transform="translate(-354.80631,839.5195)"
       id="g306">
      <path
         inkscape:connector-curvature="0"
         id="path308"
         style="fill:#39b897;fill-opacity:1;fill-rule:nonzero;stroke:none"
         d="m 0,0 c -1.966,0 -3.566,-1.599 -3.566,-3.566 0,-1.965 1.6,-3.565 3.566,-3.565 1.966,0 3.565,1.6 3.565,3.565 C 3.565,-1.599 1.966,0 0,0 m 0,-9.178 c -3.095,0 -5.613,2.517 -5.613,5.612 0,3.096 2.518,5.614 5.613,5.614 3.095,0 5.613,-2.518 5.613,-5.614 0,-3.095 -2.518,-5.612 -5.613,-5.612" />
    </g>
    <g
       transform="translate(-376.60121,827.8204)"
       id="g310">
      <path
         inkscape:connector-curvature="0"
         id="path312"
         style="fill:#39b897;fill-opacity:1;fill-rule:nonzero;stroke:none"
         d="m 0,0 c -1.966,0 -3.566,-1.599 -3.566,-3.565 0,-1.966 1.6,-3.566 3.566,-3.566 1.966,0 3.565,1.6 3.565,3.566 C 3.565,-1.599 1.966,0 0,0 m 0,-9.178 c -3.095,0 -5.613,2.518 -5.613,5.613 0,3.095 2.518,5.613 5.613,5.613 3.095,0 5.613,-2.518 5.613,-5.613 C 5.613,-6.66 3.095,-9.178 0,-9.178" />
    </g>
    <g
       transform="translate(-358.31591,817.8431)"
       id="g314">
      <path
         inkscape:connector-curvature="0"
         id="path316"
         style="fill:#39b897;fill-opacity:1;fill-rule:nonzero;stroke:none"
         d="m 0,0 c -1.966,0 -3.566,-1.599 -3.566,-3.565 0,-1.966 1.6,-3.566 3.566,-3.566 1.966,0 3.566,1.6 3.566,3.566 C 3.566,-1.599 1.966,0 0,0 m 0,-9.178 c -3.095,0 -5.613,2.518 -5.613,5.613 0,3.095 2.518,5.613 5.613,5.613 3.095,0 5.613,-2.518 5.613,-5.613 C 5.613,-6.66 3.095,-9.178 0,-9.178" />
    </g>
    <g
       transform="translate(-371.95671,825.3426)"
       id="g318">
      <path
         inkscape:connector-curvature="0"
         id="path320"
         style="fill:#39b897;fill-opacity:1;fill-rule:nonzero;stroke:none"
         d="M 0,0 -0.969,1.804 12.739,9.162 13.708,7.358 Z" />
    </g>
    <g
       transform="translate(-362.81581,815.4493)"
       id="g322">
      <path
         inkscape:connector-curvature="0"
         id="path324"
         style="fill:#39b897;fill-opacity:1;fill-rule:nonzero;stroke:none"
         d="M 0,0 -10.121,5.522 -9.14,7.32 0.981,1.798 Z" />
    </g>
    <g
       transform="translate(-263.44761,866.9531)"
       id="g326">
      <path
         inkscape:connector-curvature="0"
         id="path328"
         style="fill:#39b897;fill-opacity:1;fill-rule:nonzero;stroke:none"
         d="m 0,0 c -6.384,12.439 -19.028,20.166 -32.997,20.166 -11.567,0 -22.261,-5.255 -29.343,-14.419 l -1.62,1.252 c 7.472,9.669 18.758,15.215 30.963,15.215 14.741,0 28.083,-8.154 34.819,-21.279 z" />
    </g>
    <g
       transform="translate(-296.46061,810.9305)"
       id="g330">
      <path
         inkscape:connector-curvature="0"
         id="path332"
         style="fill:#39b897;fill-opacity:1;fill-rule:nonzero;stroke:none"
         d="m 0,0 c -1.028,0 -2.061,0.04 -3.097,0.122 l 0.162,2.042 c 14.596,-1.161 28.564,6.418 35.545,19.303 0.515,0.952 0.994,1.935 1.423,2.921 l 1.878,-0.816 C 35.459,22.531 34.954,21.495 34.41,20.492 27.539,7.81 14.266,0 0,0" />
    </g>
    <g
       transform="translate(-315.07831,815.6614)"
       id="g334">
      <path
         inkscape:connector-curvature="0"
         id="path336"
         style="fill:#39b897;fill-opacity:1;fill-rule:nonzero;stroke:none"
         d="m 0,0 c -11.57,6.268 -19.173,17.846 -20.337,30.97 l 2.039,0.181 C -17.194,18.713 -9.989,7.741 0.976,1.801 Z" />
    </g>
    <g
       transform="translate(-333.89601,815.4369)"
       id="g338">
      <path
         inkscape:connector-curvature="0"
         id="path340"
         style="fill:#39b897;fill-opacity:1;fill-rule:nonzero;stroke:none"
         d="m 0,0 c -3.032,3.277 -5.63,6.964 -7.725,10.958 -0.695,1.323 -1.339,2.693 -1.915,4.071 l 1.89,0.79 c 0.553,-1.323 1.171,-2.639 1.839,-3.91 2.01,-3.834 4.505,-7.374 7.415,-10.518 z" />
    </g>
    <g
       transform="translate(-296.48061,799.1259)"
       id="g342">
      <path
         inkscape:connector-curvature="0"
         id="path344"
         style="fill:#39b897;fill-opacity:1;fill-rule:nonzero;stroke:none"
         d="m 0,0 c -1.408,0 -2.822,0.058 -4.241,0.175 l 0.167,2.042 C 14.042,0.72 31.356,9.297 41.158,24.603 L 42.882,23.5 C 33.44,8.753 17.287,0 0,0" />
    </g>
    <g
       transform="translate(-274.69111,893.8094)"
       id="g346">
      <path
         inkscape:connector-curvature="0"
         id="path348"
         style="fill:#39b897;fill-opacity:1;fill-rule:nonzero;stroke:none"
         d="m 0,0 c -7.786,3.895 -16.518,5.63 -25.252,5.016 l -0.144,2.043 c 9.1,0.639 18.199,-1.169 26.312,-5.228 z" />
    </g>
    <g
       transform="translate(-384.88021,834.1416)"
       id="g350">
      <path
         inkscape:connector-curvature="0"
         id="path352"
         style="fill:#39b897;fill-opacity:1;fill-rule:nonzero;stroke:none"
         d="M 0,0 C -0.973,5.422 -1.445,10.983 -1.404,16.528 L 0.644,16.513 C 0.603,11.094 1.065,5.659 2.016,0.362 Z" />
    </g>
    <g
       transform="translate(-309.46501,761.4146)"
       id="g354">
      <path
         inkscape:connector-curvature="0"
         id="path356"
         style="fill:#39b897;fill-opacity:1;fill-rule:nonzero;stroke:none"
         d="M 0,0 C -2.434,0.427 -7.015,1.262 -10.344,2.062 -32.45,7.382 -51.5,21.715 -63.984,42.421 l 1.754,1.057 C -50.032,23.245 -31.434,9.244 -9.864,4.054 -6.59,3.266 -2.058,2.44 0.354,2.018 Z" />
    </g>
    <g
       transform="translate(-278.56781,762.2775)"
       id="g358">
      <path
         inkscape:connector-curvature="0"
         id="path360"
         style="fill:#39b897;fill-opacity:1;fill-rule:nonzero;stroke:none"
         d="M 0,0 -0.412,2.006 C 8.849,3.91 17.701,7.297 25.898,12.073 L 26.93,10.304 C 18.54,5.415 9.48,1.949 0,0" />
    </g>
    <g
       transform="translate(-224.58341,796.8372)"
       id="g362">
      <path
         inkscape:connector-curvature="0"
         id="path364"
         style="fill:#39b897;fill-opacity:1;fill-rule:nonzero;stroke:none"
         d="m 0,0 -1.646,1.218 c 6.231,8.429 10.85,17.788 13.725,27.817 l 1.968,-0.564 C 11.105,18.206 6.378,8.626 0,0" />
    </g>
    <g
       transform="translate(-213.50281,877.4772)"
       id="g366">
      <path
         inkscape:connector-curvature="0"
         id="path368"
         style="fill:#39b897;fill-opacity:1;fill-rule:nonzero;stroke:none"
         d="m 0,0 c -3.506,10.643 -8.967,20.404 -16.23,29.011 l 1.566,1.321 C -7.232,21.523 -1.644,11.534 1.946,0.641 Z" />
    </g>
    <g
       transform="translate(-326.63881,932.354)"
       id="g370">
      <path
         inkscape:connector-curvature="0"
         id="path372"
         style="fill:#39b897;fill-opacity:1;fill-rule:nonzero;stroke:none"
         d="m 0,0 -0.7,1.924 c 9.81,3.572 20.126,5.383 30.659,5.383 7.005,0 13.981,-0.812 20.734,-2.412 L 50.221,2.903 C 43.622,4.466 36.805,5.259 29.959,5.259 19.666,5.259 9.586,3.49 0,0" />
    </g>
    <g
       transform="translate(-365.87151,903.7175)"
       id="g374">
      <path
         inkscape:connector-curvature="0"
         id="path376"
         style="fill:#39b897;fill-opacity:1;fill-rule:nonzero;stroke:none"
         d="m 0,0 -1.617,1.256 c 1.978,2.548 4.121,5.019 6.369,7.344 4.377,4.53 9.244,8.609 14.464,12.123 l 1.143,-1.699 C 15.258,15.59 10.503,11.604 6.225,7.178 4.028,4.904 1.934,2.49 0,0" />
    </g>
    <g
       transform="translate(-296.74551,950.8437)"
       id="g378">
      <path
         inkscape:connector-curvature="0"
         id="path380"
         style="fill:#39b897;fill-opacity:1;fill-rule:nonzero;stroke:none"
         d="m 0,0 c -49.222,0 -92.406,-36.214 -99.672,-86.328 -7.973,-54.995 30.282,-106.225 85.278,-114.199 54.993,-7.964 106.223,30.284 114.198,85.278 C 107.777,-60.254 69.52,-9.025 14.525,-1.051 9.645,-0.343 4.793,0 0,0 m 0.132,-203.625 c -4.893,0 -9.837,0.35 -14.82,1.073 -56.113,8.135 -95.146,60.405 -87.01,116.518 8.135,56.112 60.406,95.14 116.517,87.009 56.113,-8.135 95.145,-60.405 87.01,-116.518 -7.413,-51.129 -51.479,-88.082 -101.697,-88.082" />
    </g>
    <g
       transform="translate(-325.97391,858.072)"
       id="g382">
      <path
         inkscape:connector-curvature="0"
         id="path384"
         style="fill:#39b897;fill-opacity:1;fill-rule:nonzero;stroke:none"
         d="M 0,0 27.975,-11.93 58.704,-0.096 28.169,11.733 Z m 27.955,-14.059 c -0.137,0 -0.273,0.028 -0.402,0.082 L -3.039,-0.931 c -0.379,0.162 -0.624,0.535 -0.622,0.946 0.002,0.412 0.25,0.783 0.63,0.941 l 30.792,12.825 c 0.244,0.101 0.517,0.105 0.763,0.01 L 61.915,0.855 c 0.395,-0.153 0.654,-0.533 0.654,-0.956 0,-0.422 -0.261,-0.802 -0.656,-0.954 L 28.323,-13.99 c -0.119,-0.046 -0.243,-0.069 -0.368,-0.069" />
    </g>
    <g
       transform="translate(-296.87451,832.4021)"
       id="g386">
      <path
         inkscape:connector-curvature="0"
         id="path388"
         style="fill:#39b897;fill-opacity:1;fill-rule:nonzero;stroke:none"
         d="m 0,0 c -11.636,0 -19.777,6.091 -20.118,6.35 -0.254,0.194 -0.403,0.495 -0.403,0.815 v 12.464 c 0,0.566 0.457,1.024 1.023,1.024 0.566,0 1.024,-0.458 1.024,-1.024 V 7.696 C -16.73,6.512 -9.521,2.048 0,2.048 c 10.555,0 18.294,4.482 20.155,5.667 v 12.522 c 0,0.566 0.457,1.024 1.023,1.024 0.566,0 1.024,-0.458 1.024,-1.024 V 7.165 c 0,-0.331 -0.16,-0.641 -0.429,-0.833 C 21.41,6.073 12.749,0 0,0" />
    </g>
    <g
       transform="translate(-294.37291,857.7325)"
       id="g390">
      <path
         inkscape:connector-curvature="0"
         id="path392"
         style="fill:#39b897;fill-opacity:1;fill-rule:nonzero;stroke:none"
         d="m 0,0 c 0,-0.611 -1.095,-1.107 -2.447,-1.107 -1.351,0 -2.446,0.496 -2.446,1.107 0,0.611 1.095,1.107 2.446,1.107 C -1.095,1.107 0,0.611 0,0" />
    </g>
    <g
       transform="translate(-297.64841,857.7325)"
       id="g394">
      <path
         inkscape:connector-curvature="0"
         id="path396"
         style="fill:#39b897;fill-opacity:1;fill-rule:nonzero;stroke:none"
         d="M 0,0 C 0.45,-0.097 1.208,-0.097 1.658,0 1.208,0.097 0.45,0.097 0,0 m 2.336,-0.268 h 0.01 z M 0.829,-2.131 c -2.044,0 -3.471,0.877 -3.471,2.131 0,1.254 1.427,2.131 3.471,2.131 2.044,0 3.47,-0.877 3.47,-2.131 0,-1.254 -1.426,-2.131 -3.47,-2.131" />
    </g>
    <g
       transform="translate(-280.65451,830.3788)"
       id="g398">
      <path
         inkscape:connector-curvature="0"
         id="path400"
         style="fill:#39b897;fill-opacity:1;fill-rule:nonzero;stroke:none"
         d="m 0,0 h -2.048 v 20.684 l -13.015,5.172 0.756,1.903 L 0,22.074 Z" />
    </g>
    <g
       transform="translate(-279.74551,823.1853)"
       id="g402">
      <path
         inkscape:connector-curvature="0"
         id="path404"
         style="fill:#39b897;fill-opacity:1;fill-rule:nonzero;stroke:none"
         d="M 0,0 -1.916,6.386 -3.743,0 Z" />
    </g>
    <g
       transform="translate(-282.13131,824.2091)"
       id="g406">
      <path
         inkscape:connector-curvature="0"
         id="path408"
         style="fill:#39b897;fill-opacity:1;fill-rule:nonzero;stroke:none"
         d="M 0,0 H 1.01 L 0.493,1.722 Z m 3.762,-2.048 h -6.478 l 3.163,11.05 z" />
    </g>
    <g
       transform="translate(-280.33351,830.2912)"
       id="g410">
      <path
         inkscape:connector-curvature="0"
         id="path412"
         style="fill:#39b897;fill-opacity:1;fill-rule:nonzero;stroke:none"
         d="m 0,0 c 0,-0.709 -0.575,-1.284 -1.284,-1.284 -0.709,0 -1.284,0.575 -1.284,1.284 0,0.709 0.575,1.284 1.284,1.284 C -0.575,1.284 0,0.709 0,0" />
    </g>
    <g
       transform="translate(-281.61741,830.5513)"
       id="g414">
      <path
         inkscape:connector-curvature="0"
         id="path416"
         style="fill:#39b897;fill-opacity:1;fill-rule:nonzero;stroke:none"
         d="m 0,0 c -0.143,0 -0.26,-0.117 -0.26,-0.26 0,-0.287 0.52,-0.287 0.52,0 C 0.26,-0.117 0.143,0 0,0 m 0,-2.568 c -1.273,0 -2.308,1.036 -2.308,2.308 0,1.272 1.035,2.308 2.308,2.308 1.273,0 2.308,-1.036 2.308,-2.308 0,-1.272 -1.035,-2.308 -2.308,-2.308" />
    </g>
  </g>
</svg>
