<?xml version="1.0" encoding="UTF-8" standalone="no"?>
<!-- This Source Code Form is subject to the terms of the Mozilla Public
   - License, v. 2.0. If a copy of the MPL was not distributed with this
   - file, You can obtain one at http://mozilla.org/MPL/2.0/. -->

<svg
   xmlns:dc="http://purl.org/dc/elements/1.1/"
   xmlns:cc="http://creativecommons.org/ns#"
   xmlns:rdf="http://www.w3.org/1999/02/22-rdf-syntax-ns#"
   xmlns:svg="http://www.w3.org/2000/svg"
   xmlns="http://www.w3.org/2000/svg"
   xmlns:sodipodi="http://sodipodi.sourceforge.net/DTD/sodipodi-0.dtd"
   xmlns:inkscape="http://www.inkscape.org/namespaces/inkscape"
   width="16"
   height="16"
   viewBox="0 0 16 16"
   version="1.1"
   id="svg7837"
   sodipodi:docname="Developer.svg"
   inkscape:version="0.92.3 (2405546, 2018-03-11)">
  <metadata
     id="metadata7843">
    <rdf:RDF>
      <cc:Work
         rdf:about="">
        <dc:format>image/svg+xml</dc:format>
        <dc:type
           rdf:resource="http://purl.org/dc/dcmitype/StillImage" />
        <dc:title></dc:title>
      </cc:Work>
    </rdf:RDF>
  </metadata>
  <defs
     id="defs7841" />
  <sodipodi:namedview
     pagecolor="#ffffff"
     bordercolor="#666666"
     borderopacity="1"
     objecttolerance="10"
     gridtolerance="10"
     guidetolerance="10"
     inkscape:pageopacity="0"
     inkscape:pageshadow="2"
     inkscape:window-width="1920"
     inkscape:window-height="1009"
     id="namedview7839"
     showgrid="false"
     showborder="false"
     inkscape:pagecheckerboard="false"
     inkscape:zoom="1"
     inkscape:cx="8.2362178"
     inkscape:cy="3.5223228"
     inkscape:window-x="0"
     inkscape:window-y="40"
     inkscape:window-maximized="1"
     inkscape:current-layer="svg7837" />
  <path
     d="M 139.10679,-88.035529 90.467577,-39.356351 A 24.83917,24.83917 0 1 1 55.35702,-74.466908 L 104.0362,-123.10612 A 79.053707,79.053707 0 0 0 68.066362,-131.99866 79.453371,79.453371 0 0 0 -0.55609217,-11.699544 L -125.91097,113.65534 a 19.983242,19.983242 0 1 0 28.256303,28.2563 L 27.700212,16.556761 a 79.13364,79.13364 0 0 0 40.36615,11.310515 79.932969,79.932969 0 0 0 79.932968,-79.932969 79.053707,79.053707 0 0 0 -8.89254,-35.969836 z"
     id="path7835"
     style="fill:#000000;fill-opacity:1;stroke-width:19.98324203"
     inkscape:connector-curvature="0" />
</svg>
