<!-- This Source Code Form is subject to the terms of the Mozilla Public
   - License, v. 2.0. If a copy of the MPL was not distributed with this
   - file, You can obtain one at http://mozilla.org/MPL/2.0/. -->
<svg width="24" height="24" viewBox="0 0 24 24" fill="none" xmlns="http://www.w3.org/2000/svg"><path d="M17.5 17c-2.1 0-3.5-2.5-5.5-2.5S8.4 17 6.5 17C3.9 17 2 14.6 2 10.4 2 7.8 2.8 7 6.1 7s4.3 1.4 5.9 1.4c1.6 0 2.6-1.4 5.9-1.4 3.3 0 4.1.8 4.1 3.4 0 4.2-1.9 6.6-4.5 6.6zm-9.8-6.8c-2 .1-2.9 1.3-2.9 1.6 0 .3 1.3 1.1 2.7 1.1 1.3 0 2.9-.5 2.9-.9 0-.5-.8-1.9-2.7-1.8zm8.6 0c-1.9-.1-2.7 1.3-2.7 1.8 0 .4 1.5.9 2.9.9s2.7-.8 2.7-1.1c-.1-.3-.9-1.5-2.9-1.6z" fill="#0C0C0D" fill-opacity=".8"></path></svg>