<?xml version="1.0" encoding="UTF-8" standalone="no"?>
<!-- This Source Code Form is subject to the terms of the Mozilla Public
   - License, v. 2.0. If a copy of the MPL was not distributed with this
   - file, You can obtain one at http://mozilla.org/MPL/2.0/. -->

<svg
   xmlns:dc="http://purl.org/dc/elements/1.1/"
   xmlns:cc="http://creativecommons.org/ns#"
   xmlns:rdf="http://www.w3.org/1999/02/22-rdf-syntax-ns#"
   xmlns:svg="http://www.w3.org/2000/svg"
   xmlns="http://www.w3.org/2000/svg"
   xmlns:sodipodi="http://sodipodi.sourceforge.net/DTD/sodipodi-0.dtd"
   xmlns:inkscape="http://www.inkscape.org/namespaces/inkscape"
   width="288"
   height="288"
   viewBox="0 0 288 288"
   version="1.1"
   id="svg12033"
   sodipodi:docname="Tracking Protection.svg"
   inkscape:version="0.92.3 (2405546, 2018-03-11)">
  <metadata
     id="metadata12039">
    <rdf:RDF>
      <cc:Work
         rdf:about="">
        <dc:format>image/svg+xml</dc:format>
        <dc:type
           rdf:resource="http://purl.org/dc/dcmitype/StillImage" />
        <dc:title></dc:title>
      </cc:Work>
    </rdf:RDF>
  </metadata>
  <defs
     id="defs12037" />
  <sodipodi:namedview
     pagecolor="#ffffff"
     bordercolor="#666666"
     borderopacity="1"
     objecttolerance="10"
     gridtolerance="10"
     guidetolerance="10"
     inkscape:pageopacity="0"
     inkscape:pageshadow="2"
     inkscape:window-width="1920"
     inkscape:window-height="1009"
     id="namedview12035"
     showgrid="false"
     showborder="true"
     inkscape:zoom="1"
     inkscape:cx="133.63942"
     inkscape:cy="96"
     inkscape:window-x="0"
     inkscape:window-y="40"
     inkscape:window-maximized="1"
     inkscape:current-layer="svg12033"
     inkscape:showpageshadow="false" />
  <g
     id="g12586"
     transform="matrix(10.146459,0,0,10.146459,-18.341811,-18.297679)">
    <path
       style="fill:#000000;fill-opacity:1"
       id="path12029"
       d="M 27,7.154 A 2.688,2.688 0 0 0 24.774,4.492 L 16,2.985 7.227,4.491 A 2.69,2.69 0 0 0 5,7.153 c -0.006,2.031 0.007,5.681 0.155,7.319 0.425,4.65 1.282,7.191 3.4,10.07 a 11.4,11.4 0 0 0 7.33,4.452 l 0.112,0.012 0.112,-0.012 a 11.4,11.4 0 0 0 7.33,-4.452 c 2.12,-2.879 2.977,-5.42 3.4,-10.07 C 26.992,12.834 27.005,9.184 27,7.154 Z m -2.147,7.137 c -0.391,4.287 -1.125,6.49 -3.021,9.065 A 9.562,9.562 0 0 1 16,26.989 9.568,9.568 0 0 1 10.169,23.356 C 8.269,20.781 7.539,18.578 7.148,14.291 7,12.676 7,8.765 7,7.159 a 0.7,0.7 0 0 1 0.563,-0.7 L 16,5.015 24.436,6.463 a 0.694,0.694 0 0 1 0.563,0.7 C 25,8.765 25,12.675 24.852,14.291 Z"
       inkscape:connector-curvature="0" />
    <path
       style="fill:#000000;fill-opacity:1"
       id="path12031"
       d="m 10.148,13.584 c 0.465,5.1 1.336,6.611 2.716,8.486 A 6.459,6.459 0 0 0 16,24.337 V 7.75 l -6,1.03 c 0.021,2.264 0.073,3.979 0.148,4.804 z"
       inkscape:connector-curvature="0" />
  </g>
</svg>
