<?xml version="1.0" encoding="UTF-8" standalone="no"?>
<!-- This Source Code Form is subject to the terms of the Mozilla Public
   - License, v. 2.0. If a copy of the MPL was not distributed with this
   - file, You can obtain one at http://mozilla.org/MPL/2.0/. -->

<svg
   xmlns:dc="http://purl.org/dc/elements/1.1/"
   xmlns:cc="http://creativecommons.org/ns#"
   xmlns:rdf="http://www.w3.org/1999/02/22-rdf-syntax-ns#"
   xmlns:svg="http://www.w3.org/2000/svg"
   xmlns="http://www.w3.org/2000/svg"
   xmlns:sodipodi="http://sodipodi.sourceforge.net/DTD/sodipodi-0.dtd"
   xmlns:inkscape="http://www.inkscape.org/namespaces/inkscape"
   width="288"
   height="288"
   viewBox="0 0 288 288"
   version="1.1"
   id="svg11079"
   sodipodi:docname="Web VR.svg"
   inkscape:version="0.92.3 (2405546, 2018-03-11)">
  <metadata
     id="metadata11085">
    <rdf:RDF>
      <cc:Work
         rdf:about="">
        <dc:format>image/svg+xml</dc:format>
        <dc:type
           rdf:resource="http://purl.org/dc/dcmitype/StillImage" />
        <dc:title></dc:title>
      </cc:Work>
    </rdf:RDF>
  </metadata>
  <defs
     id="defs11083" />
  <sodipodi:namedview
     pagecolor="#ffffff"
     bordercolor="#666666"
     borderopacity="1"
     objecttolerance="10"
     gridtolerance="10"
     guidetolerance="10"
     inkscape:pageopacity="0"
     inkscape:pageshadow="2"
     inkscape:window-width="1920"
     inkscape:window-height="1009"
     id="namedview11081"
     showgrid="false"
     showborder="true"
     inkscape:zoom="1"
     inkscape:cx="106.83152"
     inkscape:cy="83.504485"
     inkscape:window-x="0"
     inkscape:window-y="40"
     inkscape:window-maximized="1"
     inkscape:current-layer="svg11079"
     inkscape:showpageshadow="false" />
  <g
     id="g818"
     transform="matrix(0.48699374,0,0,0.48699374,140.10405,7.6417548)">
    <path
       inkscape:connector-curvature="0"
       style="fill:#000000;fill-opacity:1;stroke-width:34.59996796"
       id="path11075"
       d="m 198.29982,107 h -380.59964 a 86.499919,86.499919 0 0 0 -86.49992,86.49992 v 172.99984 a 86.499919,86.499919 0 0 0 86.49992,86.49991 h 104.491901 a 68.750135,68.750135 0 0 0 54.045149,-25.98457 33.388969,33.388969 0 0 0 3.459997,-5.0516 l 13.2863871,-24.21997 a 17.299984,17.299984 0 0 1 30.3787719,0 l 13.251787,24.21997 a 33.388969,33.388969 0 0 0 3.459997,5.0516 68.750135,68.750135 0 0 0 53.733749,25.98457 H 198.29982 a 86.499919,86.499919 0 0 0 86.49992,-86.49991 V 193.49992 A 86.499919,86.499919 0 0 0 198.29982,107 Z m 17.29998,259.49976 a 17.299984,17.299984 0 0 1 -17.29998,17.29998 H 94.499919 L 84.119928,364.56216 a 86.499919,86.499919 0 0 0 -151.963057,0 l -10.65679,19.23758 H -182.29982 A 17.299984,17.299984 0 0 1 -199.5998,366.49976 V 193.49992 a 17.299984,17.299984 0 0 1 17.29998,-17.29999 h 380.59964 a 17.299984,17.299984 0 0 1 17.29998,17.29999 z" />
    <path
       inkscape:connector-curvature="0"
       style="fill:#000000;fill-opacity:1;stroke-width:34.59996796"
       id="path11077"
       d="m 163.69985,210.7999 h -311.3997 a 17.299985,17.299985 0 0 0 0,34.59997 h 311.3997 a 17.299985,17.299985 0 0 0 0,-34.59997 z" />
  </g>
</svg>
