<?xml version="1.0" encoding="UTF-8" standalone="no"?>
<!-- Created with Inkscape (http://www.inkscape.org/) -->

<svg
   xmlns:dc="http://purl.org/dc/elements/1.1/"
   xmlns:cc="http://creativecommons.org/ns#"
   xmlns:rdf="http://www.w3.org/1999/02/22-rdf-syntax-ns#"
   xmlns:svg="http://www.w3.org/2000/svg"
   xmlns="http://www.w3.org/2000/svg"
   xmlns:sodipodi="http://sodipodi.sourceforge.net/DTD/sodipodi-0.dtd"
   xmlns:inkscape="http://www.inkscape.org/namespaces/inkscape"
   width="210mm"
   height="297mm"
   viewBox="0 0 210 297"
   version="1.1"
   id="svg7415"
   inkscape:version="0.92.3 (2405546, 2018-03-11)"
   sodipodi:docname="Web_Developers.svg">
  <defs
     id="defs7409" />
  <sodipodi:namedview
     id="base"
     pagecolor="#ffffff"
     bordercolor="#666666"
     borderopacity="1.0"
     inkscape:pageopacity="0.0"
     inkscape:pageshadow="2"
     inkscape:zoom="1.0910156"
     inkscape:cx="250.13963"
     inkscape:cy="560"
     inkscape:document-units="mm"
     inkscape:current-layer="layer1"
     showgrid="false"
     showborder="false"
     inkscape:window-width="1920"
     inkscape:window-height="1009"
     inkscape:window-x="0"
     inkscape:window-y="40"
     inkscape:window-maximized="1" />
  <metadata
     id="metadata7412">
    <rdf:RDF>
      <cc:Work
         rdf:about="">
        <dc:format>image/svg+xml</dc:format>
        <dc:type
           rdf:resource="http://purl.org/dc/dcmitype/StillImage" />
        <dc:title></dc:title>
      </cc:Work>
    </rdf:RDF>
  </metadata>
  <g
     inkscape:label="Layer 1"
     inkscape:groupmode="layer"
     id="layer1">
    <g
       id="g7970">
      <rect
         y="91.471878"
         x="-14.550662"
         height="82.696259"
         width="117.37534"
         id="rect7966"
         style="opacity:1;fill:#000000;fill-opacity:1;stroke:none;stroke-width:2.62799978;stroke-linecap:butt;stroke-linejoin:miter;stroke-miterlimit:4;stroke-dasharray:none;stroke-opacity:1;paint-order:normal" />
      <path
         sodipodi:nodetypes="sssssssssssssssssssssscccccccssscsssssssssssssss"
         inkscape:connector-curvature="0"
         id="path1541"
         d="m 71.696049,135.86075 c 1.01345,-0.5554 1.40761,-1.85407 1.902191,-2.89855 0.453659,-0.95802 0.783449,-1.98778 0.951089,-3.03444 0.171921,-1.07338 0.0751,-2.17422 0.0454,-3.26088 -0.0241,-0.87736 0.0807,-1.78909 -0.18116,-2.62682 -0.22007,-0.70429 -0.587981,-1.40392 -1.132239,-1.90217 -0.667372,-0.61097 -1.61602,-0.81649 -2.445661,-1.17755 -2.61054,-1.13612 -5.479171,-1.70286 -7.95619,-3.10643 -0.728239,-0.41264 -1.47135,-0.87675 -1.985549,-1.5372 -0.55798,-0.7167 -0.819971,-1.63031 -1.088851,-2.49791 -0.167309,-0.53994 -0.0599,-1.16353 -0.320241,-1.6653 -0.38245,-0.73714 -1.02425,-1.35464 -1.72933,-1.79341 -0.951608,-0.59217 -2.085139,-0.93685 -3.202498,-1.02478 -0.83984,-0.0661 -1.670621,0.22539 -2.497942,0.38427 -0.55948,0.1075 -1.0956,0.38554 -1.665279,0.38432 -1.118601,-0.003 -2.18679,-0.47645 -3.26657,-0.76859 -1.3364,-0.36158 -2.622121,-0.90542 -3.97107,-1.21697 -0.800259,-0.18483 -1.61579,-0.31132 -2.433881,-0.38427 -0.999699,-0.0891 -2.014569,-0.1898 -3.010339,-0.0641 -1.49553,0.18882 -2.94593,0.68243 -4.35539,1.21692 -1.598141,0.60605 -3.139961,1.37242 -4.611571,2.24175 -1.14753,0.67788 -2.25857,1.43382 -3.26653,2.3058 -4.34008,3.75454 -11.84921,12.48968 -11.84921,12.48968 l 9.47936,0.12818 -5.76447,6.27687 10.1839,-0.0641 -5.82852,6.34092 h 8.07026 l -2.56198,6.91738 c 0,0 3.15673,2.90607 4.819731,4.25932 1.47881,1.20336 2.96482,2.41296 4.57957,3.42664 2.00165,1.25658 4.10387,2.37553 6.292879,3.26654 1.65304,0.67285 5.123981,1.55323 5.123981,1.55323 0,0 0.15816,-3.68349 0.256189,-5.52429 0.0756,-1.42033 0.105881,-2.84496 0.256201,-4.25933 0.194101,-1.82555 0.37116,-3.66733 0.832641,-5.44422 0.269158,-1.03636 0.527788,-2.11885 1.120868,-3.01033 0.518721,-0.77971 1.243412,-1.44499 2.04961,-1.9215 0.802082,-0.47409 1.742832,-0.69012 2.658071,-0.86468 0.840499,-0.1603 1.70711,-0.19678 2.561989,-0.16011 0.722482,0.0309 1.438712,0.16801 2.145652,0.32026 0.650788,0.14016 1.286438,0.34472 1.921489,0.54442 0.560361,0.1762 1.103479,0.40492 1.66529,0.57642 0.517599,0.158 1.028549,0.43981 1.56923,0.41634 0.69156,-0.03 1.337551,-0.38869 1.953509,-0.70453 0.587571,-0.30127 1.104792,-0.72503 1.63326,-1.12088 0.41902,-0.31385 0.724911,-0.81404 1.21694,-0.99279 0.57504,-0.2089 1.298731,0.27087 1.835251,-0.0231 z"
         style="opacity:1;fill:#ffffff;fill-opacity:1;stroke:none;stroke-width:0.36232001px;stroke-linecap:butt;stroke-linejoin:miter;stroke-opacity:1" />
    </g>
  </g>
</svg>
