<?xml version="1.0" encoding="utf-8"?>
<!-- Generator: Adobe Illustrator 17.0.0, SVG Export Plug-In . SVG Version: 6.00 Build 0)  -->
<!DOCTYPE svg PUBLIC "-//W3C//DTD SVG 1.1//EN" "http://www.w3.org/Graphics/SVG/1.1/DTD/svg11.dtd">
<svg version="1.1" id="Rain_of_Rust" xmlns="http://www.w3.org/2000/svg" xmlns:xlink="http://www.w3.org/1999/xlink" x="0px"
	 y="0px" width="506.862px" height="151.558px" viewBox="0 0 506.862 151.558" enable-background="new 0 0 506.862 151.558"
	 xml:space="preserve">
<g>
	<g>
		<path d="M313.417,113.118"/>
	</g>
	<g>
		<path d="M318.103,114.861l-4.687-1.743L318.103,114.861z"/>
	</g>
	<g>
		<polygon fill="#7B492D" points="115.887,58.947 130.002,58.947 132.488,45.795 118.373,45.795 		"/>
		<path fill="#7B492D" d="M190.232,63.68c0,4.571,3.529,6.015,6.656,6.015c4.973,0,10.105-3.689,10.506-9.544v-2.727
			c-2.005-0.16-4.25-0.401-6.657-0.401C195.445,57.022,190.232,58.146,190.232,63.68z"/>
		<path fill="#7B492D" d="M307.966,41.865c-7.458,0-11.629,5.854-11.629,13.794c0,7.779,4.01,13.875,11.629,13.875
			c7.619,0,11.79-5.936,11.79-13.955C319.755,47.398,315.424,41.865,307.966,41.865z"/>
		<path fill="#7B492D" d="M475.104,0h-1.765h-34.807h-1.844h-45.234h-1.523h-33.604h-1.765H329.46h-1.925h-38.897h-1.924h-43.79
			h-1.925h-20.291h-1.925h-36.491h-1.925h-31.438h-1.925H99.927v90.627h47.078h1.925h31.438h1.925h36.491h1.925h20.291h1.925h43.79
			h1.924h38.897h1.925h25.103h1.765h33.604h1.523h45.234h1.844h34.807h1.765h31.759V0H475.104z M144.839,45.795h-7.298
			l-2.486,13.152h7.379v4.571h-8.261l-1.925,10.025h-5.053l1.925-10.025h-14.115l-1.925,10.025h-5.053l1.925-10.025h-6.175v-4.571
			h7.058l2.486-13.152h-7.138v-4.571h8.021l1.844-9.464h5.053l-1.845,9.464h14.115l1.845-9.464h5.053l-1.845,9.464h6.416V45.795z
			 M173.47,48.602l-1.363-6.095c-0.882-0.321-1.764-0.481-2.727-0.481c-4.17,0-7.298,3.85-7.298,9.384v17.563h8.261v4.571h-20.13
			v-4.571h6.256V42.427h-6.416v-4.572h11.709v6.416c1.363-4.01,4.732-7.058,8.822-7.058c2.486,0,4.331,0.401,6.095,1.845
			l1.364,8.982L173.47,48.602z M213.891,74.346c-4.171,0-6.416-2.807-6.497-7.218v-0.16c-2.246,3.85-6.416,7.378-12.19,7.378
			c-4.732,0-10.827-2.405-10.827-10.024c0-8.982,8.661-10.988,16.682-10.988c2.165,0,4.411,0.161,6.335,0.321v-3.208
			c0-5.133-1.684-8.662-8.1-8.662c-2.406,0-4.732,0.401-6.897,1.444l-1.363,6.175l-4.651-0.561l1.283-8.261
			c3.689-2.486,7.939-3.449,12.591-3.449c8.261,0,12.752,3.93,12.752,11.95v17.002c0,2.646,0.962,3.85,3.047,3.85
			c0.722,0,1.685-0.16,2.406-0.48l0.08,3.688C217.259,73.864,215.575,74.346,213.891,74.346z M228.006,21.334h6.095v7.298h-6.095
			V21.334z M240.437,73.544h-18.125v-4.571h6.256V42.427h-6.416v-4.572h12.03v31.118h6.255V73.544z M268.988,73.544v-4.571h6.175
			V52.371c0-7.699-3.448-10.506-8.26-10.506c-6.416,0-10.586,4.972-10.827,10.426v16.682h6.255v4.571h-18.125v-4.571h6.256V42.427
			h-6.416v-4.572h12.03v6.336c2.406-4.411,6.817-7.058,12.511-7.058c6.978,0,12.271,4.091,12.271,13.554v18.286h5.855v4.571H268.988
			z M307.806,74.346c-10.827,0-17.323-7.619-17.323-18.365c0-10.427,6.095-18.928,17.644-18.928
			c11.629,0,17.563,8.501,17.563,18.606C325.69,66.486,318.793,74.346,307.806,74.346z M348.788,22.456
			c-4.01,0-6.496,2.808-6.496,8.422v6.977h9.223v4.491h-9.223v26.627h8.1v4.571h-19.97v-4.571h6.175V42.346h-5.133v-4.491h5.133
			v-6.656c0-8.341,5.694-13.634,12.592-13.634c1.498,0,3.651,0.087,5.373,0.401v5.162C352.783,22.712,350.535,22.456,348.788,22.456
			z M381.429,52.451l-1.363-6.175c-1.042-0.643-1.845-0.963-2.807-0.963c-2.326,0-4.411,1.845-4.411,5.373v15.078h6.416v7.779
			H357.69v-7.779h4.812V45.233h-5.213v-7.859h14.757v6.896c1.203-4.17,3.609-7.378,8.501-7.378c2.005,0,4.652,0.562,7.138,2.005
			l1.604,12.672L381.429,52.451z M436.527,73.544h-15.559V68.01c-2.326,4.011-6.335,6.256-11.629,6.256
			c-6.817,0-12.671-3.93-12.671-12.511V45.153h-4.813v-7.779h15.158v20.37c0,6.256,2.085,8.662,6.175,8.662
			c4.972,0,7.779-3.529,7.779-8.581V45.153h-5.854v-7.779h16.201v28.391h5.213V73.544z M455.214,74.346
			c-5.213,0-10.667-1.042-15.479-3.528l1.444-10.105l8.02,0.882v4.491c1.925,0.642,4.331,0.723,5.454,0.723
			c3.93,0,7.298-1.283,7.298-3.85c0-6.176-21.814-0.723-21.814-15.078c0-8.902,8.501-11.229,15.879-11.229
			c4.812,0,9.063,0.963,13.554,3.289l0.882,9.223l-8.02,0.882l-0.642-5.052c-1.925-0.643-4.01-0.883-5.694-0.883
			c-2.647,0-4.813,1.043-4.813,3.449c0,6.255,21.093,0.962,21.093,14.917C472.377,70.496,465.319,74.346,455.214,74.346z
			 M492.908,74.346c-8.021,0-13.153-4.17-13.153-11.629V44.752h-4.651v-7.378h4.651V26.386h10.346v10.988h12.992v7.378h-12.992v16.2
			c0,3.449,1.443,4.732,4.01,4.732c1.283,0,3.77-0.321,4.411-5.694l7.539,2.325C505.018,70.657,500.446,74.346,492.908,74.346z"/>
	</g>
	<g>
		<path d="M164.437,123.971c-2.171,1.385-2.549,3.62-2.632,6.209c0.048,0.459,0.083,1.166,0.201,1.859
			c0.494,2.928,2.318,4.743,4.845,4.858c2.747,0.126,4.95-1.472,5.511-4.398c0.316-1.644,0.352-3.451,0.026-5.089
			C171.655,123.724,167.517,122.004,164.437,123.971z"/>
		<path d="M256.327,135.348c0.306,1.46,1.32,1.928,2.676,1.913c2.746-0.028,4.831-2.342,4.8-5.76
			c-1.987,0.159-3.946,0.143-5.823,0.523C256.59,132.307,256.009,133.835,256.327,135.348z"/>
		<path d="M99.771,100.455v51.103h182.167v-51.103H99.771z M152.242,141.337h-9.467c0-3.21,0.009-6.403-0.004-9.595
			c-0.007-1.5,0.004-3.002-0.099-4.496c-0.181-2.644-1.333-3.945-3.456-4.048c-2.582-0.126-4.317,1.094-4.526,3.752
			c-0.247,3.127-0.058,6.29-0.058,9.502h2.849v4.898h-9.49v-0.762c0-3.904,0.01-7.809-0.007-11.714
			c-0.004-0.813-0.042-1.634-0.168-2.436c-0.308-1.967-1.383-3.069-3.047-3.219c-2.34-0.211-3.916,0.659-4.582,2.604
			c-0.218,0.639-0.385,1.33-0.396,2c-0.042,2.845-0.018,5.69-0.018,8.606h4.26v4.908h-13.759v-4.841h2.93v-12.845h-3.186v-4.904
			h9.728v3.305c1.836-2.878,4.382-4.002,7.512-3.797c3.15,0.205,5.528,1.63,6.803,4.78c1.176-2.523,2.986-4.106,5.648-4.646
			c5.317-1.08,9.511,2.258,9.559,7.661c0.03,3.44,0.006,6.879,0.006,10.406h2.969V141.337z M166.884,141.903
			c-7.24-0.019-11.794-4.522-11.774-11.64c0.021-7.334,4.848-12.082,12.246-12.044c7.332,0.036,12.125,4.752,12.092,11.896
			C179.415,137.187,174.367,141.923,166.884,141.903z M198.783,136.442c0.353-1.155,0.705-2.307,1.069-3.499
			c1.389,0.135,2.745,0.266,4.147,0.403c-0.247,5.091-0.141,2.915-0.388,8.006h-19.888c-0.214-1.11-0.43-2.227-0.653-3.375
			c4.127-4.744,8.25-9.485,12.438-14.301h-7.044c-0.32,1.104-0.65,2.241-1.005,3.465c-1.53-0.16-3.055-0.319-4.686-0.489
			c0.265-2.639,0.529-5.257,0.797-7.914h19.962c0.166,1.128,0.328,2.234,0.497,3.378c-4.159,4.744-8.315,9.483-12.56,14.325H198.783
			z M216.512,141.354h-6.716v-8.063h6.716V141.354z M216.512,126.801h-6.715v-8.063h6.715V126.801z M220.799,141.364
			c3.275-11.561,6.536-23.07,9.8-34.59h6.406c-3.277,11.568-6.536,23.071-9.799,34.59H220.799z M233.995,141.359
			c3.27-11.538,6.528-23.042,9.795-34.573h6.406c-3.272,11.548-6.53,23.05-9.795,34.573H233.995z M263.845,137.488
			c-0.199,0.286-0.338,0.485-0.475,0.686c-2.278,3.325-6.075,4.59-9.751,3.229c-2.633-0.975-3.949-2.926-4.057-5.692
			c-0.103-2.646,0.955-4.681,3.38-5.863c3.069-1.496,6.363-1.413,9.657-1.263c0.371,0.018,0.742,0.065,1.113,0.083
			c0.02-0.016,0.034-0.027,0.054-0.042c0.542-2.817-0.332-5.163-2.255-5.533c-1.197-0.23-2.487-0.081-3.725,0.024
			c-1.782,0.15-1.245,1.913-1.956,2.948c-1.626-0.171-3.323-0.349-5.095-0.535c0.302-1.789,0.59-3.497,0.879-5.213
			c4.132-1.806,8.369-2.713,12.823-1.699c3.495,0.796,5.907,4.016,5.928,7.601c0.017,2.911,0.003,5.823,0.003,8.734
			c0,2.473,0.032,2.508,2.461,2.589c0.023,0.022,0.036,0.035,0.059,0.057c0.004,1.055,0.003,2.108,0.003,3.183
			C269.661,143.458,264.704,141.747,263.845,137.488z"/>
	</g>
	<g>
		<path fill="#7B492D" d="M28.386,51.506c0.039-1.093,0.092-2.185,0.096-3.279c0.013-3.64,0.009-7.281,0.003-10.922
			c0-0.255-0.071-0.51-0.104-0.734c-0.715-0.179-2.709-0.168-3.321,0.019c0.03,0.148,0.035,0.261,0.076,0.358
			c0.191,0.453,0.397,0.898,0.587,1.351c0.498,1.19,0.151,2.108-1.006,2.645c-0.567,0.263-1.146,0.5-1.716,0.756
			c-0.79,0.355-1.577,0.717-2.419,1.1c-0.332,3.173-0.124,6.245,0.773,9.221c0.801,0.182,6.385,0.149,6.95-0.029
			C28.33,51.847,28.38,51.677,28.386,51.506z"/>
		<path fill="#7B492D" d="M59.699,64.205c-1.116-0.004-1.973,0.87-1.971,2.007c0.002,1.109,0.901,1.997,2.012,1.987
			c1.001-0.01,1.978-0.992,1.981-1.994C61.725,65.145,60.778,64.208,59.699,64.205z"/>
		<path fill="#7B492D" d="M30.136,64.08c-1.061,0.013-2.027,0.971-2.024,2.01c0.003,1.043,0.981,2.016,2.021,2.01
			c1.096-0.006,1.988-0.907,1.991-2.008C32.126,64.984,31.22,64.067,30.136,64.08z"/>
		<path fill="#7B492D" d="M44.925,22.084c1.094,0.003,1.965-0.896,1.96-2.023c-0.005-1.135-0.867-2.003-1.98-1.994
			c-1.08,0.01-2.015,0.946-2.007,2.011C42.906,21.138,43.86,22.081,44.925,22.084z"/>
		<path fill="#7B492D" d="M23.136,38.032c-0.013-1.035-1.01-2.008-2.04-1.992c-1.096,0.017-1.987,0.923-1.987,2.02
			c0,1.139,0.909,2.032,2.046,2.012C22.211,40.052,23.15,39.086,23.136,38.032z"/>
		<path fill="#7B492D" d="M68.723,36.173c-1.136,0.004-2.008,0.867-2.002,1.982c-0.056,1.078,1.005,2.014,2,2.027
			c1.041,0.014,2.033-0.984,2.02-2.017C70.727,37.057,69.828,36.169,68.723,36.173z"/>
		<path fill="#7B492D" d="M54.863,59.933c-0.917,0.01-1.683-0.269-2.279-0.927c-0.49-0.542-0.942-1.132-1.325-1.754
			c-0.537-0.87-0.66-1.891-0.882-2.869c-0.247-1.089-0.43-2.194-0.71-3.274c-0.545-2.098-2.036-3.24-4.194-3.256
			c-1.721-0.012-3.441-0.006-5.162,0c-0.237,0.001-0.475,0.048-0.685,0.071c-0.207,0.664-0.197,3.806,0.015,4.421
			c0.234,0.019,0.495,0.058,0.756,0.059c1.475,0.006,2.95-0.001,4.424,0.007c0.256,0.001,0.513,0.055,0.743,0.082
			c0.164,0.729,0.148,6.737-0.031,7.382c-0.346,0.016-0.676,0.044-1.006,0.044c-5.519,0.002-11.039,0.001-16.558,0
			c-0.693,0-1.385-0.005-2.078,0.006c-0.158,0.002-0.315,0.061-0.613,0.123c0.752,0.876,1.412,1.647,2.062,2.404
			c0.421-0.08,0.75-0.137,1.076-0.206c1.027-0.218,2.051-0.452,3.08-0.657c0.85-0.169,1.659,0.229,2.009,0.975
			c0.103,0.22,0.169,0.462,0.221,0.701c0.235,1.069,0.455,2.141,0.69,3.21c0.085,0.389,0.198,0.771,0.298,1.157
			c3.889,1.854,7.957,2.48,12.17,2.199c2.87-0.192,5.636-0.864,8.237-2.107c0.08-0.291,0.156-0.524,0.208-0.762
			c0.274-1.243,0.528-2.491,0.816-3.732c0.287-1.237,1.075-1.743,2.325-1.516c0.439,0.08,0.873,0.19,1.31,0.281
			c0.914,0.192,1.83,0.38,2.685,0.558c0.914-0.714,1.96-1.994,2.124-2.632c-0.306,0-0.591,0-0.875,0
			C60.762,59.922,57.812,59.902,54.863,59.933z"/>
		<path fill="#7B492D" d="M68.725,42.636c-1.226-0.542-2.457-1.073-3.681-1.619c-0.845-0.377-1.22-1.013-1.114-1.929
			c0.035-0.304,0.142-0.609,0.265-0.892c0.6-1.371,1.22-2.734,1.826-4.103c0.116-0.263,0.204-0.538,0.32-0.851
			c-1.888-3.302-4.428-5.991-7.557-8.117c-2.802-1.904-5.868-3.192-9.217-3.769c-0.731,0.68-1.421,1.315-2.102,1.958
			c-0.422,0.399-0.819,0.826-1.25,1.214c-0.841,0.756-1.961,0.731-2.776-0.061c-0.368-0.357-0.69-0.762-1.054-1.123
			c-0.649-0.643-1.314-1.27-2.047-1.976c-5.259,1.033-9.756,3.549-13.425,7.604c0.294,0.087,0.572,0.105,0.85,0.105
			c8.068,0.001,16.136-0.007,24.203,0.013c0.842,0.002,1.701,0.09,2.522,0.272c2.482,0.551,4.578,1.762,6.088,3.855
			c1.635,2.268,1.843,5.206,0.096,7.631c-0.837,1.163-1.902,2.063-3.055,2.88c-0.211,0.15-0.414,0.31-0.693,0.519
			c0.344,0.286,0.606,0.52,0.884,0.734c1.13,0.871,1.936,1.98,2.382,3.33c0.245,0.74,0.447,1.5,0.6,2.264
			c0.116,0.579,0.414,0.975,0.908,1.252c0.863,0.485,1.776,0.565,2.724,0.315c1.293-0.341,2.058-1.247,2.167-2.581
			c0.033-0.4,0.005-0.805,0.035-1.206c0.024-0.325,0.094-0.646,0.133-0.899c0.914-0.527,1.862,0.002,2.7-0.346
			c0.307-1.396,0.116-2.738,0.027-4.097C69.199,42.872,68.967,42.743,68.725,42.636z"/>
		<path fill="#7B492D" d="M0,0.629v90.003h90.003V0.629H0z M77.851,46.64c-0.658,0.327-1.266,0.755-1.892,1.144
			c-0.206,0.128-0.399,0.278-0.607,0.425c-0.04,0.259-0.076,0.499-0.113,0.738c-0.033,0.044-0.065,0.088-0.098,0.132
			c0.264,0.203,0.54,0.392,0.789,0.612c0.553,0.487,1.108,0.973,1.633,1.49c0.635,0.625,0.496,1.368-0.323,1.708
			c-0.763,0.316-1.538,0.61-2.324,0.863c-0.566,0.182-0.868,0.509-0.86,1.157c0.515,0.712,1.051,1.452,1.587,2.194
			c0.809,1.12,0.551,1.755-0.806,1.982c-0.923,0.154-1.846,0.306-2.69,0.446c-0.466,0.444-0.509,0.852-0.259,1.339
			c0.316,0.616,0.59,1.253,0.88,1.882c0.075,0.162,0.16,0.323,0.205,0.494c0.217,0.818-0.11,1.412-1.006,1.367
			c-0.847-0.042-1.697-0.031-2.542-0.098c-0.535-0.042-0.832,0.226-1.128,0.672c0.028,0.173,0.052,0.392,0.1,0.606
			c0.164,0.719,0.337,1.436,0.504,2.154c0.035,0.152,0.076,0.305,0.09,0.46c0.077,0.836-0.397,1.282-1.224,1.114
			c-0.81-0.164-1.61-0.376-2.415-0.564c-0.216-0.05-0.436-0.089-0.639-0.129c-0.549,0.259-0.704,0.635-0.685,1.133
			c0.033,0.826,0.022,1.653,0.057,2.479c0.041,0.948-0.59,1.408-1.48,1.028c-0.74-0.315-1.469-0.655-2.189-1.014
			c-0.495-0.246-0.937-0.262-1.454,0.231c-0.127,0.791-0.269,1.691-0.416,2.59c-0.036,0.22-0.064,0.445-0.133,0.655
			c-0.217,0.66-0.844,0.903-1.444,0.541c-0.362-0.219-0.689-0.495-1.033-0.744c-0.452-0.328-0.905-0.655-1.36-0.979
			c-0.09-0.064-0.193-0.11-0.283-0.16c-0.553-0.022-0.891,0.22-1.067,0.737c-0.26,0.761-0.548,1.513-0.825,2.268
			c-0.37,1.007-1.234,1.166-1.949,0.364c-0.55-0.617-1.103-1.231-1.667-1.834c-0.521-0.556-1.075-0.505-1.486,0.143
			c-0.418,0.661-0.808,1.339-1.211,2.01c-0.069,0.115-0.129,0.236-0.207,0.345c-0.473,0.654-1.288,0.657-1.726-0.018
			c-0.486-0.75-0.935-1.523-1.403-2.285c-0.093-0.151-0.196-0.295-0.28-0.421c-0.476-0.251-0.841-0.132-1.166,0.223
			c-0.543,0.593-1.093,1.179-1.642,1.767c-0.107,0.114-0.21,0.236-0.333,0.329c-0.591,0.445-1.32,0.272-1.606-0.413
			c-0.275-0.659-0.493-1.342-0.743-2.012c-0.124-0.332-0.265-0.659-0.407-1.01c-0.269-0.08-0.52-0.156-0.818-0.244
			c-0.742,0.539-1.48,1.076-2.219,1.612c-0.163,0.118-0.32,0.248-0.495,0.342c-0.641,0.342-1.301,0.065-1.446-0.647
			c-0.169-0.831-0.271-1.675-0.412-2.512c-0.044-0.261-0.125-0.515-0.173-0.71c-0.436-0.402-0.844-0.402-1.294-0.188
			c-0.706,0.336-1.421,0.654-2.136,0.97c-0.182,0.08-0.375,0.156-0.57,0.182c-0.589,0.076-1.02-0.259-1.041-0.855
			c-0.021-0.601,0.023-1.205,0.047-1.807c0.012-0.312,0.037-0.623,0.065-0.934c0.051-0.563-0.169-0.952-0.807-1.172
			c-0.613,0.147-1.306,0.315-1.999,0.479c-0.348,0.083-0.694,0.177-1.046,0.236c-0.828,0.139-1.36-0.399-1.186-1.22
			c0.171-0.808,0.382-1.608,0.572-2.413c0.051-0.216,0.089-0.436,0.126-0.62c-0.359-0.741-0.52-0.801-1.261-0.747
			c-0.845,0.061-1.696,0.08-2.543,0.073c-0.819-0.007-1.18-0.592-0.86-1.384c0.251-0.621,0.553-1.22,0.828-1.832
			c0.163-0.365,0.316-0.734,0.476-1.107c-0.139-0.243-0.259-0.454-0.424-0.741c-0.82-0.138-1.673-0.283-2.528-0.426
			c-0.154-0.026-0.309-0.045-0.464-0.065c-1.038-0.134-1.324-1.031-0.722-1.747c0.373-0.444,0.7-0.927,1.04-1.398
			c0.248-0.343,0.482-0.695,0.69-0.996c0.016-0.648-0.279-0.956-0.82-1.132c-0.764-0.248-1.512-0.549-2.263-0.837
			c-0.92-0.353-1.089-1.065-0.395-1.754c0.602-0.597,1.251-1.147,1.86-1.737c0.659-0.638,0.6-1.118-0.172-1.599
			c-0.645-0.402-1.271-0.84-1.945-1.187c-1.006-0.519-1.053-1.514,0.031-2.082c0.671-0.352,1.301-0.784,1.946-1.185
			c0.732-0.456,0.788-0.956,0.162-1.557c-0.613-0.587-1.253-1.146-1.858-1.74c-0.165-0.162-0.308-0.394-0.358-0.617
			c-0.126-0.554,0.073-0.895,0.611-1.105c0.791-0.309,1.582-0.619,2.388-0.887c0.506-0.168,0.81-0.448,0.82-1.109
			c-0.317-0.453-0.684-0.982-1.056-1.507c-0.259-0.364-0.544-0.711-0.784-1.087c-0.446-0.7-0.194-1.33,0.629-1.509
			c0.741-0.161,1.497-0.253,2.245-0.381c0.306-0.052,0.61-0.119,0.937-0.183c0.143-0.236,0.278-0.46,0.443-0.733
			c-0.384-0.854-0.768-1.706-1.149-2.56c-0.091-0.203-0.201-0.405-0.25-0.619c-0.15-0.65,0.192-1.131,0.855-1.137
			c0.892-0.007,1.785,0.054,2.677,0.073c0.239,0.005,0.502,0.013,0.715-0.075c0.384-0.157,0.541-0.552,0.438-1.009
			c-0.162-0.719-0.346-1.433-0.52-2.149c-0.053-0.217-0.127-0.431-0.154-0.651c-0.091-0.743,0.361-1.211,1.102-1.148
			c0.177,0.015,0.351,0.064,0.524,0.107c0.694,0.171,1.401,0.306,2.078,0.53c0.881,0.291,1.476-0.279,1.378-1.132
			c-0.068-0.598-0.097-1.201-0.134-1.802c-0.015-0.245-0.018-0.492-0.005-0.737c0.039-0.775,0.576-1.171,1.325-0.954
			c0.298,0.086,0.576,0.242,0.859,0.374c0.707,0.33,1.412,0.665,2.055,0.969c0.661-0.085,0.933-0.426,1.005-0.987
			c0.105-0.819,0.213-1.64,0.363-2.452c0.182-0.98,0.899-1.265,1.729-0.692c0.698,0.482,1.37,1.003,2.056,1.502
			c0.143,0.104,0.299,0.189,0.409,0.258c0.609,0.031,0.912-0.257,1.081-0.765c0.247-0.742,0.516-1.477,0.79-2.209
			c0.386-1.03,1.181-1.213,1.96-0.425c0.548,0.555,1.061,1.149,1.556,1.754c0.359,0.438,0.753,0.607,1.348,0.338
			c0.509-0.831,1.029-1.716,1.591-2.573c0.16-0.244,0.416-0.481,0.681-0.59c0.44-0.181,0.878,0.04,1.182,0.522
			c0.405,0.643,0.788,1.299,1.18,1.95c0.069,0.115,0.125,0.238,0.199,0.349c0.399,0.595,0.951,0.652,1.448,0.124
			c0.582-0.618,1.132-1.265,1.715-1.882c0.162-0.172,0.37-0.34,0.589-0.41c0.582-0.187,1.047,0.057,1.279,0.655
			c0.307,0.792,0.598,1.59,0.87,2.394c0.163,0.483,0.461,0.749,1.095,0.767c0.445-0.316,0.972-0.685,1.495-1.061
			c0.363-0.261,0.706-0.551,1.083-0.789c0.687-0.433,1.366-0.182,1.55,0.607c0.167,0.716,0.239,1.453,0.359,2.18
			c0.054,0.329,0.123,0.656,0.193,1.021c0.218,0.136,0.44,0.275,0.702,0.439c0.351-0.146,0.702-0.282,1.044-0.437
			c0.611-0.277,1.209-0.581,1.825-0.844c0.949-0.405,1.566,0.076,1.523,1.104c-0.042,1.001-0.009,2.006-0.009,3.055
			c0.162,0.144,0.342,0.304,0.565,0.502c0.8-0.183,1.603-0.367,2.405-0.552c0.283-0.065,0.562-0.158,0.849-0.194
			c0.732-0.092,1.186,0.319,1.093,1.052c-0.082,0.64-0.263,1.267-0.402,1.899c-0.105,0.476-0.213,0.952-0.303,1.355
			c0.338,0.633,0.769,0.764,1.386,0.695c0.818-0.092,1.651-0.074,2.477-0.053c0.752,0.019,1.13,0.595,0.846,1.297
			c-0.327,0.807-0.711,1.591-1.076,2.382c-0.293,0.634-0.294,0.669,0.162,1.37c0.805,0.141,1.681,0.292,2.557,0.447
			c0.264,0.047,0.532,0.081,0.787,0.159c0.566,0.174,0.805,0.663,0.586,1.21c-0.09,0.224-0.234,0.431-0.376,0.63
			c-0.531,0.745-1.071,1.483-1.582,2.189c-0.006,0.655,0.296,0.981,0.863,1.163c0.765,0.245,1.516,0.54,2.261,0.841
			c0.894,0.36,1.03,1.024,0.342,1.712c-0.552,0.553-1.132,1.077-1.713,1.6c-0.199,0.179-0.436,0.315-0.655,0.471
			c0.031,0.045,0.062,0.09,0.092,0.134c0.03,0.24,0.059,0.481,0.099,0.805c0.494,0.316,1.015,0.654,1.541,0.983
			c0.322,0.202,0.637,0.421,0.98,0.579C78.743,45.045,78.763,46.187,77.851,46.64z"/>
		<path fill="#7B492D" d="M40.153,41.273c2.453,0.004,4.907,0.034,7.359-0.02c0.673-0.015,1.367-0.219,2.003-0.462
			c0.915-0.35,1.357-1.142,1.24-1.997c-0.08-0.587-0.398-1.035-0.874-1.37c-0.79-0.557-1.683-0.82-2.64-0.825
			c-2.319-0.013-4.639-0.007-6.958-0.002c-0.241,0-0.481,0.038-0.848,0.07c-0.062,1.555-0.139,3.026,0.052,4.531
			C39.763,41.229,39.958,41.272,40.153,41.273z"/>
	</g>
</g>
</svg>
