<svg xmlns="http://www.w3.org/2000/svg" viewBox="0 0 1737.47 381.85"><defs><style>.cls-1{font-size:216.27px;font-family:ZillaSlab-SemiBold, Zilla Slab;font-weight:700;}.cls-2{letter-spacing:0em;}.cls-3{letter-spacing:-0.02em;}.cls-4{letter-spacing:-0.03em;}</style></defs><title>Mozilla Quality Assurance logo</title><g id="Layer_2" data-name="Layer 2"><g id="Layer_4" data-name="Layer 4"><path d="M180.77,304.54c-8.88,0-14.39,6.59-14.39,18,0,10.49,4.84,18.55,14.25,18.55,9,0,14.93-7.26,14.93-18.82C195.56,310.05,189,304.54,180.77,304.54Z"/><path d="M418.53,335.06c0,3.9,1.88,7,7.12,7,6.19,0,12.78-4.43,13.18-14.52a64.53,64.53,0,0,0-8.74-.8C423.91,326.73,418.53,328.47,418.53,335.06Z"/><path d="M0,243.17V381.85H484.72V243.17ZM141.38,353.58H115.8V318.93c0-10.49-3.92-14.52-10.78-14.52-8.33,0-12.11,5.91-12.11,14.38v21.32H101v13.47H76.75V318.93c0-10.49-3.92-14.52-10.77-14.52-8.34,0-12.12,5.91-12.12,14.38v21.32H66v13.47H28.28V340.11h8.07v-35H28.28V293H53.86v8.59c4-6.45,10.07-10.35,18.54-10.35,8.74,0,16.86,4.17,19.82,13,3.36-8.06,10.46-13,20-13,10.89,0,21.08,6.59,21.08,21v27.9h8.08Zm38.72.84c-18.69,0-31.6-11.42-31.6-30.79,0-17.74,10.76-32.4,32.54-32.4s32.4,14.66,32.4,31.6C213.44,342.19,199.46,354.42,180.1,354.42Zm97.78-.84h-53l-1.75-9.65L256.5,305.1H237.55l-2.69,9.67-12.51-.94L224.5,293h53.25l1.34,9-33.61,38.15h19.63l2.82-9.51,13.72,1.54Zm34.5,0H294.87V330.69h17.51Zm0-39.05H294.87V293h17.51Zm11.47,39.05,26.22-92.91h17.07l-26.22,92.91Zm35.23,0,26.21-92.91h17.08l-26.22,92.91Zm93.06.84c-8.07,0-12.5-4.7-13.31-12.1-3.5,6.19-9.68,12.1-19.5,12.1-8.74,0-18.68-4.7-18.68-17.34,0-14.92,14.44-18.42,28.29-18.42a74.94,74.94,0,0,1,10,.54v-2c0-6.18-.19-13.58-10-13.58-3.63,0-6.48.27-9.31,1.75l-2,6.82-13.86-1.48,2.36-13.95c10.62-4.3,16.14-5.51,26.09-5.51,13,0,24.2,6.72,24.2,20.57v26.36c0,3.49,1.21,4.7,4,4.7a8.7,8.7,0,0,0,2.49-.4l.09,9.14A23.52,23.52,0,0,1,452.14,354.42Z"/><text class="cls-1" transform="translate(0 178.42)">Quali<tspan class="cls-2" x="512.11" y="0">t</tspan><tspan class="cls-3" x="594.94" y="0">y</tspan><tspan class="cls-4" x="702.86" y="0"> </tspan><tspan x="740.27" y="0">Assurance</tspan></text></g></g></svg>