<?xml version="1.0" encoding="utf-8"?>
<!-- Generator: Adobe Illustrator 17.0.0, SVG Export Plug-In . SVG Version: 6.00 Build 0)  -->
<!DOCTYPE svg PUBLIC "-//W3C//DTD SVG 1.1//EN" "http://www.w3.org/Graphics/SVG/1.1/DTD/svg11.dtd">
<svg version="1.1" id="Layer_1" xmlns="http://www.w3.org/2000/svg" xmlns:xlink="http://www.w3.org/1999/xlink" x="0px" y="0px"
	 width="109.342px" height="116.21px" viewBox="0 0 109.342 116.21" enable-background="new 0 0 109.342 116.21"
	 xml:space="preserve">
<g>
	<path fill="#FFFFFF" d="M45.479,19.476h5h8.385V0H0v91.734h45.479V24.476V19.476z M30.432,77.712H17.644v3.479l-8.069-7.537
		l8.069-7.537v3.479h12.788V77.712z M33.502,67.823v-3.479H20.714v-8.116h12.788V52.75l8.069,7.537L33.502,67.823z M44.465,17.085
		h-6.149c-1.558,4.519-3.837,8.546-6.786,11.992l4.909,4.73l-2.377,6.153l-6.532-6.532l-9.969,9.875l-4.212-4.211l10.197-10.011
		c-2.252-2.611-4.098-5.492-5.496-8.577l-0.64-1.413h6.162l0.281,0.535c1.07,2.039,2.306,3.903,3.682,5.555
		c2.072-2.468,3.711-5.183,4.89-8.097H10.603v-6.007h13.975V7.164h5.914v3.914h13.974L44.465,17.085L44.465,17.085z"/>
	<path fill="#FFFFFF" d="M70.153,95.892c2.924,1.866,6.299,2.85,9.76,2.85s6.836-0.987,9.758-2.85
		c2.326-1.482,4.298-3.469,5.777-5.809c-1.48-2.338-3.451-4.325-5.777-5.809h-0.002c-0.151-0.096-0.304-0.19-0.458-0.282
		c0.386,1.056,0.596,2.197,0.596,3.387c0,5.465-4.431,9.896-9.897,9.896s-9.896-4.431-9.896-9.896c0-1.19,0.21-2.331,0.596-3.387
		c-0.153,0.092-0.307,0.186-0.458,0.282c-2.326,1.482-4.298,3.469-5.777,5.809C65.855,92.421,67.827,94.407,70.153,95.892z"/>
	<circle fill="#FFFFFF" cx="76.199" cy="86.371" r="3.711"/>
	<path fill="#FFFFFF" d="M50.479,24.476v91.734h58.864V24.476H50.479z M69.928,38.807c0.329,0.539,0.598,1.317,0.808,2.334
		c1.616-1.555,3.485-2.334,5.61-2.334c1.885,0,3.44,0.628,4.667,1.885c0.239,0.269,0.539,0.644,0.898,1.122
		c1.975-2.004,4.144-3.007,6.508-3.007c2.304,0,3.949,0.614,4.937,1.84c0.867,1.107,1.302,2.843,1.302,5.206v16.336h-5.834V47.057
		c0-1.164-0.06-1.91-0.18-2.239c-0.24-0.686-0.808-1.029-1.705-1.029c-1.227,0-2.558,0.642-3.994,1.925V62.19h-5.7V47.317
		c0-1.191-0.076-1.994-0.226-2.412c-0.272-0.744-0.89-1.116-1.854-1.116c-1.327,0-2.653,0.581-3.979,1.742V62.19H65.35V46.167
		c0-2.902-0.285-4.862-0.853-5.879L69.928,38.807z M79.91,77.712c8.632,0,16.116,5.027,19.793,12.371
		c-3.677,7.343-11.161,12.371-19.793,12.371s-16.116-5.027-19.793-12.371C63.794,82.739,71.278,77.712,79.91,77.712z"/>
</g>
</svg>
