<?xml version="1.0" encoding="utf-8"?>
<!-- Generator: Adobe Illustrator 17.0.0, SVG Export Plug-In . SVG Version: 6.00 Build 0)  -->
<!DOCTYPE svg PUBLIC "-//W3C//DTD SVG 1.1//EN" "http://www.w3.org/Graphics/SVG/1.1/DTD/svg11.dtd">
<svg version="1.1" id="Layer_1" xmlns="http://www.w3.org/2000/svg" xmlns:xlink="http://www.w3.org/1999/xlink" x="0px" y="0px"
	 width="456.701px" height="116.21px" viewBox="0 0 456.701 116.21" enable-background="new 0 0 456.701 116.21"
	 xml:space="preserve">
<g>
	<path fill="#1C75BC" d="M45.479,19.476h5h8.385V0H0v91.734h45.479V24.476V19.476z M30.432,77.712H17.644v3.479l-8.069-7.537
		l8.069-7.537v3.479h12.788V77.712z M33.502,67.823v-3.479H20.714v-8.116h12.788V52.75l8.069,7.537L33.502,67.823z M44.465,17.085
		h-6.149c-1.558,4.519-3.837,8.546-6.786,11.992l4.909,4.73l-2.377,6.153l-6.532-6.532l-9.969,9.875l-4.212-4.211l10.197-10.011
		c-2.252-2.611-4.098-5.492-5.496-8.577l-0.64-1.413h6.162l0.281,0.535c1.07,2.039,2.306,3.903,3.682,5.555
		c2.072-2.468,3.711-5.183,4.89-8.097H10.603v-6.007h13.975V7.164h5.914v3.914h13.974V17.085z"/>
	<path fill="#1C75BC" d="M70.153,95.892c2.924,1.866,6.299,2.85,9.76,2.85s6.836-0.987,9.758-2.85
		c2.326-1.482,4.298-3.469,5.777-5.809c-1.48-2.338-3.451-4.325-5.777-5.809h-0.002c-0.151-0.096-0.304-0.19-0.458-0.282
		c0.386,1.056,0.596,2.197,0.596,3.387c0,5.465-4.431,9.896-9.897,9.896s-9.896-4.431-9.896-9.896c0-1.19,0.21-2.331,0.596-3.387
		c-0.153,0.092-0.307,0.186-0.458,0.282c-2.326,1.482-4.298,3.469-5.777,5.809C65.855,92.421,67.827,94.407,70.153,95.892z"/>
	<circle fill="#1C75BC" cx="76.199" cy="86.371" r="3.711"/>
	<path fill="#1C75BC" d="M50.479,24.476v91.734h58.864V24.476H50.479z M69.928,38.807c0.329,0.539,0.598,1.317,0.808,2.334
		c1.616-1.555,3.485-2.334,5.61-2.334c1.885,0,3.44,0.628,4.667,1.885c0.239,0.269,0.539,0.644,0.898,1.122
		c1.975-2.004,4.144-3.007,6.508-3.007c2.304,0,3.949,0.614,4.937,1.84c0.867,1.107,1.302,2.843,1.302,5.206v16.336h-5.834V47.057
		c0-1.164-0.06-1.91-0.18-2.239c-0.24-0.686-0.808-1.029-1.705-1.029c-1.227,0-2.558,0.642-3.994,1.925v16.476h-5.7V47.317
		c0-1.191-0.076-1.994-0.226-2.412c-0.272-0.744-0.89-1.116-1.854-1.116c-1.327,0-2.653,0.581-3.979,1.742v16.659H65.35V46.167
		c0-2.902-0.285-4.862-0.853-5.879L69.928,38.807z M79.91,77.712c8.632,0,16.116,5.027,19.793,12.371
		c-3.677,7.343-11.161,12.371-19.793,12.371c-8.632,0-16.116-5.027-19.793-12.371C63.794,82.739,71.278,77.712,79.91,77.712z"/>
</g>
<g>
	<g>
		<g>
			<path fill="#55565A" d="M159.413,40.659h-6.17V24.656c0-1.231-0.064-2.02-0.19-2.368c-0.254-0.725-0.854-1.089-1.804-1.089
				c-1.298,0-2.705,0.679-4.224,2.036v17.424h-6.028V24.931c0-1.259-0.08-2.109-0.239-2.55c-0.288-0.787-0.941-1.181-1.961-1.181
				c-1.403,0-2.805,0.614-4.208,1.842v17.617h-6.17V23.715c0-3.069-0.301-5.142-0.902-6.218l5.743-1.566
				c0.348,0.57,0.633,1.393,0.854,2.468c1.709-1.645,3.686-2.468,5.933-2.468c1.993,0,3.638,0.664,4.936,1.993
				c0.253,0.285,0.57,0.681,0.949,1.186c2.088-2.119,4.382-3.18,6.882-3.18c2.436,0,4.177,0.649,5.221,1.946
				c0.917,1.171,1.376,3.006,1.376,5.506V40.659z"/>
		</g>
		<g>
			<path fill="#55565A" d="M185.849,28.414c0,3.702-0.902,6.709-2.705,9.018c-1.962,2.5-4.746,3.75-8.353,3.75
				c-3.512,0-6.249-1.25-8.211-3.75c-1.804-2.278-2.705-5.221-2.705-8.828c0-3.607,0.902-6.565,2.705-8.875
				c1.962-2.563,4.699-3.845,8.211-3.845c3.543,0,6.313,1.234,8.306,3.702C184.931,21.864,185.849,24.807,185.849,28.414z
				 M178.919,28.389c0-2.221-0.174-3.887-0.522-4.998c-0.601-1.872-1.772-2.808-3.512-2.808c-1.678,0-2.817,0.968-3.417,2.904
				c-0.349,1.111-0.522,2.777-0.522,4.998c0,2.412,0.158,4.141,0.475,5.188c0.57,1.968,1.756,2.952,3.56,2.952
				C177.606,36.625,178.919,33.88,178.919,28.389z"/>
		</g>
		<g>
			<path fill="#55565A" d="M207.112,36.245l-1.519,4.414h-17.893V36.72l11.454-15.758h-10.505v-4.461h18.036v4.367l-10.726,15.378
				H207.112z"/>
		</g>
		<g>
			<path fill="#55565A" d="M217.6,9.666c0,1.108-0.38,2.041-1.139,2.8c-0.759,0.759-1.693,1.139-2.8,1.139
				c-1.076,0-1.993-0.387-2.753-1.163c-0.759-0.775-1.139-1.7-1.139-2.777c0-1.107,0.387-2.041,1.163-2.8
				c0.775-0.759,1.716-1.139,2.824-1.139c1.107,0,2.025,0.38,2.753,1.139C217.236,7.625,217.6,8.559,217.6,9.666z M216.841,40.659
				h-6.36V16.74l6.36-0.999V40.659z"/>
		</g>
		<g>
			<path fill="#55565A" d="M232.694,40.604c-1.139,0.448-2.405,0.672-3.797,0.672c-2.943,0-4.826-1.109-5.648-3.327
				c-0.38-1.014-0.57-2.836-0.57-5.466V14.329c0-2.851-0.111-5.291-0.332-7.319l6.502-1.474c0.221,1.234,0.332,3.339,0.332,6.312
				v18.937c0,2.437,0,3.624,0,3.56c0.158,1.678,0.728,2.516,1.709,2.516c0.253,0,0.49-0.031,0.712-0.095L232.694,40.604z"/>
		</g>
		<g>
			<path fill="#55565A" d="M245.603,40.604c-1.139,0.448-2.405,0.672-3.797,0.672c-2.943,0-4.826-1.109-5.648-3.327
				c-0.38-1.014-0.57-2.836-0.57-5.466V14.329c0-2.851-0.111-5.291-0.332-7.319l6.502-1.474c0.221,1.234,0.332,3.339,0.332,6.312
				v18.937c0,2.437,0,3.624,0,3.56c0.158,1.678,0.728,2.516,1.709,2.516c0.253,0,0.49-0.031,0.712-0.095L245.603,40.604z"/>
		</g>
		<g>
			<path fill="#55565A" d="M268.575,38.001l-3.37,3.892c-1.646-0.696-2.785-1.677-3.417-2.943c-0.633,0.601-1.124,1.029-1.471,1.282
				c-1.234,0.885-2.864,1.329-4.889,1.329c-2.595,0-4.604-0.616-6.028-1.846c-1.551-1.293-2.326-3.201-2.326-5.726
				c0-5.552,3.878-8.328,11.633-8.328c0.504,0,0.977,0,1.419,0v-0.986c0-1.284-0.158-2.16-0.473-2.63
				c-0.378-0.626-1.167-0.94-2.364-0.94c-1.955,0-4.287,0.902-6.998,2.705l-2.695-4.556c1.139-0.727,2.452-1.392,3.939-1.993
				c2.341-0.949,4.556-1.424,6.645-1.424c4.24,0,6.85,1.408,7.831,4.224c0.316,0.918,0.458,2.373,0.427,4.367l-0.142,8.591
				c0,1.266,0.126,2.215,0.38,2.848C266.992,36.594,267.626,37.306,268.575,38.001z M259.984,30.028h-0.28
				c-1.901,0-3.225,0.159-3.973,0.475c-1.247,0.538-1.87,1.614-1.87,3.227c0,0.886,0.245,1.637,0.736,2.255
				c0.49,0.617,1.178,0.926,2.065,0.926c1.202,0,2.309-0.553,3.322-1.661V30.028z"/>
		</g>
	</g>
</g>
<g>
	<path fill="#55565A" d="M146.703,61.933v39.656h-9V61.933h-12.723v-7.105h34.784l-0.947,7.105H146.703z"/>
	<path fill="#55565A" d="M163.552,101.589V65.79h7.647l0.812,6.768c1.827-4.873,5.075-7.715,9.204-7.715
		c1.286,0,2.436,0.135,3.586,0.474l-1.489,8.392c-1.083-0.271-1.962-0.406-3.181-0.406c-4.398,0-6.767,4.061-7.917,8.865v19.422
		H163.552z"/>
	<path fill="#55565A" d="M214.171,92.318c0,2.707,0.744,3.723,2.504,4.399l-1.895,5.752c-3.79-0.339-6.361-1.692-7.715-4.805
		c-2.571,3.384-6.564,4.939-10.895,4.939c-7.309,0-11.775-4.533-11.775-11.233c0-7.579,6.023-11.843,16.986-11.843h4.399v-2.03
		c0-4.534-2.098-6.09-7.105-6.09c-2.301,0-5.685,0.541-9.339,1.827l-2.098-5.956c4.534-1.691,9.068-2.503,12.723-2.503
		c10.083,0,14.211,4.33,14.211,12.181V92.318z M205.779,91.913v-7.174h-3.045c-6.699,0-9.068,2.233-9.068,6.158
		c0,3.52,1.624,5.414,5.21,5.414C201.719,96.311,204.087,94.687,205.779,91.913z"/>
	<path fill="#55565A" d="M243.405,76.28c0-3.587-1.354-5.008-4.398-5.008c-2.978,0-5.414,2.301-7.376,5.008v25.31h-8.662V65.79
		h7.512l0.609,4.467c3.045-3.587,7.038-5.481,11.234-5.481c6.632,0,9.745,3.925,9.745,10.624v26.189h-8.663V76.28z"/>
	<path fill="#55565A" d="M276.901,91.844c0-2.978-1.354-3.992-8.392-5.819c-6.429-1.624-10.421-4.873-10.421-10.692
		c0-6.023,5.481-10.557,14.347-10.557c5.21,0,9.609,1.691,12.519,3.789l-3.654,5.414c-2.571-1.76-5.413-2.774-8.729-2.774
		c-3.519,0-5.685,1.421-5.685,3.586c0,2.437,1.624,3.384,7.985,5.211c6.564,1.827,11.166,4.399,11.166,11.166
		c0,7.58-7.105,11.437-15.227,11.437c-6.226,0-11.03-2.098-14.414-5.075l4.467-4.939c2.774,2.165,6.022,3.586,9.677,3.586
		C274.465,96.175,276.901,94.484,276.901,91.844z"/>
	<path fill="#55565A" d="M308.57,101.589h-10.15L286.51,65.79h9.339l7.646,28.49h0.271l7.782-28.49h8.865L308.57,101.589z"/>
	<path fill="#55565A" d="M328.33,58.279c-3.249,0-5.481-2.301-5.481-5.278c0-2.91,2.232-5.211,5.481-5.211
		c3.181,0,5.481,2.301,5.481,5.211C333.811,55.978,331.511,58.279,328.33,58.279z M323.999,101.589V65.79h8.662v35.799H323.999z"/>
	<path fill="#55565A" d="M357.631,91.844c0-2.978-1.354-3.992-8.391-5.819c-6.43-1.624-10.422-4.873-10.422-10.692
		c0-6.023,5.481-10.557,14.347-10.557c5.211,0,9.609,1.691,12.52,3.789l-3.654,5.414c-2.572-1.76-5.414-2.774-8.73-2.774
		c-3.519,0-5.685,1.421-5.685,3.586c0,2.437,1.625,3.384,7.986,5.211c6.563,1.827,11.165,4.399,11.165,11.166
		c0,7.58-7.105,11.437-15.226,11.437c-6.227,0-11.031-2.098-14.415-5.075l4.467-4.939c2.774,2.165,6.022,3.586,9.677,3.586
		C355.195,96.175,357.631,94.484,357.631,91.844z"/>
	<path fill="#55565A" d="M376.579,58.279c-3.249,0-5.481-2.301-5.481-5.278c0-2.91,2.232-5.211,5.481-5.211
		c3.181,0,5.481,2.301,5.481,5.211C382.06,55.978,379.76,58.279,376.579,58.279z M372.248,101.589V65.79h8.662v35.799H372.248z"/>
	<path fill="#55565A" d="M404.189,64.776c10.625,0,16.783,7.443,16.783,18.88c0,11.505-6.227,18.948-16.851,18.948
		c-10.625,0-16.851-7.173-16.851-18.948C387.271,72.422,393.564,64.776,404.189,64.776z M404.189,71.339
		c-5.075,0-7.85,3.857-7.85,12.316c0,8.595,2.706,12.385,7.782,12.385c5.143,0,7.782-3.79,7.782-12.385
		C411.904,75.197,409.265,71.339,404.189,71.339z"/>
	<path fill="#55565A" d="M448.039,76.28c0-3.587-1.354-5.008-4.398-5.008c-2.978,0-5.414,2.301-7.377,5.008v25.31h-8.662V65.79
		h7.512l0.609,4.467c3.045-3.587,7.038-5.481,11.233-5.481c6.632,0,9.745,3.925,9.745,10.624v26.189h-8.662V76.28z"/>
</g>
</svg>
