<?xml version="1.0" encoding="UTF-8" standalone="no"?>
<!-- This Source Code Form is subject to the terms of the Mozilla Public
   - License, v. 2.0. If a copy of the MPL was not distributed with this
   - file, You can obtain one at http://mozilla.org/MPL/2.0/. -->

<svg
   xmlns:dc="http://purl.org/dc/elements/1.1/"
   xmlns:cc="http://creativecommons.org/ns#"
   xmlns:rdf="http://www.w3.org/1999/02/22-rdf-syntax-ns#"
   xmlns:svg="http://www.w3.org/2000/svg"
   xmlns="http://www.w3.org/2000/svg"
   xmlns:sodipodi="http://sodipodi.sourceforge.net/DTD/sodipodi-0.dtd"
   xmlns:inkscape="http://www.inkscape.org/namespaces/inkscape"
   width="288"
   height="288"
   viewBox="0 0 288 288"
   version="1.1"
   id="svg7837"
   sodipodi:docname="Developer.svg"
   inkscape:version="0.92.3 (2405546, 2018-03-11)">
  <metadata
     id="metadata7843">
    <rdf:RDF>
      <cc:Work
         rdf:about="">
        <dc:format>image/svg+xml</dc:format>
        <dc:type
           rdf:resource="http://purl.org/dc/dcmitype/StillImage" />
        <dc:title></dc:title>
      </cc:Work>
    </rdf:RDF>
  </metadata>
  <defs
     id="defs7841" />
  <sodipodi:namedview
     pagecolor="#ffffff"
     bordercolor="#666666"
     borderopacity="1"
     objecttolerance="10"
     gridtolerance="10"
     guidetolerance="10"
     inkscape:pageopacity="0"
     inkscape:pageshadow="2"
     inkscape:window-width="1920"
     inkscape:window-height="1009"
     id="namedview7839"
     showgrid="false"
     showborder="true"
     inkscape:pagecheckerboard="false"
     inkscape:zoom="1"
     inkscape:cx="79.625432"
     inkscape:cy="134.16629"
     inkscape:window-x="0"
     inkscape:window-y="40"
     inkscape:window-maximized="1"
     inkscape:current-layer="svg7837"
     inkscape:showpageshadow="false" />
  <path
     d="M 275.11297,47.95832 226.47376,96.6375 A 24.83917,24.83917 0 1 1 191.3632,61.52694 L 240.04238,12.88773 A 79.053707,79.053707 0 0 0 204.07254,3.9951902 79.453371,79.453371 0 0 0 135.45009,124.29431 L 10.095213,249.64919 a 19.983242,19.983242 0 1 0 28.256303,28.2563 L 163.70639,152.55061 a 79.13364,79.13364 0 0 0 40.36615,11.31052 79.932969,79.932969 0 0 0 79.93297,-79.93297 79.053707,79.053707 0 0 0 -8.89254,-35.96984 z"
     id="path7835"
     style="fill:#000000;fill-opacity:1;stroke-width:19.98324203"
     inkscape:connector-curvature="0" />
</svg>
