<svg id="Assets" xmlns="http://www.w3.org/2000/svg" xmlns:xlink="http://www.w3.org/1999/xlink" viewBox="0 0 512 512">
  <defs>
    <symbol id="a" data-name="Icon 80 (One Color)" viewBox="0 0 78 80">
      <path d="M28.333 24.292zm-9.4-4.666zm56.262 7.2c-1.7-4.052-5.135-8.427-7.834-9.81a40.023 40.023 0 0 1 3.955 11.764l0.007 0.065C66.9 17.925 59.414 13.52 53.3 3.928a49.086 49.086 0 0 1-0.92-1.484 12.903 12.903 0 0 1-0.43-0.8 7.036 7.036 0 0 1-0.583-1.535 0.1 0.1 0 0 0-0.089-0.1 0.138 0.138 0 0 0-0.073 0c-0.006 0-0.014 0.009-0.02 0.011s-0.019 0.011-0.028 0.015l0.016-0.022C42.489 5.057 38.89 13.9 37.964 19.521a20.927 20.927 0 0 0-7.738 1.96 0.992 0.992 0 0 0 0.836 1.8 19 19 0 0 1 6.738-1.747l0.228-0.015a19.27 19.27 0 0 1 0.964-0.035 19.785 19.785 0 0 1 5.605 0.771c0.107 0.031 0.211 0.067 0.316 0.1 0.3 0.093 0.6 0.191 0.9 0.3a21.193 21.193 0 0 1 0.648 0.253 21.85 21.85 0 0 1 0.521 0.214 23.087 23.087 0 0 1 0.8 0.372c0.121 0.06 0.241 0.119 0.36 0.181a19.255 19.255 0 0 1 0.76 0.417q0.243 0.139 0.48 0.286a19.909 19.909 0 0 1 6.829 7.013 13.559 13.559 0 0 0-9.411-2.273c14.047 6.97 10.276 30.972-9.189 30.065a17.447 17.447 0 0 1-5.081-0.972q-0.573-0.213-1.147-0.466a14.08 14.08 0 0 1-0.658-0.312c-4.77-2.446-8.708-7.07-9.2-12.684 0 0 1.8-6.667 12.908-6.667 1.2 0 4.633-3.325 4.7-4.289-0.014-0.315-6.811-3-9.461-5.59-1.416-1.385-2.088-2.052-2.683-2.553a11.746 11.746 0 0 0-1.012-0.758 17.824 17.824 0 0 1-0.109-9.473 28.9 28.9 0 0 0-9.4 7.21H16.45c-1.557-1.946-1.45-8.366-1.36-9.707a7.063 7.063 0 0 0-1.3 0.687 28.454 28.454 0 0 0-3.82 3.245A33.973 33.973 0 0 0 6.323 21.2v0.006-0.007a32.6 32.6 0 0 0-5.24 11.743 44.144 44.144 0 0 0-0.637 3.572 37.292 37.292 0 0 0-0.125 0.912 25.464 25.464 0 0 0-0.231 2.215c0 0.039 0 0.077-0.008 0.115a114.92 114.92 0 0 0-0.078 1.29v0.2A39.079 39.079 0 0 0 77.546 47.8c0.066-0.5 0.119-0.995 0.177-1.5a39.561 39.561 0 0 0-2.533-19.469zM48.529 38.46z" fill="#20123a"/>
    </symbol>
  </defs>
  <use id="Icon_80_Full_Color_" data-name="Icon 80 (Full Color)" width="78" height="80" transform="matrix(6.154 0 0 6.2 16.012 -.021)" xlink:href="#a"/>
</svg>
