<svg xmlns="http://www.w3.org/2000/svg" viewBox="0 0 254 172">
  <defs>
    <linearGradient id="a" x1="87.25%" y1="15.5%" x2="9.4%" y2="93.1%">
      <stop offset=".05" stop-color="#fff44f"/>
      <stop offset=".37" stop-color="#ff980e"/>
      <stop offset=".53" stop-color="#ff3647"/>
      <stop offset=".7" stop-color="#e31587"/>
    </linearGradient>    
    <radialGradient id="b" cx="87.4%" cy="-12.9%" r="128%" gradientTransform="translate(0.874,0),scale(0.8,1),translate(-0.87,0.129)">
      <stop offset=".13" stop-color="#ffbd4f"/>
      <stop offset=".28" stop-color="#ff980e"/>
      <stop offset=".47" stop-color="#ff3750"/>
      <stop offset=".78" stop-color="#eb0878"/>
      <stop offset=".86" stop-color="#e50080"/>
    </radialGradient>
    <radialGradient id="c" cx="49%" cy="40%" r="128%" gradientTransform="translate(0.49,0.4),scale(0.82,1),translate(-0.49,-0.4)">
      <stop offset=".3" stop-color="#960e18"/>
      <stop offset=".35" stop-color="#b11927" stop-opacity=".74"/>
      <stop offset=".43" stop-color="#db293d" stop-opacity=".34"/>
      <stop offset=".5" stop-color="#f5334b" stop-opacity=".09"/>
      <stop offset=".53" stop-color="#ff3750" stop-opacity="0"/>
    </radialGradient>
    <radialGradient id="d" cx="48%" cy="-12%" r="140%">
      <stop offset=".13" stop-color="#fff44f"/>
      <stop offset=".53" stop-color="#ff980e"/>
    </radialGradient>
    <radialGradient id="e" cx="22.76%" cy="110.11%" r="100%">
      <stop offset=".35" stop-color="#3a8ee6"/>
      <stop offset=".67" stop-color="#9059ff"/>
      <stop offset="1" stop-color="#c139e6"/>
    </radialGradient>
    <radialGradient id="f" cx="52%" cy="33%" r="59%" gradientTransform="scale(.9,1)">
      <stop offset=".21" stop-color="#9059ff" stop-opacity="0"/>
      <stop offset=".97" stop-color="#6e008b" stop-opacity=".6"/>
    </radialGradient>
    <radialGradient id="g" cx="210%" cy="-100%" r="290%">
      <stop offset=".1" stop-color="#ffe226"/>
      <stop offset=".79" stop-color="#ff7139"/>
    </radialGradient>
    <radialGradient id="h" cx="84%" cy="-41%" r="180%">
      <stop offset=".11" stop-color="#fff44f"/>
      <stop offset=".46" stop-color="#ff980e"/>
      <stop offset=".72" stop-color="#ff3647"/>
      <stop offset=".9" stop-color="#e31587"/>
    </radialGradient>
    <radialGradient id="i" cx="16.1%" cy="-18.6%" r="348.8%" gradientTransform="translate(0.16,-0.19),scale(1,0.47),rotate(84),translate(-0.16,0.19)">
      <stop offset="0" stop-color="#fff44f"/>
      <stop offset=".3" stop-color="#ff980e"/>
      <stop offset=".57" stop-color="#ff3647"/>
      <stop offset=".74" stop-color="#e31587"/>
    </radialGradient>
    <radialGradient id="j" cx="18.9%" cy="-42.5%" r="238.4%">
      <stop offset=".14" stop-color="#fff44f"/>
      <stop offset=".48" stop-color="#ff980e"/>
      <stop offset=".66" stop-color="#ff3647"/>
      <stop offset=".9" stop-color="#e31587"/>
    </radialGradient>
    <radialGradient id="k" cx="159.3%" cy="-44.72%" r="313.1%">
      <stop offset=".09" stop-color="#fff44f"/>
      <stop offset=".63" stop-color="#ff980e"/>
    </radialGradient>
    <linearGradient id="l" x1="80%" y1="14%" x2="18%" y2="84%">
      <stop offset=".17" stop-color="#fff44f" stop-opacity=".8"/>
      <stop offset=".6" stop-color="#fff44f" stop-opacity="0"/>
    </linearGradient>
  </defs>
  <path id="shape-base" d="M180.874 40.247c-2.527-6.079-7.644-12.641-11.663-14.715a60.307 60.307 0 0 1 5.889 17.646c0 0.009 0 0.033 0.012 0.1-6.574-16.386-17.721-22.994-26.824-37.382a71.37 71.37 0 0 1-1.369-2.226 18.564 18.564 0 0 1-0.64-1.2 10.582 10.582 0 0 1-0.867-2.3 0.152 0.152 0 0 0-0.132-0.156 0.2 0.2 0 0 0-0.11 0c-0.008 0-0.02 0.012-0.029 0.016l-0.042 0.023 0.024-0.033c-14.6 8.554-19.558 24.378-20.013 32.295a29.084 29.084 0 0 0-16 6.166 17.51 17.51 0 0 0-1.506-1.137 26.939 26.939 0 0 1-0.163-14.209 43.074 43.074 0 0 0-13.996 10.809h-0.027c-2.305-2.919-2.142-12.55-2.01-14.56a10.4 10.4 0 0 0-1.941 1.029 42.342 42.342 0 0 0-5.682 4.868 50.907 50.907 0 0 0-5.429 6.511v0.009-0.009a49.067 49.067 0 0 0-7.8 17.614c-0.028 0.126-0.052 0.257-0.079 0.384-0.109 0.512-0.5 3.073-0.572 3.63 0 0.043-0.008 0.084-0.013 0.127a55.33 55.33 0 0 0-0.942 8.021c0 0.1-0.006 0.2-0.006 0.3A58.137 58.137 0 0 0 184.38 71.7c0.1-0.744 0.178-1.492 0.265-2.242a59.784 59.784 0 0 0-3.771-29.211zm-67 45.506c0.272 0.13 0.527 0.272 0.806 0.4l0.04 0.025a29.325 29.325 0 0 1-0.851-0.425zm13.312-35.063zm47.928-7.4l-0.007-0.057 0.01 0.063z" fill="url(#a)"/>
  <path id="body-outer-ring" d="M180.874 40.247c-2.527-6.079-7.644-12.641-11.663-14.715a60.307 60.307 0 0 1 5.889 17.646c0-0.014 0 0.011 0.009 0.054l0.01 0.063c5.485 14.872 2.5 30-1.81 39.236-6.661 14.3-22.79 28.952-48.035 28.238C98 110 73.967 89.755 69.481 63.244c-0.817-4.18 0-6.3 0.411-9.7a43.268 43.268 0 0 0-0.942 8.021c0 0.1-0.006 0.2-0.006 0.3A58.137 58.137 0 0 0 184.38 71.7c0.1-0.744 0.178-1.492 0.265-2.242a59.784 59.784 0 0 0-3.771-29.211z" fill="url(#b)"/>
  <path id="body-outer-ring-shadow" d="M180.874 40.247c-2.527-6.079-7.644-12.641-11.663-14.715a60.307 60.307 0 0 1 5.889 17.646c0-0.014 0 0.011 0.009 0.054l0.01 0.063c5.485 14.872 2.5 30-1.81 39.236-6.661 14.3-22.79 28.952-48.035 28.238C98 110 73.967 89.755 69.481 63.244c-0.817-4.18 0-6.3 0.411-9.7a43.268 43.268 0 0 0-0.942 8.021c0 0.1-0.006 0.2-0.006 0.3A58.137 58.137 0 0 0 184.38 71.7c0.1-0.744 0.178-1.492 0.265-2.242a59.784 59.784 0 0 0-3.771-29.211z" fill="url(#c)"/>
  <path id="tail-tip" d="M152.623 47.08c0.126 0.089 0.242 0.178 0.361 0.267a31.612 31.612 0 0 0-5.4-7.044c-18.068-18.071-4.736-39.184-2.484-40.256l0.024-0.033c-14.6 8.554-19.558 24.378-20.013 32.295 0.677-0.047 1.352-0.1 2.042-0.1a29.34 29.34 0 0 1 25.47 14.871z" fill="url(#d)"/>
  <path id="globe-base" d="M127.187 50.689c-0.095 1.446-5.2 6.434-6.991 6.434-16.532 0-19.215 10-19.215 10 0.732 8.422 6.594 15.357 13.694 19.027a23.042 23.042 0 0 0 0.98 0.468 33.52 33.52 0 0 0 1.707 0.7 25.793 25.793 0 0 0 7.565 1.459c28.975 1.36 34.588-34.643 13.678-45.1 5.355-0.932 10.914 1.222 14.018 3.4a29.34 29.34 0 0 0-25.473-14.872c-0.69 0-1.365 0.057-2.042 0.1a29.084 29.084 0 0 0-16 6.166c0.886 0.751 1.887 1.753 3.995 3.829 3.944 3.891 14.062 7.917 14.084 8.389z" fill="url(#e)"/>
  <path id="globe-shadow" d="M127.187 50.689c-0.095 1.446-5.2 6.434-6.991 6.434-16.532 0-19.215 10-19.215 10 0.732 8.422 6.594 15.357 13.694 19.027a23.042 23.042 0 0 0 0.98 0.468 33.52 33.52 0 0 0 1.707 0.7 25.793 25.793 0 0 0 7.565 1.459c28.975 1.36 34.588-34.643 13.678-45.1 5.355-0.932 10.914 1.222 14.018 3.4a29.34 29.34 0 0 0-25.473-14.872c-0.69 0-1.365 0.057-2.042 0.1a29.084 29.084 0 0 0-16 6.166c0.886 0.751 1.887 1.753 3.995 3.829 3.944 3.891 14.062 7.917 14.084 8.389z" fill="url(#f)"/>
  <path id="ear" d="M106.4 36.541a42.853 42.853 0 0 1 1.2 0.8 26.939 26.939 0 0 1-0.163-14.209 43.074 43.074 0 0 0-13.992 10.812c0.279-0.007 8.712-0.159 12.955 2.597z" fill="url(#g)"/>
  <path id="body" d="M69.481 63.244C73.967 89.755 98 110 125.272 110.769c25.245 0.714 41.374-13.941 48.035-28.238 4.306-9.241 7.3-24.364 1.81-39.236v-0.006l-0.007-0.057c-0.006-0.043-0.01-0.068-0.009-0.054s0 0.033 0.012 0.1c2.061 13.467-4.788 26.513-15.5 35.333l-0.032 0.076c-20.862 16.99-40.826 10.251-44.868 7.492a33.295 33.295 0 0 1-0.846-0.422c-12.164-5.813-17.188-16.9-16.111-26.4a14.933 14.933 0 0 1-13.773-8.663s9.222-6.576 21.374-0.857a28.947 28.947 0 0 0 21.828 0.857c-0.022-0.472-10.14-4.5-14.084-8.385-2.108-2.076-3.109-3.078-3.995-3.829a17.51 17.51 0 0 0-1.506-1.137c-0.345-0.235-0.734-0.491-1.2-0.8-4.24-2.756-12.673-2.6-12.952-2.6h-0.027c-2.305-2.919-2.142-12.55-2.01-14.56a10.4 10.4 0 0 0-1.941 1.029 42.342 42.342 0 0 0-5.682 4.868 50.907 50.907 0 0 0-5.429 6.511V31.8v-0.009a49.067 49.067 0 0 0-7.8 17.614c-0.031 0.127-2.096 9.156-1.078 13.839z" fill="url(#h)"/>
  <path id="tail-flame" d="M147.587 40.3a31.612 31.612 0 0 1 5.4 7.044 11.407 11.407 0 0 1 0.873 0.714c13.179 12.145 6.274 29.323 5.758 30.546 10.707-8.82 17.556-21.866 15.5-35.333-6.574-16.386-17.721-22.994-26.824-37.382a71.37 71.37 0 0 1-1.369-2.226 18.564 18.564 0 0 1-0.64-1.2 10.582 10.582 0 0 1-0.867-2.3 0.152 0.152 0 0 0-0.132-0.156 0.2 0.2 0 0 0-0.11 0c-0.008 0-0.02 0.012-0.029 0.016l-0.042 0.023c-2.257 1.073-15.589 22.186 2.482 40.254z" fill="url(#i)"/>
  <path id="tail-small" d="M153.857 48.061a11.407 11.407 0 0 0-0.873-0.714c-0.119-0.089-0.235-0.178-0.361-0.267-3.1-2.181-8.663-4.335-14.018-3.4 20.91 10.455 15.3 46.458-13.678 45.1a25.793 25.793 0 0 1-7.565-1.459 30.218 30.218 0 0 1-1.707-0.7c-0.328-0.15-0.656-0.3-0.98-0.468l0.04 0.025c4.042 2.759 24.006 9.5 44.868-7.492l0.032-0.076c0.516-1.226 7.421-18.404-5.758-30.549z" fill="url(#j)"/>
  <path id="cheek-tufts" d="M100.981 67.123s2.683-10 19.215-10c1.787 0 6.9-4.988 6.991-6.434a28.947 28.947 0 0 1-21.828-0.857c-12.152-5.719-21.374 0.857-21.374 0.857a14.933 14.933 0 0 0 13.773 8.663c-1.077 9.505 3.947 20.588 16.111 26.4 0.272 0.13 0.527 0.272 0.806 0.4-7.1-3.672-12.962-10.607-13.694-19.029z" fill="url(#k)"/>
  <path id="overlay-yellow" d="M180.874 40.247c-2.527-6.079-7.644-12.641-11.663-14.715a60.307 60.307 0 0 1 5.889 17.646c0 0.009 0 0.033 0.012 0.1-6.574-16.386-17.721-22.994-26.824-37.382a71.37 71.37 0 0 1-1.369-2.226 18.564 18.564 0 0 1-0.64-1.2 10.582 10.582 0 0 1-0.867-2.3 0.152 0.152 0 0 0-0.132-0.156 0.2 0.2 0 0 0-0.11 0c-0.008 0-0.02 0.012-0.029 0.016l-0.042 0.023 0.024-0.033c-14.6 8.554-19.558 24.378-20.013 32.295 0.677-0.047 1.352-0.1 2.042-0.1a29.34 29.34 0 0 1 25.471 14.865c-3.1-2.181-8.663-4.335-14.018-3.4 20.91 10.455 15.3 46.458-13.678 45.1a25.793 25.793 0 0 1-7.565-1.459 30.218 30.218 0 0 1-1.707-0.7c-0.328-0.15-0.656-0.3-0.98-0.468l0.04 0.025a33.295 33.295 0 0 1-0.846-0.422c0.272 0.13 0.527 0.272 0.806 0.4-7.1-3.67-12.962-10.605-13.694-19.027 0 0 2.683-10 19.215-10 1.787 0 6.9-4.988 6.991-6.434-0.022-0.472-10.14-4.5-14.084-8.385-2.108-2.076-3.109-3.078-3.995-3.829a17.51 17.51 0 0 0-1.506-1.137 26.939 26.939 0 0 1-0.163-14.209 43.074 43.074 0 0 0-13.994 10.809h-0.027c-2.305-2.919-2.142-12.55-2.01-14.56a10.4 10.4 0 0 0-1.941 1.029 42.342 42.342 0 0 0-5.682 4.868 50.907 50.907 0 0 0-5.429 6.511v0.009-0.009a49.067 49.067 0 0 0-7.8 17.614c-0.028 0.126-0.052 0.257-0.079 0.384-0.109 0.512-0.6 3.109-0.67 3.666a67.673 67.673 0 0 0-0.857 8.112c0 0.1-0.006 0.2-0.006 0.3A58.137 58.137 0 0 0 184.38 71.7c0.1-0.744 0.178-1.492 0.265-2.242a59.784 59.784 0 0 0-3.771-29.211zm-5.767 2.985l0.01 0.063v-0.006z" fill="url(#l)"/>
  <path d="M0.5 144.59h16.087v4.349H5.115v5.9h11.472v4.315H5.115v9.488H0.5zm21.559-1.68a2.7 2.7 0 0 1-0.033 5.4 2.553 2.553 0 0 1-2.67-2.636 2.668 2.668 0 0 1 2.703-2.764zm-2.275 7.939h4.549v17.789h-4.549zm17.735 4.941A3.681 3.681 0 0 0 35.31 155c-1.846 0-2.9 1.186-2.9 3.788v9.85h-4.517v-17.789h4.319v2.57a4.241 4.241 0 0 1 4.252-2.735 5.4 5.4 0 0 1 3.033 0.923zm1.879 4.052a9.1 9.1 0 0 1 9.164-9.355 8.757 8.757 0 0 1 9.131 9.059v1.877H43.848a4.659 4.659 0 0 0 4.912 3.723 4.771 4.771 0 0 0 4.417-2.636l3.79 2.273A9.347 9.347 0 0 1 48.628 169c-5.769 0-9.228-3.854-9.228-9.158zm4.516-2.009h9.362a4.486 4.486 0 0 0-4.747-3.525 4.572 4.572 0 0 0-4.615 3.525zm14.9-6.984h3.2v-0.889c0-4.843 2.044-6.852 6.527-6.852h1.579v3.92h-1.285c-2.11 0-2.572 0.725-2.572 2.932v0.889h3.857v4.085h-3.758v13.7h-4.351v-13.7h-3.2zm12.164 8.894a9.11 9.11 0 0 1 9.3-9.256 9.257 9.257 0 1 1 0 18.513 8.976 8.976 0 0 1-9.301-9.257zm14.175 0a4.882 4.882 0 1 0-4.879 5.04 4.884 4.884 0 0 0 4.878-5.04zm10.548-0.2l-6.428-8.7h5.34l3.791 5.468 3.89-5.468h5.241l-6.527 8.664 6.857 9.125h-5.307l-4.253-5.8-4.12 5.8h-5.308zm40.831-3.327a5.53 5.53 0 0 0 3.23-5.191c0-3.876-3-6.373-7.526-6.373h-10.391v23.982h10.724c4.595 0 7.693-2.562 7.693-6.767a5.761 5.761 0 0 0-3.73-5.651zm-11.923-9.067h7.591c2.963 0 4.795 1.577 4.795 3.876s-1.6 4.008-4.562 4.008h-7.827zm7.927 18.955h-7.927v-8.541h7.791c3.331 0 5.063 1.741 5.063 4.271 0.002 2.496-1.93 4.266-4.927 4.266zm13.655-11.859v-3.351h-2.631v17.74h2.7v-9.724c0-3.91 1.731-5.618 4.728-5.618a3.984 3.984 0 0 1 2.2 0.559l1.133-2.562a5.933 5.933 0 0 0-3-0.658 4.975 4.975 0 0 0-5.13 3.614zm17.584-3.712a9.232 9.232 0 1 0 9.359 9.231 9.171 9.171 0 0 0-9.359-9.231zm0 15.9a6.687 6.687 0 0 1 0-13.371 6.686 6.686 0 0 1 0 13.371zm31.274-1.577l-5.362-13.962h-2.531l-5.5 14.06-4.529-14.06h-2.864l5.9 17.74h2.664l5.528-14.06 5.528 14.06h2.465l6.227-17.74h-2.831zm17.152-6.472c-2.8-0.558-4.962-0.92-4.962-2.759 0-1.643 1.132-2.825 3.9-2.825a5.831 5.831 0 0 1 4.929 2.365l2.264-1.511a8.741 8.741 0 0 0-7.193-3.154c-4.263-0.033-6.694 2.4-6.694 5.158 0 3.547 3.3 4.369 6.394 4.96 2.631 0.526 5.095 0.92 5.095 2.891 0 1.774-1.465 3.088-4.263 3.088a6.671 6.671 0 0 1-5.794-2.891l-2.365 1.577c1.6 2.267 4.163 3.712 8.093 3.712 4.7 0.033 7.093-2.726 7.093-5.519 0.002-3.646-3.398-4.5-6.498-5.092zm18.118-7.851a9.16 9.16 0 0 0-9.39 9.3c0 5.19 3.729 9.165 9.49 9.165a9.266 9.266 0 0 0 8.359-4.5l-2.331-1.346a6.964 6.964 0 0 1-12.855-2.365h15.886v-1.216a8.812 8.812 0 0 0-9.159-9.038zm-6.66 7.884a6.655 6.655 0 0 1 6.66-5.486 6.032 6.032 0 0 1 6.361 5.486zm26.844-7.786a4.975 4.975 0 0 0-5.129 3.614v-3.351h-2.631v17.74h2.7v-9.724c0-3.91 1.731-5.618 4.728-5.618a3.984 3.984 0 0 1 2.2 0.559l1.133-2.562a5.933 5.933 0 0 0-3.004-0.658z" fill="#fff"/>
</svg>
