<svg xmlns="http://www.w3.org/2000/svg" viewBox="0 0 136 208">
  <defs>
    <linearGradient id="a" x1="87.25%" y1="15.5%" x2="9.4%" y2="93.1%">
      <stop offset=".05" stop-color="#fff44f"/>
      <stop offset=".37" stop-color="#ff980e"/>
      <stop offset=".53" stop-color="#ff3647"/>
      <stop offset=".7" stop-color="#e31587"/>
    </linearGradient>    
    <radialGradient id="b" cx="87.4%" cy="-12.9%" r="128%" gradientTransform="translate(0.874,0),scale(0.8,1),translate(-0.87,0.129)">
      <stop offset=".13" stop-color="#ffbd4f"/>
      <stop offset=".28" stop-color="#ff980e"/>
      <stop offset=".47" stop-color="#ff3750"/>
      <stop offset=".78" stop-color="#eb0878"/>
      <stop offset=".86" stop-color="#e50080"/>
    </radialGradient>
    <radialGradient id="c" cx="49%" cy="40%" r="128%" gradientTransform="translate(0.49,0.4),scale(0.82,1),translate(-0.49,-0.4)">
      <stop offset=".3" stop-color="#960e18"/>
      <stop offset=".35" stop-color="#b11927" stop-opacity=".74"/>
      <stop offset=".43" stop-color="#db293d" stop-opacity=".34"/>
      <stop offset=".5" stop-color="#f5334b" stop-opacity=".09"/>
      <stop offset=".53" stop-color="#ff3750" stop-opacity="0"/>
    </radialGradient>
    <radialGradient id="d" cx="48%" cy="-12%" r="140%">
      <stop offset=".13" stop-color="#fff44f"/>
      <stop offset=".53" stop-color="#ff980e"/>
    </radialGradient>
    <radialGradient id="e" cx="22.76%" cy="110.11%" r="100%">
      <stop offset=".35" stop-color="#3a8ee6"/>
      <stop offset=".67" stop-color="#9059ff"/>
      <stop offset="1" stop-color="#c139e6"/>
    </radialGradient>
    <radialGradient id="f" cx="52%" cy="33%" r="59%" gradientTransform="scale(.9,1)">
      <stop offset=".21" stop-color="#9059ff" stop-opacity="0"/>
      <stop offset=".97" stop-color="#6e008b" stop-opacity=".6"/>
    </radialGradient>
    <radialGradient id="g" cx="210%" cy="-100%" r="290%">
      <stop offset=".1" stop-color="#ffe226"/>
      <stop offset=".79" stop-color="#ff7139"/>
    </radialGradient>
    <radialGradient id="h" cx="84%" cy="-41%" r="180%">
      <stop offset=".11" stop-color="#fff44f"/>
      <stop offset=".46" stop-color="#ff980e"/>
      <stop offset=".72" stop-color="#ff3647"/>
      <stop offset=".9" stop-color="#e31587"/>
    </radialGradient>
    <radialGradient id="i" cx="16.1%" cy="-18.6%" r="348.8%" gradientTransform="translate(0.16,-0.19),scale(1,0.47),rotate(84),translate(-0.16,0.19)">
      <stop offset="0" stop-color="#fff44f"/>
      <stop offset=".3" stop-color="#ff980e"/>
      <stop offset=".57" stop-color="#ff3647"/>
      <stop offset=".74" stop-color="#e31587"/>
    </radialGradient>
    <radialGradient id="j" cx="18.9%" cy="-42.5%" r="238.4%">
      <stop offset=".14" stop-color="#fff44f"/>
      <stop offset=".48" stop-color="#ff980e"/>
      <stop offset=".66" stop-color="#ff3647"/>
      <stop offset=".9" stop-color="#e31587"/>
    </radialGradient>
    <radialGradient id="k" cx="159.3%" cy="-44.72%" r="313.1%">
      <stop offset=".09" stop-color="#fff44f"/>
      <stop offset=".63" stop-color="#ff980e"/>
    </radialGradient>
    <linearGradient id="l" x1="80%" y1="14%" x2="18%" y2="84%">
      <stop offset=".17" stop-color="#fff44f" stop-opacity=".8"/>
      <stop offset=".6" stop-color="#fff44f" stop-opacity="0"/>
    </linearGradient>
  </defs>
  <path id="shape-base" d="M121.874 40.247c-2.527-6.079-7.644-12.641-11.663-14.715a60.307 60.307 0 0 1 5.889 17.646l0.012 0.1c-6.576-16.39-17.723-22.998-26.826-37.386a71.37 71.37 0 0 1-1.369-2.226 18.564 18.564 0 0 1-0.64-1.2 10.582 10.582 0 0 1-0.867-2.3 0.152 0.152 0 0 0-0.132-0.156 0.2 0.2 0 0 0-0.11 0c-0.008 0-0.02 0.012-0.029 0.016S86.11 0.04 86.1 0.047l0.024-0.033c-14.6 8.554-19.558 24.378-20.013 32.295a29.084 29.084 0 0 0-16 6.166 17.51 17.51 0 0 0-1.511-1.137 26.939 26.939 0 0 1-0.163-14.209 43.074 43.074 0 0 0-13.992 10.815h-0.027c-2.3-2.919-2.142-12.55-2.01-14.56a10.4 10.4 0 0 0-1.941 1.029 42.342 42.342 0 0 0-5.682 4.868 50.907 50.907 0 0 0-5.429 6.511v0.009-0.009a49.067 49.067 0 0 0-7.8 17.614c-0.028 0.126-0.052 0.257-0.079 0.384-0.109 0.512-0.5 3.073-0.572 3.63 0 0.043-0.008 0.084-0.013 0.127a55.33 55.33 0 0 0-0.942 8.021c0 0.1-0.006 0.2-0.006 0.3A58.137 58.137 0 0 0 125.38 71.7c0.1-0.744 0.178-1.492 0.265-2.242a59.784 59.784 0 0 0-3.771-29.211zm-67 45.506c0.272 0.13 0.527 0.272 0.806 0.4l0.04 0.025a29.325 29.325 0 0 1-0.851-0.425zM68.186 50.69zm47.928-7.4l-0.007-0.057 0.01 0.063z" fill="url(#a)"/>
  <path id="body-outer-ring" d="M121.874 40.247c-2.527-6.079-7.644-12.641-11.663-14.715a60.307 60.307 0 0 1 5.889 17.646c0-0.014 0 0.011 0.009 0.054l0.01 0.063c5.485 14.872 2.5 30-1.81 39.236-6.661 14.3-22.79 28.952-48.035 28.238C38.995 110 14.967 89.755 10.481 63.244c-0.817-4.18 0-6.3 0.411-9.7a43.268 43.268 0 0 0-0.942 8.021c0 0.1-0.006 0.2-0.006 0.3A58.137 58.137 0 0 0 125.38 71.7c0.1-0.744 0.178-1.492 0.265-2.242a59.784 59.784 0 0 0-3.771-29.211z" fill="url(#b)"/>
  <path id="body-outer-ring-shadow" d="M121.874 40.247c-2.527-6.079-7.644-12.641-11.663-14.715a60.307 60.307 0 0 1 5.889 17.646c0-0.014 0 0.011 0.009 0.054l0.01 0.063c5.485 14.872 2.5 30-1.81 39.236-6.661 14.3-22.79 28.952-48.035 28.238C38.995 110 14.967 89.755 10.481 63.244c-0.817-4.18 0-6.3 0.411-9.7a43.268 43.268 0 0 0-0.942 8.021c0 0.1-0.006 0.2-0.006 0.3A58.137 58.137 0 0 0 125.38 71.7c0.1-0.744 0.178-1.492 0.265-2.242a59.784 59.784 0 0 0-3.771-29.211z" fill="url(#c)"/>
  <path id="tail-tip" d="M93.623 47.08c0.126 0.089 0.242 0.178 0.361 0.267a31.612 31.612 0 0 0-5.4-7.044C70.516 22.232 83.848 1.119 86.1 0.047l0.024-0.033c-14.6 8.554-19.558 24.378-20.013 32.295 0.677-0.047 1.352-0.1 2.042-0.1a29.34 29.34 0 0 1 25.47 14.871z" fill="url(#d)"/>
  <path id="globe-base" d="M68.187 50.689c-0.095 1.446-5.2 6.434-6.991 6.434-16.532 0-19.215 10-19.215 10 0.732 8.422 6.594 15.357 13.694 19.027a23.042 23.042 0 0 0 0.98 0.468 33.52 33.52 0 0 0 1.707 0.7 25.793 25.793 0 0 0 7.565 1.459c28.975 1.36 34.588-34.643 13.678-45.1 5.355-0.932 10.914 1.222 14.018 3.4A29.34 29.34 0 0 0 68.15 32.205c-0.69 0-1.365 0.057-2.042 0.1a29.084 29.084 0 0 0-16 6.166c0.886 0.751 1.887 1.753 4 3.829 3.939 3.891 14.057 7.917 14.079 8.389z" fill="url(#e)"/>
  <path id="globe-shadow" d="M68.187 50.689c-0.095 1.446-5.2 6.434-6.991 6.434-16.532 0-19.215 10-19.215 10 0.732 8.422 6.594 15.357 13.694 19.027a23.042 23.042 0 0 0 0.98 0.468 33.52 33.52 0 0 0 1.707 0.7 25.793 25.793 0 0 0 7.565 1.459c28.975 1.36 34.588-34.643 13.678-45.1 5.355-0.932 10.914 1.222 14.018 3.4A29.34 29.34 0 0 0 68.15 32.205c-0.69 0-1.365 0.057-2.042 0.1a29.084 29.084 0 0 0-16 6.166c0.886 0.751 1.887 1.753 4 3.829 3.939 3.891 14.057 7.917 14.079 8.389z" fill="url(#f)"/>
  <path id="ear" d="M47.4 36.541a42.853 42.853 0 0 1 1.2 0.8 26.939 26.939 0 0 1-0.163-14.209 43.074 43.074 0 0 0-13.992 10.812c0.279-0.007 8.712-0.159 12.955 2.597z" fill="url(#g)"/>
  <path id="body" d="M10.481 63.244C14.967 89.755 38.995 110 66.272 110.769c25.245 0.714 41.374-13.941 48.035-28.238 4.306-9.241 7.3-24.364 1.81-39.236v-0.006l-0.007-0.057c-0.006-0.043-0.01-0.068-0.009-0.054l0.012 0.1c2.061 13.467-4.788 26.513-15.5 35.333l-0.032 0.076c-20.862 16.99-40.826 10.251-44.868 7.492a33.295 33.295 0 0 1-0.846-0.422c-12.164-5.813-17.188-16.9-16.111-26.4a14.933 14.933 0 0 1-13.773-8.663s9.222-6.576 21.374-0.857a28.947 28.947 0 0 0 21.828 0.857c-0.022-0.472-10.14-4.5-14.084-8.385-2.108-2.076-3.109-3.078-4-3.829a17.51 17.51 0 0 0-1.501-1.142c-0.345-0.235-0.734-0.491-1.2-0.8-4.24-2.756-12.673-2.6-12.952-2.6h-0.027c-2.3-2.919-2.142-12.55-2.01-14.56a10.4 10.4 0 0 0-1.941 1.029 42.342 42.342 0 0 0-5.682 4.868 50.907 50.907 0 0 0-5.429 6.511v0.009-0.009a49.067 49.067 0 0 0-7.8 17.614c-0.031 0.132-2.096 9.161-1.078 13.844z" fill="url(#h)"/>
  <path id="tail-flame" d="M88.587 40.3a31.612 31.612 0 0 1 5.4 7.044 11.407 11.407 0 0 1 0.873 0.714c13.179 12.145 6.274 29.323 5.758 30.546 10.707-8.82 17.556-21.866 15.5-35.333-6.582-16.383-17.729-22.991-26.832-37.379a71.37 71.37 0 0 1-1.369-2.226 18.564 18.564 0 0 1-0.64-1.2 10.582 10.582 0 0 1-0.867-2.3 0.152 0.152 0 0 0-0.132-0.156 0.2 0.2 0 0 0-0.11 0c-0.008 0-0.02 0.012-0.029 0.016S86.11 0.04 86.1 0.047C83.848 1.119 70.516 22.232 88.587 40.3z" fill="url(#i)"/>
  <path id="tail-small" d="M94.857 48.061a11.407 11.407 0 0 0-0.873-0.714c-0.119-0.089-0.235-0.178-0.361-0.267-3.1-2.181-8.663-4.335-14.018-3.4 20.91 10.455 15.3 46.458-13.678 45.1a25.793 25.793 0 0 1-7.565-1.459 30.218 30.218 0 0 1-1.707-0.7c-0.328-0.15-0.656-0.3-0.98-0.468l0.04 0.025c4.042 2.759 24.006 9.5 44.868-7.492l0.032-0.076c0.516-1.226 7.421-18.404-5.758-30.549z" fill="url(#j)"/>
  <path id="cheek-tufts" d="M41.981 67.123s2.683-10 19.215-10c1.787 0 6.9-4.988 6.991-6.434a28.947 28.947 0 0 1-21.828-0.857c-12.152-5.719-21.374 0.857-21.374 0.857a14.933 14.933 0 0 0 13.773 8.663c-1.077 9.505 3.947 20.588 16.111 26.4 0.272 0.13 0.527 0.272 0.806 0.4-7.1-3.672-12.962-10.607-13.694-19.029z" fill="url(#k)"/>
  <path id="overlay-yellow" d="M121.874 40.247c-2.527-6.079-7.644-12.641-11.663-14.715a60.307 60.307 0 0 1 5.889 17.646l0.012 0.1c-6.576-16.39-17.723-22.998-26.826-37.386a71.37 71.37 0 0 1-1.369-2.226 18.564 18.564 0 0 1-0.64-1.2 10.582 10.582 0 0 1-0.867-2.3 0.152 0.152 0 0 0-0.132-0.156 0.2 0.2 0 0 0-0.11 0c-0.008 0-0.02 0.012-0.029 0.016S86.11 0.04 86.1 0.047l0.024-0.033c-14.6 8.554-19.558 24.378-20.013 32.295 0.677-0.047 1.352-0.1 2.042-0.1a29.34 29.34 0 0 1 25.47 14.871c-3.1-2.181-8.663-4.335-14.018-3.4 20.91 10.455 15.3 46.458-13.678 45.1a25.793 25.793 0 0 1-7.565-1.459 30.218 30.218 0 0 1-1.707-0.7c-0.328-0.15-0.656-0.3-0.98-0.468l0.04 0.025a33.295 33.295 0 0 1-0.846-0.422c0.272 0.13 0.527 0.272 0.806 0.4-7.1-3.67-12.962-10.605-13.694-19.027 0 0 2.683-10 19.215-10 1.787 0 6.9-4.988 6.991-6.434-0.022-0.472-10.14-4.5-14.084-8.385-2.108-2.076-3.109-3.078-4-3.829a17.51 17.51 0 0 0-1.503-1.143 26.939 26.939 0 0 1-0.163-14.209 43.074 43.074 0 0 0-13.992 10.815h-0.027c-2.3-2.919-2.142-12.55-2.01-14.56a10.4 10.4 0 0 0-1.941 1.029 42.342 42.342 0 0 0-5.682 4.868 50.907 50.907 0 0 0-5.429 6.511v0.009-0.009a49.067 49.067 0 0 0-7.8 17.614c-0.028 0.126-0.052 0.257-0.079 0.384-0.109 0.512-0.6 3.109-0.67 3.666a67.673 67.673 0 0 0-0.857 8.112c0 0.1-0.006 0.2-0.006 0.3A58.137 58.137 0 0 0 125.38 71.7c0.1-0.744 0.178-1.492 0.265-2.242a59.784 59.784 0 0 0-3.771-29.211zm-5.767 2.985l0.01 0.063v-0.006z" fill="url(#l)"/>
  <path d="M14.308 143.978H30.4v4.35H18.924v5.9H30.4v4.316H18.924v9.49h-4.616zM35.87 142.3a2.7 2.7 0 0 1-0.033 5.4 2.553 2.553 0 0 1-2.67-2.636 2.669 2.669 0 0 1 2.703-2.764zm-2.27 7.939h4.55v17.792H33.6zm17.738 4.942a3.677 3.677 0 0 0-2.209-0.791c-1.846 0-2.9 1.186-2.9 3.789v9.852h-4.523v-17.792h4.319v2.57a4.242 4.242 0 0 1 4.253-2.735 5.4 5.4 0 0 1 3.034 0.922zm1.88 4.052a9.1 9.1 0 0 1 9.166-9.357 8.758 8.758 0 0 1 9.132 9.061v1.878H57.664a4.66 4.66 0 0 0 4.912 3.723 4.771 4.771 0 0 0 4.418-2.636l3.792 2.274a9.354 9.354 0 0 1-8.342 4.217c-5.769 0-9.231-3.855-9.231-9.16zm4.517-2.009h9.363a4.485 4.485 0 0 0-4.747-3.526 4.573 4.573 0 0 0-4.621 3.526zm14.9-6.985h3.2v-0.89c0-4.843 2.045-6.853 6.529-6.853h1.582v3.921h-1.291c-2.11 0-2.571 0.724-2.571 2.932v0.89h3.857v4.085h-3.758v13.707H75.83v-13.707h-3.2zm12.166 8.9a9.113 9.113 0 0 1 9.3-9.259 9.259 9.259 0 1 1 0 18.517 8.978 8.978 0 0 1-9.301-9.262zm14.178 0a4.883 4.883 0 1 0-4.88 5.041 4.885 4.885 0 0 0 4.877-5.045zm10.55-0.2l-6.429-8.7h5.341l3.792 5.469 3.89-5.469h5.243l-6.529 8.665 6.858 9.127h-5.308l-4.253-5.8-4.121 5.8H102.7zm-92.901 32.617a5.555 5.555 0 0 0 3.245-5.214c0-3.893-3.011-6.4-7.561-6.4H1.874v24.09h10.773c4.616 0 7.727-2.573 7.727-6.8a5.785 5.785 0 0 0-3.746-5.676zm-11.977-9.107h7.628c2.977 0 4.817 1.583 4.817 3.893s-1.606 4.026-4.583 4.026H4.651zm7.962 19.041H4.651v-8.581h7.828c3.346 0 5.086 1.749 5.086 4.291 0 2.507-1.941 4.29-4.952 4.29zm13.718-11.914v-3.366h-2.643v17.82H26.4v-9.768c0-3.927 1.739-5.643 4.75-5.643a4.009 4.009 0 0 1 2.208 0.561l1.137-2.573a5.957 5.957 0 0 0-3.01-0.661 5 5 0 0 0-5.154 3.63zM44 185.847a9.274 9.274 0 1 0 9.4 9.274 9.213 9.213 0 0 0-9.4-9.274zm0 15.972a6.717 6.717 0 0 1 0-13.431 6.716 6.716 0 0 1 0 13.431zm31.415-1.584l-5.392-14.025h-2.542l-5.519 14.124-4.55-14.124h-2.877l5.921 17.82h2.676l5.554-14.123 5.553 14.123h2.476l6.256-17.82h-2.844zm17.23-6.5c-2.81-0.561-4.985-0.924-4.985-2.771 0-1.651 1.138-2.839 3.915-2.839a5.856 5.856 0 0 1 4.951 2.376l2.275-1.518a8.783 8.783 0 0 0-7.226-3.168c-4.282-0.033-6.724 2.409-6.724 5.182 0 3.563 3.312 4.388 6.423 4.982 2.642 0.528 5.118 0.924 5.118 2.9 0 1.782-1.472 3.1-4.282 3.1a6.7 6.7 0 0 1-5.821-2.9l-2.375 1.584c1.6 2.277 4.182 3.729 8.129 3.729 4.717 0.033 7.126-2.739 7.126-5.544-0.005-3.661-3.418-4.52-6.529-5.114zm18.2-7.887a9.2 9.2 0 0 0-9.433 9.34c0 5.214 3.747 9.206 9.534 9.206a9.311 9.311 0 0 0 8.4-4.521L117 198.519a6.995 6.995 0 0 1-12.913-2.375h15.953v-1.222a8.852 8.852 0 0 0-9.2-9.075zm-6.69 7.92a6.685 6.685 0 0 1 6.69-5.511 6.06 6.06 0 0 1 6.39 5.511zm26.966-7.821a5 5 0 0 0-5.152 3.63v-3.367h-2.649v17.82h2.71v-9.768c0-3.927 1.74-5.643 4.751-5.643a4 4 0 0 1 2.207 0.561l1.138-2.573a5.957 5.957 0 0 0-3.01-0.661z" fill="#20123a"/>
</svg>
