<?xml version="1.0" encoding="UTF-8" standalone="no"?>
<svg
   xmlns:dc="http://purl.org/dc/elements/1.1/"
   xmlns:cc="http://creativecommons.org/ns#"
   xmlns:rdf="http://www.w3.org/1999/02/22-rdf-syntax-ns#"
   xmlns:svg="http://www.w3.org/2000/svg"
   xmlns="http://www.w3.org/2000/svg"
   xmlns:xlink="http://www.w3.org/1999/xlink"
   xmlns:sodipodi="http://sodipodi.sourceforge.net/DTD/sodipodi-0.dtd"
   xmlns:inkscape="http://www.inkscape.org/namespaces/inkscape"
   id="Focus"
   viewBox="0 0 1024 1024"
   version="1.1"
   sodipodi:docname="firefox-logo-focus.svg"
   inkscape:version="0.92.3 (2405546, 2018-03-11)">
  <metadata
     id="metadata2326">
    <rdf:RDF>
      <cc:Work
         rdf:about="">
        <dc:format>image/svg+xml</dc:format>
        <dc:type
           rdf:resource="http://purl.org/dc/dcmitype/StillImage" />
      </cc:Work>
    </rdf:RDF>
  </metadata>
  <sodipodi:namedview
     pagecolor="#ffffff"
     bordercolor="#666666"
     borderopacity="1"
     objecttolerance="10"
     gridtolerance="10"
     guidetolerance="10"
     inkscape:pageopacity="0"
     inkscape:pageshadow="2"
     inkscape:window-width="657"
     inkscape:window-height="480"
     id="namedview2324"
     showgrid="false"
     inkscape:zoom="0.23046875"
     inkscape:cx="512"
     inkscape:cy="512"
     inkscape:window-x="0"
     inkscape:window-y="40"
     inkscape:window-maximized="0"
     inkscape:current-layer="Focus" />
  <defs
     id="defs2300">
    <linearGradient
       id="linear-gradient"
       x1="-8923.696"
       y1="-6716.143"
       x2="-8716.493"
       y2="-6716.143"
       gradientTransform="matrix(1.219, 0.123, -0.123, 1.219, 10296.265, 9597.23)"
       gradientUnits="userSpaceOnUse">
      <stop
         offset="0"
         stop-color="#666"
         id="stop2144" />
      <stop
         offset="0.161"
         stop-color="#606060"
         id="stop2146" />
      <stop
         offset="0.383"
         stop-color="#4e4e4e"
         id="stop2148" />
      <stop
         offset="0.641"
         stop-color="#303030"
         id="stop2150" />
      <stop
         offset="0.923"
         stop-color="#080808"
         id="stop2152" />
      <stop
         offset="0.974"
         id="stop2154" />
    </linearGradient>
    <linearGradient
       id="linear-gradient-2"
       x1="251.35"
       y1="-1062.374"
       x2="213.73"
       y2="-1179.194"
       gradientTransform="matrix(0.995, 0.1, -0.1, 0.995, -173.696, 1313.941)"
       gradientUnits="userSpaceOnUse">
      <stop
         offset="0"
         stop-color="#4d4d4d"
         id="stop2157" />
      <stop
         offset="0.193"
         stop-color="#474747"
         id="stop2159" />
      <stop
         offset="0.459"
         stop-color="#353535"
         id="stop2161" />
      <stop
         offset="0.767"
         stop-color="#181818"
         id="stop2163" />
      <stop
         offset="0.974"
         id="stop2165" />
    </linearGradient>
    <linearGradient
       id="linear-gradient-3"
       x1="78.479"
       y1="629.294"
       x2="105.416"
       y2="769.52"
       gradientTransform="matrix(0.995, 0.1, -0.1, 0.995, 305.439, -246.471)"
       gradientUnits="userSpaceOnUse">
      <stop
         offset="0"
         stop-color="#666"
         id="stop2168" />
      <stop
         offset="0.16"
         stop-color="#5d5d5d"
         id="stop2170" />
      <stop
         offset="0.417"
         stop-color="#464646"
         id="stop2172" />
      <stop
         offset="0.737"
         stop-color="#202020"
         id="stop2174" />
      <stop
         offset="0.97"
         id="stop2176" />
    </linearGradient>
    <radialGradient
       id="radial-gradient"
       cx="131.458"
       cy="772.134"
       r="263.966"
       gradientTransform="translate(194.451 61.577) rotate(-3.955) scale(1 0.626)"
       gradientUnits="userSpaceOnUse">
      <stop
         offset="0.639"
         id="stop2179" />
      <stop
         offset="0.948"
         stop-color="#4d4d4d"
         id="stop2181" />
    </radialGradient>
    <linearGradient
       id="linear-gradient-4"
       x1="826.694"
       y1="478.45"
       x2="702.44"
       y2="633.223"
       gradientUnits="userSpaceOnUse">
      <stop
         offset="0"
         stop-color="#666"
         id="stop2184" />
      <stop
         offset="0.974"
         id="stop2186" />
    </linearGradient>
    <linearGradient
       id="linear-gradient-5"
       x1="-7650.409"
       y1="-8225.978"
       x2="-7450.63"
       y2="-7572.158"
       gradientTransform="translate(9921.963 9899.103) scale(1.225 1.225)"
       xlink:href="#linear-gradient" />
    <linearGradient
       id="linear-gradient-6"
       x1="890.857"
       y1="202.029"
       x2="717.837"
       y2="487.513"
       gradientUnits="userSpaceOnUse">
      <stop
         offset="0"
         stop-color="gray"
         id="stop2190" />
      <stop
         offset="0.974"
         id="stop2192" />
    </linearGradient>
    <linearGradient
       id="linear-gradient-7"
       x1="-8637.432"
       y1="-6271.629"
       x2="-8360.124"
       y2="-6271.629"
       gradientTransform="matrix(1.219, 0.123, -0.123, 1.219, 10296.265, 9597.23)"
       gradientUnits="userSpaceOnUse">
      <stop
         offset="0"
         stop-color="gray"
         id="stop2195" />
      <stop
         offset="0.974"
         stop-color="#333"
         id="stop2197" />
    </linearGradient>
    <linearGradient
       id="linear-gradient-8"
       x1="715.316"
       y1="754.457"
       x2="1043.903"
       y2="754.457"
       gradientUnits="userSpaceOnUse">
      <stop
         offset="0"
         stop-color="#666"
         id="stop2200" />
      <stop
         offset="0.974"
         stop-color="#333"
         id="stop2202" />
    </linearGradient>
    <linearGradient
       id="linear-gradient-9"
       x1="-8385.966"
       y1="-6620.346"
       x2="-8198.461"
       y2="-6620.346"
       gradientTransform="matrix(1.219, 0.123, -0.123, 1.219, 10296.265, 9597.23)"
       gradientUnits="userSpaceOnUse">
      <stop
         offset="0"
         stop-color="gray"
         id="stop2205" />
      <stop
         offset="0.974"
         stop-color="#1a1a1a"
         id="stop2207" />
    </linearGradient>
    <radialGradient
       id="radial-gradient-2"
       cx="-7673.622"
       cy="-7487.26"
       fx="-7714.385006925413"
       r="650.776"
       gradientTransform="translate(9921.963 9899.103) scale(1.225 1.225)"
       gradientUnits="userSpaceOnUse">
      <stop
         offset="0.032"
         stop-color="#ff272d"
         stop-opacity="0"
         id="stop2210" />
      <stop
         offset="0.151"
         stop-color="#ff2730"
         stop-opacity="0.015"
         id="stop2212" />
      <stop
         offset="0.263"
         stop-color="#ff2838"
         stop-opacity="0.059"
         id="stop2214" />
      <stop
         offset="0.372"
         stop-color="#ff2a45"
         stop-opacity="0.134"
         id="stop2216" />
      <stop
         offset="0.48"
         stop-color="#ff2c58"
         stop-opacity="0.238"
         id="stop2218" />
      <stop
         offset="0.586"
         stop-color="#ff2e70"
         stop-opacity="0.374"
         id="stop2220" />
      <stop
         offset="0.691"
         stop-color="#ff328e"
         stop-opacity="0.539"
         id="stop2222" />
      <stop
         offset="0.795"
         stop-color="#ff36b1"
         stop-opacity="0.735"
         id="stop2224" />
      <stop
         offset="0.897"
         stop-color="#ff3ad8"
         stop-opacity="0.957"
         id="stop2226" />
      <stop
         offset="0.915"
         stop-color="#ff3be0"
         id="stop2228" />
    </radialGradient>
    <radialGradient
       id="radial-gradient-3"
       cx="-7525.622"
       cy="-7939.26"
       fx="-7566.3850069254095"
       r="650.776"
       gradientTransform="translate(9921.963 9899.103) scale(1.225 1.225)"
       gradientUnits="userSpaceOnUse">
      <stop
         offset="0.033"
         stop-color="#ff3be0"
         id="stop2231" />
      <stop
         offset="0.107"
         stop-color="#ff37be"
         stop-opacity="0.81"
         id="stop2233" />
      <stop
         offset="0.247"
         stop-color="#ff3081"
         stop-opacity="0.467"
         id="stop2235" />
      <stop
         offset="0.362"
         stop-color="#ff2b54"
         stop-opacity="0.215"
         id="stop2237" />
      <stop
         offset="0.446"
         stop-color="#ff2838"
         stop-opacity="0.059"
         id="stop2239" />
      <stop
         offset="0.489"
         stop-color="#ff272d"
         stop-opacity="0"
         id="stop2241" />
    </radialGradient>
    <linearGradient
       id="linear-gradient-10"
       x1="561.058"
       y1="679.083"
       x2="337.718"
       y2="-51.504"
       gradientUnits="userSpaceOnUse">
      <stop
         offset="0"
         stop-color="#000f43"
         stop-opacity="0.3"
         id="stop2244" />
      <stop
         offset="0.353"
         stop-color="#00165a"
         stop-opacity="0.173"
         id="stop2246" />
      <stop
         offset="1"
         stop-color="#002079"
         stop-opacity="0"
         id="stop2248" />
    </linearGradient>
    <linearGradient
       id="linear-gradient-11"
       x1="576.987"
       y1="731.188"
       x2="385.549"
       y2="104.96"
       gradientUnits="userSpaceOnUse">
      <stop
         offset="0"
         stop-color="#000f43"
         stop-opacity="0.4"
         id="stop2251" />
      <stop
         offset="0.485"
         stop-color="#001962"
         stop-opacity="0.173"
         id="stop2253" />
      <stop
         offset="1"
         stop-color="#002079"
         stop-opacity="0"
         id="stop2255" />
    </linearGradient>
    <filter
       id="luminosity-invert-noclip"
       x="36.318"
       y="2"
       width="953.361"
       height="984"
       filterUnits="userSpaceOnUse"
       color-interpolation-filters="sRGB">
      <feColorMatrix
         values="-1 0 0 0 1 0 -1 0 0 1 0 0 -1 0 1 0 0 0 1 0"
         result="invert"
         id="feColorMatrix2258" />
      <feFlood
         flood-color="#fff"
         result="bg"
         id="feFlood2260" />
      <feBlend
         in="invert"
         in2="bg"
         id="feBlend2262" />
    </filter>
    <mask
       id="mask"
       x="36.318"
       y="2"
       width="953.361"
       height="984"
       maskUnits="userSpaceOnUse">
      <g
         style="filter: url(#luminosity-invert-noclip)"
         id="g2285">
        <path
           d="M513.91,321.373c.393-8.77-4.156-14.66-76.682-21.463-29.839-2.755-41.265-30.334-44.748-41.941-10.61,27.565-14.991,56.49-12.636,91.477,1.61,22.92,17.009,47.521,24.37,61.965,0,0,1.636-2.126,2.391-2.912,13.861-14.431,71.936-36.419,77.392-39.541C490.011,365.159,512.9,348.435,513.91,321.373Z"
           style="fill: url(#linear-gradient)"
           id="path2265" />
        <path
           d="M194.632,158.471c-1.041-1.818-1.6,3.754-2.4,1.961-5.955-13.813-9.578-36.2-8.72-52.022,0,0-12.318,5.614-22.513,29.06-1.893,4.215-3.107,6.54-4.32,8.865-.558.678,1.265-7.7.974-7.244-1.771,3-6.355,7.192-8.346,12.375-1.651,4.239-3.349,6.515-4.613,11.772-.389,1.429.392-6.323.052-5.379-23.711,45.825-28.237,115.114-25.738,112.184,50.478-53.9,108.325-66.683,108.325-66.683-6.155-4.534-19.528-17.625-32.7-44.889Z"
           style="fill: url(#linear-gradient-2)"
           id="path2267" />
        <path
           d="M386.162,722.1c-69.724-29.769-148.992-71.755-146-167.138C244.235,429.347,357.3,454.175,357.3,454.175c-4.267,1.039-15.675,9.162-19.718,17.82-4.273,10.827-12.069,35.276,11.551,60.9,37.089,40.192-76.2,95.356,98.663,199.567,4.41,2.4-40.991-1.43-61.639-10.358Z"
           style="fill: url(#linear-gradient-3)"
           id="path2269" />
        <path
           d="M361.391,659.5c49.442,17.207,107.04,14.189,141.523-4.858,23.085-12.851,52.7-33.434,70.922-28.353-15.777-6.236-27.726-9.15-42.1-9.862-2.448,0-5.382-.052-8.048-.32a136.228,136.228,0,0,0-15.757.863c-8.9.818-18.766,6.433-27.735,5.532-.485-.049,8.7-3.774,7.953-3.605-4.752.991-9.915,1.205-15.37,1.881-3.467.386-6.449.82-9.891.963-102.982,8.733-190.017-55.813-190.017-55.813-7.408,24.95,33.166,74.3,88.521,93.572Z"
           style="fill: url(#radial-gradient)"
           id="path2271" />
        <path
           d="M835.132,537.551c-36.4-75.2-81.837-108-124.814-143.551,5,7,6.232,9.473,9,14,37.827,40.316,93.607,138.656,53.11,262.107C696.2,902.482,391.284,793.057,359.318,762.319c12.932,134.489,238.036,198.845,384.6,111.63C827.318,795,894.786,660.788,835.132,537.551Z"
           style="fill: url(#linear-gradient-4)"
           id="path2273" />
        <path
           d="M850.239,802.982c21.08-23.241,40.01-49.824,54.349-79.968,36.9-77.582,93.952-206.58,49.018-341.306C918.092,275.225,869.333,217,807.424,160.122,706.881,67.756,678.8,26.521,678.8,2c0,0-116.089,129.409-65.742,264.381S766.52,396.405,834.737,537.255C915.011,703,769.788,883.869,649.693,934.493c7.353-1.633,266.97-60.383,280.614-208.882C930,728.342,924.148,769.414,850.239,802.982Z"
           style="fill: url(#linear-gradient-5)"
           id="path2275" />
        <path
           d="M806.6,93.558c-10.119,11.783-17.937,29.807-21.779,51.476,44.439,35.4,107.389,94.361,149.992,185.233q6.743,14.383,12.046,28.647C902.376,230.877,806.6,128.974,806.6,93.558Z"
           style="fill: url(#linear-gradient-6)"
           id="path2277" />
        <path
           d="M651.043,933.906c-1.084.322-2.173.644-3.277.968,23.584,1.882,86.66.149,114.3-25.949q-3.426,3.773-7.143,7.257c.331-.24.513-.377.513-.377s-.134.182-.4.513c8.424-7.937,14.825-16.3,18.844-24.615-62.562,28.864-120.76,42.029-124.186,42.79C650.142,934.3,650.593,934.1,651.043,933.906Z"
           style="fill: url(#linear-gradient-7)"
           id="path2279" />
        <path
           d="M850.239,802.982c.178-.081.351-.163.528-.244.417-.538,1.008-1.312,1.756-2.314C851.762,801.278,851.005,802.137,850.239,802.982ZM929.2,705.933c-21.09,34.023-47.314,66.293-78.061,96.632,63.582-29.152,76.221-63.8,78.631-74.076A55.526,55.526,0,0,0,929.2,705.933Z"
           style="fill: url(#linear-gradient-8)"
           id="path2281" />
        <path
           d="M959.791,582.255c28.568-61.89,26.578-122.614,25.292-139.812-.42-2.644-.719-4.1-.719-4.1s-6.086,7.07-15.243,20.134C972.8,503.106,968.243,545.036,959.791,582.255Z"
           style="fill: url(#linear-gradient-9)"
           id="path2283" />
      </g>
    </mask>
    <radialGradient
       id="radial-gradient-4"
       cx="571.738"
       cy="399.737"
       r="654.245"
       gradientUnits="userSpaceOnUse">
      <stop
         offset="0.782"
         stop-color="#fff"
         id="stop2288" />
      <stop
         offset="0.999"
         stop-color="#fff"
         id="stop2290" />
      <stop
         offset="1"
         stop-color="#fff"
         id="stop2292" />
    </radialGradient>
    <linearGradient
       id="linear-gradient-12"
       x1="796.705"
       y1="-143.419"
       x2="810.415"
       y2="281.616"
       gradientUnits="userSpaceOnUse">
      <stop
         offset="0"
         stop-color="#fff"
         stop-opacity="0.8"
         id="stop2295" />
      <stop
         offset="0.974"
         stop-color="#fff"
         id="stop2297" />
    </linearGradient>
  </defs>
  <title
     id="title2302">firefox-logo-focus</title>
  <g
     id="g6129">
    <g
       data-name="&lt;Group&gt;"
       id="_Group_">
      <path
         id="path2304"
         style="fill: #c42482"
         d="M513.238,974.829c245.236,0,443.9-199.739,443.9-446.028S758.475,82.774,513.476,82.774,69.817,282.512,69.817,528.8C69.341,775.328,268.24,974.829,513.238,974.829Z" />
      <path
         id="path2306"
         style="fill: url(#radial-gradient-2)"
         d="M513.238,974.829c245.236,0,443.9-199.739,443.9-446.028S758.475,82.774,513.476,82.774,69.817,282.512,69.817,528.8C69.341,775.328,268.24,974.829,513.238,974.829Z" />
      <path
         id="path2308"
         style="fill: url(#radial-gradient-3)"
         d="M513.238,974.829c245.236,0,443.9-199.739,443.9-446.028S758.475,82.774,513.476,82.774,69.817,282.512,69.817,528.8C69.341,775.328,268.24,974.829,513.238,974.829Z" />
    </g>
    <g
       id="g2315"
       style="opacity: 0.4">
      <path
         id="path2311"
         style="fill: url(#linear-gradient-10)"
         d="M846.993,805.636a246.888,246.888,0,0,1-30.123,18.183,704,704,0,0,0,38.3-62.961c9.46-10.47,18.126-20.648,25.188-31.653,3.437-5.407,7.313-12.079,11.416-19.819,24.921-44.9,52.4-117.563,53.179-192.2l0-.18c.018-1.837.029-3.675.014-5.515a257.6,257.6,0,0,0-5.712-55.748c.2,1.431.376,2.861.556,4.291-.221-1.1-.407-2.212-.644-3.314.366,2.034.66,4,.976,5.983,5.094,43.217,1.466,85.372-16.682,116.45-.286.454-.58.879-.869,1.323,9.41-47.234,12.558-99.387,2.088-151.6,0,0-4.187-25.383-35.376-102.441-17.952-44.353-49.833-80.716-78-107.207-24.69-30.546-47.114-51.045-59.475-64.06C726,127.971,715.179,107.591,710.735,94.293c-3.853-1.932-53.135-49.807-57.05-51.631C632.174,76.015,564.523,180.337,596.7,277.809c14.584,44.172,51.467,90.017,90.067,115.736,1.695,1.936,22.969,25.042,33.086,77.157,10.453,53.848,4.958,95.862-16.543,157.989-25.286,54.505-90.067,108.388-150.724,113.9-129.672,11.782-177.145-65.107-177.145-65.107,46.336,18.525,97.568,14.65,128.724-4.556,31.4-19.425,50.394-33.827,65.81-28.148,15.2,5.653,27.3-10.756,16.442-27.767a78.5,78.5,0,0,0-79.4-34.573c-31.433,5.109-60.226,30.009-101.412,5.894a85.528,85.528,0,0,1-7.729-5.062c-2.715-1.785,8.826,2.717,6.133.688-8.015-4.354-22.2-13.842-25.88-17.217-.613-.562,6.219,2.179,5.606,1.616-38.51-31.712-33.7-53.134-32.49-66.57.969-10.749,7.964-24.523,19.751-30.11,5.693,3.107,9.24,5.479,9.24,5.479s-2.428-4.961-3.741-7.576c.46-.2.9-.147,1.358-.342,4.664,2.251,14.977,8.1,20.407,11.667,7.072,4.988,9.326,9.436,9.326,9.436s1.862-1.025.485-5.375c-.5-1.784-2.647-7.453-9.652-13.174l.438.049a81.2,81.2,0,0,1,11.867,8.241c1.975-7.181,5.527-14.679,4.746-28.092-.477-9.431-.257-11.873-1.919-15.515-1.488-3.128.834-4.348,3.418-1.1a32.826,32.826,0,0,0-2.208-7.4l.022-.244c3.225-11.236,68.248-40.461,72.981-43.877a67.355,67.355,0,0,0,19.132-20.8c3.617-5.763,6.337-13.848,7-26.112.355-8.844-3.759-14.734-69.507-21.618-17.981-1.771-28.531-14.8-34.526-26.823-1.094-2.59-2.209-4.937-3.325-7.282a58,58,0,0,1-2.558-8.431c10.749-30.873,28.81-56.977,55.367-76.7,1.447-1.318-5.782.338-4.336-.98,1.687-1.538,12.706-5.977,14.787-6.977,2.542-1.2-10.882-6.9-22.732-5.512-12.069,1.36-14.632,2.8-21.073,5.531,2.673-2.661,11.173-6.149,9.18-6.126-13.011,1.995-29.179,9.558-43,18.124A10.731,10.731,0,0,1,393,195.8c-6.441,2.732-22.26,13.788-26.865,23.142a44.329,44.329,0,0,0,.266-5.4,84.483,84.483,0,0,0-13.193,13.819l-.241.219c-37.358-15.05-70.233-16.024-98.053-9.276-6.086-6.112-9.059-1.644-22.907-32.069-.941-1.832.722,1.809,0,0-2.278-5.9,1.389,7.872,0,0-23.284,18.372-53.92,39.193-68.626,53.89-.182.586,17.156-4.9,0,0-6.008,1.716-5.6,5.281-6.513,37.5-.22,2.443-.025,5.179-.223,7.378-11.748,14.968-19.749,27.643-22.775,34.211-15.193,26.18-31.926,66.992-48.146,131.551a334.364,334.364,0,0,1,25.784-50.407c-13.488,34.267-26.527,88.078-29.134,170.945a483.614,483.614,0,0,1,12.533-50.66,473.038,473.038,0,0,0,34.74,201.061c9.329,22.821,24.76,57.455,51.029,95.4,82.533,86.839,198.945,140.9,327.852,140.9C643.109,958.012,763.953,899.133,846.993,805.636Z" />
      <path
         id="path2313"
         style="fill: url(#linear-gradient-11)"
         d="M846.993,805.636a246.888,246.888,0,0,1-30.123,18.183,704,704,0,0,0,38.3-62.961c9.46-10.47,18.126-20.648,25.188-31.653,3.437-5.407,7.313-12.079,11.416-19.819,24.921-44.9,52.4-117.563,53.179-192.2l0-.18c.018-1.837.029-3.675.014-5.515a257.6,257.6,0,0,0-5.712-55.748c.2,1.431.376,2.861.556,4.291-.221-1.1-.407-2.212-.644-3.314.366,2.034.66,4,.976,5.983,5.094,43.217,1.466,85.372-16.682,116.45-.286.454-.58.879-.869,1.323,9.41-47.234,12.558-99.387,2.088-151.6,0,0-4.187-25.383-35.376-102.441-17.952-44.353-49.833-80.716-78-107.207-24.69-30.546-47.114-51.045-59.475-64.06C726,127.971,715.179,107.591,710.735,94.293c-3.853-1.932-53.135-49.807-57.05-51.631C632.174,76.015,564.523,180.337,596.7,277.809c14.584,44.172,51.467,90.017,90.067,115.736,1.695,1.936,22.969,25.042,33.086,77.157,10.453,53.848,4.958,95.862-16.543,157.989-25.286,54.505-90.067,108.388-150.724,113.9-129.672,11.782-177.145-65.107-177.145-65.107,46.336,18.525,97.568,14.65,128.724-4.556,31.4-19.425,50.394-33.827,65.81-28.148,15.2,5.653,27.3-10.756,16.442-27.767a78.5,78.5,0,0,0-79.4-34.573c-31.433,5.109-60.226,30.009-101.412,5.894a85.528,85.528,0,0,1-7.729-5.062c-2.715-1.785,8.826,2.717,6.133.688-8.015-4.354-22.2-13.842-25.88-17.217-.613-.562,6.219,2.179,5.606,1.616-38.51-31.712-33.7-53.134-32.49-66.57.969-10.749,7.964-24.523,19.751-30.11,5.693,3.107,9.24,5.479,9.24,5.479s-2.428-4.961-3.741-7.576c.46-.2.9-.147,1.358-.342,4.664,2.251,14.977,8.1,20.407,11.667,7.072,4.988,9.326,9.436,9.326,9.436s1.862-1.025.485-5.375c-.5-1.784-2.647-7.453-9.652-13.174l.438.049a81.2,81.2,0,0,1,11.867,8.241c1.975-7.181,5.527-14.679,4.746-28.092-.477-9.431-.257-11.873-1.919-15.515-1.488-3.128.834-4.348,3.418-1.1a32.826,32.826,0,0,0-2.208-7.4l.022-.244c3.225-11.236,68.248-40.461,72.981-43.877a67.355,67.355,0,0,0,19.132-20.8c3.617-5.763,6.337-13.848,7-26.112.355-8.844-3.759-14.734-69.507-21.618-17.981-1.771-28.531-14.8-34.526-26.823-1.094-2.59-2.209-4.937-3.325-7.282a58,58,0,0,1-2.558-8.431c10.749-30.873,28.81-56.977,55.367-76.7,1.447-1.318-5.782.338-4.336-.98,1.687-1.538,12.706-5.977,14.787-6.977,2.542-1.2-10.882-6.9-22.732-5.512-12.069,1.36-14.632,2.8-21.073,5.531,2.673-2.661,11.173-6.149,9.18-6.126-13.011,1.995-29.179,9.558-43,18.124A10.731,10.731,0,0,1,393,195.8c-6.441,2.732-22.26,13.788-26.865,23.142a44.329,44.329,0,0,0,.266-5.4,84.483,84.483,0,0,0-13.193,13.819l-.241.219c-37.358-15.05-70.233-16.024-98.053-9.276-6.086-6.112-9.059-1.644-22.907-32.069-.941-1.832.722,1.809,0,0-2.278-5.9,1.389,7.872,0,0-23.284,18.372-53.92,39.193-68.626,53.89-.182.586,17.156-4.9,0,0-6.008,1.716-5.6,5.281-6.513,37.5-.22,2.443-.025,5.179-.223,7.378-11.748,14.968-19.749,27.643-22.775,34.211-15.193,26.18-31.926,66.992-48.146,131.551a334.364,334.364,0,0,1,25.784-50.407c-13.488,34.267-26.527,88.078-29.134,170.945a483.614,483.614,0,0,1,12.533-50.66,473.038,473.038,0,0,0,34.74,201.061c9.329,22.821,24.76,57.455,51.029,95.4,82.533,86.839,198.945,140.9,327.852,140.9C643.109,958.012,763.953,899.133,846.993,805.636Z" />
    </g>
    <g
       style="mask: url(#mask)"
       id="g2319"
       mask="url(#mask)">
      <path
         id="path2317"
         style="fill: url(#radial-gradient-4)"
         d="M932.5,700.536q1.566-2.608,3.093-5.228l.134-.233q1.509-2.6,2.98-5.2c.045-.08.088-.16.133-.239q1.464-2.6,2.889-5.216c.056-.1.111-.207.167-.311q1.405-2.585,2.773-5.182c.057-.108.112-.216.168-.324q1.359-2.59,2.681-5.191c.064-.126.125-.252.189-.378q1.3-2.578,2.573-5.167c.069-.142.136-.284.205-.425q1.252-2.568,2.468-5.148c.075-.159.147-.318.221-.477q1.2-2.557,2.363-5.124c.08-.178.158-.356.238-.534q1.145-2.541,2.256-5.093c.087-.2.17-.4.256-.6q1.09-2.522,2.148-5.055c.092-.221.18-.444.272-.665q1.037-2.505,2.042-5.02c.094-.236.184-.473.277-.709q.988-2.5,1.945-5c.1-.255.19-.512.286-.767q.937-2.481,1.844-4.97c.1-.28.2-.56.3-.84q.885-2.46,1.741-4.927c.1-.294.2-.59.3-.884q.838-2.45,1.647-4.909c.1-.314.2-.63.3-.945q.789-2.434,1.55-4.875c.1-.335.2-.671.3-1.006.494-1.611.982-3.224,1.455-4.842.1-.356.2-.713.3-1.069.461-1.6.918-3.2,1.358-4.8.107-.391.208-.784.314-1.176.426-1.572.848-3.144,1.254-4.721.108-.421.209-.845.316-1.267.393-1.551.783-3.1,1.156-4.658.108-.449.208-.9.314-1.35.362-1.532.721-3.065,1.063-4.6.1-.47.2-.942.3-1.412.332-1.521.663-3.041.977-4.567.1-.489.192-.98.291-1.469.3-1.51.607-3.02.892-4.535.1-.512.184-1.027.279-1.54.275-1.494.549-2.989.806-4.488.093-.54.176-1.083.266-1.623.246-1.476.492-2.953.721-4.434.087-.562.164-1.126.248-1.688.219-1.462.438-2.923.64-4.389.082-.6.154-1.2.234-1.8.19-1.434.381-2.868.555-4.306.076-.628.141-1.258.213-1.887.163-1.412.328-2.824.475-4.24.07-.67.128-1.344.194-2.015.136-1.379.274-2.758.394-4.141.06-.692.109-1.387.165-2.08.111-1.366.226-2.732.322-4.1.051-.717.089-1.437.135-2.155.087-1.349.178-2.7.25-4.049.04-.752.068-1.507.1-2.26.063-1.323.13-2.644.179-3.97.029-.778.044-1.558.068-2.337.04-1.306.085-2.61.112-3.919.017-.814.019-1.63.031-2.445.018-1.276.041-2.551.046-3.829,0-.864-.008-1.73-.01-2.6,0-1.236,0-2.471-.017-3.709-.011-.9-.038-1.8-.055-2.7-.024-1.208-.041-2.415-.076-3.626-.027-.935-.07-1.874-.1-2.811-.043-1.181-.079-2.36-.133-3.544-.043-.945-.1-1.894-.152-2.84-.062-1.177-.117-2.353-.19-3.533-.062-1-.14-1.994-.209-2.991-.079-1.135-.15-2.269-.239-3.406-.082-1.048-.181-2.1-.272-3.149-.094-1.091-.18-2.179-.283-3.272s-.227-2.21-.34-3.315c-.107-1.043-.206-2.085-.322-3.13-.13-1.173-.279-2.349-.419-3.524-.118-.981-.226-1.961-.351-2.944-.172-1.349-.363-2.7-.549-4.055-.112-.812-.213-1.622-.33-2.434q-.467-3.251-.987-6.513s.21,1.694.444,4.815c-.42-2.644-.719-4.1-.719-4.1s-6.086,7.07-15.243,20.134a370.23,370.23,0,0,0-22.259-99.563C902.376,230.877,806.6,128.974,806.6,93.558c-9.324,10.856-16.692,27.014-20.8,46.435C702.793,61.607,678.8,24.663,678.8,2c0,0-116.089,129.409-65.742,264.381,29.5,79.086,77.119,110.139,125.218,150.627-9.357-7.841-18.714-15.361-27.958-23.007.137.192.261.368.393.554,25.151,36.374,38.985,81.164,38.985,129.33,0,121.244-98.341,219.531-219.652,219.531A220.455,220.455,0,0,1,480.91,737.9a203.75,203.75,0,0,1-51.361-16.809q2.02,1.319,4.1,2.649c-37.471-23.925-59.617-45.178-72.173-64.2,49.422,17.173,106.972,14.148,141.434-4.888,23.085-12.851,52.7-33.434,70.922-28.353-.42-.166-.827-.32-1.242-.482a24.132,24.132,0,0,1,3.385.846c16.82,5.606,30.211-10.667,18.2-27.536-11.771-16.845-42.4-40.97-87.878-34.286-34.789,5.067-66.657,29.76-112.24,5.845a96.313,96.313,0,0,1-8.554-5.02c-3.005-1.771,9.768,2.695,6.787.682-8.87-4.318-24.573-13.728-28.643-17.074-.679-.557,6.883,2.161,6.2,1.6-14.149-10.44-23.01-19.754-28.492-28.029q.788,1.241,1.662,2.49c-15.985-22.767-9.287-43.581-5.437-53.336,2.634-5.641,8.388-11.04,13.262-14.416q-.552.382-1.116.8a32.59,32.59,0,0,1,6.021-3.385c6.3,3.081,10.226,5.433,10.226,5.433s-2.688-4.92-4.141-7.513c.509-.194.994-.145,1.5-.339,5.162,2.232,16.576,8.029,22.586,11.57,7.827,4.947,10.322,9.358,10.322,9.358s2.061-1.016.536-5.33c-.557-1.769-2.929-7.391-10.682-13.065l.485.049a90.851,90.851,0,0,1,13.134,8.173c2.186-7.121,6.118-14.557,5.253-27.859-.528-9.352-.284-11.775-2.124-15.386-1.647-3.1.924-4.312,3.782-1.088a30.038,30.038,0,0,0-2.444-7.343l.025-.242s1.636-2.126,2.391-2.912c13.861-14.431,71.936-36.419,77.392-39.541,6.014-3.8,28.9-20.523,29.913-47.585.393-8.77-4.156-14.66-76.682-21.463-29.839-2.755-41.265-30.334-44.748-41.941-.034.089-.065.178-.1.266v0c-.038-.157-.09-.33-.125-.482a158.47,158.47,0,0,1,61.279-76.063c1.6-1.308-6.4.335-4.8-.972,1.868-1.525,14.063-5.927,16.367-6.919,2.813-1.186-12.044-6.84-25.159-5.466-13.357,1.349-16.194,2.776-23.323,5.486,2.959-2.639,12.366-6.1,10.161-6.075-14.4,1.978-32.3,9.479-47.6,17.973a9.676,9.676,0,0,1,.924-4.312c-7.129,2.709-24.637,13.674-29.734,22.95A39.488,39.488,0,0,0,350.67,199a88.678,88.678,0,0,0-14.6,13.7l-.267.218c-41.347-14.925-77.732-15.891-108.522-9.2l-.31-.278c.236-.056.36-.084.36-.084-6.155-4.534-19.528-17.625-32.7-44.889-1.041-1.818-1.6,3.754-2.4,1.961-5.955-13.813-9.578-36.2-8.72-52.022,0,0-12.318,5.614-22.513,29.06-1.893,4.215-3.107,6.54-4.32,8.865-.558.678,1.265-7.7.974-7.244-1.771,3-6.355,7.192-8.346,12.375-1.651,4.239-3.349,6.515-4.613,11.772-.389,1.429.392-6.323.052-5.379-21.8,42.138-27.384,104.109-26.2,111.532-.011.157-.012.328-.027.48-13,14.844-21.858,27.413-25.207,33.928C76.5,329.762,57.978,370.236,40.025,434.259A319.143,319.143,0,0,1,68.562,384.27C53.634,418.253,39.2,471.618,36.318,553.8a438.522,438.522,0,0,1,13.872-50.24c-2.578,54.8,3.805,122.74,38.449,199.393,20.57,45.087,67.921,136.649,183.62,208.1l-.01.007s39.36,29.3,107.017,51.259c5,1.814,10.065,3.6,15.234,5.333-1.622-.655-3.191-1.344-4.715-2.052a484.883,484.883,0,0,0,138.8,20.4c166.454.142,221.386-63.354,226.447-69.682,8.424-7.937,14.825-16.3,18.844-24.615,71.7-33.082,149.142-86.787,156.429-166.092a26.076,26.076,0,0,1-.533,2.877,55.573,55.573,0,0,0-.559-22.573q1.61-2.6,3.181-5.208ZM226.967,203.445l-.133.032Zm-.276.067-.148.036ZM118.729,270.025a.328.328,0,0,0,.026.035A.32.32,0,0,1,118.729,270.025Zm-.1-.227,0,.006Zm.21.32a.1.1,0,0,0,.032.006A.1.1,0,0,1,118.843,270.119ZM718.821,407.183q.241.4.5.817C719.146,407.72,718.981,407.448,718.821,407.183Zm-8.1-12.621c4.3,6.059,5.7,8.637,8,12.455C716.416,403.2,715.017,400.62,710.716,394.561ZM443.291,729.744q2.224,1.354,4.51,2.718Q445.51,731.1,443.291,729.744Zm-5.443-3.359q-1.837-1.148-3.627-2.287Q436.01,725.236,437.848,726.384Zm4.39,2.714q-1.751-1.071-3.464-2.135Q440.483,728.027,442.238,729.1ZM569.767,624.732l.039.015Zm-219.047-90c-.028-.034-.058-.069-.085-.1C350.662,534.663,350.692,534.7,350.72,534.731Zm-5.962-7.041q-.907-1.181-1.732-2.356C343.574,526.117,344.155,526.9,344.758,527.69Zm4.38,5.2c-.768-.833-1.5-1.665-2.2-2.5Q347.988,531.644,349.138,532.894Zm-2.5-2.859c-.6-.723-1.191-1.446-1.748-2.166C345.447,528.59,346.036,529.312,346.639,530.035Zm4.244-72.479c1.065-.736,2.084-1.375,3.022-1.9C352.967,456.183,351.948,456.82,350.883,457.556Zm3.159-1.975c.215-.118.418-.223.623-.328C354.46,455.359,354.257,455.463,354.042,455.581Zm1.1-.569c.161-.078.317-.15.47-.219C355.461,454.862,355.305,454.934,355.144,455.012Zm1.038-.458c.11-.044.223-.091.327-.129C356.4,454.463,356.292,454.51,356.182,454.554Z" />
    </g>
    <path
       id="path2321"
       style="fill: url(#linear-gradient-12)"
       d="M850.055,803.646c104.164-102.269,156.858-226.585,134.584-366.018,0,0,8.9,71.5-24.848,144.628,16.213-71.393,18.1-160.114-24.975-251.988C877.323,207.636,782.768,143.109,746.669,116.189,691.974,75.4,669.3,33.87,668.892,25.3c-16.339,33.477-65.766,148.2-5.31,247,56.64,92.564,145.865,120.039,208.328,204.947C986.984,633.667,850.055,803.646,850.055,803.646Z" />
  </g>
</svg>
