<svg id="Assets" xmlns="http://www.w3.org/2000/svg" xmlns:xlink="http://www.w3.org/1999/xlink" viewBox="0 0 668 504"><defs><style>.cls-1{fill:#fff;}.cls-2{fill:url(#linear-gradient);}.cls-3{fill:url(#linear-gradient-2);}.cls-4{fill:url(#linear-gradient-3);}.cls-5{fill:url(#linear-gradient-4);}.cls-6,.cls-8{opacity:0.9;}.cls-6{fill:url(#linear-gradient-5);}.cls-7{fill:none;}.cls-8{fill:url(#linear-gradient-6);}</style><linearGradient id="linear-gradient" x1="395.64" y1="91.61" x2="264.36" y2="318.99" gradientUnits="userSpaceOnUse"><stop offset="0" stop-color="#ff980e"/><stop offset="0.21" stop-color="#ff7139"/><stop offset="0.36" stop-color="#ff5854"/><stop offset="0.46" stop-color="#ff4f5e"/><stop offset="0.69" stop-color="#ff3750"/><stop offset="0.86" stop-color="#f92261"/><stop offset="1" stop-color="#f5156c"/></linearGradient><linearGradient id="linear-gradient-2" x1="395.64" y1="91.61" x2="264.36" y2="318.99" gradientUnits="userSpaceOnUse"><stop offset="0" stop-color="#fff44f" stop-opacity="0.8"/><stop offset="0.09" stop-color="#fff44f" stop-opacity="0.7"/><stop offset="0.75" stop-color="#fff44f" stop-opacity="0"/></linearGradient><linearGradient id="linear-gradient-3" x1="396.14" y1="345.1" x2="396.14" y2="74.58" gradientUnits="userSpaceOnUse"><stop offset="0" stop-color="#3a8ee6"/><stop offset="0.24" stop-color="#5c79f0"/><stop offset="0.63" stop-color="#9059ff"/><stop offset="1" stop-color="#c139e6"/></linearGradient><linearGradient id="linear-gradient-4" x1="350.15" y1="64.6" x2="470.36" y2="184.81" gradientUnits="userSpaceOnUse"><stop offset="0" stop-color="#6e008b" stop-opacity="0.5"/><stop offset="0.5" stop-color="#c846cb" stop-opacity="0"/></linearGradient><linearGradient id="linear-gradient-5" x1="471.08" y1="212.68" x2="401.84" y2="281.92" gradientUnits="userSpaceOnUse"><stop offset="0.14" stop-color="#6a2bea" stop-opacity="0"/><stop offset="0.34" stop-color="#642de4" stop-opacity="0.03"/><stop offset="0.55" stop-color="#5131d3" stop-opacity="0.12"/><stop offset="0.76" stop-color="#3139b7" stop-opacity="0.27"/><stop offset="0.98" stop-color="#054490" stop-opacity="0.48"/><stop offset="1" stop-color="#00458b" stop-opacity="0.5"/></linearGradient><linearGradient id="linear-gradient-6" x1="367.28" y1="256.8" x2="383.51" y2="276.15" gradientUnits="userSpaceOnUse"><stop offset="0" stop-color="#960e18" stop-opacity="0.6"/><stop offset="0.19" stop-color="#ac1624" stop-opacity="0.48"/><stop offset="0.58" stop-color="#e42c41" stop-opacity="0.16"/><stop offset="0.75" stop-color="#ff3750" stop-opacity="0"/></linearGradient></defs><title>FF_Monitor_</title><path class="cls-1" d="M334.84,392.07h6.37l19.9,27.58,20.67-27.58h6.07v56.09h-6.22V402L361,429.64l-19.9-27v45.56h-6.3Z"/><path class="cls-1" d="M395.53,427.41A21.55,21.55,0,1,1,417,449,21.3,21.3,0,0,1,395.53,427.41Zm36.72,0c0-8.83-6.6-15.67-15.21-15.67s-15.13,6.84-15.13,15.67S408.44,443,417,443,432.25,436.25,432.25,427.41Z"/><path class="cls-1" d="M446.56,406.67h6.15v6.91a16.58,16.58,0,0,1,14.44-7.76c10.84,0,17.67,7.07,17.67,18.67v23.67h-6.37V424.8c0-8.07-4.46-13.29-12.53-13.29-7.37,0-13.06,5.61-13.06,13.6v23.05h-6.3Z"/><path class="cls-1" d="M497.58,388.92a5,5,0,1,1-4.92,5A4.84,4.84,0,0,1,497.58,388.92Zm-3.15,17.75h6.37v41.49h-6.37Z"/><path class="cls-1" d="M506.41,406.67h8.07v-9.15l6.22-4v13.14h12.14v5.61H520.7v23.2c0,5.3,2.46,7.37,6,7.37a6.72,6.72,0,0,0,4.77-2l3.3,5a13.34,13.34,0,0,1-8.53,2.92c-7.6,0-11.75-4-11.75-13.14V412.28h-8.07Z"/><path class="cls-1" d="M535.83,427.41A21.55,21.55,0,1,1,557.35,449,21.3,21.3,0,0,1,535.83,427.41Zm36.73,0c0-8.83-6.61-15.67-15.21-15.67s-15.14,6.84-15.14,15.67,6.53,15.6,15.14,15.6S572.56,436.25,572.56,427.41Z"/><path class="cls-1" d="M586.87,406.67h6.07v7.83c1.76-5.53,5.91-8.45,11.83-8.45a13.53,13.53,0,0,1,6.91,1.54l-2.61,6a9.07,9.07,0,0,0-5.07-1.3c-6.91,0-10.91,4-10.91,13.13v22.75h-6.22Z"/><path class="cls-1" d="M56.31,392H93.65v10.1H67v13.7H93.65v10H67v22H56.31Zm50-3.9a6.28,6.28,0,0,1-.07,12.55,5.92,5.92,0,0,1-6.2-6.12A6.19,6.19,0,0,1,106.35,388.11Zm-5.28,18.44h10.56v41.32H101.07ZM142.24,418a8.54,8.54,0,0,0-5.13-1.84c-4.28,0-6.73,2.76-6.73,8.8v22.88H119.9V406.55h10v6c2.14-4.67,5.43-6.35,9.87-6.35a12.57,12.57,0,0,1,7,2.14Zm4.36,9.41c0-11.86,8.8-21.73,21.27-21.73s21.2,8.8,21.2,21v4.36H156.93c1.15,5.21,5.2,8.65,11.4,8.65a11.06,11.06,0,0,0,10.25-6.12l8.8,5.28c-4.36,6.43-10.56,9.79-19.35,9.79C154.63,448.71,146.6,439.76,146.6,427.44Zm10.48-4.67h21.73c-1.14-5.28-5.43-8.18-11-8.18A10.63,10.63,0,0,0,157.08,422.77Zm34.59-16.22h7.42v-2.06c0-11.25,4.74-15.92,15.15-15.92h3.67v9.11h-3c-4.9,0-6,1.68-6,6.81v2.06h8.95V416h-8.72v31.83h-10.1V416h-7.42Zm28.23,20.66a21.16,21.16,0,0,1,21.58-21.5,21.5,21.5,0,1,1,0,43C228.63,448.71,219.9,439.3,219.9,427.21Zm32.91,0a11.34,11.34,0,0,0-11.33-11.7c-6.5,0-11.32,5.12-11.32,11.7s4.82,11.71,11.32,11.71A11.35,11.35,0,0,0,252.81,427.21Zm24.48-.46-14.92-20.2h12.4l8.8,12.7,9-12.7h12.17l-15.15,20.13,15.92,21.19H293.21l-9.87-13.47-9.57,13.47H261.45Z"/><path class="cls-2" d="M445.8,114.51,417.63,98.38,353.36,61.57h0l-2-1.15a34.37,34.37,0,0,0-34,0l-2,1.16h0l-90.41,51.78h0l-2,1.16a33.79,33.79,0,0,0-17,29.23v108.2a33.82,33.82,0,0,0,17,29.24l92.44,52.93A14.22,14.22,0,0,0,334.63,329a14,14,0,0,0-5.19-19.21L239,258a9.66,9.66,0,0,1-4.87-8.36V146.07a9.65,9.65,0,0,1,4.87-8.36l16-9.17,74.43-42.62a9.81,9.81,0,0,1,9.7,0l90.43,51.79a9.67,9.67,0,0,1,4.85,8.35V249.62a9.67,9.67,0,0,1-4.86,8.36L399,275.5l-15.43-23.28a72.72,72.72,0,0,0,24.49-54.38c0-40.33-33.08-73.14-73.74-73.14s-73.73,32.81-73.73,73.14S293.65,271,334.31,271a73.83,73.83,0,0,0,24.89-4.3L382.65,302a16.72,16.72,0,0,0,1.19,1.55l.25.25a13.11,13.11,0,0,0,1.61,1.47l.42.34a14.19,14.19,0,0,0,2,1.21l.49.22a14.62,14.62,0,0,0,1.91.71l.44.14a14.33,14.33,0,0,0,2.27.37l.63,0c.22,0,.43,0,.65,0,.43,0,.86-.05,1.28-.09.2,0,.4,0,.59,0a14.22,14.22,0,0,0,2.39-.54c.2-.06.4-.15.61-.23a13.08,13.08,0,0,0,1.8-.81c.14-.07.28-.1.41-.18l44.21-25.31a33.83,33.83,0,0,0,17-29.24V143.74A33.8,33.8,0,0,0,445.8,114.51ZM288.94,197.84a45.38,45.38,0,1,1,45.37,45A45.24,45.24,0,0,1,288.94,197.84Z"/><path class="cls-3" d="M445.8,114.51,417.63,98.38,353.36,61.57h0l-2-1.15a34.37,34.37,0,0,0-34,0l-2,1.16h0l-90.41,51.78h0l-2,1.16a33.79,33.79,0,0,0-17,29.23v108.2a33.82,33.82,0,0,0,17,29.24l92.44,52.93A14.22,14.22,0,0,0,334.63,329a14,14,0,0,0-5.19-19.21L239,258a9.66,9.66,0,0,1-4.87-8.36V146.07a9.65,9.65,0,0,1,4.87-8.36l16-9.17,74.43-42.62a9.81,9.81,0,0,1,9.7,0l90.43,51.79a9.67,9.67,0,0,1,4.85,8.35V249.62a9.67,9.67,0,0,1-4.86,8.36L399,275.5l-15.43-23.28a72.72,72.72,0,0,0,24.49-54.38c0-40.33-33.08-73.14-73.74-73.14s-73.73,32.81-73.73,73.14S293.65,271,334.31,271a73.83,73.83,0,0,0,24.89-4.3L382.65,302a16.72,16.72,0,0,0,1.19,1.55l.25.25a13.11,13.11,0,0,0,1.61,1.47l.42.34a14.19,14.19,0,0,0,2,1.21l.49.22a14.62,14.62,0,0,0,1.91.71l.44.14a14.33,14.33,0,0,0,2.27.37l.63,0c.22,0,.43,0,.65,0,.43,0,.86-.05,1.28-.09.2,0,.4,0,.59,0a14.22,14.22,0,0,0,2.39-.54c.2-.06.4-.15.61-.23a13.08,13.08,0,0,0,1.8-.81c.14-.07.28-.1.41-.18l44.21-25.31a33.83,33.83,0,0,0,17-29.24V143.74A33.8,33.8,0,0,0,445.8,114.51ZM288.94,197.84a45.38,45.38,0,1,1,45.37,45A45.24,45.24,0,0,1,288.94,197.84Z"/><path class="cls-4" d="M445.79,114.51,417.63,98.38,378.37,75.89a30.29,30.29,0,0,0-29.25-.44L329.47,85.92a9.81,9.81,0,0,1,9.7,0l90.43,51.79a9.67,9.67,0,0,1,4.85,8.35V249.62a9.64,9.64,0,0,1-4.86,8.36L399,275.5l4.77,7.63a20,20,0,0,0,26.91,6.71l15.12-8.66a33.72,33.72,0,0,0,17-29.24V143.74A33.7,33.7,0,0,0,445.79,114.51Z"/><path class="cls-5" d="M434.45,146.07v50.25h28.36V143.74a33.7,33.7,0,0,0-17-29.23L417.63,98.38,378.37,75.89a30.29,30.29,0,0,0-29.25-.44L329.47,85.92a9.81,9.81,0,0,1,9.7,0l90.43,51.79A9.67,9.67,0,0,1,434.45,146.07Z"/><path class="cls-6" d="M434.45,204.41v45.21a9.64,9.64,0,0,1-4.86,8.36L399,275.5l4.77,7.63a20,20,0,0,0,26.91,6.71l15.12-8.66a33.72,33.72,0,0,0,17-29.24V204.41Z"/><ellipse class="cls-7" cx="334.31" cy="197.84" rx="45.38" ry="45.01"/><path class="cls-8" d="M396.82,272.22l-13.26-20a74.14,74.14,0,0,1-24.36,14.46L373.31,288Q385.25,280.35,396.82,272.22Z"/></svg>