<svg id="Assets" xmlns="http://www.w3.org/2000/svg" xmlns:xlink="http://www.w3.org/1999/xlink" viewBox="0 0 1658 504"><defs><style>.cls-1{font-size:153.3px;font-family:FirefoxSharpSans-Medium, Firefox Sharp Sans;letter-spacing:-0.04em;}.cls-1,.cls-8{fill:#20133a;}.cls-2{letter-spacing:-0.02em;}.cls-3{letter-spacing:-0.02em;}.cls-4{letter-spacing:-0.02em;}.cls-5{letter-spacing:-0.06em;}.cls-6{letter-spacing:-0.02em;}.cls-7{letter-spacing:0em;}.cls-9{fill:url(#linear-gradient);}.cls-10{fill:url(#linear-gradient-2);}.cls-11{fill:url(#linear-gradient-3);}.cls-12{fill:url(#linear-gradient-4);}.cls-13,.cls-15{opacity:0.9;}.cls-13{fill:url(#linear-gradient-5);}.cls-14{fill:none;}.cls-15{fill:url(#linear-gradient-6);}</style><linearGradient id="linear-gradient" x1="324.83" y1="147.72" x2="193.55" y2="375.09" gradientUnits="userSpaceOnUse"><stop offset="0" stop-color="#ff980e"/><stop offset="0.21" stop-color="#ff7139"/><stop offset="0.36" stop-color="#ff5854"/><stop offset="0.46" stop-color="#ff4f5e"/><stop offset="0.69" stop-color="#ff3750"/><stop offset="0.86" stop-color="#f92261"/><stop offset="1" stop-color="#f5156c"/></linearGradient><linearGradient id="linear-gradient-2" x1="324.83" y1="147.72" x2="193.55" y2="375.09" gradientUnits="userSpaceOnUse"><stop offset="0" stop-color="#fff44f" stop-opacity="0.8"/><stop offset="0.09" stop-color="#fff44f" stop-opacity="0.7"/><stop offset="0.75" stop-color="#fff44f" stop-opacity="0"/></linearGradient><linearGradient id="linear-gradient-3" x1="325.33" y1="401.2" x2="325.33" y2="130.68" gradientUnits="userSpaceOnUse"><stop offset="0" stop-color="#3a8ee6"/><stop offset="0.24" stop-color="#5c79f0"/><stop offset="0.63" stop-color="#9059ff"/><stop offset="1" stop-color="#c139e6"/></linearGradient><linearGradient id="linear-gradient-4" x1="279.34" y1="120.7" x2="399.55" y2="240.91" gradientUnits="userSpaceOnUse"><stop offset="0" stop-color="#6e008b" stop-opacity="0.5"/><stop offset="0.5" stop-color="#c846cb" stop-opacity="0"/></linearGradient><linearGradient id="linear-gradient-5" x1="400.27" y1="268.78" x2="331.02" y2="338.03" gradientUnits="userSpaceOnUse"><stop offset="0.14" stop-color="#6a2bea" stop-opacity="0"/><stop offset="0.34" stop-color="#642de4" stop-opacity="0.03"/><stop offset="0.55" stop-color="#5131d3" stop-opacity="0.12"/><stop offset="0.76" stop-color="#3139b7" stop-opacity="0.27"/><stop offset="0.98" stop-color="#054490" stop-opacity="0.48"/><stop offset="1" stop-color="#00458b" stop-opacity="0.5"/></linearGradient><linearGradient id="linear-gradient-6" x1="296.47" y1="312.9" x2="312.7" y2="332.25" gradientUnits="userSpaceOnUse"><stop offset="0" stop-color="#960e18" stop-opacity="0.6"/><stop offset="0.19" stop-color="#ac1624" stop-opacity="0.48"/><stop offset="0.58" stop-color="#e42c41" stop-opacity="0.16"/><stop offset="0.75" stop-color="#ff3750" stop-opacity="0"/></linearGradient></defs><title>FF_Monitor_</title><text class="cls-1" transform="translate(980 307.83)">M<tspan class="cls-2" x="126.16" y="0">o</tspan><tspan class="cls-3" x="224.77" y="0">n</tspan><tspan class="cls-4" x="320.12" y="0">i</tspan><tspan class="cls-5" x="351.7" y="0">t</tspan><tspan class="cls-6" x="406.12" y="0">o</tspan><tspan class="cls-7" x="504.74" y="0">r</tspan></text><path class="cls-8" d="M448.29,195.8h74.87v20.25H469.77v27.46h53.39v20.1H469.77V307.8H448.29ZM548.63,188c7.36,0,12.43,5.37,12.43,12.58s-4.91,12.58-12.59,12.58c-7.36,0-12.42-5.21-12.42-12.27C536.05,193.19,541.72,188,548.63,188ZM538,225h21.17V307.8H538Zm82.55,23a17.1,17.1,0,0,0-10.28-3.68c-8.6,0-13.51,5.52-13.51,17.64V307.8h-21V225h20.1v12c4.3-9.36,10.9-12.74,19.8-12.74a25.1,25.1,0,0,1,14.11,4.3Zm8.74,18.87c0-23.78,17.64-43.57,42.65-43.57s42.5,17.64,42.5,42.19v8.75H650c2.3,10.43,10.44,17.34,22.86,17.34,9.67,0,16.27-4.61,20.56-12.28l17.65,10.59c-8.75,12.89-21.18,19.64-38.82,19.64C645.44,309.49,629.33,291.54,629.33,266.83Zm21-9.36h43.57c-2.3-10.58-10.89-16.41-22.09-16.41C661.7,241.06,653.27,246.73,650.35,257.47ZM719.7,225h14.88v-4.14c0-22.56,9.51-31.92,30.38-31.92h7.37v18.26h-6c-9.82,0-12,3.38-12,13.66V225h18v19h-17.5V307.8H734.58V244H719.7Zm56.61,41.42c0-23.78,18.11-43.11,43.27-43.11a43.12,43.12,0,1,1,0,86.23C793.81,309.49,776.31,290.62,776.31,266.37Zm66,0c0-13.19-9.82-23.47-22.71-23.47-13,0-22.71,10.28-22.71,23.47s9.67,23.48,22.71,23.48C832.47,289.85,842.29,279.57,842.29,266.37Zm49.1-.92L861.47,225h24.85L904,250.42,922.07,225h24.4L916.09,265.3,948,307.8H923.3l-19.79-27-19.18,27h-24.7Z"/><path class="cls-9" d="M375,170.61l-28.16-16.13-64.27-36.81h0l-2-1.15a34.37,34.37,0,0,0-34,0l-2,1.16h0l-90.4,51.78h0l-2,1.16a33.79,33.79,0,0,0-17,29.23V308a33.82,33.82,0,0,0,17,29.24l92.43,52.93a14.24,14.24,0,0,0,19.37-5.14,14,14,0,0,0-5.19-19.22l-90.4-51.77a9.65,9.65,0,0,1-4.87-8.36V202.17a9.65,9.65,0,0,1,4.87-8.36l16-9.17L258.66,142a9.81,9.81,0,0,1,9.7,0l90.43,51.79a9.67,9.67,0,0,1,4.85,8.35V305.72a9.65,9.65,0,0,1-4.87,8.36L328.18,331.6l-15.44-23.28a72.68,72.68,0,0,0,24.49-54.38c0-40.33-33.07-73.14-73.73-73.14s-73.73,32.81-73.73,73.14,33.07,73.14,73.73,73.14a73.83,73.83,0,0,0,24.89-4.3l23.45,35.36a16.72,16.72,0,0,0,1.19,1.55l.25.25a13.11,13.11,0,0,0,1.61,1.47c.14.11.27.23.42.34a15.27,15.27,0,0,0,2,1.22l.48.21a15.31,15.31,0,0,0,1.92.71l.44.14a13.27,13.27,0,0,0,2.27.37l.63,0c.22,0,.43,0,.65,0,.43,0,.86-.05,1.28-.09.2,0,.39,0,.59,0a14.11,14.11,0,0,0,2.38-.54c.21-.06.41-.15.62-.23a14.33,14.33,0,0,0,1.8-.8c.13-.07.28-.11.41-.19L375,337.28A33.83,33.83,0,0,0,392,308V199.84A33.79,33.79,0,0,0,375,170.61ZM218.12,253.94a45.38,45.38,0,1,1,45.38,45A45.25,45.25,0,0,1,218.12,253.94Z"/><path class="cls-10" d="M375,170.61l-28.16-16.13-64.27-36.81h0l-2-1.15a34.37,34.37,0,0,0-34,0l-2,1.16h0l-90.4,51.78h0l-2,1.16a33.79,33.79,0,0,0-17,29.23V308a33.82,33.82,0,0,0,17,29.24l92.43,52.93a14.24,14.24,0,0,0,19.37-5.14,14,14,0,0,0-5.19-19.22l-90.4-51.77a9.65,9.65,0,0,1-4.87-8.36V202.17a9.65,9.65,0,0,1,4.87-8.36l16-9.17L258.66,142a9.81,9.81,0,0,1,9.7,0l90.43,51.79a9.67,9.67,0,0,1,4.85,8.35V305.72a9.65,9.65,0,0,1-4.87,8.36L328.18,331.6l-15.44-23.28a72.68,72.68,0,0,0,24.49-54.38c0-40.33-33.07-73.14-73.73-73.14s-73.73,32.81-73.73,73.14,33.07,73.14,73.73,73.14a73.83,73.83,0,0,0,24.89-4.3l23.45,35.36a16.72,16.72,0,0,0,1.19,1.55l.25.25a13.11,13.11,0,0,0,1.61,1.47c.14.11.27.23.42.34a15.27,15.27,0,0,0,2,1.22l.48.21a15.31,15.31,0,0,0,1.92.71l.44.14a13.27,13.27,0,0,0,2.27.37l.63,0c.22,0,.43,0,.65,0,.43,0,.86-.05,1.28-.09.2,0,.39,0,.59,0a14.11,14.11,0,0,0,2.38-.54c.21-.06.41-.15.62-.23a14.33,14.33,0,0,0,1.8-.8c.13-.07.28-.11.41-.19L375,337.28A33.83,33.83,0,0,0,392,308V199.84A33.79,33.79,0,0,0,375,170.61ZM218.12,253.94a45.38,45.38,0,1,1,45.38,45A45.25,45.25,0,0,1,218.12,253.94Z"/><path class="cls-11" d="M375,170.61l-28.16-16.13L307.56,132a30.29,30.29,0,0,0-29.25-.44L258.66,142a9.81,9.81,0,0,1,9.7,0l90.43,51.79a9.67,9.67,0,0,1,4.85,8.35V305.72a9.63,9.63,0,0,1-4.87,8.36L328.18,331.6l4.77,7.63a20,20,0,0,0,26.91,6.71L375,337.28A33.72,33.72,0,0,0,392,308V199.84A33.7,33.7,0,0,0,375,170.61Z"/><path class="cls-12" d="M363.64,202.17v50.25H392V199.84a33.7,33.7,0,0,0-17-29.23l-28.16-16.13L307.56,132a30.29,30.29,0,0,0-29.25-.44L258.66,142a9.84,9.84,0,0,1,9.7,0l90.43,51.79A9.67,9.67,0,0,1,363.64,202.17Z"/><path class="cls-13" d="M363.64,260.51v45.21a9.63,9.63,0,0,1-4.87,8.36L328.18,331.6l4.77,7.63a20,20,0,0,0,26.91,6.71L375,337.28A33.72,33.72,0,0,0,392,308V260.51Z"/><ellipse class="cls-14" cx="263.5" cy="253.94" rx="45.38" ry="45.01"/><path class="cls-15" d="M326,328.32l-13.27-20a73.82,73.82,0,0,1-24.35,14.46l14.11,21.29Q314.44,336.45,326,328.32Z"/></svg>