<svg id="Assets" xmlns="http://www.w3.org/2000/svg" xmlns:xlink="http://www.w3.org/1999/xlink" viewBox="0 0 918 448"><defs><style>.cls-1{fill:#20133a;}.cls-2{fill:url(#linear-gradient);}.cls-3{fill:url(#linear-gradient-2);}.cls-4{fill:url(#linear-gradient-3);}.cls-5{fill:url(#linear-gradient-4);}.cls-6,.cls-8{opacity:0.9;}.cls-6{fill:url(#linear-gradient-5);}.cls-7{fill:none;}.cls-8{fill:url(#linear-gradient-6);}</style><linearGradient id="linear-gradient" x1="296.83" y1="119.72" x2="165.55" y2="347.09" gradientUnits="userSpaceOnUse"><stop offset="0" stop-color="#ff980e"/><stop offset="0.21" stop-color="#ff7139"/><stop offset="0.36" stop-color="#ff5854"/><stop offset="0.46" stop-color="#ff4f5e"/><stop offset="0.69" stop-color="#ff3750"/><stop offset="0.86" stop-color="#f92261"/><stop offset="1" stop-color="#f5156c"/></linearGradient><linearGradient id="linear-gradient-2" x1="296.83" y1="119.72" x2="165.55" y2="347.09" gradientUnits="userSpaceOnUse"><stop offset="0" stop-color="#fff44f" stop-opacity="0.8"/><stop offset="0.09" stop-color="#fff44f" stop-opacity="0.7"/><stop offset="0.75" stop-color="#fff44f" stop-opacity="0"/></linearGradient><linearGradient id="linear-gradient-3" x1="297.33" y1="373.2" x2="297.33" y2="102.68" gradientUnits="userSpaceOnUse"><stop offset="0" stop-color="#3a8ee6"/><stop offset="0.24" stop-color="#5c79f0"/><stop offset="0.63" stop-color="#9059ff"/><stop offset="1" stop-color="#c139e6"/></linearGradient><linearGradient id="linear-gradient-4" x1="251.34" y1="92.7" x2="371.55" y2="212.91" gradientUnits="userSpaceOnUse"><stop offset="0" stop-color="#6e008b" stop-opacity="0.5"/><stop offset="0.5" stop-color="#c846cb" stop-opacity="0"/></linearGradient><linearGradient id="linear-gradient-5" x1="372.27" y1="240.78" x2="303.02" y2="310.03" gradientUnits="userSpaceOnUse"><stop offset="0.14" stop-color="#6a2bea" stop-opacity="0"/><stop offset="0.34" stop-color="#642de4" stop-opacity="0.03"/><stop offset="0.55" stop-color="#5131d3" stop-opacity="0.12"/><stop offset="0.76" stop-color="#3139b7" stop-opacity="0.27"/><stop offset="0.98" stop-color="#054490" stop-opacity="0.48"/><stop offset="1" stop-color="#00458b" stop-opacity="0.5"/></linearGradient><linearGradient id="linear-gradient-6" x1="268.47" y1="284.9" x2="284.7" y2="304.25" gradientUnits="userSpaceOnUse"><stop offset="0" stop-color="#960e18" stop-opacity="0.6"/><stop offset="0.19" stop-color="#ac1624" stop-opacity="0.48"/><stop offset="0.58" stop-color="#e42c41" stop-opacity="0.16"/><stop offset="0.75" stop-color="#ff3750" stop-opacity="0"/></linearGradient></defs><title>FF_Monitor_</title><path class="cls-1" d="M420.25,238.24h9.52l29.69,41.15,30.84-41.15h9.06v83.68h-9.29V253l-30.72,41.27-29.69-40.35v68h-9.41Z"/><path class="cls-1" d="M510.82,291a32.16,32.16,0,1,1,32.1,32.21C524.69,323.18,510.82,309.2,510.82,291Zm54.8,0c0-13.18-9.86-23.39-22.7-23.39S520.33,277.79,520.33,291s9.75,23.27,22.59,23.27S565.62,304.15,565.62,291Z"/><path class="cls-1" d="M587,260h9.18v10.31c4.24-6.87,11.92-11.57,21.55-11.57,16.16,0,26.36,10.54,26.36,27.85v35.31h-9.51V287.07c0-12-6.65-19.83-18.69-19.83-11,0-19.48,8.37-19.48,20.29v34.39H587Z"/><path class="cls-1" d="M663.1,233.54a7.45,7.45,0,1,1-7.34,7.45A7.23,7.23,0,0,1,663.1,233.54ZM658.4,260h9.51v61.9H658.4Z"/><path class="cls-1" d="M676.28,260h12V246.38l9.28-6V260h18.11v8.37H697.6V303c0,7.91,3.67,11,8.94,11a10,10,0,0,0,7.11-3l4.93,7.45a19.88,19.88,0,0,1-12.72,4.36c-11.35,0-17.54-6-17.54-19.6V268.39h-12Z"/><path class="cls-1" d="M720.19,291a32.16,32.16,0,1,1,32.09,32.21C734.06,323.18,720.19,309.2,720.19,291ZM775,291c0-13.18-9.86-23.39-22.7-23.39S729.7,277.79,729.7,291s9.74,23.27,22.58,23.27S775,304.15,775,291Z"/><path class="cls-1" d="M796.34,260h9.06v11.69c2.63-8.25,8.82-12.61,17.65-12.61,4.24,0,7.91.8,10.32,2.29l-3.9,8.94a13.62,13.62,0,0,0-7.57-1.94c-10.31,0-16.27,6-16.27,19.6v33.93h-9.29Z"/><path class="cls-1" d="M420,126.31h55.74v15.08H436v20.45h39.75v15H436v32.9H420Zm74.71-5.82a9.37,9.37,0,0,1-.12,18.73,8.85,8.85,0,0,1-9.25-9.14A9.24,9.24,0,0,1,494.71,120.49ZM486.82,148h15.77V209.7H486.82Zm61.46,17.13a12.73,12.73,0,0,0-7.66-2.74c-6.39,0-10,4.11-10,13.14V209.7H514.92V148h15v8.91c3.2-7,8.11-9.48,14.73-9.48a18.71,18.71,0,0,1,10.51,3.19Zm6.51,14c0-17.7,13.14-32.44,31.75-32.44s31.65,13.14,31.65,31.41v6.51h-48c1.71,7.77,7.77,12.91,17,12.91,7.2,0,12.11-3.42,15.31-9.14l13.13,7.89c-6.51,9.59-15.76,14.62-28.9,14.62C566.78,211,554.79,197.59,554.79,179.2Zm15.65-7h32.44c-1.71-7.88-8.11-12.22-16.45-12.22C578.89,160,572.61,164.24,570.44,172.23ZM622.07,148h11.08v-3.09c0-16.79,7.08-23.76,22.62-23.76h5.48v13.6h-4.46c-7.31,0-8.91,2.51-8.91,10.16V148h13.37v14.16h-13V209.7H633.15V162.18H622.07Zm42.15,30.84c0-17.71,13.48-32.1,32.21-32.1a32.1,32.1,0,1,1,0,64.2C677.24,211,664.22,196.91,664.22,178.86Zm49.12,0c0-9.82-7.31-17.48-16.91-17.48s-16.9,7.66-16.9,17.48,7.19,17.48,16.9,17.48S713.34,188.68,713.34,178.86Zm36.55-.69L727.62,148h18.5l13.14,19,13.48-19H790.9l-22.62,30L792,209.7H773.65l-14.74-20.1-14.27,20.1H726.25Z"/><path class="cls-2" d="M347,142.61l-28.16-16.13L254.55,89.67h0l-2-1.15a34.37,34.37,0,0,0-34,0l-2,1.16h0l-90.4,51.78h0l-2,1.16a33.79,33.79,0,0,0-17,29.23V280a33.82,33.82,0,0,0,17,29.24l92.43,52.93a14.24,14.24,0,0,0,19.37-5.14,14,14,0,0,0-5.19-19.22l-90.4-51.77a9.65,9.65,0,0,1-4.87-8.36V174.17a9.65,9.65,0,0,1,4.87-8.36l16-9.17L230.66,114a9.81,9.81,0,0,1,9.7,0l90.43,51.79a9.67,9.67,0,0,1,4.85,8.35V277.72a9.65,9.65,0,0,1-4.87,8.36L300.18,303.6l-15.44-23.28a72.68,72.68,0,0,0,24.49-54.38c0-40.33-33.07-73.14-73.73-73.14s-73.73,32.81-73.73,73.14,33.07,73.14,73.73,73.14a73.83,73.83,0,0,0,24.89-4.3l23.45,35.36a16.72,16.72,0,0,0,1.19,1.55l.25.25a13.11,13.11,0,0,0,1.61,1.47c.14.11.27.23.42.34a15.27,15.27,0,0,0,2,1.22l.48.21a15.31,15.31,0,0,0,1.92.71l.44.14a13.27,13.27,0,0,0,2.27.37l.63,0c.22,0,.43,0,.65,0,.43,0,.86-.05,1.28-.09.2,0,.39,0,.59,0a14.11,14.11,0,0,0,2.38-.54c.21-.06.41-.15.62-.23a14.33,14.33,0,0,0,1.8-.8c.13-.07.28-.11.41-.19L347,309.28A33.83,33.83,0,0,0,364,280V171.84A33.79,33.79,0,0,0,347,142.61ZM190.12,225.94a45.38,45.38,0,1,1,45.38,45A45.25,45.25,0,0,1,190.12,225.94Z"/><path class="cls-3" d="M347,142.61l-28.16-16.13L254.55,89.67h0l-2-1.15a34.37,34.37,0,0,0-34,0l-2,1.16h0l-90.4,51.78h0l-2,1.16a33.79,33.79,0,0,0-17,29.23V280a33.82,33.82,0,0,0,17,29.24l92.43,52.93a14.24,14.24,0,0,0,19.37-5.14,14,14,0,0,0-5.19-19.22l-90.4-51.77a9.65,9.65,0,0,1-4.87-8.36V174.17a9.65,9.65,0,0,1,4.87-8.36l16-9.17L230.66,114a9.81,9.81,0,0,1,9.7,0l90.43,51.79a9.67,9.67,0,0,1,4.85,8.35V277.72a9.65,9.65,0,0,1-4.87,8.36L300.18,303.6l-15.44-23.28a72.68,72.68,0,0,0,24.49-54.38c0-40.33-33.07-73.14-73.73-73.14s-73.73,32.81-73.73,73.14,33.07,73.14,73.73,73.14a73.83,73.83,0,0,0,24.89-4.3l23.45,35.36a16.72,16.72,0,0,0,1.19,1.55l.25.25a13.11,13.11,0,0,0,1.61,1.47c.14.11.27.23.42.34a15.27,15.27,0,0,0,2,1.22l.48.21a15.31,15.31,0,0,0,1.92.71l.44.14a13.27,13.27,0,0,0,2.27.37l.63,0c.22,0,.43,0,.65,0,.43,0,.86-.05,1.28-.09.2,0,.39,0,.59,0a14.11,14.11,0,0,0,2.38-.54c.21-.06.41-.15.62-.23a14.33,14.33,0,0,0,1.8-.8c.13-.07.28-.11.41-.19L347,309.28A33.83,33.83,0,0,0,364,280V171.84A33.79,33.79,0,0,0,347,142.61ZM190.12,225.94a45.38,45.38,0,1,1,45.38,45A45.25,45.25,0,0,1,190.12,225.94Z"/><path class="cls-4" d="M347,142.61l-28.16-16.13L279.56,104a30.29,30.29,0,0,0-29.25-.44L230.66,114a9.81,9.81,0,0,1,9.7,0l90.43,51.79a9.67,9.67,0,0,1,4.85,8.35V277.72a9.63,9.63,0,0,1-4.87,8.36L300.18,303.6l4.77,7.63a20,20,0,0,0,26.91,6.71L347,309.28A33.72,33.72,0,0,0,364,280V171.84A33.7,33.7,0,0,0,347,142.61Z"/><path class="cls-5" d="M335.64,174.17v50.25H364V171.84a33.7,33.7,0,0,0-17-29.23l-28.16-16.13L279.56,104a30.29,30.29,0,0,0-29.25-.44L230.66,114a9.84,9.84,0,0,1,9.7,0l90.43,51.79A9.67,9.67,0,0,1,335.64,174.17Z"/><path class="cls-6" d="M335.64,232.51v45.21a9.63,9.63,0,0,1-4.87,8.36L300.18,303.6l4.77,7.63a20,20,0,0,0,26.91,6.71L347,309.28A33.72,33.72,0,0,0,364,280V232.51Z"/><ellipse class="cls-7" cx="235.5" cy="225.94" rx="45.38" ry="45.01"/><path class="cls-8" d="M298,300.32l-13.27-20a73.82,73.82,0,0,1-24.35,14.46l14.11,21.29Q286.44,308.45,298,300.32Z"/></svg>