<svg id="Assets" xmlns="http://www.w3.org/2000/svg" viewBox="0 0 415.96 504"><defs><style>.cls-1{fill:#fff;}</style></defs><title>FF_Master_</title><path class="cls-1" d="M83.73,392.3h37.34v10.1H94.45v13.7h26.62v10H94.45v22H83.73Zm50.05-3.9A6.28,6.28,0,0,1,133.7,401a5.93,5.93,0,0,1-6.2-6.12A6.2,6.2,0,0,1,133.78,388.4Zm-5.28,18.44h10.56v41.32H128.5Zm41.16,11.48a8.54,8.54,0,0,0-5.12-1.84c-4.29,0-6.74,2.75-6.74,8.8v22.88H147.32V406.84h10v6c2.15-4.67,5.44-6.35,9.87-6.35a12.49,12.49,0,0,1,7,2.14Zm4.36,9.41c0-11.86,8.8-21.73,21.28-21.73s21.19,8.8,21.19,21v4.36H184.35c1.15,5.2,5.21,8.65,11.4,8.65A11.09,11.09,0,0,0,206,433.93l8.8,5.28c-4.36,6.42-10.56,9.79-19.36,9.79C182.06,449,174,440.05,174,427.73Zm10.49-4.67h21.73c-1.15-5.28-5.44-8.19-11-8.19A10.61,10.61,0,0,0,184.51,423.06Zm34.58-16.22h7.42v-2.07c0-11.24,4.75-15.91,15.15-15.91h3.68V398h-3c-4.89,0-6,1.69-6,6.81v2.07h9v9.49h-8.73v31.83h-10.1V416.33h-7.42Zm28.24,20.66A21.15,21.15,0,0,1,268.9,406a21.5,21.5,0,1,1,0,43C256.05,449,247.33,439.59,247.33,427.5Zm32.9,0a11.35,11.35,0,0,0-11.33-11.71c-6.5,0-11.32,5.13-11.32,11.71s4.82,11.71,11.32,11.71A11.35,11.35,0,0,0,280.23,427.5Zm24.48-.46-14.92-20.2h12.4l8.8,12.7,9-12.7h12.16L317,427,333,448.16H320.63l-9.87-13.47-9.57,13.47H288.88Z"/><path class="cls-1" d="M343.56,159.1l0-.09c-.2-.77-.41-1.52-.63-2.28l-.09-.33-.63-2.12c-.05-.15-.1-.31-.14-.46-.21-.67-.43-1.35-.65-2l-.17-.53c-.22-.65-.44-1.3-.67-2-.06-.19-.13-.38-.2-.57-.22-.64-.45-1.28-.68-1.92-.07-.18-.15-.37-.22-.56-.23-.64-.47-1.28-.72-1.91-.07-.16-.13-.33-.2-.49l-.22-.57-.57-1.4-.09-.2q-1.35-3.27-2.87-6.46c-.06-.14-.13-.28-.2-.43-.24-.51-.49-1-.74-1.51l-.44-.9c-.23-.45-.47-.9-.7-1.36l-.53-1c-.23-.42-.46-.84-.68-1.26l-.6-1.1-.67-1.2c-.22-.38-.44-.76-.65-1.14l-.67-1.15-.7-1.17c-.22-.36-.44-.73-.67-1.09l-.75-1.2-.66-1c-.26-.41-.53-.82-.8-1.23s-.43-.66-.65-1-.59-.87-.88-1.3l-.62-.9-1-1.42-.52-.74c-.52-.72-1.05-1.43-1.58-2.13a140.29,140.29,0,0,0-13.23-15,112.31,112.31,0,0,0-10.57-9.56c-2.15-1.86-4.39-3.61-6.7-5.28A91.61,91.61,0,0,0,275,72.17q-1.83-1-3.69-1.86a142.26,142.26,0,0,0-31.36-11.09c-1.44-.32-2.89-.61-4.34-.88a132.62,132.62,0,0,0-22-2.31l-3.11,0a137.57,137.57,0,0,0-28.65,2.88c-19.94,4.2-37.47,12.8-48.56,23.56l.05,0,0,0,.08-.07.07,0,0,0,.15-.1c8.29-5,19.74-9,27.92-11.06l1.35-.33c1.54-.36,3.12-.71,4.76-1h.05L169,69.6c36.26-6.6,74.92,4.23,101.83,30A94.38,94.38,0,0,1,286,118.14c17.17,27.85,15.55,62.87,2.16,83.52C278.18,217,256.88,231.4,237,231.24l1.2,0-.8,0-1.23-.06a64,64,0,0,1-25.46-6.59c-30.76-15.7-35.34-54.82-13.09-73.74h0c-7.39-1.59-21.27,1.52-30.94,15.94-8.67,12.94-8.18,32.93-2.83,47.1A75.57,75.57,0,0,1,157,191.77c-6.71-45.26,22.59-84.07,50.65-95.42l.59-.23.77-.3q.68-.25,1.35-.48h0c-6.32-5.51-16.51-8.63-28.32-9-16.3-.46-35.69,4.38-52.3,15.55-1,.66-2,1.35-2.94,2.06-.6.44-1.19.89-1.78,1.34l-.55.44-1.2,1-.62.51c-.39.32-.76.63-1.14,1l-.58.5c-.45.38-.89.77-1.32,1.16l-.35.31c-.53.48-1.06,1-1.58,1.47-.18.18-.36.36-.55.53l-1,1-.64.65-.91.93-.64.68-.92,1-.58.63L111,118.61l-.63.76-.76.91-.69.87-.66.83-.7.92-.6.8-.72,1-.4.58q-.76,1.06-1.5,2.16L104,128l-.75,1.16c-.14.21-.27.43-.41.65-.25.39-.5.79-.74,1.19l-.36.59-.76,1.3-.08.13c-.63,1.09-1.24,2.19-1.83,3.31l0,0c-.26.49-.51,1-.76,1.48-.07.15-.15.29-.22.44l-.72,1.46-.2.42c-1.07,2.27-2.08,4.59-3,7l-.09.24c-.22.56-.43,1.11-.63,1.67,0,.11-.08.23-.13.34l-.61,1.72,0,.06c-.43,1.27-.85,2.55-1.24,3.85A110.7,110.7,0,0,1,96,132.27a1.09,1.09,0,0,0,0-.17c.13-.43.27-.86.41-1.29a3,3,0,0,1,.1-.32c.12-.4.25-.8.38-1.2l.15-.44c.12-.36.25-.73.37-1.11l.19-.54.36-1,.22-.63.36-1c.08-.23.17-.47.26-.7l.34-.93.3-.77c.11-.29.22-.58.34-.87l.33-.84.33-.83.37-.9.33-.77c.13-.32.27-.65.41-1s.2-.48.31-.72l.45-1,.3-.66.51-1.13.27-.58c.19-.43.4-.86.6-1.29.07-.14.14-.29.2-.43.26-.53.52-1.07.79-1.61a.54.54,0,0,1,0-.11c.29-.59.58-1.17.88-1.76h0a40.46,40.46,0,0,0-9.61,7.51c-.33.33-.65.67-1,1a93.86,93.86,0,0,0-17.59,27c-6.79,16.32-10.18,35.1-10.11,53.89a150.17,150.17,0,0,0,1,16.71c0,.29.07.58.1.88.16,1.42.32,2.83.5,4.24,0,.1,0,.2,0,.3A140.53,140.53,0,1,0,343.56,159.1Z"/></svg>