<svg xmlns="http://www.w3.org/2000/svg" xmlns:xlink="http://www.w3.org/1999/xlink" viewBox="0 0 1060 504"><defs><style>.cls-1{isolation:isolate;}.cls-2{fill:#fff;}.cls-3{fill:url(#radial-gradient);}.cls-4{opacity:0.67;}.cls-5{fill:url(#radial-gradient-2);}.cls-6{fill:url(#radial-gradient-3);}.cls-7{fill:url(#radial-gradient-4);}.cls-8{fill:url(#radial-gradient-5);}.cls-9{fill:url(#linear-gradient);}.cls-10{fill:url(#radial-gradient-6);}.cls-11{fill:url(#radial-gradient-7);}.cls-12,.cls-13{opacity:0.53;mix-blend-mode:multiply;}.cls-12{fill:url(#radial-gradient-8);}.cls-13{fill:url(#radial-gradient-9);}.cls-14{fill:url(#radial-gradient-10);}.cls-15{fill:url(#linear-gradient-2);}.cls-16{fill:url(#linear-gradient-3);}.cls-17{fill:url(#linear-gradient-4);}</style><radialGradient id="radial-gradient" cx="-896.08" cy="-367.31" fx="-884.7176767609146" r="317.73" gradientTransform="translate(1258.44 532.89)" gradientUnits="userSpaceOnUse"><stop offset="0" stop-color="#fff44f"/><stop offset="0.29" stop-color="#ff980e"/><stop offset="0.43" stop-color="#ff5d36"/><stop offset="0.53" stop-color="#ff3750"/><stop offset="0.75" stop-color="#f5156c"/><stop offset="0.76" stop-color="#f1136e"/><stop offset="0.88" stop-color="#da057a"/><stop offset="0.95" stop-color="#d2007f"/></radialGradient><radialGradient id="radial-gradient-2" cx="-1123.24" cy="-354.17" fx="-1116.5126355371337" r="188.04" gradientTransform="translate(1258.44 532.89)" gradientUnits="userSpaceOnUse"><stop offset="0" stop-color="#b5007f"/><stop offset="1" stop-color="#f5156c" stop-opacity="0"/></radialGradient><radialGradient id="radial-gradient-3" cx="-868.92" cy="-385.39" fx="-855.5764437098355" fy="-391.98621865031106" r="373.1" gradientTransform="translate(1258.44 532.89)" gradientUnits="userSpaceOnUse"><stop offset="0" stop-color="#fd0" stop-opacity="0.6"/><stop offset="0.09" stop-color="#ffd702" stop-opacity="0.58"/><stop offset="0.2" stop-color="#fec606" stop-opacity="0.52"/><stop offset="0.32" stop-color="#fda90e" stop-opacity="0.43"/><stop offset="0.45" stop-color="#fc8119" stop-opacity="0.3"/><stop offset="0.57" stop-color="#fa4e27" stop-opacity="0.14"/><stop offset="0.66" stop-color="#f92433" stop-opacity="0"/></radialGradient><radialGradient id="radial-gradient-4" cx="260" cy="268.08" r="481.33" gradientUnits="userSpaceOnUse"><stop offset="0.15" stop-color="#960e18"/><stop offset="0.18" stop-color="#b11927" stop-opacity="0.74"/><stop offset="0.22" stop-color="#db293d" stop-opacity="0.34"/><stop offset="0.26" stop-color="#f5334b" stop-opacity="0.09"/><stop offset="0.27" stop-color="#ff3750" stop-opacity="0"/></radialGradient><radialGradient id="radial-gradient-5" cx="223.57" cy="262.03" r="481.33" gradientUnits="userSpaceOnUse"><stop offset="0.11" stop-color="#960e18"/><stop offset="0.15" stop-color="#b11927" stop-opacity="0.74"/><stop offset="0.21" stop-color="#db293d" stop-opacity="0.34"/><stop offset="0.26" stop-color="#f5334b" stop-opacity="0.09"/><stop offset="0.28" stop-color="#ff3750" stop-opacity="0"/></radialGradient><linearGradient id="linear-gradient" x1="-986.03" y1="-393.08" x2="-903.68" y2="-250.43" gradientTransform="translate(1258.44 532.89)" gradientUnits="userSpaceOnUse"><stop offset="0" stop-color="#ffbc04"/><stop offset="0.17" stop-color="#ffab02" stop-opacity="0.62"/><stop offset="0.34" stop-color="#ff9b01" stop-opacity="0.29"/><stop offset="0.45" stop-color="#ff9200" stop-opacity="0.08"/><stop offset="0.51" stop-color="#ff8e00" stop-opacity="0"/></linearGradient><radialGradient id="radial-gradient-6" cx="-966.95" cy="26.94" fx="-955.8224146449433" r="311.02" gradientTransform="translate(1282.86 129.02) scale(0.96)" gradientUnits="userSpaceOnUse"><stop offset="0" stop-color="#ff980e"/><stop offset="0.3" stop-color="#ff7139"/><stop offset="0.48" stop-color="#ff5b51"/><stop offset="0.63" stop-color="#ff4f5e"/><stop offset="0.74" stop-color="#ff4055"/><stop offset="0.84" stop-color="#ff3750"/></radialGradient><radialGradient id="radial-gradient-7" cx="-966.95" cy="26.94" fx="-955.8224146449433" r="311.02" gradientTransform="translate(1282.86 129.02) scale(0.96)" gradientUnits="userSpaceOnUse"><stop offset="0.08" stop-color="#ffde08"/><stop offset="0.15" stop-color="#ffdb08" stop-opacity="0.97"/><stop offset="0.25" stop-color="#ffd209" stop-opacity="0.88"/><stop offset="0.37" stop-color="#ffc40b" stop-opacity="0.73"/><stop offset="0.51" stop-color="#ffb00d" stop-opacity="0.53"/><stop offset="0.67" stop-color="#ff970f" stop-opacity="0.28"/><stop offset="0.82" stop-color="#ff7b12" stop-opacity="0"/></radialGradient><radialGradient id="radial-gradient-8" cx="286.79" cy="247.62" r="146.26" gradientTransform="matrix(0.25, 0.97, -1.01, 0.26, 466.28, -94.16)" gradientUnits="userSpaceOnUse"><stop offset="0.36" stop-color="#ff3750"/><stop offset="0.44" stop-color="#ff4d47" stop-opacity="0.63"/><stop offset="0.55" stop-color="#ff673d" stop-opacity="0.18"/><stop offset="0.59" stop-color="#ff7139" stop-opacity="0"/></radialGradient><radialGradient id="radial-gradient-9" cx="261.58" cy="260.01" r="146.26" gradientTransform="translate(0 -0.78)" gradientUnits="userSpaceOnUse"><stop offset="0.22" stop-color="#ff3750" stop-opacity="0.8"/><stop offset="0.27" stop-color="#ff444b" stop-opacity="0.63"/><stop offset="0.41" stop-color="#ff643e" stop-opacity="0.18"/><stop offset="0.47" stop-color="#ff7139" stop-opacity="0"/></radialGradient><radialGradient id="radial-gradient-10" cx="-904.88" cy="-8.2" r="525.68" gradientTransform="translate(1282.86 129.02) scale(0.96)" gradientUnits="userSpaceOnUse"><stop offset="0.05" stop-color="#fff44f"/><stop offset="0.46" stop-color="#ff980e"/><stop offset="0.52" stop-color="#ff8424"/><stop offset="0.59" stop-color="#ff7634"/><stop offset="0.64" stop-color="#ff7139"/></radialGradient><linearGradient id="linear-gradient-2" x1="318.57" y1="137.31" x2="175.67" y2="384.81" gradientUnits="userSpaceOnUse"><stop offset="0" stop-color="#fff44f" stop-opacity="0.8"/><stop offset="0.09" stop-color="#fff44f" stop-opacity="0.7"/><stop offset="0.75" stop-color="#fff44f" stop-opacity="0"/></linearGradient><linearGradient id="linear-gradient-3" x1="-985.36" y1="-244.54" x2="-985.36" y2="-418.45" gradientTransform="translate(1258.44 532.89)" gradientUnits="userSpaceOnUse"><stop offset="0" stop-color="#3a8ee6"/><stop offset="0.24" stop-color="#5c79f0"/><stop offset="0.63" stop-color="#9059ff"/><stop offset="1" stop-color="#c139e6"/></linearGradient><linearGradient id="linear-gradient-4" x1="-1049.36" y1="-419.25" x2="-908.25" y2="-278.13" gradientTransform="translate(1258.44 532.89)" gradientUnits="userSpaceOnUse"><stop offset="0.81" stop-color="#9059ff" stop-opacity="0"/><stop offset="1" stop-color="#6e008b" stop-opacity="0.5"/></linearGradient></defs><title>FF_Master_</title><g class="cls-1"><g id="Assets"><path class="cls-2" d="M448.29,195.82h74.87v20.26H469.77v27.46h53.39v20.1H469.77v44.19H448.29ZM548.63,188c7.36,0,12.43,5.37,12.43,12.58s-4.91,12.58-12.59,12.58c-7.36,0-12.42-5.21-12.42-12.27C536.05,193.22,541.72,188,548.63,188ZM538,225h21.17v82.85H538Zm82.55,23a17.1,17.1,0,0,0-10.28-3.68c-8.6,0-13.51,5.52-13.51,17.64v45.88h-21V225h20.1v12c4.3-9.36,10.9-12.73,19.8-12.73a25.09,25.09,0,0,1,14.11,4.29Zm8.74,18.87c0-23.78,17.64-43.57,42.65-43.57s42.5,17.64,42.5,42.19v8.75H650c2.3,10.43,10.44,17.33,22.86,17.33,9.67,0,16.27-4.6,20.56-12.27l17.65,10.59c-8.75,12.88-21.18,19.63-38.82,19.63C645.44,309.51,629.33,291.56,629.33,266.86Zm21-9.36h43.57c-2.3-10.58-10.89-16.41-22.09-16.41C661.7,241.09,653.27,246.76,650.35,257.5ZM719.7,225h14.88v-4.15c0-22.55,9.51-31.91,30.38-31.91h7.37v18.26h-6c-9.82,0-12,3.37-12,13.65V225h18v19h-17.5v63.83H734.58V244H719.7Zm56.61,41.42c0-23.78,18.11-43.11,43.27-43.11a43.11,43.11,0,1,1,0,86.22C793.81,309.51,776.31,290.64,776.31,266.4Zm66,0c0-13.19-9.82-23.47-22.71-23.47-13,0-22.71,10.28-22.71,23.47s9.67,23.48,22.71,23.48C832.47,289.88,842.29,279.6,842.29,266.4Zm49.1-.92L861.47,225h24.85L904,250.45,922.07,225h24.4l-30.38,40.35L948,307.83H923.3l-19.79-27-19.18,27h-24.7Z"/><path class="cls-3" d="M363.81,167.49c-25.31-33.25-64.76-54-106.25-54.8-32.51-.64-55,9.1-67.67,16.94,17-9.84,41.6-15.42,63.14-15.14,55.41.7,114.91,38.34,123.75,106.19,10.14,77.89-44.23,142.89-120.73,143.09-84.16.21-135.34-74.13-122-140.9.67-3.33.33-6.58,1.45-9.73.63-11.74,5.08-30.14,14.67-48.94-9.69,5-22,20.82-28.12,35.48-8.79,21.13-11.88,46.4-9.1,70.44.21,1.81.4,3.62.64,5.41a140.2,140.2,0,1,0,250.18-108ZM141.92,179.66Z"/><g class="cls-4"><path class="cls-5" d="M363.81,167.49c-25.31-33.25-64.76-54-106.25-54.8-32.51-.64-55,9.1-67.67,16.94,17-9.84,41.6-15.42,63.14-15.14,55.41.7,114.91,38.34,123.75,106.19,10.14,77.89-44.23,142.89-120.73,143.09-84.16.21-135.34-74.13-122-140.9.67-3.33.33-6.58,1.45-9.73.63-11.74,5.08-30.14,14.67-48.94-9.69,5-22,20.82-28.12,35.48-8.79,21.13-11.88,46.4-9.1,70.44.21,1.81.4,3.62.64,5.41a140.2,140.2,0,1,0,250.18-108ZM141.92,179.66Z"/></g><path class="cls-6" d="M363.81,167.49c-25.31-33.25-64.76-54-106.25-54.8-32.51-.64-55,9.1-67.67,16.94,17-9.84,41.6-15.42,63.14-15.14,55.41.7,114.91,38.34,123.75,106.19,10.14,77.89-44.23,142.89-120.73,143.09-84.16.21-135.34-74.13-122-140.9.67-3.33.33-6.58,1.45-9.73.63-11.74,5.08-30.14,14.67-48.94-9.69,5-22,20.82-28.12,35.48-8.79,21.13-11.88,46.4-9.1,70.44.21,1.81.4,3.62.64,5.41a140.2,140.2,0,1,0,250.18-108ZM141.92,179.66Z"/><path class="cls-7" d="M363.81,167.49c-25.31-33.25-64.76-54-106.25-54.8-32.51-.64-55,9.1-67.67,16.94,17-9.84,41.6-15.42,63.14-15.14,55.41.7,114.91,38.34,123.75,106.19,10.14,77.89-44.23,142.89-120.73,143.09-84.16.21-135.34-74.13-122-140.9.67-3.33.33-6.58,1.45-9.73.63-11.74,5.08-30.14,14.67-48.94-9.69,5-22,20.82-28.12,35.48-8.79,21.13-11.88,46.4-9.1,70.44.21,1.81.4,3.62.64,5.41a140.2,140.2,0,1,0,250.18-108ZM141.92,179.66Z"/><path class="cls-8" d="M363.81,167.49c-25.31-33.25-64.76-54-106.25-54.8-32.51-.64-55,9.1-67.67,16.94,17-9.84,41.6-15.42,63.14-15.14,55.41.7,114.91,38.34,123.75,106.19,10.14,77.89-44.23,142.89-120.73,143.09-84.16.21-135.34-74.13-122-140.9.67-3.33.33-6.58,1.45-9.73.63-11.74,5.08-30.14,14.67-48.94-9.69,5-22,20.82-28.12,35.48-8.79,21.13-11.88,46.4-9.1,70.44.21,1.81.4,3.62.64,5.41a140.2,140.2,0,1,0,250.18-108ZM141.92,179.66Z"/><path class="cls-9" d="M376.78,220.68a142.39,142.39,0,0,1,1.05,25.3c4.65-.68,9.3-1.31,14-1.85a139.5,139.5,0,0,0-28-76.64c-25.31-33.25-64.76-54-106.25-54.8-32.51-.64-55,9.1-67.67,16.94,17-9.84,41.6-15.42,63.14-15.14C308.44,115.19,367.94,152.83,376.78,220.68Z"/><path class="cls-10" d="M380.19,216.81C372.31,145.9,308.92,114,253,114.49c-21.54.17-46.14,5.3-63.14,15.14a69.56,69.56,0,0,0-12.46,9.43c.45-.37,1.8-1.48,4-3l.22-.16.2-.13A93.31,93.31,0,0,1,208.8,123.3c14.77-4.32,30.76-5.77,46.14-5.38,63.21,3.63,107.82,56,109.37,111.69,1.29,46.11-36.54,82.89-80.15,85-31.72,1.54-61.6-13.77-76.2-44.4a75.69,75.69,0,0,1-6.87-22.11c-6.92-46.61,24.46-86.37,53.24-96.21-15.53-13.53-54.42-12.61-83.37,8.64-20.85,15.3-34.37,38.58-38.85,66.35-3.42,21.18-.2,43.2,8.19,62.86a123.53,123.53,0,0,0,105.31,74.86c3.47.26,7,.39,10.44.39C348.67,365,388.86,294.87,380.19,216.81Z"/><path class="cls-11" d="M380.19,216.81C372.31,145.9,308.92,114,253,114.49c-21.54.17-46.14,5.3-63.14,15.14a69.56,69.56,0,0,0-12.46,9.43c.45-.37,1.8-1.48,4-3l.22-.16.2-.13A93.31,93.31,0,0,1,208.8,123.3c14.77-4.32,30.76-5.77,46.14-5.38,63.21,3.63,107.82,56,109.37,111.69,1.29,46.11-36.54,82.89-80.15,85-31.72,1.54-61.6-13.77-76.2-44.4a75.69,75.69,0,0,1-6.87-22.11c-6.92-46.61,24.46-86.37,53.24-96.21-15.53-13.53-54.42-12.61-83.37,8.64-20.85,15.3-34.37,38.58-38.85,66.35-3.42,21.18-.2,43.2,8.19,62.86a123.53,123.53,0,0,0,105.31,74.86c3.47.26,7,.39,10.44.39C348.67,365,388.86,294.87,380.19,216.81Z"/><path class="cls-12" d="M380.19,216.81C372.31,145.9,308.92,114,253,114.49c-21.54.17-46.14,5.3-63.14,15.14a69.56,69.56,0,0,0-12.46,9.43c.45-.37,1.8-1.48,4-3l.22-.16.2-.13A93.31,93.31,0,0,1,208.8,123.3c14.77-4.32,30.76-5.77,46.14-5.38,63.21,3.63,107.82,56,109.37,111.69,1.29,46.11-36.54,82.89-80.15,85-31.72,1.54-61.6-13.77-76.2-44.4a75.69,75.69,0,0,1-6.87-22.11c-6.92-46.61,24.46-86.37,53.24-96.21-15.53-13.53-54.42-12.61-83.37,8.64-20.85,15.3-34.37,38.58-38.85,66.35-3.42,21.18-.2,43.2,8.19,62.86a123.53,123.53,0,0,0,105.31,74.86c3.47.26,7,.39,10.44.39C348.67,365,388.86,294.87,380.19,216.81Z"/><path class="cls-13" d="M380.19,216.81C372.31,145.9,308.92,114,253,114.49c-21.54.17-46.14,5.3-63.14,15.14a69.56,69.56,0,0,0-12.46,9.43c.45-.37,1.8-1.48,4-3l.22-.16.2-.13A93.31,93.31,0,0,1,208.8,123.3c14.77-4.32,30.76-5.77,46.14-5.38,63.21,3.63,107.82,56,109.37,111.69,1.29,46.11-36.54,82.89-80.15,85-31.72,1.54-61.6-13.77-76.2-44.4a75.69,75.69,0,0,1-6.87-22.11c-6.92-46.61,24.46-86.37,53.24-96.21-15.53-13.53-54.42-12.61-83.37,8.64-20.85,15.3-34.37,38.58-38.85,66.35-3.42,21.18-.2,43.2,8.19,62.86a123.53,123.53,0,0,0,105.31,74.86c3.47.26,7,.39,10.44.39C348.67,365,388.86,294.87,380.19,216.81Z"/><path class="cls-14" d="M284.16,314.63c59.86-3.64,85.47-53.07,87.07-88.15,2.51-54.8-30.08-113.89-116.29-108.56-15.38-.39-31.37,1.06-46.14,5.38a101.08,101.08,0,0,0-26.92,12.47l-.2.13-.22.16q-2,1.4-3.93,2.94c2.4-1.64,32.13-19.16,73.43-13.75,49.49,6.48,94.74,44.9,94.74,95.58,0,39-30.21,68.77-65.58,66.65-52.55-3.16-65.79-56.92-38.46-80.15-7.37-1.59-21.23,1.52-30.87,15.9-8.66,12.91-8.17,32.86-2.83,47C222.56,300.86,252.46,316.55,284.16,314.63Z"/><path class="cls-15" d="M363.8,167.49a139.38,139.38,0,0,0-12.18-13.91,111.75,111.75,0,0,0-11.12-10.22,88.75,88.75,0,0,1,6.47,6.25,78.55,78.55,0,0,1,17.09,28.44c7.31,22.1,6.83,49.76-7.13,71.48-16.63,25.88-43.72,38.66-73,38-1.27,0-2.54,0-3.82-.09-52.55-3.16-65.79-56.92-38.46-80.15-7.37-1.59-21.23,1.52-30.87,15.9-8.66,12.91-8.17,32.86-2.83,47a75.69,75.69,0,0,1-6.87-22.11c-6.92-46.61,24.46-86.37,53.24-96.21-15.53-13.53-54.42-12.61-83.37,8.64-16.87,12.38-28.94,30-35.31,51,.94-11.78,5.4-29.36,14.56-47.32-9.69,5-22,20.82-28.12,35.48-8.79,21.13-11.88,46.4-9.1,70.44.21,1.81.4,3.62.64,5.41a140.19,140.19,0,1,0,250.17-108Z"/><path class="cls-16" d="M364.05,178.05A78.39,78.39,0,0,0,347,149.61c-8.93-9.64-20.06-17-31.83-22.67a142.12,142.12,0,0,0-31.29-11.06,139.61,139.61,0,0,0-58-.34c-19.89,4.18-37.38,12.77-48.44,23.51,8.29-5,19.86-9.11,28.1-11.19,38.26-9.64,80.39.8,109.11,28.28a94.59,94.59,0,0,1,15.15,18.52c17.13,27.79,15.51,62.73,2.15,83.33-9.92,15.31-31.17,29.67-51,29.51,30.42,1.59,58.79-11.2,76-38C370.89,227.81,371.37,200.15,364.05,178.05Z"/><path class="cls-17" d="M364.05,178.05A78.39,78.39,0,0,0,347,149.61c-8.93-9.64-20.06-17-31.83-22.67a142.12,142.12,0,0,0-31.29-11.06,139.61,139.61,0,0,0-58-.34c-19.89,4.18-37.38,12.77-48.44,23.51,8.29-5,19.86-9.11,28.1-11.19,38.26-9.64,80.39.8,109.11,28.28a94.59,94.59,0,0,1,15.15,18.52c17.13,27.79,15.51,62.73,2.15,83.33-9.92,15.31-31.17,29.67-51,29.51,30.42,1.59,58.79-11.2,76-38C370.89,227.81,371.37,200.15,364.05,178.05Z"/></g></g></svg>