<svg id="Assets" xmlns="http://www.w3.org/2000/svg" viewBox="0 0 1060 504"><defs><style>.cls-1{fill:#20133a;}</style></defs><title>FF_Master_</title><path class="cls-1" d="M448.29,195.82h74.87v20.26H469.77v27.46h53.39v20.1H469.77v44.19H448.29ZM548.63,188c7.36,0,12.43,5.37,12.43,12.58s-4.91,12.58-12.59,12.58c-7.36,0-12.42-5.21-12.42-12.27C536.05,193.22,541.72,188,548.63,188ZM538,225h21.17v82.85H538Zm82.55,23a17.1,17.1,0,0,0-10.28-3.68c-8.6,0-13.51,5.52-13.51,17.64v45.88h-21V225h20.1v12c4.3-9.36,10.9-12.73,19.8-12.73a25.09,25.09,0,0,1,14.11,4.29Zm8.74,18.87c0-23.78,17.64-43.57,42.65-43.57s42.5,17.64,42.5,42.19v8.75H650c2.3,10.43,10.44,17.33,22.86,17.33,9.67,0,16.27-4.6,20.56-12.27l17.65,10.59c-8.75,12.88-21.18,19.63-38.82,19.63C645.44,309.51,629.33,291.56,629.33,266.86Zm21-9.36h43.57c-2.3-10.58-10.89-16.41-22.09-16.41C661.7,241.09,653.27,246.76,650.35,257.5ZM719.7,225h14.88v-4.15c0-22.55,9.51-31.91,30.38-31.91h7.37v18.26h-6c-9.82,0-12,3.37-12,13.65V225h18v19h-17.5v63.83H734.58V244H719.7Zm56.61,41.42c0-23.78,18.11-43.11,43.27-43.11a43.11,43.11,0,1,1,0,86.22C793.81,309.51,776.31,290.64,776.31,266.4Zm66,0c0-13.19-9.82-23.47-22.71-23.47-13,0-22.71,10.28-22.71,23.47s9.67,23.48,22.71,23.48C832.47,289.88,842.29,279.6,842.29,266.4Zm49.1-.92L861.47,225h24.85L904,250.45,922.07,225h24.4l-30.38,40.35L948,307.83H923.3l-19.79-27-19.18,27h-24.7Z"/><path class="cls-1" d="M387.88,215.12l0-.09c-.2-.76-.41-1.52-.63-2.27l-.09-.34-.63-2.11-.15-.46c-.21-.68-.42-1.35-.64-2-.06-.18-.12-.36-.17-.54-.22-.65-.44-1.3-.67-1.95-.06-.19-.13-.38-.2-.57-.22-.64-.45-1.28-.69-1.91-.06-.19-.14-.38-.21-.57l-.72-1.91c-.07-.16-.14-.32-.2-.49s-.15-.37-.22-.56l-.57-1.41-.09-.2q-1.35-3.27-2.87-6.45c-.06-.15-.13-.29-.2-.43-.24-.51-.49-1-.74-1.52l-.45-.9c-.22-.45-.46-.9-.69-1.35l-.54-1c-.22-.43-.45-.85-.67-1.27l-.6-1.1-.67-1.2-.66-1.14-.66-1.14c-.24-.39-.47-.78-.7-1.17l-.67-1.1-.75-1.2-.66-1-.8-1.24-.65-1-.88-1.29-.62-.9c-.33-.48-.67-1-1-1.43-.18-.24-.35-.49-.53-.74-.51-.71-1-1.42-1.57-2.13a139.22,139.22,0,0,0-13.23-15,111.05,111.05,0,0,0-10.57-9.57c-2.15-1.86-4.4-3.61-6.7-5.27a91.65,91.65,0,0,0-14.59-8.93c-1.22-.63-2.45-1.26-3.69-1.86a142.77,142.77,0,0,0-31.36-11.09c-1.45-.31-2.89-.6-4.35-.87a131.34,131.34,0,0,0-22-2.32l-3.11,0a137.5,137.5,0,0,0-28.65,2.89c-19.94,4.19-37.47,12.8-48.56,23.56l.05,0,0,0,.08-.06.07,0,0,0,.15-.1c8.29-5,19.73-9,27.91-11.06l1.36-.33c1.54-.37,3.12-.71,4.76-1h0l1.36-.26c36.25-6.6,74.91,4.22,101.83,30a94.68,94.68,0,0,1,15.19,18.56c17.17,27.86,15.54,62.87,2.15,83.52-9.94,15.35-31.24,29.74-51.12,29.58l1.21.06-.8,0-1.23-.05a64,64,0,0,1-25.46-6.6c-30.76-15.7-35.34-54.82-13.09-73.73h0c-7.39-1.59-21.27,1.52-30.94,15.94-8.67,12.93-8.18,32.92-2.83,47.1a75.73,75.73,0,0,1-6.89-22.16c-6.72-45.26,22.59-84.07,50.65-95.42l.59-.23.76-.29,1.36-.49h0c-6.32-5.51-16.51-8.63-28.32-9-16.3-.46-35.69,4.38-52.3,15.55q-1.49,1-2.94,2.07c-.6.44-1.19.89-1.78,1.34l-.55.43-1.2,1-.62.51c-.39.31-.76.63-1.14,1l-.59.5-1.32,1.17-.34.3L162,167.65l-.55.54-1,1-.64.65c-.31.31-.61.62-.91.94l-.64.68-.92,1c-.19.21-.39.42-.58.64-.45.51-.9,1-1.35,1.55l-.64.76-.75.9-.69.87-.66.83-.71.93-.59.79-.72,1-.41.57c-.5.72-1,1.44-1.49,2.17l-.42.62-.75,1.16c-.14.22-.28.43-.41.65-.25.4-.5.8-.74,1.2l-.36.59-.77,1.3a.75.75,0,0,1-.07.12c-.63,1.09-1.24,2.2-1.83,3.32l0,0c-.26.49-.51,1-.76,1.48l-.22.44q-.37.73-.72,1.47l-.2.41c-1.08,2.27-2.08,4.6-3,7a2.44,2.44,0,0,1-.1.24c-.21.56-.42,1.12-.62,1.68-.05.11-.09.22-.13.33-.2.57-.41,1.15-.61,1.73l0,.05c-.43,1.27-.85,2.55-1.25,3.85a111.47,111.47,0,0,1,4.63-22.8s0-.11,0-.16c.13-.43.27-.87.41-1.3,0-.11.06-.21.1-.32.12-.4.25-.79.38-1.19l.15-.44.37-1.11c.06-.18.12-.36.19-.54l.36-1,.22-.63.36-1c.08-.23.17-.46.26-.7s.23-.61.34-.92l.3-.77c.11-.3.22-.59.34-.88l.33-.84.33-.82.37-.9c.11-.26.22-.52.32-.78l.42-1c.1-.24.2-.48.31-.72s.3-.69.45-1l.3-.67c.16-.38.34-.75.51-1.13l.27-.58c.19-.43.4-.86.6-1.29l.2-.42.78-1.61.06-.12.88-1.76h0a40.72,40.72,0,0,0-9.61,7.51l-1,1a94.23,94.23,0,0,0-17.6,27c-6.78,16.32-10.17,35.1-10.1,53.89a150.35,150.35,0,0,0,1,16.72c0,.29.07.58.1.87.16,1.42.32,2.84.5,4.25,0,.1,0,.2,0,.3a140.53,140.53,0,1,0,274.25-60.15Z"/></svg>