<?xml version="1.0" encoding="utf-8"?>
<!-- Generator: Adobe Illustrator 17.0.0, SVG Export Plug-In . SVG Version: 6.00 Build 0)  -->
<!DOCTYPE svg PUBLIC "-//W3C//DTD SVG 1.1//EN" "http://www.w3.org/Graphics/SVG/1.1/DTD/svg11.dtd">
<svg version="1.1"
	 id="svg2989" xmlns:svg="http://www.w3.org/2000/svg" xmlns:inkscape="http://www.inkscape.org/namespaces/inkscape" xmlns:sodipodi="http://sodipodi.sourceforge.net/DTD/sodipodi-0.dtd" xmlns:cc="http://creativecommons.org/ns#" xmlns:dc="http://purl.org/dc/elements/1.1/" xmlns:rdf="http://www.w3.org/1999/02/22-rdf-syntax-ns#" sodipodi:docname="cloud_font_awesome.svg" inkscape:version="0.48.3.1 r9886"
	 xmlns="http://www.w3.org/2000/svg" xmlns:xlink="http://www.w3.org/1999/xlink" x="0px" y="0px" width="167.67px"
	 height="122.958px" viewBox="0 0 167.67 122.958" enable-background="new 0 0 167.67 122.958" xml:space="preserve">
<sodipodi:namedview  id="namedview2995" pagecolor="#ffffff" inkscape:cx="960" inkscape:zoom="0.13169643" showgrid="false" borderopacity="1" inkscape:cy="896" bordercolor="#666666" inkscape:pageshadow="2" inkscape:window-maximized="0" inkscape:window-x="0" inkscape:window-width="640" inkscape:window-height="480" inkscape:pageopacity="0" inkscape:window-y="25" inkscape:current-layer="svg2989" guidetolerance="10" gridtolerance="10" objecttolerance="10">
	</sodipodi:namedview>
<g>
	<path fill="#0089D2" d="M70.848,28.175c0.937-2.422,3.318-3.961,5.916-3.829c2.593,0.139,4.803,1.929,5.476,4.437l15.412,57.436
		l9.708-33.162c0.712-2.429,2.87-4.151,5.396-4.304c2.524-0.16,4.876,1.296,5.876,3.622l5.425,12.637h38.809
		c-0.427-0.764-0.876-1.52-1.36-2.266c-4.134-6.375-9.577-11.134-16.33-14.278c0.116-1.63,0.175-2.882,0.175-3.755
		c0-12.342-4.366-22.88-13.099-31.613S112.981,0,100.639,0c-9.199,0-17.538,2.562-25.02,7.685
		c-7.481,5.123-12.939,11.818-16.374,20.086c-4.075-3.61-8.907-5.414-14.496-5.414c-6.171,0-11.44,2.183-15.806,6.55
		s-6.55,9.635-6.55,15.806c0,4.366,1.194,8.383,3.581,12.051c-5.946,1.383-11.056,4.147-15.36,8.248h46L70.848,28.175z"/>
	<path fill="#0089D2" d="M114.591,73.379l-0.401-0.937l-11.029,37.675c-0.75,2.56-3.097,4.314-5.758,4.314c-0.023,0-0.046,0-0.068,0
		c-2.69-0.03-5.03-1.847-5.728-4.444L75.416,49.649l-9.091,23.525c-0.894,2.313-3.117,3.837-5.597,3.837H2.355
		c-1.545,3.857-2.318,7.995-2.318,12.413c0,9.257,3.275,17.16,9.824,23.71s14.453,9.824,23.71,9.824h95.013
		c10.771,0,19.984-3.828,27.639-11.484s11.484-16.869,11.484-27.639c0-2.338-0.215-4.607-0.597-6.824h-47.005
		C117.706,77.012,115.537,75.583,114.591,73.379z"/>
</g>
</svg>
