<?xml version="1.0" encoding="utf-8"?>
<!-- Generator: Adobe Illustrator 21.0.2, SVG Export Plug-In . SVG Version: 6.00 Build 0)  -->
<svg version="1.1" id="Glyph" xmlns="http://www.w3.org/2000/svg" xmlns:xlink="http://www.w3.org/1999/xlink" x="0px" y="0px"
	 viewBox="0 0 500 500" style="enable-background:new 0 0 500 500;" xml:space="preserve">
<g>
	<g>
		<path d="M429.1,119.2l-45.3-25.9L280.6,34.1c0,0,0,0,0,0l-3.2-1.9c-16.9-9.7-37.8-9.7-54.7,0l-3.3,1.9c0,0,0,0,0,0L74.2,117.3l0,0
			l-3.3,1.9c-16.9,9.7-27.3,27.6-27.3,47v3.7v166.4v3.7c0,19.3,10.5,37.3,27.3,47l148.5,85c3.6,2.1,7.5,3,11.4,3
			c7.9,0,15.5-4.1,19.8-11.3c6.3-10.8,2.6-24.6-8.3-30.9L96.9,349.7c-4.8-2.8-7.8-7.9-7.8-13.4V169.9c0-5.5,3-10.7,7.8-13.4
			l25.7-14.7l119.6-68.5c4.8-2.7,10.8-2.7,15.6,0l145.3,83.2c4.8,2.8,7.8,7.9,7.8,13.4v166.4c0,5.5-3,10.7-7.8,13.4l-49.1,28.1
			l-24.8-37.4c24.1-21.5,39.3-52.7,39.3-87.4c0-64.8-53.1-117.5-118.5-117.5S131.5,188.2,131.5,253S184.7,370.5,250,370.5
			c14,0,27.5-2.4,40-6.9l37.7,56.8c0.6,0.9,1.2,1.7,1.9,2.5c0.1,0.1,0.3,0.3,0.4,0.4c0.8,0.9,1.7,1.6,2.6,2.4
			c0.2,0.2,0.4,0.4,0.7,0.5c1,0.7,2.1,1.4,3.2,2c0.3,0.1,0.5,0.2,0.8,0.3c1,0.5,2,0.8,3.1,1.1c0.2,0.1,0.5,0.2,0.7,0.2
			c1.2,0.3,2.4,0.5,3.6,0.6c0.3,0,0.7,0,1,0.1c0.3,0,0.7,0.1,1,0.1c0.7,0,1.4-0.1,2.1-0.1c0.3,0,0.6,0,0.9-0.1
			c1.3-0.2,2.6-0.5,3.8-0.9c0.3-0.1,0.7-0.2,1-0.4c1-0.4,1.9-0.8,2.9-1.3c0.2-0.1,0.4-0.2,0.6-0.3l71-40.7
			c16.9-9.7,27.3-27.7,27.3-47v-3.7V169.9v-3.7C456.4,146.8,446,128.8,429.1,119.2z M177.1,253c0-39.9,32.7-72.3,72.9-72.3
			s72.9,32.4,72.9,72.3s-32.7,72.3-72.9,72.3S177.1,292.9,177.1,253z"/>
	</g>
</g>
</svg>
