<?xml version="1.0" encoding="utf-8"?>
<!-- Generator: Adobe Illustrator 17.1.0, SVG Export Plug-In . SVG Version: 6.00 Build 0)  -->
<!DOCTYPE svg PUBLIC "-//W3C//DTD SVG 1.1//EN" "http://www.w3.org/Graphics/SVG/1.1/DTD/svg11.dtd">
<svg version="1.1" xmlns="http://www.w3.org/2000/svg" xmlns:xlink="http://www.w3.org/1999/xlink" x="0px" y="0px"
	 viewBox="0 0 958.1 958.1" enable-background="new 0 0 958.1 958.1" xml:space="preserve">
<g id="Layer_1">
	<g>
		<path fill="#3FBDE9" d="M882.7,649.6c22.8-54,34.4-111.3,34.4-170.5s-11.6-116.5-34.4-170.5c-22.1-52.2-53.7-99-93.9-139.3
			c-40.2-40.2-87.1-71.8-139.3-93.9C595.6,52.6,538.2,41,479.1,41S362.5,52.6,308.6,75.4c-52.2,22.1-99,53.7-139.3,93.9
			c-40.2,40.2-71.8,87.1-93.9,139.3C52.6,362.5,41,419.9,41,479.1s11.6,116.5,34.4,170.5c22.1,52.2,53.7,99,93.9,139.3
			c40.2,40.2,87.1,71.8,139.3,93.9c54,22.8,111.3,34.4,170.5,34.4s116.5-11.6,170.5-34.4c52.2-22.1,99-53.7,139.3-93.9
			C829.1,748.6,860.7,701.7,882.7,649.6z"/>
		<path fill="#F2F2F2" d="M479.1,0C214.5,0,0,214.5,0,479.1s214.5,479.1,479.1,479.1s479.1-214.5,479.1-479.1S743.7,0,479.1,0z
			 M479.1,917.1c-59.2,0-116.5-11.6-170.5-34.4c-52.2-22.1-99-53.7-139.3-93.9c-40.2-40.2-71.8-87.1-93.9-139.3
			C52.6,595.6,41,538.2,41,479.1s11.6-116.5,34.4-170.5c22.1-52.2,53.7-99,93.9-139.3c40.2-40.2,87.1-71.8,139.3-93.9
			C362.5,52.6,419.9,41,479.1,41s116.5,11.6,170.5,34.4c52.2,22.1,99,53.7,139.3,93.9c40.2,40.2,71.8,87.1,93.9,139.3
			c22.8,54,34.4,111.3,34.4,170.5s-11.6,116.5-34.4,170.5c-22.1,52.2-53.7,99-93.9,139.3c-40.2,40.2-87.1,71.8-139.3,93.9
			C595.6,905.6,538.2,917.1,479.1,917.1z"/>
	</g>
	<g>
		<g>
			<path fill="#009348" d="M279.9,454.2c0-0.5,0-1.1,0-1.6c0-36.3-29.4-65.8-65.8-65.8c-36.3,0-65.8,29.4-65.8,65.8
				c0,0.5,0,1.1,0,1.6H279.9z"/>
		</g>
		<g>
			<path fill="#F7EC33" d="M458,461.4c0-0.5,0-1.1,0-1.6c0-36.3-29.4-65.8-65.8-65.8c-36.3,0-65.8,29.4-65.8,65.8c0,0.5,0,1.1,0,1.6
				H458z"/>
		</g>
		<g>
			<path fill="#F7EC33" d="M772.9,460.4c0-0.5,0-1.1,0-1.6c0-36.3-29.4-65.8-65.8-65.8c-36.3,0-65.8,29.4-65.8,65.8
				c0,0.5,0,1.1,0,1.6H772.9z"/>
		</g>
		<g>
			<path fill="#3BB44A" d="M395.5,462.4c0-0.5,0-1.1,0-1.6c0-36.3-29.4-65.8-65.8-65.8c-36.3,0-65.8,29.4-65.8,65.8
				c0,0.5,0,1.1,0,1.6H395.5z"/>
		</g>
		<g>
			<path fill="#3BB44A" d="M251,471c0-0.5,0-1.1,0-1.6c0-36.3-29.4-65.8-65.8-65.8c-36.3,0-65.8,29.4-65.8,65.8c0,0.5,0,1.1,0,1.6
				H251z"/>
		</g>
		<g>
			<path fill="#2BB573" d="M845.9,471c0-0.5,0-1.1,0-1.6c0-36.3-29.4-65.8-65.8-65.8c-36.3,0-65.8,29.4-65.8,65.8c0,0.5,0,1.1,0,1.6
				H845.9z"/>
		</g>
		<g>
			<path fill="#3BB44A" d="M511,476.3c0-0.5,0-1.1,0-1.6c0-36.3-29.4-65.8-65.8-65.8c-36.3,0-65.8,29.4-65.8,65.8c0,0.5,0,1.1,0,1.6
				H511z"/>
		</g>
		<g>
			<path fill="#D6DF27" d="M441.4,471c0-0.5,0-1.1,0-1.6c0-36.3-29.4-65.8-65.8-65.8c-36.3,0-65.8,29.4-65.8,65.8c0,0.5,0,1.1,0,1.6
				H441.4z"/>
		</g>
		<g>
			<path fill="#D6DF27" d="M681,459.7c0-0.5,0-1.1,0-1.6c0-36.3-29.4-65.8-65.8-65.8c-36.3,0-65.8,29.4-65.8,65.8c0,0.5,0,1.1,0,1.6
				H681z"/>
		</g>
		<g>
			<path fill="#8CC540" d="M329.1,471.7c0-0.5,0-1.1,0-1.6c0-36.3-29.4-65.8-65.8-65.8s-65.8,29.4-65.8,65.8c0,0.5,0,1.1,0,1.6
				H329.1z"/>
		</g>
		<g>
			<path fill="#8CC540" d="M630.1,466.9c0-0.5,0-1.1,0-1.6c0-36.3-29.4-65.8-65.8-65.8c-36.3,0-65.8,29.4-65.8,65.8
				c0,0.5,0,1.1,0,1.6H630.1z"/>
		</g>
		<g>
			<path fill="#8CC540" d="M746.8,471c0-0.5,0-1.1,0-1.6c0-36.3-29.4-65.8-65.8-65.8c-36.3,0-65.8,29.4-65.8,65.8c0,0.5,0,1.1,0,1.6
				H746.8z"/>
		</g>
		<g>
			<path fill="#EB2027" stroke="#221F1F" stroke-width="8" stroke-miterlimit="10" d="M426.2,399.5"/>
		</g>
		<g>
			<path fill="#EB2027" d="M445.8,415.9c-3.3-2.1-6.4-4.4-9.4-6.8"/>
			<path fill="#221F1F" d="M445.7,419.9c-0.7,0-1.5-0.2-2.1-0.6c-3.4-2.2-6.7-4.5-9.8-7.1c-1.7-1.4-2-3.9-0.6-5.6
				c1.4-1.7,3.9-2,5.6-0.6c2.9,2.3,5.9,4.5,9,6.5c1.9,1.2,2.4,3.7,1.2,5.5C448.4,419.2,447.1,419.9,445.7,419.9z"/>
		</g>
		<g>
			<path fill="#EB2027" stroke="#221F1F" stroke-width="8" stroke-linecap="round" stroke-miterlimit="10" d="M445.8,415.9"/>
		</g>
		<g>
			<path fill="#EB2027" d="M401.8,326.6c4.9-48.1,45.5-85.7,95-85.7c52.7,0,95.5,42.7,95.5,95.5c0,52.7-42.7,95.5-95.5,95.5
				c-13.2,0-25.7-2.7-37.2-7.5"/>
			<path fill="#221F1F" d="M496.8,435.9c-13.4,0-26.5-2.6-38.7-7.8c-2-0.9-3-3.2-2.1-5.2c0.9-2,3.2-3,5.2-2.1
				c11.3,4.8,23.3,7.2,35.6,7.2c50.4,0,91.5-41,91.5-91.5c0-50.4-41-91.5-91.5-91.5c-47.1,0-86.2,35.3-91,82.1
				c-0.2,2.2-2.2,3.8-4.4,3.6c-2.2-0.2-3.8-2.2-3.6-4.4c2.5-24.4,13.9-46.9,32.1-63.5c18.3-16.7,42.1-25.8,66.9-25.8
				c54.8,0,99.5,44.6,99.5,99.5C596.2,391.2,551.6,435.9,496.8,435.9z"/>
		</g>
		<g>
			<path fill="#EB2027" stroke="#221F1F" stroke-width="8" stroke-linecap="round" stroke-miterlimit="10" d="M401.8,326.6"/>
		</g>
		<g>
			<path fill="#EB2027" d="M426.2,400.7c-15.5-17-24.9-39.5-24.9-64.3"/>
			<path fill="#221F1F" d="M426.2,404.7c-1.1,0-2.2-0.4-3-1.3c-16.7-18.4-26-42.2-26-67c0-2.2,1.8-4,4-4s4,1.8,4,4
				c0,22.9,8.5,44.8,23.9,61.6c1.5,1.6,1.4,4.2-0.3,5.7C428.1,404.4,427.2,404.7,426.2,404.7z"/>
		</g>
		<g>
			<path fill="#F05964" d="M496.2,243.8v185.1c-51.1,0-92.5-41.4-92.5-92.5C403.6,285.2,445,243.8,496.2,243.8z"/>
		</g>
		<g>
			<path fill="#FFFFFF" d="M436.8,301.2c-2.2,0-4-1.8-4-4c0-20.5,20.3-37,37-37c2.2,0,4,1.8,4,4s-1.8,4-4,4c-13.1,0-29,13.4-29,29
				C440.8,299.4,439,301.2,436.8,301.2z"/>
		</g>
		<g>
			<rect x="241.8" y="311.7" fill="#221F1F" width="3" height="151.1"/>
		</g>
		<g>
			<rect x="249.4" y="313.9" fill="#221F1F" width="3" height="151.1"/>
		</g>
		<g>
			<rect x="256.8" y="313.9" fill="#221F1F" width="3" height="151.1"/>
		</g>
		<g>
			<rect x="265.5" y="313.9" fill="#221F1F" width="3" height="151.1"/>
		</g>
		<g>
			<rect x="328.3" y="264.6" fill="#221F1F" width="3" height="196.7"/>
		</g>
		<g>
			<rect x="335.9" y="267.4" fill="#221F1F" width="3" height="196.7"/>
		</g>
		<g>
			<rect x="343.4" y="267.4" fill="#221F1F" width="3" height="196.7"/>
		</g>
		<g>
			<rect x="352.1" y="267.4" fill="#221F1F" width="3" height="196.7"/>
		</g>
		<g>
			<rect x="452.5" y="264.6" fill="#221F1F" width="3" height="196.7"/>
		</g>
		<g>
			<rect x="460.1" y="267.4" fill="#221F1F" width="3" height="196.7"/>
		</g>
		<g>
			<rect x="467.6" y="267.4" fill="#221F1F" width="3" height="196.7"/>
		</g>
		<g>
			<rect x="476.3" y="267.4" fill="#221F1F" width="3" height="196.7"/>
		</g>
		<g>
			<rect x="521.5" y="264.6" fill="#221F1F" width="3" height="196.7"/>
		</g>
		<g>
			<rect x="529.1" y="267.4" fill="#221F1F" width="3" height="196.7"/>
		</g>
		<g>
			<rect x="536.6" y="267.4" fill="#221F1F" width="3" height="196.7"/>
		</g>
		<g>
			<rect x="545.3" y="267.4" fill="#221F1F" width="3" height="196.7"/>
		</g>
		<g>
			
				<rect x="406.5" y="215.2" transform="matrix(0.4321 0.9018 -0.9018 0.4321 447.0302 -276.514)" fill="#221F1F" width="73" height="3"/>
		</g>
		<g>
			
				<rect x="413.8" y="212.8" transform="matrix(0.4321 0.9018 -0.9018 0.4321 449.0602 -284.4153)" fill="#221F1F" width="73" height="3"/>
		</g>
		<g>
			
				<rect x="420.6" y="209.6" transform="matrix(0.432 0.9019 -0.9019 0.432 449.9856 -292.3295)" fill="#221F1F" width="73" height="3"/>
		</g>
		<g>
			
				<rect x="427.1" y="207.9" transform="matrix(0.4321 0.9018 -0.9018 0.4321 453.4783 -301.2784)" fill="#221F1F" width="77.6" height="3"/>
		</g>
		<g>
			
				<rect x="442.8" y="208.7" transform="matrix(0.1614 0.9869 -0.9869 0.1614 609.4343 -296.7442)" fill="#221F1F" width="73" height="3"/>
		</g>
		<g>
			
				<rect x="518.3" y="176.4" transform="matrix(0.9869 0.1614 -0.1614 0.9869 41.19 -81.1269)" fill="#221F1F" width="3" height="73"/>
		</g>
		<g>
			
				<rect x="558.8" y="178.2" transform="matrix(0.868 0.4965 -0.4965 0.868 182.4141 -249.3967)" fill="#221F1F" width="3" height="80.5"/>
		</g>
		<g>
			
				<rect x="550.7" y="176.2" transform="matrix(0.868 0.4965 -0.4965 0.868 180.3792 -245.625)" fill="#221F1F" width="3" height="80.5"/>
		</g>
		<g>
			
				<rect x="543.3" y="173.3" transform="matrix(0.868 0.4965 -0.4965 0.868 177.9592 -242.3158)" fill="#221F1F" width="3" height="80.5"/>
		</g>
		<g>
			
				<rect x="534.6" y="170" transform="matrix(0.868 0.4965 -0.4965 0.868 175.1368 -238.4567)" fill="#221F1F" width="3" height="80.5"/>
		</g>
		<g>
			<path fill="#929497" d="M223.1,302.5v170.6h68V302.5H223.1z M275.9,461.5h-38.3V314.8h38.3V461.5z"/>
		</g>
		<g>
			<path fill="#929497" d="M307.7,256.9v216.2h68V256.9H307.7z M360.5,458.4h-38.3V272.5h38.3V458.4z"/>
		</g>
		<g>
			<path fill="#A7A8AB" d="M433.3,256.1v215.9h67.9V256.1H433.3z M486,457.3h-38.3V271.6H486V457.3z"/>
		</g>
		<g>
			<path fill="#A7A8AB" d="M501,256.4v215.9h67.9V256.4H501z M553.7,457.7h-38.3V272h38.3V457.7z"/>
		</g>
		<g>
			<path fill="#A7A8AB" d="M387.7,169.3l45.6,87.2h67.9v-87.2H387.7z M492.7,242.9h-46.7l-31.4-59.9h78V242.9z"/>
		</g>
		<g>
			<path fill="#A7A8AB" d="M501,169.3v87.2h67.9l45.6-87.2H501z M509.4,182.9h78l-31.4,59.9h-46.7V182.9z"/>
		</g>
		<g opacity="0.8">
			<rect x="223.1" y="302.5" fill="#BCBDBF" width="7.9" height="170.6"/>
		</g>
		<g opacity="0.4">
			<rect x="283.2" y="302.5" fill="#BCBDBF" width="7.9" height="170.6"/>
		</g>
		<g opacity="0.4">
			<rect x="367.8" y="256.9" fill="#BCBDBF" width="7.9" height="216.2"/>
		</g>
		<g opacity="0.8">
			<rect x="307.7" y="256.9" fill="#BCBDBF" width="7.9" height="216.2"/>
		</g>
		<g opacity="0.8">
			<rect x="435.8" y="257.2" fill="#BCBDBF" width="6.2" height="215.5"/>
		</g>
		<g opacity="0.8">
			<rect x="561.3" y="257.6" fill="#BCBDBF" width="6.2" height="215.5"/>
		</g>
		<g opacity="0.8">
			<polygon fill="#BCBDBF" points="395.6,168.6 442,256.5 437.6,263.8 388.9,168.1 			"/>
		</g>
		<g opacity="0.8">
			<polygon fill="#BCBDBF" points="606.4,169.9 560.1,257.7 564.5,265.1 613.2,169.3 			"/>
		</g>
		<g opacity="0.8">
			<rect x="494.9" y="181.5" fill="#BCBDBF" width="6.2" height="215.5"/>
		</g>
		<g opacity="0.8">
			<rect x="486.5" y="244.2" fill="#BCBDBF" width="14.5" height="228.1"/>
		</g>
		<g opacity="0.3">
			<rect x="223.1" y="302.6" fill="#6D6E71" width="68" height="5.7"/>
		</g>
		<g opacity="0.3">
			<rect x="307.7" y="257.4" fill="#6D6E71" width="68" height="7.3"/>
		</g>
		<g opacity="0.3">
			<rect x="390.6" y="171" fill="#6D6E71" width="220.8" height="5.2"/>
		</g>
		<g>
			<path fill="#221F1F" d="M223.1,344c-2.2,0-4-1.8-4-4v-37.4c0-2.2,1.8-4,4-4s4,1.8,4,4V340C227.1,342.2,225.3,344,223.1,344z"/>
		</g>
		<g>
			<path fill="#221F1F" d="M223.1,360.6c-2.2,0-4-1.8-4-4v-9.3c0-2.2,1.8-4,4-4s4,1.8,4,4v9.3C227.1,358.8,225.3,360.6,223.1,360.6z
				"/>
		</g>
		<g>
			<path fill="#FFFFFF" d="M231,329.1c-1.4,0-2.5-1.1-2.5-2.5v-11.8c0-1.4,1.1-2.5,2.5-2.5s2.5,1.1,2.5,2.5v11.8
				C233.5,328,232.4,329.1,231,329.1z"/>
		</g>
		<g opacity="0.7">
			<path fill="#FFFFFF" d="M493.7,305.1c-1.4,0-2.5-1.1-2.5-2.5v-35.2c0-1.4,1.1-2.5,2.5-2.5s2.5,1.1,2.5,2.5v35.2
				C496.2,304,495.1,305.1,493.7,305.1z"/>
		</g>
		<g>
			<path fill="#FFFFFF" d="M493.7,329.2c-1.4,0-2.5-1.1-2.5-2.5V316c0-1.4,1.1-2.5,2.5-2.5s2.5,1.1,2.5,2.5v10.8
				C496.2,328.1,495.1,329.2,493.7,329.2z"/>
		</g>
		<g>
			<path fill="#FFFFFF" d="M231,344.8c-1.4,0-2.5-1.1-2.5-2.5v-5.9c0-1.4,1.1-2.5,2.5-2.5s2.5,1.1,2.5,2.5v5.9
				C233.5,343.7,232.4,344.8,231,344.8z"/>
		</g>
		<g>
			<path fill="#FFFFFF" d="M231,394.9c-1.4,0-2.5-1.1-2.5-2.5v-5.9c0-1.4,1.1-2.5,2.5-2.5s2.5,1.1,2.5,2.5v5.9
				C233.5,393.8,232.4,394.9,231,394.9z"/>
		</g>
		<g>
			<path fill="#221F1F" d="M223.1,373.2c-2.2,0-4-1.8-4-4V365c0-2.2,1.8-4,4-4s4,1.8,4,4v4.2C227.1,371.4,225.3,373.2,223.1,373.2z"
				/>
		</g>
		<g>
			<path fill="#221F1F" d="M223.1,469.9c-2.2,0-4-1.8-4-4v-90.3c0-2.2,1.8-4,4-4s4,1.8,4,4v90.3
				C227.1,468.2,225.3,469.9,223.1,469.9z"/>
		</g>
		<g>
			<path fill="#221F1F" d="M263.4,306.5h-40.3c-2.2,0-4-1.8-4-4s1.8-4,4-4h40.3c2.2,0,4,1.8,4,4S265.6,306.5,263.4,306.5z"/>
		</g>
		<g>
			<path fill="#221F1F" d="M291.1,306.6h-22.4c-2.2,0-4-1.8-4-4s1.8-4,4-4h22.4c2.2,0,4,1.8,4,4S293.3,306.6,291.1,306.6z"/>
		</g>
		<g>
			<path fill="#221F1F" d="M291.1,346.9c-2.2,0-4-1.8-4-4v-40.2c0-2.2,1.8-4,4-4s4,1.8,4,4v40.2
				C295.1,345.1,293.3,346.9,291.1,346.9z"/>
		</g>
		<g>
			<path fill="#221F1F" d="M291.1,406.4c-2.2,0-4-1.8-4-4v-59.5c0-2.2,1.8-4,4-4s4,1.8,4,4v59.5
				C295.1,404.6,293.3,406.4,291.1,406.4z"/>
		</g>
		<g>
			<path fill="#221F1F" d="M291.1,416.1c-2.2,0-4-1.8-4-4v-3.2c0-2.2,1.8-4,4-4s4,1.8,4,4v3.2C295.1,414.3,293.3,416.1,291.1,416.1z
				"/>
		</g>
		<g>
			<path fill="#221F1F" d="M291.1,432.7c-2.2,0-4-1.8-4-4V419c0-2.2,1.8-4,4-4s4,1.8,4,4v9.7C295.1,430.9,293.3,432.7,291.1,432.7z"
				/>
		</g>
		<g>
			<path fill="#221F1F" d="M291.1,477.1c-2.2,0-4-1.8-4-4V438c0-2.2,1.8-4,4-4s4,1.8,4,4v35.1C295.1,475.3,293.3,477.1,291.1,477.1z
				"/>
		</g>
		<g>
			<path fill="#221F1F" d="M307.7,379.7c-2.2,0-4-1.8-4-4V257.4c0-2.2,1.8-4,4-4s4,1.8,4,4v118.3
				C311.7,377.9,309.9,379.7,307.7,379.7z"/>
		</g>
		<g>
			<path fill="#221F1F" d="M307.7,393.4c-2.2,0-4-1.8-4-4v-5.3c0-2.2,1.8-4,4-4s4,1.8,4,4v5.3C311.7,391.6,309.9,393.4,307.7,393.4z
				"/>
		</g>
		<g>
			<path fill="#221F1F" d="M307.7,421.4c-2.2,0-4-1.8-4-4v-15c0-2.2,1.8-4,4-4s4,1.8,4,4v15C311.7,419.6,309.9,421.4,307.7,421.4z"
				/>
		</g>
		<g>
			<path fill="#221F1F" d="M307.7,432.7c-2.2,0-4-1.8-4-4v-2c0-2.2,1.8-4,4-4s4,1.8,4,4v2C311.7,430.9,309.9,432.7,307.7,432.7z"/>
		</g>
		<g>
			<path fill="#221F1F" d="M307.7,447.3c-2.2,0-4-1.8-4-4V438c0-2.2,1.8-4,4-4s4,1.8,4,4v5.3C311.7,445.5,309.9,447.3,307.7,447.3z"
				/>
		</g>
		<g>
			<path fill="#221F1F" d="M307.7,477.1c-2.2,0-4-1.8-4-4v-20.5c0-2.2,1.8-4,4-4s4,1.8,4,4v20.5
				C311.7,475.3,309.9,477.1,307.7,477.1z"/>
		</g>
		<g>
			<path fill="#221F1F" d="M375.7,301.1c-2.2,0-4-1.8-4-4v-39.7c0-2.2,1.8-4,4-4s4,1.8,4,4v39.7
				C379.7,299.3,377.9,301.1,375.7,301.1z"/>
		</g>
		<g>
			<path fill="#221F1F" d="M375.7,314.5c-2.2,0-4-1.8-4-4v-7.8c0-2.2,1.8-4,4-4s4,1.8,4,4v7.8C379.7,312.7,377.9,314.5,375.7,314.5z
				"/>
		</g>
		<g>
			<path fill="#221F1F" d="M375.7,329.7c-2.2,0-4-1.8-4-4v-6.2c0-2.2,1.8-4,4-4s4,1.8,4,4v6.2C379.7,327.9,377.9,329.7,375.7,329.7z
				"/>
		</g>
		<g>
			<path fill="#221F1F" d="M375.7,364c-2.2,0-4-1.8-4-4v-25.3c0-2.2,1.8-4,4-4s4,1.8,4,4V360C379.7,362.2,377.9,364,375.7,364z"/>
		</g>
		<g>
			<path fill="#221F1F" d="M375.7,477.1c-2.2,0-4-1.8-4-4V369.2c0-2.2,1.8-4,4-4s4,1.8,4,4v103.9
				C379.7,475.3,377.9,477.1,375.7,477.1z"/>
		</g>
		<g>
			<path fill="#221F1F" d="M318.9,260.9h-11.1c-2.2,0-4-1.8-4-4c0-2.2,1.8-4,4-4h11.1c2.2,0,4,1.8,4,4
				C322.9,259.1,321.1,260.9,318.9,260.9z"/>
		</g>
		<g>
			<path fill="#221F1F" d="M330.6,261.4h-5.7c-2.2,0-4-1.8-4-4c0-2.2,1.8-4,4-4h5.7c2.2,0,4,1.8,4,4
				C334.6,259.6,332.8,261.4,330.6,261.4z"/>
		</g>
		<g>
			<path fill="#221F1F" d="M375.7,261.4h-39.8c-2.2,0-4-1.8-4-4c0-2.2,1.8-4,4-4h39.8c2.2,0,4,1.8,4,4
				C379.7,259.6,377.9,261.4,375.7,261.4z"/>
		</g>
		<g>
			<rect x="749.5" y="311" fill="#221F1F" width="3" height="151.1"/>
		</g>
		<g>
			<rect x="742" y="313.2" fill="#221F1F" width="3" height="151.1"/>
		</g>
		<g>
			<rect x="734.5" y="313.2" fill="#221F1F" width="3" height="151.1"/>
		</g>
		<g>
			<rect x="725.8" y="313.2" fill="#221F1F" width="3" height="151.1"/>
		</g>
		<g>
			<rect x="663" y="263.9" fill="#221F1F" width="3" height="196.7"/>
		</g>
		<g>
			<rect x="655.4" y="266.7" fill="#221F1F" width="3" height="196.7"/>
		</g>
		<g>
			<rect x="647.9" y="266.7" fill="#221F1F" width="3" height="196.7"/>
		</g>
		<g>
			<rect x="639.2" y="266.7" fill="#221F1F" width="3" height="196.7"/>
		</g>
		<g>
			<path fill="#929497" d="M703.2,301.8v170.6h68V301.8H703.2z M718.4,314.1h38.3v146.8h-38.3V314.1z"/>
		</g>
		<g>
			<path fill="#929497" d="M618.6,256.3v216.2h68V256.3H618.6z M633.8,271.8h38.3v185.9h-38.3V271.8z"/>
		</g>
		<g opacity="0.8">
			<rect x="763.3" y="301.8" fill="#BCBDBF" width="7.9" height="170.6"/>
		</g>
		<g opacity="0.4">
			<rect x="703.2" y="301.8" fill="#BCBDBF" width="7.9" height="170.6"/>
		</g>
		<g opacity="0.4">
			<rect x="618.6" y="256.3" fill="#BCBDBF" width="7.9" height="216.2"/>
		</g>
		<g opacity="0.8">
			<rect x="678.7" y="256.3" fill="#BCBDBF" width="7.9" height="216.2"/>
		</g>
		<g opacity="0.3">
			<rect x="703.2" y="302" fill="#6D6E71" width="68" height="5.7"/>
		</g>
		<g opacity="0.3">
			<rect x="618.6" y="256.7" fill="#6D6E71" width="68" height="7.3"/>
		</g>
		<g>
			<path fill="#221F1F" d="M771.2,343.4c-2.2,0-4-1.8-4-4V302c0-2.2,1.8-4,4-4s4,1.8,4,4v37.4C775.2,341.6,773.4,343.4,771.2,343.4z
				"/>
		</g>
		<g>
			<path fill="#221F1F" d="M771.2,361.6c-2.2,0-4-1.8-4-4v-10.9c0-2.2,1.8-4,4-4s4,1.8,4,4v10.9
				C775.2,359.8,773.4,361.6,771.2,361.6z"/>
		</g>
		<g>
			<path fill="#221F1F" d="M771.2,372.5c-2.2,0-4-1.8-4-4v-4.2c0-2.2,1.8-4,4-4s4,1.8,4,4v4.2C775.2,370.7,773.4,372.5,771.2,372.5z
				"/>
		</g>
		<g>
			<path fill="#221F1F" d="M771.2,469.3c-2.2,0-4-1.8-4-4V375c0-2.2,1.8-4,4-4s4,1.8,4,4v90.3C775.2,467.5,773.4,469.3,771.2,469.3z
				"/>
		</g>
		<g>
			<path fill="#221F1F" d="M771.2,305.8h-40.3c-2.2,0-4-1.8-4-4s1.8-4,4-4h40.3c2.2,0,4,1.8,4,4S773.4,305.8,771.2,305.8z"/>
		</g>
		<g>
			<path fill="#221F1F" d="M725.6,306h-22.4c-2.2,0-4-1.8-4-4s1.8-4,4-4h22.4c2.2,0,4,1.8,4,4S727.9,306,725.6,306z"/>
		</g>
		<g>
			<path fill="#221F1F" d="M703.2,346.2c-2.2,0-4-1.8-4-4V302c0-2.2,1.8-4,4-4s4,1.8,4,4v40.2C707.2,344.4,705.4,346.2,703.2,346.2z
				"/>
		</g>
		<g>
			<path fill="#221F1F" d="M703.2,405.7c-2.2,0-4-1.8-4-4v-59.5c0-2.2,1.8-4,4-4s4,1.8,4,4v59.5
				C707.2,403.9,705.4,405.7,703.2,405.7z"/>
		</g>
		<g>
			<path fill="#221F1F" d="M703.2,415.4c-2.2,0-4-1.8-4-4v-3.2c0-2.2,1.8-4,4-4s4,1.8,4,4v3.2C707.2,413.6,705.4,415.4,703.2,415.4z
				"/>
		</g>
		<g>
			<path fill="#221F1F" d="M703.2,432c-2.2,0-4-1.8-4-4v-9.7c0-2.2,1.8-4,4-4s4,1.8,4,4v9.7C707.2,430.2,705.4,432,703.2,432z"/>
		</g>
		<g>
			<path fill="#221F1F" d="M703.2,476.4c-2.2,0-4-1.8-4-4v-35.1c0-2.2,1.8-4,4-4s4,1.8,4,4v35.1
				C707.2,474.6,705.4,476.4,703.2,476.4z"/>
		</g>
		<g>
			<path fill="#221F1F" d="M686.6,379c-2.2,0-4-1.8-4-4V256.7c0-2.2,1.8-4,4-4s4,1.8,4,4V375C690.6,377.2,688.8,379,686.6,379z"/>
		</g>
		<g>
			<path fill="#221F1F" d="M686.6,392.7c-2.2,0-4-1.8-4-4v-5.3c0-2.2,1.8-4,4-4s4,1.8,4,4v5.3C690.6,391,688.8,392.7,686.6,392.7z"
				/>
		</g>
		<g>
			<path fill="#221F1F" d="M686.6,420.7c-2.2,0-4-1.8-4-4v-18.6c0-2.2,1.8-4,4-4s4,1.8,4,4v18.6
				C690.6,418.9,688.8,420.7,686.6,420.7z"/>
		</g>
		<g>
			<path fill="#221F1F" d="M686.6,432c-2.2,0-4-1.8-4-4v-2c0-2.2,1.8-4,4-4s4,1.8,4,4v2C690.6,430.2,688.8,432,686.6,432z"/>
		</g>
		<g>
			<path fill="#221F1F" d="M686.6,446.6c-2.2,0-4-1.8-4-4v-5.3c0-2.2,1.8-4,4-4s4,1.8,4,4v5.3C690.6,444.8,688.8,446.6,686.6,446.6z
				"/>
		</g>
		<g>
			<path fill="#221F1F" d="M686.6,476.4c-2.2,0-4-1.8-4-4v-20.5c0-2.2,1.8-4,4-4s4,1.8,4,4v20.5
				C690.6,474.6,688.8,476.4,686.6,476.4z"/>
		</g>
		<g>
			<path fill="#221F1F" d="M618.6,300.4c-2.2,0-4-1.8-4-4v-39.7c0-2.2,1.8-4,4-4s4,1.8,4,4v39.7
				C622.6,298.7,620.8,300.4,618.6,300.4z"/>
		</g>
		<g>
			<path fill="#221F1F" d="M618.6,313.8c-2.2,0-4-1.8-4-4V302c0-2.2,1.8-4,4-4s4,1.8,4,4v7.8C622.6,312,620.8,313.8,618.6,313.8z"/>
		</g>
		<g>
			<path fill="#221F1F" d="M618.6,326.1c-2.2,0-4-1.8-4-4v-6.2c0-2.2,1.8-4,4-4s4,1.8,4,4v6.2C622.6,324.3,620.8,326.1,618.6,326.1z
				"/>
		</g>
		<g>
			<path fill="#221F1F" d="M618.6,365.6c-2.2,0-4-1.8-4-4v-29.1c0-2.2,1.8-4,4-4s4,1.8,4,4v29.1
				C622.6,363.8,620.8,365.6,618.6,365.6z"/>
		</g>
		<g>
			<path fill="#221F1F" d="M618.6,476.4c-2.2,0-4-1.8-4-4V368.5c0-2.2,1.8-4,4-4s4,1.8,4,4v103.9
				C622.6,474.6,620.8,476.4,618.6,476.4z"/>
		</g>
		<g>
			<path fill="#221F1F" d="M686.6,260.3h-11.1c-2.2,0-4-1.8-4-4c0-2.2,1.8-4,4-4h11.1c2.2,0,4,1.8,4,4
				C690.6,258.5,688.8,260.3,686.6,260.3z"/>
		</g>
		<g>
			<path fill="#221F1F" d="M669.4,260.7h-5.7c-2.2,0-4-1.8-4-4c0-2.2,1.8-4,4-4h5.7c2.2,0,4,1.8,4,4
				C673.4,258.9,671.6,260.7,669.4,260.7z"/>
		</g>
		<g>
			<path fill="#221F1F" d="M658.4,260.7h-39.8c-2.2,0-4-1.8-4-4c0-2.2,1.8-4,4-4h39.8c2.2,0,4,1.8,4,4
				C662.4,258.9,660.6,260.7,658.4,260.7z"/>
		</g>
		<g>
			<path fill="#221F1F" d="M413.8,173.3h-26.2c-2.2,0-4-1.8-4-4s1.8-4,4-4h26.2c2.2,0,4,1.8,4,4S416.1,173.3,413.8,173.3z"/>
		</g>
		<g>
			<path fill="#221F1F" d="M428.4,173.3h-7.5c-2.2,0-4-1.8-4-4s1.8-4,4-4h7.5c2.2,0,4,1.8,4,4S430.6,173.3,428.4,173.3z"/>
		</g>
		<g>
			<path fill="#221F1F" d="M456.5,173.3h-15.5c-2.2,0-4-1.8-4-4s1.8-4,4-4h15.5c2.2,0,4,1.8,4,4S458.7,173.3,456.5,173.3z"/>
		</g>
		<g>
			<path fill="#221F1F" d="M614.5,173.3H464.7c-2.2,0-4-1.8-4-4s1.8-4,4-4h149.8c2.2,0,4,1.8,4,4S616.7,173.3,614.5,173.3z"/>
		</g>
		<g>
			<path fill="#221F1F" d="M603.7,192.7c-0.6,0-1.3-0.1-1.9-0.5c-2-1-2.7-3.4-1.7-5.4l10.8-20.6c1-2,3.4-2.7,5.4-1.7
				c2,1,2.7,3.4,1.7,5.4l-10.8,20.6C606.5,191.9,605.1,192.7,603.7,192.7z"/>
		</g>
		<g>
			<path fill="#221F1F" d="M598.2,203.1c-0.6,0-1.3-0.1-1.9-0.5c-2-1-2.7-3.4-1.7-5.4l3.7-7c1-2,3.4-2.7,5.4-1.7
				c2,1,2.7,3.4,1.7,5.4l-3.7,7C601.1,202.3,599.7,203.1,598.2,203.1z"/>
		</g>
		<g>
			<path fill="#221F1F" d="M568.8,259.2c-0.6,0-1.3-0.1-1.9-0.5c-2-1-2.7-3.4-1.7-5.4l27-51.6c1-2,3.4-2.7,5.4-1.7s2.7,3.4,1.7,5.4
				l-27,51.6C571.7,258.4,570.3,259.2,568.8,259.2z"/>
		</g>
		<g>
			<path fill="#221F1F" d="M392.2,182c-1.4,0-2.8-0.8-3.5-2.1l-4.5-8.6c-1-2-0.3-4.4,1.7-5.4c2-1,4.4-0.3,5.4,1.7l4.5,8.6
				c1,2,0.3,4.4-1.7,5.4C393.5,181.8,392.8,182,392.2,182z"/>
		</g>
		<g>
			<path fill="#221F1F" d="M397.9,192.2c-1.4,0-2.8-0.8-3.5-2.1l-3.1-6c-1-2-0.3-4.4,1.7-5.4c2-1,4.4-0.3,5.4,1.7l3.1,6
				c1,2,0.3,4.4-1.7,5.4C399.1,192,398.5,192.2,397.9,192.2z"/>
		</g>
		<g>
			<path fill="#FFFFFF" d="M414.2,201.8c-0.9,0-1.8-0.5-2.2-1.3l-6.3-12c-0.6-1.2-0.2-2.7,1.1-3.4c1.2-0.6,2.7-0.2,3.4,1.1l6.3,12
				c0.6,1.2,0.2,2.7-1.1,3.4C415,201.7,414.6,201.8,414.2,201.8z"/>
		</g>
		<g>
			<path fill="#FFFFFF" d="M420.2,214.9c-0.9,0-1.8-0.5-2.2-1.3l-3.1-6c-0.6-1.2-0.2-2.7,1.1-3.4c1.2-0.6,2.7-0.2,3.4,1.1l3.1,6
				c0.6,1.2,0.2,2.7-1.1,3.4C421,214.8,420.6,214.9,420.2,214.9z"/>
		</g>
		<g>
			<path fill="#221F1F" d="M410,216c-1.4,0-2.8-0.8-3.5-2.1l-9.8-18.7c-1-2-0.3-4.4,1.7-5.4c2-1,4.4-0.3,5.4,1.7l9.8,18.7
				c1,2,0.3,4.4-1.7,5.4C411.3,215.9,410.7,216,410,216z"/>
		</g>
		<g>
			<path fill="#221F1F" d="M433.3,260.5c-1.4,0-2.8-0.8-3.5-2.1l-23.3-44.5c-1-2-0.3-4.4,1.7-5.4c2-1,4.4-0.3,5.4,1.7l23.3,44.5
				c1,2,0.3,4.4-1.7,5.4C434.6,260.3,433.9,260.5,433.3,260.5z"/>
		</g>
		<g>
			<path fill="#221F1F" d="M433.3,267.8c-2.2,0-4-1.8-4-4v-4c0-2.2,1.8-4,4-4s4,1.8,4,4v4C437.3,266,435.5,267.8,433.3,267.8z"/>
		</g>
		<g>
			<path fill="#221F1F" d="M433.3,332.4c-2.2,0-4-1.8-4-4v-61.2c0-2.2,1.8-4,4-4s4,1.8,4,4v61.2
				C437.3,330.6,435.5,332.4,433.3,332.4z"/>
		</g>
		<g>
			<path fill="#221F1F" d="M433.3,346.8c-2.2,0-4-1.8-4-4v-7.5c0-2.2,1.8-4,4-4s4,1.8,4,4v7.5C437.3,345.1,435.5,346.8,433.3,346.8z
				"/>
		</g>
		<g>
			<path fill="#221F1F" d="M433.3,356.8c-2.2,0-4-1.8-4-4V350c0-2.2,1.8-4,4-4s4,1.8,4,4v2.9C437.3,355.1,435.5,356.8,433.3,356.8z"
				/>
		</g>
		<g>
			<path fill="#221F1F" d="M433.3,449.3c-2.2,0-4-1.8-4-4V360c0-2.2,1.8-4,4-4s4,1.8,4,4v85.3C437.3,447.5,435.5,449.3,433.3,449.3z
				"/>
		</g>
		<g>
			<path fill="#221F1F" d="M433.3,475.1c-2.2,0-4-1.8-4-4v-18.4c0-2.2,1.8-4,4-4s4,1.8,4,4v18.4
				C437.3,473.3,435.5,475.1,433.3,475.1z"/>
		</g>
		<g>
			<path fill="#221F1F" d="M568.8,320.9c-2.2,0-4-1.8-4-4v-61.7c0-2.2,1.8-4,4-4s4,1.8,4,4v61.7
				C572.8,319.1,571.1,320.9,568.8,320.9z"/>
		</g>
		<g>
			<path fill="#221F1F" d="M568.8,328.6c-2.2,0-4-1.8-4-4v-2.9c0-2.2,1.8-4,4-4s4,1.8,4,4v2.9C572.8,326.8,571.1,328.6,568.8,328.6z
				"/>
		</g>
		<g>
			<path fill="#221F1F" d="M568.8,402.7c-2.2,0-4-1.8-4-4v-67.2c0-2.2,1.8-4,4-4s4,1.8,4,4v67.2
				C572.8,400.9,571.1,402.7,568.8,402.7z"/>
		</g>
		<g>
			<path fill="#221F1F" d="M568.8,415.9c-2.2,0-4-1.8-4-4v-6.6c0-2.2,1.8-4,4-4s4,1.8,4,4v6.6C572.8,414.1,571.1,415.9,568.8,415.9z
				"/>
		</g>
		<g>
			<path fill="#221F1F" d="M568.8,474.7c-2.2,0-4-1.8-4-4v-50.2c0-2.2,1.8-4,4-4s4,1.8,4,4v50.2
				C572.8,472.9,571.1,474.7,568.8,474.7z"/>
		</g>
		<g>
			<path fill="#221F1F" d="M462.4,186.9h-47.6c-2.2,0-4-1.8-4-4s1.8-4,4-4h47.6c2.2,0,4,1.8,4,4S464.6,186.9,462.4,186.9z"/>
		</g>
		<g>
			<path fill="#221F1F" d="M469.3,186.9h-2c-2.2,0-4-1.8-4-4s1.8-4,4-4h2c2.2,0,4,1.8,4,4S471.5,186.9,469.3,186.9z"/>
		</g>
		<g>
			<path fill="#221F1F" d="M475,186.9h-2.3c-2.2,0-4-1.8-4-4s1.8-4,4-4h2.3c2.2,0,4,1.8,4,4S477.2,186.9,475,186.9z"/>
		</g>
		<g>
			<path fill="#221F1F" d="M487.6,186.9h-8.3c-2.2,0-4-1.8-4-4s1.8-4,4-4h8.3c2.2,0,4,1.8,4,4S489.9,186.9,487.6,186.9z"/>
		</g>
		<g>
			<path fill="#221F1F" d="M492.7,186.9h-5.1c-2.2,0-4-1.8-4-4s1.8-4,4-4h5.1c2.2,0,4,1.8,4,4S494.9,186.9,492.7,186.9z"/>
		</g>
		<g>
			<path fill="#221F1F" d="M492.7,234.6c-2.2,0-4-1.8-4-4v-47.7c0-2.2,1.8-4,4-4s4,1.8,4,4v47.7
				C496.7,232.8,494.9,234.6,492.7,234.6z"/>
		</g>
		<g>
			<path fill="#221F1F" d="M492.7,248.2c-2.2,0-4-1.8-4-4v-8.3c0-2.2,1.8-4,4-4s4,1.8,4,4v8.3C496.7,246.4,494.9,248.2,492.7,248.2z
				"/>
		</g>
		<g>
			<path fill="#221F1F" d="M492.7,246.9h-46.7c-2.2,0-4-1.8-4-4s1.8-4,4-4h46.7c2.2,0,4,1.8,4,4S494.9,246.9,492.7,246.9z"/>
		</g>
		<g>
			<path fill="#221F1F" d="M435.5,226.6c-1.4,0-2.8-0.8-3.5-2.1l-20.7-39.6c-1-2-0.3-4.4,1.7-5.4c2-1,4.4-0.3,5.4,1.7l20.7,39.6
				c1,2,0.3,4.4-1.7,5.4C436.7,226.4,436.1,226.6,435.5,226.6z"/>
		</g>
		<g>
			<path fill="#221F1F" d="M445.5,245.7c-1.4,0-2.8-0.8-3.5-2.1l-6.9-13.2c-1-2-0.3-4.4,1.7-5.4c2-1,4.4-0.3,5.4,1.7l6.9,13.2
				c1,2,0.3,4.4-1.7,5.4C446.7,245.5,446.1,245.7,445.5,245.7z"/>
		</g>
		<g>
			<path fill="#221F1F" d="M519.8,186.9h-10.4c-2.2,0-4-1.8-4-4s1.8-4,4-4h10.4c2.2,0,4,1.8,4,4S522,186.9,519.8,186.9z"/>
		</g>
		<g>
			<path fill="#221F1F" d="M528.7,186.9h-4.3c-2.2,0-4-1.8-4-4s1.8-4,4-4h4.3c2.2,0,4,1.8,4,4S530.9,186.9,528.7,186.9z"/>
		</g>
		<g>
			<path fill="#221F1F" d="M587.4,186.9h-54.7c-2.2,0-4-1.8-4-4s1.8-4,4-4h54.7c2.2,0,4,1.8,4,4S589.6,186.9,587.4,186.9z"/>
		</g>
		<g>
			<path fill="#221F1F" d="M509.4,200.8c-2.2,0-4-1.8-4-4v-6.9c0-2.2,1.8-4,4-4s4,1.8,4,4v6.9C513.4,199,511.6,200.8,509.4,200.8z"
				/>
		</g>
		<g>
			<path fill="#221F1F" d="M509.4,246.9c-2.2,0-4-1.8-4-4v-40.2c0-2.2,1.8-4,4-4s4,1.8,4,4v40.2
				C513.4,245.1,511.6,246.9,509.4,246.9z"/>
		</g>
		<g>
			<path fill="#221F1F" d="M556.1,246.9h-46.7c-2.2,0-4-1.8-4-4s1.8-4,4-4h46.7c2.2,0,4,1.8,4,4S558.3,246.9,556.1,246.9z"/>
		</g>
		<g>
			<path fill="#221F1F" d="M556.7,245.7c-0.6,0-1.3-0.2-1.9-0.5c-1.9-1-2.7-3.5-1.6-5.4l30.7-57.1c1-1.9,3.5-2.7,5.4-1.6
				c1.9,1,2.7,3.5,1.6,5.4l-30.7,57.1C559.5,244.9,558.1,245.7,556.7,245.7z"/>
		</g>
		<g opacity="0.7">
			<path fill="#FFFFFF" d="M413.2,338.7c-1.5,0-3-0.9-3.6-2.3c-7-15.2,1.7-44.7,15-50.8c2-0.9,4.4,0,5.3,2c0.9,2,0,4.4-2,5.3
				c-9.1,4.2-16.1,29.3-11.1,40.2c0.9,2,0,4.4-2,5.3C414.3,338.6,413.7,338.7,413.2,338.7z"/>
		</g>
		<g>
			<path fill="#221F1F" d="M820.3,476.1H195.5c-2.8,0-5-2.2-5-5s2.2-5,5-5h624.7c2.8,0,5,2.2,5,5S823,476.1,820.3,476.1z"/>
		</g>
		<g>
			<path fill="#221F1F" d="M853.2,476.1h-15.9c-2.8,0-5-2.2-5-5s2.2-5,5-5h15.9c2.8,0,5,2.2,5,5S855.9,476.1,853.2,476.1z"/>
		</g>
		<g>
			<path fill="#221F1F" d="M183.9,476.1H161c-2.8,0-5-2.2-5-5s2.2-5,5-5h22.9c2.8,0,5,2.2,5,5S186.7,476.1,183.9,476.1z"/>
		</g>
		<g>
			<path fill="#221F1F" d="M142.4,476h-22.9c-2.8,0-5-2.2-5-5s2.2-5,5-5h22.9c2.8,0,5,2.2,5,5S145.1,476,142.4,476z"/>
		</g>
		<g>
			<path fill="#FFFFFF" d="M627.9,307.3c-1.4,0-2.5-1.1-2.5-2.5v-15.5c0-1.4,1.1-2.5,2.5-2.5s2.5,1.1,2.5,2.5v15.5
				C630.4,306.2,629.3,307.3,627.9,307.3z"/>
		</g>
		<g>
			<path fill="#FFFFFF" d="M627.9,279.8c-1.4,0-2.5-1.1-2.5-2.5v-5.3c0-1.4,1.1-2.5,2.5-2.5s2.5,1.1,2.5,2.5v5.3
				C630.4,278.6,629.3,279.8,627.9,279.8z"/>
		</g>
		<g>
			<path fill="#FFFFFF" d="M627.9,394.3c-1.4,0-2.5-1.1-2.5-2.5v-10.3c0-1.4,1.1-2.5,2.5-2.5s2.5,1.1,2.5,2.5v10.3
				C630.4,393.2,629.3,394.3,627.9,394.3z"/>
		</g>
		<g>
			<path fill="#FFFFFF" d="M629.9,407.8c-1.4,0-2.5-1.1-2.5-2.5v-4.6c0-1.4,1.1-2.5,2.5-2.5s2.5,1.1,2.5,2.5v4.6
				C632.4,406.7,631.3,407.8,629.9,407.8z"/>
		</g>
		<g>
			<path fill="#FFFFFF" d="M711.1,330.9c-1.4,0-2.5-1.1-2.5-2.5v-11.6c0-1.4,1.1-2.5,2.5-2.5s2.5,1.1,2.5,2.5v11.6
				C713.6,329.8,712.5,330.9,711.1,330.9z"/>
		</g>
		<g>
			<path fill="#FFFFFF" d="M711.1,390.3c-1.4,0-2.5-1.1-2.5-2.5v-30.2c0-1.4,1.1-2.5,2.5-2.5s2.5,1.1,2.5,2.5v30.2
				C713.6,389.2,712.5,390.3,711.1,390.3z"/>
		</g>
		<g>
			<path fill="#FFFFFF" d="M316.7,293.7c-1.4,0-2.5-1.1-2.5-2.5v-23.8c0-1.4,1.1-2.5,2.5-2.5s2.5,1.1,2.5,2.5v23.8
				C319.2,292.6,318.1,293.7,316.7,293.7z"/>
		</g>
		<g>
			<path fill="#FFFFFF" d="M315.6,325.3c-1.4,0-2.5-1.1-2.5-2.5V319c0-1.4,1.1-2.5,2.5-2.5s2.5,1.1,2.5,2.5v3.8
				C318.1,324.1,317,325.3,315.6,325.3z"/>
		</g>
		<g>
			<path fill="#FFFFFF" d="M441,298.9c-1.4,0-2.5-1.1-2.5-2.5v-14.2c0-1.4,1.1-2.5,2.5-2.5s2.5,1.1,2.5,2.5v14.2
				C443.5,297.8,442.4,298.9,441,298.9z"/>
		</g>
		<g>
			<path fill="#FFFFFF" d="M441,378.2c-1.4,0-2.5-1.1-2.5-2.5v-13.4c0-1.4,1.1-2.5,2.5-2.5s2.5,1.1,2.5,2.5v13.4
				C443.5,377,442.4,378.2,441,378.2z"/>
		</g>
		<g>
			<path fill="#FFFFFF" d="M441,309.1c-1.4,0-2.5-1.1-2.5-2.5v-3.9c0-1.4,1.1-2.5,2.5-2.5s2.5,1.1,2.5,2.5v3.9
				C443.5,307.9,442.4,309.1,441,309.1z"/>
		</g>
		<g>
			<path fill="#FFFFFF" d="M441,407.8c-1.4,0-2.5-1.1-2.5-2.5v-23.8c0-1.4,1.1-2.5,2.5-2.5s2.5,1.1,2.5,2.5v23.8
				C443.5,406.7,442.4,407.8,441,407.8z"/>
		</g>
		<g>
			<path fill="#FFFFFF" d="M498.1,209.3c-1.4,0-2.5-1.1-2.5-2.5v-11.2c0-1.4,1.1-2.5,2.5-2.5s2.5,1.1,2.5,2.5v11.2
				C500.6,208.2,499.4,209.3,498.1,209.3z"/>
		</g>
		<g>
			<path fill="#FFFFFF" d="M436.8,176.9h-11.7c-1.4,0-2.5-1.1-2.5-2.5s1.1-2.5,2.5-2.5h11.7c1.4,0,2.5,1.1,2.5,2.5
				S438.2,176.9,436.8,176.9z"/>
		</g>
		<g>
			<path fill="#FFFFFF" d="M446.1,176.7h-1.6c-1.4,0-2.5-1.1-2.5-2.5s1.1-2.5,2.5-2.5h1.6c1.4,0,2.5,1.1,2.5,2.5
				S447.5,176.7,446.1,176.7z"/>
		</g>
		<g>
			<path fill="#F1F1F1" d="M361.5,222.1c1.4-3.2,2.2-6.7,2.2-10.4c0-14.2-11.5-25.7-25.7-25.7c-3.7,0-7.2,0.8-10.4,2.2
				c-6.1-11.3-18.1-19-31.8-19c-20,0-36.1,16.2-36.1,36.1c0,6.1,1.5,11.8,4.1,16.8H361.5z"/>
		</g>
		<g>
			<path fill="#FFFFFF" d="M650.3,205.3c-0.9-2.1-1.4-4.3-1.4-6.7c0-9.2,7.5-16.7,16.7-16.7c2.4,0,4.7,0.5,6.7,1.4
				c4-7.3,11.7-12.3,20.6-12.3c12.9,0,23.4,10.5,23.4,23.4c0,3.9-1,7.6-2.7,10.9H650.3z"/>
		</g>
		<g>
			<path fill="#F1F1F1" d="M486,147.9c0.3-0.9,0.5-1.9,0.5-2.9c0-5-4-9-9-9c-0.3,0-0.6,0-0.8,0c-1.9-5-6.7-8.6-12.4-8.6
				c-1,0-1.9,0.1-2.9,0.3c-3-4.4-8-7.2-13.7-7.2c-9.1,0-16.5,7.4-16.5,16.5c0,4.1,1.5,7.9,4,10.8H486z"/>
		</g>
		<g>
			<path fill="#F6F7F8" d="M520.7,144c0,2.2-1.8,3.9-3.9,3.9h-19.9c-2.2,0-3.9-1.8-3.9-3.9l0,0c0-2.2,1.8-3.9,3.9-3.9h19.9
				C519,140,520.7,141.8,520.7,144L520.7,144z"/>
		</g>
		<g>
			<path fill="#F1F1F1" d="M248.5,218.4c0,3.1-2.5,5.6-5.6,5.6h-31.6c-3.1,0-5.6-2.5-5.6-5.6l0,0c0-3.1,2.5-5.6,5.6-5.6h31.6
				C246,212.8,248.5,215.3,248.5,218.4L248.5,218.4z"/>
		</g>
		<g>
			<path fill="#FFFFFF" d="M257,228.5c0,3.1-2.5,5.6-5.6,5.6h-31.6c-3.1,0-5.6-2.5-5.6-5.6l0,0c0-3.1,2.5-5.6,5.6-5.6h31.6
				C254.4,222.8,257,225.4,257,228.5L257,228.5z"/>
		</g>
		<g>
			<path fill="#D1D2D3" d="M625.3,211.6c0,1.2-1,2.2-2.2,2.2h-12.3c-1.2,0-2.2-1-2.2-2.2l0,0c0-1.2,1-2.2,2.2-2.2h12.3
				C624.4,209.4,625.3,210.4,625.3,211.6L625.3,211.6z"/>
		</g>
		<g>
			<path fill="#FFFFFF" d="M628.6,215.6c0,1.2-1,2.2-2.2,2.2h-12.3c-1.2,0-2.2-1-2.2-2.2l0,0c0-1.2,1-2.2,2.2-2.2h12.3
				C627.7,213.4,628.6,214.3,628.6,215.6L628.6,215.6z"/>
		</g>
		<g opacity="0.3">
			<path fill="#FFFFFF" d="M135.7,445.8c-1.4,0-2.5-1.1-2.5-2.5c0-13.8,12.5-25,27.8-25c1.4,0,2.5,1.1,2.5,2.5s-1.1,2.5-2.5,2.5
				c-12.6,0-22.8,9-22.8,20C138.2,444.7,137.1,445.8,135.7,445.8z"/>
		</g>
	</g>
	<g>
		<g>
			<rect x="355.8" y="532.3" fill="#FFFFFF" width="337.2" height="78"/>
		</g>
		<g>
			<rect x="355.8" y="615.1" fill="#FFFFFF" width="431" height="78"/>
		</g>
		<g>
			<rect x="355.8" y="697.9" fill="#FFFFFF" width="377.1" height="78"/>
		</g>
		<g>
			<rect x="105.4" y="532.1" fill="#FFFFFF" width="238.4" height="78"/>
		</g>
		<g>
			<g>
				<path fill="#006C50" d="M376.2,568.4c-5.9,0-9.6,5.3-9.7,9.9v4.6c0,5.2,4.1,9.2,9.5,9.2c6.8,0,9.6-5.9,9.6-12.2
					C385.5,572.3,381.4,568.4,376.2,568.4z"/>
			</g>
			<g>
				<path fill="#006C50" d="M400.6,587.1c0,3.9,3,5.2,5.7,5.2c4.3,0,8.7-3.2,9-8.2v-2.3c-1.7-0.1-3.7-0.3-5.7-0.3
					C405.1,581.4,400.6,582.4,400.6,587.1z"/>
			</g>
			<g>
				<path fill="#006C50" d="M482.9,568.5c-7,0-9.9,5.7-9.9,12.2c0,7.5,4,11.1,9,11.1c5.8,0,9.8-4.8,9.9-9.5v-5.3
					C492,571.9,487.8,568.5,482.9,568.5z"/>
			</g>
			<g>
				<path fill="#006C50" d="M528.7,587.1c0,3.9,3,5.2,5.7,5.2c4.3,0,8.7-3.2,9-8.2v-2.3c-1.7-0.1-3.7-0.3-5.7-0.3
					C533.2,581.4,528.7,582.4,528.7,587.1z"/>
			</g>
			<g>
				<path fill="#006C50" d="M571.5,568.4c-6.8,0-9.9,5.8-9.9,12.3c0,7.5,4,11.5,9.3,11.5c5.5,0,9.5-5.5,9.7-10.1v-4.9
					C580.5,572,576.4,568.4,571.5,568.4z"/>
			</g>
			<g>
				<path fill="#006C50" d="M608.2,568.3c-5.7,0-8.1,4.3-8.8,9.5h16.8C616.7,573.3,614.2,568.3,608.2,568.3z"/>
			</g>
			<g>
				<path fill="#006C50" d="M654.6,532.3H653h-28.2h-1.7h-30.5h-1.7h-36h-1.7h-31.4h-1.7h-16.4h-1.7h-35.9h-1.7h-37.7h-1.7h-31.4
					h-1.7h-36.4v78h36.4h1.7h31.4h1.7h37.7h1.7h14.6c-6-0.3-11.2-3.2-12.8-9l3.9-1.9c1.6,4.8,5.9,6.8,10.1,6.8c5.9,0,10-4.1,10-11.8
					v-5c-1.9,3.6-5.2,6.7-11,6.7c-7.3,0-13.2-5.3-13.2-15c0-8.2,4.2-16.8,13.7-16.8c4.6,0,8.4,1.9,10.4,5.5v-4.8h9.9v3.9h-5v25.7
					c0,9.4-5.2,15.5-14.4,15.8h19.7h1.7h16.4h1.7h31.4h1.7h36h1.7h30.5h1.7H653h1.7H693v-78H654.6z M376.9,596.3
					c-4.8,0-8.8-2.1-10.8-5.8c0,0.3-0.6,4.8-0.6,5.1h-4.8c0.4-2.7,0.9-5.9,0.9-9v-34.6h-5.2v-3.9h10.1v23.1c1.9-3.8,5.1-7,11-7
					c7.7,0,13.2,5.5,13.2,15.2C390.6,587.6,386.7,596.3,376.9,596.3z M421,596.3c-3.6,0-5.5-2.4-5.6-6.2V590
					c-1.9,3.3-5.5,6.3-10.5,6.3c-4.1,0-9.3-2.1-9.3-8.6c0-7.7,7.5-9.5,14.4-9.5c1.9,0,3.8,0.1,5.5,0.3v-2.8c0-4.4-1.4-7.5-7-7.5
					c-2.1,0-4.1,0.3-5.9,1.2l-1.2,5.3l-4-0.5l1.1-7.1c3.2-2.1,6.8-3,10.8-3c7.1,0,11,3.4,11,10.3v14.6c0,2.3,0.8,3.3,2.6,3.3
					c0.6,0,1.4-0.1,2.1-0.4l0.1,3.2C423.9,595.9,422.4,596.3,421,596.3z M449.3,595.6v-3.9h5.3v-14.3c0-6.6-3-9-7.1-9
					c-5.5,0-9.1,4.3-9.3,9v14.4h5.4v3.9H428v-3.9h5.4v-22.8h-5.5v-3.9h10.4v5.5c2.1-3.8,5.9-6.1,10.8-6.1c6,0,10.6,3.5,10.6,11.7
					v15.7h5v3.9H449.3z M519.8,595.6h-15.6v-3.9h5.4v-39.6h-5.5v-3.9h10.3v43.5h5.4V595.6z M549,596.3c-3.6,0-5.5-2.4-5.6-6.2V590
					c-1.9,3.3-5.5,6.3-10.5,6.3c-4.1,0-9.3-2.1-9.3-8.6c0-7.7,7.5-9.5,14.4-9.5c1.9,0,3.8,0.1,5.5,0.3v-2.8c0-4.4-1.4-7.5-7-7.5
					c-2.1,0-4.1,0.3-5.9,1.2l-1.2,5.3l-4-0.5l1.1-7.1c3.2-2.1,6.8-3,10.8-3c7.1,0,11,3.4,11,10.3v14.6c0,2.3,0.8,3.3,2.6,3.3
					c0.6,0,1.4-0.1,2.1-0.4l0.1,3.2C551.9,595.9,550.5,596.3,549,596.3z M590.9,595.6h-10.1v-6.2c-2,3.7-5.4,6.9-11,6.9
					c-7.9,0-13.2-5.7-13.2-15.3c0-8.2,3.9-16.8,13.9-16.8c4.5,0,8.3,2,10.3,5.6v-17.8h-7.5v-3.9h12.3v43.5h5.3V595.6z M608.7,596.3
					c-8.7,0-14.5-5.7-14.5-15.6c0-9.5,5.4-16.4,14.1-16.4c8.4,0,13,6.2,13,13.5c0,1.2-0.1,2.4-0.4,3.7h-21.6
					c0.3,6.8,3.7,10.8,9.7,10.8c4.8,0,7.5-2.5,8.5-6.3l4.1,0.9C620.8,592,616.3,596.3,608.7,596.3z M638.3,596.3
					c-4.3,0-9-1.3-11.7-3l1-7l3.9,0.4l-0.2,4.1c2,1,4.3,1.5,6.8,1.5c4.3,0,8.3-1.7,8.3-5.2c0-8.4-19.3-2-19.3-13.9
					c0-6.5,5.8-8.9,11.4-8.9c4.2,0,8.1,1.3,10.7,2.8l0.8,7.2l-4,0.5l-0.8-5c-1.9-1-3.8-1.5-6.3-1.5c-3.9,0-6.6,1.4-6.6,4.6
					c0,8,19,1.7,19,13.9C651.3,592.7,645.6,596.3,638.3,596.3z M691.7,595.6h-15.6v-3.9h5.4v-14.3c0-6.6-3-9-7.2-9
					c-5.4,0-9,4.3-9.2,8.8v14.5h5.3v3.9h-15.5v-3.9h5.3v-39.6h-5.3v-3.9H665v22.3c2.1-3.8,5.8-6.1,10.8-6.1c6,0,10.6,3.5,10.6,11.7
					v15.7h5.3V595.6z"/>
			</g>
		</g>
		<g>
			<g>
				<path fill="#231F20" d="M105.4,532.1h238.4v78H105.4V532.1z M166.8,588.6v-14.2c0-7.5-5.2-10.8-10.6-10.8c-5,0-8.6,2.6-10.2,6.8
					c-1.4-4.6-5.6-6.8-10.1-6.8c-4.3,0-7.6,2.1-9.5,5.3v-4.7h-13v6.8h4.1v17.7h-4.1v6.7h18.9v-6.7h-5.9v-10.9c0-4.3,1.8-7.4,6-7.4
					c3.5,0,5.3,2.1,5.3,7.5v17.5h13v-6.7h-4.1v-10.9c0-4.3,1.7-7.4,5.9-7.4c3.7,0,5.5,2.1,5.5,7.5v17.5h13v-6.7H166.8z M174.8,580.2
					c0,10,6.6,15.8,16.2,15.8c9.9,0,17.2-6.3,17.2-16.1c0-8.8-5.5-16.3-16.7-16.3S174.8,571.1,174.8,580.2z M183.9,579.7
					c0-5.8,2.9-9.2,7.5-9.2c4.2,0,7.6,2.9,7.6,9.1c0,5.9-3,9.7-7.7,9.7C186.4,589.2,183.9,585,183.9,579.7z M236,583.8l-1.4,4.8
					h-10.1l17.3-19.8l-0.7-4.6h-27.4l-1.1,10.9l6.6,0.7l1.4-4.9h9.7l-17.1,19.7l0.9,4.7h27.3l1.9-10.9L236,583.8z M249.6,564.2v11.2
					h9.2v-11.2H249.6z M249.6,584.2v11.2h9.2v-11.2H249.6z M278.2,547.9l-13.5,47.5h8.8l13.5-47.5H278.2z M296.2,547.9l-13.4,47.5
					h8.7l13.5-47.5H296.2z M336,589.9c-0.4,0.2-0.9,0.2-1.2,0.2c-1.4,0-2.1-0.6-2.1-2.4v-13.5c0-7.1-5.8-10.6-12.4-10.6
					c-5.1,0-8,0.7-13.4,2.8l-1.2,7.2l7,0.8l1-3.5c1.4-0.8,2.9-0.9,4.8-0.9c5,0,5,3.7,5,7v1c-1.5-0.3-3.3-0.3-5-0.3
					c-7.2,0-14.5,1.8-14.5,9.4c0,6.6,5,8.9,9.5,8.9c5,0,8.2-3,9.9-6.1c0.5,3.8,2.7,6.1,6.9,6.1c1.9,0,3.9-0.6,5.6-1.4L336,589.9z
					 M313.2,586.2c0-3.5,2.8-4.3,6-4.3c1.4,0,3,0.2,4.4,0.4c-0.2,5.1-3.5,7.5-6.7,7.5C314.4,589.8,313.2,588.1,313.2,586.2z"/>
			</g>
		</g>
		<g>
			<g>
				<path fill="#E0273F" d="M373.8,651.3c-6.7,0-9.5,5.8-9.5,12.1c0,7.7,4.1,11.5,9.2,11.5c5.8,0,9.7-5.5,9.8-10.1v-4.6
					C383.2,655,379,651.3,373.8,651.3z"/>
			</g>
			<g>
				<path fill="#E0273F" d="M400.8,669.9c0,3.9,3,5.2,5.7,5.2c4.3,0,8.7-3.2,9-8.2v-2.3c-1.7-0.1-3.7-0.3-5.7-0.3
					C405.3,664.2,400.8,665.2,400.8,669.9z"/>
			</g>
			<g>
				<path fill="#E0273F" d="M492.3,651.2c-6.4,0-10,5-10,11.9c0,6.7,3.5,11.9,10,11.9s10.1-5.1,10.1-12
					C502.5,655.9,498.7,651.2,492.3,651.2z"/>
			</g>
			<g>
				<path fill="#E0273F" d="M751.8,615.1h-1.7h-23.7h-1.7h-17.5h-1.7H668h-1.7h-36.8h-1.7h-57.7h-1.7h-57.7h-1.7h-33.5H474h-31.5
					H427h-33h-1.7h-36.5v78h20.3v-3.9h7.2v-17c-1.9,3.7-5.2,7-11,7c-7.6,0-13.2-5.5-13.2-15.2c0-8.1,3.9-16.8,13.7-16.8
					c4.8,0,9,2.1,10.9,5.9c0.1-1.7,0.3-3.5,0.7-5.3h4.8c-0.6,3.2-1,6.3-1,9.5v31.9h4.1v3.9h0.6h1.1h33h15.5H474h1.7h33.5h1.7h57.7
					h1.7h57.7h1.7h36.8h1.7h37.7h1.7h17.5h1.7h23.7h1.7h4.7v-3.9h5.7l4-10.8L755,651.6h-3.2v-3.9h13.8v3.9h-5.4l8.6,20.6h0.4
					l7.7-20.6h-5v-3.9h13.5v3.9h-3.7l-10.8,26.8l-4.1,10.8h5.2v3.9h14.7v-78H751.8z M421.1,679.1c-3.6,0-5.5-2.4-5.6-6.2v-0.1
					c-1.9,3.3-5.5,6.3-10.5,6.3c-4.1,0-9.3-2.1-9.3-8.6c0-7.7,7.5-9.5,14.4-9.5c1.9,0,3.8,0.1,5.5,0.3v-2.8c0-4.4-1.4-7.5-7-7.5
					c-2.1,0-4.1,0.3-5.9,1.2l-1.2,5.3l-4-0.5l1.1-7.1c3.2-2.1,6.8-3,10.8-3c7.1,0,11,3.4,11,10.3V672c0,2.3,0.8,3.3,2.6,3.3
					c0.6,0,1.4-0.1,2.1-0.4l0.1,3.2C424,678.7,422.6,679.1,421.1,679.1z M459.8,679.1c-8.5,0-13.9-5.7-13.9-15.6
					c0-8.5,4.8-16.4,14.4-16.4c4.1,0,7.4,0.8,10.5,3.2l1.2,7.4l-4,0.5l-1.2-5.2c-1.9-1.2-3.9-1.7-6.6-1.7c-6.6,0-9.2,5.4-9.2,12
					c0,7.4,3.3,11.7,9.4,11.7c4.8,0,7.4-2.8,8.3-7.8l4.1,0.9C471.9,673.4,468.2,679.1,459.8,679.1z M492.2,679.1
					c-9.3,0-14.9-6.6-14.9-15.8c0-9,5.2-16.3,15.2-16.3c10,0,15.1,7.3,15.1,16C507.6,672.3,501.6,679.1,492.2,679.1z M554.1,678.4
					v-3.9h4.5v-14.3c0-6.6-2.9-9-7-9c-5.7,0-8.7,5.4-8.8,9.2v14.1h5.3v3.9h-14.6v-3.9h4.4v-14.3c0-6.7-2.8-9-6.8-9
					c-5.7,0-8.8,5.2-8.9,9.1v14.2h5.7v3.9h-15.9v-3.9h5.4v-22.8h-5.5v-3.9h10.3v5.7c2-3.7,5.4-6.3,10.3-6.3c4.8,0,8.6,2.3,9.9,7.4
					c1.9-4.3,5.5-7.4,10.8-7.4c5.9,0,10.3,3.5,10.3,11.7v15.7h5.1v3.9H554.1z M613.4,678.4v-3.9h4.5v-14.3c0-6.6-2.9-9-7-9
					c-5.7,0-8.7,5.4-8.8,9.2v14.1h5.3v3.9h-14.6v-3.9h4.4v-14.3c0-6.7-2.8-9-6.8-9c-5.7,0-8.8,5.2-8.9,9.1v14.2h5.7v3.9h-15.9v-3.9
					h5.4v-22.8h-5.5v-3.9h10.3v5.7c2-3.7,5.4-6.3,10.3-6.3c4.8,0,8.6,2.3,9.9,7.4c1.9-4.3,5.5-7.4,10.8-7.4
					c5.9,0,10.3,3.5,10.3,11.7v15.7h5.1v3.9H613.4z M666.2,678.4h-10.3v-5.8c-1.9,3.9-5.8,6.5-10.7,6.5c-6,0-10.6-3.5-10.6-11.7
					v-15.7h-5v-3.9h9.9V666c0,6.6,3,9,7.4,9c5.2,0,9-4.8,9.1-9.2v-14.1h-6.4v-3.9h11.2v26.8h5.5V678.4z M690.4,678.4v-3.9h5.3v-14.3
					c0-6.6-3-9-7.1-9c-5.5,0-9.1,4.3-9.3,9v14.4h5.4v3.9h-15.6v-3.9h5.4v-22.8H669v-3.9h10.4v5.5c2.1-3.8,5.9-6.1,10.8-6.1
					c6,0,10.6,3.5,10.6,11.7v15.7h5v3.9H690.4z M713.6,633.5h5.2v6.3h-5.2V633.5z M724.3,678.4h-15.6v-3.9h5.4v-22.8h-5.5v-3.9h10.3
					v26.8h5.4V678.4z M740.7,679.1c-6.1,0-9.2-3.7-9.2-9.7v-17.8h-5v-3.9h5v-9.9h4.8v9.9h12v3.9h-12v17.2c0,3.7,1.2,6.1,5,6.1
					c2.3,0,4.1-1,5-5.9l3.7,1.2C749.1,676.1,746.2,679.1,740.7,679.1z"/>
			</g>
			<g>
				<path fill="#E0273F" d="M432.4,733.9c-5.7,0-8.1,4.3-8.8,9.5h16.8C440.9,738.9,438.4,733.9,432.4,733.9z"/>
			</g>
			<g>
				<path fill="#E0273F" d="M464.5,733.9c-5.7,0-8.1,4.3-8.8,9.5h16.8C473.1,738.9,470.5,733.9,464.5,733.9z"/>
			</g>
			<g>
				<path fill="#E0273F" d="M564.3,757.8c6.9,0,9.9-5.8,9.9-12.4c0-7.4-4-11.4-9.4-11.4c-5.5,0-9.5,5.4-9.7,10.1v4.6
					C555.1,753.8,559.2,757.8,564.3,757.8z"/>
			</g>
			<g>
				<path fill="#E0273F" d="M653.9,729.1c-7.6,0-11.3,5.1-11.3,14.1s3.8,14.2,11.2,14.2c7.2,0,11.3-5,11.3-14.3
					C665.2,734.4,661.7,729.1,653.9,729.1z"/>
			</g>
			<g>
				<path fill="#E0273F" d="M699,697.9h-24.7h-1.7h-37.7h-1.7H598h-15.5h-37.6h-1.7h-36.8h-1.7h-23.7h-1.7h-30.5h-1.7h-30.5h-1.7
					h-59.3v78h59.3h1.7h30.5h1.7h30.5h1.7h23.7h1.7h36.8h1.6h0.1V772h5.4v-37.5h-5.4v-3.9h10.2v6.4c1.9-3.7,5.2-7,10.9-7
					c7.9,0,13.2,5.6,13.2,15.1c0,8.2-4,16.9-14,16.9c-4.3,0-8.1-1.8-10.1-5.2V772h7.1v3.9h20.3H598h35.3h1.7h37.7h1.7H699h1.7h32.2
					v-78h-32.2H699z M400.7,761.2v-3.9h4.5V743c0-6.6-2.9-9-7-9c-5.7,0-8.7,5.4-8.8,9.2v14.1h5.3v3.9h-14.6v-3.9h4.4V743
					c0-6.7-2.8-9-6.8-9c-5.7,0-8.8,5.2-8.9,9.1v14.2h5.7v3.9h-15.9v-3.9h5.4v-22.8h-5.5v-3.9h10.3v5.7c2-3.7,5.4-6.3,10.3-6.3
					c4.8,0,8.6,2.3,9.9,7.4c1.9-4.3,5.5-7.4,10.8-7.4c5.9,0,10.3,3.5,10.3,11.7v15.7h5.1v3.9H400.7z M432.9,761.9
					c-8.7,0-14.5-5.7-14.5-15.6c0-9.5,5.4-16.4,14.1-16.4c8.4,0,13,6.2,13,13.5c0,1.2-0.1,2.4-0.4,3.7h-21.6
					c0.3,6.8,3.7,10.8,9.7,10.8c4.8,0,7.5-2.5,8.5-6.3l4.1,0.9C445,757.6,440.5,761.9,432.9,761.9z M465.1,761.9
					c-8.7,0-14.5-5.7-14.5-15.6c0-9.5,5.4-16.4,14.1-16.4c8.4,0,13,6.2,13,13.5c0,1.2-0.1,2.4-0.4,3.7h-21.6
					c0.3,6.8,3.7,10.8,9.7,10.8c4.8,0,7.5-2.5,8.5-6.3l4.1,0.9C477.1,757.6,472.7,761.9,465.1,761.9z M495.4,761.9
					c-6.1,0-9.2-3.7-9.2-9.7v-17.8h-5v-3.9h5v-9.9h4.8v9.9h12v3.9h-12v17.2c0,3.7,1.2,6.1,5,6.1c2.3,0,4.1-1,5-5.9l3.7,1.2
					C503.7,758.9,500.9,761.9,495.4,761.9z M543.1,761.2h-10.3v-5.8c-1.9,3.9-5.8,6.5-10.7,6.5c-6,0-10.6-3.5-10.6-11.7v-15.7h-5
					v-3.9h9.9v18.3c0,6.6,3,9,7.4,9c5.2,0,9-4.8,9.1-9.2v-14.1h-6.4v-3.9h11.2v26.8h5.5V761.2z M630.6,761.2h-28l-0.6-3.9
					c13.1-8.8,21.4-14.6,21.4-21.5c0-4.3-3-6.9-8.2-6.9c-1.9,0-5,0.6-7.3,1.6l-1.1,5.2l-4-0.5l1.2-7.6c3.3-1.9,8.3-3,12.4-3
					c9,0,12.5,5.7,12.5,10.7c0,9.5-12.7,17-20.2,21.5h17.9l0.6-5.5l4.2,0.3L630.6,761.2z M653.7,761.9c-10.9,0-16.5-7.2-16.5-18.4
					c0-10.8,5.7-19,16.8-19c11.3,0,16.5,8.2,16.5,18.8C670.5,754.7,664.5,761.9,653.7,761.9z M698.6,761.2H677v-4.4h8.4v-27.1H677
					v-4.4h13.5v31.5h8.1V761.2z M702.1,725.3h28.4l0.7,2.9l-17,42h-5l16.7-40.6h-19.1v7.7h-4.6V725.3z"/>
			</g>
		</g>
	</g>
</g>
<g id="Layer_2">
</g>
</svg>
