<?xml version="1.0" encoding="utf-8"?>
<!-- Generator: Adobe Illustrator 17.1.0, SVG Export Plug-In . SVG Version: 6.00 Build 0)  -->
<!DOCTYPE svg PUBLIC "-//W3C//DTD SVG 1.1//EN" "http://www.w3.org/Graphics/SVG/1.1/DTD/svg11.dtd">
<svg version="1.1" xmlns="http://www.w3.org/2000/svg" xmlns:xlink="http://www.w3.org/1999/xlink" x="0px" y="0px"
	 viewBox="0 0 958.1 958.1" enable-background="new 0 0 958.1 958.1" xml:space="preserve">
<g id="Layer_1">
	<g>
		<path fill="#3FBDE9" d="M882.7,649.6c22.8-54,34.4-111.3,34.4-170.5s-11.6-116.5-34.4-170.5c-22.1-52.2-53.7-99-93.9-139.3
			c-40.2-40.2-87.1-71.8-139.3-93.9C595.6,52.6,538.2,41,479.1,41S362.5,52.6,308.6,75.4c-52.2,22.1-99,53.7-139.3,93.9
			c-40.2,40.2-71.8,87.1-93.9,139.3C52.6,362.5,41,419.9,41,479.1s11.6,116.5,34.4,170.5c22.1,52.2,53.7,99,93.9,139.3
			c40.2,40.2,87.1,71.8,139.3,93.9c54,22.8,111.3,34.4,170.5,34.4s116.5-11.6,170.5-34.4c52.2-22.1,99-53.7,139.3-93.9
			C829.1,748.6,860.7,701.7,882.7,649.6z"/>
		<path fill="#F2F2F2" d="M479.1,0C214.5,0,0,214.5,0,479.1s214.5,479.1,479.1,479.1s479.1-214.5,479.1-479.1S743.7,0,479.1,0z
			 M479.1,917.1c-59.2,0-116.5-11.6-170.5-34.4c-52.2-22.1-99-53.7-139.3-93.9c-40.2-40.2-71.8-87.1-93.9-139.3
			C52.6,595.6,41,538.2,41,479.1s11.6-116.5,34.4-170.5c22.1-52.2,53.7-99,93.9-139.3c40.2-40.2,87.1-71.8,139.3-93.9
			C362.5,52.6,419.9,41,479.1,41s116.5,11.6,170.5,34.4c52.2,22.1,99,53.7,139.3,93.9c40.2,40.2,71.8,87.1,93.9,139.3
			c22.8,54,34.4,111.3,34.4,170.5s-11.6,116.5-34.4,170.5c-22.1,52.2-53.7,99-93.9,139.3c-40.2,40.2-87.1,71.8-139.3,93.9
			C595.6,905.6,538.2,917.1,479.1,917.1z"/>
	</g>
	<g>
		<g>
			<rect x="355.8" y="532.3" fill="#FFFFFF" width="337.2" height="78"/>
		</g>
		<g>
			<rect x="355.8" y="615.1" fill="#FFFFFF" width="431" height="78"/>
		</g>
		<g>
			<rect x="355.8" y="697.9" fill="#FFFFFF" width="377.1" height="78"/>
		</g>
		<g>
			<rect x="105.4" y="532.1" fill="#FFFFFF" width="238.4" height="78"/>
		</g>
		<g>
			<g>
				<path fill="#006C50" d="M376.2,568.4c-5.9,0-9.6,5.3-9.7,9.9v4.6c0,5.2,4.1,9.2,9.5,9.2c6.8,0,9.6-5.9,9.6-12.2
					C385.5,572.3,381.4,568.4,376.2,568.4z"/>
			</g>
			<g>
				<path fill="#006C50" d="M400.6,587.1c0,3.9,3,5.2,5.7,5.2c4.3,0,8.7-3.2,9-8.2v-2.3c-1.7-0.1-3.7-0.3-5.7-0.3
					C405.1,581.4,400.6,582.4,400.6,587.1z"/>
			</g>
			<g>
				<path fill="#006C50" d="M482.9,568.5c-7,0-9.9,5.7-9.9,12.2c0,7.5,4,11.1,9,11.1c5.8,0,9.8-4.8,9.9-9.5v-5.3
					C492,571.9,487.8,568.5,482.9,568.5z"/>
			</g>
			<g>
				<path fill="#006C50" d="M528.7,587.1c0,3.9,3,5.2,5.7,5.2c4.3,0,8.7-3.2,9-8.2v-2.3c-1.7-0.1-3.7-0.3-5.7-0.3
					C533.2,581.4,528.7,582.4,528.7,587.1z"/>
			</g>
			<g>
				<path fill="#006C50" d="M571.5,568.4c-6.8,0-9.9,5.8-9.9,12.3c0,7.5,4,11.5,9.3,11.5c5.5,0,9.5-5.5,9.7-10.1v-4.9
					C580.5,572,576.4,568.4,571.5,568.4z"/>
			</g>
			<g>
				<path fill="#006C50" d="M608.2,568.3c-5.7,0-8.1,4.3-8.8,9.5h16.8C616.7,573.3,614.2,568.3,608.2,568.3z"/>
			</g>
			<g>
				<path fill="#006C50" d="M654.6,532.3H653h-28.2h-1.7h-30.5h-1.7h-36h-1.7h-31.4h-1.7h-16.4h-1.7h-35.9h-1.7h-37.7h-1.7h-31.4
					h-1.7h-36.4v78h36.4h1.7h31.4h1.7h37.7h1.7h14.6c-6-0.3-11.2-3.2-12.8-9l3.9-1.9c1.6,4.8,5.9,6.8,10.1,6.8c5.9,0,10-4.1,10-11.8
					v-5c-1.9,3.6-5.2,6.7-11,6.7c-7.3,0-13.2-5.3-13.2-15c0-8.2,4.2-16.8,13.7-16.8c4.6,0,8.4,1.9,10.4,5.5v-4.8h9.9v3.9h-5v25.7
					c0,9.4-5.2,15.5-14.4,15.8h19.7h1.7h16.4h1.7h31.4h1.7h36h1.7h30.5h1.7H653h1.7H693v-78H654.6z M376.9,596.3
					c-4.8,0-8.8-2.1-10.8-5.8c0,0.3-0.6,4.8-0.6,5.1h-4.8c0.4-2.7,0.9-5.9,0.9-9v-34.6h-5.2v-3.9h10.1v23.1c1.9-3.8,5.1-7,11-7
					c7.7,0,13.2,5.5,13.2,15.2C390.6,587.6,386.7,596.3,376.9,596.3z M421,596.3c-3.6,0-5.5-2.4-5.6-6.2V590
					c-1.9,3.3-5.5,6.3-10.5,6.3c-4.1,0-9.3-2.1-9.3-8.6c0-7.7,7.5-9.5,14.4-9.5c1.9,0,3.8,0.1,5.5,0.3v-2.8c0-4.4-1.4-7.5-7-7.5
					c-2.1,0-4.1,0.3-5.9,1.2l-1.2,5.3l-4-0.5l1.1-7.1c3.2-2.1,6.8-3,10.8-3c7.1,0,11,3.4,11,10.3v14.6c0,2.3,0.8,3.3,2.6,3.3
					c0.6,0,1.4-0.1,2.1-0.4l0.1,3.2C423.9,595.9,422.4,596.3,421,596.3z M449.3,595.6v-3.9h5.3v-14.3c0-6.6-3-9-7.1-9
					c-5.5,0-9.1,4.3-9.3,9v14.4h5.4v3.9H428v-3.9h5.4v-22.8h-5.5v-3.9h10.4v5.5c2.1-3.8,5.9-6.1,10.8-6.1c6,0,10.6,3.5,10.6,11.7
					v15.7h5v3.9H449.3z M519.8,595.6h-15.6v-3.9h5.4v-39.6h-5.5v-3.9h10.3v43.5h5.4V595.6z M549,596.3c-3.6,0-5.5-2.4-5.6-6.2V590
					c-1.9,3.3-5.5,6.3-10.5,6.3c-4.1,0-9.3-2.1-9.3-8.6c0-7.7,7.5-9.5,14.4-9.5c1.9,0,3.8,0.1,5.5,0.3v-2.8c0-4.4-1.4-7.5-7-7.5
					c-2.1,0-4.1,0.3-5.9,1.2l-1.2,5.3l-4-0.5l1.1-7.1c3.2-2.1,6.8-3,10.8-3c7.1,0,11,3.4,11,10.3v14.6c0,2.3,0.8,3.3,2.6,3.3
					c0.6,0,1.4-0.1,2.1-0.4l0.1,3.2C551.9,595.9,550.5,596.3,549,596.3z M590.9,595.6h-10.1v-6.2c-2,3.7-5.4,6.9-11,6.9
					c-7.9,0-13.2-5.7-13.2-15.3c0-8.2,3.9-16.8,13.9-16.8c4.5,0,8.3,2,10.3,5.6v-17.8h-7.5v-3.9h12.3v43.5h5.3V595.6z M608.7,596.3
					c-8.7,0-14.5-5.7-14.5-15.6c0-9.5,5.4-16.4,14.1-16.4c8.4,0,13,6.2,13,13.5c0,1.2-0.1,2.4-0.4,3.7h-21.6
					c0.3,6.8,3.7,10.8,9.7,10.8c4.8,0,7.5-2.5,8.5-6.3l4.1,0.9C620.8,592,616.3,596.3,608.7,596.3z M638.3,596.3
					c-4.3,0-9-1.3-11.7-3l1-7l3.9,0.4l-0.2,4.1c2,1,4.3,1.5,6.8,1.5c4.3,0,8.3-1.7,8.3-5.2c0-8.4-19.3-2-19.3-13.9
					c0-6.5,5.8-8.9,11.4-8.9c4.2,0,8.1,1.3,10.7,2.8l0.8,7.2l-4,0.5l-0.8-5c-1.9-1-3.8-1.5-6.3-1.5c-3.9,0-6.6,1.4-6.6,4.6
					c0,8,19,1.7,19,13.9C651.3,592.7,645.6,596.3,638.3,596.3z M691.7,595.6h-15.6v-3.9h5.4v-14.3c0-6.6-3-9-7.2-9
					c-5.4,0-9,4.3-9.2,8.8v14.5h5.3v3.9h-15.5v-3.9h5.3v-39.6h-5.3v-3.9H665v22.3c2.1-3.8,5.8-6.1,10.8-6.1c6,0,10.6,3.5,10.6,11.7
					v15.7h5.3V595.6z"/>
			</g>
		</g>
		<g>
			<g>
				<path fill="#231F20" d="M105.4,532.1h238.4v78H105.4V532.1z M166.8,588.6v-14.2c0-7.5-5.2-10.8-10.6-10.8c-5,0-8.6,2.6-10.2,6.8
					c-1.4-4.6-5.6-6.8-10.1-6.8c-4.3,0-7.6,2.1-9.5,5.3v-4.7h-13v6.8h4.1v17.7h-4.1v6.7h18.9v-6.7h-5.9v-10.9c0-4.3,1.8-7.4,6-7.4
					c3.5,0,5.3,2.1,5.3,7.5v17.5h13v-6.7h-4.1v-10.9c0-4.3,1.7-7.4,5.9-7.4c3.7,0,5.5,2.1,5.5,7.5v17.5h13v-6.7H166.8z M174.8,580.2
					c0,10,6.6,15.8,16.2,15.8c9.9,0,17.2-6.3,17.2-16.1c0-8.8-5.5-16.3-16.7-16.3S174.8,571.1,174.8,580.2z M183.9,579.7
					c0-5.8,2.9-9.2,7.5-9.2c4.2,0,7.6,2.9,7.6,9.1c0,5.9-3,9.7-7.7,9.7C186.4,589.2,183.9,585,183.9,579.7z M236,583.8l-1.4,4.8
					h-10.1l17.3-19.8l-0.7-4.6h-27.4l-1.1,10.9l6.6,0.7l1.4-4.9h9.7l-17.1,19.7l0.9,4.7h27.3l1.9-10.9L236,583.8z M249.6,564.2v11.2
					h9.2v-11.2H249.6z M249.6,584.2v11.2h9.2v-11.2H249.6z M278.2,547.9l-13.5,47.5h8.8l13.5-47.5H278.2z M296.2,547.9l-13.4,47.5
					h8.7l13.5-47.5H296.2z M336,589.9c-0.4,0.2-0.9,0.2-1.2,0.2c-1.4,0-2.1-0.6-2.1-2.4v-13.5c0-7.1-5.8-10.6-12.4-10.6
					c-5.1,0-8,0.7-13.4,2.8l-1.2,7.2l7,0.8l1-3.5c1.4-0.8,2.9-0.9,4.8-0.9c5,0,5,3.7,5,7v1c-1.5-0.3-3.3-0.3-5-0.3
					c-7.2,0-14.5,1.8-14.5,9.4c0,6.6,5,8.9,9.5,8.9c5,0,8.2-3,9.9-6.1c0.5,3.8,2.7,6.1,6.9,6.1c1.9,0,3.9-0.6,5.6-1.4L336,589.9z
					 M313.2,586.2c0-3.5,2.8-4.3,6-4.3c1.4,0,3,0.2,4.4,0.4c-0.2,5.1-3.5,7.5-6.7,7.5C314.4,589.8,313.2,588.1,313.2,586.2z"/>
			</g>
		</g>
		<g>
			<g>
				<path fill="#E0273F" d="M373.8,651.3c-6.7,0-9.5,5.8-9.5,12.1c0,7.7,4.1,11.5,9.2,11.5c5.8,0,9.7-5.5,9.8-10.1v-4.6
					C383.2,655,379,651.3,373.8,651.3z"/>
			</g>
			<g>
				<path fill="#E0273F" d="M400.8,669.9c0,3.9,3,5.2,5.7,5.2c4.3,0,8.7-3.2,9-8.2v-2.3c-1.7-0.1-3.7-0.3-5.7-0.3
					C405.3,664.2,400.8,665.2,400.8,669.9z"/>
			</g>
			<g>
				<path fill="#E0273F" d="M492.3,651.2c-6.4,0-10,5-10,11.9c0,6.7,3.5,11.9,10,11.9s10.1-5.1,10.1-12
					C502.5,655.9,498.7,651.2,492.3,651.2z"/>
			</g>
			<g>
				<path fill="#E0273F" d="M751.8,615.1h-1.7h-23.7h-1.7h-17.5h-1.7H668h-1.7h-36.8h-1.7h-57.7h-1.7h-57.7h-1.7h-33.5H474h-31.5
					H427h-33h-1.7h-36.5v78h20.3v-3.9h7.2v-17c-1.9,3.7-5.2,7-11,7c-7.6,0-13.2-5.5-13.2-15.2c0-8.1,3.9-16.8,13.7-16.8
					c4.8,0,9,2.1,10.9,5.9c0.1-1.7,0.3-3.5,0.7-5.3h4.8c-0.6,3.2-1,6.3-1,9.5v31.9h4.1v3.9h0.6h1.1h33h15.5H474h1.7h33.5h1.7h57.7
					h1.7h57.7h1.7h36.8h1.7h37.7h1.7h17.5h1.7h23.7h1.7h4.7v-3.9h5.7l4-10.8L755,651.6h-3.2v-3.9h13.8v3.9h-5.4l8.6,20.6h0.4
					l7.7-20.6h-5v-3.9h13.5v3.9h-3.7l-10.8,26.8l-4.1,10.8h5.2v3.9h14.7v-78H751.8z M421.1,679.1c-3.6,0-5.5-2.4-5.6-6.2v-0.1
					c-1.9,3.3-5.5,6.3-10.5,6.3c-4.1,0-9.3-2.1-9.3-8.6c0-7.7,7.5-9.5,14.4-9.5c1.9,0,3.8,0.1,5.5,0.3v-2.8c0-4.4-1.4-7.5-7-7.5
					c-2.1,0-4.1,0.3-5.9,1.2l-1.2,5.3l-4-0.5l1.1-7.1c3.2-2.1,6.8-3,10.8-3c7.1,0,11,3.4,11,10.3V672c0,2.3,0.8,3.3,2.6,3.3
					c0.6,0,1.4-0.1,2.1-0.4l0.1,3.2C424,678.7,422.6,679.1,421.1,679.1z M459.8,679.1c-8.5,0-13.9-5.7-13.9-15.6
					c0-8.5,4.8-16.4,14.4-16.4c4.1,0,7.4,0.8,10.5,3.2l1.2,7.4l-4,0.5l-1.2-5.2c-1.9-1.2-3.9-1.7-6.6-1.7c-6.6,0-9.2,5.4-9.2,12
					c0,7.4,3.3,11.7,9.4,11.7c4.8,0,7.4-2.8,8.3-7.8l4.1,0.9C471.9,673.4,468.2,679.1,459.8,679.1z M492.2,679.1
					c-9.3,0-14.9-6.6-14.9-15.8c0-9,5.2-16.3,15.2-16.3c10,0,15.1,7.3,15.1,16C507.6,672.3,501.6,679.1,492.2,679.1z M554.1,678.4
					v-3.9h4.5v-14.3c0-6.6-2.9-9-7-9c-5.7,0-8.7,5.4-8.8,9.2v14.1h5.3v3.9h-14.6v-3.9h4.4v-14.3c0-6.7-2.8-9-6.8-9
					c-5.7,0-8.8,5.2-8.9,9.1v14.2h5.7v3.9h-15.9v-3.9h5.4v-22.8h-5.5v-3.9h10.3v5.7c2-3.7,5.4-6.3,10.3-6.3c4.8,0,8.6,2.3,9.9,7.4
					c1.9-4.3,5.5-7.4,10.8-7.4c5.9,0,10.3,3.5,10.3,11.7v15.7h5.1v3.9H554.1z M613.4,678.4v-3.9h4.5v-14.3c0-6.6-2.9-9-7-9
					c-5.7,0-8.7,5.4-8.8,9.2v14.1h5.3v3.9h-14.6v-3.9h4.4v-14.3c0-6.7-2.8-9-6.8-9c-5.7,0-8.8,5.2-8.9,9.1v14.2h5.7v3.9h-15.9v-3.9
					h5.4v-22.8h-5.5v-3.9h10.3v5.7c2-3.7,5.4-6.3,10.3-6.3c4.8,0,8.6,2.3,9.9,7.4c1.9-4.3,5.5-7.4,10.8-7.4
					c5.9,0,10.3,3.5,10.3,11.7v15.7h5.1v3.9H613.4z M666.2,678.4h-10.3v-5.8c-1.9,3.9-5.8,6.5-10.7,6.5c-6,0-10.6-3.5-10.6-11.7
					v-15.7h-5v-3.9h9.9V666c0,6.6,3,9,7.4,9c5.2,0,9-4.8,9.1-9.2v-14.1h-6.4v-3.9h11.2v26.8h5.5V678.4z M690.4,678.4v-3.9h5.3v-14.3
					c0-6.6-3-9-7.1-9c-5.5,0-9.1,4.3-9.3,9v14.4h5.4v3.9h-15.6v-3.9h5.4v-22.8H669v-3.9h10.4v5.5c2.1-3.8,5.9-6.1,10.8-6.1
					c6,0,10.6,3.5,10.6,11.7v15.7h5v3.9H690.4z M713.6,633.5h5.2v6.3h-5.2V633.5z M724.3,678.4h-15.6v-3.9h5.4v-22.8h-5.5v-3.9h10.3
					v26.8h5.4V678.4z M740.7,679.1c-6.1,0-9.2-3.7-9.2-9.7v-17.8h-5v-3.9h5v-9.9h4.8v9.9h12v3.9h-12v17.2c0,3.7,1.2,6.1,5,6.1
					c2.3,0,4.1-1,5-5.9l3.7,1.2C749.1,676.1,746.2,679.1,740.7,679.1z"/>
			</g>
			<g>
				<path fill="#E0273F" d="M432.4,733.9c-5.7,0-8.1,4.3-8.8,9.5h16.8C440.9,738.9,438.4,733.9,432.4,733.9z"/>
			</g>
			<g>
				<path fill="#E0273F" d="M464.5,733.9c-5.7,0-8.1,4.3-8.8,9.5h16.8C473.1,738.9,470.5,733.9,464.5,733.9z"/>
			</g>
			<g>
				<path fill="#E0273F" d="M564.3,757.8c6.9,0,9.9-5.8,9.9-12.4c0-7.4-4-11.4-9.4-11.4c-5.5,0-9.5,5.4-9.7,10.1v4.6
					C555.1,753.8,559.2,757.8,564.3,757.8z"/>
			</g>
			<g>
				<path fill="#E0273F" d="M653.9,729.1c-7.6,0-11.3,5.1-11.3,14.1s3.8,14.2,11.2,14.2c7.2,0,11.3-5,11.3-14.3
					C665.2,734.4,661.7,729.1,653.9,729.1z"/>
			</g>
			<g>
				<path fill="#E0273F" d="M699,697.9h-24.7h-1.7h-37.7h-1.7H598h-15.5h-37.6h-1.7h-36.8h-1.7h-23.7h-1.7h-30.5h-1.7h-30.5h-1.7
					h-59.3v78h59.3h1.7h30.5h1.7h30.5h1.7h23.7h1.7h36.8h1.6h0.1V772h5.4v-37.5h-5.4v-3.9h10.2v6.4c1.9-3.7,5.2-7,10.9-7
					c7.9,0,13.2,5.6,13.2,15.1c0,8.2-4,16.9-14,16.9c-4.3,0-8.1-1.8-10.1-5.2V772h7.1v3.9h20.3H598h35.3h1.7h37.7h1.7H699h1.7h32.2
					v-78h-32.2H699z M400.7,761.2v-3.9h4.5V743c0-6.6-2.9-9-7-9c-5.7,0-8.7,5.4-8.8,9.2v14.1h5.3v3.9h-14.6v-3.9h4.4V743
					c0-6.7-2.8-9-6.8-9c-5.7,0-8.8,5.2-8.9,9.1v14.2h5.7v3.9h-15.9v-3.9h5.4v-22.8h-5.5v-3.9h10.3v5.7c2-3.7,5.4-6.3,10.3-6.3
					c4.8,0,8.6,2.3,9.9,7.4c1.9-4.3,5.5-7.4,10.8-7.4c5.9,0,10.3,3.5,10.3,11.7v15.7h5.1v3.9H400.7z M432.9,761.9
					c-8.7,0-14.5-5.7-14.5-15.6c0-9.5,5.4-16.4,14.1-16.4c8.4,0,13,6.2,13,13.5c0,1.2-0.1,2.4-0.4,3.7h-21.6
					c0.3,6.8,3.7,10.8,9.7,10.8c4.8,0,7.5-2.5,8.5-6.3l4.1,0.9C445,757.6,440.5,761.9,432.9,761.9z M465.1,761.9
					c-8.7,0-14.5-5.7-14.5-15.6c0-9.5,5.4-16.4,14.1-16.4c8.4,0,13,6.2,13,13.5c0,1.2-0.1,2.4-0.4,3.7h-21.6
					c0.3,6.8,3.7,10.8,9.7,10.8c4.8,0,7.5-2.5,8.5-6.3l4.1,0.9C477.1,757.6,472.7,761.9,465.1,761.9z M495.4,761.9
					c-6.1,0-9.2-3.7-9.2-9.7v-17.8h-5v-3.9h5v-9.9h4.8v9.9h12v3.9h-12v17.2c0,3.7,1.2,6.1,5,6.1c2.3,0,4.1-1,5-5.9l3.7,1.2
					C503.7,758.9,500.9,761.9,495.4,761.9z M543.1,761.2h-10.3v-5.8c-1.9,3.9-5.8,6.5-10.7,6.5c-6,0-10.6-3.5-10.6-11.7v-15.7h-5
					v-3.9h9.9v18.3c0,6.6,3,9,7.4,9c5.2,0,9-4.8,9.1-9.2v-14.1h-6.4v-3.9h11.2v26.8h5.5V761.2z M630.6,761.2h-28l-0.6-3.9
					c13.1-8.8,21.4-14.6,21.4-21.5c0-4.3-3-6.9-8.2-6.9c-1.9,0-5,0.6-7.3,1.6l-1.1,5.2l-4-0.5l1.2-7.6c3.3-1.9,8.3-3,12.4-3
					c9,0,12.5,5.7,12.5,10.7c0,9.5-12.7,17-20.2,21.5h17.9l0.6-5.5l4.2,0.3L630.6,761.2z M653.7,761.9c-10.9,0-16.5-7.2-16.5-18.4
					c0-10.8,5.7-19,16.8-19c11.3,0,16.5,8.2,16.5,18.8C670.5,754.7,664.5,761.9,653.7,761.9z M698.6,761.2H677v-4.4h8.4v-27.1H677
					v-4.4h13.5v31.5h8.1V761.2z M702.1,725.3h28.4l0.7,2.9l-17,42h-5l16.7-40.6h-19.1v7.7h-4.6V725.3z"/>
			</g>
		</g>
	</g>
	<g>
		<g>
			<g>
				<path fill="#009348" d="M234.7,463.6c0-0.4,0-0.8,0-1.2c0-26-20-47.2-44.6-47.2s-44.6,21.1-44.6,47.2c0,0.4,0,0.8,0,1.2H234.7z"
					/>
			</g>
			<g>
				<path fill="#F7EC33" d="M355.5,468.7c0-0.4,0-0.8,0-1.2c0-26-20-47.2-44.6-47.2c-24.6,0-44.6,21.1-44.6,47.2c0,0.4,0,0.8,0,1.2
					H355.5z"/>
			</g>
			<g>
				<path fill="#3BB44A" d="M313.1,469.5c0-0.4,0-0.8,0-1.2c0-26-20-47.2-44.6-47.2c-24.6,0-44.6,21.1-44.6,47.2c0,0.4,0,0.8,0,1.2
					H313.1z"/>
			</g>
			<g>
				<path fill="#3BB44A" d="M215.1,475.7c0-0.4,0-0.8,0-1.2c0-26-20-47.2-44.6-47.2c-24.6,0-44.6,21.1-44.6,47.2c0,0.4,0,0.8,0,1.2
					H215.1z"/>
			</g>
			<g>
				<path fill="#D6DF27" d="M344.2,475.7c0-0.4,0-0.8,0-1.2c0-26-20-47.2-44.6-47.2c-24.6,0-44.6,21.1-44.6,47.2c0,0.4,0,0.8,0,1.2
					H344.2z"/>
			</g>
			<g>
				<path fill="#8CC540" d="M268.1,476.2c0-0.4,0-0.8,0-1.2c0-26-20-47.2-44.6-47.2c-24.6,0-44.6,21.1-44.6,47.2c0,0.4,0,0.8,0,1.2
					H268.1z"/>
			</g>
			<g opacity="0.3">
				<path fill="#FFFFFF" d="M137,458.3c-1.4,0-2.5-1.1-2.5-2.5c0-10.3,8.8-18.6,19.6-18.6c1.4,0,2.5,1.1,2.5,2.5s-1.1,2.5-2.5,2.5
					c-8.1,0-14.6,6.1-14.6,13.6C139.5,457.1,138.3,458.3,137,458.3z"/>
			</g>
		</g>
		<g>
			<path fill="#009348" d="M723.9,463.6c0-0.4,0-0.8,0-1.2c0-26-20-47.2-44.6-47.2c-24.6,0-44.6,21.1-44.6,47.2c0,0.4,0,0.8,0,1.2
				H723.9z"/>
		</g>
		<g>
			<path fill="#F7EC33" d="M841.4,475.7c0-0.4,0-0.8,0-1.2c0-26-20-47.2-44.6-47.2c-24.6,0-44.6,21.1-44.6,47.2c0,0.4,0,0.8,0,1.2
				H841.4z"/>
		</g>
		<g>
			<path fill="#3BB44A" d="M802.4,469.5c0-0.4,0-0.8,0-1.2c0-26-20-47.2-44.6-47.2c-24.6,0-44.6,21.1-44.6,47.2c0,0.4,0,0.8,0,1.2
				H802.4z"/>
		</g>
		<g>
			<path fill="#3BB44A" d="M704.3,475.7c0-0.4,0-0.8,0-1.2c0-26-20-47.2-44.6-47.2c-24.6,0-44.6,21.1-44.6,47.2c0,0.4,0,0.8,0,1.2
				H704.3z"/>
		</g>
		<g>
			<path fill="#D6DF27" d="M833.5,475.7c0-0.4,0-0.8,0-1.2c0-26-20-47.2-44.6-47.2c-24.6,0-44.6,21.1-44.6,47.2c0,0.4,0,0.8,0,1.2
				H833.5z"/>
		</g>
		<g>
			<path fill="#8CC540" d="M757.3,476.2c0-0.4,0-0.8,0-1.2c0-26-20-47.2-44.6-47.2c-24.6,0-44.6,21.1-44.6,47.2c0,0.4,0,0.8,0,1.2
				H757.3z"/>
		</g>
		<g opacity="0.3">
			<path fill="#FFFFFF" d="M626.2,458.3c-1.4,0-2.5-1.1-2.5-2.5c0-10.3,8.8-18.6,19.6-18.6c1.4,0,2.5,1.1,2.5,2.5s-1.1,2.5-2.5,2.5
				c-8.1,0-14.6,6.1-14.6,13.6C628.7,457.1,627.6,458.3,626.2,458.3z"/>
		</g>
		<g id="XMLID_92_">
			<g>
				<rect x="343.7" y="290.7" fill="#F79954" width="267.9" height="21"/>
			</g>
		</g>
		<g>
			<rect x="694.3" y="263.4" fill="#F79954" width="46.9" height="49"/>
		</g>
		<g>
			<rect x="214.9" y="263.4" fill="#F79954" width="46.9" height="49"/>
		</g>
		<g id="XMLID_81_">
			<g>
				<rect x="215" y="311.6" fill="#F79954" width="526.3" height="169.1"/>
			</g>
		</g>
		<g>
			<g id="XMLID_1_">
				<g>
					<rect x="286.7" y="351.5" fill="#D07639" width="17.9" height="29"/>
				</g>
			</g>
		</g>
		<g>
			<g id="XMLID_24_">
				<g>
					<rect x="231.8" y="351.2" fill="#D07639" width="12.5" height="29"/>
				</g>
			</g>
		</g>
		<g>
			<g id="XMLID_26_">
				<g>
					<rect x="231.8" y="388.1" fill="#D07639" width="12.5" height="29"/>
				</g>
			</g>
		</g>
		<g>
			<g id="XMLID_28_">
				<g>
					<rect x="231.8" y="423" fill="#D07639" width="12.5" height="29"/>
				</g>
			</g>
		</g>
		<g>
			<g id="XMLID_4_">
				<g>
					<rect x="308.8" y="351.5" fill="#D07639" width="17.9" height="29"/>
				</g>
			</g>
		</g>
		<g>
			<g id="XMLID_6_">
				<g>
					<rect x="330.4" y="351.5" fill="#D07639" width="17.9" height="29"/>
				</g>
			</g>
		</g>
		<g>
			<g id="XMLID_8_">
				<g>
					<rect x="352.7" y="386.7" fill="#D07639" width="17.9" height="29"/>
				</g>
			</g>
		</g>
		<g>
			<g id="XMLID_10_">
				<g>
					<rect x="391" y="351.2" fill="#D07639" width="17.9" height="29"/>
				</g>
			</g>
		</g>
		<g>
			<g id="XMLID_12_">
				<g>
					<rect x="391" y="388.4" fill="#D07639" width="17.9" height="29"/>
				</g>
			</g>
		</g>
		<g>
			<g id="XMLID_14_">
				<g>
					<rect x="391" y="423" fill="#D07639" width="17.9" height="29"/>
				</g>
			</g>
		</g>
		<g>
			<g id="XMLID_16_">
				<g>
					<rect x="352.9" y="422.7" fill="#D07639" width="17.9" height="29"/>
				</g>
			</g>
		</g>
		<g>
			<g id="XMLID_18_">
				<g>
					<rect x="265.3" y="388.1" fill="#D07639" width="17.9" height="29"/>
				</g>
			</g>
		</g>
		<g>
			<g id="XMLID_20_">
				<g>
					<rect x="265.5" y="422.7" fill="#D07639" width="17.9" height="29"/>
				</g>
			</g>
		</g>
		<g>
			<g>
				<g id="XMLID_22_">
					<g>
						<rect x="264.7" y="351.5" fill="#D07639" width="17.9" height="29"/>
					</g>
				</g>
			</g>
		</g>
		<g>
			<g>
				<g id="XMLID_21_">
					<g>
						<rect x="352.9" y="351.5" fill="#D07639" width="17.9" height="29"/>
					</g>
				</g>
			</g>
		</g>
		<g>
			<path fill="#BA5827" d="M349.5,481.1H286v-96.8h63.6V481.1z M292,475.1h51.6v-84.8H292V475.1z"/>
		</g>
		<g>
			<path fill="#BA5827" d="M295.9,476.6"/>
		</g>
		<g>
			<path fill="#C0C0C0" d="M295.9,409v67.7h3.7h39.7V409C339.4,409,318.6,380.2,295.9,409z"/>
		</g>
		<g>
			<path fill="#E7E2E2" d="M299.8,426.2v50.4h39.6v-56.9c0,0-11.2-9-18.4-10C321,409.7,304.6,415,299.8,426.2z"/>
		</g>
		<g>
			<rect x="304.6" y="438.2" width="26.9" height="38.5"/>
		</g>
		<g>
			<path d="M311,430.4h13.8v-10.2c0,0-6.6-10.6-13.8,0V430.4z"/>
		</g>
		<g>
			<path fill="#B25C27" d="M231.6,290.7h12.8v-18.3c0,0-5.9-9.8-13.4,0v18.3H231.6z"/>
		</g>
		<g>
			<path fill="#B25C27" d="M217.5,290.7h9.3v-19.2c0,0-4.2-10.2-9.7,0v19.2H217.5z"/>
		</g>
		<g>
			<path fill="#B25C27" d="M250,291.3h9.3v-19.2c0,0-4.2-10.2-9.7,0v19.2H250z"/>
		</g>
		<g>
			<path fill="#B25C27" d="M246.8,310.5h-17.3v-15.6h17.3V310.5z M232.5,307.5h11.3v-9.6h-11.3V307.5z"/>
		</g>
		<g>
			<path fill="#B25C27" d="M228.3,310.5h-12.8v-15.6h12.8V310.5z M218.5,307.5h6.8v-9.6h-6.8V307.5z"/>
		</g>
		<g>
			<path fill="#B25C27" d="M260.8,310.5H248v-15.6h12.8V310.5z M251,307.5h6.8v-9.6H251V307.5z"/>
		</g>
		<g>
			<g id="XMLID_80_">
				<g>
					<rect x="651.3" y="351.5" fill="#D07639" width="17.9" height="29"/>
				</g>
			</g>
		</g>
		<g>
			<g id="XMLID_78_">
				<g>
					<rect x="711.7" y="351.2" fill="#D07639" width="12.5" height="29"/>
				</g>
			</g>
		</g>
		<g>
			<g id="XMLID_64_">
				<g>
					<rect x="711.7" y="388.1" fill="#D07639" width="12.5" height="29"/>
				</g>
			</g>
		</g>
		<g>
			<g id="XMLID_62_">
				<g>
					<rect x="711.7" y="423" fill="#D07639" width="12.5" height="29"/>
				</g>
			</g>
		</g>
		<g>
			<g id="XMLID_60_">
				<g>
					<rect x="629.3" y="351.5" fill="#D07639" width="17.9" height="29"/>
				</g>
			</g>
		</g>
		<g>
			<g id="XMLID_58_">
				<g>
					<rect x="607.6" y="351.5" fill="#D07639" width="17.9" height="29"/>
				</g>
			</g>
		</g>
		<g>
			<g id="XMLID_56_">
				<g>
					<rect x="585.3" y="386.7" fill="#D07639" width="17.9" height="29"/>
				</g>
			</g>
		</g>
		<g>
			<g id="XMLID_54_">
				<g>
					<rect x="547" y="351.2" fill="#D07639" width="17.9" height="29"/>
				</g>
			</g>
		</g>
		<g>
			<g id="XMLID_52_">
				<g>
					<rect x="547" y="388.4" fill="#D07639" width="17.9" height="29"/>
				</g>
			</g>
		</g>
		<g>
			<g id="XMLID_50_">
				<g>
					<rect x="547" y="423" fill="#D07639" width="17.9" height="29"/>
				</g>
			</g>
		</g>
		<g>
			<g id="XMLID_48_">
				<g>
					<rect x="585.1" y="422.7" fill="#D07639" width="17.9" height="29"/>
				</g>
			</g>
		</g>
		<g>
			<g id="XMLID_46_">
				<g>
					<rect x="672.7" y="388.1" fill="#D07639" width="17.9" height="29"/>
				</g>
			</g>
		</g>
		<g>
			<g id="XMLID_44_">
				<g>
					<rect x="672.5" y="422.7" fill="#D07639" width="17.9" height="29"/>
				</g>
			</g>
		</g>
		<g>
			<g>
				<g id="XMLID_42_">
					<g>
						<rect x="673.3" y="351.5" fill="#D07639" width="17.9" height="29"/>
					</g>
				</g>
			</g>
		</g>
		<g>
			<g>
				<g id="XMLID_41_">
					<g>
						<rect x="585.1" y="351.5" fill="#D07639" width="17.9" height="29"/>
					</g>
				</g>
			</g>
		</g>
		<g>
			<path fill="#BA5827" d="M670,481.1h-63.6v-96.8H670V481.1z M612.4,475.1H664v-84.8h-51.6V475.1z"/>
		</g>
		<g>
			<path fill="#BA5827" d="M660.1,476.6"/>
		</g>
		<g>
			<path fill="#C0C0C0" d="M660.1,409v67.7h-3.7h-39.7V409C616.6,409,637.4,380.2,660.1,409z"/>
		</g>
		<g>
			<path fill="#E7E2E2" d="M656.2,426.2v50.4h-39.6v-56.9c0,0,11.2-9,18.4-10C635,409.7,651.4,415,656.2,426.2z"/>
		</g>
		<g>
			<rect x="624.5" y="438.2" width="26.9" height="38.5"/>
		</g>
		<g>
			<path d="M644.9,430.4h-13.8v-10.2c0,0,6.6-10.6,13.8,0V430.4z"/>
		</g>
		<g>
			<path fill="#B25C27" d="M724.4,290.7h-12.8v-18.3c0,0,5.9-9.8,13.4,0v18.3H724.4z"/>
		</g>
		<g>
			<path fill="#B25C27" d="M738.5,290.7h-9.3v-19.2c0,0,4.2-10.2,9.7,0v19.2H738.5z"/>
		</g>
		<g>
			<path fill="#B25C27" d="M705.9,291.3h-9.3v-19.2c0,0,4.2-10.2,9.7,0v19.2H705.9z"/>
		</g>
		<g>
			<path fill="#B25C27" d="M726.4,310.5h-17.3v-15.6h17.3V310.5z M712.1,307.5h11.3v-9.6h-11.3V307.5z"/>
		</g>
		<g>
			<path fill="#B25C27" d="M740.4,310.5h-12.8v-15.6h12.8V310.5z M730.6,307.5h6.8v-9.6h-6.8V307.5z"/>
		</g>
		<g>
			<path fill="#B25C27" d="M707.9,310.5h-12.8v-15.6h12.8V310.5z M698.1,307.5h6.8v-9.6h-6.8V307.5z"/>
		</g>
		<g>
			<g id="XMLID_82_">
				<g>
					<polygon fill="#DE7B36" points="481.7,307.6 481.7,314.8 361.6,314.8 361.6,336.2 214.9,336.2 212.4,332.8 214.9,328.8 
						356.6,328.8 356.6,307.6 					"/>
				</g>
			</g>
			<g>
				<polygon fill="#BC6028" points="212.5,332.8 358.7,332.8 358.7,312.4 481.7,312.4 481.7,314.8 362.1,314.8 362.1,336.2 
					214.9,336.2 				"/>
			</g>
		</g>
		<g>
			<g id="XMLID_83_">
				<g>
					<polygon fill="#DE7B36" points="477,307.6 477,314.8 597.1,314.8 597.1,336.2 743.8,336.2 746.3,332.8 743.8,328.8 
						602.1,328.8 602.1,307.6 					"/>
				</g>
			</g>
			<g>
				<polygon fill="#BC6028" points="746.3,332.8 600.1,332.8 600.1,312.4 477.1,312.4 477.1,314.8 596.6,314.8 596.6,336.2 
					743.8,336.2 				"/>
			</g>
		</g>
		<g>
			<polygon fill="#F79954" points="203.8,260.9 214.9,254.9 261.2,254.9 272.4,260.9 			"/>
		</g>
		<g>
			<polygon fill="#9D5324" points="214.9,263.4 261.8,263.4 272.4,260.9 203.8,260.9 			"/>
		</g>
		<g>
			<rect x="214.9" y="251.6" fill="#E77A31" width="46.3" height="3.3"/>
		</g>
		<g>
			<polygon fill="#A55926" points="259.3,251.6 217,251.6 217,248 238.1,248 259.3,248 			"/>
		</g>
		<g>
			<rect x="235.5" y="213.2" fill="#D1783B" width="5.2" height="2.1"/>
		</g>
		<g>
			<rect x="237.2" y="197.9" width="1.8" height="15.4"/>
		</g>
		<g>
			<ellipse cx="238.1" cy="204.6" rx="2.3" ry="2.3"/>
		</g>
		<g id="XMLID_84_">
			<g>
				<path fill="#F79A51" d="M238.4,215.4V248h-21.3c0,0-11.4-15.3,18.8-32.6H238.4z"/>
			</g>
		</g>
		<g id="XMLID_85_">
			<g>
				<path fill="#F79A51" d="M238.1,215.4V248h21.1c0,0,11.2-15.3-18.5-32.6H238.1z"/>
			</g>
		</g>
		<g>
			<ellipse cx="238.1" cy="197.3" rx="2.3" ry="2.3"/>
		</g>
		<g>
			<polygon fill="#F79954" points="683.4,260.9 694.5,254.9 740.7,254.9 752,260.9 			"/>
		</g>
		<g>
			<polygon fill="#9D5324" points="694.5,263.4 741.3,263.4 752,260.9 683.4,260.9 			"/>
		</g>
		<g>
			<rect x="694.5" y="251.6" fill="#E77A31" width="46.3" height="3.3"/>
		</g>
		<g>
			<polygon fill="#A55926" points="738.9,251.6 696.6,251.6 696.6,248 717.7,248 738.9,248 			"/>
		</g>
		<g>
			<rect x="715.1" y="213.2" fill="#D1783B" width="5.2" height="2.1"/>
		</g>
		<g>
			<rect x="716.8" y="197.9" width="1.8" height="15.4"/>
		</g>
		<g>
			<ellipse cx="717.7" cy="204.6" rx="2.3" ry="2.3"/>
		</g>
		<g id="XMLID_87_">
			<g>
				<path fill="#F79A51" d="M718,215.4V248h-21.3c0,0-11.4-15.3,18.8-32.6H718z"/>
			</g>
		</g>
		<g id="XMLID_86_">
			<g>
				<path fill="#F79A51" d="M717.7,215.4V248h21.1c0,0,11.2-15.3-18.5-32.6H717.7z"/>
			</g>
		</g>
		<g>
			<ellipse cx="717.7" cy="197.3" rx="2.3" ry="2.3"/>
		</g>
		<g>
			<rect x="427.9" y="251.6" fill="#F79954" width="99.1" height="39.1"/>
		</g>
		<g id="XMLID_88_">
			<g>
				<path fill="#057C8B" d="M477.5,180.7v70.9h-49.6c-15.3-52.7,38.4-70.9,38.4-70.9H477.5z"/>
			</g>
		</g>
		<g id="XMLID_89_">
			<g>
				<path fill="#057C8B" d="M477.5,180.7v70.9h49.6c15.3-52.7-38.4-70.9-38.4-70.9H477.5z"/>
			</g>
		</g>
		<g>
			<path fill="#F79954" d="M466.3,180.6"/>
		</g>
		<g id="XMLID_90_">
			<g>
				<polygon fill="#C86E2F" points="459.1,251.6 459.1,290.7 427.9,290.7 427.9,251.6 453.1,251.6 				"/>
			</g>
		</g>
		<g id="XMLID_91_">
			<g>
				<rect x="495.8" y="251.6" fill="#C86E2F" width="31.2" height="39.1"/>
			</g>
		</g>
		<g>
			<rect x="459.1" y="268.1" fill="#DEC0AC" width="36.7" height="8.1"/>
		</g>
		<g>
			<rect x="419.3" y="268.1" fill="#B95927" width="8.6" height="8.1"/>
		</g>
		<g>
			<rect x="527" y="269" fill="#B95927" width="8.4" height="7.2"/>
		</g>
		<g>
			<g>
				<path fill="#BEB7B7" d="M436.9,476.1v-93c0,0,3.6-21.4,40.8-28.4v121.4h-33.6H436.9z"/>
			</g>
			<g>
				<path fill="#BEB7B7" d="M518.3,476.1v-93c0,0-3.7-21.4-41.2-28.4v121.4H518.3z"/>
			</g>
		</g>
		<g>
			<path fill="#F6F7F7" d="M443.9,420.7v56h73.7v-67.2c0,0-20.4-15.5-34.3-16.1C469.3,392.8,443.9,414.4,443.9,420.7z"/>
		</g>
		<g>
			<g>
				<path d="M457.6,476.3v-46.9c0,0,1.8-10.8,20.6-14.3v61.2H457.6z"/>
			</g>
			<g>
				<path d="M498.6,476.3v-46.9c0,0-1.8-10.8-20.8-14.3v61.2H498.6z"/>
			</g>
		</g>
		<g>
			<rect x="477.5" y="138" width="1.6" height="33.8"/>
		</g>
		<g>
			<rect x="475.5" y="164.6" width="5.4" height="1.8"/>
		</g>
		<g>
			<rect x="475.6" y="153.1" width="5.4" height="1.8"/>
		</g>
		<g>
			<rect x="475.6" y="141.6" width="5.4" height="1.8"/>
		</g>
		<g>
			<path d="M481.1,149.1c0,1.5-1.2,2.8-2.8,2.8c-1.5,0-2.8-1.2-2.8-2.8c0-1.5,1.2-2.8,2.8-2.8C479.8,146.4,481.1,147.6,481.1,149.1z
				"/>
		</g>
		<g>
			<path d="M481,159.9c0,1.5-1.2,2.8-2.8,2.8c-1.5,0-2.8-1.2-2.8-2.8c0-1.5,1.2-2.8,2.8-2.8C479.7,157.1,481,158.3,481,159.9z"/>
		</g>
		<g id="XMLID_93_">
			<g>
				<polygon fill="#1CACB5" points="488.6,180.7 466.3,180.7 478.2,174.8 				"/>
			</g>
		</g>
		<g>
			<ellipse fill="#1CACB5" cx="478.3" cy="174.8" rx="3.3" ry="3.3"/>
		</g>
		<g id="XMLID_94_">
			<g>
				<path fill="#139FAA" d="M477.9,180.7v70.9h-25.1C443.7,211.5,477.9,180.7,477.9,180.7z"/>
			</g>
		</g>
		<g id="XMLID_95_">
			<g>
				<path fill="#139FAA" d="M477.9,180.7v70.9H503C512.2,211.5,477.9,180.7,477.9,180.7z"/>
			</g>
		</g>
		<g>
			<path fill="#A65225" d="M538.8,484.2H417.3V337.4h121.4V484.2z M425.3,476.2h105.4V345.4H425.3V476.2z"/>
		</g>
		<g>
			<path fill="#515252" d="M847,486.4c0,6.1-6.2,11-13.9,11H132.3c-7.7,0-13.9-4.9-13.9-11l0,0c0-6.1,6.2-11.1,13.9-11.1h700.8
				C840.8,475.4,847,480.3,847,486.4L847,486.4z"/>
		</g>
		<g>
			<path fill="#F1F1F1" d="M666.4,170.7c0.9-2.2,1.4-4.7,1.4-7.2c0-9.9-7.6-17.9-16.9-17.9c-2.4,0-4.7,0.5-6.8,1.5
				c-4-7.9-11.9-13.2-20.9-13.2c-13.1,0-23.7,11.3-23.7,25.2c0,4.2,1,8.2,2.7,11.7H666.4z"/>
		</g>
		<g>
			<path fill="#F1F1F1" d="M592.1,168.2c0,2.2-1.7,3.9-3.7,3.9h-20.7c-2,0-3.7-1.8-3.7-3.9l0,0c0-2.2,1.7-3.9,3.7-3.9h20.7
				C590.5,164.2,592.1,166,592.1,168.2L592.1,168.2z"/>
		</g>
		<g>
			<g>
				<path fill="#F1F1F1" d="M359.9,210c0.7-1.8,1.2-3.8,1.2-5.8c0-8-6.1-14.5-13.7-14.5c-2,0-3.8,0.4-5.5,1.2
					c-3.2-6.4-9.6-10.7-16.9-10.7c-10.6,0-19.2,9.1-19.2,20.4c0,3.4,0.8,6.6,2.2,9.4H359.9z"/>
			</g>
			<g>
				<path fill="#F1F1F1" d="M299.9,207.9c0,1.8-1.3,3.2-3,3.2h-16.8c-1.7,0-3-1.4-3-3.2l0,0c0-1.8,1.3-3.2,3-3.2h16.8
					C298.5,204.8,299.9,206.2,299.9,207.9L299.9,207.9z"/>
			</g>
		</g>
	</g>
</g>
<g id="Layer_2">
</g>
</svg>
