<?xml version="1.0" encoding="utf-8"?>
<!-- Generator: Adobe Illustrator 17.0.0, SVG Export Plug-In . SVG Version: 6.00 Build 0)  -->
<!DOCTYPE svg PUBLIC "-//W3C//DTD SVG 1.1//EN" "http://www.w3.org/Graphics/SVG/1.1/DTD/svg11.dtd">
<svg version="1.1"
	 id="svg3541" xmlns:dc="http://purl.org/dc/elements/1.1/" xmlns:rdf="http://www.w3.org/1999/02/22-rdf-syntax-ns#" xmlns:cc="http://creativecommons.org/ns#" xmlns:svg="http://www.w3.org/2000/svg" xmlns:sodipodi="http://sodipodi.sourceforge.net/DTD/sodipodi-0.dtd" xmlns:inkscape="http://www.inkscape.org/namespaces/inkscape" sodipodi:docname="New document 3" inkscape:version="0.48.5 r10040"
	 xmlns="http://www.w3.org/2000/svg" xmlns:xlink="http://www.w3.org/1999/xlink" x="0px" y="0px" width="306.029px"
	 height="353.372px" viewBox="387.362 196.03 306.029 353.372" enable-background="new 387.362 196.03 306.029 353.372"
	 xml:space="preserve">
<polygon fill="#74A9CF" enable-background="new    " points="387.362,284.373 540.376,196.03 693.39,284.373 693.39,461.059 
	540.376,549.402 387.362,461.059 "/>
<g>
	<g opacity="0.4">
		<circle fill="#FFFFFF" cx="486.629" cy="347.215" r="9"/>
	</g>
	<g opacity="0.4">
		<circle fill="#FFFFFF" cx="522.629" cy="347.215" r="9"/>
	</g>
	<g opacity="0.4">
		<circle fill="#FFFFFF" cx="558.629" cy="347.215" r="9"/>
	</g>
	<g opacity="0.4">
		<circle fill="#FFFFFF" cx="594.629" cy="347.215" r="9"/>
	</g>
	<g opacity="0.7" enable-background="new    ">
		<circle fill="#FFFFFF" cx="486.629" cy="320.215" r="9"/>
	</g>
	<g opacity="0.7" enable-background="new    ">
		<circle fill="#FFFFFF" cx="522.629" cy="320.215" r="9"/>
	</g>
	<g opacity="0.7" enable-background="new    ">
		<circle fill="#FFFFFF" cx="558.629" cy="320.215" r="9"/>
	</g>
	<g opacity="0.7" enable-background="new    ">
		<circle fill="#FFFFFF" cx="594.629" cy="320.215" r="9"/>
	</g>
	<g enable-background="new    ">
		<circle fill="#FFFFFF" cx="486.629" cy="293.215" r="9"/>
	</g>
	<g enable-background="new    ">
		<circle fill="#FFFFFF" cx="522.629" cy="293.215" r="9"/>
	</g>
	<g enable-background="new    ">
		<circle fill="#FFFFFF" cx="558.629" cy="293.215" r="9"/>
	</g>
	<g enable-background="new    ">
		<circle fill="#FFFFFF" cx="594.629" cy="293.215" r="9"/>
	</g>
	<g>
		<path fill="#FFFFFF" d="M492.708,368.875c9.42,0,14.88,6.6,14.88,16.739c0,10.2-5.52,16.8-14.939,16.8s-14.939-6.36-14.939-16.8
			C477.709,375.655,483.289,368.875,492.708,368.875z M492.708,374.695c-4.499,0-6.96,3.42-6.96,10.919
			c0,7.62,2.4,10.979,6.9,10.979c4.56,0,6.899-3.359,6.899-10.979C499.548,378.115,497.208,374.695,492.708,374.695z"/>
		<path fill="#FFFFFF" d="M511.969,414.594v-44.818h6.719l0.42,3.899c2.521-3.3,5.881-4.8,9.18-4.8c8.4,0,11.88,6.54,11.88,16.68
			c0,9.72-4.499,16.859-12.539,16.859c-3.24,0-6-1.14-7.979-3.48v14.82L511.969,414.594z M532.127,385.614
			c0-8.039-2.159-10.979-6.119-10.979c-2.641,0-4.859,1.92-6.359,4.26v14.34c1.439,2.22,3.42,3.3,5.819,3.3
			C529.668,396.534,532.127,393.294,532.127,385.614z"/>
		<path fill="#FFFFFF" d="M550.428,388.015c0.6,6,3.54,8.579,7.8,8.579c2.7,0,4.979-0.779,7.68-2.939l3.3,4.62
			c-3,2.46-6.84,4.14-11.46,4.14c-10.199,0-15.299-6.899-15.299-16.739c0-9.479,5.1-16.8,14.279-16.8c8.699,0,13.8,6,13.8,16.02
			c0,1.021-0.12,2.28-0.181,3.12H550.428z M550.368,383.035h12.539c-0.06-5.46-1.74-8.7-6.12-8.7
			C553.128,374.335,550.788,377.035,550.368,383.035z"/>
		<path fill="#FFFFFF" d="M592.727,379.075c0-3.181-1.2-4.44-3.9-4.44c-2.64,0-4.8,2.04-6.539,4.44v22.438h-7.68v-31.738h6.659
			l0.54,3.96c2.7-3.18,6.24-4.86,9.96-4.86c5.88,0,8.64,3.48,8.64,9.42v23.219h-7.68V379.075z"/>
		<path fill="#FFFFFF" d="M495.498,469.654c-8.513,0-14.973-2.965-19.305-7.221l5.396-5.929c3.724,3.421,8.132,5.396,13.528,5.396
			c5.624,0,9.729-2.736,9.729-7.828c0-4.332-2.28-6.385-10.261-8.893c-11.248-3.42-15.885-7.828-15.885-15.809
			c0-8.893,7.752-14.517,18.013-14.517c7.677,0,12.845,2.279,17.329,6.46l-5.092,5.776c-3.572-3.192-7.297-4.561-11.553-4.561
			c-4.865,0-8.285,2.128-8.285,6.232c0,3.801,1.9,5.473,10.641,8.209c9.197,2.964,15.581,6.688,15.581,16.492
			C515.335,462.966,507.887,469.654,495.498,469.654z"/>
		<path fill="#FFFFFF" d="M545.658,468.514l-17.48-42.106h-0.305c0.456,2.28,1.521,10.945,1.521,19.686v22.421h-9.196v-52.519
			h12.844l17.709,42.258h0.305c-0.532-2.584-1.444-10.185-1.444-19.685v-22.573h9.196v52.519H545.658z"/>
		<path fill="#FFFFFF" d="M583.962,450.197h-6.08v18.316h-10.108v-52.519h15.276c13.528,0,21.509,5.396,21.509,16.721
			C604.559,445.028,596.122,450.197,583.962,450.197z M583.43,423.367h-5.548v19.306h5.852c6.232,0,10.337-2.433,10.337-9.957
			C594.07,426.104,590.042,423.367,583.43,423.367z"/>
	</g>
</g>
</svg>
