<?xml version="1.0" encoding="utf-8"?>
<!-- Generator: Adobe Illustrator 17.0.0, SVG Export Plug-In . SVG Version: 6.00 Build 0)  -->
<!DOCTYPE svg PUBLIC "-//W3C//DTD SVG 1.1//EN" "http://www.w3.org/Graphics/SVG/1.1/DTD/svg11.dtd">
<svg version="1.1"
	 id="svg3541" xmlns:dc="http://purl.org/dc/elements/1.1/" xmlns:rdf="http://www.w3.org/1999/02/22-rdf-syntax-ns#" xmlns:cc="http://creativecommons.org/ns#" xmlns:svg="http://www.w3.org/2000/svg" xmlns:sodipodi="http://sodipodi.sourceforge.net/DTD/sodipodi-0.dtd" xmlns:inkscape="http://www.inkscape.org/namespaces/inkscape" sodipodi:docname="New document 3" inkscape:version="0.48.5 r10040"
	 xmlns="http://www.w3.org/2000/svg" xmlns:xlink="http://www.w3.org/1999/xlink" x="0px" y="0px" width="127.436px"
	 height="185.439px" viewBox="237.009 120.138 127.436 185.439" enable-background="new 237.009 120.138 127.436 185.439"
	 xml:space="preserve">
<g>
	<circle fill="#74A9CF" cx="247.445" cy="183.138" r="9"/>
</g>
<g>
	<circle fill="#74A9CF" cx="283.445" cy="183.138" r="9"/>
</g>
<g>
	<circle fill="#74A9CF" cx="319.445" cy="183.138" r="9"/>
</g>
<g>
	<circle fill="#74A9CF" cx="355.445" cy="183.138" r="9"/>
</g>
<g enable-background="new    ">
	<circle fill="#2B8CBE" cx="247.445" cy="156.138" r="9"/>
</g>
<g enable-background="new    ">
	<circle fill="#2B8CBE" cx="283.445" cy="156.138" r="9"/>
</g>
<g enable-background="new    ">
	<circle fill="#2B8CBE" cx="319.445" cy="156.138" r="9"/>
</g>
<g enable-background="new    ">
	<circle fill="#2B8CBE" cx="355.445" cy="156.138" r="9"/>
</g>
<g enable-background="new    ">
	<circle fill="#045A8D" cx="247.445" cy="129.138" r="9"/>
</g>
<g enable-background="new    ">
	<circle fill="#045A8D" cx="283.445" cy="129.138" r="9"/>
</g>
<g enable-background="new    ">
	<circle fill="#045A8D" cx="319.445" cy="129.138" r="9"/>
</g>
<g enable-background="new    ">
	<circle fill="#045A8D" cx="355.445" cy="129.138" r="9"/>
</g>
<g>
	<path fill="#55565A" d="M253.524,204.798c9.42,0,14.879,6.6,14.879,16.739c0,10.2-5.52,16.799-14.939,16.799
		c-9.42,0-14.939-6.36-14.939-16.799C238.525,211.578,244.105,204.798,253.524,204.798z M253.524,210.618
		c-4.5,0-6.959,3.42-6.959,10.919c0,7.62,2.4,10.979,6.9,10.979c4.56,0,6.899-3.36,6.899-10.979
		C260.364,214.038,258.024,210.618,253.524,210.618z"/>
	<path fill="#55565A" d="M272.784,250.517v-44.818h6.72l0.42,3.9c2.52-3.3,5.88-4.8,9.18-4.8c8.4,0,11.879,6.54,11.879,16.679
		c0,9.72-4.5,16.859-12.539,16.859c-3.24,0-6-1.14-7.98-3.48v14.82L272.784,250.517z M292.943,221.538
		c0-8.04-2.16-10.979-6.12-10.979c-2.64,0-4.86,1.92-6.36,4.26v14.339c1.44,2.22,3.42,3.3,5.82,3.3
		C290.483,232.457,292.943,229.217,292.943,221.538z"/>
	<path fill="#55565A" d="M311.244,223.938c0.6,6,3.54,8.58,7.8,8.58c2.7,0,4.979-0.78,7.68-2.94l3.3,4.62
		c-3,2.46-6.84,4.14-11.46,4.14c-10.199,0-15.299-6.899-15.299-16.739c0-9.479,5.1-16.799,14.279-16.799c8.699,0,13.8,6,13.8,16.02
		c0,1.02-0.12,2.28-0.181,3.12H311.244z M311.184,218.958h12.539c-0.06-5.46-1.74-8.7-6.12-8.7
		C313.944,210.258,311.604,212.958,311.184,218.958z"/>
	<path fill="#55565A" d="M353.543,214.998c0-3.18-1.2-4.44-3.9-4.44c-2.64,0-4.8,2.04-6.539,4.44v22.439h-7.68v-31.739h6.659
		l0.54,3.96c2.7-3.18,6.24-4.86,9.96-4.86c5.88,0,8.64,3.48,8.64,9.419v23.219h-7.68V214.998z"/>
	<path fill="#55565A" d="M256.314,305.577c-8.513,0-14.973-2.964-19.305-7.221l5.396-5.928c3.724,3.42,8.132,5.396,13.529,5.396
		c5.624,0,9.729-2.736,9.729-7.829c0-4.332-2.28-6.384-10.261-8.892c-11.249-3.42-15.885-7.829-15.885-15.809
		c0-8.893,7.752-14.517,18.013-14.517c7.677,0,12.845,2.28,17.329,6.46l-5.092,5.776c-3.572-3.192-7.296-4.56-11.553-4.56
		c-4.864,0-8.284,2.128-8.284,6.232c0,3.8,1.9,5.472,10.641,8.208c9.196,2.964,15.581,6.688,15.581,16.493
		C276.151,298.889,268.703,305.577,256.314,305.577z"/>
	<path fill="#55565A" d="M306.474,304.437l-17.481-42.106h-0.304c0.456,2.28,1.521,10.945,1.521,19.685v22.421h-9.197v-52.519
		h12.845l17.708,42.258h0.305c-0.532-2.584-1.444-10.185-1.444-19.685v-22.573h9.196v52.519H306.474z"/>
	<path fill="#55565A" d="M344.778,286.12h-6.08v18.317h-10.108v-52.519h15.276c13.528,0,21.509,5.396,21.509,16.721
		C365.375,280.952,356.938,286.12,344.778,286.12z M344.246,259.291h-5.548v19.305h5.852c6.232,0,10.337-2.432,10.337-9.957
		C354.886,262.027,350.858,259.291,344.246,259.291z"/>
</g>
</svg>
