<svg id="Assets" xmlns="http://www.w3.org/2000/svg" xmlns:xlink="http://www.w3.org/1999/xlink" viewBox="0 0 1658 504"><defs><style>.cls-1{font-size:153.3px;font-family:FirefoxSharpSans-Medium, Firefox Sharp Sans;letter-spacing:-0.04em;}.cls-1,.cls-8{fill:#fff;}.cls-2{letter-spacing:-0.02em;}.cls-3{letter-spacing:-0.02em;}.cls-4{letter-spacing:-0.02em;}.cls-5{letter-spacing:-0.06em;}.cls-6{letter-spacing:-0.02em;}.cls-7{letter-spacing:0em;}.cls-9{fill:url(#linear-gradient);}.cls-10{fill:url(#linear-gradient-2);}.cls-11{fill:url(#linear-gradient-3);}.cls-12{fill:url(#linear-gradient-4);}.cls-13,.cls-15{opacity:0.9;}.cls-13{fill:url(#linear-gradient-5);}.cls-14{fill:none;}.cls-15{fill:url(#linear-gradient-6);}</style><linearGradient id="linear-gradient" x1="324.83" y1="147.61" x2="193.55" y2="374.99" gradientUnits="userSpaceOnUse"><stop offset="0" stop-color="#ff980e"/><stop offset="0.21" stop-color="#ff7139"/><stop offset="0.36" stop-color="#ff5854"/><stop offset="0.46" stop-color="#ff4f5e"/><stop offset="0.69" stop-color="#ff3750"/><stop offset="0.86" stop-color="#f92261"/><stop offset="1" stop-color="#f5156c"/></linearGradient><linearGradient id="linear-gradient-2" x1="324.83" y1="147.61" x2="193.55" y2="374.99" gradientUnits="userSpaceOnUse"><stop offset="0" stop-color="#fff44f" stop-opacity="0.8"/><stop offset="0.09" stop-color="#fff44f" stop-opacity="0.7"/><stop offset="0.75" stop-color="#fff44f" stop-opacity="0"/></linearGradient><linearGradient id="linear-gradient-3" x1="325.33" y1="401.1" x2="325.33" y2="130.58" gradientUnits="userSpaceOnUse"><stop offset="0" stop-color="#3a8ee6"/><stop offset="0.24" stop-color="#5c79f0"/><stop offset="0.63" stop-color="#9059ff"/><stop offset="1" stop-color="#c139e6"/></linearGradient><linearGradient id="linear-gradient-4" x1="279.34" y1="120.6" x2="399.55" y2="240.81" gradientUnits="userSpaceOnUse"><stop offset="0" stop-color="#6e008b" stop-opacity="0.5"/><stop offset="0.5" stop-color="#c846cb" stop-opacity="0"/></linearGradient><linearGradient id="linear-gradient-5" x1="400.27" y1="268.68" x2="331.02" y2="337.92" gradientUnits="userSpaceOnUse"><stop offset="0.14" stop-color="#6a2bea" stop-opacity="0"/><stop offset="0.34" stop-color="#642de4" stop-opacity="0.03"/><stop offset="0.55" stop-color="#5131d3" stop-opacity="0.12"/><stop offset="0.76" stop-color="#3139b7" stop-opacity="0.27"/><stop offset="0.98" stop-color="#054490" stop-opacity="0.48"/><stop offset="1" stop-color="#00458b" stop-opacity="0.5"/></linearGradient><linearGradient id="linear-gradient-6" x1="296.47" y1="312.8" x2="312.7" y2="332.15" gradientUnits="userSpaceOnUse"><stop offset="0" stop-color="#960e18" stop-opacity="0.6"/><stop offset="0.19" stop-color="#ac1624" stop-opacity="0.48"/><stop offset="0.58" stop-color="#e42c41" stop-opacity="0.16"/><stop offset="0.75" stop-color="#ff3750" stop-opacity="0"/></linearGradient></defs><title>FF_Monitor_</title><text class="cls-1" transform="translate(980 307.73)">M<tspan class="cls-2" x="126.16" y="0">o</tspan><tspan class="cls-3" x="224.77" y="0">n</tspan><tspan class="cls-4" x="320.12" y="0">i</tspan><tspan class="cls-5" x="351.7" y="0">t</tspan><tspan class="cls-6" x="406.12" y="0">o</tspan><tspan class="cls-7" x="504.74" y="0">r</tspan></text><path class="cls-8" d="M448.29,195.7h74.87V216H469.77v27.46h53.39v20.1H469.77V307.7H448.29Zm100.34-7.83c7.36,0,12.43,5.37,12.43,12.58S556.15,213,548.47,213c-7.36,0-12.42-5.21-12.42-12.27C536.05,193.09,541.72,187.87,548.63,187.87Zm-10.59,37h21.17V307.7H538Zm82.55,23a17.1,17.1,0,0,0-10.28-3.68c-8.6,0-13.51,5.52-13.51,17.64V307.7h-21V224.85h20.1v12c4.3-9.35,10.9-12.73,19.8-12.73a25,25,0,0,1,14.11,4.3Zm8.74,18.87c0-23.78,17.64-43.57,42.65-43.57s42.5,17.64,42.5,42.19v8.75H650c2.3,10.43,10.44,17.33,22.86,17.33,9.67,0,16.27-4.6,20.56-12.27l17.65,10.59c-8.75,12.88-21.18,19.64-38.82,19.64C645.44,309.39,629.33,291.43,629.33,266.73Zm21-9.36h43.57C691.62,246.79,683,241,671.83,241,661.7,241,653.27,246.63,650.35,257.37Zm69.35-32.52h14.88V220.7c0-22.55,9.51-31.91,30.38-31.91h7.37v18.26h-6c-9.82,0-12,3.37-12,13.65v4.15h18v19h-17.5V307.7H734.58V243.87H719.7Zm56.61,41.42c0-23.78,18.11-43.11,43.27-43.11a43.12,43.12,0,1,1,0,86.23C793.81,309.39,776.31,290.51,776.31,266.27Zm66,0c0-13.19-9.82-23.47-22.71-23.47-13,0-22.71,10.28-22.71,23.47s9.67,23.48,22.71,23.48C832.47,289.75,842.29,279.47,842.29,266.27Zm49.1-.92-29.92-40.5h24.85L904,250.32l18.1-25.47h24.4L916.09,265.2,948,307.7H923.3l-19.79-27-19.18,27h-24.7Z"/><path class="cls-9" d="M375,170.51l-28.16-16.13-64.27-36.81h0l-2-1.15a34.37,34.37,0,0,0-34,0l-2,1.16h0l-90.4,51.78h0l-2,1.16a33.79,33.79,0,0,0-17,29.23v108.2a33.82,33.82,0,0,0,17,29.24l92.43,52.93A14.23,14.23,0,0,0,263.82,385a14,14,0,0,0-5.19-19.21L168.23,314a9.66,9.66,0,0,1-4.87-8.36V202.07a9.65,9.65,0,0,1,4.87-8.36l16-9.17,74.43-42.62a9.81,9.81,0,0,1,9.7,0l90.43,51.79a9.67,9.67,0,0,1,4.85,8.35V305.62a9.66,9.66,0,0,1-4.87,8.36L328.18,331.5l-15.44-23.28a72.68,72.68,0,0,0,24.49-54.38c0-40.33-33.07-73.14-73.73-73.14s-73.73,32.81-73.73,73.14S222.84,327,263.5,327a73.83,73.83,0,0,0,24.89-4.3L311.84,358a16.72,16.72,0,0,0,1.19,1.55l.25.25a13.11,13.11,0,0,0,1.61,1.47c.14.11.27.23.42.34a14.19,14.19,0,0,0,2,1.21l.48.22a15.31,15.31,0,0,0,1.92.71l.44.14a14.33,14.33,0,0,0,2.27.37l.63,0c.22,0,.43,0,.65,0,.43,0,.86-.05,1.28-.09.2,0,.39,0,.59,0a14.11,14.11,0,0,0,2.38-.54c.21-.06.41-.15.62-.23a13.08,13.08,0,0,0,1.8-.81c.13-.07.28-.1.41-.18L375,337.18a33.83,33.83,0,0,0,17-29.24V199.74A33.79,33.79,0,0,0,375,170.51ZM218.12,253.84a45.38,45.38,0,1,1,45.38,45A45.25,45.25,0,0,1,218.12,253.84Z"/><path class="cls-10" d="M375,170.51l-28.16-16.13-64.27-36.81h0l-2-1.15a34.37,34.37,0,0,0-34,0l-2,1.16h0l-90.4,51.78h0l-2,1.16a33.79,33.79,0,0,0-17,29.23v108.2a33.82,33.82,0,0,0,17,29.24l92.43,52.93A14.23,14.23,0,0,0,263.82,385a14,14,0,0,0-5.19-19.21L168.23,314a9.66,9.66,0,0,1-4.87-8.36V202.07a9.65,9.65,0,0,1,4.87-8.36l16-9.17,74.43-42.62a9.81,9.81,0,0,1,9.7,0l90.43,51.79a9.67,9.67,0,0,1,4.85,8.35V305.62a9.66,9.66,0,0,1-4.87,8.36L328.18,331.5l-15.44-23.28a72.68,72.68,0,0,0,24.49-54.38c0-40.33-33.07-73.14-73.73-73.14s-73.73,32.81-73.73,73.14S222.84,327,263.5,327a73.83,73.83,0,0,0,24.89-4.3L311.84,358a16.72,16.72,0,0,0,1.19,1.55l.25.25a13.11,13.11,0,0,0,1.61,1.47c.14.11.27.23.42.34a14.19,14.19,0,0,0,2,1.21l.48.22a15.31,15.31,0,0,0,1.92.71l.44.14a14.33,14.33,0,0,0,2.27.37l.63,0c.22,0,.43,0,.65,0,.43,0,.86-.05,1.28-.09.2,0,.39,0,.59,0a14.11,14.11,0,0,0,2.38-.54c.21-.06.41-.15.62-.23a13.08,13.08,0,0,0,1.8-.81c.13-.07.28-.1.41-.18L375,337.18a33.83,33.83,0,0,0,17-29.24V199.74A33.79,33.79,0,0,0,375,170.51ZM218.12,253.84a45.38,45.38,0,1,1,45.38,45A45.25,45.25,0,0,1,218.12,253.84Z"/><path class="cls-11" d="M375,170.51l-28.16-16.13-39.26-22.49a30.29,30.29,0,0,0-29.25-.44l-19.65,10.47a9.81,9.81,0,0,1,9.7,0l90.43,51.79a9.67,9.67,0,0,1,4.85,8.35V305.62a9.63,9.63,0,0,1-4.87,8.36L328.18,331.5l4.77,7.63a20,20,0,0,0,26.91,6.71L375,337.18a33.72,33.72,0,0,0,17-29.24V199.74A33.7,33.7,0,0,0,375,170.51Z"/><path class="cls-12" d="M363.64,202.07v50.25H392V199.74a33.7,33.7,0,0,0-17-29.23l-28.16-16.13-39.26-22.49a30.29,30.29,0,0,0-29.25-.44l-19.65,10.47a9.81,9.81,0,0,1,9.7,0l90.43,51.79A9.67,9.67,0,0,1,363.64,202.07Z"/><path class="cls-13" d="M363.64,260.41v45.21a9.63,9.63,0,0,1-4.87,8.36L328.18,331.5l4.77,7.63a20,20,0,0,0,26.91,6.71L375,337.18a33.72,33.72,0,0,0,17-29.24V260.41Z"/><ellipse class="cls-14" cx="263.5" cy="253.84" rx="45.38" ry="45.01"/><path class="cls-15" d="M326,328.22l-13.27-20a74,74,0,0,1-24.35,14.46L302.5,344Q314.44,336.35,326,328.22Z"/></svg>