<svg id="Assets" xmlns="http://www.w3.org/2000/svg" xmlns:xlink="http://www.w3.org/1999/xlink" viewBox="0 0 917 448"><defs><style>.cls-1{fill:#fff;}.cls-2{fill:url(#linear-gradient);}.cls-3{fill:url(#linear-gradient-2);}.cls-4{fill:url(#linear-gradient-3);}.cls-5{fill:url(#linear-gradient-4);}.cls-6,.cls-8{opacity:0.9;}.cls-6{fill:url(#linear-gradient-5);}.cls-7{fill:none;}.cls-8{fill:url(#linear-gradient-6);}</style><linearGradient id="linear-gradient" x1="296.46" y1="119.72" x2="165.18" y2="347.09" gradientUnits="userSpaceOnUse"><stop offset="0" stop-color="#ff980e"/><stop offset="0.21" stop-color="#ff7139"/><stop offset="0.36" stop-color="#ff5854"/><stop offset="0.46" stop-color="#ff4f5e"/><stop offset="0.69" stop-color="#ff3750"/><stop offset="0.86" stop-color="#f92261"/><stop offset="1" stop-color="#f5156c"/></linearGradient><linearGradient id="linear-gradient-2" x1="296.46" y1="119.72" x2="165.18" y2="347.09" gradientUnits="userSpaceOnUse"><stop offset="0" stop-color="#fff44f" stop-opacity="0.8"/><stop offset="0.09" stop-color="#fff44f" stop-opacity="0.7"/><stop offset="0.75" stop-color="#fff44f" stop-opacity="0"/></linearGradient><linearGradient id="linear-gradient-3" x1="296.96" y1="373.2" x2="296.96" y2="102.68" gradientUnits="userSpaceOnUse"><stop offset="0" stop-color="#3a8ee6"/><stop offset="0.24" stop-color="#5c79f0"/><stop offset="0.63" stop-color="#9059ff"/><stop offset="1" stop-color="#c139e6"/></linearGradient><linearGradient id="linear-gradient-4" x1="250.97" y1="92.7" x2="371.18" y2="212.91" gradientUnits="userSpaceOnUse"><stop offset="0" stop-color="#6e008b" stop-opacity="0.5"/><stop offset="0.5" stop-color="#c846cb" stop-opacity="0"/></linearGradient><linearGradient id="linear-gradient-5" x1="371.9" y1="240.78" x2="302.66" y2="310.03" gradientUnits="userSpaceOnUse"><stop offset="0.14" stop-color="#6a2bea" stop-opacity="0"/><stop offset="0.34" stop-color="#642de4" stop-opacity="0.03"/><stop offset="0.55" stop-color="#5131d3" stop-opacity="0.12"/><stop offset="0.76" stop-color="#3139b7" stop-opacity="0.27"/><stop offset="0.98" stop-color="#054490" stop-opacity="0.48"/><stop offset="1" stop-color="#00458b" stop-opacity="0.5"/></linearGradient><linearGradient id="linear-gradient-6" x1="268.1" y1="284.9" x2="284.33" y2="304.25" gradientUnits="userSpaceOnUse"><stop offset="0" stop-color="#960e18" stop-opacity="0.6"/><stop offset="0.19" stop-color="#ac1624" stop-opacity="0.48"/><stop offset="0.58" stop-color="#e42c41" stop-opacity="0.16"/><stop offset="0.75" stop-color="#ff3750" stop-opacity="0"/></linearGradient></defs><title>FF_Monitor_</title><path class="cls-1" d="M419.89,238.24h9.51l29.69,41.15,30.84-41.15H499v83.68H489.7V253L459,294.29l-29.69-40.35v68h-9.4Z"/><path class="cls-1" d="M510.45,291a32.16,32.16,0,1,1,32.1,32.21C524.32,323.18,510.45,309.2,510.45,291Zm54.8,0c0-13.18-9.86-23.39-22.7-23.39S520,277.79,520,291s9.74,23.27,22.58,23.27S565.25,304.15,565.25,291Z"/><path class="cls-1" d="M586.61,260h9.17v10.31c4.24-6.87,11.92-11.57,21.55-11.57,16.16,0,26.37,10.54,26.37,27.85v35.31h-9.52V287.07c0-12-6.65-19.83-18.69-19.83-11,0-19.48,8.37-19.48,20.29v34.39h-9.4Z"/><path class="cls-1" d="M662.73,233.54a7.45,7.45,0,1,1-7.34,7.45A7.23,7.23,0,0,1,662.73,233.54ZM658,260h9.51v61.9H658Z"/><path class="cls-1" d="M675.91,260h12V246.38l9.28-6V260h18.12v8.37H697.23V303c0,7.91,3.67,11,8.94,11a10,10,0,0,0,7.11-3l4.93,7.45a19.86,19.86,0,0,1-12.72,4.36c-11.35,0-17.54-6-17.54-19.6V268.39h-12Z"/><path class="cls-1" d="M719.82,291a32.16,32.16,0,1,1,32.1,32.21C733.69,323.18,719.82,309.2,719.82,291Zm54.79,0c0-13.18-9.86-23.39-22.69-23.39S729.33,277.79,729.33,291s9.75,23.27,22.59,23.27S774.61,304.15,774.61,291Z"/><path class="cls-1" d="M796,260H805v11.69c2.63-8.25,8.82-12.61,17.65-12.61,4.24,0,7.91.8,10.32,2.29l-3.9,8.94a13.61,13.61,0,0,0-7.56-1.94c-10.32,0-16.28,6-16.28,19.6v33.93H796Z"/><path class="cls-1" d="M419.63,126.31h55.74v15.08H435.62v20.45h39.75v15H435.62v32.9h-16Zm74.71-5.82a9.37,9.37,0,0,1-.12,18.73,8.85,8.85,0,0,1-9.25-9.14A9.25,9.25,0,0,1,494.34,120.49ZM486.45,148h15.77V209.7H486.45Zm61.46,17.13a12.72,12.72,0,0,0-7.65-2.74c-6.4,0-10.06,4.11-10.06,13.14V209.7H514.55V148h15v8.91c3.2-7,8.11-9.48,14.73-9.48a18.71,18.71,0,0,1,10.51,3.19Zm6.51,14c0-17.7,13.14-32.44,31.76-32.44s31.64,13.14,31.64,31.41v6.51h-48c1.71,7.77,7.77,12.91,17,12.91,7.2,0,12.11-3.42,15.31-9.14l13.13,7.89c-6.51,9.59-15.76,14.62-28.9,14.62C566.41,211,554.42,197.59,554.42,179.2Zm15.65-7h32.44C600.8,164.35,594.4,160,586.06,160,578.52,160,572.24,164.24,570.07,172.23ZM621.7,148h11.08v-3.09c0-16.79,7.08-23.76,22.62-23.76h5.48v13.6h-4.45c-7.31,0-8.91,2.51-8.91,10.16V148h13.36v14.16h-13V209.7H632.78V162.18H621.7Zm42.15,30.84c0-17.71,13.48-32.1,32.21-32.1a32.1,32.1,0,1,1,0,64.2C676.87,211,663.85,196.91,663.85,178.86Zm49.12,0c0-9.82-7.31-17.48-16.91-17.48s-16.9,7.66-16.9,17.48,7.19,17.48,16.9,17.48S713,188.68,713,178.86Zm36.55-.69L727.25,148h18.5l13.14,19,13.48-19h18.16l-22.62,30,23.76,31.64H773.28l-14.73-20.1-14.28,20.1H725.88Z"/><path class="cls-2" d="M346.62,142.61l-28.17-16.13L254.18,89.67h0l-2-1.15a34.37,34.37,0,0,0-34,0l-2,1.16h0l-90.41,51.78h0l-2,1.16a33.79,33.79,0,0,0-17,29.23V280a33.82,33.82,0,0,0,17,29.24l92.44,52.93a14.23,14.23,0,0,0,19.36-5.14,14,14,0,0,0-5.19-19.22l-90.4-51.77a9.65,9.65,0,0,1-4.87-8.36V174.17a9.65,9.65,0,0,1,4.87-8.36l16-9.17L230.29,114a9.81,9.81,0,0,1,9.7,0l90.43,51.79a9.67,9.67,0,0,1,4.85,8.35V277.72a9.66,9.66,0,0,1-4.86,8.36l-30.6,17.52-15.43-23.28a72.72,72.72,0,0,0,24.49-54.38c0-40.33-33.08-73.14-73.74-73.14s-73.73,32.81-73.73,73.14,33.07,73.14,73.73,73.14a73.83,73.83,0,0,0,24.89-4.3l23.45,35.36a16.72,16.72,0,0,0,1.19,1.55l.25.25a13.11,13.11,0,0,0,1.61,1.47l.42.34a15.27,15.27,0,0,0,2,1.22l.49.21a14.62,14.62,0,0,0,1.91.71l.44.14a13.27,13.27,0,0,0,2.27.37l.63,0c.22,0,.43,0,.65,0,.43,0,.86-.05,1.28-.09.2,0,.4,0,.59,0a14.22,14.22,0,0,0,2.39-.54c.2-.06.41-.15.61-.23a14.33,14.33,0,0,0,1.8-.8c.14-.07.28-.11.41-.19l44.21-25.31a33.83,33.83,0,0,0,17-29.24V171.84A33.8,33.8,0,0,0,346.62,142.61ZM189.76,225.94a45.38,45.38,0,1,1,45.37,45A45.24,45.24,0,0,1,189.76,225.94Z"/><path class="cls-3" d="M346.62,142.61l-28.17-16.13L254.18,89.67h0l-2-1.15a34.37,34.37,0,0,0-34,0l-2,1.16h0l-90.41,51.78h0l-2,1.16a33.79,33.79,0,0,0-17,29.23V280a33.82,33.82,0,0,0,17,29.24l92.44,52.93a14.23,14.23,0,0,0,19.36-5.14,14,14,0,0,0-5.19-19.22l-90.4-51.77a9.65,9.65,0,0,1-4.87-8.36V174.17a9.65,9.65,0,0,1,4.87-8.36l16-9.17L230.29,114a9.81,9.81,0,0,1,9.7,0l90.43,51.79a9.67,9.67,0,0,1,4.85,8.35V277.72a9.66,9.66,0,0,1-4.86,8.36l-30.6,17.52-15.43-23.28a72.72,72.72,0,0,0,24.49-54.38c0-40.33-33.08-73.14-73.74-73.14s-73.73,32.81-73.73,73.14,33.07,73.14,73.73,73.14a73.83,73.83,0,0,0,24.89-4.3l23.45,35.36a16.72,16.72,0,0,0,1.19,1.55l.25.25a13.11,13.11,0,0,0,1.61,1.47l.42.34a15.27,15.27,0,0,0,2,1.22l.49.21a14.62,14.62,0,0,0,1.91.71l.44.14a13.27,13.27,0,0,0,2.27.37l.63,0c.22,0,.43,0,.65,0,.43,0,.86-.05,1.28-.09.2,0,.4,0,.59,0a14.22,14.22,0,0,0,2.39-.54c.2-.06.41-.15.61-.23a14.33,14.33,0,0,0,1.8-.8c.14-.07.28-.11.41-.19l44.21-25.31a33.83,33.83,0,0,0,17-29.24V171.84A33.8,33.8,0,0,0,346.62,142.61ZM189.76,225.94a45.38,45.38,0,1,1,45.37,45A45.24,45.24,0,0,1,189.76,225.94Z"/><path class="cls-4" d="M346.61,142.61l-28.16-16.13L279.19,104a30.29,30.29,0,0,0-29.25-.44L230.29,114a9.81,9.81,0,0,1,9.7,0l90.43,51.79a9.67,9.67,0,0,1,4.85,8.35V277.72a9.64,9.64,0,0,1-4.86,8.36l-30.6,17.52,4.77,7.63a20,20,0,0,0,26.91,6.71l15.12-8.66a33.72,33.72,0,0,0,17-29.24V171.84A33.7,33.7,0,0,0,346.61,142.61Z"/><path class="cls-5" d="M335.27,174.17v50.25h28.36V171.84a33.7,33.7,0,0,0-17-29.23l-28.16-16.13L279.19,104a30.29,30.29,0,0,0-29.25-.44L230.29,114a9.84,9.84,0,0,1,9.7,0l90.43,51.79A9.67,9.67,0,0,1,335.27,174.17Z"/><path class="cls-6" d="M335.27,232.51v45.21a9.64,9.64,0,0,1-4.86,8.36l-30.6,17.52,4.77,7.63a20,20,0,0,0,26.91,6.71l15.12-8.66a33.72,33.72,0,0,0,17-29.24V232.51Z"/><ellipse class="cls-7" cx="235.13" cy="225.94" rx="45.38" ry="45.01"/><path class="cls-8" d="M297.64,300.32l-13.26-20A74,74,0,0,1,260,294.78l14.11,21.29Q286.07,308.45,297.64,300.32Z"/></svg>