<svg id="Assets" xmlns="http://www.w3.org/2000/svg" xmlns:xlink="http://www.w3.org/1999/xlink" viewBox="0 0 392 588"><defs><style>.cls-1{fill:#fff;}.cls-2{fill:url(#linear-gradient);}.cls-3{fill:url(#linear-gradient-2);}.cls-4{fill:url(#linear-gradient-3);}.cls-5{fill:url(#linear-gradient-4);}.cls-6,.cls-8{opacity:0.9;}.cls-6{fill:url(#linear-gradient-5);}.cls-7{fill:none;}.cls-8{fill:url(#linear-gradient-6);}</style><linearGradient id="linear-gradient" x1="257.33" y1="91.61" x2="126.05" y2="318.99" gradientUnits="userSpaceOnUse"><stop offset="0" stop-color="#ff980e"/><stop offset="0.21" stop-color="#ff7139"/><stop offset="0.36" stop-color="#ff5854"/><stop offset="0.46" stop-color="#ff4f5e"/><stop offset="0.69" stop-color="#ff3750"/><stop offset="0.86" stop-color="#f92261"/><stop offset="1" stop-color="#f5156c"/></linearGradient><linearGradient id="linear-gradient-2" x1="257.33" y1="91.61" x2="126.05" y2="318.99" gradientUnits="userSpaceOnUse"><stop offset="0" stop-color="#fff44f" stop-opacity="0.8"/><stop offset="0.09" stop-color="#fff44f" stop-opacity="0.7"/><stop offset="0.75" stop-color="#fff44f" stop-opacity="0"/></linearGradient><linearGradient id="linear-gradient-3" x1="257.83" y1="345.1" x2="257.83" y2="74.58" gradientUnits="userSpaceOnUse"><stop offset="0" stop-color="#3a8ee6"/><stop offset="0.24" stop-color="#5c79f0"/><stop offset="0.63" stop-color="#9059ff"/><stop offset="1" stop-color="#c139e6"/></linearGradient><linearGradient id="linear-gradient-4" x1="211.83" y1="64.6" x2="332.04" y2="184.81" gradientUnits="userSpaceOnUse"><stop offset="0" stop-color="#6e008b" stop-opacity="0.5"/><stop offset="0.5" stop-color="#c846cb" stop-opacity="0"/></linearGradient><linearGradient id="linear-gradient-5" x1="332.77" y1="212.68" x2="263.52" y2="281.92" gradientUnits="userSpaceOnUse"><stop offset="0.14" stop-color="#6a2bea" stop-opacity="0"/><stop offset="0.34" stop-color="#642de4" stop-opacity="0.03"/><stop offset="0.55" stop-color="#5131d3" stop-opacity="0.12"/><stop offset="0.76" stop-color="#3139b7" stop-opacity="0.27"/><stop offset="0.98" stop-color="#054490" stop-opacity="0.48"/><stop offset="1" stop-color="#00458b" stop-opacity="0.5"/></linearGradient><linearGradient id="linear-gradient-6" x1="228.97" y1="256.8" x2="245.2" y2="276.15" gradientUnits="userSpaceOnUse"><stop offset="0" stop-color="#960e18" stop-opacity="0.6"/><stop offset="0.19" stop-color="#ac1624" stop-opacity="0.48"/><stop offset="0.58" stop-color="#e42c41" stop-opacity="0.16"/><stop offset="0.75" stop-color="#ff3750" stop-opacity="0"/></linearGradient></defs><title>FF_Monitor_</title><path class="cls-1" d="M57.58,475.82H64l19.9,27.58,20.67-27.58h6.07v56.09h-6.22V485.73L83.78,513.39l-19.9-27v45.56h-6.3Z"/><path class="cls-1" d="M118.27,511.16a21.55,21.55,0,1,1,21.51,21.59A21.3,21.3,0,0,1,118.27,511.16Zm36.72,0c0-8.83-6.61-15.67-15.21-15.67s-15.14,6.84-15.14,15.67,6.53,15.6,15.14,15.6S155,520,155,511.16Z"/><path class="cls-1" d="M169.3,490.42h6.15v6.91a16.58,16.58,0,0,1,14.44-7.76c10.84,0,17.67,7.07,17.67,18.67v23.67h-6.37V508.55c0-8.07-4.46-13.29-12.53-13.29-7.37,0-13.06,5.61-13.06,13.6v23h-6.3Z"/><path class="cls-1" d="M220.32,472.67a5,5,0,1,1-4.92,5A4.85,4.85,0,0,1,220.32,472.67Zm-3.15,17.75h6.37v41.49h-6.37Z"/><path class="cls-1" d="M229.15,490.42h8.07v-9.15l6.22-4v13.14h12.14V496H243.44v23.2c0,5.3,2.46,7.37,6,7.37a6.68,6.68,0,0,0,4.76-2l3.31,5a13.34,13.34,0,0,1-8.53,2.92c-7.61,0-11.75-4-11.75-13.14V496h-8.07Z"/><path class="cls-1" d="M258.57,511.16a21.55,21.55,0,1,1,21.51,21.59A21.3,21.3,0,0,1,258.57,511.16Zm36.73,0c0-8.83-6.61-15.67-15.22-15.67S265,502.33,265,511.16s6.53,15.6,15.13,15.6S295.3,520,295.3,511.16Z"/><path class="cls-1" d="M309.61,490.42h6.07v7.83c1.76-5.53,5.91-8.45,11.83-8.45a13.53,13.53,0,0,1,6.91,1.54l-2.61,6a9.07,9.07,0,0,0-5.07-1.3c-6.91,0-10.91,4-10.91,13.13v22.75h-6.22Z"/><path class="cls-1" d="M71.73,392h37.34v10.1H82.45v13.7h26.62v10H82.45v22H71.73Zm50.05-3.9a6.28,6.28,0,0,1-.08,12.55,5.93,5.93,0,0,1-6.2-6.12A6.2,6.2,0,0,1,121.78,388.11Zm-5.28,18.44h10.56v41.32H116.5ZM157.66,418a8.54,8.54,0,0,0-5.12-1.84c-4.29,0-6.74,2.76-6.74,8.8v22.88H135.32V406.55h10v6c2.15-4.67,5.44-6.35,9.87-6.35a12.57,12.57,0,0,1,7,2.14Zm4.36,9.41c0-11.86,8.8-21.73,21.28-21.73s21.19,8.8,21.19,21v4.36H172.35c1.15,5.21,5.21,8.65,11.4,8.65A11.07,11.07,0,0,0,194,433.64l8.8,5.28c-4.36,6.43-10.56,9.79-19.36,9.79C170.06,448.71,162,439.76,162,427.44Zm10.49-4.67h21.73c-1.15-5.28-5.44-8.18-11-8.18A10.61,10.61,0,0,0,172.51,422.77Zm34.58-16.22h7.42v-2.06c0-11.25,4.75-15.92,15.15-15.92h3.68v9.11h-3c-4.89,0-6,1.68-6,6.81v2.06h9V416h-8.73v31.83h-10.1V416h-7.42Zm28.24,20.66a21.15,21.15,0,0,1,21.57-21.5,21.5,21.5,0,1,1,0,43C244.05,448.71,235.33,439.3,235.33,427.21Zm32.9,0a11.34,11.34,0,0,0-11.33-11.7c-6.5,0-11.32,5.12-11.32,11.7s4.82,11.71,11.32,11.71A11.35,11.35,0,0,0,268.23,427.21Zm24.48-.46-14.92-20.2h12.4l8.8,12.7,9-12.7h12.16L305,426.68,321,447.87H308.63l-9.87-13.47-9.57,13.47H276.88Z"/><path class="cls-2" d="M307.48,114.51,279.31,98.38,215,61.57h0l-2-1.15a34.37,34.37,0,0,0-34,0l-2,1.16h0L86.54,113.35h0l-2,1.16a33.8,33.8,0,0,0-17,29.23v108.2a33.83,33.83,0,0,0,17,29.24L177,334.11A14.23,14.23,0,0,0,196.32,329a14,14,0,0,0-5.19-19.21L100.72,258a9.67,9.67,0,0,1-4.86-8.36V146.07a9.66,9.66,0,0,1,4.86-8.36l16-9.17,74.43-42.62a9.81,9.81,0,0,1,9.7,0l90.43,51.79a9.67,9.67,0,0,1,4.85,8.35V249.62a9.68,9.68,0,0,1-4.87,8.36L260.68,275.5l-15.44-23.28a72.72,72.72,0,0,0,24.49-54.38c0-40.33-33.08-73.14-73.73-73.14s-73.74,32.81-73.74,73.14S155.34,271,196,271a73.83,73.83,0,0,0,24.89-4.3L244.34,302a13.84,13.84,0,0,0,1.19,1.55c.08.09.17.16.25.25a13.8,13.8,0,0,0,1.6,1.47l.43.34a13.64,13.64,0,0,0,2,1.21l.48.22a14.23,14.23,0,0,0,1.92.71l.44.14a14.39,14.39,0,0,0,2.26.37l.64,0c.21,0,.43,0,.65,0,.43,0,.85-.05,1.28-.09.2,0,.39,0,.59,0a14.11,14.11,0,0,0,2.38-.54c.21-.06.41-.15.62-.23a13.08,13.08,0,0,0,1.8-.81c.13-.07.27-.1.4-.18l44.21-25.31a33.82,33.82,0,0,0,17-29.24V143.74A33.79,33.79,0,0,0,307.48,114.51ZM150.62,197.84a45.38,45.38,0,1,1,45.38,45A45.25,45.25,0,0,1,150.62,197.84Z"/><path class="cls-3" d="M307.48,114.51,279.31,98.38,215,61.57h0l-2-1.15a34.37,34.37,0,0,0-34,0l-2,1.16h0L86.54,113.35h0l-2,1.16a33.8,33.8,0,0,0-17,29.23v108.2a33.83,33.83,0,0,0,17,29.24L177,334.11A14.23,14.23,0,0,0,196.32,329a14,14,0,0,0-5.19-19.21L100.72,258a9.67,9.67,0,0,1-4.86-8.36V146.07a9.66,9.66,0,0,1,4.86-8.36l16-9.17,74.43-42.62a9.81,9.81,0,0,1,9.7,0l90.43,51.79a9.67,9.67,0,0,1,4.85,8.35V249.62a9.68,9.68,0,0,1-4.87,8.36L260.68,275.5l-15.44-23.28a72.72,72.72,0,0,0,24.49-54.38c0-40.33-33.08-73.14-73.73-73.14s-73.74,32.81-73.74,73.14S155.34,271,196,271a73.83,73.83,0,0,0,24.89-4.3L244.34,302a13.84,13.84,0,0,0,1.19,1.55c.08.09.17.16.25.25a13.8,13.8,0,0,0,1.6,1.47l.43.34a13.64,13.64,0,0,0,2,1.21l.48.22a14.23,14.23,0,0,0,1.92.71l.44.14a14.39,14.39,0,0,0,2.26.37l.64,0c.21,0,.43,0,.65,0,.43,0,.85-.05,1.28-.09.2,0,.39,0,.59,0a14.11,14.11,0,0,0,2.38-.54c.21-.06.41-.15.62-.23a13.08,13.08,0,0,0,1.8-.81c.13-.07.27-.1.4-.18l44.21-25.31a33.82,33.82,0,0,0,17-29.24V143.74A33.79,33.79,0,0,0,307.48,114.51ZM150.62,197.84a45.38,45.38,0,1,1,45.38,45A45.25,45.25,0,0,1,150.62,197.84Z"/><path class="cls-4" d="M307.48,114.51,279.31,98.38,240.05,75.89a30.27,30.27,0,0,0-29.24-.44L191.16,85.92a9.81,9.81,0,0,1,9.7,0l90.43,51.79a9.67,9.67,0,0,1,4.85,8.35V249.62a9.65,9.65,0,0,1-4.87,8.36L260.68,275.5l4.77,7.63a20,20,0,0,0,26.91,6.71l15.12-8.66a33.72,33.72,0,0,0,17-29.24V143.74A33.7,33.7,0,0,0,307.48,114.51Z"/><path class="cls-5" d="M296.14,146.07v50.25H324.5V143.74a33.7,33.7,0,0,0-17-29.23L279.31,98.38,240.05,75.89a30.27,30.27,0,0,0-29.24-.44L191.16,85.92a9.81,9.81,0,0,1,9.7,0l90.43,51.79A9.67,9.67,0,0,1,296.14,146.07Z"/><path class="cls-6" d="M296.14,204.41v45.21a9.65,9.65,0,0,1-4.87,8.36L260.68,275.5l4.77,7.63a20,20,0,0,0,26.91,6.71l15.12-8.66a33.72,33.72,0,0,0,17-29.24V204.41Z"/><ellipse class="cls-7" cx="196" cy="197.84" rx="45.38" ry="45.01"/><path class="cls-8" d="M258.51,272.22l-13.27-20a74,74,0,0,1-24.35,14.46L235,288Q246.93,280.35,258.51,272.22Z"/></svg>