<svg id="Assets" xmlns="http://www.w3.org/2000/svg" xmlns:xlink="http://www.w3.org/1999/xlink" viewBox="0 0 308 309"><defs><style>.cls-1{fill:url(#linear-gradient);}.cls-2{fill:url(#linear-gradient-2);}.cls-3{fill:url(#linear-gradient-3);}.cls-4{fill:url(#linear-gradient-4);}.cls-5,.cls-7{opacity:0.9;}.cls-5{fill:url(#linear-gradient-5);}.cls-6{fill:none;}.cls-7{fill:url(#linear-gradient-6);}</style><linearGradient id="linear-gradient" x1="214.83" y1="50.72" x2="83.55" y2="278.09" gradientUnits="userSpaceOnUse"><stop offset="0" stop-color="#ff980e"/><stop offset="0.21" stop-color="#ff7139"/><stop offset="0.36" stop-color="#ff5854"/><stop offset="0.46" stop-color="#ff4f5e"/><stop offset="0.69" stop-color="#ff3750"/><stop offset="0.86" stop-color="#f92261"/><stop offset="1" stop-color="#f5156c"/></linearGradient><linearGradient id="linear-gradient-2" x1="214.83" y1="50.72" x2="83.55" y2="278.09" gradientUnits="userSpaceOnUse"><stop offset="0" stop-color="#fff44f" stop-opacity="0.8"/><stop offset="0.09" stop-color="#fff44f" stop-opacity="0.7"/><stop offset="0.75" stop-color="#fff44f" stop-opacity="0"/></linearGradient><linearGradient id="linear-gradient-3" x1="215.33" y1="304.2" x2="215.33" y2="33.68" gradientUnits="userSpaceOnUse"><stop offset="0" stop-color="#3a8ee6"/><stop offset="0.24" stop-color="#5c79f0"/><stop offset="0.63" stop-color="#9059ff"/><stop offset="1" stop-color="#c139e6"/></linearGradient><linearGradient id="linear-gradient-4" x1="169.34" y1="23.7" x2="289.55" y2="143.91" gradientUnits="userSpaceOnUse"><stop offset="0" stop-color="#6e008b" stop-opacity="0.5"/><stop offset="0.5" stop-color="#c846cb" stop-opacity="0"/></linearGradient><linearGradient id="linear-gradient-5" x1="290.27" y1="171.78" x2="221.02" y2="241.03" gradientUnits="userSpaceOnUse"><stop offset="0.14" stop-color="#6a2bea" stop-opacity="0"/><stop offset="0.34" stop-color="#642de4" stop-opacity="0.03"/><stop offset="0.55" stop-color="#5131d3" stop-opacity="0.12"/><stop offset="0.76" stop-color="#3139b7" stop-opacity="0.27"/><stop offset="0.98" stop-color="#054490" stop-opacity="0.48"/><stop offset="1" stop-color="#00458b" stop-opacity="0.5"/></linearGradient><linearGradient id="linear-gradient-6" x1="186.47" y1="215.9" x2="202.7" y2="235.25" gradientUnits="userSpaceOnUse"><stop offset="0" stop-color="#960e18" stop-opacity="0.6"/><stop offset="0.19" stop-color="#ac1624" stop-opacity="0.48"/><stop offset="0.58" stop-color="#e42c41" stop-opacity="0.16"/><stop offset="0.75" stop-color="#ff3750" stop-opacity="0"/></linearGradient></defs><title>FF_Monitor_</title><path class="cls-1" d="M265,73.61,236.82,57.48,172.55,20.67h0l-2-1.15a34.37,34.37,0,0,0-34,0l-2,1.16h0L44.05,72.45h0l-2,1.16a33.79,33.79,0,0,0-17,29.23V211a33.82,33.82,0,0,0,17,29.24l92.43,52.93a14.24,14.24,0,0,0,19.37-5.14,14,14,0,0,0-5.19-19.22l-90.4-51.77a9.65,9.65,0,0,1-4.87-8.36V105.17a9.65,9.65,0,0,1,4.87-8.36l16-9.17L148.66,45a9.81,9.81,0,0,1,9.7,0l90.43,51.79a9.67,9.67,0,0,1,4.85,8.35V208.72a9.65,9.65,0,0,1-4.87,8.36L218.18,234.6l-15.44-23.28a72.68,72.68,0,0,0,24.49-54.38c0-40.33-33.07-73.14-73.73-73.14s-73.73,32.81-73.73,73.14,33.07,73.14,73.73,73.14a73.83,73.83,0,0,0,24.89-4.3l23.45,35.36a16.72,16.72,0,0,0,1.19,1.55l.25.25a13.11,13.11,0,0,0,1.61,1.47c.14.11.27.23.42.34a15.27,15.27,0,0,0,2,1.22l.48.21a15.31,15.31,0,0,0,1.92.71l.44.14a13.27,13.27,0,0,0,2.27.37l.63,0c.22,0,.43,0,.65,0,.43,0,.86-.05,1.28-.09.2,0,.39,0,.59,0a14.11,14.11,0,0,0,2.38-.54c.21-.06.41-.15.62-.23a14.33,14.33,0,0,0,1.8-.8c.13-.07.28-.11.41-.19L265,240.28A33.83,33.83,0,0,0,282,211V102.84A33.79,33.79,0,0,0,265,73.61ZM108.12,156.94a45.38,45.38,0,1,1,45.38,45A45.25,45.25,0,0,1,108.12,156.94Z"/><path class="cls-2" d="M265,73.61,236.82,57.48,172.55,20.67h0l-2-1.15a34.37,34.37,0,0,0-34,0l-2,1.16h0L44.05,72.45h0l-2,1.16a33.79,33.79,0,0,0-17,29.23V211a33.82,33.82,0,0,0,17,29.24l92.43,52.93a14.24,14.24,0,0,0,19.37-5.14,14,14,0,0,0-5.19-19.22l-90.4-51.77a9.65,9.65,0,0,1-4.87-8.36V105.17a9.65,9.65,0,0,1,4.87-8.36l16-9.17L148.66,45a9.81,9.81,0,0,1,9.7,0l90.43,51.79a9.67,9.67,0,0,1,4.85,8.35V208.72a9.65,9.65,0,0,1-4.87,8.36L218.18,234.6l-15.44-23.28a72.68,72.68,0,0,0,24.49-54.38c0-40.33-33.07-73.14-73.73-73.14s-73.73,32.81-73.73,73.14,33.07,73.14,73.73,73.14a73.83,73.83,0,0,0,24.89-4.3l23.45,35.36a16.72,16.72,0,0,0,1.19,1.55l.25.25a13.11,13.11,0,0,0,1.61,1.47c.14.11.27.23.42.34a15.27,15.27,0,0,0,2,1.22l.48.21a15.31,15.31,0,0,0,1.92.71l.44.14a13.27,13.27,0,0,0,2.27.37l.63,0c.22,0,.43,0,.65,0,.43,0,.86-.05,1.28-.09.2,0,.39,0,.59,0a14.11,14.11,0,0,0,2.38-.54c.21-.06.41-.15.62-.23a14.33,14.33,0,0,0,1.8-.8c.13-.07.28-.11.41-.19L265,240.28A33.83,33.83,0,0,0,282,211V102.84A33.79,33.79,0,0,0,265,73.61ZM108.12,156.94a45.38,45.38,0,1,1,45.38,45A45.25,45.25,0,0,1,108.12,156.94Z"/><path class="cls-3" d="M265,73.61,236.82,57.48,197.56,35a30.29,30.29,0,0,0-29.25-.44L148.66,45a9.81,9.81,0,0,1,9.7,0l90.43,51.79a9.67,9.67,0,0,1,4.85,8.35V208.72a9.63,9.63,0,0,1-4.87,8.36L218.18,234.6l4.77,7.63a20,20,0,0,0,26.91,6.71L265,240.28A33.72,33.72,0,0,0,282,211V102.84A33.7,33.7,0,0,0,265,73.61Z"/><path class="cls-4" d="M253.64,105.17v50.25H282V102.84a33.7,33.7,0,0,0-17-29.23L236.82,57.48,197.56,35a30.29,30.29,0,0,0-29.25-.44L148.66,45a9.84,9.84,0,0,1,9.7,0l90.43,51.79A9.67,9.67,0,0,1,253.64,105.17Z"/><path class="cls-5" d="M253.64,163.51v45.21a9.63,9.63,0,0,1-4.87,8.36L218.18,234.6l4.77,7.63a20,20,0,0,0,26.91,6.71L265,240.28A33.72,33.72,0,0,0,282,211V163.51Z"/><ellipse class="cls-6" cx="153.5" cy="156.94" rx="45.38" ry="45.01"/><path class="cls-7" d="M216,231.32l-13.27-20a73.82,73.82,0,0,1-24.35,14.46l14.11,21.29Q204.44,239.45,216,231.32Z"/></svg>