<svg xmlns="http://www.w3.org/2000/svg" xmlns:xlink="http://www.w3.org/1999/xlink" viewBox="0 0 254 192">
  <defs>
   <radialGradient cx="55%" cy="25%" r="60%" id="b">
      <stop stop-color="#0DF" stop-opacity=".4" offset="10%"/>
      <stop stop-color="#7542E5" stop-opacity=".25" offset="90%"/>
    </radialGradient>
    <radialGradient cx="49.238%" cy="52.7%" fx="49%" fy="52.7%" r="51%" id="c">
      <stop stop-color="#7542E5" stop-opacity="0" offset="91%"/>
      <stop stop-color="#0DF" stop-opacity=".4" offset="100%"/>
    </radialGradient>
    <radialGradient cx="86%" cy="-13%" fx="86%" fy="-13%" r="128%" gradientTransform="matrix(.81263 0 0 1 .16 0)" id="d">
      <stop stop-color="#80EBFF" offset="0%"/>
      <stop stop-color="#0DF" offset="26%"/>
      <stop stop-color="#0090ED" offset="53%"/>
      <stop stop-color="#0060DF" offset="86%"/>
    </radialGradient>
    <radialGradient cx="47.729%" cy="40%" fx="48%" fy="40%" r="128%" gradientTransform="matrix(.81263 0 0 1 .09 0)" id="e">
      <stop stop-color="#321C64" stop-opacity=".8" offset="30%"/>
      <stop stop-color="#212F83" stop-opacity=".5" offset="37%"/>
      <stop stop-color="#0A47AC" stop-opacity=".14" offset="48%"/>
      <stop stop-color="#0250BB" stop-opacity="0" offset="53%"/>
    </radialGradient>
    <radialGradient cx="90%" cy="-50%" r="210%" gradientTransform="matrix(.83857 0 0 1 .128 0)" id="f">
      <stop stop-color="#80EBFF" offset="0%"/>
      <stop stop-color="#00B3F4" offset="47%"/>
      <stop stop-color="#0060DF" offset="84%"/>
      <stop stop-color="#592ACB" offset="100%"/>
    </radialGradient>

    <linearGradient x1="42%" y1="-10%" x2="61%" y2="114%" id="g">
      <stop stop-color="#AAF2FF" offset="0%"/>
      <stop stop-color="#0DF" offset="29%"/>
      <stop stop-color="#0090ED" offset="61%"/>
      <stop stop-color="#0250BB" offset="89%"/>
    </linearGradient>
    <linearGradient x1="38%" y1="0%" x2="63%" y2="124%" id="h">
      <stop stop-color="#AAF2FF" offset="0%"/>
      <stop stop-color="#0DF" offset="29%"/>
      <stop stop-color="#0090ED" offset="74%"/>
      <stop stop-color="#0250BB" offset="100%"/>
    </linearGradient>

    <radialGradient cx="208%" cy="-104%" fx="208%" fy="-104%" r="300%" gradientTransform="matrix(1 0 0 .99746 0 -.003)" id="i">
      <stop stop-color="#0DF" offset="0%"/>
      <stop stop-color="#0090ED" offset="82%"/>
    </radialGradient>
    <radialGradient cx="155%" cy="-45%" fx="155%" fy="-45%" r="313%" gradientTransform="matrix(.8937 0 0 1 .165 0)" id="j">
      <stop stop-color="#80EBFF" offset="29%"/>
      <stop stop-color="#00B3F4" offset="100%"/>
    </radialGradient>
    <radialGradient cx="15%" cy="-43%" fx="15%" fy="-43%" r="230%" gradientTransform="matrix(.9814 0 0 1 .003 0)" id="k">
      <stop stop-color="#AAF2FF" offset="18%"/>
      <stop stop-color="#0DF" offset="43%"/>
      <stop stop-color="#0060DF" offset="69%"/>
    </radialGradient>

    <linearGradient x1="86%" y1="15%" x2="20%" y2="84%" id="l">
      <stop stop-color="#80EBFF" stop-opacity=".5" offset="24%"/>
      <stop stop-color="#0DF" stop-opacity="0" offset="70%"/>
    </linearGradient>
    <linearGradient x1="61%" y1="-10%" x2="20%" y2="149%" id="m">
      <stop stop-color="#BFF3FF" stop-opacity=".9" offset="0%"/>
      <stop stop-color="#80EBFF" stop-opacity=".5" offset="100%"/>
    </linearGradient>
    <linearGradient x1="51%" y1="-2%" x2="48%" y2="139%" id="a">
      <stop stop-color="#BFF3FF" offset="0%"/>
      <stop stop-color="#0DF" stop-opacity="0" offset="100%"/>
    </linearGradient>
    <linearGradient x1="52%" y1="-4%" x2="47%" y2="143%" id="n">
      <stop stop-color="#BFF3FF" offset="0%"/>
      <stop stop-color="#AAF2FF" stop-opacity=".5" offset="100%"/>
    </linearGradient>
    <linearGradient x1="53%" y1="-2%" x2="47%" y2="142%" id="o">
      <stop stop-color="#BFF3FF" offset="0%"/>
      <stop stop-color="#0DF" stop-opacity="0" offset="100%"/>
    </linearGradient>
    <linearGradient x1="49%" y1="-2%" x2="57%" y2="123%" id="p">
      <stop stop-color="#BFF3FF" stop-opacity=".8" offset="0%"/>
      <stop stop-color="#80EBFF" stop-opacity=".2" offset="100%"/>
    </linearGradient>
    <linearGradient x1="117%" y1="-23%" x2="24%" y2="128%" id="q">
      <stop stop-color="#BFF3FF" stop-opacity=".8" offset="0%"/>
      <stop stop-color="#80EBFF" stop-opacity=".2" offset="100%"/>
    </linearGradient>
    <linearGradient x1="52%" y1="-1%" x2="47%" y2="137%" id="r">
      <stop stop-color="#0DF" stop-opacity=".4" offset="0%"/>
      <stop stop-color="#0DF" stop-opacity="0" offset="100%"/>
    </linearGradient>
    <linearGradient x1="50%" y1="-12%" x2="50%" y2="99%" id="s">
      <stop stop-color="#BFF3FF" offset="0%"/>
      <stop stop-color="#0DF" stop-opacity="0" offset="100%"/>
    </linearGradient>

    <linearGradient x1="53%" y1="-3%" x2="47%" y2="142%" id="t">
      <stop stop-color="#BFF3FF" stop-opacity=".8" offset="0%"/>
      <stop stop-color="#0DF" stop-opacity="0" offset="100%"/>
    </linearGradient>
    <linearGradient id="u" x1="221.694" y1="59.682" x2="93.573" y2="84.859" gradientUnits="userSpaceOnUse">
      <stop offset="0" stop-color="#80ebff"/>
      <stop offset=".034" stop-color="#72e9ff"/>
      <stop offset=".237" stop-color="#20e1ff"/>
      <stop offset=".33" stop-color="#0df"/>
      <stop offset=".402" stop-color="#00d3fc"/>
      <stop offset=".66" stop-color="#00b3f4"/>
      <stop offset="1" stop-color="#00b3f4"/>
    </linearGradient>
  </defs>
  <path id="globe-back" fill="#09204d" d="M100.541 69.943l3.663 10.156 5.504 7.427 12.921 2.465 6.182 0.525 10.553-2.636 4.547-4.359-43.37-13.578z"/>
  <path fill="#09204d" d="M155.226 54.962l-1.293-4.292-3.699-6.982-4.232-4.46-4.492-3.208-3.901-1.531-4.68-1.665-7.705-0.491-4.859 0.877-3.965 1.219-7.035 4.118-4.397 4.906-4.054 6.585-1.595 5.605-0.298 8.503 1.52 5.797 3.354 6.6 2.365 3.188 3.271 2.999 4.084 2.764 5.037 2.191 8.43 0.989 4.401 0.123 6.514-1.835 5.823-3.196 3.746-3.196 2.904-3.466 4.107-8.04 0.907-5.5-0.258-8.602z"/>
  <path fill="#0e56d7" d="M125.365 36.197l-3.451 3.424 5.629 2.283 4.188-5.194-6.366-0.513z"/>
  <path fill="#1053d1" d="M127.543 41.904l10.898-0.331-6.71-4.863-4.188 5.194z"/>
  <path fill="#0b4fbf" d="M137.632 36.674l-5.901 0.036 6.71 4.863 6.206-0.405-7.015-4.494z"/>
  <path fill="#0b48b0" d="M144.647 41.168l-3.528-4.866 4.883 2.926-1.355 1.94z"/>
  <path fill="#0c45a7" d="M149.319 44.147l-4.672-2.979 1.355-1.94 3.317 4.919z"/>
  <path fill="#0f46af" d="M144.647 41.168l-0.781 3.333 4.273 1.708-3.492-5.041z"/>
  <path fill="#0c47ad" d="M144.647 41.168l4.672 2.979-1.18 2.062-3.492-5.041z"/>
  <path fill="#0e4fc3" d="M138.441 41.573l6.206-0.405-0.781 3.333-5.425-2.928z"/>
  <path fill="#174dca" d="M138.441 41.573l-4.903 4.439 6.311 3.091-1.408-7.53z"/>
  <path fill="#1650d4" d="M127.543 41.904l10.898-0.331-4.903 4.439-5.995-4.108z"/>
  <path fill="#1246b2" d="M143.866 44.501l2.967 5.756 1.306-4.048-4.273-1.708z"/>
  <path fill="#133ea1" d="M146.833 50.257l1.306-4.048 3.109 7.396-4.415-3.348z"/>
  <path fill="#103d98" d="M148.139 46.209l4.738 3.471-1.629 3.925-3.109-7.396z"/>
  <path fill="#0b3785" d="M149.319 44.147l0.915-0.459 2.643 5.992-3.558-5.533z"/>
  <path fill="#0b3685" d="M152.877 49.68l1.056 0.99-3.699-6.982 2.643 5.992z"/>
  <path d="M152.877 49.68l-3.558-5.533-1.18 2.062zM146 39.228l3.317 4.919 0.915-0.459z" fill="#0c3b91"/>
  <path fill="#0b3279" d="M154.989 58.317l-1.056-7.647 1.293 4.292-0.255 3.355h0.018z"/>
  <path fill="#0f388d" d="M152.877 49.68l2.112 8.637-1.056-7.647-1.056-0.99z"/>
  <path fill="#0d3481" d="M151.248 53.605l3.741 4.712-2.112-8.637-1.629 3.925z"/>
  <path fill="#0b2e71" d="M154.971 58.317l0.255-3.355 0.258 8.602-0.495-5.247h-0.018z"/>
  <path fill="#0e2f77" d="M154.362 65.114l1.122-1.55-0.495-5.247-0.627 6.797z"/>
  <path fill="#0e2969" d="M154.577 69.064l-0.897 0.432 1.804-5.932-0.907 5.5z"/>
  <path fill="#0c2a69" d="M153.68 69.496l1.804-5.932-1.122 1.55-0.682 4.382z"/>
  <path fill="#123180" d="M154.362 65.114l0.627-6.797-1.922 2.267 1.295 4.53z"/>
  <path fill="#112b70" d="M153.68 69.496l0.682-4.382-3.707 6.231 3.025-1.849z"/>
  <path fill="#12378c" d="M151.248 53.605l3.741 4.712-1.922 2.267-1.819-6.979z"/>
  <path fill="#122e7b" d="M154.362 65.114l-1.295-4.53-1.955 5.58 3.25-1.05z"/>
  <path fill="#11296c" d="M150.47 77.104l3.21-7.608-3.003 5.546-0.207 2.062z"/>
  <path fill="#142a72" d="M150.677 75.042l3.003-5.546-3.025 1.849 0.022 3.697z"/>
  <path d="M153.68 69.5l-3.21 7.6 4.107-8.04zm-6.114 11.07l2.9-3.466 0.207-2.062zm-3.746 3.2l3.746-3.2-3.959 1.821z" fill="#112768"/>
  <path fill="#1c226a" d="M121.956 85.992l-3.785 0.926 0.116-2.641 3.669 1.715z"/>
  <path fill="#182b7a" d="M100.914 50.038l1.043-0.386-2.638 5.991 1.595-5.605z"/>
  <path fill="#1f308d" d="M99.319 55.643l1.997-0.372 0.641-5.619-2.638 5.991z"/>
  <path fill="#1e2b7f" d="M99.438 62.837l-0.119-7.194 1.997-0.372-1.878 7.566z"/>
  <path d="M143.866 44.5l-4.017 4.6 6.984 1.154zm-35.053-4.72l5.128-3.508-4.576 2.274z" fill="#1346b5"/>
  <path fill="#1244ac" d="M109.365 38.547l7.035-4.118-2.459 1.844-4.576 2.274"/>
  <path fill="#0e4ab6" d="M113.941 36.273l6.424-3.063-3.965 1.219-2.459 1.844z"/>
  <path d="M138.441 41.573l1.408 7.53 4.017-4.6zm-20.588-5.657l5.985-2.393-3.473-0.313z" fill="#0e4bba"/>
  <path fill="#0a4ebc" d="M125.224 32.333l-4.859 0.877 3.472 0.313 1.387-1.19z"/>
  <path fill="#0c54cc" d="M129.819 33.463l-5.982 0.06 1.387-1.19"/>
  <path d="M141.119 36.3l-3.487 0.372 7.015 4.494zm-11.3-2.839l7.79 1.026-4.68-1.665z" fill="#0b4bb4"/>
  <path fill="#0c3889" d="M141.119 36.302l-3.51-1.813 3.901 1.531-0.391 0.282z"/>
  <path d="M100.541 69.943l2.3 1.9-3.406-9zm31.785 17.9l2.024-4.767-7.378 1.982zm2.024-4.767l6.168 1.711 0.374-4.77z" fill="#202575"/>
  <path fill="#1b2773" d="M143.607 82.391l-2.715-2.374 6.559-4.359-3.844 6.733z"/>
  <path fill="#15276d" d="M147.451 75.658l-3.844 6.733 3.959-1.821 3.111-5.528-3.226 0.616z"/>
  <path d="M141.51 36.02l-0.391 0.282L146 39.228zm-3.878 0.654l3.487-0.372-3.51-1.813z" fill="#0c409d"/>
  <path d="M125.224 32.333l4.595 1.13 3.11-0.639zm12.385 2.156l-7.79-1.026 7.813 3.211z" fill="#0b4cb7"/>
  <path fill="#0b55ce" d="M129.819 33.463l1.912 3.247 5.901-0.036-7.813-3.211z"/>
  <path fill="#0a52c5" d="M129.819 33.463l1.912 3.247-6.366-0.513 4.454-2.734z"/>
  <path fill="#0951c4" d="M123.837 33.523l1.528 2.674 4.454-2.734-5.982 0.06z"/>
  <path fill="#0b50c4" d="M117.853 35.916l5.984-2.393 1.528 2.674-7.512-0.281z"/>
  <path d="M113.941 36.273l3.912-0.357 2.512-2.706zm3.912-0.357l4.061 3.705 3.451-3.424z" fill="#0f4dbf"/>
  <path fill="#1546b6" d="M117.853 35.916l-6.61 6.199 2.698-5.842 3.912-0.357z"/>
  <path fill="#1549bd" d="M111.243 42.115l4.218 0.702 2.392-6.901-6.61 6.199z"/>
  <path fill="#144bc3" d="M115.461 42.817l2.392-6.901 4.061 3.705-6.453 3.196z"/>
  <path fill="#173794" d="M104.968 43.453l0.257 2.493 3.588-6.165-3.845 3.672z"/>
  <path fill="#192f84" d="M101.957 49.652l3.011-6.199 0.257 2.493-3.268 3.706z"/>
  <path fill="#1a389b" d="M105.225 45.946l3.588-6.165 2.43 2.334-6.018 3.831z"/>
  <path fill="#1d3089" d="M105.008 51.292l0.217-5.346-3.268 3.706 3.051 1.64z"/>
  <path fill="#1e389f" d="M105.008 51.292l0.217-5.346 4.241 3.444-4.458 1.902z"/>
  <path fill="#1c40af" d="M109.466 49.39l1.777-7.275-6.018 3.831 4.241 3.444z"/>
  <path fill="#1e41b7" d="M109.466 49.39l1.777-7.275 4.218 0.702-5.995 6.573z"/>
  <path fill="#192c7d" d="M101.316 55.271l0.641-5.619 3.051 1.64-3.692 3.979z"/>
  <path d="M132.326 87.843L138 86.962l2.521-2.175zm-33.3-23.7l0.417-1.309-0.119-7.194zm2.3-8.875l-1.878 7.566 3.406 9-1.672-10.424z" fill="#162467"/>
  <path fill="#1a236a" d="M102.844 71.839l2.81 0.393-1.968-4.593-0.842 4.2z"/>
  <path d="M143.607 82.391l-3.089 2.4L138 86.962l5.823-3.2zm-16.526 6.283l4.4 0.123L138 86.962l-5.671 0.881zm-21.615-11.613l2.953 0.568-2.765-5.4z" fill="#132668"/>
  <path d="M118.287 84.277l-5-3.849-2.078 2 6.962 4.492zm-17.746-14.334l3.354 6.6-1.051-4.7zm-1.52-5.8l1.52 5.8-1.1-7.106zm27.951 20.912l-8.685-0.781 3.669 1.715-3.785 0.926-4.556-1.424 5.037 2.191 8.429 0.989 5.245-0.831zm-21.318-12.823l-2.81-0.393 2.622 5.222zm-4.472-10.822l1.662 10.429 0.842-4.2zm7.237 16.219l-2.953-0.568-1.571-0.518 2.365 3.188 3.271 3 4.084 2.764-2.406-3.068z" fill="#1b2268"/>
  <path fill="#212a81" d="M101.316 55.271l3.965 6.133-0.273-10.112-3.692 3.979z"/>
  <path fill="#21267a" d="M101.182 61.41l2.504 6.229 1.595-6.235-4.099 0.006z"/>
  <path fill="#262781" d="M103.686 67.639l1.595-6.235 1.982 4.927-3.577 1.308z"/>
  <path fill="#272379" d="M105.654 72.232l7.601 4.712-5.992-10.613-1.609 5.901z"/>
  <path d="M103.9 76.543l1.571 0.518-2.622-5.222zm16.791 2.711l-2.4 5.023 8.685 0.781zm-15.032-7.022l2.765 5.4 2.79 4.8 2.078-2-0.032-3.484z" fill="#1e226d"/>
  <path d="M140.892 80.017l-0.374 4.77 3.089-2.4zM127.6 79.333l-0.631 5.725 7.378-1.982-0.262-6.436z" fill="#222475"/>
  <path d="M101.182 61.41h4.1l-3.965-6.134zm32.906 15.23l0.262 6.436 6.542-3.059z" fill="#23277d"/>
  <path fill="#1e2776" d="M134.088 76.64l4.21-3.813 2.594 7.19-6.804-3.377z"/>
  <path fill="#222b86" d="M140.892 80.017l3.183-9.639-5.777 2.449 2.594 7.19z"/>
  <path fill="#192974" d="M147.451 75.658l-6.559 4.359 3.183-9.639 3.376 5.28z"/>
  <path fill="#172a75" d="M150.655 71.345l-6.58-0.967 3.376 5.28 3.226-0.616-0.022-3.697z"/>
  <path fill="#172d7d" d="M151.112 66.164l-7.037 4.214 6.58 0.967 3.707-6.231-3.25 1.05z"/>
  <path d="M101.957 49.652l3.011-6.2-4.054 6.585zm46.53 7.672l2.625 8.84 1.955-5.58z" fill="#18338a"/>
  <path fill="#153791" d="M153.067 60.584l-1.819-6.979-2.761 3.719 4.58 3.26z"/>
  <path fill="#1b318b" d="M144.075 70.378l7.037-4.214-6.821-3.037-0.216 7.251z"/>
  <path fill="#242d8d" d="M144.075 70.378l-6.379-6.446 0.602 8.895 5.777-2.449z"/>
  <path fill="#2a2b8f" d="M134.088 76.64l-4.897-4.337 9.107 0.524-4.21 3.813z"/>
  <path d="M105.654 72.232l1.609-5.9-3.577 1.308zm23.537 0.071l-1.588 7.03 6.485-2.693z" fill="#27267f"/>
  <path fill="#2d2381" d="M119.054 73.741l-4.714-2.396-1.085 5.599 7.431 2.31 6.917 0.079-8.549-5.592z"/>
  <path fill="#2f2485" d="M127.603 79.333l1.588-7.03-10.137 1.438 8.549 5.592z"/>
  <path fill="#233196" d="M105.281 61.404l2.034-6.491-2.307-3.621 0.273 10.112z"/>
  <path fill="#293cb7" d="M109.466 49.39l8.924-2.602-4.714 9.631-4.21-7.029z"/>
  <path fill="#25339c" d="M144.075 70.378l-6.379-6.446 6.595-0.805-0.216 7.251z"/>
  <path fill="#19348f" d="M151.112 66.164l-2.625-8.84-4.196 5.803 6.821 3.037z"/>
  <path fill="#2a309a" d="M138.298 72.827l-7.294-7.054 6.692-1.841 0.602 8.895z"/>
  <path fill="#302b96" d="M129.191 72.303l9.107 0.524-7.294-7.054-1.813 6.53z"/>
  <path fill="#3630a7" d="M129.191 72.303l-4.989-4.062 6.802-2.468-1.813 6.53z"/>
  <path d="M108.813 39.781l0.552-1.234-4.4 4.906zm38.02 10.476l1.654 7.067 2.761-3.719z" fill="#173da2"/>
  <path fill="#2a36a8" d="M109.466 49.39l4.21 7.029-6.361-1.506 2.151-5.523z"/>
  <path fill="#312e9f" d="M107.315 54.913l6.361 1.506-4.302 6.777-2.059-8.283z"/>
  <path fill="#184dcd" d="M118.39 46.788l3.524-7.167-6.453 3.196 2.929 3.971z"/>
  <path fill="#272986" d="M105.281 61.404l4.093 1.792-2.111 3.135-1.982-4.927z"/>
  <path fill="#2c2584" d="M109.374 63.196l-2.111 3.135 5.992 10.613 1.085-5.599-4.966-8.149z"/>
  <path fill="#32268b" d="M114.34 71.345l0.663-9.86-5.629 1.711 4.966 8.149z"/>
  <path fill="#372999" d="M114.34 71.345l9.862-3.104-9.199-6.756-0.663 9.86z"/>
  <path fill="#392da5" d="M124.202 68.241l-0.961-7.623-8.238 0.867 9.199 6.756z"/>
  <path fill="#3338bc" d="M123.241 60.618l6.956-2.602 0.807 7.757-7.763-5.155z"/>
  <path fill="#362896" d="M119.054 73.741l10.137-1.438-4.989-4.062-5.148 5.5z"/>
  <path fill="#35268f" d="M119.054 73.741l-4.714-2.396 9.862-3.104-5.148 5.5z"/>
  <path fill="#2648d3" d="M118.39 46.788l6.041 0.639-2.517-7.806-3.524 7.167z"/>
  <path fill="#1057dc" d="M127.543 41.904l-5.629-2.283 2.517 7.806 3.112-5.523z"/>
  <path fill="#1653da" d="M127.543 41.904l5.995 4.108-9.107 1.415 3.112-5.523z"/>
  <path fill="#2b46d5" d="M124.431 47.427l8.933 4.738-3.167 5.851-5.766-10.589z"/>
  <path fill="#244ad7" d="M133.364 52.165l0.174-6.153-9.107 1.415 8.933 4.738z"/>
  <path fill="#2547cf" d="M133.364 52.165l0.174-6.153 6.311 3.091-6.485 3.062z"/>
  <path fill="#333cc5" d="M124.431 47.427l5.766 10.589-10.114-5.066 4.348-5.523z"/>
  <path fill="#3833b6" d="M123.241 60.618l6.956-2.602-10.114-5.066 3.158 7.668z"/>
  <path fill="#2a41c6" d="M130.197 58.016l8.921-1.629-5.754-4.222-3.167 5.851z"/>
  <path fill="#2045c1" d="M139.849 49.103l-0.731 7.284-5.754-4.222 6.485-3.062z"/>
  <path fill="#1b43b7" d="M139.849 49.103l4.21 5.718-4.941 1.566 0.731-7.284z"/>
  <path fill="#1742af" d="M146.833 50.257l-6.984-1.154 4.21 5.718 2.774-4.564z"/>
  <path d="M111.243 42.115l2.7-5.842-5.128 3.508zm35.59 8.142l-2.774 4.564 4.428 2.5z" fill="#1740a9"/>
  <path fill="#1b3ca4" d="M144.291 63.127l4.196-5.803-4.428-2.503 0.232 8.306z"/>
  <path fill="#1f3dad" d="M144.291 63.127l-0.232-8.306-4.941 1.566 5.173 6.74z"/>
  <path d="M109.466 49.389l8.924-2.6-2.929-3.971zm20.734 8.627l7.5 5.916 1.422-7.545z" fill="#2543c3"/>
  <path fill="#2e37b2" d="M131.004 65.773l6.692-1.841-7.499-5.916 0.807 7.757z"/>
  <path fill="#2d40c7" d="M118.39 46.788l1.693 6.162 4.348-5.523-6.041-0.639z"/>
  <path fill="#3537b8" d="M118.39 46.788l-4.714 9.631 6.407-3.469-1.693-6.162z"/>
  <path fill="#3931b0" d="M120.083 52.95l-5.08 8.535 8.238-0.867-3.158-7.668z"/>
  <path d="M123.241 60.618l0.961 7.623 6.8-2.468zM115 61.485l5.08-8.535-6.407 3.469z" fill="#3735b8"/>
  <path fill="#342892" d="M109.374 63.196l4.302-6.777 1.327 5.066-5.629 1.711z"/>
  <path d="M113.615 85.494l4.556 1.424-6.962-4.492zm-0.328-5.066l5 3.849 2.4-5.023-7.431-2.31zm13.685 4.63l0.631-5.725-6.917-0.079zm7.378-1.982l-2.024 4.767 8.192-3.056z" fill="#232372"/>
  <path fill="#2a2f96" d="M105.281 61.404l2.034-6.491 2.059 8.283-4.093-1.792z"/>
  <path d="M107.315 54.913l2.151-5.524-4.458 1.9zm31.8 1.474l-1.415 7.545 6.595-0.8z" fill="#2636a5"/>
  <path id="globe-lines" d="M155.611 63.572V63.56l-0.257-8.6v-0.03l-1.293-4.291v-0.016l-3.7-6.981v-0.018L146.1 39.14l-0.008-0.007h-0.006l-4.491-3.206h-0.01l-0.009-0.005-3.9-1.53h-0.008l-4.696-1.692h-0.031l-7.705-0.49H125.2l-4.859 0.877h-0.019l-3.961 1.218h-0.009l-0.01 0.005-7.042 4.128h-0.011v0.005l-4.395 4.9v0.006l-4.053 6.583v0.024l-1.594 5.6v0.029l-0.3 8.5v0.04l1.519 5.794v0.025l3.352 6.6 0.007 0.011 2.363 3.186 0.007 0.007 0.005 0.006 3.271 3 0.008 0.006 0.006 0.006 4.085 2.763 0.009 0.006h0.006L118.6 87.8h0.026l8.43 0.99h0.011l4.4 0.123a0.107 0.107 0 0 0 0.025 0h0.008l6.515-1.835h0.018l5.819-3.2 0.009-0.007h0.008l3.746-3.2h0.005l2.905-3.465 0.011-0.015v-0.006l4.107-8.04v-0.034l0.906-5.5v-0.013zm-46 19.059l-0.847-0.777 1.905 1.492zm12.363 3.229L119 84.468l7.047 0.634zm1.086-25.35l-7.817 0.823 4.82-8.1zm-2.729-7.294L129.88 58l-6.568 2.456zm2.8 7.542l0.909 7.2-8.7-6.386zm0.8 7.437l-9.446 2.973 0.636-9.443zm-0.523-7.317l7.321 4.862-6.414 2.327zm0.117-0.228l6.569-2.457 0.761 7.325zm10.093-8.461l6.088-2.875-0.687 6.839zm5.193 4.126l-8.369 1.529 2.971-5.49zM130.2 57.75l-5.452-10.013 8.447 4.48zm-0.305-0.029l-9.612-4.815 4.132-5.249zm-14.843 3.438l-1.224-4.676 5.913-3.2zm-0.809 9.777l-4.672-7.666 5.3-1.609zm9.538-2.429l-4.752 5.078-4.351-2.212zm7.037-2.53l-1.695 6.1-4.664-3.8zm-0.46-7.674l7.065 5.573-6.3 1.735zm0.142-0.212l8.461-1.546-1.351 7.155zm8.767-1.884l0.679-6.763 3.909 5.31zm4.673-1.214l0.216 7.745-4.824-6.285zm-10.44-3.032l0.162-5.748 5.9 2.887zm-0.255 0l-8.415-4.462 8.579-1.333zm-13.1 0.717l-1.577-5.739 5.627 0.6zm-0.2 0.213l-5.969 3.232 4.391-8.972zm-5.096 8.509l-5.184 1.574 3.962-6.24zm-0.939 9.485l-6.472-4.585 1.931-2.867zm0.523 0.65l4.349 2.211-5.35 2.955zm9.781-3.121l4.671 3.8-9.492 1.347zm6.855-2.4l6.894 6.667-8.607-0.494zm0.183-0.176l6.328-1.738 0.568 8.409zm7.938-9.147l4.865 6.338-6.2 0.757zm5-1.647l4.108 2.322-3.893 5.384zm0.043-0.268l2.544-4.186 1.517 6.482zm-0.187-0.182l-3.912-5.314 6.49 1.072zm-10.283-8.614l4.595-4.16 1.319 7.057zm-9.092 1.281l2.915-5.174 5.616 3.848zm-6.086-0.58l3.3-6.721 2.361 7.32zm-4.92 9.471l-4.006-6.687 8.49-2.475zm-4.239 6.725l-1.937-7.793 5.984 1.417zm-2.134 3.184l-1.777-4.415 3.669 1.6zM114.2 71.4l-1 5.179-5.542-9.817zm4.777 2.528l1.52 5.133-6.918-2.151zm10.05-1.474l-1.507 6.671-8.113-5.306zm8.961 0.481l-3.9 3.533-4.538-4.018zm-0.14-8.671l6 6.069-5.439 2.306zm0.122-0.238l6.19-0.756-0.2 6.806zm10.47-6.419l2.473 8.328-6.426-2.861zm-1.4-7.037l4.033 3.059-2.522 3.4zm-6.94-1.556l3.743-4.288 2.757 5.364zm-0.169-0.193l-1.31-7.01 5.049 2.726zm-6.4-2.971l-5.591-3.831 10.16-0.309zm-9.064 1.261l-2.344-7.269 5.242 2.125zm-6.095-0.567l-2.715-3.681 5.981-2.961zm-0.189 0.173l-8.314 2.424 5.586-6.124zm-4.767 9.509l-5.926-1.4 2-5.145zm-4.224 6.75l-3.751-1.642 1.864-5.95zm-2.092 3.281l-3.227 1.18 1.439-5.624zm5.8 10.317l-7.1-4.4 1.5-5.512zm7.229 2.64l-6.716 1.065-0.029-3.162zm-0.855-5.177l7.895 5.164-6.388-0.073zm9.993-1.5l4.584 4.059-6.07 2.521zm8.975 0.507l2.423 6.715-6.354-3.154zm0.216-0.151l5.408-2.293-2.979 9.023zm5.955-9.576l6.424 2.86-6.628 3.968zm4.3-5.679l4.2 2.99-1.793 5.118zm-0.048-0.346l2.525-3.4 1.663 6.383zm-1.685-7.086l1.172-3.635 2.792 6.642zm-0.176-0.284l-2.671-5.181 3.846 1.538zm-7.915-8.255l5.593-0.365-0.7 3zm-11.075 0.1l3.938-4.884 6.311 4.573zm-0.233-0.117l-2.028-5.311 5.926 0.477zm-0.263 0.025l-5.18-2.1 3.175-3.151zm-11.637 0.889l2.227-6.425 3.781 3.45zm-5.975 6.37l1.631-6.675 3.871 0.644zm-2.421 5.7L105.2 51.35l4.041-1.725zm-0.111 0.3l-1.788 5.707-0.24-8.89zm-2.059 6.6l-1.458 5.7-2.289-5.694zm-3.805-0.249l0.123-5.595 3.613 5.59zm5.764 5.252l-1.449 5.312-1.771-4.135zm5.814 10.332l-4.4 0.623-2.515-4.908zm0.239 0.223l0.029 3.117L108.8 77.7zm7.338 2.328l-2.225 4.66-4.64-3.573zm0.259 0.047l5.885 5.433-8.131-0.732zm0.289-0.08l6.446 0.073-0.588 5.335zm12.953-2.558l0.246 6.028-6.312-3.508zm0.256 0.022l6.375 3.165-6.127 2.864zm9.888-6.177l3.165 4.95-6.149 4.086zm0.22-0.128l6.094 0.9-2.967 3.994zm0.113-0.24l6.519-3.9-0.424 4.8zm8.609-9.3l1.151 4.027-2.888 0.933zm-1.531-6.848l3.3 4.158-1.7 2zm-3.089-7.573l4.287 3.14-1.474 3.551zm-4.419-2.159l0.691-2.948 3.087 4.458zm-5.467-2.985l-0.744-4.5 6.449 4.131zm-0.283-0.151l-6.146-4.453 5.405-0.034zm-12.5-5.186l4.012-2.463 1.722 2.925zm-3.853 3.344l-3.715-3.39 6.872 0.257zm-6.534 3.228l-3.858-0.642 6.046-5.67zm-5.986 6.49l-3.948-3.2 5.6-3.567zm-0.168 0.191l-4.079 1.743 0.2-4.891zm-4.08 11.6l-3.665-5.669 3.412-3.678zm-1.588 6.7l-0.7 3.468-1.372-8.612zm0.177 0.415l1.717 4.009-2.448-0.35zm4.455 9.389l-2.589-0.5 0.165-4.234zm4.891 3l-1.839 1.769-2.47-4.246zm0.219 0.142l4.417 3.4-6.252-1.635zm14.413-1.058l6.305 3.5-6.9 1.853zm13.039 0.688l-0.345 4.4-5.688-1.579zm6.326-4.164l-3.5 6.132-2.474-2.17zm3.456-4.334l0.019 3.21-2.8 0.535zm0.7-5.468l2.848-0.92-3.247 5.453zm1.976-5.645l1.617-1.907-0.528 5.719zm-1.814-7.03l1.452-3.5 1.881 7.695zm-3.089-7.41l1.02-1.782 3.074 4.78zm-0.177-0.2l-3.017-4.356 4.037 2.574zm-10.123-9.209l3.054-0.325 3.09 4.261zm-6.2-0.179l-1.682-2.859L137 36.55zm-6.393-0.563l-1.355-2.372 5.307-0.053zm-0.269 0.042l-6.684-0.251 5.325-2.129zm-13.509 5.513l2.394-5.182 3.471-0.317zm-0.43 0.324l-2.188-2.1 4.618-3.16zm-0.164 0.2l-5.44 3.463L108.842 40zm-6.149 8.989l-2.73-1.468 2.924-3.316zm-0.086 0.242l-3.316 3.559 0.576-5.047zm-3.747 10.023l-1.4 1.148 1.51-6.083zm0.035 0.3l1.431 8.979-2.932-7.75zm4.431 10.693l-0.164 4.22L103.067 72zm2.815 5.4l2.328 4-4.79-4.474zm9.818 6.631l-0.1 2.318-6.108-3.941zm0.251 0.1l3.17 1.483-3.27 0.8zm8.443 0.738l0.1 3.251-4.609-2.427zm7.282-1.944l-1.869 4.4-4.942-2.582zm0.293-0.038l5.682 1.577-7.548 2.815zM141 80.28l2.408 2.105-2.74 2.125zm6.534-4.508l2.775-0.53-6.083 6.323zm3.269-1.227l-0.019-3.129 2.56-1.565zm0.225-3.576l3.108-5.224-0.572 3.674zm3.963-11.282l0.363 3.841-0.822 1.135zm-1.891-9.622l0.71 0.666 0.71 5.145zm-3.6-5.865l0.668-0.335 1.932 4.379zm-4.676-3.065L146 39.452l2.872 4.259zm-0.182-0.184l-3.058-4.217 4.233 2.536zm-6.887-4.416l-0.019-1.833 2.946 1.522zm-0.255-0.049l-6.733-2.767 6.713 0.884zm-13.318-3.091l1.072-0.92 3.554 0.874zm-5.854 2.2l2.085-2.245 2.882 0.259zm-0.538 0.206l-3.156 0.288 5.182-2.471zm-8.679 3.628l0.349-0.781 2.9-1.44zm-3.8 6.123L105.1 43.5l3.151-3.009zm-0.219 0.359l-2.613 2.963 2.407-4.956zm-3.892 9.252l-1.667 0.311 2.2-5zm-0.055 0.269l-1.595 6.429-0.1-6.113zm1.411 16l-1.9-1.561-0.908-5.851zm2.659 5.407l-1.211-0.4-0.811-3.627zm5.176 4.992l-4.024-2.191-0.646-2.172zm0.734 0.689l1.742 2.221-5.325-4.172zm0.652 0.418l5.539 3.575-3.625-1.134zm10.163 3.184l4.305 2.253-7.484-1.475zm5.166-0.856l4.819 2.507-4.721 0.748zm12.792-0.117l-1.957 1.688-4.4 0.684zm3.616-2.53l0.163 1.053-2.529 0.782zm6.562-6.774l-2.6 4.622-3.31 1.522zm0.725-0.77l1.742-3.217-1.862 4.413zm3.682-9.916l0.657-0.909-1.057 3.477zm0.633-6.857V58.3l-0.009-0.067 0.065-0.862 0.067 2.231zm-0.175-1.268l-0.658-4.767 0.815 2.7zm-1.958-7.434l-1.2-2.722 1.681 3.172zm-3.621-5.622l-2.4-3.557 3.059 3.226zm-8.012-7.691l0.16-0.115 1.844 1.316zm-0.242-0.138l-1.247-0.645 1.386 0.544zm-10.524-2.718l2.336-0.48 3.516 1.25zm-0.762-0.1l-3.181-0.782 5.334 0.339zm-6.027 0.058l-2.481-0.223 3.472-0.626zm-8.756 2.217l1.42-1.064 2.288-0.7zm-1.165 0.556l-1.232 0.612 1.894-1.108zm-5.167 3.543l-1.461 1.395 1.671-1.863zm-6.842 9.843l-0.649 0.241 2.523-4.1zm-0.846 0.585l0.7-0.26-1.772 4.027zm-1.745 10.446l0.037 2.24-0.13 0.407zm0.121 2.812l0.64 4.118-0.881-3.36zm3.334 8.518l0.821 3.675-2.619-5.156zm2.634 5.251l0.569 1.916-1.7-2.286zm12.725 9.866l0.238 0.378-2.49-1.083zm0.64 0.54l-0.293-0.466 5.417 1.067zM132 88.024l-0.569 0.644-2.974-0.082zm0.395-0.063l3.544-0.55-4.071 1.147zm8.19-3.06l2.079-0.643-3.666 2.012zm3.33-1.38l-0.164-1.055 3.038-1.4zm6.579-7.886l-0.142 1.417-2 2.384zm3.289-6.045l0.513-0.248-2.349 4.6zm0.683-0.612l-0.576 0.278 1.158-3.809z" fill="url(#b)"/>
  <path id="globe-lines-edge" d="M155.611 63.572V63.56l-0.257-8.6v-0.03l-1.293-4.291v-0.016l-3.7-6.981v-0.018L146.1 39.14l-0.008-0.007h-0.006l-4.491-3.206h-0.01l-0.009-0.005-3.9-1.53h-0.008l-4.696-1.692h-0.031l-7.705-0.49H125.2l-4.859 0.877h-0.019l-3.961 1.218h-0.009l-0.01 0.005-7.042 4.128h-0.011v0.005l-4.395 4.9v0.006l-4.053 6.583v0.024l-1.594 5.6v0.029l-0.3 8.5v0.04l1.519 5.794v0.025l3.352 6.6 0.007 0.011 2.363 3.186 0.007 0.007 0.005 0.006 3.271 3 0.008 0.006 0.006 0.006 4.085 2.763 0.009 0.006h0.006L118.6 87.8h0.026l8.43 0.99h0.011l4.4 0.123a0.107 0.107 0 0 0 0.025 0h0.008l6.515-1.835h0.018l5.819-3.2 0.009-0.007h0.008l3.746-3.2h0.005l2.905-3.465 0.011-0.015v-0.006l4.107-8.04v-0.034l0.906-5.5v-0.013zm-46 19.059l-0.847-0.777 1.905 1.492zm12.363 3.229L119 84.468l7.047 0.634zm1.086-25.35l-7.817 0.823 4.82-8.1zm-2.729-7.294L129.88 58l-6.568 2.456zm2.8 7.542l0.909 7.2-8.7-6.386zm0.8 7.437l-9.446 2.973 0.636-9.443zm-0.523-7.317l7.321 4.862-6.414 2.327zm0.117-0.228l6.569-2.457 0.761 7.325zm10.093-8.461l6.088-2.875-0.687 6.839zm5.193 4.126l-8.369 1.529 2.971-5.49zM130.2 57.75l-5.452-10.013 8.447 4.48zm-0.305-0.029l-9.612-4.815 4.132-5.249zm-14.843 3.438l-1.224-4.676 5.913-3.2zm-0.809 9.777l-4.672-7.666 5.3-1.609zm9.538-2.429l-4.752 5.078-4.351-2.212zm7.037-2.53l-1.695 6.1-4.664-3.8zm-0.46-7.674l7.065 5.573-6.3 1.735zm0.142-0.212l8.461-1.546-1.351 7.155zm8.767-1.884l0.679-6.763 3.909 5.31zm4.673-1.214l0.216 7.745-4.824-6.285zm-10.44-3.032l0.162-5.748 5.9 2.887zm-0.255 0l-8.415-4.462 8.579-1.333zm-13.1 0.717l-1.577-5.739 5.627 0.6zm-0.2 0.213l-5.969 3.232 4.391-8.972zm-5.096 8.509l-5.184 1.574 3.962-6.24zm-0.939 9.485l-6.472-4.585 1.931-2.867zm0.523 0.65l4.349 2.211-5.35 2.955zm9.781-3.121l4.671 3.8-9.492 1.347zm6.855-2.4l6.894 6.667-8.607-0.494zm0.183-0.176l6.328-1.738 0.568 8.409zm7.938-9.147l4.865 6.338-6.2 0.757zm5-1.647l4.108 2.322-3.893 5.384zm0.043-0.268l2.544-4.186 1.517 6.482zm-0.187-0.182l-3.912-5.314 6.49 1.072zm-10.283-8.614l4.595-4.16 1.319 7.057zm-9.092 1.281l2.915-5.174 5.616 3.848zm-6.086-0.58l3.3-6.721 2.361 7.32zm-4.92 9.471l-4.006-6.687 8.49-2.475zm-4.239 6.725l-1.937-7.793 5.984 1.417zm-2.134 3.184l-1.777-4.415 3.669 1.6zM114.2 71.4l-1 5.179-5.542-9.817zm4.777 2.528l1.52 5.133-6.918-2.151zm10.05-1.474l-1.507 6.671-8.113-5.306zm8.961 0.481l-3.9 3.533-4.538-4.018zm-0.14-8.671l6 6.069-5.439 2.306zm0.122-0.238l6.19-0.756-0.2 6.806zm10.47-6.419l2.473 8.328-6.426-2.861zm-1.4-7.037l4.033 3.059-2.522 3.4zm-6.94-1.556l3.743-4.288 2.757 5.364zm-0.169-0.193l-1.31-7.01 5.049 2.726zm-6.4-2.971l-5.591-3.831 10.16-0.309zm-9.064 1.261l-2.344-7.269 5.242 2.125zm-6.095-0.567l-2.715-3.681 5.981-2.961zm-0.189 0.173l-8.314 2.424 5.586-6.124zm-4.767 9.509l-5.926-1.4 2-5.145zm-4.224 6.75l-3.751-1.642 1.864-5.95zm-2.092 3.281l-3.227 1.18 1.439-5.624zm5.8 10.317l-7.1-4.4 1.5-5.512zm7.229 2.64l-6.716 1.065-0.029-3.162zm-0.855-5.177l7.895 5.164-6.388-0.073zm9.993-1.5l4.584 4.059-6.07 2.521zm8.975 0.507l2.423 6.715-6.354-3.154zm0.216-0.151l5.408-2.293-2.979 9.023zm5.955-9.576l6.424 2.86-6.628 3.968zm4.3-5.679l4.2 2.99-1.793 5.118zm-0.048-0.346l2.525-3.4 1.663 6.383zm-1.685-7.086l1.172-3.635 2.792 6.642zm-0.176-0.284l-2.671-5.181 3.846 1.538zm-7.915-8.255l5.593-0.365-0.7 3zm-11.075 0.1l3.938-4.884 6.311 4.573zm-0.233-0.117l-2.028-5.311 5.926 0.477zm-0.263 0.025l-5.18-2.1 3.175-3.151zm-11.637 0.889l2.227-6.425 3.781 3.45zm-5.975 6.37l1.631-6.675 3.871 0.644zm-2.421 5.7L105.2 51.35l4.041-1.725zm-0.111 0.3l-1.788 5.707-0.24-8.89zm-2.059 6.6l-1.458 5.7-2.289-5.694zm-3.805-0.249l0.123-5.595 3.613 5.59zm5.764 5.252l-1.449 5.312-1.771-4.135zm5.814 10.332l-4.4 0.623-2.515-4.908zm0.239 0.223l0.029 3.117L108.8 77.7zm7.338 2.328l-2.225 4.66-4.64-3.573zm0.259 0.047l5.885 5.433-8.131-0.732zm0.289-0.08l6.446 0.073-0.588 5.335zm12.953-2.558l0.246 6.028-6.312-3.508zm0.256 0.022l6.375 3.165-6.127 2.864zm9.888-6.177l3.165 4.95-6.149 4.086zm0.22-0.128l6.094 0.9-2.967 3.994zm0.113-0.24l6.519-3.9-0.424 4.8zm8.609-9.3l1.151 4.027-2.888 0.933zm-1.531-6.848l3.3 4.158-1.7 2zm-3.089-7.573l4.287 3.14-1.474 3.551zm-4.419-2.159l0.691-2.948 3.087 4.458zm-5.467-2.985l-0.744-4.5 6.449 4.131zm-0.283-0.151l-6.146-4.453 5.405-0.034zm-12.5-5.186l4.012-2.463 1.722 2.925zm-3.853 3.344l-3.715-3.39 6.872 0.257zm-6.534 3.228l-3.858-0.642 6.046-5.67zm-5.986 6.49l-3.948-3.2 5.6-3.567zm-0.168 0.191l-4.079 1.743 0.2-4.891zm-4.08 11.6l-3.665-5.669 3.412-3.678zm-1.588 6.7l-0.7 3.468-1.372-8.612zm0.177 0.415l1.717 4.009-2.448-0.35zm4.455 9.389l-2.589-0.5 0.165-4.234zm4.891 3l-1.839 1.769-2.47-4.246zm0.219 0.142l4.417 3.4-6.252-1.635zm14.413-1.058l6.305 3.5-6.9 1.853zm13.039 0.688l-0.345 4.4-5.688-1.579zm6.326-4.164l-3.5 6.132-2.474-2.17zm3.456-4.334l0.019 3.21-2.8 0.535zm0.7-5.468l2.848-0.92-3.247 5.453zm1.976-5.645l1.617-1.907-0.528 5.719zm-1.814-7.03l1.452-3.5 1.881 7.695zm-3.089-7.41l1.02-1.782 3.074 4.78zm-0.177-0.2l-3.017-4.356 4.037 2.574zm-10.123-9.209l3.054-0.325 3.09 4.261zm-6.2-0.179l-1.682-2.859L137 36.55zm-6.393-0.563l-1.355-2.372 5.307-0.053zm-0.269 0.042l-6.684-0.251 5.325-2.129zm-13.509 5.513l2.394-5.182 3.471-0.317zm-0.43 0.324l-2.188-2.1 4.618-3.16zm-0.164 0.2l-5.44 3.463L108.842 40zm-6.149 8.989l-2.73-1.468 2.924-3.316zm-0.086 0.242l-3.316 3.559 0.576-5.047zm-3.747 10.023l-1.4 1.148 1.51-6.083zm0.035 0.3l1.431 8.979-2.932-7.75zm4.431 10.693l-0.164 4.22L103.067 72zm2.815 5.4l2.328 4-4.79-4.474zm9.818 6.631l-0.1 2.318-6.108-3.941zm0.251 0.1l3.17 1.483-3.27 0.8zm8.443 0.738l0.1 3.251-4.609-2.427zm7.282-1.944l-1.869 4.4-4.942-2.582zm0.293-0.038l5.682 1.577-7.548 2.815zM141 80.28l2.408 2.105-2.74 2.125zm6.534-4.508l2.775-0.53-6.083 6.323zm3.269-1.227l-0.019-3.129 2.56-1.565zm0.225-3.576l3.108-5.224-0.572 3.674zm3.963-11.282l0.363 3.841-0.822 1.135zm-1.891-9.622l0.71 0.666 0.71 5.145zm-3.6-5.865l0.668-0.335 1.932 4.379zm-4.676-3.065L146 39.452l2.872 4.259zm-0.182-0.184l-3.058-4.217 4.233 2.536zm-6.887-4.416l-0.019-1.833 2.946 1.522zm-0.255-0.049l-6.733-2.767 6.713 0.884zm-13.318-3.091l1.072-0.92 3.554 0.874zm-5.854 2.2l2.085-2.245 2.882 0.259zm-0.538 0.206l-3.156 0.288 5.182-2.471zm-8.679 3.628l0.349-0.781 2.9-1.44zm-3.8 6.123L105.1 43.5l3.151-3.009zm-0.219 0.359l-2.613 2.963 2.407-4.956zm-3.892 9.252l-1.667 0.311 2.2-5zm-0.055 0.269l-1.595 6.429-0.1-6.113zm1.411 16l-1.9-1.561-0.908-5.851zm2.659 5.407l-1.211-0.4-0.811-3.627zm5.176 4.992l-4.024-2.191-0.646-2.172zm0.734 0.689l1.742 2.221-5.325-4.172zm0.652 0.418l5.539 3.575-3.625-1.134zm10.163 3.184l4.305 2.253-7.484-1.475zm5.166-0.856l4.819 2.507-4.721 0.748zm12.792-0.117l-1.957 1.688-4.4 0.684zm3.616-2.53l0.163 1.053-2.529 0.782zm6.562-6.774l-2.6 4.622-3.31 1.522zm0.725-0.77l1.742-3.217-1.862 4.413zm3.682-9.916l0.657-0.909-1.057 3.477zm0.633-6.857V58.3l-0.009-0.067 0.065-0.862 0.067 2.231zm-0.175-1.268l-0.658-4.767 0.815 2.7zm-1.958-7.434l-1.2-2.722 1.681 3.172zm-3.621-5.622l-2.4-3.557 3.059 3.226zm-8.012-7.691l0.16-0.115 1.844 1.316zm-0.242-0.138l-1.247-0.645 1.386 0.544zm-10.524-2.718l2.336-0.48 3.516 1.25zm-0.762-0.1l-3.181-0.782 5.334 0.339zm-6.027 0.058l-2.481-0.223 3.472-0.626zm-8.756 2.217l1.42-1.064 2.288-0.7zm-1.165 0.556l-1.232 0.612 1.894-1.108zm-5.167 3.543l-1.461 1.395 1.671-1.863zm-6.842 9.843l-0.649 0.241 2.523-4.1zm-0.846 0.585l0.7-0.26-1.772 4.027zm-1.745 10.446l0.037 2.24-0.13 0.407zm0.121 2.812l0.64 4.118-0.881-3.36zm3.334 8.518l0.821 3.675-2.619-5.156zm2.634 5.251l0.569 1.916-1.7-2.286zm12.725 9.866l0.238 0.378-2.49-1.083zm0.64 0.54l-0.293-0.466 5.417 1.067zM132 88.024l-0.569 0.644-2.974-0.082zm0.395-0.063l3.544-0.55-4.071 1.147zm8.19-3.06l2.079-0.643-3.666 2.012zm3.33-1.38l-0.164-1.055 3.038-1.4zm6.579-7.886l-0.142 1.417-2 2.384zm3.289-6.045l0.513-0.248-2.349 4.6zm0.683-0.612l-0.576 0.278 1.158-3.809z" fill="url(#c)"/>
  <path id="body-outer" d="M180.939 40.248c-2.53-6.078-7.653-12.64-11.676-14.714a60.287 60.287 0 0 1 5.893 17.645c0-0.014 0 0.012 0.009 0.055l0.01 0.063c5.491 14.871 2.5 29.994-1.811 39.235-6.67 14.3-22.818 28.952-48.092 28.237C97.964 110 73.908 89.756 69.417 63.245c-0.818-4.18 0-6.3 0.411-9.7a43.349 43.349 0 0 0-0.943 8.022c0 0.1-0.006 0.2-0.006 0.3a58.21 58.21 0 0 0 115.57 9.833c0.1-0.744 0.178-1.492 0.265-2.242a59.7 59.7 0 0 0-3.775-29.21z" fill="url(#d)"/>
  <path id="body-outer-shadow-overlay" d="M180.939 40.248c-2.53-6.078-7.653-12.64-11.676-14.714a60.287 60.287 0 0 1 5.893 17.645c0-0.014 0 0.012 0.009 0.055l0.01 0.063c5.491 14.871 2.5 29.994-1.811 39.235-6.67 14.3-22.818 28.952-48.092 28.237C97.964 110 73.908 89.756 69.417 63.245c-0.818-4.18 0-6.3 0.411-9.7a43.349 43.349 0 0 0-0.943 8.022c0 0.1-0.006 0.2-0.006 0.3a58.21 58.21 0 0 0 115.57 9.833c0.1-0.744 0.178-1.492 0.265-2.242a59.7 59.7 0 0 0-3.775-29.21z" fill="url(#e)"/>
  <path id="body-center" d="M69.417 63.245c4.491 26.511 28.547 46.755 55.855 47.524 25.274 0.715 41.422-13.94 48.092-28.237 4.311-9.241 7.3-24.364 1.811-39.235V43.29l-0.008-0.056c-0.006-0.043-0.01-0.069-0.009-0.055s0 0.033 0.012 0.1c2.064 13.466-4.793 26.512-15.512 35.332l-0.032 0.076c-20.887 16.989-40.874 10.25-44.921 7.492a31.768 31.768 0 0 1-0.847-0.422c-12.178-5.813-17.208-16.9-16.13-26.4a14.947 14.947 0 0 1-13.79-8.667s9.232-6.575 21.4-0.856a29.006 29.006 0 0 0 21.852 0.856c-0.021-0.472-10.151-4.5-14.1-8.384-2.11-2.077-3.112-3.078-4-3.829a17.175 17.175 0 0 0-1.507-1.137 78.722 78.722 0 0 0-1.206-0.8c-4.245-2.756-12.688-2.6-12.967-2.6h-0.027c-2.308-2.919-2.145-12.55-2.013-14.56a10.447 10.447 0 0 0-1.944 1.029 42.389 42.389 0 0 0-5.687 4.868 50.918 50.918 0 0 0-5.439 6.517v0.009-0.01a49.055 49.055 0 0 0-7.809 17.614c-0.026 0.126-2.091 9.155-1.074 13.838z" fill="url(#f)"/>
  <path id="tail-right" d="M147.613 40.305a31.605 31.605 0 0 1 5.4 7.043 11.241 11.241 0 0 1 0.874 0.714c13.2 12.145 6.282 29.323 5.766 30.546 10.719-8.82 17.576-21.866 15.512-35.332-6.579-16.386-17.738-22.994-26.852-37.376a72.636 72.636 0 0 1-1.371-2.227 19.125 19.125 0 0 1-0.641-1.2 10.608 10.608 0 0 1-0.868-2.3 0.152 0.152 0 0 0-0.133-0.163 0.211 0.211 0 0 0-0.109 0c-0.008 0-0.02 0.013-0.029 0.016s-0.029 0.017-0.043 0.023c-2.25 1.073-15.598 22.185 2.494 40.256z" fill="url(#g)"/>
  <path id="tail-left" d="M125.224 32.333l7.7 0.491 4.68 1.665 3.9 1.531L146 39.228l4.232 4.46 1.47 2.774a27.102 27.102 0 0 1 0.951 0.619c0.127 0.089 0.243 0.178 0.361 0.267a31.605 31.605 0 0 0-5.4-7.043c-18.093-18.071-4.745-39.183-2.494-40.256l0.024-0.033c-14.62 8.554-19.58 24.378-20.036 32.294v0.045z" fill="url(#h)"/>
  <path id="ear" d="M106.376 36.543a50.252 50.252 0 0 1 1.206 0.8 26.9 26.9 0 0 1-0.163-14.209 43.091 43.091 0 0 0-14.01 10.815c0.279-0.011 8.722-0.162 12.967 2.594z" fill="url(#i)"/>
  <path id="tufts" d="M100.953 67.124s2.687-10 19.237-10c1.789 0 6.9-4.987 7-6.434a29.006 29.006 0 0 1-21.852-0.856c-12.167-5.719-21.4 0.856-21.4 0.856a14.947 14.947 0 0 0 13.788 8.664c-1.078 9.5 3.952 20.587 16.13 26.4 0.272 0.13 0.528 0.272 0.807 0.4-7.108-3.673-12.977-10.608-13.71-19.03z" fill="url(#j)"/>
  <path id="tail-flame-small" d="M153.89 48.062a11.241 11.241 0 0 0-0.874-0.714c-0.118-0.089-0.234-0.178-0.361-0.267-3.108-2.18-8.673-4.334-14.034-3.4 20.934 10.455 15.314 46.457-13.694 45.1a25.877 25.877 0 0 1-7.573-1.459q-0.855-0.319-1.71-0.7c-0.328-0.15-0.656-0.3-0.981-0.469 0.012 0.009 0.028 0.018 0.04 0.026 4.047 2.758 24.034 9.5 44.921-7.492l0.032-0.076c0.516-1.226 7.429-18.404-5.766-30.549z" fill="url(#k)"/>
  <path id="highlight-overlay" d="M180.934 40.246c-2.53-6.078-7.653-12.641-11.676-14.715a60.327 60.327 0 0 1 5.894 17.646c0 0.009 0 0.033 0.011 0.1-6.581-16.387-17.741-22.995-26.855-37.382a72.575 72.575 0 0 1-1.371-2.226 18.564 18.564 0 0 1-0.64-1.2 10.608 10.608 0 0 1-0.869-2.3 0.151 0.151 0 0 0-0.128-0.161 0.191 0.191 0 0 0-0.109 0c-0.008 0-0.02 0.012-0.029 0.016a0.436 0.436 0 0 0-0.042 0.023l0.023-0.033c-14.62 8.554-19.578 24.424-20.033 32.341l0.118-0.022 7.7 0.491 4.337 1.543 4.244 1.653L146 39.228l4.227 4.458s1.454 2.731 1.475 2.776c-3.373-2.006-8.275-3.622-13.088-2.786 20.935 10.454 15.314 46.457-13.694 45.1a25.844 25.844 0 0 1-7.573-1.459 29.998 29.998 0 0 1-1.71-0.7 21.358 21.358 0 0 1-0.981-0.468l0.04 0.025q-0.423-0.2-0.847-0.421c0.272 0.13 0.528 0.271 0.807 0.4-7.108-3.669-12.977-10.6-13.71-19.026 0 0 2.687-10 19.237-10 1.79 0 6.905-4.988 7-6.434-0.022-0.472-10.152-4.5-14.1-8.384-2.11-2.077-3.112-3.079-4-3.83a17.341 17.341 0 0 0-1.508-1.136 26.9 26.9 0 0 1-0.163-14.209A43.089 43.089 0 0 0 93.4 33.943h-0.027c-2.308-2.92-2.145-12.55-2.013-14.561a10.516 10.516 0 0 0-1.943 1.03 42.365 42.365 0 0 0-5.688 4.867 50.918 50.918 0 0 0-5.429 6.512V31.8v-0.009a49.055 49.055 0 0 0-7.809 17.614c-0.028 0.126-0.052 0.257-0.079 0.384-0.109 0.511-0.6 3.109-0.671 3.666a67.648 67.648 0 0 0-0.858 8.112c0 0.1-0.006 0.2-0.006 0.3A58.211 58.211 0 0 0 184.445 71.7c0.1-0.744 0.177-1.492 0.264-2.243a59.7 59.7 0 0 0-3.775-29.211zm-5.774 2.985l0.01 0.063v-0.006z" fill="url(#l)"/>
  <path id="line-chin" d="M127.189 50.691s-0.246 0.1-0.7 0.259c-1.137 1.922-5.179 5.59-6.725 5.583-16.55-0.072-19.28 9.819-19.28 9.819a21.136 21.136 0 0 0 3.242 9.5 21.307 21.307 0 0 1-2.771-8.727s2.687-10 19.237-10c1.789 0 6.9-4.987 7-6.434z" fill="url(#m)"/>
  <path id="line-tail-right" d="M175.175 43.3v-0.005l-0.008-0.057-0.008-0.055c0.002 0.014 0 0.033 0.011 0.1-0.4-1-0.818-1.952-1.25-2.879-0.148-0.318-0.307-0.616-0.459-0.926a53.697 53.697 0 0 0-0.885-1.764c-0.187-0.353-0.384-0.687-0.576-1.03-0.281-0.5-0.56-1.007-0.85-1.491-0.213-0.354-0.433-0.693-0.649-1.038a63.706 63.706 0 0 0-0.854-1.339c-0.23-0.346-0.465-0.681-0.7-1.018a77.928 77.928 0 0 0-0.872-1.241 77.382 77.382 0 0 0-0.738-0.992c-0.295-0.392-0.59-0.784-0.889-1.168a94.638 94.638 0 0 0-0.774-0.975 74.963 74.963 0 0 0-0.907-1.118q-0.4-0.482-0.8-0.959c-0.146-0.173-0.289-0.35-0.437-0.522 0.063 0.075 0.124 0.152 0.186 0.228-5.042-5.95-10.515-11.433-15.4-19.149a68.899 68.899 0 0 1-1.371-2.227 17.67 17.67 0 0 1-0.641-1.2 11.913 11.913 0 0 1-0.8-2.04l-0.035-0.123c-0.02-0.077-0.032-0.136-0.032-0.136A0.152 0.152 0 0 0 145.3 0.01a0.211 0.211 0 0 0-0.109 0c-0.008 0-0.02 0.013-0.029 0.016s-0.029 0.016-0.043 0.023a1.775 1.775 0 0 0-0.353 0.259l-0.084 0.076a6.141 6.141 0 0 0-0.46 0.487l-0.016 0.017c-3.487 4.1-12.391 21.915 1.96 37.9-13.431-15.817-4.966-32.902-1.284-37.378a12.769 12.769 0 0 0 0.717 1.758 17.112 17.112 0 0 0 0.64 1.2c0.449 0.77 0.91 1.5 1.372 2.227 9.113 14.387 20.272 21 26.854 37.381-0.008-0.064-0.011-0.087-0.011-0.1s0 0.012 0.008 0.055l0.008 0.057v0.006c5.491 14.871 2.5 29.994-1.811 39.235a48.246 48.246 0 0 1-9.245 13.257 48.329 48.329 0 0 0 9.948-13.961c4.313-9.234 7.304-24.357 1.813-39.225z" fill="url(#a)"/>
  <path id="line-tail-left" d="M145.12 0.049l0.024-0.033c-13.17 7.706-18.5 21.309-19.762 29.719 1.449-7.77 6.429-19.639 17.589-27.132a8.136 8.136 0 0 1 2.149-2.554z" fill="url(#n)"/>
  <path id="line-tail-flame-small" d="M159.624 78.684l0.032-0.076c0.516-1.223 7.429-18.4-5.766-30.546a11.241 11.241 0 0 0-0.874-0.714c-0.118-0.089-0.234-0.178-0.361-0.267a20.313 20.313 0 0 0-13.493-3.481h-0.012a13.798 13.798 0 0 0-0.529 0.081c20.7 10.337 15.437 45.647-12.723 45.128 0.077 0 0.153 0.01 0.23 0.013 28.546 1.117 34.17-33.893 14.338-44.869a21.051 21.051 0 0 1 11.022 3.184c0.13 0.084 0.25 0.168 0.372 0.252a11.211 11.211 0 0 1 0.9 0.679c13.66 11.62 7.424 29.055 6.957 30.3l-0.03 0.077" fill="url(#o)"/>
  <path id="line-tufts" d="M105.493 50.415a29.076 29.076 0 0 0 21.044 0.517 29.083 29.083 0 0 1-21.2-1.1 22.12 22.12 0 0 0-21.121 0.673l-0.078 0.05h-0.006l-0.064 0.041-0.048 0.032h-0.006l-0.03 0.02-0.009 0.006-0.021 0.014h-0.008l0.027 0.063v0.01l0.034 0.076 0.007 0.014 0.05 0.108v0.009a12.046 12.046 0 0 0 0.383 0.731 14.888 14.888 0 0 0 13.278 7.652c-1.046 9.219 3.657 19.923 15.054 25.862-10.893-6.277-15.47-17.669-14.2-26.73-8.409-0.223-12.17-5.264-13.246-7.4a23 23 0 0 1 20.16-0.648z" fill="url(#p)"/>
  <path id="line-ear" d="M107.573 37.308l-0.285-0.166 0.294 0.2zm-0.06-0.214a26.943 26.943 0 0 1-0.094-13.963 42.436 42.436 0 0 0-13.47 10.218 43.9 43.9 0 0 1 12.283-8.677 27.279 27.279 0 0 0 1.281 12.422z" fill="url(#q)"/>
  <path id="line-body-outer" d="M70.82 69.339l-0.046-0.167a53.418 53.418 0 0 1-1.357-5.927 25.146 25.146 0 0 1 0-7.5 50.089 50.089 0 0 0-0.533 5.822c0 0.1-0.006 0.2-0.006 0.3a58.16 58.16 0 0 0 39.059 54.912 58.843 58.843 0 0 1-37.117-47.44z" fill="url(#r)"/>
  <path id="line-body-head" d="M70.355 63.48c-1.02-4.68 1.045-13.712 1.075-13.838a49.038 49.038 0 0 1 7.81-17.614v0.009-0.009a50.834 50.834 0 0 1 5.435-6.511 42.386 42.386 0 0 1 5.688-4.868 7.601 7.601 0 0 1 0.245-0.153c-0.02 4.423 0.231 11.885 2.28 14.332h0.027c0.28-0.014 8.751-0.388 13.085 2.256a71.008 71.008 0 0 1 1.231 0.765 17.166 17.166 0 0 1 1.543 1.1c0.911 0.727 1.943 1.7 4.115 3.723 3.146 2.925 10 5.835 12.966 7.222-2.886-1.454-9.7-4.56-12.766-7.583-2.11-2.077-3.112-3.078-4-3.829a17.175 17.175 0 0 0-1.507-1.137 78.722 78.722 0 0 0-1.206-0.8c-4.245-2.756-12.688-2.6-12.967-2.6h-0.027c-2.109-2.668-2.155-10.939-2.046-13.878 0-0.113 0.008-0.217 0.013-0.315v-0.187c0-0.063 0.007-0.124 0.011-0.177 0-0.008-0.01-0.011-0.023-0.01H91.32a0.155 0.155 0 0 0-0.037 0.008l-0.032 0.011-0.048 0.018-0.046 0.02-0.057 0.026-0.059 0.028-0.061 0.03-0.072 0.036-0.06 0.031-0.086 0.046-0.049 0.026a24.657 24.657 0 0 0-1.3 0.756 42.389 42.389 0 0 0-5.687 4.868 50.918 50.918 0 0 0-5.426 6.512v0.009-0.01a49.055 49.055 0 0 0-7.809 17.614c-0.028 0.126-2.095 9.155-1.076 13.838 3.822 22.561 21.814 40.578 43.92 45.923-21.674-5.622-39.213-23.447-42.98-45.688z" fill="url(#s)"/>
  <path id="line-body-tail" d="M180.939 40.248c-2.232-5.363-6.483-11.1-10.216-13.8l-0.1-0.074q-0.173-0.123-0.345-0.237l-0.131-0.086a8.394 8.394 0 0 0-0.324-0.2l-0.125-0.076a9.905 9.905 0 0 0-0.432-0.238 65.931 65.931 0 0 1 0.459 0.923l0.278 0.574a59.62 59.62 0 0 1 5.157 16.148c0 0.01 0 0.033 0.011 0.1 2.064 13.466-4.793 26.512-15.512 35.332l-0.032 0.076C146.3 89.522 133.343 90.7 124.656 89.422c8.656 1.617 22.311 0.935 36.374-10.5l0.032-0.075c10.719-8.821 17.576-21.867 15.512-35.333a2.083 2.083 0 0 1-0.011-0.1 58.38 58.38 0 0 0-4.25-14.163 38.437 38.437 0 0 1 6.365 9.069 57.943 57.943 0 0 1 5.379 28.5c-0.045 0.743-0.083 1.482-0.14 2.219-3.161 27.217-25.875 49.075-54.617 50.687a59.518 59.518 0 0 1-11.492-0.467 58.8 58.8 0 0 0 9.273 0.737 58.2 58.2 0 0 0 57.368-48.3c0.1-0.744 0.178-1.492 0.265-2.242a59.7 59.7 0 0 0-3.775-29.206zm-5.764 3.052v-0.007l-0.008-0.056z" fill="url(#t)"/>
  <path d="M5.756 176.46H2.07v11.08H5.8a5.584 5.584 0 0 0 5.909-5.54c0-3.142-2.328-5.54-5.953-5.54zm-0.093 9.077H4.288v-7.089H5.6c2.5 0 3.873 1.518 3.873 3.552a3.538 3.538 0 0 1-3.81 3.537zm7.769 2H21.1v-2.034h-5.464v-2.52H21.1v-2.018h-5.464v-2.49H21.1v-2.015h-7.668zm14.174-2.854l-3.061-8.226h-2.328l4.312 11.08H28.7l4.312-11.08H30.7zm6.646 2.854h7.67v-2.034h-5.467v-2.52h5.467v-2.018h-5.467v-2.49h5.467v-2.015h-7.67zm11.8-11.08h-2.219v11.08h7.483v-2.079h-5.265zm11.644-0.152A5.694 5.694 0 1 0 63.552 182a5.752 5.752 0 0 0-5.852-5.692zm0 9.274A3.59 3.59 0 1 1 61.334 182a3.574 3.574 0 0 1-3.634 3.582zm12.066-9.122h-4.5v11.08h2.218v-3.02h2.266a4.038 4.038 0 1 0 0.015-8.06zm-0.141 6.071H67.48v-4.113h2.14a2.06 2.06 0 1 1 0 4.113zm6.179 5.012h7.67v-2.034H78v-2.52h5.467v-2.018H78v-2.49h5.467v-2.018H75.8zm16.393-4.052a3.6 3.6 0 0 0 2-3.279c0-2.11-1.563-3.749-4.187-3.749h-4.628v11.08h2.2v-3.491h2.561l1.828 3.491h2.468zm-2.36-1.4h-2.251v-3.658h2.248c1.406 0 2.125 0.7 2.125 1.791a1.874 1.874 0 0 1-2.125 1.87z" fill="url(#u)"/>
  <path d="M0.5 144.59h16.087v4.349H5.115v5.9h11.472v4.315H5.115v9.488H0.5zm21.559-1.68a2.7 2.7 0 0 1-0.033 5.4 2.553 2.553 0 0 1-2.67-2.636 2.668 2.668 0 0 1 2.703-2.764zm-2.275 7.939h4.549v17.789h-4.549zm17.735 4.941A3.681 3.681 0 0 0 35.31 155c-1.846 0-2.9 1.186-2.9 3.788v9.85h-4.517v-17.789h4.319v2.57a4.241 4.241 0 0 1 4.252-2.735 5.4 5.4 0 0 1 3.033 0.923zm1.879 4.052a9.1 9.1 0 0 1 9.164-9.355 8.757 8.757 0 0 1 9.131 9.059v1.877H43.848a4.659 4.659 0 0 0 4.912 3.723 4.771 4.771 0 0 0 4.417-2.636l3.79 2.273A9.347 9.347 0 0 1 48.628 169c-5.769 0-9.228-3.854-9.228-9.158zm4.516-2.009h9.362a4.486 4.486 0 0 0-4.747-3.525 4.572 4.572 0 0 0-4.615 3.525zm14.9-6.984h3.2v-0.889c0-4.843 2.044-6.852 6.527-6.852h1.579v3.92h-1.285c-2.11 0-2.572 0.725-2.572 2.932v0.889h3.857v4.085h-3.758v13.7h-4.351v-13.7h-3.2zm12.164 8.894a9.11 9.11 0 0 1 9.3-9.256 9.257 9.257 0 1 1 0 18.513 8.976 8.976 0 0 1-9.301-9.257zm14.175 0a4.882 4.882 0 1 0-4.879 5.04 4.884 4.884 0 0 0 4.878-5.04zm10.548-0.2l-6.428-8.7h5.34l3.791 5.468 3.89-5.468h5.241l-6.527 8.664 6.857 9.125h-5.307l-4.253-5.8-4.12 5.8h-5.308zm40.831-3.327a5.53 5.53 0 0 0 3.23-5.191c0-3.876-3-6.373-7.526-6.373h-10.391v23.982h10.724c4.595 0 7.693-2.562 7.693-6.767a5.761 5.761 0 0 0-3.73-5.651zm-11.923-9.067h7.591c2.963 0 4.795 1.577 4.795 3.876s-1.6 4.008-4.562 4.008h-7.827zm7.927 18.955h-7.927v-8.541h7.791c3.331 0 5.063 1.741 5.063 4.271 0.002 2.496-1.93 4.266-4.927 4.266zm13.655-11.859v-3.351h-2.631v17.74h2.7v-9.724c0-3.91 1.731-5.618 4.728-5.618a3.984 3.984 0 0 1 2.2 0.559l1.133-2.562a5.933 5.933 0 0 0-3-0.658 4.975 4.975 0 0 0-5.13 3.614zm17.584-3.712a9.232 9.232 0 1 0 9.359 9.231 9.171 9.171 0 0 0-9.359-9.231zm0 15.9a6.687 6.687 0 0 1 0-13.371 6.686 6.686 0 0 1 0 13.371zm31.274-1.577l-5.362-13.962h-2.531l-5.5 14.06-4.529-14.06h-2.864l5.9 17.74h2.664l5.528-14.06 5.528 14.06h2.465l6.227-17.74h-2.831zm17.152-6.472c-2.8-0.558-4.962-0.92-4.962-2.759 0-1.643 1.132-2.825 3.9-2.825a5.831 5.831 0 0 1 4.929 2.365l2.264-1.511a8.741 8.741 0 0 0-7.193-3.154c-4.263-0.033-6.694 2.4-6.694 5.158 0 3.547 3.3 4.369 6.394 4.96 2.631 0.526 5.095 0.92 5.095 2.891 0 1.774-1.465 3.088-4.263 3.088a6.671 6.671 0 0 1-5.794-2.891l-2.365 1.577c1.6 2.267 4.163 3.712 8.093 3.712 4.7 0.033 7.093-2.726 7.093-5.519 0.002-3.646-3.398-4.5-6.498-5.092zm18.118-7.851a9.16 9.16 0 0 0-9.39 9.3c0 5.19 3.729 9.165 9.49 9.165a9.266 9.266 0 0 0 8.359-4.5l-2.331-1.346a6.964 6.964 0 0 1-12.855-2.365h15.886v-1.216a8.812 8.812 0 0 0-9.159-9.038zm-6.66 7.884a6.655 6.655 0 0 1 6.66-5.486 6.032 6.032 0 0 1 6.361 5.486zm26.844-7.786a4.975 4.975 0 0 0-5.129 3.614v-3.351h-2.631v17.74h2.7v-9.724c0-3.91 1.731-5.618 4.728-5.618a3.984 3.984 0 0 1 2.2 0.559l1.133-2.562a5.933 5.933 0 0 0-3.004-0.658z" fill="#fff"/>
</svg>
