<?xml version="1.0" encoding="utf-8"?>
<!-- Generator: Adobe Illustrator 21.0.0, SVG Export Plug-In . SVG Version: 6.00 Build 0)  -->
<svg version="1.1" xmlns="http://www.w3.org/2000/svg" xmlns:xlink="http://www.w3.org/1999/xlink" x="0px" y="0px"
	 viewBox="0 0 595.3 841.9" style="enable-background:new 0 0 595.3 841.9;" xml:space="preserve">
<style type="text/css">
	.st0{opacity:5.000000e-02;}
	.st1{clip-path:url(#SVGID_1_);}
	.st2{fill:#FFFFFF;}
	.st3{fill:none;}
	.st4{font-family:'ZillaSlab-MediumItalic';}
	.st5{font-size:8px;}
	.st6{letter-spacing:1;}
	.st7{letter-spacing:2;}
	.st8{font-family:'ZillaSlab-BoldItalic';}
	.st9{font-family:'ZillaSlab-SemiBoldItalic';}
	.st10{fill:#010101;}
	.st11{font-family:'ZillaSlab-Bold';}
	.st12{font-size:24px;}
	.st13{fill:#58595B;}
	.st14{font-family:'ZillaSlab-SemiBold';}
	.st15{font-size:16px;}
	.st16{font-family:'ZillaSlabHighlight-Regular';}
	.st17{font-size:33.6678px;}
	.st18{letter-spacing:4;}
	.st19{letter-spacing:3;}
	.st20{fill:#59595B;}
	.st21{font-family:'ZillaSlab-Medium';}
	.st22{font-size:14px;}
</style>
<g id="background">
	<g class="st0">
		<g>
			<defs>
				<rect id="SVGID_3_" x="119.6" y="246.5" width="356" height="348.9"/>
			</defs>
			<clipPath id="SVGID_1_">
				<use xlink:href="#SVGID_3_"  style="overflow:visible;"/>
			</clipPath>
			<path class="st1" d="M297,253.2c-48,0-91.4,20-122.2,52.2c-1.6-5.3-3.2-12-4.6-20.4c0-0.1,0-0.1,0.1-0.1c0,0,0,0,0,0
				c-0.4-2.7-2.3-4.9-4.9-5.7c-0.7-0.2-1.4-0.3-2.1-0.3c-2,0-3.8,0.8-5.2,2.3c-18.5,20.4-19.5,56.9-19.4,66.7
				c-15.9,23.2-19.1,33-19.1,41.7c0,6.2,0.7,9.1,2.8,11.1c0.9,0.9,2,1.5,3.1,1.8c-1.7,7.6-3.2,17.2-3.2,27.8
				c0,67.9,60.4,161.9,173.8,161.9c74.1,0,117.4-43.9,140.5-80.8c26.3-41.9,36.2-89.1,36.2-108.9c0-13.5-2.3-23.3-3.1-26.6
				c-0.7-3.2-3.6-5.5-6.9-5.5h-0.1c-2.8-20.3-9.5-48.1-25.5-63.9c-1.4-1.4-3.1-2.1-5-2.1c-1.3,0-2.6,0.4-3.8,1.1
				c-0.9,0.6-1.6,1.3-2.1,2.1c-4-4.4-8.7-8.7-14.1-12.5c-3-2-6.4-3.8-10-5.3c-0.2-0.2-0.4-0.3-0.6-0.5
				C372.8,266.8,336.4,253.2,297,253.2L297,253.2z M297,267.4c23.1,0,45,5.1,64.7,14.2c-4-0.2-8-0.4-12.4-0.4
				c-4.8,0-9.8,0.1-15.1,0.4c2.7,0,5.2,0.2,7.7,0.3c-2.4-0.1-4.9-0.2-7.4-0.2c21.2,0.3,35.7,15.6,37.5,21.4
				c-2.4-0.5-4.7-0.7-6.9-0.8c-1.8,0-3.6,0.1-5.2,0.2c-3.8,0.4-6.9,1.3-9.2,2.1c34,14.5,70.2,34.3,65.5,65.5
				c-3.3-5.6-10-9.7-13.5-9.8h0c-0.1,0-0.3,0-0.4,0c9.9,19.9,7.3,45.6,2,69c-1.6-11.5-10.6-21.9-10.6-21.9s9.5,54.9-18.6,82.8
				c4.4-11,3.8-27,3.8-27s-29.7,45.7-67,45.7c-37.4,0-57.6-20.8-63.8-26.7c2.3,0.2,4.6,0.3,6.8,0.3c-0.1,0-0.1,0-0.1,0
				c2.2,0,4.2-0.1,6.3-0.2c29.3-2.1,48.3-19.1,50-20.3c2.6-1.9,4.4-2.6,6.4-2.6c1.3,0,2.6,0.3,4.3,0.7c0.4,0.1,1,0.1,1.5,0
				c2.2-0.3,4.6-2.1,4.6-4.8c0-5-10.2-16.3-25.1-16.3c-17.1,0-20.2,11-37.1,11c-17.1,0-37.9-25.8-38.5-27.9
				c0-2.8,0.5-11.7,10.1-13.1c12.6,2,21.4,4.4,24,4.5c2.3-13-4.6-24.5-5.7-26.7c4.9-6.3,21.4-16.7,23-17.8c2.9-2.1,6.1-7.2,6.1-10.1
				c0-2.6-2.7-3.2-2.7-3.2s-3.9-0.2-10.2-0.7c-11.6-1-12.6-2.9-18.4-8.1C249.1,343,242,335,242,335s1.8-15.3,25.4-36.7
				c-19.3,0-45.4,22.7-45.4,22.7s-5.6-2.7-14-2.7c-15.1,0-25.2,5.2-25.2,5.2s-0.9-1.4-2.2-3.6C209.1,287.7,250.6,267.4,297,267.4
				L297,267.4z"/>
		</g>
	</g>
</g>
<g id="footer">
	<rect x="-1" y="742" width="598" height="104"/>
	<g>
		<path class="st2" d="M106.4,797.3c0,0.7,0.3,1.3,1.3,1.3c1.1,0,2.3-0.8,2.4-2.6c-0.5-0.1-1.1-0.1-1.6-0.1
			C107.4,795.8,106.4,796.1,106.4,797.3L106.4,797.3z"/>
		<path class="st2" d="M33.5,780.4v26.8h83.7v-26.8H33.5z M57.2,800.6h-4.6v-6.2c0-1.9-0.6-2.6-1.9-2.6c-1.5,0-2.1,1.1-2.1,2.6v3.8
			H50v2.4h-4.6v-6.2c0-1.9-0.6-2.6-1.9-2.6c-1.5,0-2.1,1.1-2.1,2.6v3.8h2.1v2.4h-6.7v-2.4h1.5V792h-1.6v-2.4h4.8v1.7
			c0.7-1.2,1.8-1.9,3.4-1.9c1.6,0,3.1,0.8,3.6,2.4c0.6-1.5,1.9-2.4,3.6-2.4c2,0,3.8,1.2,3.8,3.8v5.1h1.5V800.6z M64.2,800.9
			c-3.4,0-5.8-2.1-5.8-5.6c0-3.2,2-5.9,5.9-5.9s5.9,2.7,5.9,5.8C70.3,798.6,67.8,800.9,64.2,800.9L64.2,800.9z M81.9,800.6h-9.7
			l-0.3-1.7l6.1-7h-3.5l-0.5,1.7l-2.3-0.2l0.4-3.9h9.7l0.2,1.7l-6.1,7h3.6l0.5-1.7l2.5,0.2L81.9,800.6L81.9,800.6z M87.8,800.6h-3.3
			v-4h3.3V800.6z M87.8,793.5h-3.3v-4h3.3V793.5z M89.6,800.6l4.8-16.9h3.1l-4.8,16.9H89.6L89.6,800.6z M96,800.6l4.8-16.9h3.1
			l-4.8,16.9H96L96,800.6z M112.5,800.9c-1.5,0-2.3-0.9-2.4-2.2c-0.6,1.1-1.8,2.2-3.6,2.2c-1.6,0-3.4-0.9-3.4-3.2
			c0-2.7,2.6-3.4,5.2-3.4c0.6,0,1.2,0,1.8,0.1v-0.4c0-1.1,0-2.5-1.8-2.5c-0.7,0-1.2,0-1.7,0.3l-0.4,1.6l-2.5-0.3l0.5-2.9
			c1.9-0.8,2.9-1,4.7-1c2.4,0,4.4,1.2,4.4,3.7v4.8c0,0.6,0.2,0.9,0.8,0.9c0.2,0,0.3,0,0.5-0.1l0,1.7
			C113.9,800.7,113.2,800.9,112.5,800.9z"/>
		<path class="st2" d="M64.4,791.8c-1.6,0-2.6,1.2-2.6,3.3c0,1.9,0.9,3.4,2.6,3.4c1.6,0,2.7-1.3,2.7-3.4
			C67.1,792.8,65.9,791.8,64.4,791.8z"/>
	</g>
	<rect x="153.6" y="776.3" class="st3" width="261.5" height="34.9"/>
	<text transform="matrix(1 0 0 1 153.6153 781.8326)"><tspan x="0" y="0" class="st2 st4 st5">The</tspan><tspan x="12.5" y="0" class="st2 st4 st5 st6"> </tspan><tspan x="15.8" y="0" class="st2 st4 st5">Mozilla</tspan><tspan x="40.2" y="0" class="st2 st4 st5 st6"> </tspan><tspan x="43.5" y="0" class="st2 st4 st5">Foundation</tspan><tspan x="81.2" y="0" class="st2 st4 st5 st6"> </tspan><tspan x="84.5" y="0" class="st2 st4 st5">is</tspan><tspan x="90" y="0" class="st2 st4 st5 st6"> </tspan><tspan x="93.3" y="0" class="st2 st4 st5">a</tspan><tspan x="97.4" y="0" class="st2 st4 st5 st6"> </tspan><tspan x="100.7" y="0" class="st2 st4 st5">non-profit</tspan><tspan x="133.8" y="0" class="st2 st4 st5 st6"> </tspan><tspan x="137.1" y="0" class="st2 st4 st5">organization</tspan><tspan x="178.9" y="0" class="st2 st4 st5 st6"> </tspan><tspan x="182.2" y="0" class="st2 st4 st5">dedicated</tspan><tspan x="214" y="0" class="st2 st4 st5 st6"> </tspan><tspan x="217.3" y="0" class="st2 st4 st5">to</tspan><tspan x="224" y="0" class="st2 st4 st5 st6"> </tspan><tspan x="227.3" y="0" class="st2 st4 st5">promoting </tspan><tspan x="0" y="9.6" class="st2 st4 st5">openness, innovation and participation on the Internet. Mozilla is best known for </tspan><tspan x="0" y="19.2" class="st2 st4 st5">the</tspan><tspan x="10.4" y="19.2" class="st2 st4 st5 st7"> </tspan><tspan x="14.2" y="19.2" class="st2 st4 st5">Firefox</tspan><tspan x="37.1" y="19.2" class="st2 st4 st5 st7"> </tspan><tspan x="40.9" y="19.2" class="st2 st4 st5">browser,</tspan><tspan x="68.7" y="19.2" class="st2 st4 st5 st7"> </tspan><tspan x="72.5" y="19.2" class="st2 st4 st5">but</tspan><tspan x="83.6" y="19.2" class="st2 st4 st5 st7"> </tspan><tspan x="87.4" y="19.2" class="st2 st4 st5">we</tspan><tspan x="96.7" y="19.2" class="st2 st4 st5 st7"> </tspan><tspan x="100.5" y="19.2" class="st2 st4 st5">also</tspan><tspan x="113.7" y="19.2" class="st2 st4 st5 st7"> </tspan><tspan x="117.6" y="19.2" class="st2 st4 st5">advance</tspan><tspan x="144.9" y="19.2" class="st2 st4 st5 st7"> </tspan><tspan x="148.7" y="19.2" class="st2 st4 st5">our</tspan><tspan x="159.5" y="19.2" class="st2 st4 st5 st7"> </tspan><tspan x="163.3" y="19.2" class="st2 st4 st5">mission</tspan><tspan x="188.7" y="19.2" class="st2 st4 st5 st7"> </tspan><tspan x="192.5" y="19.2" class="st2 st4 st5">through</tspan><tspan x="218.5" y="19.2" class="st2 st4 st5 st7"> </tspan><tspan x="222.3" y="19.2" class="st2 st4 st5">many</tspan><tspan x="240.7" y="19.2" class="st2 st4 st5 st7"> </tspan><tspan x="244.5" y="19.2" class="st2 st4 st5">other </tspan><tspan x="0" y="28.8" class="st2 st4 st5">projects and efforts. </tspan><tspan x="66.4" y="28.8" class="st2 st8 st5">Read more at mozilla.org.</tspan></text>
	<g>
		<g>
			<g id="icon-twitter">
				<path class="st2" d="M452.3,782.7c3.6,0,5.6-3,5.6-5.6c0-0.1,0-0.2,0-0.3c0.4-0.3,0.7-0.6,1-1c-0.4,0.2-0.7,0.3-1.1,0.3
					c0.4-0.2,0.7-0.6,0.9-1.1c-0.4,0.2-0.8,0.4-1.3,0.5c-0.4-0.4-0.9-0.6-1.4-0.6c-1.1,0-2,0.9-2,2c0,0.2,0,0.3,0.1,0.5
					c-1.6-0.1-3.1-0.9-4.1-2.1c-0.2,0.3-0.3,0.6-0.3,1c0,0.7,0.4,1.3,0.9,1.6c-0.3,0-0.6-0.1-0.9-0.2v0c0,1,0.7,1.8,1.6,1.9
					c-0.2,0-0.3,0.1-0.5,0.1c-0.1,0-0.3,0-0.4,0c0.2,0.8,1,1.4,1.8,1.4c-0.7,0.5-1.5,0.8-2.5,0.8c-0.2,0-0.3,0-0.5,0
					C450.1,782.4,451.2,782.7,452.3,782.7"/>
			</g>
		</g>
		<g>
			<g id="icon-instagram">
				<g>
					<path class="st2" d="M454.3,789.2c1.4,0,1.5,0,2.1,0c0.5,0,0.8,0.1,0.9,0.2c0.2,0.1,0.4,0.2,0.6,0.4c0.2,0.2,0.3,0.4,0.4,0.6
						c0.1,0.2,0.2,0.4,0.2,0.9c0,0.5,0,0.7,0,2.1c0,1.4,0,1.5,0,2.1c0,0.5-0.1,0.8-0.2,0.9c-0.2,0.4-0.5,0.8-1,1
						c-0.2,0.1-0.4,0.2-0.9,0.2c-0.5,0-0.7,0-2.1,0s-1.5,0-2.1,0c-0.5,0-0.8-0.1-0.9-0.2c-0.2-0.1-0.4-0.2-0.6-0.4
						c-0.2-0.2-0.3-0.4-0.4-0.6c-0.1-0.2-0.2-0.4-0.2-0.9c0-0.5,0-0.7,0-2.1c0-1.4,0-1.5,0-2.1c0-0.5,0.1-0.8,0.2-0.9
						c0.1-0.2,0.2-0.4,0.4-0.6c0.2-0.2,0.4-0.3,0.6-0.4c0.2-0.1,0.4-0.2,0.9-0.2C452.8,789.2,453,789.2,454.3,789.2L454.3,789.2z
						 M454.3,788.3c-1.4,0-1.6,0-2.1,0c-0.5,0-0.9,0.1-1.2,0.2c-0.3,0.1-0.6,0.3-0.9,0.6c-0.3,0.3-0.5,0.6-0.6,0.9
						c-0.1,0.3-0.2,0.7-0.2,1.2c0,0.5,0,0.7,0,2.1s0,1.6,0,2.1c0,0.5,0.1,0.9,0.2,1.2c0.1,0.3,0.3,0.6,0.6,0.9
						c0.3,0.3,0.6,0.5,0.9,0.6c0.3,0.1,0.7,0.2,1.2,0.2c0.5,0,0.7,0,2.1,0c1.4,0,1.6,0,2.1,0c0.5,0,0.9-0.1,1.2-0.2
						c0.7-0.3,1.2-0.8,1.5-1.5c0.1-0.3,0.2-0.7,0.2-1.2c0-0.5,0-0.7,0-2.1c0-1.4,0-1.6,0-2.1c0-0.5-0.1-0.9-0.2-1.2
						c-0.1-0.3-0.3-0.6-0.6-0.9c-0.3-0.3-0.6-0.5-0.9-0.6c-0.3-0.1-0.7-0.2-1.2-0.2C455.9,788.3,455.7,788.3,454.3,788.3
						L454.3,788.3z"/>
					<path class="st2" d="M454.3,790.8c-1.4,0-2.6,1.2-2.6,2.6c0,1.4,1.2,2.6,2.6,2.6s2.6-1.2,2.6-2.6
						C456.9,791.9,455.8,790.8,454.3,790.8z M454.3,795.1c-0.9,0-1.7-0.8-1.7-1.7c0-0.9,0.8-1.7,1.7-1.7s1.7,0.8,1.7,1.7
						C456,794.3,455.3,795.1,454.3,795.1z"/>
					<circle class="st2" cx="457.1" cy="790.7" r="0.6"/>
				</g>
			</g>
		</g>
		<g>
			<g id="icon-facebook">
				<path class="st2" d="M452.9,813.1v-4.8h1.6l0.2-1.7h-1.8l0-0.8c0-0.4,0-0.7,0.8-0.7h1v-1.7h-1.6c-1.9,0-2.6,0.8-2.6,2.2v1h-1.2
					v1.7h1.2v4.8H452.9z"/>
			</g>
		</g>
		<text transform="matrix(1 0 0 1 467.5598 781.0876)"><tspan x="0" y="0" class="st2 st9 st5">twitter.com/mozilla</tspan><tspan x="0" y="15" class="st2 st9 st5">instagram.com/mozillagram</tspan><tspan x="0" y="30" class="st2 st9 st5">facebook.com/mozilla</tspan></text>
	</g>
</g>
<g id="logo">
	<g>
		<path class="st10" d="M534.1,81.2c0,1.2,0.6,2.1,2.1,2.1c1.8,0,3.8-1.3,3.9-4.3c-0.9-0.1-1.7-0.2-2.6-0.2
			C535.7,78.7,534.1,79.2,534.1,81.2z"/>
		<path class="st10" d="M415.1,53.5v43.9h136.8V53.5H415.1z M453.8,86.6h-7.6V76.4c0-3.1-1-4.3-3.1-4.3c-2.5,0-3.5,1.8-3.5,4.3v6.3
			h2.4v3.9h-7.6V76.4c0-3.1-1-4.3-3.1-4.3c-2.5,0-3.5,1.8-3.5,4.3v6.3h3.4v3.9h-11v-3.9h2.4V72.4h-2.6v-3.9h7.8v2.7
			c1.1-1.9,3-3.1,5.5-3.1c2.6,0,5,1.2,5.9,3.9c1-2.4,3-3.9,5.9-3.9c3.2,0,6.2,2,6.2,6.3v8.3h2.4L453.8,86.6z M465.3,87
			c-5.6,0-9.4-3.4-9.4-9.2c0-5.3,3.2-9.7,9.7-9.7c6.5,0,9.7,4.4,9.7,9.4C475.3,83.3,471.1,87,465.3,87L465.3,87z M494.1,86.6h-15.8
			l-0.5-2.7l9.9-11.4h-5.6l-0.8,2.8l-3.7-0.4l0.6-6.3h15.9l0.4,2.7l-10,11.4h5.8l0.8-2.8l4.1,0.4L494.1,86.6z M503.9,86.6h-5.4v-6.5
			h5.4V86.6z M503.9,75h-5.4v-6.5h5.4V75z M506.7,86.6l7.8-27.6h5.1l-7.8,27.6H506.7z M517.2,86.6L525,59h5.1l-7.8,27.6H517.2z
			 M544.1,87c-2.4,0-3.7-1.4-4-3.6c-1,1.8-2.9,3.6-5.8,3.6c-2.6,0-5.6-1.4-5.6-5.2c0-4.4,4.3-5.5,8.4-5.5c1,0,2,0,3,0.2v-0.6
			c0-1.8,0-4-3-4c-1.1,0-1.9,0.1-2.8,0.5l-0.7,2.6l-4.1-0.4l0.8-4.7c3.2-1.3,4.8-1.7,7.7-1.7c3.9,0,7.2,2,7.2,6.1v7.9
			c0,1,0.4,1.4,1.2,1.4c0.3,0,0.5,0,0.8-0.1l0,2.7C546.4,86.7,545.3,87,544.1,87L544.1,87z"/>
		<path class="st10" d="M465.5,72.1c-2.6,0-4.3,2-4.3,5.4c0,3.1,1.4,5.5,4.3,5.5c2.7,0,4.4-2.2,4.4-5.6
			C469.9,73.7,468,72.1,465.5,72.1L465.5,72.1z"/>
	</g>
</g>
<g id="text">
	<text transform="matrix(1 0 0 1 64.4211 153.9156)" class="st10 st11 st12">Mozilla Localization Contributor Certificate</text>
	<text transform="matrix(1 0 0 1 224.1173 215.3063)" class="st13 st14 st15">This is to certify that</text>
	<text transform="matrix(1 0 0 1 155.4786 291.2544)" class="st16 st17">&lt;Volunteer’s Name&gt;</text>
	<rect x="43.2" y="340.9" class="st3" width="508.7" height="186.6"/>
	<text transform="matrix(1 0 0 1 43.1923 351.946)"><tspan x="0" y="0" class="st13 st14 st15">is</tspan><tspan x="11.9" y="0" class="st13 st14 st15 st18"> </tspan><tspan x="19.8" y="0" class="st13 st14 st15">part</tspan><tspan x="49.9" y="0" class="st13 st14 st15 st18"> </tspan><tspan x="57.9" y="0" class="st13 st14 st15">of</tspan><tspan x="71.5" y="0" class="st13 st14 st15 st18"> </tspan><tspan x="79.5" y="0" class="st13 st14 st15">our</tspan><tspan x="103.9" y="0" class="st13 st14 st15 st18"> </tspan><tspan x="111.9" y="0" class="st13 st14 st15">global</tspan><tspan x="154.7" y="0" class="st13 st14 st15 st18"> </tspan><tspan x="162.6" y="0" class="st13 st14 st15">community</tspan><tspan x="244.1" y="0" class="st13 st14 st15 st18"> </tspan><tspan x="252.1" y="0" class="st13 st14 st15">of</tspan><tspan x="265.7" y="0" class="st13 st14 st15 st18"> </tspan><tspan x="273.7" y="0" class="st13 st14 st15">contributors</tspan><tspan x="363.2" y="0" class="st13 st14 st15 st18"> </tspan><tspan x="371.2" y="0" class="st13 st14 st15">working</tspan><tspan x="430.2" y="0" class="st13 st14 st15 st18"> </tspan><tspan x="438.2" y="0" class="st13 st14 st15">to</tspan><tspan x="452.7" y="0" class="st13 st14 st15 st18"> </tspan><tspan x="460.7" y="0" class="st13 st14 st15">ensure </tspan><tspan x="0" y="19.2" class="st13 st14 st15">Mozilla&apos;s</tspan><tspan x="62.1" y="19.2" class="st13 st14 st15 st19"> </tspan><tspan x="69" y="19.2" class="st13 st14 st15">open</tspan><tspan x="103.4" y="19.2" class="st13 st14 st15 st19"> </tspan><tspan x="110.3" y="19.2" class="st13 st14 st15">source</tspan><tspan x="157.1" y="19.2" class="st13 st14 st15 st19"> </tspan><tspan x="164" y="19.2" class="st13 st14 st15">projects</tspan><tspan x="221" y="19.2" class="st13 st14 st15 st19"> </tspan><tspan x="227.9" y="19.2" class="st13 st14 st15">and</tspan><tspan x="254.2" y="19.2" class="st13 st14 st15 st19"> </tspan><tspan x="261.1" y="19.2" class="st13 st14 st15">products</tspan><tspan x="324.5" y="19.2" class="st13 st14 st15 st19"> </tspan><tspan x="331.4" y="19.2" class="st13 st14 st15">have</tspan><tspan x="364.5" y="19.2" class="st13 st14 st15 st19"> </tspan><tspan x="371.4" y="19.2" class="st13 st14 st15">been</tspan><tspan x="404.8" y="19.2" class="st13 st14 st15 st19"> </tspan><tspan x="411.7" y="19.2" class="st13 st14 st15">localized</tspan><tspan x="473.2" y="19.2" class="st13 st14 st15 st19"> </tspan><tspan x="480.1" y="19.2" class="st13 st14 st15">into </tspan><tspan x="59.4" y="38.4" class="st11 st15">&lt;language&gt;</tspan><tspan x="137.6" y="38.4" class="st13 st14 st15"> since </tspan><tspan x="180.4" y="38.4" class="st11 st15">&lt;MM/YYYY&gt; </tspan><tspan x="272.3" y="38.4" class="st20 st14 st15">as </tspan><tspan x="290.7" y="38.4" class="st11 st15">&lt;translator/manager&gt;</tspan><tspan x="445.7" y="38.4" class="st13 st14 st15">.</tspan><tspan x="0" y="76.8" class="st13 st14 st15">Mozilla</tspan><tspan x="51.7" y="76.8" class="st13 st14 st15 st19"> </tspan><tspan x="58" y="76.8" class="st13 st14 st15">would</tspan><tspan x="101.2" y="76.8" class="st13 st14 st15 st19"> </tspan><tspan x="107.6" y="76.8" class="st13 st14 st15">like</tspan><tspan x="133" y="76.8" class="st13 st14 st15 st19"> </tspan><tspan x="139.4" y="76.8" class="st13 st14 st15">to</tspan><tspan x="153.9" y="76.8" class="st13 st14 st15 st19"> </tspan><tspan x="160.3" y="76.8" class="st13 st14 st15">thank</tspan><tspan x="201.6" y="76.8" class="st13 st14 st15 st19"> </tspan><tspan x="208" y="76.8" class="st13 st14 st15">you</tspan><tspan x="233.9" y="76.8" class="st13 st14 st15 st19"> </tspan><tspan x="240.2" y="76.8" class="st13 st14 st15">for</tspan><tspan x="260.8" y="76.8" class="st13 st14 st15 st19"> </tspan><tspan x="267.2" y="76.8" class="st13 st14 st15">your</tspan><tspan x="300" y="76.8" class="st13 st14 st15 st19"> </tspan><tspan x="306.4" y="76.8" class="st13 st14 st15">excellent</tspan><tspan x="369.7" y="76.8" class="st13 st14 st15 st19"> </tspan><tspan x="376.1" y="76.8" class="st13 st14 st15">contributions</tspan><tspan x="472.8" y="76.8" class="st13 st14 st15 st19"> </tspan><tspan x="479.1" y="76.8" class="st13 st14 st15">that </tspan><tspan x="1.2" y="96" class="st13 st14 st15">advances our mission and helping our organization in a remarkable way.</tspan><tspan x="410.7" y="133.2" class="st13 st21 st22">Yours faithfully,</tspan></text>
	<g>
		<text transform="matrix(1 0 0 1 43.1924 564.5515)" class="st13 st21 st22">&lt;City&gt;, &lt;DD&gt; &lt;Month&gt; &lt;YYYY&gt;</text>
	</g>
	<g>
		<text transform="matrix(1 0 0 1 423.384 564.5516)"><tspan x="0" y="0" class="st13 st21 st22">&lt;team driver&apos;s name&gt;</tspan><tspan x="16.7" y="16.8" class="st13 st21 st22">&lt;position&gt;, Mozilla</tspan></text>
	</g>
</g>
</svg>
