<?xml version="1.0" encoding="utf-8"?>
<!-- Generator: Adobe Illustrator 20.0.0, SVG Export Plug-In . SVG Version: 6.00 Build 0)  -->
<svg version="1.1" xmlns="http://www.w3.org/2000/svg" xmlns:xlink="http://www.w3.org/1999/xlink" x="0px" y="0px"
	 viewBox="0 0 810.3 400" style="enable-background:new 0 0 810.3 400;" xml:space="preserve">
<style type="text/css">
	.st0{fill:#F9F9F9;}
	.st1{fill:none;stroke:#B0B0B0;stroke-width:0.5;stroke-miterlimit:10;}
	.st2{fill:#333333;}
	.st3{fill:none;stroke:#B0B0B0;stroke-width:0.5;stroke-linecap:round;stroke-miterlimit:10;}
	.st4{fill:none;stroke:#333333;stroke-width:0.2849;stroke-linecap:round;stroke-miterlimit:10;}
	.st5{fill:#999999;}
	.st6{fill:url(#SVGID_1_);}
	.st7{fill:url(#SVGID_2_);}
	.st8{fill:url(#SVGID_3_);}
	.st9{fill:url(#SVGID_4_);}
	.st10{fill:url(#SVGID_5_);}
	.st11{fill:url(#SVGID_6_);}
	.st12{fill:url(#SVGID_7_);}
	.st13{fill:url(#SVGID_8_);}
	.st14{fill:url(#SVGID_9_);}
	.st15{opacity:0.47;fill:#E35702;}
	.st16{fill:url(#SVGID_10_);}
	.st17{fill:url(#SVGID_11_);}
	.st18{fill:url(#SVGID_12_);}
	.st19{fill:#EB7808;}
	.st20{fill:#E35702;}
</style>
<g id="Credits">
	<rect id="Fond" x="0.7" y="340" class="st0" width="810.3" height="60"/>
	<line id="Liseret_x5F_H" class="st1" x1="0.7" y1="340" x2="811" y2="340"/>
	<g id="Pictos">
		<g>
			<g>
				<path class="st2" d="M467.5,366.9c2.6,0,4.9,0.9,6.7,2.7c1.8,1.8,2.7,4,2.7,6.7c0,2.6-0.9,4.8-2.7,6.6c-1.9,1.9-4.1,2.8-6.8,2.8
					c-2.5,0-4.8-0.9-6.6-2.8c-1.9-1.9-2.8-4.1-2.8-6.7c0-2.6,0.9-4.8,2.8-6.7C462.7,367.8,464.9,366.9,467.5,366.9z M467.5,368.6
					c-2.1,0-4,0.8-5.4,2.3c-1.5,1.6-2.3,3.4-2.3,5.5c0,2.1,0.8,3.9,2.3,5.4c1.5,1.5,3.3,2.3,5.5,2.3c2.1,0,3.9-0.8,5.5-2.3
					c1.5-1.4,2.2-3.2,2.2-5.4c0-2.2-0.8-4-2.3-5.5C471.5,369.3,469.7,368.6,467.5,368.6z M463.3,375c0.2-1.2,0.6-2.1,1.4-2.7
					c0.8-0.6,1.7-1,2.7-1c1.5,0,2.7,0.5,3.5,1.4c0.9,1,1.3,2.2,1.3,3.7c0,1.4-0.5,2.7-1.4,3.6c-0.9,1-2.1,1.4-3.5,1.4
					c-1.1,0-2-0.3-2.8-1c-0.8-0.6-1.2-1.5-1.4-2.7h2.4c0.1,1.1,0.7,1.7,2.1,1.7c0.7,0,1.2-0.3,1.6-0.9c0.4-0.6,0.6-1.3,0.6-2.3
					c0-1-0.2-1.8-0.6-2.3c-0.4-0.5-0.9-0.8-1.6-0.8c-1.3,0-2,0.6-2.1,1.7h0.7l-1.9,1.9l-1.9-1.9L463.3,375L463.3,375z"/>
			</g>
			<g>
				<g>
					<path class="st2" d="M443.1,366.9c2.6,0,4.9,0.9,6.7,2.7c1.8,1.8,2.7,4.1,2.7,6.7c0,2.6-0.9,4.9-2.7,6.6
						c-1.9,1.9-4.2,2.8-6.8,2.8c-2.5,0-4.8-0.9-6.6-2.8c-1.9-1.9-2.8-4.1-2.8-6.7c0-2.6,0.9-4.8,2.8-6.7
						C438.3,367.8,440.5,366.9,443.1,366.9z M443.1,368.6c-2.1,0-4,0.8-5.4,2.3c-1.5,1.6-2.3,3.4-2.3,5.5c0,2.1,0.8,3.9,2.3,5.4
						c1.5,1.5,3.3,2.3,5.5,2.3c2.1,0,3.9-0.8,5.5-2.3c1.5-1.4,2.2-3.2,2.2-5.4c0-2.1-0.8-4-2.3-5.5
						C447.1,369.3,445.2,368.6,443.1,368.6z M445.6,373.9v3.9h-1.1v4.6h-2.9v-4.6h-1.1v-3.9c0-0.2,0.1-0.3,0.2-0.4
						c0.1-0.1,0.3-0.2,0.4-0.2h3.9c0.2,0,0.3,0.1,0.4,0.2C445.6,373.6,445.6,373.8,445.6,373.9z M441.8,371.5c0-0.9,0.4-1.3,1.3-1.3
						c0.9,0,1.3,0.4,1.3,1.3c0,0.9-0.4,1.3-1.3,1.3S441.8,372.4,441.8,371.5z"/>
				</g>
			</g>
			<g>
				<path class="st2" d="M418.6,366.9c2.6,0,4.9,0.9,6.7,2.8c0.9,0.9,1.6,1.9,2,3c0.5,1.1,0.7,2.3,0.7,3.6c0,1.3-0.2,2.5-0.7,3.6
					c-0.5,1.1-1.1,2.1-2,3c-0.9,0.9-2,1.6-3.1,2.1c-1.2,0.5-2.4,0.7-3.6,0.7c-1.2,0-2.4-0.2-3.6-0.7c-1.1-0.5-2.2-1.2-3.1-2.1
					s-1.6-1.9-2.1-3.1s-0.7-2.3-0.7-3.6c0-1.2,0.2-2.4,0.7-3.6c0.5-1.2,1.2-2.2,2.1-3.1C413.8,367.8,416,366.9,418.6,366.9z
					 M418.7,368.6c-2.2,0-4,0.8-5.4,2.3c-0.7,0.8-1.3,1.6-1.7,2.5c-0.4,0.9-0.6,1.9-0.6,2.9c0,1,0.2,2,0.6,2.9
					c0.4,0.9,1,1.8,1.7,2.5c0.7,0.7,1.6,1.3,2.5,1.7c0.9,0.4,1.9,0.6,2.9,0.6c1,0,2-0.2,2.9-0.6c0.9-0.4,1.8-1,2.6-1.7
					c1.5-1.4,2.2-3.2,2.2-5.4c0-1-0.2-2-0.6-3c-0.4-0.9-0.9-1.8-1.7-2.5C422.6,369.3,420.8,368.6,418.7,368.6z M418.6,374.7
					l-1.3,0.7c-0.1-0.3-0.3-0.5-0.5-0.6c-0.2-0.1-0.4-0.2-0.5-0.2c-0.8,0-1.3,0.6-1.3,1.7c0,0.5,0.1,0.9,0.3,1.2
					c0.2,0.3,0.5,0.5,0.9,0.5c0.6,0,0.9-0.3,1.2-0.8l1.2,0.6c-0.2,0.5-0.6,0.8-1,1.1c-0.4,0.3-0.9,0.4-1.4,0.4c-0.8,0-1.5-0.3-2-0.8
					c-0.5-0.5-0.8-1.2-0.8-2.2c0-0.9,0.3-1.6,0.8-2.1c0.5-0.5,1.2-0.8,2-0.8C417.2,373.4,418.1,373.8,418.6,374.7z M424,374.7
					l-1.2,0.7c-0.1-0.3-0.3-0.5-0.5-0.6c-0.2-0.1-0.4-0.2-0.6-0.2c-0.8,0-1.3,0.6-1.3,1.7c0,0.5,0.1,0.9,0.3,1.2
					c0.2,0.3,0.5,0.5,0.9,0.5c0.5,0,0.9-0.3,1.2-0.8l1.2,0.6c-0.3,0.5-0.6,0.8-1,1.1c-0.4,0.3-0.9,0.4-1.4,0.4c-0.9,0-1.5-0.3-2-0.8
					c-0.5-0.5-0.8-1.2-0.8-2.2c0-0.9,0.3-1.6,0.8-2.1c0.5-0.5,1.2-0.8,2-0.8C422.7,373.4,423.5,373.8,424,374.7z"/>
			</g>
		</g>
	</g>
	<g>
		<g>
			<path class="st2" d="M409.9,354.3h0.4v6.8h4v0.4h-4.5V354.3z"/>
			<path class="st2" d="M414.9,355.3v-1h0.4v1H414.9z M414.9,361.4v-5.1h0.4v5.1H414.9z"/>
			<path class="st2" d="M420.3,357.9c-0.1-0.9-0.8-1.4-1.7-1.4c-1.3,0-2,1.1-2,2.3c0,1.4,0.6,2.4,2,2.4c1,0,1.7-0.7,1.8-1.6h0.4
				c-0.2,1.2-1.1,1.9-2.2,1.9c-1.7,0-2.4-1.3-2.4-2.7s0.8-2.6,2.4-2.6c1.1,0,2,0.5,2.1,1.7H420.3z"/>
			<path class="st2" d="M421.8,358.9c0,1.2,0.6,2.3,1.9,2.3c1,0,1.7-0.6,1.8-1.5h0.4c-0.2,1.2-1,1.9-2.2,1.9c-1.5,0-2.3-1.2-2.3-2.6
				c0-1.4,0.7-2.8,2.3-2.8c1.6,0,2.3,1.3,2.3,2.7H421.8z M425.6,358.6c0-1.1-0.7-2.1-1.9-2.1c-1.1,0-1.8,1.1-1.9,2.1H425.6z"/>
			<path class="st2" d="M426.9,356.3h0.4v1.1h0c0.3-0.8,1-1.2,1.8-1.2c1.8,0,1.8,1.4,1.8,2.1v3.2h-0.4v-3.2c0-0.5-0.1-1.7-1.5-1.7
				c-1.1,0-1.8,0.9-1.8,2.1v2.8h-0.4V356.3z"/>
			<path class="st2" d="M435.9,357.9c-0.1-0.9-0.8-1.4-1.7-1.4c-1.3,0-2,1.1-2,2.3c0,1.4,0.6,2.4,2,2.4c1,0,1.7-0.7,1.8-1.6h0.4
				c-0.2,1.2-1.1,1.9-2.2,1.9c-1.7,0-2.4-1.3-2.4-2.7s0.8-2.6,2.4-2.6c1.1,0,2,0.5,2.1,1.7H435.9z"/>
			<path class="st2" d="M437.4,358.9c0,1.2,0.6,2.3,1.9,2.3c1,0,1.7-0.6,1.8-1.5h0.4c-0.2,1.2-1,1.9-2.2,1.9c-1.5,0-2.3-1.2-2.3-2.6
				c0-1.4,0.7-2.8,2.3-2.8c1.6,0,2.3,1.3,2.3,2.7H437.4z M441.2,358.6c0-1.1-0.7-2.1-1.9-2.1c-1.1,0-1.8,1.1-1.9,2.1H441.2z"/>
			<path class="st2" d="M450.8,356.4c-0.2-1.2-1.2-1.9-2.4-1.9c-1.9,0-3,1.5-3,3.4c0,1.8,1.1,3.4,3,3.4c1.4,0,2.5-1.2,2.5-2.6h0.4
				c-0.2,1.7-1.4,2.9-3,2.9c-2.1,0-3.4-1.6-3.4-3.7s1.3-3.7,3.4-3.7c2.5,0,2.9,2.2,2.9,2.3H450.8z"/>
			<path class="st2" d="M457.9,356.4c-0.2-1.2-1.2-1.9-2.4-1.9c-1.9,0-3,1.5-3,3.4c0,1.8,1.1,3.4,3,3.4c1.4,0,2.5-1.2,2.5-2.6h0.4
				c-0.2,1.7-1.4,2.9-3,2.9c-2.1,0-3.4-1.6-3.4-3.7s1.3-3.7,3.4-3.7c2.5,0,2.9,2.2,2.9,2.3H457.9z"/>
			<path class="st2" d="M462.1,354.3h2.9c1.7,0,2.2,0.9,2.2,1.8c0,0.8-0.6,1.4-1.4,1.5l0,0c0.2,0,1.6,0.3,1.6,1.7c0,1.3-1,2-2.5,2
				h-2.9V354.3z M462.6,357.5h2.4c1.2,0,1.8-0.6,1.8-1.5c0-1-0.9-1.4-1.8-1.4h-2.4V357.5z M462.6,361h2.4c1.3,0,2-0.6,2-1.6
				c0-1.2-1.1-1.5-2-1.5h-2.4V361z"/>
			<path class="st2" d="M473.3,354.3h0.5l-2.9,4.1v3h-0.4v-3l-2.8-4.1h0.5l2.6,3.8L473.3,354.3z"/>
			<path class="st2" d="M473.3,358.9v-0.4h2.1v0.4H473.3z"/>
			<path class="st2" d="M481.4,356.3c0-1.2-1-1.8-2.3-1.8c-0.8,0-2,0.3-2,1.5c0,1.1,1.2,1.3,2.4,1.6c1.2,0.2,2.4,0.6,2.4,2
				c0,1.5-1.4,2-2.5,2c-1.7,0-3-0.7-3-2.5h0.4c-0.1,1.6,1.2,2.1,2.6,2.1c0.9,0,2.1-0.4,2.1-1.6c0-1.2-1.2-1.4-2.4-1.7
				c-1.2-0.2-2.4-0.5-2.4-1.9c0-1.4,1.3-1.9,2.4-1.9c1.5,0,2.7,0.6,2.7,2.2H481.4z"/>
			<path class="st2" d="M485.6,354.3l2.8,7.1H488l-0.9-2.3h-3.4l-0.9,2.3h-0.5l2.9-7.1H485.6z M486.9,358.8l-1.5-4h0l-1.6,4H486.9z"
				/>
			<path class="st2" d="M495.1,354.5v4.8h1.2v0.3h-1.2v1.8h-0.4v-1.8h-3.4v-0.4l3.4-4.8H495.1z M494.7,355L494.7,355l-3,4.3h3V355z"
				/>
			<path class="st2" d="M497.8,361.4v-1h0.5v1H497.8z"/>
			<path class="st2" d="M499.7,358c0-1.7,0.5-3.6,2.5-3.6c2,0,2.5,1.9,2.5,3.6s-0.5,3.6-2.5,3.6C500.2,361.5,499.7,359.6,499.7,358z
				 M504.3,358c0-1.4-0.4-3.2-2.1-3.2s-2.1,1.8-2.1,3.2s0.4,3.2,2.1,3.2S504.3,359.4,504.3,358z"/>
		</g>
	</g>
	<line id="Liseret_x5F_V" class="st3" x1="384.9" y1="352.5" x2="384.9" y2="387.5"/>
	<g>
		<path class="st2" d="M194,354.3l2.8,7.1h-0.5l-0.9-2.3H192l-0.9,2.3h-0.5l2.9-7.1H194z M195.3,358.8l-1.5-4h0l-1.6,4H195.3z"/>
		<path class="st2" d="M196.5,356.3h0.4l1.9,4.7l1.8-4.7h0.4l-2.2,5.7c-0.2,0.5-0.4,0.9-0.6,1.1c-0.3,0.2-0.6,0.2-1.2,0.2v-0.3
			c0.5,0,0.8-0.1,1.1-0.3c0.1-0.1,0.3-0.5,0.5-1.2L196.5,356.3z"/>
		<path class="st2" d="M201.5,356.3h0.4v1h0c0.2-0.6,0.8-1.2,1.6-1.2c1,0,1.4,0.6,1.5,1.1h0c0.3-0.7,0.8-1.1,1.6-1.1
			c0.9,0,1.6,0.5,1.6,1.7v3.5H208v-3.5c0-1.3-0.9-1.4-1.2-1.4c-0.9,0-1.6,0.7-1.6,1.9v3h-0.4v-3.5c0-1.3-0.9-1.4-1.2-1.4
			c-0.7,0-1.6,0.6-1.6,1.9v3h-0.4V356.3z"/>
		<path class="st2" d="M209.6,358.9c0,1.2,0.6,2.3,1.9,2.3c1,0,1.7-0.6,1.8-1.5h0.4c-0.2,1.2-1,1.9-2.2,1.9c-1.5,0-2.3-1.2-2.3-2.6
			c0-1.4,0.7-2.8,2.3-2.8c1.6,0,2.3,1.3,2.3,2.7H209.6z M213.4,358.6c0-1.1-0.7-2.1-1.9-2.1c-1.1,0-1.8,1.1-1.9,2.1H213.4z"/>
		<path class="st2" d="M215,357.4L215,357.4c0.2-0.7,1.1-1.2,2-1.2v0.4c-0.4,0-1,0.1-1.4,0.5c-0.4,0.4-0.5,0.7-0.6,1.5v2.8h-0.4
			v-5.1h0.4V357.4z"/>
		<path class="st2" d="M217.5,355.3v-1h0.4v1H217.5z M217.5,361.4v-5.1h0.4v5.1H217.5z"/>
		<path class="st2" d="M223,357.9c-0.1-0.9-0.8-1.4-1.7-1.4c-1.3,0-2,1.1-2,2.3c0,1.4,0.6,2.4,2,2.4c1,0,1.7-0.7,1.8-1.6h0.4
			c-0.2,1.2-1.1,1.9-2.2,1.9c-1.7,0-2.4-1.3-2.4-2.7s0.8-2.6,2.4-2.6c1.1,0,2,0.5,2.1,1.7H223z"/>
		<path class="st2" d="M227.6,357.9v3.5h-0.4v-7.1h4.5v0.4h-4v2.9h3.6v0.4H227.6z"/>
		<path class="st2" d="M236,360.5c0,0.3,0,0.6,0.3,0.6c0.1,0,0.2,0,0.3,0v0.3c-0.1,0-0.2,0-0.3,0c-0.6,0-0.7-0.3-0.7-0.7v-0.3h0
			c-0.2,0.6-0.9,1.1-1.9,1.1c-1,0-1.7-0.4-1.7-1.4c0-1.2,1-1.4,1.9-1.5c1.7-0.1,1.8-0.2,1.8-1.1c0-0.2-0.3-1-1.4-1
			c-0.9,0-1.5,0.5-1.6,1.4h-0.4c0-1.1,0.7-1.7,2-1.7c0.9,0,1.8,0.3,1.8,1.3V360.5z M235.6,358.5c-0.3,0.3-1.1,0.3-1.9,0.4
			c-0.9,0.1-1.4,0.4-1.4,1.2c0,0.6,0.4,1.1,1.3,1.1c1.7,0,1.9-1.5,1.9-1.7V358.5z"/>
		<path class="st2" d="M237.3,355.3v-1h0.4v1H237.3z M237.3,361.4v-5.1h0.4v5.1H237.3z"/>
		<path class="st2" d="M240.9,361.4h-0.5l-2.1-5.1h0.4l1.9,4.7h0l1.7-4.7h0.4L240.9,361.4z"/>
		<path class="st2" d="M243.7,357.4L243.7,357.4c0.2-0.7,1.1-1.2,2-1.2v0.4c-0.4,0-1,0.1-1.4,0.5c-0.4,0.4-0.5,0.7-0.6,1.5v2.8h-0.4
			v-5.1h0.4V357.4z"/>
		<path class="st2" d="M246.3,358.9c0,1.2,0.6,2.3,1.9,2.3c1,0,1.7-0.6,1.8-1.5h0.4c-0.2,1.2-1,1.9-2.2,1.9c-1.5,0-2.3-1.2-2.3-2.6
			c0-1.4,0.7-2.8,2.3-2.8c1.6,0,2.3,1.3,2.3,2.7H246.3z M250,358.6c0-1.1-0.7-2.1-1.9-2.1c-1.1,0-1.8,1.1-1.9,2.1H250z"/>
		<path class="st2" d="M254.2,358.9v-0.4h2.1v0.4H254.2z"/>
		<path class="st2" d="M260.4,356.3h0.4v1h0c0.2-0.6,0.8-1.2,1.6-1.2c1,0,1.4,0.6,1.5,1.1h0c0.3-0.7,0.8-1.1,1.6-1.1
			c0.9,0,1.6,0.5,1.6,1.7v3.5h-0.4v-3.5c0-1.3-0.9-1.4-1.2-1.4c-0.9,0-1.6,0.7-1.6,1.9v3h-0.4v-3.5c0-1.3-0.9-1.4-1.2-1.4
			c-0.7,0-1.6,0.6-1.6,1.9v3h-0.4V356.3z"/>
		<path class="st2" d="M268.4,355.3v-1h0.4v1H268.4z M268.4,361.4v-5.1h0.4v5.1H268.4z"/>
		<path class="st2" d="M270.4,354.3v3.1h0c0.3-0.8,1-1.2,1.8-1.2c1.8,0,1.8,1.4,1.8,2.1v3.2h-0.4v-3.2c0-0.5-0.1-1.7-1.5-1.7
			c-1.1,0-1.8,0.9-1.8,2.1v2.8H270v-7.1H270.4z"/>
		<path class="st2" d="M277.3,356.2c1.5,0,2.4,1.2,2.4,2.7c0,1.5-0.8,2.7-2.4,2.7c-1.5,0-2.4-1.2-2.4-2.7
			C275,357.4,275.8,356.2,277.3,356.2z M277.3,361.2c1.3,0,2-1.1,2-2.4c0-1.2-0.7-2.4-2-2.4c-1.3,0-2,1.1-2,2.4
			C275.4,360.1,276.1,361.2,277.3,361.2z"/>
		<path class="st2" d="M285.2,358.8c-0.1,0.2-0.2,0.5-0.2,0.6c0,0.2,0.2,0.3,0.4,0.3c0.9,0,1.8-1.4,1.8-2.5c0-1.7-1.5-2.7-3-2.7
			c-1.8,0-3.3,1.6-3.3,3.4c0,2,1.7,3.4,3.3,3.4c1.1,0,2.1-0.6,2.7-1.5h0.4c-0.6,1.1-1.9,1.8-3.2,1.8c-2.1,0-3.7-1.7-3.7-3.8
			c0-2,1.7-3.7,3.7-3.7c1.9,0,3.4,1.3,3.4,3.1c0,1.5-1.2,2.9-2.3,2.9c-0.3,0-0.6-0.2-0.7-0.7h0c-0.3,0.5-0.8,0.7-1.3,0.7
			c-0.8,0-1.3-0.7-1.3-1.5c0-1.4,1-3,2.4-3c0.6,0,1,0.4,1.1,0.9h0l0.2-0.7h0.4L285.2,358.8z M282.4,358.6c0,0.7,0.4,1.2,1,1.2
			c0.4,0,0.8-0.3,1.2-0.8c0.4-0.5,0.6-1.3,0.6-1.8c0-0.4-0.1-1.2-0.9-1.2C283.2,356,282.4,357.5,282.4,358.6z"/>
		<path class="st2" d="M288.6,356.3h0.4v1h0c0.2-0.6,0.8-1.2,1.6-1.2c1,0,1.4,0.6,1.5,1.1h0c0.3-0.7,0.8-1.1,1.6-1.1
			c0.9,0,1.6,0.5,1.6,1.7v3.5H295v-3.5c0-1.3-0.9-1.4-1.2-1.4c-0.9,0-1.6,0.7-1.6,1.9v3h-0.4v-3.5c0-1.3-0.9-1.4-1.2-1.4
			c-0.7,0-1.6,0.6-1.6,1.9v3h-0.4V356.3z"/>
		<path class="st2" d="M296.6,355.3v-1h0.4v1H296.6z M296.6,361.4v-5.1h0.4v5.1H296.6z"/>
		<path class="st2" d="M298.6,354.3v3.1h0c0.3-0.8,1-1.2,1.8-1.2c1.8,0,1.8,1.4,1.8,2.1v3.2h-0.4v-3.2c0-0.5-0.1-1.7-1.5-1.7
			c-1.1,0-1.8,0.9-1.8,2.1v2.8h-0.4v-7.1H298.6z"/>
		<path class="st2" d="M305.5,356.2c1.5,0,2.4,1.2,2.4,2.7c0,1.5-0.8,2.7-2.4,2.7c-1.5,0-2.4-1.2-2.4-2.7
			C303.2,357.4,304,356.2,305.5,356.2z M305.5,361.2c1.3,0,2-1.1,2-2.4c0-1.2-0.7-2.4-2-2.4c-1.3,0-2,1.1-2,2.4
			C303.6,360.1,304.3,361.2,305.5,361.2z"/>
		<path class="st2" d="M308.9,358.9v-0.4h2.1v0.4H308.9z"/>
		<path class="st2" d="M312.5,359.7c0.1,0.9,0.8,1.5,1.7,1.5c0.7,0,1.6-0.2,1.6-1.1c0-0.9-0.9-1-1.8-1.2c-0.9-0.2-1.8-0.4-1.8-1.5
			c0-1,1-1.3,1.9-1.3c1.1,0,1.9,0.5,1.9,1.6h-0.4c0-0.9-0.7-1.3-1.5-1.3c-0.7,0-1.5,0.3-1.5,1c0,0.8,0.9,0.9,1.7,1.1
			c1,0.2,1.8,0.4,1.8,1.5c0,1.1-1.1,1.4-2,1.4c-1.2,0-2-0.6-2.1-1.8H312.5z"/>
		<path class="st2" d="M319,356.6h-1.1v3.6c0,0.8,0.4,0.9,1.1,0.9v0.3c-0.8,0-1.5-0.1-1.5-1.2v-3.6h-0.9v-0.3h0.9v-1.6h0.4v1.6h1.1
			V356.6z"/>
		<path class="st2" d="M321.8,356.2c1.5,0,2.4,1.2,2.4,2.7c0,1.5-0.8,2.7-2.4,2.7c-1.5,0-2.4-1.2-2.4-2.7
			C319.5,357.4,320.3,356.2,321.8,356.2z M321.8,361.2c1.3,0,2-1.1,2-2.4c0-1.2-0.7-2.4-2-2.4c-1.3,0-2,1.1-2,2.4
			C319.9,360.1,320.5,361.2,321.8,361.2z"/>
		<path class="st2" d="M325.5,357.4L325.5,357.4c0.2-0.7,1.1-1.2,2-1.2v0.4c-0.4,0-1,0.1-1.4,0.5c-0.4,0.4-0.5,0.7-0.6,1.5v2.8h-0.4
			v-5.1h0.4V357.4z"/>
		<path class="st2" d="M328,355.3v-1h0.4v1H328z M328,361.4v-5.1h0.4v5.1H328z"/>
		<path class="st2" d="M329.7,358.9c0,1.2,0.6,2.3,1.9,2.3c1,0,1.7-0.6,1.8-1.5h0.4c-0.2,1.2-1,1.9-2.2,1.9c-1.5,0-2.3-1.2-2.3-2.6
			c0-1.4,0.7-2.8,2.3-2.8c1.6,0,2.3,1.3,2.3,2.7H329.7z M333.5,358.6c0-1.1-0.7-2.1-1.9-2.1c-1.1,0-1.8,1.1-1.9,2.1H333.5z"/>
		<path class="st2" d="M334.9,359.7c0.1,0.9,0.8,1.5,1.7,1.5c0.7,0,1.6-0.2,1.6-1.1c0-0.9-0.9-1-1.8-1.2c-0.9-0.2-1.8-0.4-1.8-1.5
			c0-1,1-1.3,1.9-1.3c1.1,0,1.9,0.5,1.9,1.6h-0.4c0-0.9-0.7-1.3-1.5-1.3c-0.7,0-1.5,0.3-1.5,1c0,0.8,0.9,0.9,1.7,1.1
			c1,0.2,1.8,0.4,1.8,1.5c0,1.1-1.1,1.4-2,1.4c-1.2,0-2-0.6-2.1-1.8H334.9z"/>
		<path class="st2" d="M340.1,361.4v-1h0.5v1H340.1z"/>
		<path class="st2" d="M346.2,357.9c-0.1-0.9-0.8-1.4-1.7-1.4c-1.3,0-2,1.1-2,2.3c0,1.4,0.6,2.4,2,2.4c1,0,1.7-0.7,1.8-1.6h0.4
			c-0.2,1.2-1.1,1.9-2.2,1.9c-1.7,0-2.4-1.3-2.4-2.7s0.8-2.6,2.4-2.6c1.1,0,2,0.5,2.1,1.7H346.2z"/>
		<path class="st2" d="M349.6,356.2c1.5,0,2.4,1.2,2.4,2.7c0,1.5-0.8,2.7-2.4,2.7c-1.5,0-2.4-1.2-2.4-2.7
			C347.3,357.4,348.1,356.2,349.6,356.2z M349.6,361.2c1.3,0,2-1.1,2-2.4c0-1.2-0.7-2.4-2-2.4c-1.3,0-2,1.1-2,2.4
			C347.7,360.1,348.3,361.2,349.6,361.2z"/>
		<path class="st2" d="M352.9,356.3h0.4v1h0c0.2-0.6,0.8-1.2,1.6-1.2c1,0,1.4,0.6,1.5,1.1h0c0.3-0.7,0.8-1.1,1.6-1.1
			c0.9,0,1.6,0.5,1.6,1.7v3.5h-0.4v-3.5c0-1.3-0.9-1.4-1.2-1.4c-0.9,0-1.6,0.7-1.6,1.9v3h-0.4v-3.5c0-1.3-0.9-1.4-1.2-1.4
			c-0.7,0-1.6,0.6-1.6,1.9v3h-0.4V356.3z"/>
		<path class="st2" d="M192.3,366.3h0.6l1.3,6.7h0l4.2-6.7h0.6l-1.5,7.1h-0.4l1.5-6.7h0l-4.2,6.7h-0.4l-1.4-6.7h0l-1.4,6.7h-0.4
			L192.3,366.3z"/>
		<path class="st2" d="M203.8,370.2c0,1.6-0.9,3.4-2.7,3.4c-1.4,0-2.1-0.9-2.1-2.2c0-1.6,1-3.2,2.8-3.2
			C203.1,368.2,203.8,368.9,203.8,370.2z M199.4,371.4c0,1,0.5,1.9,1.7,1.9c1.6,0,2.4-1.7,2.4-3c0-1-0.5-1.7-1.6-1.7
			C200.3,368.5,199.4,370,199.4,371.4z"/>
		<path class="st2" d="M203.8,373l4.3-4.4h-3.3l0.1-0.4h3.8l-0.1,0.4l-4.3,4.4h3.5l-0.1,0.4h-4L203.8,373z"/>
		<path class="st2" d="M209.5,368.3h0.4l-1.1,5.1h-0.4L209.5,368.3z M210,366.3h0.4l-0.2,1h-0.4L210,366.3z"/>
		<path class="st2" d="M211.6,366.3h0.4l-1.5,7.1h-0.4L211.6,366.3z"/>
		<path class="st2" d="M213.3,366.3h0.4l-1.5,7.1h-0.4L213.3,366.3z"/>
		<path class="st2" d="M214.1,369.8c0.3-1.1,1.1-1.6,2.2-1.6c0.5,0,1.6,0.2,1.6,1.2c0,0.4-0.3,1.6-0.3,1.8c-0.1,0.5-0.3,1.3-0.3,1.6
			c0,0.2,0.1,0.3,0.3,0.3c0.1,0,0.2,0,0.3-0.1l-0.1,0.3c-0.1,0-0.3,0-0.4,0c-0.3,0-0.5-0.3-0.5-0.5c0-0.1,0.1-0.3,0.1-0.4h0
			c-0.4,0.7-1.3,1.1-1.9,1.1c-0.9,0-1.6-0.4-1.6-1.4c0-1.3,1.1-1.6,2.3-1.6c1.4,0,1.9-0.2,1.9-1c0-0.6-0.4-1-1.3-1
			c-0.9,0-1.5,0.4-1.7,1.3H214.1z M217.3,370.5L217.3,370.5c-0.3,0.3-1.2,0.3-1.6,0.4c-1,0-1.9,0.1-1.9,1.3c0,0.8,0.6,1,1.3,1
			c1.2,0,1.8-0.9,2.1-2L217.3,370.5z"/>
		<path class="st2" d="M222.8,366.3h0.4l-0.8,4l0,0l5.1-4h0.6l-3.8,3l2.7,4.1h-0.5l-2.6-3.9l-1.7,1.3l-0.5,2.5h-0.4L222.8,366.3z"/>
		<path class="st2" d="M228.4,368.3h0.4l-1.1,5.1h-0.4L228.4,368.3z M228.9,366.3h0.4l-0.2,1h-0.4L228.9,366.3z"/>
		<path class="st2" d="M230.1,368.3h0.4l-0.2,1.1h0c0.4-0.8,1.1-1.2,2.1-1.2c0.8,0,1.5,0.5,1.5,1.4c0,0.2-0.1,0.8-0.1,1l-0.6,2.8
			h-0.4l0.6-2.8c0-0.2,0.1-0.7,0.1-1c0-0.6-0.4-1.1-1.2-1.1c-1.3,0-2.1,1.4-2.3,2.5l-0.5,2.4H229L230.1,368.3z"/>
		<path class="st2" d="M234.6,368.3h0.9l0.4-1.6h0.4l-0.3,1.6h1.1l-0.1,0.3h-1.1l-0.8,3.6c0,0.1-0.1,0.4-0.1,0.5
			c0,0.3,0.2,0.4,0.6,0.4c0.2,0,0.4,0,0.6,0l-0.1,0.3c-0.1,0-0.4,0-0.6,0c-0.6,0-0.8-0.3-0.8-0.8c0-0.1,0-0.3,0.1-0.5l0.8-3.5h-1
			L234.6,368.3z"/>
		<path class="st2" d="M241.8,370.2c0,1.6-0.9,3.4-2.7,3.4c-1.4,0-2.1-0.9-2.1-2.2c0-1.6,1-3.2,2.8-3.2
			C241.1,368.2,241.8,368.9,241.8,370.2z M237.4,371.4c0,1,0.5,1.9,1.7,1.9c1.6,0,2.4-1.7,2.4-3c0-1-0.5-1.7-1.6-1.7
			C238.3,368.5,237.4,370,237.4,371.4z"/>
		<path class="st2" d="M245.5,370.9l0.1-0.4h2.2l-0.1,0.4H245.5z"/>
		<path class="st2" d="M255.9,366.3h0.4l-1,4.8c-0.3,1.5-0.7,2.5-2.3,2.5c-0.9,0-1.7-0.5-1.7-1.5c0-0.3,0-0.6,0.1-0.9h0.4
			c-0.1,0.3-0.1,0.6-0.1,0.9c0,0.8,0.7,1.1,1.4,1.1c1.2,0,1.5-0.9,1.7-1.9L255.9,366.3z"/>
		<path class="st2" d="M259.9,373.4h-0.4l0.2-1.1l0,0c-0.4,0.8-1,1.2-2,1.2c-0.8,0-1.5-0.5-1.5-1.4c0-0.2,0.1-0.8,0.1-1l0.6-2.8h0.4
			l-0.6,2.8c0,0.2-0.1,0.7-0.1,1c0,0.6,0.4,1.1,1.2,1.1c1.2,0,2-1.4,2.2-2.5l0.5-2.4h0.4L259.9,373.4z"/>
		<path class="st2" d="M262.4,368.3h0.4l-0.2,1.1h0c0.4-0.8,1.1-1.2,2.1-1.2c0.8,0,1.5,0.5,1.5,1.4c0,0.2-0.1,0.8-0.1,1l-0.6,2.8
			h-0.4l0.6-2.8c0-0.2,0.1-0.7,0.1-1c0-0.6-0.4-1.1-1.2-1.1c-1.3,0-2.1,1.4-2.3,2.5l-0.5,2.4h-0.4L262.4,368.3z"/>
		<path class="st2" d="M267.1,370.9c0,0.2-0.1,0.4-0.1,0.6c0,0.9,0.6,1.7,1.6,1.7c1,0,1.8-0.7,1.9-1.5h0.4c-0.3,1.1-1.1,1.8-2.4,1.8
			c-1.3,0-2-0.9-2-2c0-1.9,1-3.3,2.7-3.3c1.2,0,1.9,0.8,1.9,2c0,0.3,0,0.5-0.1,0.8H267.1z M270.8,370.6c0-0.2,0.1-0.3,0.1-0.4
			c0-0.9-0.5-1.6-1.6-1.6c-1.2,0-1.9,1-2.2,2.1H270.8z"/>
		<path class="st2" d="M278.9,373.4h-4.5c0.1-1.3,1.2-2.1,2.2-2.6c1.4-0.7,2.7-1.3,2.7-2.6c0-0.9-0.6-1.5-1.5-1.5
			c-1.2,0-1.9,0.9-2,2.1h-0.4c0.1-1.4,0.9-2.4,2.4-2.4c1.1,0,1.9,0.6,1.9,1.8c0,1.3-1.1,1.9-2.2,2.5c-1.1,0.6-2.4,1.2-2.7,2.4h4.1
			L278.9,373.4z"/>
		<path class="st2" d="M280.3,371.2c0-1.8,0.8-4.8,3-4.8c1.4,0,2,1,2,2.3c0,1.7-0.8,4.8-3.1,4.8
			C280.7,373.5,280.3,372.3,280.3,371.2z M285,368.8c0-1.1-0.4-2-1.6-2c-1.7,0-2.7,2.2-2.7,4.4c0,1,0.4,2,1.5,2
			C284.3,373.2,285,370.3,285,368.8z"/>
		<path class="st2" d="M287.1,367.8c0.9-0.1,1.5-0.6,2.2-1.3h0.4l-1.5,6.9h-0.4l1.3-6.2l0,0c-0.6,0.6-1.3,0.8-2,0.9L287.1,367.8z"/>
		<path class="st2" d="M296.1,368.3c0-1-0.5-1.5-1.6-1.5c-1.7,0-2.3,2-2.6,3.3l0,0c0.4-0.8,1.1-1.2,2-1.2c1.2,0,2,0.8,2,2
			c0,1.4-0.9,2.6-2.4,2.6c-1.5,0-2.1-1-2.1-2.3c0-1.8,0.8-4.8,3.1-4.8c1.2,0,1.9,0.7,1.9,1.9H296.1z M295.6,370.9
			c0-1.1-0.8-1.7-1.8-1.7c-1.2,0-2,1.1-2,2.2c0,1.1,0.7,1.8,1.8,1.8C294.9,373.2,295.6,372.1,295.6,370.9z"/>
		<path class="st2" d="M192.3,378.3h2.6c1.1,0,2.1,0.3,2.1,1.7c0,1.2-0.8,2-2,2v0c0.7,0.1,1,0.5,1,1.2c0,0.5,0,1,0,1.5
			c0,0.2,0,0.5,0.1,0.7h-0.4c-0.1-0.2-0.1-0.4-0.1-0.7c0-0.5,0-0.8,0-1.4c0-1-0.6-1.1-1.7-1.1h-2l-0.7,3.2h-0.4L192.3,378.3z
			 M192,381.8h2.6c1.1,0,2-0.6,2-1.7c0-1.2-0.7-1.4-1.8-1.4h-2.1L192,381.8z"/>
		<path class="st2" d="M197.8,378.3h0.4l1,6.7h0l3.9-6.7h0.4l-4.2,7.1H199L197.8,378.3z"/>
		<path class="st2" d="M204.3,378.3h2.6c1.2,0,2,0.3,2,1.6c0,1-0.7,1.7-1.7,1.8v0c0.9,0.1,1.3,0.7,1.3,1.6c0,1-0.7,2.1-2.6,2.1h-3.2
			L204.3,378.3z M203.3,385h2.7c1.4,0,2.2-0.7,2.2-1.8c0-1-0.5-1.3-1.8-1.3H204L203.3,385z M204.1,381.5h2.4c1.3,0,2.1-0.6,2.1-1.6
			c0-1.1-0.7-1.2-1.6-1.2h-2.2L204.1,381.5z"/>
		<path class="st2" d="M213.4,378.3h4.5l-0.1,0.4h-4l-0.6,2.9h3.6l-0.1,0.4H213l-0.7,3.5h-0.4L213.4,378.3z"/>
		<path class="st2" d="M218.1,380.3h0.4l-1.1,5.1H217L218.1,380.3z M218.5,378.3h0.4l-0.2,1h-0.4L218.5,378.3z"/>
		<path class="st2" d="M220.2,378.3h0.4l-1.5,7.1h-0.4L220.2,378.3z"/>
		<path class="st2" d="M221,382.9c0,0.2-0.1,0.4-0.1,0.6c0,0.9,0.6,1.7,1.6,1.7c1,0,1.8-0.7,1.9-1.5h0.4c-0.3,1.1-1.1,1.8-2.4,1.8
			c-1.3,0-2-0.9-2-2c0-1.9,1-3.3,2.7-3.3c1.2,0,1.9,0.8,1.9,2c0,0.3,0,0.5-0.1,0.8H221z M224.7,382.6c0-0.2,0-0.3,0-0.4
			c0-0.9-0.5-1.6-1.6-1.6c-1.2,0-1.9,1-2.2,2.1H224.7z"/>
	</g>
	<line id="Liseret_x5F_V_1_" class="st3" x1="165.5" y1="352.5" x2="165.5" y2="387.5"/>
	<g id="Logomiho">
		<g>
			<path class="st2" d="M75.5,372.1l0.6-4.4c0.1-1-0.1-1.6-1.1-1.6c-0.9,0-1.3,0.7-1.4,0.9c0,0.1,0,0.2,0,0.3l-0.5,3.2h1l-0.2,1.7
				h-4l0.2-1.7h0.9l0.4-2.7c0.1-1,0-1.6-1.1-1.6c-1.1,0-1.5,1-1.5,1l-0.5,3.3h0.7l-0.2,1.7h-3.8l0.2-1.7h1L67,366h-1l0.2-1.7H69
				l-0.1,1.2h0c0.1-0.1,0.8-1.4,2.6-1.4c1.1,0,1.8,0.5,2.1,1.3c0.2-0.2,0.9-1.3,2.5-1.3c1.7,0,2.4,1.1,2.2,2.8l-0.5,3.4h1l-0.2,1.7
				H75.5z"/>
			<path class="st2" d="M79.1,372.1l0.2-1.7h1L81,366h-1l0.2-1.7h3.1l-0.8,6.1h0.9l-0.2,1.7H79.1z M82.3,363.3
				c-0.7,0-1.2-0.5-1.2-1.2c0-0.8,0.7-1.5,1.5-1.5c0.7,0,1.1,0.5,1.1,1.2C83.9,362.6,83.1,363.3,82.3,363.3z"/>
			<path class="st2" d="M89.3,372.1l0.6-4.4c0.1-1,0-1.6-1.1-1.6c-1.1,0-1.5,1-1.5,1l-0.5,3.3h0.9l-0.2,1.7h-4l0.2-1.7h1l1.1-7.9h-1
				l0.2-1.7h3.1l-0.5,3.4c0,0.3-0.2,0.9-0.3,1.1h0c0.3-0.4,1-1,2.3-1c1.7,0,2.5,1.1,2.3,2.8l-0.5,3.4h1l-0.2,1.7H89.3z"/>
			<path class="st2" d="M93.4,368.8c0-2.8,2.1-4.5,4.7-4.5c2.1,0,3.5,1.3,3.5,3.4c0,2.7-1.9,4.5-4.7,4.5
				C94.7,372.2,93.4,370.8,93.4,368.8z M99.5,367.8c0-1.1-0.7-1.8-1.7-1.8c-1.2,0-2.3,1-2.3,2.5c0,1.1,0.6,1.9,1.6,1.9
				C98.5,370.4,99.5,369.4,99.5,367.8z"/>
			<path class="st2" d="M66,380l0.3-1.9h5.6l-0.3,1.9H66z"/>
			<path class="st2" d="M74.1,382.3L74.1,382.3c0,0-0.1,0.7-0.1,0.8h-1.5l0.4-2.9h1.6l-0.1,0.4c0,0.2,0.3,1,1.6,1
				c0.8,0,1.3-0.3,1.3-0.8c0-1-3.9-0.5-3.9-2.9c0-1.5,1.2-2.7,3.1-2.7c1.1,0,1.7,0.4,2,0.8h0c0,0,0-0.7,0-0.7h1.4l-0.4,2.9h-1.7
				l0.1-0.4c0.1-0.4-0.4-1-1.4-1c-0.6,0-1.2,0.3-1.2,0.8c0,1.2,4.1,0.5,4.1,2.9c0,1.2-0.9,2.5-3.4,2.5
				C74.8,383.3,74.1,382.4,74.1,382.3z"/>
			<path class="st2" d="M86.1,382.2c0,0-0.9,1.1-2.4,1.1c-1.9,0-2.8-1-2.5-3l0.5-3.2h-1l0.2-1.7h1l0.3-2h2.1l-0.3,2h2.2l-0.2,1.7
				h-2.2l-0.4,3.2c-0.1,0.7,0.1,1.2,0.9,1.2c0.7,0,1.1-0.5,1.2-0.6L86.1,382.2z"/>
			<path class="st2" d="M86.6,379.8c0-2.8,2.1-4.5,4.7-4.5c2.1,0,3.5,1.3,3.5,3.4c0,2.7-1.9,4.5-4.7,4.5
				C87.9,383.3,86.6,381.9,86.6,379.8z M92.7,378.9c0-1.1-0.7-1.8-1.7-1.8c-1.2,0-2.3,1-2.3,2.5c0,1.1,0.6,1.9,1.6,1.9
				C91.6,381.5,92.7,380.4,92.7,378.9z"/>
			<path class="st2" d="M95,383.1l0.2-1.7h1l0.6-4.4h-1l0.2-1.7h2.7l-0.2,2h0.1c0,0,0.9-2,3.5-2h0.3l-0.3,2.1h-0.8
				c-1.4,0-2.6,1.1-2.7,2.2l-0.3,1.9h0.9l-0.2,1.7H95z"/>
			<path class="st2" d="M101.7,383.1l0.2-1.7h1l0.6-4.4h-1l0.2-1.7h3.1l-0.8,6.1h0.9l-0.2,1.7H101.7z M104.9,374.4
				c-0.7,0-1.2-0.5-1.2-1.2c0-0.8,0.7-1.5,1.5-1.5c0.7,0,1.1,0.5,1.1,1.2C106.4,373.7,105.7,374.4,104.9,374.4z"/>
			<path class="st2" d="M109,379.6c0,1.3,0.8,1.9,1.8,1.9c1.4,0,2.4-1.1,2.5-1.2l0.9,1.1c-0.1,0.2-1.4,1.8-3.9,1.8
				c-2,0-3.5-1.3-3.5-3.4c0-2.9,2.4-4.5,4.5-4.5c2.4,0,3.4,1.5,3.1,4.1l0,0.3H109z M112.6,378.4c0.1-0.7-0.3-1.4-1.4-1.4
				c-0.9,0-1.7,0.5-2,1.4H112.6z"/>
			<path class="st2" d="M116.3,382.3L116.3,382.3c0,0-0.1,0.7-0.1,0.8h-1.5l0.4-2.9h1.6l-0.1,0.4c0,0.2,0.3,1,1.6,1
				c0.8,0,1.3-0.3,1.3-0.8c0-1-3.9-0.5-3.9-2.9c0-1.5,1.2-2.7,3.1-2.7c1.1,0,1.7,0.4,2,0.8h0c0,0,0-0.7,0-0.7h1.4l-0.4,2.9h-1.7
				l0.1-0.4c0.1-0.4-0.4-1-1.4-1c-0.6,0-1.2,0.3-1.2,0.8c0,1.2,4.1,0.5,4.1,2.9c0,1.2-0.9,2.5-3.4,2.5
				C117,383.3,116.3,382.4,116.3,382.3z"/>
			<path class="st2" d="M122.7,383.2c-0.3,0-0.4-0.2-0.4-0.5c0-0.3,0.3-0.6,0.6-0.6c0.3,0,0.5,0.2,0.5,0.5
				C123.3,383,123,383.2,122.7,383.2z"/>
			<path class="st2" d="M127.9,382.3c0,0-0.7,0.9-2,0.9c-1.1,0-1.9-0.7-1.9-1.8c0-1.5,1.2-2.4,2.3-2.4c0.8,0,1.1,0.4,1.2,0.5h0
				l0.1-0.5h0.8l-0.2,1.8h-0.9l0-0.2c0-0.3-0.3-0.6-0.8-0.6s-1.3,0.4-1.3,1.3c0,0.7,0.4,1,1,1c0.7,0,1.3-0.6,1.3-0.7L127.9,382.3z"
				/>
			<path class="st2" d="M128.5,381.4c0-1.5,1.1-2.4,2.5-2.4c1.1,0,1.9,0.7,1.9,1.8c0,1.4-1,2.4-2.5,2.4
				C129.3,383.2,128.5,382.5,128.5,381.4z M131.8,380.9c0-0.6-0.4-1-0.9-1c-0.6,0-1.2,0.5-1.2,1.3c0,0.6,0.3,1,0.9,1
				C131.2,382.3,131.8,381.7,131.8,380.9z"/>
			<path class="st2" d="M138.5,383.1l0.3-2.3c0.1-0.5,0-0.9-0.6-0.9c-0.5,0-0.7,0.3-0.8,0.5c0,0,0,0.1,0,0.1l-0.2,1.7h0.5l-0.1,0.9
				h-2.1l0.1-0.9h0.5l0.2-1.4c0.1-0.5,0-0.9-0.6-0.9c-0.6,0-0.8,0.5-0.8,0.5l-0.2,1.8h0.4l-0.1,0.9h-2l0.1-0.9h0.5l0.3-2.3h-0.5
				l0.1-0.9h1.4l-0.1,0.7h0c0-0.1,0.4-0.7,1.4-0.7c0.6,0,1,0.3,1.1,0.7c0.1-0.1,0.5-0.7,1.3-0.7c0.9,0,1.3,0.6,1.2,1.5l-0.2,1.8h0.5
				l-0.1,0.9H138.5z"/>
		</g>
		<g>
			<path class="st2" d="M61.4,360.4c0,0-0.3-0.1-0.3,0c-0.1,0.1-0.2,0.2-0.3,0.4c-0.2,0.2-0.4,0.4-0.6,0.6c-0.4,0.4-0.9,0.7-1.3,1
				c-0.3,0.2-0.7,0.4-1,0.6c0.9-0.7,1.8-1.3,2.6-2.2c0.4-0.4,0.7-0.9,1-1.4c0.2-0.5,0.5-1,0.4-1.5c0-0.1,0-0.2-0.1-0.3
				c-0.6,1-1.4,1.9-2.2,2.7c-0.3,0.3-0.6,0.6-0.9,0.8c-0.2,0.1-0.4,0.3-0.5,0.4c-0.1,0.1-0.1,0.1-0.2,0.2c-0.1,0.1-0.1,0.2-0.1,0.4
				c0.4-0.3,0.8-0.5,1.1-0.8c0.4-0.3,0.7-0.6,1-0.9c-0.4,0.4-0.8,0.8-1.2,1.2c-0.2,0.2-0.5,0.3-0.7,0.5c-0.1,0-0.1,0.1-0.2,0.1
				c0,0-0.2,0.1-0.2,0.1c0,0.1-0.1,0.1-0.1,0.2c0,0-0.1,0.1-0.1,0.2c0,0,0,0.1,0,0.2c0,0.1,0,0.1,0,0.2c0,0.1-0.1,0.3-0.1,0.4
				c0.4-0.2,0.8-0.4,1.2-0.6c0.4-0.2,0.7-0.5,1.1-0.7c-0.2,0.2-0.4,0.4-0.6,0.5c-0.2,0.2-0.5,0.3-0.7,0.5c-0.3,0.2-0.5,0.3-0.8,0.4
				c-0.1,0-0.1,0.1-0.2,0.1c-0.1,0-0.1,0.1-0.2,0.2c-0.1,0.1-0.1,0.2-0.2,0.3c-0.2,0.2-0.4,0.4-0.6,0.6c-0.1,0.1-0.2,0.2-0.4,0.2
				c-0.1,0-0.1,0.1-0.2,0.1c-0.1,0-0.1,0.2-0.1,0.2c1.1-0.2,2.1-0.7,3.1-1.2c-0.9,0.6-2,1.1-3,1.3c0,0-0.2,0-0.2,0
				c0,0.1-0.1,0.1-0.1,0.2c-0.1,0.1-0.2,0.2-0.3,0.3c-0.2,0.2-0.4,0.3-0.7,0.3c0,0.1,0.1,0.2,0.1,0.3c0.6,0,1.1,0,1.7-0.2
				c0.6-0.1,1.1-0.3,1.6-0.4c0,0,0.1,0,0.1,0c-0.5,0.3-1,0.4-1.5,0.5c-0.6,0.1-1.1,0.2-1.7,0.2c-0.1,0-0.1,0-0.2,0
				c0.1,0.3,0,0.5,0,0.8c0,0.1,0.1,0.1,0.1,0.1c0.1,0,0.2,0,0.2,0c0.1,0,0.3,0,0.4,0c0.6,0,1.1,0,1.7,0c0.2,0,0.5,0,0.7-0.1
				c-0.5,0.1-1.1,0.2-1.6,0.2c-0.3,0-0.6,0-0.8,0c-0.1,0-0.3,0-0.4,0c-0.1,0-0.4-0.1-0.4,0c-0.1,0.3-0.3,0.6-0.5,0.9
				c0.4,0.1,0.8,0.2,1.3,0.3c0.4,0.1,0.9,0.1,1.3,0.2c-0.6,0-1.2,0-1.7-0.1c-0.3-0.1-0.5-0.1-0.8-0.2c0,0-0.1-0.1-0.2,0
				c-0.1,0.1-0.1,0.1-0.2,0.2c-0.1,0.1-0.2,0.2-0.3,0.3c-0.1,0.1-0.2,0.2-0.4,0.2c0.4,0.2,0.8,0.4,1.2,0.6c0.4,0.2,0.8,0.3,1.2,0.5
				c-0.5-0.1-1.1-0.3-1.6-0.5c-0.2-0.1-0.5-0.2-0.7-0.4c0,0-0.2-0.1-0.2-0.1c0,0-0.1,0.1-0.2,0.1c-0.1,0-0.2,0.1-0.4,0.1
				c0.4,0.6,0.8,1.1,1.3,1.7c-0.3-0.3-0.6-0.6-0.9-1c-0.2-0.2-0.3-0.4-0.4-0.6c0,0,0-0.1-0.1-0.1c-0.1,0-0.1,0-0.2,0
				c-0.1,0-0.2,0-0.3,0c0.2,0.6,0.4,1.2,0.7,1.8c-0.3-0.5-0.5-1-0.7-1.5c0-0.1,0-0.4-0.1-0.4c-0.2,0-0.3-0.1-0.5-0.1
				c-0.1,0-0.1,0-0.1,0c0,0.1-0.1,0.1-0.1,0.2c0-0.1,0-0.1,0-0.2c0,0,0-0.1,0.1-0.1c0,0-0.1,0-0.1,0c0-0.1,0-0.1,0-0.2
				c0,0,0,0,0.1,0c0.1,0,0.3-0.1,0.4-0.1c0.3-0.2,0.5-0.4,0.6-0.7c-0.1,0.5-0.4,0.7-0.8,0.9c0.1,0,0.2,0,0.3,0.1
				c0.1,0,0.2,0.1,0.3,0.1c0.2-0.1,0.3-0.1,0.4-0.3c0.3-0.2,0.5-0.5,0.6-0.8c-0.1,0.5-0.5,0.9-0.9,1.1c0.3,0,0.5,0,0.8-0.1
				c0.2-0.1,0.4-0.4,0.6-0.6c0.1-0.2,0.3-0.5,0.3-0.8c0-0.3,0.1-0.5,0.1-0.8c0-0.1,0-0.2,0-0.3c0,0.4,0.1,0.8,0,1.1
				c-0.1,0.4-0.3,0.7-0.5,1.1c0.2-0.2,0.5-0.3,0.7-0.5c0.1-0.1,0.2-0.2,0.3-0.3c0.1-0.1,0.1-0.3,0.1-0.4c0.1-0.5,0-1.1-0.2-1.6
				c-0.1-0.2-0.2-0.4-0.3-0.6c0.3,0.3,0.4,0.6,0.6,1c0.1,0.4,0.1,0.8,0,1.2c0.2-0.3,0.3-0.7,0.4-1c0-0.3-0.1-0.7-0.3-1c0,0,0,0,0,0
				c-0.2-0.3-0.2-0.7,0-1c0,0.1,0,0.2,0,0.3c0,0.1,0,0.2,0,0.3c0,0.1,0.1,0.3,0.1,0.3c0.1,0,0.2,0,0.4,0c0.2,0,0.4-0.2,0.5-0.3
				c0.1-0.1,0.3-0.3,0.4-0.5c-0.3,0-0.6,0.2-0.9,0c0.6,0,1.1-0.3,1.6-0.6c0.4-0.3,0.9-0.7,1.1-1.2c0.1-0.2,0.1-0.3,0-0.5
				c-0.1,0-0.1,0.1-0.2,0.2c-0.1,0.1-0.2,0.2-0.3,0.3c-0.2,0.1-0.3,0.3-0.5,0.4c-0.4,0.3-0.8,0.4-1.3,0.5c1-0.4,2.1-1.1,2.5-2.2
				c0.2-0.5,0.3-1.1,0.4-1.7c-0.3,0.5-0.6,1-1,1.4c-0.4,0.4-0.9,0.8-1.3,1.2c-0.4,0.3-0.9,0.6-1.4,1c-0.2,0.2-0.5,0.3-0.7,0.6
				c-0.2,0.2-0.3,0.5-0.3,0.8c-0.1,0.5,0.1,1.1-0.1,1.6c-0.2,0.5-0.6,1-1.2,1.1c-0.8,0.1-1.4-0.6-1.9-1c-1.8-4.4-4.5-4.9-5.5-4.4
				c0,0-0.1-0.1-0.2,0c-0.1,0.1,0.6-0.8,0.4-1.1c-0.2-0.3-0.3-0.2-0.3-0.2s-0.4,0.6-0.5,0.6c0,0-0.5,0-0.5,0c0,0,0,0.5,0,0.5
				s-0.2,0-0.2,0c0,0,0,0.1,0,0.1s-1.1-0.3-1.3,0.6c-0.2,0.9,0,0.6,0,0.8c0.1,0.1,0.9-0.9,1.6-0.6c-0.1,0.2,0,0.2,0,0.2
				s-1.5,1.5,0.3,4c0.3,0.4,0.6,0.8,0.9,1.3c-0.4,0.6-0.8,1.5-1.6,1.7c-0.6,0.1-1.1-0.2-1.5-0.7c-0.3-0.4-0.3-1.1-0.6-1.5
				c-0.1-0.2-0.3-0.5-0.5-0.6c-0.3-0.1-0.5-0.2-0.8-0.3c-0.5-0.2-1.1-0.3-1.6-0.5c-0.6-0.2-1.1-0.4-1.6-0.7c-0.5-0.3-1-0.7-1.4-1.1
				c0.2,0.6,0.5,1.1,0.8,1.5c0.8,0.9,1.9,1.2,3,1.4c-0.5,0.1-0.9,0-1.4-0.1c-0.2-0.1-0.4-0.1-0.6-0.2c-0.1-0.1-0.2-0.1-0.4-0.2
				c-0.1,0-0.2-0.1-0.3-0.1c0,0.2,0.1,0.3,0.2,0.5c0.3,0.4,0.9,0.7,1.4,0.8c0.5,0.2,1.1,0.2,1.7,0.1c-0.2,0.2-0.6,0.2-0.9,0.3
				c0.1,0.2,0.3,0.3,0.5,0.4c0.2,0.1,0.4,0.2,0.6,0.1c0.1,0,0.2,0,0.4-0.1c0,0,0.1-0.3,0-0.4c0-0.1,0-0.2-0.1-0.3
				c0-0.1-0.1-0.3-0.1-0.4c0.2,0.2,0.4,0.8,0.3,0.8c0,0,0,0,0,0c-0.1,1-0.2,0.8,0,1.1c0.1,0.4,0.4,0.7,0.7,0.9
				c-0.1-0.4-0.3-0.8-0.3-1.2c0-0.4,0.1-0.8,0.3-1.1c-0.1,0.2-0.1,0.4-0.1,0.7c-0.1,0.5,0,1.1,0.2,1.6c0.1,0.1,0.1,0.3,0.2,0.3
				c0.1,0.1,0.2,0.1,0.4,0.2c0.2,0.1,0.5,0.2,0.8,0.3c-0.3-0.3-0.6-0.5-0.8-0.9c-0.2-0.3-0.3-0.7-0.4-1.1c0,0.1,0.1,0.2,0.1,0.3
				c0.1,0.3,0.2,0.5,0.3,0.7c0.1,0.2,0.3,0.5,0.5,0.7c0.2,0.2,0.4,0.4,0.7,0.4c0.3,0,0.5,0,0.8-0.1c-0.5-0.1-0.9-0.4-1.2-0.8
				c0.3,0.2,0.5,0.5,0.9,0.6c0.2,0.1,0.3,0.1,0.5,0.1c0.1,0,0.2-0.1,0.2-0.1c0.1,0,0.2-0.1,0.3-0.1c-0.4-0.1-0.8-0.2-1-0.7
				c0.2,0.2,0.5,0.4,0.8,0.5c0.1,0,0.3,0.1,0.4,0c0.2-0.1,0.3-0.2,0.5-0.3c0,0,0.1-0.1,0.1-0.1c-0.4-0.1-0.8-0.3-0.9-0.7
				c0.1,0.1,0.3,0.3,0.4,0.4c0.1,0.1,0.2,0.1,0.4,0.2c0,0,0.2,0.1,0.2,0c0.1-0.1,0.1-0.1,0.2-0.2c0.1-0.1,0.1-0.1,0.2-0.2
				c0,0,0,0.1,0.1,0.1c-0.1,0.1-0.2,0.2-0.3,0.3c0.2,0.2,0.4,0.3,0.6,0.5c0,0.1,0,0.1,0,0.2c-0.1-0.1-0.2-0.1-0.3-0.2
				c-0.1-0.1-0.2-0.1-0.3-0.2c0,0-0.1-0.1-0.2-0.1c0,0-0.1,0.1-0.1,0.1c-0.1,0.1-0.3,0.3-0.5,0.4c0,0,0.3,0.7,0.7,0.9
				c-0.6-0.1-0.9-0.8-0.9-0.8c-0.2,0.1-0.4,0.2-0.4,0.3c-0.1,0-0.1,0.3-0.1,0.4c0,0.5-0.1,1.1-0.2,1.6c0.1-0.6,0.1-1.3,0.1-1.9
				c-0.1,0-0.2,0.1-0.3,0.1c-0.1,0-0.1,0-0.2,0c-0.1,0,0,0.1-0.1,0.1c-0.1,0.2-0.1,0.5-0.2,0.7c-0.2,0.4-0.4,0.8-0.6,1.2
				c0.3-0.7,0.6-1.3,0.8-2c-0.1,0-0.3,0-0.4,0c0,0-0.1,0-0.2,0c0,0-0.1,0.1-0.1,0.2c-0.2,0.2-0.4,0.4-0.6,0.5
				c-0.4,0.4-0.9,0.7-1.4,0.9c0.3-0.2,0.7-0.5,1-0.8c0.3-0.3,0.6-0.6,0.9-0.9c-0.1,0-0.3-0.1-0.4-0.1c-0.1,0-0.3-0.1-0.4-0.2
				c-0.1,0-0.1-0.1-0.2-0.1c0,0-0.1,0.1-0.1,0.1c-0.2,0.2-0.5,0.3-0.7,0.4c-0.5,0.3-1.1,0.5-1.6,0.6c0.4-0.2,0.8-0.3,1.2-0.5
				c0.4-0.2,0.8-0.4,1.1-0.7c-0.3-0.2-0.5-0.4-0.8-0.7c0,0-0.3,0.1-0.4,0.1c-0.1,0-0.3,0.1-0.4,0.1c-0.3,0.1-0.5,0.2-0.8,0.2
				c-0.5,0.1-1.1,0.2-1.6,0.2c0.2,0,0.5-0.1,0.7-0.1c0.6-0.1,1.1-0.3,1.6-0.4c0.1,0,0.3-0.1,0.4-0.1c0.1,0,0.1-0.1,0.2-0.1
				c0.1,0,0.1,0,0.1-0.1c-0.1-0.2-0.2-0.5-0.3-0.8c0,0-0.1,0-0.1,0c-0.6,0.1-1.1,0.2-1.7,0.2c-0.5,0-1.1-0.1-1.6-0.1
				c0,0,0.1,0,0.1,0c0.6,0,1.1,0,1.7,0c0.6,0,1.1-0.1,1.6-0.3c0-0.1,0-0.2,0-0.3c-0.3,0-0.5,0-0.8-0.1c-0.1-0.1-0.2-0.1-0.3-0.2
				c-0.1,0-0.1-0.1-0.2-0.1c0,0-0.2,0-0.2,0c-1.1,0.1-2.3-0.1-3.3-0.4c1.1,0.2,2.2,0.4,3.4,0.3c0,0-0.1-0.2-0.2-0.2
				c-0.1,0-0.2,0-0.2-0.1c-0.1,0-0.3-0.1-0.4-0.1c-0.3-0.1-0.5-0.2-0.8-0.4c-0.1-0.1-0.2-0.1-0.3-0.2c-0.1-0.1-0.1-0.1-0.2-0.1
				c-0.1,0-0.1,0-0.2,0c-0.3-0.1-0.6-0.1-0.9-0.2c-0.3-0.1-0.6-0.2-0.8-0.3c-0.3-0.1-0.5-0.2-0.8-0.3c0.4,0.1,0.8,0.3,1.2,0.4
				c0.5,0.1,0.9,0.2,1.4,0.3c-0.1-0.1-0.2-0.2-0.2-0.4c0-0.1,0-0.1,0-0.2c0,0,0-0.1,0-0.2c0,0-0.1-0.1-0.1-0.1
				c-0.1-0.1-0.1-0.1-0.2-0.2c0,0-0.2,0-0.2-0.1c-0.1,0-0.1,0-0.2-0.1c-0.3-0.1-0.5-0.2-0.8-0.3c-0.5-0.2-1-0.5-1.5-0.8
				c0.4,0.2,0.8,0.4,1.3,0.6c0.4,0.2,0.9,0.3,1.3,0.4c-0.1-0.1-0.2-0.2-0.2-0.3c-0.1-0.1-0.1-0.1-0.2-0.1c-0.2-0.1-0.4-0.2-0.6-0.2
				c-0.4-0.2-0.8-0.4-1.1-0.5c-1-0.5-2-1.2-2.9-2c0,0.1,0,0.2,0,0.3c0.1,0.5,0.5,1,0.8,1.4c0.4,0.4,0.8,0.8,1.3,1.1
				c1,0.6,2.1,1,3.1,1.4c-0.4-0.1-0.7-0.2-1.1-0.3c-0.5-0.2-1.1-0.4-1.6-0.6c-0.2-0.1-0.5-0.3-0.7-0.4c-0.1-0.1-0.2-0.2-0.4-0.3
				c0,0-0.3,0.1-0.3,0.1c-0.1,0-0.2,0.1-0.2,0.2c0,0,0.1,0.1,0.1,0.2c0,0,0.1,0.1,0.1,0.1c0.2,0.2,0.4,0.4,0.6,0.5
				c0.5,0.3,1,0.6,1.5,0.9c0.3,0.1,0.5,0.2,0.8,0.3c0.3,0.1,0.5,0.2,0.8,0.2c0.5,0.1,1.1,0.2,1.6,0.3c-0.3,0-0.5,0-0.8,0
				c-0.5,0-1.1-0.1-1.6-0.3c-0.2-0.1-0.4-0.1-0.6-0.2c-0.1,0-0.3,0-0.4,0.1c-0.3,0.1-0.5,0.1-0.8,0.2c0.2,0.3,0.6,0.5,1,0.6
				c0.4,0.2,0.8,0.3,1.2,0.4c1.1,0.3,2.3,0.3,3.4,0.2c-0.5,0.1-1,0.1-1.6,0.1c-0.5,0-1,0-1.5-0.1c-0.1,0-0.2,0-0.3-0.1
				c-0.1,0-0.1,0-0.2,0c-0.1,0-0.2,0.1-0.4,0.1c-0.1,0-0.2,0.1-0.2,0.2c0,0,0,0.1,0,0.1c0,0,0.1,0,0.1,0.1c0.1,0,0.1,0.1,0.2,0.1
				c0.2,0.1,0.5,0.2,0.7,0.3c0.3,0.1,0.5,0.1,0.8,0.2c0.6,0.1,1.2,0.1,1.8,0c0.6,0,1.2-0.1,1.7-0.2c-0.6,0.2-1.2,0.3-1.9,0.4
				c-0.3,0-0.6,0-0.8,0c-0.1,0-0.3,0.1-0.3,0.2c-0.1,0.1-0.2,0.2-0.3,0.2c-0.1,0.1-0.2,0.1-0.2,0.2c0,0.1,0.1,0.2,0.2,0.2
				c0.2,0.2,0.5,0.2,0.8,0.3c0.1,0,0.3,0,0.4,0.1c0.1,0,0.2,0,0.4,0c0.3-0.1,0.6-0.1,0.9-0.2c0.5-0.1,1.1-0.3,1.6-0.5
				c-0.1,0.1-0.2,0.1-0.3,0.2c-0.3,0.1-0.5,0.2-0.8,0.3c-0.2,0.1-0.5,0.2-0.8,0.2c-0.2,0-0.4,0.1-0.5,0.1c-0.1,0-0.1,0-0.1,0.1
				c0,0.1,0,0.2,0,0.3c0,0.1,0,0.2,0.1,0.3c0,0.1,0,0.1,0.1,0.2c0.1,0,0.1,0.1,0.2,0.1c0.3,0.1,0.5,0.2,0.8,0.1
				c0.3-0.1,0.6-0.1,0.8-0.3c0.5-0.2,1-0.5,1.5-0.8c-0.5,0.3-1,0.7-1.5,0.9c-0.1,0.1-0.3,0.1-0.4,0.2c-0.1,0-0.1,0-0.1,0.1
				c0,0.1,0,0.1,0,0.2c0,0.2,0.2,0.5,0.4,0.6c0.2,0.1,0.5,0.1,0.8,0c0.1,0,0.2,0,0.2-0.1c0.1,0,0.1,0,0.2-0.1
				c0.1-0.1,0.2-0.2,0.3-0.4c0.4-0.5,0.7-0.9,1-1.4c-0.2,0.4-0.4,0.8-0.7,1.2c-0.1,0.2-0.3,0.4-0.5,0.6c-0.1,0.1,0.3,0.4,0.4,0.4
				c0.2,0.1,0.5,0.1,0.7,0c0.2-0.1,0.2-0.1,0.3-0.3c0.1-0.1,0.1-0.3,0.2-0.4c0.3-0.5,0.4-1.1,0.7-1.6c0,0,0,0.1,0,0.1
				c-0.1,0.3-0.1,0.5-0.2,0.8c-0.1,0.3-0.2,0.5-0.3,0.8c-0.1,0.1-0.1,0.2-0.2,0.4c0,0-0.1,0.2-0.1,0.2c0,0,0.1,0.1,0.1,0.1
				c0.2,0.1,0.4,0.3,0.7,0.2c0.2-0.1,0.5-0.2,0.6-0.4c0.1-0.2,0.1-0.5,0.1-0.8c0-0.5-0.1-1.1-0.3-1.6c0.1,0.2,0.1,0.4,0.2,0.5
				c0.1,0.1,0.2,0.3,0.3,0.4c0.2,0.2,0.5,0.4,0.8,0.6c-0.2-0.1-0.4-0.2-0.6-0.3c-0.2-0.1-0.4-0.3-0.5-0.5c0.1,0.2,0.1,0.3,0.1,0.5
				c0,0.1,0.2,0.2,0.3,0.3c0.3,0.2,0.5,0.3,0.8,0.4c0.2,0,0.4,0,0.5-0.1c-0.1,0.9-0.3,1.7-0.9,2.7c-1.5,2.7-1.6,4.3-1.1,5.2
				c0,0,0,0.1,0,0.2c0.1,0.1-1.1-0.2-1.4,0c-0.3,0.2-0.2,0.3-0.2,0.3s0.9,0.2,0.9,0.2c0,0,0,0.7,0,0.7c0,0,0.6-0.3,0.6-0.3
				s-0.2,0.3-0.1,0.3c0,0,0.3-0.1,0.3-0.1s-0.2,0.6,0.7,0.7c0.9,0,0.6-0.1,0.7-0.2c0.1-0.1-1-0.2-0.8-0.9c0.1,0,0.1,0,0.2,0
				c0.9,0.2,2.1-0.2,2.8-1c0,0,3.9-3.3,3-10.1c0.1-0.1,0.2-0.2,0.2-0.3c0-0.2,0-0.4,0-0.5c-0.1,0.1-0.1,0.3-0.2,0.4c0,0,0-0.1,0-0.1
				c0.1-0.1,0.1-0.3,0.2-0.4c0.1-0.2,0-0.4,0-0.6c0,0.5,0,1.1,0.2,1.6c0.1,0.2,0.2,0.5,0.4,0.7c0.1,0.2,0.5,0.3,0.7,0.3
				c0.2,0,0.5-0.2,0.6-0.4c0-0.1,0.1-0.1,0.1-0.2c0-0.1-0.1-0.1-0.1-0.2c-0.1-0.1-0.2-0.2-0.3-0.3c-0.2-0.2-0.4-0.4-0.5-0.7
				c-0.2-0.2-0.3-0.5-0.5-0.7c0,0,0-0.1-0.1-0.1c0.4,0.4,0.7,0.9,1.1,1.3c0.1,0.1,0.2,0.2,0.3,0.3c0.1,0.1,0.2,0.2,0.4,0.2
				c0.3,0,0.5-0.1,0.7-0.2c0.1-0.1,0.3-0.4,0.2-0.5c-0.2-0.2-0.4-0.3-0.6-0.5c-0.4-0.3-0.7-0.6-1-1c0.5,0.4,0.9,0.7,1.4,1.1
				c0.1,0.1,0.3,0.2,0.4,0.3c0,0,0.1,0,0.2,0c0.1,0,0.2,0,0.2,0c0.2,0,0.5-0.1,0.7-0.2c0.2-0.2,0.3-0.4,0.2-0.7c0-0.1,0-0.1,0-0.2
				c0-0.1,0-0.1-0.1-0.1c-0.1,0-0.3,0-0.4-0.1c-0.6-0.1-1.1-0.2-1.7-0.4c0.6,0.1,1.1,0.2,1.7,0.3c0.3,0,0.6,0.1,0.9,0
				c0.3,0,0.5-0.2,0.7-0.3c0.1,0,0.1-0.1,0.2-0.1c0.1-0.1,0.1-0.1,0.1-0.2c0-0.1,0-0.2,0-0.3c0-0.1-0.1-0.2-0.1-0.3
				c0-0.1-0.1,0-0.1,0c-0.2,0-0.4,0-0.5,0.1c-0.3,0-0.5,0-0.8,0c-0.3,0-0.6,0-0.9-0.1c-0.1,0-0.2,0-0.4-0.1c0.6,0,1.1,0.1,1.7,0
				c0.3,0,0.6,0,0.9-0.1c0.1,0,0.2,0,0.4-0.1c0.1-0.1,0.2-0.1,0.4-0.2c0.2-0.1,0.5-0.3,0.6-0.5c0,0,0.2-0.2,0.1-0.2
				c0-0.1-0.2-0.1-0.3-0.2c-0.1,0-0.2-0.1-0.4-0.1c-0.1,0-0.3-0.1-0.4-0.1c-0.3,0.1-0.5,0.1-0.8,0.2c-0.6,0.1-1.3,0.2-1.9,0.2
				c0.6-0.1,1.2-0.1,1.7-0.3c0.6-0.1,1.1-0.3,1.7-0.5c0.3-0.1,0.5-0.2,0.7-0.4c0.2-0.1,0.4-0.3,0.6-0.5c0,0,0.1-0.1,0.1-0.1
				c0,0,0.1-0.1,0.1-0.1c0,0-0.1-0.1-0.1-0.1c-0.1-0.1-0.2-0.1-0.3-0.2c-0.1,0-0.3,0-0.4,0c-0.1,0-0.1,0-0.2,0
				c-0.1,0-0.2,0.1-0.2,0.1c-0.5,0.2-0.9,0.4-1.4,0.6c-0.5,0.2-1,0.2-1.5,0.3c1.1-0.3,2.2-0.6,3.2-1.2c0.4-0.2,0.7-0.5,1-0.7
				c0.3-0.2,0.6-0.5,0.8-0.9c-0.3,0-0.5,0-0.8,0c-0.1,0-0.3,0-0.4,0c-0.2,0.1-0.3,0.2-0.5,0.3c-0.5,0.3-0.9,0.5-1.4,0.7
				c-0.2,0.1-0.5,0.2-0.7,0.3c0.5-0.2,1-0.5,1.5-0.8c0.2-0.1,0.5-0.3,0.7-0.4c0.2-0.2,0.5-0.3,0.7-0.5c0.4-0.4,0.9-0.8,1.2-1.3
				c0.2-0.2,0.3-0.4,0.4-0.7c0-0.1,0.1-0.1,0.1-0.2c0,0,0.1-0.2,0.1-0.2C61.6,360.5,61.4,360.4,61.4,360.4z M50.9,368.1
				c0,0.2-0.1,0.4-0.2,0.5c0,0,0-0.1,0-0.1C50.7,368.4,50.8,368.2,50.9,368.1z M45.2,371.6c0.3,0.2,0.7,0.4,1,0.7c0,0.1,0,0.1,0,0.2
				C45.9,372.1,45.5,371.9,45.2,371.6z M46.2,373.5c-0.1-0.1-0.2-0.1-0.4-0.2c-0.5-0.3-0.9-0.7-1.3-1c0.1,0,0.1,0.1,0.2,0.1
				c0.5,0.3,1,0.6,1.4,0.9c0,0,0.1,0.1,0.2,0.1C46.3,373.4,46.3,373.5,46.2,373.5C46.3,373.5,46.2,373.5,46.2,373.5z M51,370.4
				C51,370.4,51,370.4,51,370.4C51,370.4,51,370.4,51,370.4c0.1-0.1,0.1-0.2,0.2-0.2C51.1,370.3,51.1,370.4,51,370.4z"/>
			<g>
				<g>
					<line class="st4" x1="39.2" y1="357.2" x2="39.4" y2="357.4"/>
					<line class="st4" x1="36.9" y1="355.5" x2="38.8" y2="356.9"/>
					<line class="st4" x1="35.9" y1="354.8" x2="36.5" y2="355.2"/>
				</g>
				<g>
					<line class="st4" x1="41.3" y1="354" x2="42" y2="355.7"/>
					<line class="st4" x1="40.9" y1="353.2" x2="41.1" y2="353.6"/>
				</g>
				<g>
					<line class="st4" x1="45.4" y1="353.2" x2="45.4" y2="354.9"/>
					<line class="st4" x1="45.4" y1="351.1" x2="45.4" y2="352.3"/>
					<line class="st4" x1="45.4" y1="349.8" x2="45.4" y2="350.2"/>
				</g>
				<g>
					<line class="st4" x1="36.7" y1="360.1" x2="37.5" y2="360.2"/>
					<line class="st4" x1="34.8" y1="359.7" x2="36.2" y2="360"/>
				</g>
				<g>
					<line class="st4" x1="51.5" y1="357.2" x2="51.3" y2="357.4"/>
					<line class="st4" x1="53.8" y1="355.5" x2="51.9" y2="356.9"/>
					<line class="st4" x1="54.8" y1="354.8" x2="54.3" y2="355.2"/>
				</g>
				<g>
					<line class="st4" x1="49.5" y1="354" x2="48.8" y2="355.7"/>
					<line class="st4" x1="49.8" y1="353.2" x2="49.7" y2="353.6"/>
				</g>
				<g>
					<line class="st4" x1="54" y1="360.1" x2="53.2" y2="360.2"/>
					<line class="st4" x1="55.9" y1="359.7" x2="54.5" y2="360"/>
				</g>
			</g>
		</g>
	</g>
</g>
<g id="Kinto">
	<g>
		<g>
			<path class="st5" d="M405.9,213.8c0,1.1-0.4,1.9-1.2,2.5s-1.8,0.9-3.1,0.9c-1.6,0-2.8-0.2-3.6-0.5v-0.9c0.9,0.4,2.1,0.6,3.5,0.6
				c1.1,0,1.9-0.2,2.5-0.7c0.6-0.5,0.9-1.1,0.9-1.9c0-0.5-0.1-0.9-0.3-1.2s-0.5-0.6-1-0.9s-1.1-0.5-2-0.9c-1.3-0.5-2.2-0.9-2.7-1.5
				c-0.5-0.5-0.8-1.2-0.8-2.1c0-1,0.4-1.7,1.1-2.4c0.8-0.6,1.7-0.9,2.9-0.9c1.2,0,2.3,0.2,3.4,0.7l-0.3,0.8
				c-1.1-0.4-2.1-0.7-3.1-0.7c-0.9,0-1.7,0.2-2.3,0.7s-0.8,1-0.8,1.8c0,0.5,0.1,0.9,0.3,1.2s0.5,0.6,0.8,0.8c0.4,0.2,1.1,0.5,2,0.9
				c1,0.3,1.8,0.7,2.3,1c0.5,0.3,0.9,0.7,1.1,1.1C405.8,212.7,405.9,213.2,405.9,213.8z"/>
			<path class="st5" d="M411,216.5c0.6,0,1,0,1.4-0.1v0.7c-0.4,0.1-0.9,0.2-1.5,0.2c-0.8,0-1.5-0.2-1.9-0.7s-0.6-1.2-0.6-2.1v-6.2
				h-1.4v-0.5l1.4-0.4l0.4-2.2h0.4v2.3h2.8v0.8h-2.8v6c0,0.7,0.1,1.3,0.4,1.6S410.4,216.5,411,216.5z"/>
			<path class="st5" d="M422.4,212.4c0,1.6-0.4,2.8-1.1,3.7c-0.8,0.9-1.8,1.3-3.1,1.3c-0.8,0-1.6-0.2-2.2-0.6s-1.1-1-1.5-1.7
				s-0.5-1.6-0.5-2.6c0-1.6,0.4-2.8,1.1-3.6c0.8-0.9,1.8-1.3,3.1-1.3c1.3,0,2.3,0.4,3.1,1.3C422,209.6,422.4,210.8,422.4,212.4z
				 M414.8,212.4c0,1.3,0.3,2.3,0.9,3.1c0.6,0.7,1.4,1.1,2.4,1.1s1.9-0.4,2.4-1.1c0.6-0.7,0.9-1.8,0.9-3.1c0-1.3-0.3-2.3-0.9-3.1
				s-1.4-1.1-2.5-1.1s-1.9,0.4-2.4,1.1S414.8,211,414.8,212.4z"/>
			<path class="st5" d="M428.8,207.4c0.4,0,0.8,0,1.3,0.1l-0.2,0.8c-0.4-0.1-0.8-0.1-1.2-0.1c-0.8,0-1.5,0.3-2,1s-0.8,1.6-0.8,2.6
				v5.3H425v-9.6h0.7l0.1,1.7h0.1c0.4-0.7,0.8-1.2,1.3-1.5C427.6,207.5,428.1,207.4,428.8,207.4z"/>
			<path class="st5" d="M435.9,217.3c-1.4,0-2.5-0.4-3.2-1.3s-1.2-2.1-1.2-3.6c0-1.5,0.4-2.7,1.1-3.7c0.8-0.9,1.8-1.4,3-1.4
				c1.1,0,2,0.4,2.7,1.2s1,1.9,1,3.2v0.7h-6.9c0,1.3,0.3,2.3,0.9,3s1.5,1,2.6,1c0.5,0,1,0,1.4-0.1s0.9-0.2,1.6-0.5v0.8
				c-0.5,0.2-1,0.4-1.5,0.5C436.9,217.3,436.4,217.3,435.9,217.3z M435.6,208.2c-0.9,0-1.7,0.3-2.2,0.9c-0.6,0.6-0.9,1.5-1,2.6h5.9
				c0-1.1-0.2-2-0.7-2.6C437.1,208.5,436.5,208.2,435.6,208.2z"/>
			<path class="st5" d="M442.9,215.1l0.1,0.2c-0.4,1.6-0.9,3-1.5,4.2h-0.6c0.5-1.6,0.8-3.1,1-4.4H442.9z"/>
			<path class="st5" d="M457.8,213.8c0,1.1-0.4,1.9-1.2,2.5s-1.8,0.9-3.1,0.9c-1.6,0-2.8-0.2-3.6-0.5v-0.9c0.9,0.4,2.1,0.6,3.5,0.6
				c1.1,0,1.9-0.2,2.5-0.7c0.6-0.5,0.9-1.1,0.9-1.9c0-0.5-0.1-0.9-0.3-1.2s-0.5-0.6-1-0.9s-1.1-0.5-2-0.9c-1.3-0.5-2.2-0.9-2.7-1.5
				c-0.5-0.5-0.8-1.2-0.8-2.1c0-1,0.4-1.7,1.1-2.4c0.8-0.6,1.7-0.9,2.9-0.9c1.2,0,2.3,0.2,3.4,0.7l-0.3,0.8
				c-1.1-0.4-2.1-0.7-3.1-0.7c-0.9,0-1.7,0.2-2.3,0.7s-0.8,1-0.8,1.8c0,0.5,0.1,0.9,0.3,1.2s0.5,0.6,0.8,0.8c0.4,0.2,1.1,0.5,2,0.9
				c1,0.3,1.8,0.7,2.3,1c0.5,0.3,0.9,0.7,1.1,1.1C457.6,212.7,457.8,213.2,457.8,213.8z"/>
			<path class="st5" d="M458.7,207.6h0.9l2,5.4c0.6,1.6,1,2.8,1.2,3.3h0.1c0.2-0.8,0.6-1.9,1.2-3.4l2-5.3h0.9l-4.3,11.1
				c-0.3,0.9-0.6,1.5-0.9,1.8s-0.5,0.6-0.8,0.7s-0.7,0.2-1.1,0.2c-0.3,0-0.7-0.1-1.1-0.2v-0.8c0.3,0.1,0.7,0.1,1.1,0.1
				c0.3,0,0.6-0.1,0.8-0.2s0.4-0.4,0.6-0.7s0.4-0.8,0.6-1.4c0.2-0.6,0.4-1.1,0.5-1.3L458.7,207.6z"/>
			<path class="st5" d="M475.2,217.1v-6.2c0-1-0.2-1.7-0.6-2.1c-0.4-0.4-1-0.7-1.9-0.7c-1.1,0-2,0.3-2.5,0.9
				c-0.5,0.6-0.8,1.5-0.8,2.8v5.3h-0.9v-9.6h0.7l0.2,1.3h0.1c0.6-1,1.7-1.5,3.3-1.5c2.2,0,3.3,1.2,3.3,3.5v6.2H475.2z"/>
			<path class="st5" d="M482.9,217.3c-1.4,0-2.4-0.4-3.2-1.3s-1.2-2.1-1.2-3.6c0-1.6,0.4-2.8,1.2-3.7c0.8-0.9,1.9-1.3,3.3-1.3
				c0.8,0,1.6,0.1,2.4,0.4l-0.2,0.8c-0.8-0.3-1.5-0.4-2.2-0.4c-1.2,0-2.1,0.4-2.7,1.1s-0.9,1.8-0.9,3.1c0,1.3,0.3,2.3,0.9,3
				c0.6,0.7,1.4,1.1,2.5,1.1c0.9,0,1.7-0.2,2.4-0.5v0.8C484.7,217.2,483.9,217.3,482.9,217.3z"/>
			<path class="st5" d="M488.7,215.1l0.1,0.2c-0.4,1.6-0.9,3-1.5,4.2h-0.6c0.5-1.6,0.8-3.1,1-4.4H488.7z"/>
			<path class="st5" d="M503.5,213.8c0,1.1-0.4,1.9-1.2,2.5s-1.8,0.9-3.1,0.9c-1.6,0-2.8-0.2-3.6-0.5v-0.9c0.9,0.4,2.1,0.6,3.5,0.6
				c1.1,0,1.9-0.2,2.5-0.7c0.6-0.5,0.9-1.1,0.9-1.9c0-0.5-0.1-0.9-0.3-1.2s-0.5-0.6-1-0.9s-1.1-0.5-2-0.9c-1.3-0.5-2.2-0.9-2.7-1.5
				c-0.5-0.5-0.8-1.2-0.8-2.1c0-1,0.4-1.7,1.1-2.4c0.8-0.6,1.7-0.9,2.9-0.9c1.2,0,2.3,0.2,3.4,0.7l-0.3,0.8
				c-1.1-0.4-2.1-0.7-3.1-0.7c-0.9,0-1.7,0.2-2.3,0.7s-0.8,1-0.8,1.8c0,0.5,0.1,0.9,0.3,1.2s0.5,0.6,0.8,0.8c0.4,0.2,1.1,0.5,2,0.9
				c1,0.3,1.8,0.7,2.3,1c0.5,0.3,0.9,0.7,1.1,1.1C503.4,212.7,503.5,213.2,503.5,213.8z"/>
			<path class="st5" d="M512.7,217.1v-6.2c0-1-0.2-1.7-0.6-2.1c-0.4-0.4-1-0.7-1.9-0.7c-1.1,0-2,0.3-2.5,0.9
				c-0.5,0.6-0.8,1.5-0.8,2.8v5.3H506v-13.7h0.9v4.4l0,1.2h0.1c0.4-0.6,0.8-1,1.4-1.2s1.2-0.4,2-0.4c2.2,0,3.3,1.2,3.3,3.5v6.2
				H512.7z"/>
			<path class="st5" d="M522.5,217.1l-0.2-1.5h-0.1c-0.5,0.6-1,1.1-1.5,1.3c-0.5,0.3-1.1,0.4-1.8,0.4c-0.9,0-1.7-0.2-2.2-0.7
				s-0.8-1.1-0.8-2c0-0.9,0.4-1.7,1.2-2.2s1.9-0.8,3.4-0.8l1.8-0.1v-0.6c0-0.9-0.2-1.6-0.6-2.1s-1-0.7-1.8-0.7
				c-0.9,0-1.8,0.2-2.8,0.7l-0.3-0.8c1-0.5,2.1-0.7,3.1-0.7c1,0,1.8,0.3,2.4,0.8s0.8,1.4,0.8,2.5v6.4H522.5z M518.9,216.5
				c1,0,1.8-0.3,2.4-0.9c0.6-0.6,0.9-1.4,0.9-2.4v-0.9l-1.7,0.1c-1.3,0.1-2.3,0.3-2.9,0.6c-0.6,0.4-0.9,0.9-0.9,1.7
				c0,0.6,0.2,1.1,0.5,1.4S518.3,216.5,518.9,216.5z"/>
			<path class="st5" d="M530,207.4c0.4,0,0.8,0,1.3,0.1l-0.2,0.8c-0.4-0.1-0.8-0.1-1.2-0.1c-0.8,0-1.5,0.3-2,1s-0.8,1.6-0.8,2.6v5.3
				h-0.9v-9.6h0.7l0.1,1.7h0.1c0.4-0.7,0.8-1.2,1.3-1.5C528.8,207.5,529.3,207.4,530,207.4z"/>
			<path class="st5" d="M537.1,217.3c-1.4,0-2.5-0.4-3.2-1.3s-1.2-2.1-1.2-3.6c0-1.5,0.4-2.7,1.1-3.7c0.8-0.9,1.8-1.4,3-1.4
				c1.1,0,2,0.4,2.7,1.2s1,1.9,1,3.2v0.7h-6.9c0,1.3,0.3,2.3,0.9,3s1.5,1,2.6,1c0.5,0,1,0,1.4-0.1s0.9-0.2,1.6-0.5v0.8
				c-0.5,0.2-1,0.4-1.5,0.5C538.1,217.3,537.6,217.3,537.1,217.3z M536.8,208.2c-0.9,0-1.7,0.3-2.2,0.9c-0.6,0.6-0.9,1.5-1,2.6h5.9
				c0-1.1-0.2-2-0.7-2.6C538.3,208.5,537.6,208.2,536.8,208.2z"/>
			<path class="st5" d="M553.6,217.1l-0.2-1.5h-0.1c-0.5,0.6-1,1.1-1.5,1.3c-0.5,0.3-1.1,0.4-1.8,0.4c-0.9,0-1.7-0.2-2.2-0.7
				s-0.8-1.1-0.8-2c0-0.9,0.4-1.7,1.2-2.2s1.9-0.8,3.4-0.8l1.8-0.1v-0.6c0-0.9-0.2-1.6-0.6-2.1s-1-0.7-1.8-0.7
				c-0.9,0-1.8,0.2-2.8,0.7l-0.3-0.8c1-0.5,2.1-0.7,3.1-0.7c1,0,1.8,0.3,2.4,0.8s0.8,1.4,0.8,2.5v6.4H553.6z M550,216.5
				c1,0,1.8-0.3,2.4-0.9c0.6-0.6,0.9-1.4,0.9-2.4v-0.9l-1.7,0.1c-1.3,0.1-2.3,0.3-2.9,0.6c-0.6,0.4-0.9,0.9-0.9,1.7
				c0,0.6,0.2,1.1,0.5,1.4S549.4,216.5,550,216.5z"/>
			<path class="st5" d="M563.9,217.1v-6.2c0-1-0.2-1.7-0.6-2.1c-0.4-0.4-1-0.7-1.9-0.7c-1.1,0-2,0.3-2.5,0.9
				c-0.5,0.6-0.8,1.5-0.8,2.8v5.3h-0.9v-9.6h0.7l0.2,1.3h0.1c0.6-1,1.7-1.5,3.3-1.5c2.2,0,3.3,1.2,3.3,3.5v6.2H563.9z"/>
			<path class="st5" d="M571.4,207.4c0.7,0,1.3,0.1,1.8,0.4s1,0.7,1.4,1.3h0.1c0-0.7-0.1-1.5-0.1-2.2v-3.4h0.9v13.7h-0.6l-0.2-1.5
				h-0.1c-0.7,1.1-1.8,1.6-3.1,1.6c-1.3,0-2.3-0.4-3-1.2s-1-2-1-3.6c0-1.7,0.3-2.9,1-3.8S570.1,207.4,571.4,207.4z M571.4,208.2
				c-1,0-1.8,0.4-2.4,1.1s-0.8,1.8-0.8,3.2c0,2.7,1.1,4.1,3.2,4.1c1.1,0,1.9-0.3,2.4-0.9s0.8-1.7,0.8-3.1v-0.1
				c0-1.5-0.2-2.5-0.7-3.2C573.3,208.5,572.5,208.2,571.4,208.2z"/>
			<path class="st5" d="M590.6,213.8c0,1.1-0.4,1.9-1.2,2.5s-1.8,0.9-3.1,0.9c-1.6,0-2.8-0.2-3.6-0.5v-0.9c0.9,0.4,2.1,0.6,3.5,0.6
				c1.1,0,1.9-0.2,2.5-0.7c0.6-0.5,0.9-1.1,0.9-1.9c0-0.5-0.1-0.9-0.3-1.2s-0.5-0.6-1-0.9s-1.1-0.5-2-0.9c-1.3-0.5-2.2-0.9-2.7-1.5
				c-0.5-0.5-0.8-1.2-0.8-2.1c0-1,0.4-1.7,1.1-2.4c0.8-0.6,1.7-0.9,2.9-0.9c1.2,0,2.3,0.2,3.4,0.7l-0.3,0.8
				c-1.1-0.4-2.1-0.7-3.1-0.7c-0.9,0-1.7,0.2-2.3,0.7s-0.8,1-0.8,1.8c0,0.5,0.1,0.9,0.3,1.2s0.5,0.6,0.8,0.8c0.4,0.2,1.1,0.5,2,0.9
				c1,0.3,1.8,0.7,2.3,1c0.5,0.3,0.9,0.7,1.1,1.1C590.5,212.7,590.6,213.2,590.6,213.8z"/>
			<path class="st5" d="M597,217.3c-1.4,0-2.5-0.4-3.2-1.3s-1.2-2.1-1.2-3.6c0-1.5,0.4-2.7,1.1-3.7c0.8-0.9,1.8-1.4,3-1.4
				c1.1,0,2,0.4,2.7,1.2s1,1.9,1,3.2v0.7h-6.9c0,1.3,0.3,2.3,0.9,3s1.5,1,2.6,1c0.5,0,1,0,1.4-0.1s0.9-0.2,1.6-0.5v0.8
				c-0.5,0.2-1,0.4-1.5,0.5C598,217.3,597.5,217.3,597,217.3z M596.7,208.2c-0.9,0-1.7,0.3-2.2,0.9c-0.6,0.6-0.9,1.5-1,2.6h5.9
				c0-1.1-0.2-2-0.7-2.6C598.2,208.5,597.6,208.2,596.7,208.2z"/>
			<path class="st5" d="M603.9,217.1H603v-13.7h0.9V217.1z"/>
			<path class="st5" d="M610.6,208.3h-2.2v8.8h-0.9v-8.8h-1.8v-0.5l1.8-0.3v-0.7c0-1.2,0.2-2,0.6-2.6c0.4-0.5,1.1-0.8,2.1-0.8
				c0.5,0,1.1,0.1,1.6,0.2l-0.2,0.8c-0.5-0.1-0.9-0.2-1.4-0.2c-0.7,0-1.2,0.2-1.4,0.6s-0.4,1.1-0.4,2v0.9h2.2V208.3z"/>
			<path class="st5" d="M611.7,212.6v-0.7h4.2v0.7H611.7z"/>
			<path class="st5" d="M627.8,217.1h-0.9v-6.3h-7.5v6.3h-0.9v-12.8h0.9v5.7h7.5v-5.7h0.9V217.1z"/>
			<path class="st5" d="M639.1,212.4c0,1.6-0.4,2.8-1.1,3.7c-0.8,0.9-1.8,1.3-3.1,1.3c-0.8,0-1.6-0.2-2.2-0.6s-1.1-1-1.5-1.7
				s-0.5-1.6-0.5-2.6c0-1.6,0.4-2.8,1.1-3.6c0.8-0.9,1.8-1.3,3.1-1.3c1.3,0,2.3,0.4,3.1,1.3C638.7,209.6,639.1,210.8,639.1,212.4z
				 M631.5,212.4c0,1.3,0.3,2.3,0.9,3.1c0.6,0.7,1.4,1.1,2.4,1.1s1.9-0.4,2.4-1.1c0.6-0.7,0.9-1.8,0.9-3.1c0-1.3-0.3-2.3-0.9-3.1
				s-1.4-1.1-2.5-1.1s-1.9,0.4-2.4,1.1S631.5,211,631.5,212.4z"/>
			<path class="st5" d="M647.7,214.7c0,0.9-0.3,1.5-1,2s-1.6,0.7-2.8,0.7c-1.3,0-2.3-0.2-3-0.6v-0.9c1,0.5,2,0.7,3,0.7
				c0.9,0,1.7-0.2,2.1-0.5c0.5-0.3,0.7-0.7,0.7-1.3c0-0.5-0.2-0.9-0.6-1.2s-1-0.7-1.9-1c-1-0.3-1.6-0.6-2-0.9
				c-0.4-0.2-0.7-0.5-0.9-0.8c-0.2-0.3-0.3-0.7-0.3-1.1c0-0.7,0.3-1.3,0.9-1.7s1.4-0.6,2.5-0.6c1,0,2,0.2,2.9,0.6l-0.3,0.8
				c-0.9-0.4-1.8-0.6-2.6-0.6c-0.8,0-1.4,0.1-1.9,0.4s-0.7,0.6-0.7,1.1c0,0.5,0.2,0.9,0.5,1.2s1,0.6,2.1,1c0.9,0.3,1.5,0.6,1.9,0.8
				s0.7,0.5,0.9,0.8S647.7,214.2,647.7,214.7z"/>
			<path class="st5" d="M652.6,216.5c0.6,0,1,0,1.4-0.1v0.7c-0.4,0.1-0.9,0.2-1.5,0.2c-0.8,0-1.5-0.2-1.9-0.7s-0.6-1.2-0.6-2.1v-6.2
				h-1.4v-0.5l1.4-0.4l0.4-2.2h0.4v2.3h2.8v0.8H651v6c0,0.7,0.1,1.3,0.4,1.6S652.1,216.5,652.6,216.5z"/>
			<path class="st5" d="M656,216.5c0-0.6,0.2-0.9,0.7-0.9c0.5,0,0.7,0.3,0.7,0.9s-0.2,0.9-0.7,0.9C656.2,217.3,656,217,656,216.5z"
				/>
		</g>
		<g>
			<path class="st2" d="M409.7,163v29h-11.6v-55.6h11.6v25.4l15.8-25.4h13.8l-17.8,25.8l19.8,29.8h-14.7L409.7,163z"/>
			<path class="st2" d="M455.2,144.5c-1.3,1.3-2.9,1.9-4.7,1.9c-1.8,0-3.4-0.6-4.6-1.9c-1.3-1.3-1.9-2.9-1.9-4.7
				c0-1.9,0.7-3.4,2-4.7c1.3-1.3,2.9-1.9,4.8-1.9c1.8,0,3.3,0.6,4.6,1.9c1.3,1.3,1.9,2.9,1.9,4.7
				C457.1,141.7,456.5,143.2,455.2,144.5z M445.1,151.8l10.8-1.7V192h-10.8V151.8z"/>
			<path class="st2" d="M488.8,165.5c0-2.3-0.3-3.9-0.8-4.7c-0.5-0.8-1.5-1.2-2.8-1.2c-1.1,0-2.3,0.3-3.6,1
				c-1.3,0.7-2.6,1.6-3.8,2.7V192H467v-29.7c0-3.6-0.5-6.8-1.4-9.6l9.5-2.7c1,1.7,1.5,3.4,1.5,5.1c0.8-0.6,1.6-1.1,2.3-1.6
				c0.7-0.5,1.5-1,2.4-1.4c1.1-0.6,2.2-1,3.5-1.3c1.3-0.3,2.6-0.4,3.8-0.4c2.3,0,4.3,0.5,6.1,1.6c1.8,1.1,3,2.5,3.7,4.3
				c0.5,1.4,0.8,3.3,0.8,5.8V192h-10.4V165.5z"/>
			<path class="st2" d="M522.5,193c-2.8,0-5.1-0.5-7.2-1.6c-2-1.1-3.4-2.5-4-4.3c-0.2-0.4-0.3-0.8-0.4-1.2c-0.1-0.3-0.2-0.7-0.2-1.2
				s-0.1-1-0.1-1.6c0-0.6,0-1.4,0-2.3v-22.1h-4.1v-7.4h4.1c0-2,0-3.8,0-5.2c0-1.4,0.1-2.9,0.4-4.5l11-2.7c-0.2,1.9-0.4,3.9-0.5,6
				c-0.1,2.2-0.2,4.3-0.2,6.4h9.6l-2.7,7.4h-6.9v20.3c0,1.3,0.1,2.3,0.2,3.2c0.1,0.8,0.4,1.5,0.7,2c0.3,0.5,0.8,0.8,1.4,1
				c0.6,0.2,1.4,0.3,2.3,0.3c0.5,0,1-0.1,1.6-0.2c0.6-0.1,1.3-0.3,2.3-0.6l1.4,6.5C528.2,192.4,525.2,193,522.5,193z"/>
			<path class="st2" d="M570.4,180.4c-0.8,2.5-2.1,4.8-3.9,6.8c-1.5,1.8-3.4,3.1-5.5,4.2c-2.1,1-4.8,1.5-8,1.5
				c-2.8,0-5.3-0.5-7.5-1.5c-2.3-1-4.2-2.4-5.8-4.3c-1.6-1.8-2.8-4.1-3.7-6.7s-1.3-5.5-1.3-8.7c0-3.2,0.4-6.1,1.3-8.8
				s2.1-4.9,3.7-6.8c1.6-1.9,3.5-3.3,5.8-4.4c2.3-1,4.8-1.5,7.5-1.5c5.8,0,10.4,2.1,13.9,6.2c1.7,1.9,2.8,4.1,3.6,6.4
				c0.7,2.3,1.1,5.2,1.1,8.6C571.6,174.9,571.2,177.9,570.4,180.4z M557.8,160.4c-1.1-1.4-2.7-2.2-4.6-2.2c-1.3,0-2.4,0.4-3.4,1.1
				c-1,0.7-1.7,1.8-2.1,3c-0.4,1.1-0.7,2.3-0.8,3.8c-0.2,1.5-0.3,3.2-0.3,5.3c0,4.6,0.5,8.1,1.4,10.3c0.5,1.1,1.2,2,2.3,2.5
				c1,0.6,2.1,0.8,3.2,0.8c2.4,0,4.1-1.1,5.1-3.3c1-2.2,1.5-5.7,1.5-10.5C560,165.9,559.3,162.3,557.8,160.4z"/>
		</g>
		<g id="Cloud">
			<linearGradient id="SVGID_1_" gradientUnits="userSpaceOnUse" x1="152.1987" y1="183.7646" x2="241.1015" y2="191.518">
				<stop  offset="0" style="stop-color:#FEEC7F"/>
				<stop  offset="1" style="stop-color:#F3A21B"/>
			</linearGradient>
			<path class="st6" d="M241,192.3h-22.5l-17.6,0c-6.2-0.2-13.1-0.7-18.9-1.8c-2.9-0.5-5.6-1.2-8.2-1.9c-1.3-0.4-2.5-0.7-3.7-1.1
				c-1.2-0.4-2.3-0.8-3.4-1.2c-1.1-0.4-2.1-0.8-3.1-1.2c-1-0.4-1.9-0.9-2.7-1.3c-1.7-0.9-3.2-1.6-4.3-2.3c-1.2-0.7-2.1-1.3-2.7-1.7
				c-0.6-0.4-0.9-0.6-0.9-0.6s0.3,0.2,1,0.6c0.6,0.4,1.5,0.9,2.7,1.6c1.2,0.7,2.7,1.4,4.4,2.2c1.7,0.8,3.7,1.6,5.9,2.3
				c1.1,0.4,2.2,0.8,3.4,1.1c1.2,0.4,2.4,0.7,3.7,1c2.6,0.6,5.3,1.2,8.2,1.7c5.7,1,11.9,1.6,18.1,1.8
				C203.4,191.7,241,192.3,241,192.3z"/>
			
				<linearGradient id="SVGID_2_" gradientUnits="userSpaceOnUse" x1="5030.7749" y1="111.7688" x2="5030.7749" y2="196.8388" gradientTransform="matrix(-1 0 0 1 5326.585 0)">
				<stop  offset="0" style="stop-color:#FEEC7F"/>
				<stop  offset="0.1894" style="stop-color:#FEE97B"/>
				<stop  offset="0.3937" style="stop-color:#FCDF6E"/>
				<stop  offset="0.6052" style="stop-color:#FACF58"/>
				<stop  offset="0.8201" style="stop-color:#F6B93A"/>
				<stop  offset="1" style="stop-color:#F3A21B"/>
			</linearGradient>
			<path class="st7" d="M362.5,160.1c0-16-13.2-31.4-28.9-31.4c-12.1,0-25.8,1.5-52,34.8c-33.8,42.9-51.4,21.9-52.5,20.6
				c2.5,4.9,7.5,8.4,13.4,8.4h91.1C349.6,192.3,362.5,176,362.5,160.1z"/>
			
				<linearGradient id="SVGID_3_" gradientUnits="userSpaceOnUse" x1="5132.3823" y1="176.7332" x2="5049.3774" y2="176.7332" gradientTransform="matrix(-1 0 0 1 5326.585 0)">
				<stop  offset="0" style="stop-color:#FEEC7F"/>
				<stop  offset="0.1105" style="stop-color:#FDE373"/>
				<stop  offset="0.7142" style="stop-color:#F6B434"/>
				<stop  offset="1" style="stop-color:#F3A21B"/>
			</linearGradient>
			<path class="st8" d="M242.6,192.3c-8.3,0-15.1-6.7-15.1-15s6.9-16.2,15-16.2c15.9,0,18.1,14.4,42.9,21.5
				c16.1,4.6,48.1,9.7,48.1,9.7H242.6z"/>
			<linearGradient id="SVGID_4_" gradientUnits="userSpaceOnUse" x1="292.6939" y1="104.7322" x2="292.6939" y2="191.0225">
				<stop  offset="0" style="stop-color:#FEEC7F"/>
				<stop  offset="0.6144" style="stop-color:#F7BC3F"/>
				<stop  offset="1" style="stop-color:#F3A21B"/>
			</linearGradient>
			<path class="st9" d="M333.5,192.3c-3.2-1.3-15.7-5.4-17.8-19c-2.1-13.8,6.2-21.2,3.6-37.1c-2.3-14-14-20.9-25.7-23.3
				c-6-1.2-12.6-0.9-19.3,1.5c-18.8,6.8-25.1,28.2-21.6,42.9c2.9,12.1,14.9,24,43.7,29.1C321,190.8,323,191.1,333.5,192.3z"/>
			<linearGradient id="SVGID_5_" gradientUnits="userSpaceOnUse" x1="281.3082" y1="131.7505" x2="281.3082" y2="193.3295">
				<stop  offset="0" style="stop-color:#F9C32E"/>
				<stop  offset="0.5169" style="stop-color:#F19819"/>
				<stop  offset="1" style="stop-color:#E96C04"/>
			</linearGradient>
			<path class="st10" d="M315.7,173.3c-2.1-13.8,6.2-21.2,3.6-37.1c-0.3-1.8-0.8-3.5-1.3-5.1c-9.1,3.6-20.5,12-36.4,32.2
				c-33.8,42.9-51.5,21.9-52.5,20.6c2.5,4.9,7.6,8.4,13.5,8.4h91C330.3,191.1,317.8,187,315.7,173.3z"/>
			<linearGradient id="SVGID_6_" gradientUnits="userSpaceOnUse" x1="237.1746" y1="179.2643" x2="314.082" y2="179.2643">
				<stop  offset="0" style="stop-color:#F7B425"/>
				<stop  offset="6.246364e-02" style="stop-color:#F3A620"/>
				<stop  offset="0.2131" style="stop-color:#EC8816"/>
				<stop  offset="0.3736" style="stop-color:#E6720E"/>
				<stop  offset="0.5466" style="stop-color:#E26208"/>
				<stop  offset="0.7407" style="stop-color:#E05805"/>
				<stop  offset="1" style="stop-color:#DF5504"/>
			</linearGradient>
			<path class="st11" d="M256.6,166.2c4.1,7.6,21.3,19.9,76.9,26.2h0C289.5,186.7,269,178.4,256.6,166.2z"/>
			
				<linearGradient id="SVGID_7_" gradientUnits="userSpaceOnUse" x1="5117.9165" y1="183.7494" x2="5117.9165" y2="195.1716" gradientTransform="matrix(-1 0 0 1 5326.585 0)">
				<stop  offset="0" style="stop-color:#FEEC7F"/>
				<stop  offset="0.6058" style="stop-color:#F7BD40"/>
				<stop  offset="1" style="stop-color:#F3A21B"/>
			</linearGradient>
			<path class="st12" d="M201,192.3c-1.7,0-3-1.4-3-3.1c0-1.7,1.4-3.3,3-3.3c3.2,0,3.7,3.5,8.7,4.9c3.2,0.9,9.6,1.4,9.6,1.4H201z"/>
			<linearGradient id="SVGID_8_" gradientUnits="userSpaceOnUse" x1="231.6705" y1="165.9211" x2="231.6705" y2="188.5009">
				<stop  offset="0" style="stop-color:#FEEC7F"/>
				<stop  offset="0.2301" style="stop-color:#FEEA7C"/>
				<stop  offset="0.4238" style="stop-color:#FCE271"/>
				<stop  offset="0.6043" style="stop-color:#FBD560"/>
				<stop  offset="0.7768" style="stop-color:#F8C347"/>
				<stop  offset="0.9421" style="stop-color:#F4AC28"/>
				<stop  offset="1" style="stop-color:#F3A21B"/>
			</linearGradient>
			<path class="st13" d="M242.6,192.3c-4.3,0-8.4-2-11.2-4.9c-7.9-3-9.2-7.7-15.1-7.7c-3.3,0-6,3.2-6,6.5c0,3.3,2.7,6.1,6,6.1h18.1
				c3.8,0,18.6,0,18.6,0s-0.1,0-0.3,0H242.6z"/>
			<linearGradient id="SVGID_9_" gradientUnits="userSpaceOnUse" x1="336.1956" y1="131.0345" x2="336.1956" y2="174.4711">
				<stop  offset="0" style="stop-color:#F9C32E"/>
				<stop  offset="0.5169" style="stop-color:#F19819"/>
				<stop  offset="1" style="stop-color:#E96C04"/>
			</linearGradient>
			<path class="st14" d="M349.4,134.2c-1-0.8-2.1-1.5-3.1-2.1c-1.1-0.6-2.3-1.2-3.7-1.6c-2.6-1-5.3-1.5-7.9-1.8c-0.4,0-0.7,0-1.1,0
				c-4.7,0-9.7,0.2-15.6,2.5c0.6,1.6,1.1,3.3,1.3,5.1c1.8,11-1.7,18.1-3.3,25.9c7.7-6.2,22.5-6.4,30.8-5.9l0.9,0
				c0.9,0,1.7-0.1,2.4-0.3C358.3,153.8,358.7,141.5,349.4,134.2z"/>
			<path class="st15" d="M316.1,162.1c-0.7,3.4-1,7.1-0.4,11.3c2.1,13.6,14.4,17.4,17.8,19h0.1c5.5,0,10.6-2,14.9-5.1
				c-1-0.9-6.4-5.7-8-10.6c-5.1-15.5,6.5-20.1,7.2-20.4C342.2,156.1,323.8,155.9,316.1,162.1z"/>
			<linearGradient id="SVGID_10_" gradientUnits="userSpaceOnUse" x1="334.5893" y1="162.9822" x2="321.8728" y2="181.4936">
				<stop  offset="0" style="stop-color:#E66A09"/>
				<stop  offset="1" style="stop-color:#E66A09"/>
			</linearGradient>
			<path class="st16" d="M315.7,173.3c1.8,11.8,11.7,17.2,17.8,19c-3.5-1.7-12.5-7.2-12.4-16.7c0.3-18.6,19.8-19.3,19.8-19.3h0
				c-8.2,0-18.7,0.9-24.9,5.7C315.3,165.5,315.1,169.1,315.7,173.3z"/>
			
				<linearGradient id="SVGID_11_" gradientUnits="userSpaceOnUse" x1="5088.8701" y1="181.5299" x2="5088.8701" y2="192.5137" gradientTransform="matrix(-1 0 0 1 5326.585 0)">
				<stop  offset="0" style="stop-color:#F7B425"/>
				<stop  offset="6.246364e-02" style="stop-color:#F3A620"/>
				<stop  offset="0.2131" style="stop-color:#EC8816"/>
				<stop  offset="0.3736" style="stop-color:#E6720E"/>
				<stop  offset="0.5466" style="stop-color:#E26208"/>
				<stop  offset="0.7407" style="stop-color:#E05805"/>
				<stop  offset="1" style="stop-color:#DF5504"/>
			</linearGradient>
			<path class="st17" d="M246.3,192.3c-3.5-0.1-12.5-1.2-17.3-8.4c2.6,5.3,7.8,8.4,13.7,8.4H246.3z"/>
			<linearGradient id="SVGID_12_" gradientUnits="userSpaceOnUse" x1="323.9316" y1="122.0178" x2="323.9316" y2="171.3141">
				<stop  offset="0" style="stop-color:#F7B425"/>
				<stop  offset="0.3526" style="stop-color:#EF961A"/>
				<stop  offset="1" style="stop-color:#DF5504"/>
			</linearGradient>
			<path class="st18" d="M314.7,173.3c-2.1-13.8,6.9-21.2,4.3-37.1c-0.3-1.8-1-5.1-1-5.1c0.6,1.6,1.1,3.3,1.3,5.1
				c2.6,15.9-5.7,23.3-3.6,37.1c2.1,13.6,14.6,17.7,17.8,19C333.5,192.3,317,188.4,314.7,173.3z"/>
			<path class="st19" d="M241,192.3h-22.5l-17.6,0c-1.2,0-1.9-0.8-1.9-0.8C200.2,191.7,241,192.3,241,192.3z"/>
			<path class="st20" d="M242.5,192.3h-24.2c-2.8,0-4.2-0.5-4.2-0.5C225.9,192.1,242.5,192.3,242.5,192.3z"/>
			<path class="st20" d="M316.1,162.1c7.7-6.2,23.1-6.4,31.7-5.8c0,0-12-0.3-20.3,1.5C319.2,159.7,316.1,162.1,316.1,162.1z"/>
		</g>
	</g>
</g>
</svg>
