<svg id="Assets" xmlns="http://www.w3.org/2000/svg" xmlns:xlink="http://www.w3.org/1999/xlink" viewBox="0 0 458 588"><defs><style>.cls-1{font-size:76.83px;font-family:FirefoxSharpSans-Medium, Firefox Sharp Sans;letter-spacing:-0.05em;}.cls-1,.cls-9{fill:#fff;}.cls-2{letter-spacing:-0.02em;}.cls-3{letter-spacing:-0.02em;}.cls-4{letter-spacing:0em;}.cls-5{letter-spacing:-0.03em;}.cls-6{letter-spacing:-0.02em;}.cls-7{letter-spacing:-0.02em;}.cls-8{letter-spacing:0em;}.cls-10{fill:url(#linear-gradient);}.cls-11{fill:url(#linear-gradient-2);}.cls-12{fill:none;}.cls-13{fill:url(#linear-gradient-3);}.cls-14{fill:url(#linear-gradient-4);}.cls-15{opacity:0.9;fill:url(#linear-gradient-5);}.cls-16{fill:url(#linear-gradient-6);}</style><linearGradient id="linear-gradient" x1="372.75" y1="161.04" x2="261.67" y2="353.45" gradientTransform="translate(-82 -72)" gradientUnits="userSpaceOnUse"><stop offset="0" stop-color="#ff980e"/><stop offset="0.21" stop-color="#ff7139"/><stop offset="0.36" stop-color="#ff5854"/><stop offset="0.46" stop-color="#ff4f5e"/><stop offset="0.69" stop-color="#ff3750"/><stop offset="0.86" stop-color="#f92261"/><stop offset="1" stop-color="#f5156c"/></linearGradient><linearGradient id="linear-gradient-2" x1="377.41" y1="152.97" x2="263.52" y2="350.24" gradientTransform="translate(-82 -72)" gradientUnits="userSpaceOnUse"><stop offset="0" stop-color="#fff44f" stop-opacity="0.8"/><stop offset="0.13" stop-color="#fff44f" stop-opacity="0.59"/><stop offset="0.25" stop-color="#fff44f" stop-opacity="0.43"/><stop offset="0.34" stop-color="#fff44f" stop-opacity="0.34"/><stop offset="0.4" stop-color="#fff44f" stop-opacity="0.3"/><stop offset="0.42" stop-color="#fff44f" stop-opacity="0.28"/><stop offset="0.63" stop-color="#fff44f" stop-opacity="0.13"/><stop offset="0.8" stop-color="#fff44f" stop-opacity="0.04"/><stop offset="0.9" stop-color="#fff44f" stop-opacity="0"/></linearGradient><linearGradient id="linear-gradient-3" x1="-3461.64" y1="-205.13" x2="-3304.86" y2="-351.12" gradientTransform="translate(3601 507)" gradientUnits="userSpaceOnUse"><stop offset="0" stop-color="#3a8ee6"/><stop offset="0.28" stop-color="#706df6"/><stop offset="0.44" stop-color="#9059ff"/><stop offset="0.64" stop-color="#a34df5"/><stop offset="1" stop-color="#c139e6"/></linearGradient><linearGradient id="linear-gradient-4" x1="436.31" y1="269.7" x2="396.91" y2="309.11" gradientTransform="translate(-82 -72)" gradientUnits="userSpaceOnUse"><stop offset="0" stop-color="#6e008b" stop-opacity="0.5"/><stop offset="0.5" stop-color="#c846cb" stop-opacity="0"/></linearGradient><linearGradient id="linear-gradient-5" x1="239.88" y1="317.01" x2="183.38" y2="279.44" gradientTransform="translate(-82 -72)" gradientUnits="userSpaceOnUse"><stop offset="0.14" stop-color="#6a2bea" stop-opacity="0"/><stop offset="0.34" stop-color="#642de4" stop-opacity="0.03"/><stop offset="0.55" stop-color="#5131d3" stop-opacity="0.12"/><stop offset="0.76" stop-color="#3139b7" stop-opacity="0.27"/><stop offset="0.98" stop-color="#054490" stop-opacity="0.48"/><stop offset="1" stop-color="#00458b" stop-opacity="0.5"/></linearGradient><linearGradient id="linear-gradient-6" x1="374.22" y1="355.27" x2="324.73" y2="389.81" gradientTransform="translate(-82 -72)" gradientUnits="userSpaceOnUse"><stop offset="0" stop-color="#6e008b" stop-opacity="0.5"/><stop offset="0.41" stop-color="#3a8ee6" stop-opacity="0"/></linearGradient></defs><title>FF_Lockwise_</title><text class="cls-1" transform="translate(50.28 532)">L<tspan class="cls-2" x="41.98" y="0">o</tspan><tspan class="cls-3" x="91.02" y="0">c</tspan><tspan class="cls-4" x="138.19" y="0">k</tspan><tspan class="cls-5" x="181.96" y="0">w</tspan><tspan class="cls-6" x="250.35" y="0">i</tspan><tspan class="cls-7" x="266.65" y="0">s</tspan><tspan class="cls-8" x="304.82" y="0">e</tspan></text><path class="cls-9" d="M104.73,392h37.34v10.1H115.45v13.7h26.62v10H115.45v22H104.73Zm50.05-3.9a6.28,6.28,0,0,1-.08,12.55,5.93,5.93,0,0,1-6.2-6.12A6.2,6.2,0,0,1,154.78,388.11Zm-5.28,18.44h10.56v41.32H149.5ZM190.66,418a8.54,8.54,0,0,0-5.12-1.84c-4.29,0-6.74,2.76-6.74,8.8v22.88H168.32V406.55h10v6c2.15-4.67,5.44-6.35,9.87-6.35a12.57,12.57,0,0,1,7,2.14Zm4.36,9.41c0-11.86,8.8-21.73,21.28-21.73s21.19,8.8,21.19,21v4.36H205.35c1.15,5.21,5.21,8.65,11.4,8.65A11.07,11.07,0,0,0,227,433.64l8.8,5.28c-4.36,6.43-10.56,9.79-19.36,9.79C203.06,448.71,195,439.76,195,427.44Zm10.49-4.67h21.73c-1.15-5.28-5.44-8.18-11-8.18A10.61,10.61,0,0,0,205.51,422.77Zm34.58-16.22h7.42v-2.06c0-11.25,4.75-15.92,15.15-15.92h3.68v9.11h-3c-4.89,0-6,1.68-6,6.81v2.06h9V416h-8.73v31.83h-10.1V416h-7.42Zm28.24,20.66a21.15,21.15,0,0,1,21.57-21.5,21.5,21.5,0,1,1,0,43C277.05,448.71,268.33,439.3,268.33,427.21Zm32.9,0a11.34,11.34,0,0,0-11.33-11.7c-6.5,0-11.32,5.12-11.32,11.7s4.82,11.71,11.32,11.71A11.35,11.35,0,0,0,301.23,427.21Zm24.48-.46-14.92-20.2h12.4l8.8,12.7,9-12.7h12.16L338,426.68,354,447.87H341.63l-9.87-13.47-9.57,13.47H309.88Z"/><path class="cls-10" d="M229,336c-13.33,0-25.65-4.39-34.69-12.36l-.05-.05a1092.12,1092.12,0,0,1-92.86-92.85l0-.05c-8-9-12.36-21.36-12.36-34.69s4.39-25.65,12.36-34.69l0-.05a1090.54,1090.54,0,0,1,92.85-92.85l.05,0c9-8,21.36-12.36,34.69-12.36s25.65,4.39,34.69,12.36l.05,0a1090.54,1090.54,0,0,1,92.85,92.85l.05.05c8,9,12.36,21.36,12.36,34.69s-4.39,25.65-12.36,34.69l-.05.05c-5.75,6.46-9.5,10.63-15.26,16.84a14,14,0,0,1-20.56-19.09c5.58-6,9.24-10.08,14.85-16.37,7.16-8.14,7.16-24.09,0-32.23a1064.81,1064.81,0,0,0-90.51-90.51c-8.14-7.16-24.08-7.15-32.22,0a1064.81,1064.81,0,0,0-90.51,90.51c-7.16,8.14-7.16,24.09,0,32.23a1066.16,1066.16,0,0,0,90.51,90.5c8.13,7.15,24,7.16,32.19,0,11.42-10.34,22.49-20.09,33.43-30.63l-35.57-37.35-.1-.09a26.45,26.45,0,0,1,1.89-38.67l.42-.36a28.51,28.51,0,0,0,10.15-23,27.55,27.55,0,0,0-1.44-7.83c-4.36-12.95-15.7-17.56-24.86-17.56s-20.5,4.61-24.86,17.56a27.55,27.55,0,0,0-1.44,7.83,28.5,28.5,0,0,0,10.14,23l.16.14a26.44,26.44,0,0,1,2,38.54l-13.67,14.06a14,14,0,0,1-20.19-19.47l10.73-11a2.47,2.47,0,0,0-.05-3.49,56.32,56.32,0,0,1-17.11-42.83,55.45,55.45,0,0,1,2.89-15.71c7.5-22.26,27.69-36.65,51.44-36.65s43.94,14.39,51.44,36.65a55.45,55.45,0,0,1,2.89,15.71A56.33,56.33,0,0,1,266,214.54a2.46,2.46,0,0,0-.08,3.49l39,40.71a19,19,0,0,1-.1,26.84c-13.18,13.07-27,25.27-40.94,37.93l-.14.13C254.65,331.61,242.33,336,229,336Z"/><path class="cls-11" d="M229,336c-13.33,0-25.65-4.39-34.69-12.36l-.05-.05a1092.12,1092.12,0,0,1-92.86-92.85l0-.05c-8-9-12.36-21.36-12.36-34.69s4.39-25.65,12.36-34.69l0-.05a1090.54,1090.54,0,0,1,92.85-92.85l.05,0c9-8,21.36-12.36,34.69-12.36s25.65,4.39,34.69,12.36l.05,0a1090.54,1090.54,0,0,1,92.85,92.85l.05.05c8,9,12.36,21.36,12.36,34.69s-4.39,25.65-12.36,34.69l-.05.05c-5.75,6.46-9.5,10.63-15.26,16.84a14,14,0,0,1-20.56-19.09c5.58-6,9.24-10.08,14.85-16.37,7.16-8.14,7.16-24.09,0-32.23a1064.81,1064.81,0,0,0-90.51-90.51c-8.14-7.16-24.08-7.15-32.22,0a1064.81,1064.81,0,0,0-90.51,90.51c-7.16,8.14-7.16,24.09,0,32.23a1066.16,1066.16,0,0,0,90.51,90.5c8.13,7.15,24,7.16,32.19,0,11.42-10.34,22.49-20.09,33.43-30.63l-35.57-37.35-.1-.09a26.45,26.45,0,0,1,1.89-38.67l.42-.36a28.51,28.51,0,0,0,10.15-23,27.55,27.55,0,0,0-1.44-7.83c-4.36-12.95-15.7-17.56-24.86-17.56s-20.5,4.61-24.86,17.56a27.55,27.55,0,0,0-1.44,7.83,28.5,28.5,0,0,0,10.14,23l.16.14a26.44,26.44,0,0,1,2,38.54l-13.67,14.06a14,14,0,0,1-20.19-19.47l10.73-11a2.47,2.47,0,0,0-.05-3.49,56.32,56.32,0,0,1-17.11-42.83,55.45,55.45,0,0,1,2.89-15.71c7.5-22.26,27.69-36.65,51.44-36.65s43.94,14.39,51.44,36.65a55.45,55.45,0,0,1,2.89,15.71A56.33,56.33,0,0,1,266,214.54a2.46,2.46,0,0,0-.08,3.49l39,40.71a19,19,0,0,1-.1,26.84c-13.18,13.07-27,25.27-40.94,37.93l-.14.13C254.65,331.61,242.33,336,229,336Z"/><path class="cls-12" d="M123.79,178.31l45.7-48.23C154,145.42,139.1,161.18,123.79,178.31Z"/><path class="cls-13" d="M351.89,196.54c-9.07-9.38-17.83-18.4-16.27-16.65,7.16,8.14,7.16,24.09,0,32.23-5.61,6.29-9.27,10.36-14.85,16.37a14,14,0,0,0,20.56,19.09c4-4.27,7-7.57,10.33-11.32.18-.2.56-.62,1.08-1.22A28.36,28.36,0,0,0,351.89,196.54Zm-73.41,75.51c-10.93,10.53-22,20.27-33.4,30.6-8.15,7.13-24.06,7.12-32.19,0a1066.16,1066.16,0,0,1-90.51-90.5c-7.16-8.14-7.16-24.09,0-32.23l1.41-1.58-17.66,18.52a28.37,28.37,0,0,0-.57,38.53c2.66,3,4.82,5.35,5.72,6.34a1086.36,1086.36,0,0,0,83,81.89l.05.05c9,8,21.36,12.36,34.69,12.36s25.65-4.39,34.69-12.36l.14-.13c6.79-6.15,13.53-12.19,20.19-18.28a18.5,18.5,0,0,0,.92-26.36Z"/><path class="cls-14" d="M351.89,196.54c-9.07-9.38-17.83-18.4-16.27-16.65,7.16,8.14,7.16,24.09,0,32.23-5.61,6.29-9.27,10.36-14.85,16.37a14,14,0,0,0,20.56,19.09c4-4.27,7-7.57,10.33-11.32l1.08-1.22A28.36,28.36,0,0,0,351.89,196.54Z"/><path class="cls-15" d="M155.31,247.6c-11-11.33-21.85-23-32.93-35.48-7.16-8.14-7.16-24.09,0-32.23l1.41-1.58-17.66,18.52a28.37,28.37,0,0,0-.57,38.53c2.66,3,4.82,5.35,5.72,6.34,14.61,16,29,31,44,45.63Z"/><path class="cls-16" d="M284.94,278.87l-6.46-6.82c-10.93,10.53-22,20.27-33.4,30.6-3.63,3.18-8.8,4.93-14.14,5.27v28c12.58-.4,24.15-4.74,32.75-12.32l.14-.13c6.79-6.15,13.53-12.19,20.19-18.28A18.5,18.5,0,0,0,284.94,278.87Z"/></svg>