<?xml version="1.0" encoding="utf-8"?>
<!-- Generator: Adobe Illustrator 17.0.0, SVG Export Plug-In . SVG Version: 6.00 Build 0)  -->
<!DOCTYPE svg PUBLIC "-//W3C//DTD SVG 1.1//EN" "http://www.w3.org/Graphics/SVG/1.1/DTD/svg11.dtd">
<svg version="1.1" id="Layer_1" xmlns="http://www.w3.org/2000/svg" xmlns:xlink="http://www.w3.org/1999/xlink" x="0px" y="0px"
	 width="71.55px" height="94.755px" viewBox="0 0 71.55 94.755" enable-background="new 0 0 71.55 94.755" xml:space="preserve">
<g>
	<path fill="#009345" d="M69.595,50.903V18.581c0-4.745-0.821-8.466-2.44-11.065c0.18-0.417,0.271-0.847,0.271-1.283
		c0-1.822-1.482-3.305-3.305-3.305c-0.649,0-1.275,0.193-1.822,0.561c-2.048-0.872-4.521-1.313-7.357-1.313
		c-4.623,0-8.98,1.697-12.951,5.044c-0.615-0.263-1.217-0.346-1.927-0.19c-0.125-0.148-0.247-0.29-0.37-0.427
		c-2.868-2.937-6.544-4.427-10.925-4.427c-4.259,0-8.127,1.38-11.504,4.102c-0.06-0.212-0.122-0.417-0.184-0.618
		c0.642-0.624,1.006-1.469,1.006-2.356C18.088,1.482,16.605,0,14.783,0c-1.723,0-3.143,1.326-3.288,3.052L5.93,4.57
		C5.341,3.563,4.256,2.929,3.082,2.929c-1.822,0-3.305,1.482-3.305,3.305c0,1.788,1.428,3.249,3.203,3.303
		c0.546,2.293,0.822,5.562,0.822,9.726v31.641c-1.295,0.471-2.177,1.705-2.177,3.095c0,1.822,1.482,3.305,3.304,3.305
		c1.391,0,2.624-0.882,3.095-2.177h6.592c0.471,1.295,1.704,2.177,3.094,2.177c1.822,0,3.305-1.482,3.305-3.305
		c0-1.441-0.954-2.719-2.309-3.148v-29.36c1.354-0.429,2.309-1.707,2.309-3.148c0-0.474-0.108-0.946-0.313-1.384
		c1.855-1.145,3.705-1.725,5.503-1.725c0.48,0,0.901,0.051,1.281,0.157c0.265,0.937,0.93,1.703,1.827,2.105
		c0.181,0.917,0.273,2.348,0.273,4.259v29.129c-1.325,0.456-2.227,1.697-2.227,3.115c0,1.822,1.482,3.305,3.305,3.305
		c1.39,0,2.624-0.882,3.094-2.177h6.217c0.47,1.295,1.704,2.177,3.094,2.177c1.822,0,3.305-1.482,3.305-3.305
		c0-1.39-0.881-2.623-2.175-3.094v-29.66c1.062-0.575,1.736-1.688,1.736-2.903c0-0.269-0.037-0.539-0.112-0.818
		c2.134-1.52,4.12-2.29,5.909-2.29c0.337,0,0.642,0.028,0.927,0.085c0.252,0.971,0.943,1.78,1.867,2.186
		c0.081,0.621,0.164,1.735,0.164,3.688v29.726c-1.275,0.48-2.144,1.708-2.144,3.081c0,1.822,1.482,3.305,3.305,3.305
		c1.39,0,2.624-0.882,3.094-2.177h6.428c0.47,1.295,1.704,2.177,3.094,2.177c1.822,0,3.305-1.482,3.305-3.305
		C71.772,52.608,70.89,51.374,69.595,50.903z M56.815,17.647c1.375-0.418,2.341-1.695,2.341-3.159c0-1.822-1.482-3.305-3.305-3.305
		c-1.275,0-2.434,0.749-2.976,1.893c-0.389-0.068-0.759-0.099-1.144-0.099c-2.25,0-4.666,0.904-7.183,2.688
		c-0.563-0.407-1.234-0.628-1.917-0.628c-1.822,0-3.305,1.482-3.305,3.305c0,1.571,1.104,2.899,2.617,3.218v29.344
		c-0.912,0.332-1.636,1.055-1.968,1.967H33.76c-0.326-0.89-1.03-1.605-1.916-1.946V21.753c0-1.723-0.072-3.072-0.22-4.107
		c1.379-0.416,2.346-1.691,2.346-3.158c0-1.822-1.482-3.305-3.304-3.305c-1.301,0-2.465,0.768-2.997,1.942
		c-0.476-0.099-0.958-0.148-1.463-0.148c-2.373,0-4.776,0.794-7.146,2.36c-0.436-0.2-0.888-0.301-1.348-0.301
		c-1.822,0-3.304,1.482-3.304,3.305c0,1.344,0.811,2.533,2.045,3.041v29.575c-0.857,0.354-1.519,1.045-1.835,1.913H8.025
		c-0.333-0.911-1.055-1.634-1.966-1.966V19.262c0-4.503-0.307-7.92-0.936-10.433c0.636-0.501,1.061-1.22,1.2-2.029l5.783-1.577
		c0.665,0.935,1.775,1.478,2.903,1.376c0.044,0.15,0.087,0.304,0.13,0.462c-1.47,0.35-2.532,1.657-2.532,3.199
		c0,1.822,1.482,3.305,3.305,3.305c1.822,0,3.304-1.482,3.304-3.305c0-0.755-0.252-1.47-0.717-2.052
		c3.028-2.505,6.481-3.775,10.271-3.775c3.804,0,6.842,1.217,9.277,3.709c0.024,0.027,0.049,0.056,0.074,0.085
		c-0.456,0.581-0.704,1.291-0.704,2.033c0,1.822,1.482,3.305,3.305,3.305c1.822,0,3.305-1.482,3.305-3.305
		c0-0.519-0.125-1.03-0.363-1.495c3.496-2.875,7.29-4.332,11.28-4.332c2.307,0,4.321,0.315,5.993,0.937
		c-0.079,0.284-0.118,0.573-0.118,0.864c0,1.822,1.482,3.304,3.305,3.304c0.493,0,0.979-0.113,1.426-0.329
		c1.189,2.205,1.792,5.355,1.792,9.372v32.323c-0.911,0.332-1.634,1.055-1.966,1.966h-6.428c-0.336-0.925-1.072-1.653-1.999-1.98
		V21.191C56.946,19.704,56.903,18.539,56.815,17.647z"/>
</g>
<g>
	<g>
		<g>
			<path fill="#FFFFFF" d="M16.178,94.49h-3.13v-8.117c0-0.624-0.032-1.025-0.096-1.201c-0.129-0.368-0.433-0.552-0.915-0.552
				c-0.658,0-1.372,0.344-2.143,1.033v8.838H6.837v-7.978c0-0.639-0.041-1.07-0.121-1.294c-0.146-0.399-0.477-0.599-0.995-0.599
				c-0.712,0-1.423,0.311-2.134,0.934v8.936h-3.13v-8.595c0-1.557-0.153-2.608-0.457-3.154l2.913-0.794
				c0.176,0.289,0.321,0.706,0.433,1.252c0.867-0.834,1.87-1.252,3.009-1.252c1.011,0,1.845,0.337,2.504,1.011
				c0.128,0.144,0.289,0.345,0.481,0.602c1.059-1.075,2.223-1.613,3.491-1.613c1.236,0,2.119,0.329,2.648,0.987
				c0.465,0.594,0.698,1.525,0.698,2.793V94.49z"/>
		</g>
		<g>
			<path fill="#FFFFFF" d="M29.588,88.279c0,1.878-0.457,3.403-1.372,4.574c-0.995,1.268-2.407,1.902-4.237,1.902
				c-1.782,0-3.17-0.634-4.165-1.902c-0.915-1.156-1.372-2.648-1.372-4.478c0-1.83,0.457-3.33,1.372-4.502
				c0.995-1.3,2.383-1.95,4.165-1.95c1.797,0,3.202,0.626,4.213,1.878C29.122,84.956,29.588,86.449,29.588,88.279z M26.073,88.266
				c0-1.127-0.088-1.972-0.265-2.535c-0.305-0.949-0.899-1.425-1.782-1.425c-0.851,0-1.429,0.491-1.733,1.473
				c-0.177,0.564-0.265,1.408-0.265,2.535c0,1.223,0.08,2.101,0.241,2.632c0.289,0.998,0.891,1.497,1.806,1.497
				C25.407,92.444,26.073,91.052,26.073,88.266z"/>
		</g>
		<g>
			<path fill="#FFFFFF" d="M40.373,92.251l-0.77,2.239h-9.076v-1.998l5.81-7.993h-5.328v-2.263h9.148v2.215l-5.441,7.8H40.373z"/>
		</g>
		<g>
			<path fill="#FFFFFF" d="M45.694,78.769c0,0.562-0.193,1.035-0.578,1.42c-0.385,0.385-0.859,0.578-1.42,0.578
				c-0.546,0-1.011-0.196-1.396-0.59c-0.385-0.393-0.578-0.863-0.578-1.408c0-0.562,0.196-1.035,0.59-1.42
				c0.393-0.385,0.87-0.578,1.432-0.578c0.562,0,1.027,0.193,1.396,0.578C45.509,77.734,45.694,78.208,45.694,78.769z M45.308,94.49
				h-3.226V82.358l3.226-0.507V94.49z"/>
		</g>
		<g>
			<path fill="#FFFFFF" d="M53.349,94.462c-0.578,0.227-1.22,0.341-1.926,0.341c-1.493,0-2.448-0.562-2.865-1.687
				c-0.193-0.514-0.289-1.438-0.289-2.772v-9.209c0-1.446-0.056-2.684-0.169-3.712l3.298-0.747c0.112,0.626,0.169,1.693,0.169,3.202
				v9.606c0,1.236,0,1.838,0,1.806c0.08,0.851,0.369,1.276,0.867,1.276c0.128,0,0.249-0.016,0.361-0.048L53.349,94.462z"/>
		</g>
		<g>
			<path fill="#FFFFFF" d="M59.898,94.462c-0.578,0.227-1.22,0.341-1.926,0.341c-1.493,0-2.448-0.562-2.865-1.687
				c-0.193-0.514-0.289-1.438-0.289-2.772v-9.209c0-1.446-0.056-2.684-0.169-3.712l3.298-0.747c0.112,0.626,0.169,1.693,0.169,3.202
				v9.606c0,1.236,0,1.838,0,1.806c0.08,0.851,0.369,1.276,0.867,1.276c0.128,0,0.249-0.016,0.361-0.048L59.898,94.462z"/>
		</g>
		<g>
			<path fill="#FFFFFF" d="M71.55,93.142l-1.709,1.974c-0.835-0.353-1.413-0.851-1.733-1.493c-0.321,0.305-0.57,0.522-0.746,0.65
				c-0.626,0.449-1.453,0.674-2.48,0.674c-1.316,0-2.335-0.312-3.058-0.936c-0.787-0.656-1.18-1.624-1.18-2.904
				c0-2.816,1.967-4.224,5.901-4.224c0.256,0,0.495,0,0.72,0v-0.5c0-0.651-0.08-1.096-0.24-1.334
				c-0.192-0.317-0.592-0.477-1.199-0.477c-0.992,0-2.175,0.457-3.55,1.372l-1.367-2.311c0.578-0.369,1.244-0.706,1.998-1.011
				c1.188-0.482,2.311-0.722,3.37-0.722c2.151,0,3.475,0.714,3.972,2.143c0.16,0.466,0.232,1.204,0.217,2.215l-0.072,4.358
				c0,0.642,0.064,1.124,0.193,1.445C70.747,92.428,71.068,92.789,71.55,93.142z M67.192,89.097H67.05
				c-0.965,0-1.636,0.08-2.015,0.241c-0.632,0.273-0.948,0.819-0.948,1.637c0,0.45,0.124,0.831,0.373,1.144
				c0.249,0.313,0.598,0.469,1.047,0.469c0.61,0,1.171-0.281,1.685-0.843V89.097z"/>
		</g>
	</g>
</g>
<g>
	<path fill="#FFFFFF" d="M6.42,71.551c0-0.836-0.38-1.121-2.355-1.634c-1.805-0.456-2.926-1.368-2.926-3.002
		c0-1.69,1.539-2.963,4.027-2.963c1.463,0,2.698,0.475,3.515,1.063l-1.026,1.52c-0.722-0.494-1.52-0.778-2.451-0.778
		c-0.988,0-1.596,0.398-1.596,1.007c0,0.684,0.456,0.949,2.242,1.462c1.843,0.514,3.135,1.235,3.135,3.135
		c0,2.128-1.995,3.211-4.274,3.211c-1.748,0-3.097-0.589-4.046-1.425l1.253-1.387c0.779,0.607,1.691,1.007,2.717,1.007
		C5.737,72.766,6.42,72.291,6.42,71.551z"/>
	<path fill="#FFFFFF" d="M12.425,70.011c0.19,1.899,1.121,2.717,2.469,2.717c0.855,0,1.577-0.247,2.432-0.931l1.045,1.463
		c-0.95,0.778-2.166,1.311-3.628,1.311c-3.229,0-4.844-2.185-4.844-5.301c0-3.001,1.615-5.318,4.521-5.318
		c2.754,0,4.369,1.899,4.369,5.071c0,0.323-0.038,0.723-0.057,0.988H12.425z M12.406,68.434h3.97
		c-0.019-1.729-0.551-2.754-1.938-2.754C13.279,65.68,12.538,66.535,12.406,68.434z"/>
	<path fill="#FFFFFF" d="M26.768,71.816l1.121,1.596c-0.95,0.76-2.014,1.159-3.21,1.159c-3.134,0-4.806-2.109-4.806-5.263
		c0-3.077,1.71-5.356,4.768-5.356c1.235,0,2.299,0.36,3.249,1.178l-1.102,1.481c-0.741-0.57-1.349-0.741-2.033-0.741
		c-1.444,0-2.299,1.026-2.299,3.438c0,2.432,0.874,3.287,2.28,3.287C25.42,72.595,26.009,72.386,26.768,71.816z"/>
	<path fill="#FFFFFF" d="M31.538,64.236v6.973c0,0.778,0.152,1.481,1.102,1.481c0.931,0,1.558-0.513,2.089-1.254v-7.2h2.432v10.05
		h-2.108l-0.133-1.254c-0.741,1.007-1.861,1.539-3.04,1.539c-1.938,0-2.773-1.178-2.773-3.059v-7.276H31.538z"/>
	<path fill="#FFFFFF" d="M39.652,74.286v-10.05h2.147l0.228,1.9c0.514-1.368,1.425-2.166,2.584-2.166
		c0.361,0,0.684,0.038,1.007,0.133l-0.418,2.355c-0.304-0.075-0.551-0.113-0.893-0.113c-1.235,0-1.9,1.14-2.223,2.488v5.452H39.652z
		"/>
	<path fill="#FFFFFF" d="M47.764,62.128c-0.912,0-1.539-0.646-1.539-1.481c0-0.817,0.627-1.463,1.539-1.463
		c0.893,0,1.538,0.646,1.538,1.463C49.303,61.482,48.657,62.128,47.764,62.128z M46.549,74.286v-10.05h2.432v10.05H46.549z"/>
	<path fill="#FFFFFF" d="M57.187,67.181c0-1.007-0.38-1.406-1.235-1.406c-0.836,0-1.52,0.646-2.07,1.406v7.104H51.45v-10.05h2.108
		l0.171,1.254c0.855-1.007,1.977-1.538,3.154-1.538c1.861,0,2.735,1.102,2.735,2.982v7.352h-2.432V67.181z"/>
	<path fill="#FFFFFF" d="M63.078,75.274c0,1.12,0.816,1.443,2.432,1.443c2.051,0,2.545-0.607,2.545-1.311s-0.36-1.216-1.767-1.216
		h-1.425c-1.899,0-2.906-0.798-2.906-1.976c0-0.685,0.398-1.35,1.063-1.805c-1.045-0.608-1.634-1.482-1.634-2.926
		c0-2.299,1.938-3.533,4.16-3.533c2.166,0,3.553-0.514,4.692-1.121l0.646,1.938c-0.798,0.285-1.786,0.342-2.869,0.342v0.076
		c1.045,0.456,1.691,1.292,1.691,2.508c0,1.938-1.521,3.381-4.027,3.381c-0.438,0-0.874-0.057-1.292-0.151
		c-0.171,0.171-0.304,0.456-0.304,0.722c0,0.532,0.304,0.722,1.52,0.722h0.987c2.489,0,3.914,1.103,3.914,2.888
		c0,2.108-2.014,3.173-5.034,3.173c-3.363,0-4.579-1.14-4.579-3.116v-0.037H63.078z M65.604,69.479c1.14,0,1.747-0.74,1.747-1.956
		c0-1.235-0.569-1.9-1.747-1.9c-1.14,0-1.786,0.779-1.786,1.919C63.818,68.719,64.483,69.479,65.604,69.479z"/>
</g>
</svg>
