<svg id="Assets" xmlns="http://www.w3.org/2000/svg" viewBox="0 0 254 192">
  <defs>
    <radialGradient id="b" cx="-8081.187" cy="-8621.787" r="80.797" gradientTransform="matrix(1.5 0 0 1.5 12290.454 12946)" gradientUnits="userSpaceOnUse">
      <stop offset=".108" stop-color="#3fe1b0"/>
      <stop offset=".122" stop-color="#3bdcb3"/>
      <stop offset=".254" stop-color="#1bb3d3"/>
      <stop offset=".358" stop-color="#0799e6"/>
      <stop offset=".42" stop-color="#0090ed"/>
      <stop offset=".487" stop-color="#2482f1"/>
      <stop offset=".64" stop-color="#7165fb"/>
      <stop offset=".71" stop-color="#9059ff"/>
      <stop offset=".795" stop-color="#7d49ed"/>
      <stop offset=".86" stop-color="#7542e5"/>
    </radialGradient>
    <radialGradient id="c" cx="-8110.711" cy="-8588.756" r="80.797" gradientTransform="matrix(1.5 0 0 1.5 12290.454 12946)" gradientUnits="userSpaceOnUse">
      <stop offset=".3" stop-color="#45278d"/>
      <stop offset=".341" stop-color="#562896" stop-opacity=".787"/>
      <stop offset=".43" stop-color="#782aa9" stop-opacity=".364"/>
      <stop offset=".495" stop-color="#8d2bb5" stop-opacity=".1"/>
      <stop offset=".53" stop-color="#952bb9" stop-opacity="0"/>
    </radialGradient>
    <radialGradient id="d" cx="-8100.97" cy="-8640.124" r="58.534" gradientTransform="matrix(1.5 0 0 1.5 12290.454 12946)" gradientUnits="userSpaceOnUse">
      <stop offset=".132" stop-color="#3fe1b0"/>
      <stop offset=".289" stop-color="#28d0c8"/>
      <stop offset=".526" stop-color="#00b3f4"/>
    </radialGradient>
    <radialGradient id="e" cx="-8119.648" cy="-8567.651" r="38.471" gradientTransform="matrix(1.5 0 0 1.5 12290.454 12946)" gradientUnits="userSpaceOnUse">
      <stop offset=".287" stop-color="#0060df"/>
      <stop offset=".417" stop-color="#2357e1"/>
      <stop offset=".604" stop-color="#4f4ce3"/>
      <stop offset=".748" stop-color="#6b45e4"/>
      <stop offset=".833" stop-color="#7542e5"/>
    </radialGradient>
    <radialGradient id="f" cx="-8109.62" cy="-8598.212" r="20.397" gradientTransform="matrix(1.458 -.353 .413 1.708 15501.646 11871.479)" gradientUnits="userSpaceOnUse">
      <stop offset=".206" stop-color="#45278d" stop-opacity="0"/>
      <stop offset=".251" stop-color="#44268a" stop-opacity=".055"/>
      <stop offset=".725" stop-color="#371f6f" stop-opacity=".591"/>
      <stop offset=".956" stop-color="#321c64" stop-opacity=".8"/>
    </radialGradient>
    <radialGradient id="g" cx="-8111.731" cy="-8625.094" r="27.676" gradientTransform="matrix(1.5 0 0 1.5 12290.454 12946)" gradientUnits="userSpaceOnUse">
      <stop offset="0" stop-color="#0df"/>
      <stop offset=".235" stop-color="#00d6fd"/>
      <stop offset=".572" stop-color="#00c3f8"/>
      <stop offset=".792" stop-color="#00b3f4"/>
    </radialGradient>
    <radialGradient id="h" cx="-8089.977" cy="-8642.648" r="118.081" gradientTransform="matrix(1.5 0 0 1.5 12290.454 12946)" gradientUnits="userSpaceOnUse">
      <stop offset=".126" stop-color="#3fe1b0"/>
      <stop offset=".429" stop-color="#0df"/>
      <stop offset=".479" stop-color="#1ec1ff"/>
      <stop offset=".624" stop-color="#7077ff"/>
      <stop offset=".69" stop-color="#9059ff"/>
      <stop offset=".904" stop-color="#b833e1"/>
    </radialGradient>
    <radialGradient id="i" cx="-8101.165" cy="-8629.526" r="86.499" gradientTransform="matrix(.157 1.492 -.979 .103 -7036.066 12975.842)" gradientUnits="userSpaceOnUse">
      <stop offset="0" stop-color="#54ffbd"/>
      <stop offset=".095" stop-color="#4cf3b8"/>
      <stop offset=".197" stop-color="#3fe1b0"/>
      <stop offset=".257" stop-color="#33d8bd"/>
      <stop offset=".369" stop-color="#12c0e1"/>
      <stop offset=".423" stop-color="#00b3f4"/>
      <stop offset=".737" stop-color="#0060df"/>
    </radialGradient>
    <radialGradient id="j" cx="-8112.383" cy="-8614.843" r="73.72" gradientTransform="matrix(1.5 0 0 1.5 12290.454 12946)" gradientUnits="userSpaceOnUse">
      <stop offset=".137" stop-color="#3fe1b0"/>
      <stop offset=".435" stop-color="#0df"/>
      <stop offset=".484" stop-color="#1ec1ff"/>
      <stop offset=".622" stop-color="#7077ff"/>
      <stop offset=".685" stop-color="#9059ff"/>
    </radialGradient>
    <radialGradient id="k" cx="-8092.923" cy="-8610.528" r="80.686" gradientTransform="matrix(1.5 0 0 1.5 12290.454 12946)" gradientUnits="userSpaceOnUse">
      <stop offset=".094" stop-color="#54ffbd"/>
      <stop offset=".242" stop-color="#41f7cc"/>
      <stop offset=".543" stop-color="#0fe3f3"/>
      <stop offset=".626" stop-color="#0df"/>
    </radialGradient>
    <linearGradient id="a" x1="179.204" y1="30.815" x2="78.614" y2="94.179" gradientUnits="userSpaceOnUse">
      <stop offset="0" stop-color="#3fe1b0"/>
      <stop offset=".406" stop-color="#00b3f4"/>
      <stop offset=".421" stop-color="#03b0f4"/>
      <stop offset=".818" stop-color="#5561e9"/>
      <stop offset="1" stop-color="#7542e5"/>
    </linearGradient>
    <linearGradient id="l" x1="172.019" y1="18.091" x2="89.901" y2="100.209" gradientUnits="userSpaceOnUse">
      <stop offset=".167" stop-color="#54ffbd" stop-opacity=".8"/>
      <stop offset=".236" stop-color="#43f8ca" stop-opacity=".639"/>
      <stop offset=".361" stop-color="#27ede1" stop-opacity=".368"/>
      <stop offset=".466" stop-color="#12e4f1" stop-opacity=".169"/>
      <stop offset=".545" stop-color="#05dffb" stop-opacity=".046"/>
      <stop offset=".589" stop-color="#0df" stop-opacity="0"/>
    </linearGradient>
    <linearGradient id="m" x1="-14.262" y1="182" x2="81.41" y2="182" gradientUnits="userSpaceOnUse">
      <stop offset=".002" stop-color="#005e5e"/>
      <stop offset=".478" stop-color="#0250bb"/>
      <stop offset=".735" stop-color="#253ba3"/>
      <stop offset="1" stop-color="#45278d"/>
    </linearGradient>
  </defs>
  <path id="shape-base" d="M180.874 40.247c-2.527-6.079-7.644-12.641-11.663-14.715a60.307 60.307 0 0 1 5.889 17.646c0 0.009 0 0.033 0.012 0.1-6.574-16.386-17.721-22.994-26.824-37.382a71.37 71.37 0 0 1-1.369-2.226 18.564 18.564 0 0 1-0.64-1.2 10.582 10.582 0 0 1-0.867-2.3 0.152 0.152 0 0 0-0.132-0.156 0.2 0.2 0 0 0-0.11 0c-0.008 0-0.02 0.012-0.029 0.016l-0.042 0.023 0.024-0.033c-14.6 8.554-19.558 24.378-20.013 32.295a29.084 29.084 0 0 0-16 6.166 17.51 17.51 0 0 0-1.506-1.137 26.939 26.939 0 0 1-0.163-14.209 43.074 43.074 0 0 0-13.996 10.809h-0.027c-2.305-2.919-2.142-12.55-2.01-14.56a10.4 10.4 0 0 0-1.941 1.029 42.342 42.342 0 0 0-5.682 4.868 50.907 50.907 0 0 0-5.429 6.511v0.009-0.009a49.067 49.067 0 0 0-7.8 17.614c-0.028 0.126-0.052 0.257-0.079 0.384-0.109 0.512-0.5 3.073-0.572 3.63 0 0.043-0.008 0.084-0.013 0.127a55.33 55.33 0 0 0-0.942 8.021c0 0.1-0.006 0.2-0.006 0.3A58.137 58.137 0 0 0 184.38 71.7c0.1-0.744 0.178-1.492 0.265-2.242a59.784 59.784 0 0 0-3.771-29.211zm-67 45.506c0.272 0.13 0.527 0.272 0.806 0.4l0.04 0.025a29.325 29.325 0 0 1-0.851-0.425zm13.312-35.063zm47.928-7.4l-0.007-0.057 0.01 0.063z" fill="url(#a)"/>
  <path id="body-outer-ring" d="M180.874 40.247c-2.527-6.079-7.644-12.641-11.663-14.715a60.307 60.307 0 0 1 5.889 17.646c0-0.014 0 0.011 0.009 0.054l0.01 0.063c5.485 14.872 2.5 30-1.81 39.236-6.661 14.3-22.79 28.952-48.035 28.238C98 110 73.967 89.755 69.481 63.244c-0.817-4.18 0-6.3 0.411-9.7a43.268 43.268 0 0 0-0.942 8.021c0 0.1-0.006 0.2-0.006 0.3A58.137 58.137 0 0 0 184.38 71.7c0.1-0.744 0.178-1.492 0.265-2.242a59.784 59.784 0 0 0-3.771-29.211z" fill="url(#b)"/>
  <path id="body-outer-ring-shadow" d="M180.874 40.247c-2.527-6.079-7.644-12.641-11.663-14.715a60.307 60.307 0 0 1 5.889 17.646c0-0.014 0 0.011 0.009 0.054l0.01 0.063c5.485 14.872 2.5 30-1.81 39.236-6.661 14.3-22.79 28.952-48.035 28.238C98 110 73.967 89.755 69.481 63.244c-0.817-4.18 0-6.3 0.411-9.7a43.268 43.268 0 0 0-0.942 8.021c0 0.1-0.006 0.2-0.006 0.3A58.137 58.137 0 0 0 184.38 71.7c0.1-0.744 0.178-1.492 0.265-2.242a59.784 59.784 0 0 0-3.771-29.211z" fill="url(#c)"/>
  <path id="tail-tip" d="M152.623 47.08c0.126 0.089 0.242 0.178 0.361 0.267a31.612 31.612 0 0 0-5.4-7.044c-18.068-18.071-4.736-39.184-2.484-40.256l0.024-0.033c-14.6 8.554-19.558 24.378-20.013 32.295 0.677-0.047 1.352-0.1 2.042-0.1a29.34 29.34 0 0 1 25.47 14.871z" fill="url(#d)"/>
  <path id="globe-base" d="M127.187 50.689c-0.095 1.446-5.2 6.434-6.991 6.434-16.532 0-19.215 10-19.215 10 0.732 8.422 6.594 15.357 13.694 19.027a23.042 23.042 0 0 0 0.98 0.468 33.52 33.52 0 0 0 1.707 0.7 25.793 25.793 0 0 0 7.565 1.459c28.975 1.36 34.588-34.643 13.678-45.1 5.355-0.932 10.914 1.222 14.018 3.4a29.34 29.34 0 0 0-25.473-14.872c-0.69 0-1.365 0.057-2.042 0.1a29.084 29.084 0 0 0-16 6.166c0.886 0.751 1.887 1.753 3.995 3.829 3.944 3.891 14.062 7.917 14.084 8.389z" fill="url(#e)"/>
  <path id="globe-shadow" d="M127.187 50.689c-0.095 1.446-5.2 6.434-6.991 6.434-16.532 0-19.215 10-19.215 10 0.732 8.422 6.594 15.357 13.694 19.027a23.042 23.042 0 0 0 0.98 0.468 33.52 33.52 0 0 0 1.707 0.7 25.793 25.793 0 0 0 7.565 1.459c28.975 1.36 34.588-34.643 13.678-45.1 5.355-0.932 10.914 1.222 14.018 3.4a29.34 29.34 0 0 0-25.473-14.872c-0.69 0-1.365 0.057-2.042 0.1a29.084 29.084 0 0 0-16 6.166c0.886 0.751 1.887 1.753 3.995 3.829 3.944 3.891 14.062 7.917 14.084 8.389z" fill="url(#f)"/>
  <path id="ear" d="M106.4 36.541a42.853 42.853 0 0 1 1.2 0.8 26.939 26.939 0 0 1-0.163-14.209 43.074 43.074 0 0 0-13.992 10.812c0.279-0.007 8.712-0.159 12.955 2.597z" fill="url(#g)"/>
  <path id="body" d="M69.481 63.244C73.967 89.755 98 110 125.272 110.769c25.245 0.714 41.374-13.941 48.035-28.238 4.306-9.241 7.3-24.364 1.81-39.236v-0.006l-0.007-0.057c-0.006-0.043-0.01-0.068-0.009-0.054s0 0.033 0.012 0.1c2.061 13.467-4.788 26.513-15.5 35.333l-0.032 0.076c-20.862 16.99-40.826 10.251-44.868 7.492a33.295 33.295 0 0 1-0.846-0.422c-12.164-5.813-17.188-16.9-16.111-26.4a14.933 14.933 0 0 1-13.773-8.663s9.222-6.576 21.374-0.857a28.947 28.947 0 0 0 21.828 0.857c-0.022-0.472-10.14-4.5-14.084-8.385-2.108-2.076-3.109-3.078-3.995-3.829a17.51 17.51 0 0 0-1.506-1.137c-0.345-0.235-0.734-0.491-1.2-0.8-4.24-2.756-12.673-2.6-12.952-2.6h-0.027c-2.305-2.919-2.142-12.55-2.01-14.56a10.4 10.4 0 0 0-1.941 1.029 42.342 42.342 0 0 0-5.682 4.868 50.907 50.907 0 0 0-5.429 6.511V31.8v-0.009a49.067 49.067 0 0 0-7.8 17.614c-0.031 0.127-2.096 9.156-1.078 13.839z" fill="url(#h)"/>
  <path id="tail-flame" d="M147.587 40.3a31.612 31.612 0 0 1 5.4 7.044 11.407 11.407 0 0 1 0.873 0.714c13.179 12.145 6.274 29.323 5.758 30.546 10.707-8.82 17.556-21.866 15.5-35.333-6.574-16.386-17.721-22.994-26.824-37.382a71.37 71.37 0 0 1-1.369-2.226 18.564 18.564 0 0 1-0.64-1.2 10.582 10.582 0 0 1-0.867-2.3 0.152 0.152 0 0 0-0.132-0.156 0.2 0.2 0 0 0-0.11 0c-0.008 0-0.02 0.012-0.029 0.016l-0.042 0.023c-2.257 1.073-15.589 22.186 2.482 40.254z" fill="url(#i)"/>
  <path id="tail-small" d="M153.857 48.061a11.407 11.407 0 0 0-0.873-0.714c-0.119-0.089-0.235-0.178-0.361-0.267-3.1-2.181-8.663-4.335-14.018-3.4 20.91 10.455 15.3 46.458-13.678 45.1a25.793 25.793 0 0 1-7.565-1.459 30.218 30.218 0 0 1-1.707-0.7c-0.328-0.15-0.656-0.3-0.98-0.468l0.04 0.025c4.042 2.759 24.006 9.5 44.868-7.492l0.032-0.076c0.516-1.226 7.421-18.404-5.758-30.549z" fill="url(#j)"/>
  <path id="cheek-tufts" d="M100.981 67.123s2.683-10 19.215-10c1.787 0 6.9-4.988 6.991-6.434a28.947 28.947 0 0 1-21.828-0.857c-12.152-5.719-21.374 0.857-21.374 0.857a14.933 14.933 0 0 0 13.773 8.663c-1.077 9.505 3.947 20.588 16.111 26.4 0.272 0.13 0.527 0.272 0.806 0.4-7.1-3.672-12.962-10.607-13.694-19.029z" fill="url(#k)"/>
  <path id="overlay-green" d="M180.874 40.247c-2.527-6.079-7.644-12.641-11.663-14.715a60.307 60.307 0 0 1 5.889 17.646c0 0.009 0 0.033 0.012 0.1-6.574-16.386-17.721-22.994-26.824-37.382a71.37 71.37 0 0 1-1.369-2.226 18.564 18.564 0 0 1-0.64-1.2 10.582 10.582 0 0 1-0.867-2.3 0.152 0.152 0 0 0-0.132-0.156 0.2 0.2 0 0 0-0.11 0c-0.008 0-0.02 0.012-0.029 0.016l-0.042 0.023 0.024-0.033c-14.6 8.554-19.558 24.378-20.013 32.295 0.677-0.047 1.352-0.1 2.042-0.1a29.34 29.34 0 0 1 25.471 14.865c-3.1-2.181-8.663-4.335-14.018-3.4 20.91 10.455 15.3 46.458-13.678 45.1a25.793 25.793 0 0 1-7.565-1.459 30.218 30.218 0 0 1-1.707-0.7c-0.328-0.15-0.656-0.3-0.98-0.468l0.04 0.025a33.295 33.295 0 0 1-0.846-0.422c0.272 0.13 0.527 0.272 0.806 0.4-7.1-3.67-12.962-10.605-13.694-19.027 0 0 2.683-10 19.215-10 1.787 0 6.9-4.988 6.991-6.434-0.022-0.472-10.14-4.5-14.084-8.385-2.108-2.076-3.109-3.078-3.995-3.829a17.51 17.51 0 0 0-1.506-1.137 26.939 26.939 0 0 1-0.163-14.209 43.074 43.074 0 0 0-13.994 10.809h-0.027c-2.305-2.919-2.142-12.55-2.01-14.56a10.4 10.4 0 0 0-1.941 1.029 42.342 42.342 0 0 0-5.682 4.868 50.907 50.907 0 0 0-5.429 6.511v0.009-0.009a49.067 49.067 0 0 0-7.8 17.614c-0.028 0.126-0.052 0.257-0.079 0.384-0.109 0.512-0.6 3.109-0.67 3.666a67.673 67.673 0 0 0-0.857 8.112c0 0.1-0.006 0.2-0.006 0.3A58.137 58.137 0 0 0 184.38 71.7c0.1-0.744 0.178-1.492 0.265-2.242a59.784 59.784 0 0 0-3.771-29.211zm-5.767 2.985l0.01 0.063v-0.006z" fill="url(#l)"/>
  <path d="M1.6 144.59h16.089v4.349H6.217v5.9h11.472v4.315H6.217v9.488H1.6zm21.559-1.68a2.7 2.7 0 0 1-0.033 5.4 2.552 2.552 0 0 1-2.67-2.636 2.668 2.668 0 0 1 2.705-2.764zm-2.275 7.939h4.549v17.789h-4.547zm17.735 4.941A3.681 3.681 0 0 0 36.41 155c-1.846 0-2.9 1.186-2.9 3.788v9.85H29v-17.789h4.318v2.57a4.242 4.242 0 0 1 4.253-2.735 5.4 5.4 0 0 1 3.033 0.923zm1.879 4.052a9.1 9.1 0 0 1 9.164-9.355 8.757 8.757 0 0 1 9.131 9.059v1.877H44.95a4.659 4.659 0 0 0 4.911 3.723 4.772 4.772 0 0 0 4.418-2.636l3.79 2.273a9.35 9.35 0 0 1-8.34 4.217c-5.768 0-9.229-3.854-9.229-9.158zm4.516-2.009h9.361a4.484 4.484 0 0 0-4.746-3.525 4.572 4.572 0 0 0-4.613 3.525zm14.9-6.984h3.2v-0.889c0-4.843 2.044-6.852 6.527-6.852h1.582v3.92h-1.287c-2.109 0-2.571 0.725-2.571 2.932v0.889h3.857v4.085h-3.758v13.7h-4.351v-13.7h-3.2zm12.164 8.894a9.11 9.11 0 0 1 9.3-9.256 9.257 9.257 0 1 1 0 18.513 8.976 8.976 0 0 1-9.299-9.257zm14.174 0a4.881 4.881 0 1 0-4.878 5.04 4.883 4.883 0 0 0 4.879-5.04zm10.549-0.2l-6.428-8.7h5.34l3.791 5.468 3.89-5.468h5.241l-6.527 8.664 6.857 9.125h-5.308l-4.252-5.8-4.12 5.8h-5.307zm38.592-3.327a5.53 5.53 0 0 0 3.225-5.191c0-3.876-2.992-6.373-7.514-6.373h-10.373v23.982h10.706c4.587 0 7.679-2.562 7.679-6.767a5.76 5.76 0 0 0-3.723-5.651zm-11.9-9.067h7.58c2.959 0 4.787 1.577 4.787 3.876s-1.595 4.008-4.554 4.008h-7.813zM131.4 166.1h-7.912v-8.541h7.78c3.324 0 5.053 1.741 5.053 4.271 0.003 2.5-1.921 4.27-4.921 4.27zm13.633-11.859v-3.351h-2.627v17.74h2.694v-9.72c0-3.91 1.729-5.618 4.721-5.618a3.971 3.971 0 0 1 2.194 0.559l1.13-2.562a5.908 5.908 0 0 0-2.991-0.658 4.966 4.966 0 0 0-5.118 3.614zm17.554-3.712a9.232 9.232 0 1 0 9.342 9.231 9.162 9.162 0 0 0-9.339-9.227zm0 15.9a6.687 6.687 0 0 1 0-13.371 6.686 6.686 0 0 1 0 13.371zm31.22-1.577l-5.353-13.962h-2.526l-5.486 14.06-4.521-14.06h-2.859l5.885 17.74h2.659l5.518-14.06 5.519 14.06h2.461l6.217-17.74H198.5zm17.123-6.472c-2.793-0.558-4.953-0.92-4.953-2.759 0-1.643 1.13-2.825 3.89-2.825a5.816 5.816 0 0 1 4.92 2.365l2.261-1.511a8.72 8.72 0 0 0-7.181-3.154c-4.256-0.033-6.683 2.4-6.683 5.158 0 3.547 3.292 4.369 6.384 4.96 2.626 0.526 5.086 0.92 5.086 2.891 0 1.774-1.463 3.088-4.256 3.088a6.655 6.655 0 0 1-5.784-2.891l-2.361 1.577c1.6 2.267 4.156 3.712 8.079 3.712 4.688 0.033 7.081-2.726 7.081-5.519 0.003-3.642-3.388-4.496-6.48-5.088zm18.088-7.851a9.153 9.153 0 0 0-9.375 9.3c0 5.19 3.723 9.165 9.474 9.165a9.248 9.248 0 0 0 8.345-4.5l-2.327-1.346a6.948 6.948 0 0 1-12.833-2.365h15.858v-1.216a8.8 8.8 0 0 0-9.139-9.034zm-6.649 7.884a6.645 6.645 0 0 1 6.649-5.486 6.024 6.024 0 0 1 6.349 5.486zm26.8-7.786a4.966 4.966 0 0 0-5.12 3.614v-3.351h-2.627v17.74h2.693v-9.72c0-3.91 1.728-5.618 4.721-5.618a3.971 3.971 0 0 1 2.194 0.559l1.13-2.562a5.908 5.908 0 0 0-2.99-0.658z" fill="#20123a"/>
  <path d="M9.48 184.112l-5.27-7.952H1.724v11.68H3.98v-8.208l5.434 8.208h2.3v-11.68H9.48zm4.888 3.728h2.355v-11.68h-2.355zm10.506-4.54h3.82a3.282 3.282 0 0 1-3.425 2.528 3.759 3.759 0 0 1-3.92-3.828 3.815 3.815 0 0 1 3.887-3.856 3.662 3.662 0 0 1 3.178 1.616l1.959-1.328A6.21 6.21 0 0 0 25.236 176a6 6 0 1 0 0.066 12 5.715 5.715 0 0 0 5.9-5.84v-0.976h-6.328zm15.726-2.436h-4.861v-4.7H33.4v11.68h2.338v-4.768H40.6v4.768h2.322V176.16H40.6zm4.527-2.624h3.343v9.6h2.289v-9.6h3.309v-2.08h-8.944zm13.484-2.08H56.27v11.68h7.887v-2.192h-5.549zm12.58 0l-2.717 4.64-2.718-4.64H63.2l4.084 6.752v4.928h2.338v-4.88l4.1-6.8z" fill="url(#m)"/>
</svg>
