<?xml version="1.0" encoding="utf-8"?>
<!-- Generator: Adobe Illustrator 20.1.0, SVG Export Plug-In . SVG Version: 6.00 Build 0)  -->
<!DOCTYPE svg PUBLIC "-//W3C//DTD SVG 1.1//EN" "http://www.w3.org/Graphics/SVG/1.1/DTD/svg11.dtd">
<svg version="1.1" id="Artwork" xmlns="http://www.w3.org/2000/svg" xmlns:xlink="http://www.w3.org/1999/xlink" x="0px" y="0px"
	 viewBox="0 0 419.5 297.6" style="enable-background:new 0 0 419.5 297.6;" xml:space="preserve">
<style type="text/css">
	.st0{fill:#FFFFFF;}
	.st1{clip-path:url(#SVGID_2_);}
	.st2{fill:#D01843;}
	.st3{fill:#4483C1;}
	.st4{fill:#44B798;}
	.st5{fill:#1AAFE5;}
	.st6{fill:#AC5FA2;}
	.st7{fill:#7EC04D;}
	.st8{fill:#F49C29;}
	.st9{clip-path:url(#SVGID_4_);fill:#11A189;}
	.st10{clip-path:url(#SVGID_4_);}
	.st11{fill:#56BBA0;}
	.st12{fill:#171717;}
	.st13{clip-path:url(#SVGID_6_);fill:#F0831E;}
	.st14{clip-path:url(#SVGID_6_);}
	.st15{fill:#F5A75E;}
	.st16{fill:#2F2F30;}
	.st17{clip-path:url(#SVGID_8_);fill:#AF4993;}
	.st18{clip-path:url(#SVGID_8_);}
	.st19{fill:#BE70AB;}
	.st20{fill:#010100;}
	.st21{fill:#E0C8DE;}
	.st22{fill:#AF4993;}
	.st23{fill:none;}
	.st24{font-family:'FiraSans-Regular';}
	.st25{font-size:9px;}
	.st26{fill:#5869A2;}
	.st27{font-family:'FiraSans-Bold';}
	.st28{fill:#11A189;}
	.st29{fill:#F0831E;}
	.st30{fill:#328F3A;}
	.st31{fill:#0F4B6E;}
	.st32{fill:#E72E20;}
	.st33{fill:#2A2F33;}
	.st34{clip-path:url(#SVGID_10_);}
</style>
<rect x="-8.2" y="-8.5" class="st0" width="435.4" height="314.6"/>
<g id="pattern_overlay_2_">
	<defs>
		<polygon id="SVGID_1_" points="-8.2,306 428,306 428,-8.5 -8.2,-8.5 -8.2,297.9 -8.2,297.9 		"/>
	</defs>
	<clipPath id="SVGID_2_">
		<use xlink:href="#SVGID_1_"  style="overflow:visible;"/>
	</clipPath>
	<g class="st1">
		<g>
			<g>
				<path class="st2" d="M402.4,34.9c-2.8-7.4-0.8-15.7-1.4-23.4c-0.1-1.6-2.6-1.2-2.5,0.4c0.7,8-1.3,16.3,1.6,24
					C400.7,37.5,403,36.5,402.4,34.9L402.4,34.9z"/>
			</g>
			<g>
				<path class="st3" d="M397.8,96.2c5.2-2.9,10.3-5.9,15.3-9.3c1.3-0.9,0.1-3.1-1.3-2.2c-4.9,3.3-10.1,6.4-15.3,9.3
					C395.1,94.8,396.4,97,397.8,96.2L397.8,96.2z"/>
			</g>
			<g>
				<path class="st4" d="M406.9,17.3c3,2.8,4.1,7,7.3,9.6c1.2,1,3-0.7,1.8-1.8c-3.1-2.6-4.2-6.9-7.3-9.6
					C407.5,14.5,405.7,16.2,406.9,17.3L406.9,17.3z"/>
			</g>
			<g>
				<path class="st2" d="M401.8,101.3c7.3-6.1,15.6-10.6,25-12.5c1.6-0.3,0.9-2.8-0.7-2.4c-9.8,2-18.4,6.8-26.1,13.1
					C398.7,100.6,400.5,102.3,401.8,101.3L401.8,101.3z"/>
			</g>
			<g>
				<path class="st5" d="M405.5,102.2c0.8,4.8,2.1,9.5,2.8,14.3c0.2,1.6,2.7,0.9,2.4-0.7c-0.7-4.8-1.9-9.5-2.8-14.3
					C407.7,99.9,405.3,100.6,405.5,102.2L405.5,102.2z"/>
			</g>
			<g>
				<path class="st6" d="M408.6,32.6c1,3.7,2.4,7.3,3.3,11.1c0.4,1.6,2.9,1.2,2.5-0.4c-0.9-3.8-2.2-7.3-3.3-11.1
					C410.7,30.6,408.2,31,408.6,32.6L408.6,32.6z"/>
			</g>
			<g>
				<path class="st6" d="M412.9,103.7c3.5,1.4,6.8,3.2,10.5,3.8c1.6,0.3,2.3-2.2,0.7-2.4c-3.7-0.6-7-2.4-10.5-3.8
					C412,100.7,411.4,103.1,412.9,103.7L412.9,103.7z"/>
			</g>
			<g>
				<path class="st4" d="M395.2,19.5c-3.7-3.5-8.2-6.1-13.1-7.6c-1.5-0.5-2.4,1.9-0.9,2.4c4.4,1.3,8.6,3.6,12,6.8
					C394.4,22.2,396.4,20.6,395.2,19.5L395.2,19.5z"/>
			</g>
			<g>
				<path class="st7" d="M391.4,79c4.3,1.4,8.7,1.2,13.2,1.4c1.6,0.1,1.6-2.5,0-2.5c-4.2-0.2-8.4,0.1-12.5-1.3
					C390.5,76,389.9,78.4,391.4,79L391.4,79z"/>
			</g>
			<g>
				<path class="st8" d="M415.9,81.9c-0.5-3.5-2-6.7-2.8-10.1c-0.4-1.6-2.8-0.9-2.4,0.7c0.8,3.4,2.3,6.6,2.8,10.1
					C413.7,84.2,416.1,83.5,415.9,81.9L415.9,81.9z"/>
			</g>
			<g>
				<path class="st8" d="M391.4,28.5c-2.2,3.3-3.8,6.8-5.3,10.5c-0.6,1.5,1.8,2.4,2.4,0.9c1.4-3.4,2.9-6.8,5-9.9
					C394.4,28.6,392.3,27.2,391.4,28.5L391.4,28.5z"/>
			</g>
			<g>
				<path class="st2" d="M373.9,24.9c3.4-1.5,7.2-1.8,10.5-3.7c1.4-0.8,0.4-3.1-1-2.3c-3.3,1.9-7.1,2.2-10.5,3.7
					C371.4,23.3,372.4,25.6,373.9,24.9L373.9,24.9z"/>
			</g>
			<g>
				<path class="st7" d="M380.2,27.2c1.4,1.2,2.7,2.5,4,3.9c1.1,1.2,3.1-0.4,1.9-1.6c-1.4-1.5-2.9-3-4.5-4.3
					C380.4,24.1,379,26.2,380.2,27.2L380.2,27.2z"/>
			</g>
			<g>
				<path class="st2" d="M391.2,39.4c2.6,2.1,4.4,5.1,6.9,7.3c1.2,1.1,2.7-1,1.5-2.1c-2.5-2.2-4.3-5.2-6.9-7.3
					C391.4,36.3,389.9,38.4,391.2,39.4L391.2,39.4z"/>
			</g>
			<g>
				<path class="st4" d="M385.8,61.7c3.4,4.2,7,8.3,9.8,13c0.8,1.4,3,0.1,2.2-1.3c-3-4.8-6.7-9.1-10.2-13.5
					C386.6,58.6,384.8,60.5,385.8,61.7L385.8,61.7z"/>
			</g>
			<g>
				<path class="st5" d="M403,42.2c-1.4-1.2-2.8-2.4-4.2-3.6c-1.2-1.1-2.7,1-1.5,2.1c1.4,1.2,2.8,2.4,4.2,3.6
					C402.8,45.3,404.3,43.3,403,42.2L403,42.2z"/>
			</g>
			<g>
				<path class="st6" d="M394.7,52.9c-2.9-2.6-5.5-5.6-8.7-8c-1.3-1-2.8,1.1-1.5,2.1c3.1,2.4,5.7,5.4,8.7,8
					C394.5,56,396,53.9,394.7,52.9L394.7,52.9z"/>
			</g>
		</g>
		<g>
			<g>
				<path class="st4" d="M427.6,272.5c-4.9,0.8-9.6,2.7-13.7,5.6c-1.3,0.9-0.1,3.1,1.3,2.2c3.9-2.7,8.4-4.6,13.1-5.3
					C429.8,274.7,429.2,272.3,427.6,272.5L427.6,272.5z"/>
			</g>
			<g>
				<path class="st7" d="M417.3,271.4c1.3-4.3,1-8.8,1.1-13.2c0-1.6-2.5-1.6-2.5,0c-0.1,4.2,0.3,8.4-1,12.6
					C414.4,272.3,416.8,273,417.3,271.4L417.3,271.4z"/>
			</g>
			<g>
				<path class="st8" d="M419.7,246.9c-3.5,0.6-6.6,2.1-10,3c-1.6,0.4-0.9,2.8,0.7,2.4c3.4-0.9,6.5-2.4,10-3
					C422,249,421.3,246.6,419.7,246.9L419.7,246.9z"/>
			</g>
			<g>
				<path class="st2" d="M419,292.6c1-3.6,3-6.8,3.6-10.6c0.2-1.6-2.2-2.3-2.4-0.7c-0.5,3.7-2.6,7-3.6,10.6
					C416.1,293.5,418.6,294.2,419,292.6L419,292.6z"/>
			</g>
			<g>
				<path class="st2" d="M403.5,266.5c3.3-0.8,6.7-0.3,10.1-0.9c1.6-0.3,0.9-2.7-0.7-2.4c-3.3,0.6-6.7,0.1-10.1,0.9
					C401.3,264.4,401.9,266.8,403.5,266.5L403.5,266.5z"/>
			</g>
		</g>
		<g>
			<g>
				<path class="st2" d="M428.5,150.3c-7.9-0.6-14.5-6-21.8-8.7c-1.5-0.6-2.2,1.9-0.7,2.4c7.6,2.8,14.2,8.1,22.4,8.7
					C430.2,153,430.2,150.5,428.5,150.3L428.5,150.3z"/>
			</g>
			<g>
				<path class="st3" d="M382.1,33.6c-5.9-0.8-11.8-1.5-17.8-1.8c-1.6-0.1-1.9,2.4-0.3,2.5c6,0.3,11.9,1,17.8,1.8
					C383.4,36.4,383.7,33.9,382.1,33.6L382.1,33.6z"/>
			</g>
			<g>
				<path class="st2" d="M420,136c-7.7-5.6-14.1-12.5-18.3-21.1c-0.7-1.5-2.9-0.2-2.2,1.3c4.4,9,11.1,16.2,19.2,22
					C420.1,139.1,421.3,137,420,136L420,136z"/>
			</g>
			<g>
				<path class="st5" d="M420,132.1c4.3-2,8.5-4.3,12.8-6.1c1.5-0.6,0.8-3.1-0.7-2.4c-4.6,1.9-8.9,4.3-13.4,6.4
					C417.2,130.6,418.5,132.8,420,132.1L420,132.1z"/>
			</g>
			<g>
				<path class="st6" d="M419.6,125c0.5-3.8,1.5-7.6,1.1-11.4c-0.1-1.6-2.7-1.6-2.5,0c0.3,3.6-0.6,7.2-1.1,10.8
					C417,125.9,419.4,126.6,419.6,125L419.6,125z"/>
			</g>
			<g>
				<path class="st8" d="M407.3,131.4c-3.3,1.4-6.2,3.7-9.4,5.3c-1.4,0.7-0.2,2.9,1.3,2.2c3-1.5,5.6-3.8,8.8-5.1
					C409.4,133.2,408.8,130.8,407.3,131.4L407.3,131.4z"/>
			</g>
		</g>
		<g>
			<g>
				<path class="st8" d="M419.2,58.3c-0.6,3.9-0.5,7.8-0.2,11.8c0.1,1.6,2.6,1.6,2.5,0c-0.2-3.7-0.4-7.4,0.2-11.1
					C421.9,57.4,419.4,56.7,419.2,58.3L419.2,58.3z"/>
			</g>
			<g>
				<path class="st2" d="M401.8,62.9c2.5-2.9,5.9-4.9,8.1-8.2c0.9-1.4-1.3-2.6-2.2-1.3c-2,3-5.3,4.9-7.7,7.7
					C398.9,62.4,400.7,64.2,401.8,62.9L401.8,62.9z"/>
			</g>
			<g>
				<path class="st3" d="M408.4,62.1c1.9,0.5,3.7,1.2,5.6,1.9c1.5,0.6,2.2-1.9,0.7-2.4c-1.8-0.7-3.7-1.4-5.6-1.9
					C407.4,59.3,406.8,61.7,408.4,62.1L408.4,62.1z"/>
			</g>
		</g>
		<g>
			<g>
				<path class="st2" d="M388.1,276.9c-6.9,4-15.3,3.2-22.9,5.1c-1.6,0.4-0.9,2.8,0.7,2.4c7.8-1.9,16.3-1.2,23.5-5.3
					C390.8,278.3,389.5,276.1,388.1,276.9L388.1,276.9z"/>
			</g>
			<g>
				<path class="st4" d="M380.4,272.5c-0.4-4.2,1.5-8.2,0.9-12.4c-0.2-1.6-2.7-0.9-2.4,0.7c0.5,3.9-1.4,7.7-1,11.7
					C378,274.1,380.6,274.1,380.4,272.5L380.4,272.5z"/>
			</g>
			<g>
				<path class="st6" d="M385,271.1c3.4-1.6,6.6-3.4,10.1-4.8c1.5-0.6,0.8-3-0.7-2.4c-3.7,1.5-7.1,3.4-10.7,5.1
					C382.2,269.6,383.5,271.8,385,271.1L385,271.1z"/>
			</g>
			<g>
				<path class="st4" d="M373.7,286.7c-2.8,4.1-4.6,8.9-5.3,13.8c-0.2,1.6,2.2,2.3,2.4,0.7c0.6-4.7,2.3-9.3,5-13.2
					C376.8,286.6,374.6,285.3,373.7,286.7L373.7,286.7z"/>
			</g>
			<g>
				<path class="st8" d="M383.3,288.8c3.6,1.7,7.3,2.7,11.2,3.6c1.6,0.4,2.3-2.1,0.7-2.4c-3.6-0.8-7.2-1.8-10.6-3.4
					C383.1,285.9,381.8,288.1,383.3,288.8L383.3,288.8z"/>
			</g>
			<g>
				<path class="st2" d="M382.6,306.7c-2.1-3.3-3-7-5.5-10.1c-1-1.3-2.8,0.5-1.8,1.8c2.3,2.8,3.2,6.5,5.1,9.6
					C381.3,309.4,383.5,308.1,382.6,306.7L382.6,306.7z"/>
			</g>
			<g>
				<path class="st3" d="M383.8,300.2c1-1.7,2.2-3.3,3.4-4.8c0.4-0.5,0.1-1.4-0.5-1.7c-0.6-0.4-1.3-0.1-1.7,0.5
					c-1.2,1.6-2.4,3.1-3.4,4.8C380.8,300.3,383,301.6,383.8,300.2L383.8,300.2z"/>
			</g>
			<g>
				<path class="st2" d="M394.1,287.4c1.7-3,4.4-5.1,6.2-8c0.9-1.4-1.3-2.7-2.2-1.3c-1.8,2.9-4.5,5-6.2,8
					C391.2,287.6,393.3,288.9,394.1,287.4L394.1,287.4z"/>
			</g>
			<g>
				<path class="st4" d="M410.8,275.2c-5.2-1.7-10.4-3.2-15.3-5.5c-1.5-0.7-2.7,1.5-1.3,2.2c5.1,2.5,10.6,4,16,5.8
					C411.7,278.2,412.4,275.7,410.8,275.2L410.8,275.2z"/>
			</g>
			<g>
				<path class="st5" d="M395.2,275.1c-1,1.6-1.9,3.1-2.9,4.7c-0.9,1.4,1.3,2.7,2.2,1.3c1-1.6,1.9-3.1,2.9-4.7
					C398.2,275,396,273.7,395.2,275.1L395.2,275.1z"/>
			</g>
			<g>
				<path class="st6" d="M407,281.6c-2.1,3.3-4.7,6.3-6.5,9.8c-0.8,1.4,1.4,2.7,2.2,1.3c1.8-3.5,4.4-6.5,6.5-9.8
					C410,281.5,407.9,280.3,407,281.6L407,281.6z"/>
			</g>
			<g>
				<path class="st7" d="M401.8,283.8c-1,0.6-2,1.2-3.1,1.7c-0.6,0.3-0.8,1.2-0.5,1.7c0.4,0.6,1.1,0.8,1.7,0.5
					c1.1-0.5,2.1-1.1,3.1-1.7C404.4,285.1,403.2,282.9,401.8,283.8L401.8,283.8z"/>
			</g>
		</g>
		<g>
			<g>
				<path class="st2" d="M361-1c-7.6-2.4-12.8-9.1-19.3-13.3c-1.4-0.9-2.6,1.3-1.3,2.2c6.7,4.4,12,11.1,19.9,13.6
					C361.9,1.9,362.6-0.5,361-1L361-1z"/>
			</g>
			<g>
				<path class="st4" d="M344.1-4.9c-4.9,0.8-9.6,2.7-13.7,5.6c-1.3,0.9-0.1,3.1,1.3,2.2c3.9-2.7,8.4-4.6,13.1-5.3
					C346.3-2.7,345.7-5.1,344.1-4.9L344.1-4.9z"/>
			</g>
			<g>
				<path class="st8" d="M349.1,3.6c1.2,3.8,3,7.2,5,10.6c0.8,1.4,3,0.1,2.2-1.3c-1.8-3.2-3.6-6.5-4.7-10
					C351.1,1.4,348.6,2.1,349.1,3.6L349.1,3.6z"/>
			</g>
			<g>
				<path class="st2" d="M335.5,15.3c1-3.6,3-6.8,3.6-10.6c0.2-1.6-2.2-2.3-2.4-0.7c-0.5,3.7-2.6,7-3.6,10.6
					C332.6,16.2,335.1,16.8,335.5,15.3L335.5,15.3z"/>
			</g>
			<g>
				<path class="st7" d="M341.1,11.7c1.8-0.4,3.7-0.6,5.5-0.7c1.6-0.2,1.6-2.7,0-2.5c-2.1,0.2-4.1,0.4-6.2,0.8
					C338.9,9.6,339.6,12,341.1,11.7L341.1,11.7z"/>
			</g>
			<g>
				<path class="st4" d="M377.7,14.5c-2.3-4.9-4.8-9.8-6.4-15c-0.5-1.5-2.9-0.9-2.4,0.7c1.7,5.4,4.3,10.5,6.6,15.6
					C376.2,17.2,378.4,15.9,377.7,14.5L377.7,14.5z"/>
			</g>
			<g>
				<path class="st5" d="M367.1,3c-1.8,0.4-3.6,0.7-5.4,1.1c-1.6,0.3-0.9,2.7,0.7,2.4c1.8-0.4,3.6-0.7,5.4-1.1
					C369.4,5.1,368.7,2.7,367.1,3L367.1,3z"/>
			</g>
			<g>
				<path class="st6" d="M370.4,16.1c-3.9,0.7-7.8,0.9-11.6,1.9c-1.6,0.4-0.9,2.9,0.7,2.4c3.8-1,7.8-1.2,11.6-1.9
					C372.7,18.2,372,15.8,370.4,16.1L370.4,16.1z"/>
			</g>
			<g>
				<path class="st7" d="M365.3,13.7c-1.1-0.3-2.3-0.7-3.4-1.1c-0.6-0.2-1.4,0.3-1.6,0.9c-0.2,0.7,0.2,1.3,0.9,1.6
					c1.1,0.4,2.2,0.8,3.4,1.1C366.2,16.6,366.9,14.1,365.3,13.7L365.3,13.7z"/>
			</g>
		</g>
	</g>
</g>
<g>
	<g>
		<g id="STATE:_Gather_Insights_2_">
			<g>
				<g id="Background_3_">
					<defs>
						<circle id="SVGID_3_" cx="306.2" cy="114.5" r="34.3"/>
					</defs>
					<clipPath id="SVGID_4_">
						<use xlink:href="#SVGID_3_"  style="overflow:visible;"/>
					</clipPath>
					<circle class="st9" cx="306.2" cy="114.5" r="34.3"/>
					<g class="st10">
						<g>
							<g>
								<path class="st11" d="M329.4,98.7c-2.3,0-4.1-2.2-4.2-2.3l-0.1-0.1l0.1-0.1c0.1-0.1,1.9-2.3,4.2-2.3s4.1,2.2,4.2,2.3
									l0.1,0.1l-0.1,0.1C333.6,96.5,331.7,98.7,329.4,98.7z M325.7,96.3c0.4,0.5,2,2,3.8,2c1.8,0,3.3-1.5,3.8-2
									c-0.4-0.5-2-2-3.8-2C327.6,94.2,326.1,95.8,325.7,96.3z"/>
							</g>
							<g>
								<path class="st11" d="M329.4,97.8c-1.1,0-2-0.9-2-2c0-1.1,0.9-2,2-2s2,0.9,2,2C331.4,96.9,330.5,97.8,329.4,97.8z
									 M329.4,94.2c-0.9,0-1.5,0.7-1.5,1.5c0,0.9,0.7,1.5,1.5,1.5s1.5-0.7,1.5-1.5C331,94.9,330.3,94.2,329.4,94.2z"/>
							</g>
						</g>
						<g>
							<g>
								<path class="st11" d="M291.1,95c-0.1,0-0.3,0-0.4,0c-0.6-0.2-1.4-0.7-1.5-1.9c-0.1-0.7-0.4-1-0.8-1.4c-0.4-0.4-0.9-0.9-1-2
									c-0.1-1.3,0.3-2.1,0.8-2.6c0.6-0.7,1.5-0.9,2-0.9c0.5,0,1.6,0.2,1.9,1.1c0,0.1,0,0.2-0.1,0.3c-0.1,0-0.2,0-0.3-0.1
									c-0.2-0.7-1.2-0.8-1.5-0.8c-0.5,0-1.2,0.2-1.7,0.8c-0.5,0.6-0.7,1.3-0.6,2.3c0.1,1,0.5,1.4,0.9,1.8c0.4,0.4,0.8,0.8,0.9,1.6
									c0.1,0.9,0.7,1.4,1.2,1.5c0.4,0.1,0.8,0,1-0.3c0.1-0.1,0.2-0.1,0.3-0.1c0.1,0.1,0.1,0.2,0.1,0.3
									C291.9,94.9,291.5,95,291.1,95z"/>
							</g>
							<g>
								<path class="st11" d="M288.7,90.4c-0.1,0-0.2,0-0.2-0.1c-0.4-0.9-0.2-1.8,0.4-2.5c0.5-0.5,1.1-0.8,1.4-0.6
									c0.1,0,0.2,0.2,0.1,0.3c0,0.1-0.2,0.2-0.3,0.1c-0.1,0-0.6,0.1-1,0.6c-0.3,0.3-0.7,1-0.3,1.9
									C288.9,90.2,288.9,90.4,288.7,90.4C288.7,90.4,288.7,90.4,288.7,90.4z"/>
							</g>
							<g>
								<path class="st11" d="M291.4,92.4C291.3,92.4,291.3,92.4,291.4,92.4c-0.3-0.1-0.5-0.3-0.6-0.5c-0.1-0.2-0.1-0.5,0.1-0.8
									c0.2-0.3,0.1-0.4-0.1-0.6c-0.1-0.1-0.2-0.2-0.3-0.4c-0.2-0.3-0.3-0.6-0.2-0.9c0.2-0.5,0.7-0.6,0.8-0.7c0.1,0,0.2,0,0.3,0.1
									c0,0.1,0,0.2-0.1,0.3c-0.1,0-0.4,0.2-0.5,0.4c0,0.1,0,0.3,0.1,0.5c0.1,0.1,0.2,0.2,0.2,0.3c0.2,0.2,0.5,0.5,0.2,1.1
									c-0.1,0.1-0.2,0.3-0.1,0.4c0,0.1,0.1,0.2,0.2,0.2c0.1,0,0.2,0.2,0.1,0.3C291.5,92.3,291.5,92.4,291.4,92.4z"/>
							</g>
						</g>
						<g>
							<path class="st11" d="M293,102.8h-11.1c-0.7,0-1.3,0.6-1.3,1.2v0.5h-1.5c-0.7,0-1.3,0.6-1.3,1.2v6.1c0,0.7,0.6,1.2,1.3,1.2
								h2.7l1.5,2.1l1.5-2.1h5.4c0.7,0,1.3-0.6,1.3-1.2v-0.5h1.5c0.7,0,1.3-0.6,1.3-1.2v-6.1C294.3,103.4,293.7,102.8,293,102.8z
								 M291.1,111.9c0,0.4-0.4,0.8-0.9,0.8h-5.7l-1.3,1.8l-1.3-1.8h-2.9c-0.5,0-0.9-0.4-0.9-0.8v-6.1c0-0.4,0.4-0.8,0.9-0.8h11.1
								c0.5,0,0.9,0.4,0.9,0.8V111.9z M293.9,110.2c0,0.4-0.4,0.8-0.9,0.8h-1.5v-3.6h0.6v-0.4h-0.6v-1.1c0-0.1,0-0.1,0-0.1h0.7v-0.4
								h-0.8c-0.2-0.4-0.7-0.7-1.2-0.7H281v-0.5c0-0.4,0.4-0.8,0.9-0.8H293c0.5,0,0.9,0.4,0.9,0.8V110.2z"/>
							<rect x="280" y="106.9" class="st11" width="9.4" height="0.4"/>
							<rect x="280" y="108.6" class="st11" width="9.4" height="0.4"/>
							<rect x="280" y="110.3" class="st11" width="7.2" height="0.4"/>
						</g>
						<g>
							<path class="st11" d="M320.5,110.3c0,0,0.7-0.9,1.5-0.6c1.8,0.7,2.4,0.4,2.9,0.1c0.1-0.1,0.2-0.1,0.4-0.2
								c0.5-0.1,1.6,0.2,1.9,0.4c0.1,0,0.2,0,0.3-0.1c0-0.1,0-0.2-0.1-0.3c-0.1,0-1.4-0.6-2.2-0.4c-0.2,0-0.3,0.1-0.5,0.2
								c-0.4,0.2-0.9,0.5-2.5-0.1c-0.9-0.4-1.8,0.3-2.1,0.7c-0.1,0.1,0,0.2,0,0.3c0,0,0.1,0,0.1,0
								C320.4,110.4,320.5,110.4,320.5,110.3z"/>
							<path class="st11" d="M326.2,111.6c-1.1,0.3-1.3,0.3-2.3,0.1c-1.1-0.3-1.5-0.1-1.8,0.1c-0.3,0.2-0.6,0.3-1.4,0.1
								c-0.1,0-0.2,0.1-0.3,0.2c0,0.1,0.1,0.2,0.2,0.3c0.3,0.1,0.6,0.1,0.8,0.1c0.5,0,0.7-0.1,1-0.3c0.3-0.2,0.6-0.3,1.5-0.1
								c1,0.3,1.3,0.2,2.5-0.1c0.1,0,0.2-0.2,0.1-0.3C326.4,111.7,326.3,111.6,326.2,111.6z"/>
							<path class="st11" d="M326.2,114c-1.2-0.2-1.5-0.2-2.5,0.1c-0.9,0.3-1.2,0.2-1.5,0c-0.3-0.1-0.7-0.3-1.7-0.1
								c-0.1,0-0.2,0.1-0.2,0.3c0,0.1,0.1,0.2,0.3,0.2c0.9-0.2,1.2-0.1,1.5,0c0.2,0.1,0.4,0.2,0.8,0.2c0.3,0,0.6,0,1-0.2
								c0.9-0.3,1.2-0.3,2.3,0c0.1,0,0.2-0.1,0.3-0.2C326.4,114.2,326.3,114.1,326.2,114z"/>
							<path class="st11" d="M336,119.8l-0.8-0.8l-6-5.9l-0.1-6.2c0-0.1-0.1-0.2-0.2-0.2l-10.1,0.1c-0.1,0-0.1,0-0.2,0.1
								c0,0-0.1,0.1-0.1,0.2l0,0.1l-0.8,0c-0.1,0-0.2,0.1-0.2,0.2l0.8,14.8c0,0.1,0.1,0.2,0.2,0.2c0,0,0,0,0,0l8.7-0.4
								c0.1,0,0.1,0,0.1-0.1l1.7,0c0.1,0,0.2-0.1,0.2-0.2l-0.1-6.5l4.9,4.8l0.8,0.8c0,0,0.1,0.1,0.2,0.1c0.1,0,0.1,0,0.2-0.1
								l0.7-0.8C336.1,120,336.1,119.9,336,119.8z M334.5,119.4l-0.2,0.2l-6.3-6.2l0.4-0.4l6.3,6.2L334.5,119.4z M327.8,113
								l-0.3-0.6l0.6,0.3L327.8,113z M318.1,107.7l0.5,0l0.2,14.3c0,0.1,0,0.1,0.1,0.1l-0.1,0L318.1,107.7z M328.9,121.6l-9.7,0.1
								l-0.2-14.3l0,0l0,0l0-0.1l9.7-0.1l0.1,5.5l-0.2-0.2c0,0,0,0,0,0c0,0,0,0,0,0l-1.4-0.7c-0.1,0-0.2,0-0.2,0
								c-0.1,0.1-0.1,0.2,0,0.2l0.7,1.4c0,0,0,0,0,0c0,0,0,0,0,0.1l1.3,1.2L328.9,121.6z M335.1,120.4l-0.5-0.5l0.2-0.2l0.2-0.2
								l0.5,0.5L335.1,120.4z"/>
						</g>
						<g>
							<path class="st11" d="M328.6,138h-11.1c-0.7,0-1.3,0.6-1.3,1.2v0.5h-1.5c-0.7,0-1.3,0.6-1.3,1.2v6.1c0,0.7,0.6,1.2,1.3,1.2
								h2.7l1.5,2.1l1.5-2.1h5.4c0.7,0,1.3-0.6,1.3-1.2v-0.5h1.5c0.7,0,1.3-0.6,1.3-1.2v-6.1C329.9,138.5,329.3,138,328.6,138z
								 M326.7,147c0,0.4-0.4,0.8-0.9,0.8h-5.7l-1.3,1.8l-1.3-1.8h-2.9c-0.5,0-0.9-0.4-0.9-0.8v-6.1c0-0.4,0.4-0.8,0.9-0.8h11.1
								c0.5,0,0.9,0.4,0.9,0.8V147z M329.5,145.3c0,0.4-0.4,0.8-0.9,0.8h-1.5v-3.6h0.6V142h-0.6v-1.1c0-0.1,0-0.1,0-0.1h0.7v-0.4
								H327c-0.2-0.4-0.7-0.7-1.2-0.7h-9.2v-0.5c0-0.4,0.4-0.8,0.9-0.8h11.1c0.5,0,0.9,0.4,0.9,0.8V145.3z"/>
							<rect x="315.6" y="142" class="st11" width="9.4" height="0.4"/>
							<rect x="315.6" y="143.7" class="st11" width="9.4" height="0.4"/>
							<rect x="315.6" y="145.4" class="st11" width="7.2" height="0.4"/>
						</g>
						<path class="st11" d="M280.2,123.4c-0.1-0.1-1.8-2.2-4-2.3c-0.1,0-0.1,0-0.2,0s-0.1,0-0.2,0c-2.2,0.1-3.9,2.2-4,2.3l-0.1,0.1
							l0.1,0.1c0.1,0.1,1.9,2.3,4.2,2.3c2.3,0,4.1-2.2,4.2-2.3l0.1-0.1L280.2,123.4z M277.5,123c0,0.9-0.7,1.5-1.5,1.5
							c-0.9,0-1.5-0.7-1.5-1.5c0-0.9,0.7-1.5,1.5-1.5C276.8,121.5,277.5,122.2,277.5,123z M276,125.5c-1.8,0-3.3-1.5-3.8-2
							c0.3-0.3,1.1-1.1,2.2-1.6c-0.2,0.3-0.4,0.7-0.4,1.2c0,1.1,0.9,2,2,2c1.1,0,2-0.9,2-2c0-0.4-0.1-0.8-0.4-1.2
							c1.1,0.5,1.9,1.3,2.2,1.6C279.3,124,277.8,125.5,276,125.5z"/>
						<g>
							<g>
								<path class="st11" d="M295.4,150.7c-0.1,0-0.3,0-0.4,0c-0.6-0.2-1.4-0.7-1.5-1.9c-0.1-0.7-0.4-1-0.8-1.4
									c-0.4-0.4-0.9-0.9-1-2c-0.1-1.3,0.3-2.1,0.8-2.6c0.6-0.7,1.5-0.9,2-0.9c0.5,0,1.6,0.2,1.9,1.1c0,0.1,0,0.2-0.1,0.3
									c-0.1,0-0.2,0-0.3-0.1c-0.2-0.7-1.2-0.8-1.5-0.8c-0.5,0-1.2,0.2-1.7,0.8c-0.5,0.6-0.7,1.3-0.6,2.3c0.1,1,0.5,1.4,0.9,1.8
									c0.4,0.4,0.8,0.8,0.9,1.6c0.1,0.9,0.7,1.4,1.2,1.5c0.4,0.1,0.8,0,1-0.3c0.1-0.1,0.2-0.1,0.3-0.1c0.1,0.1,0.1,0.2,0.1,0.3
									C296.3,150.5,295.9,150.7,295.4,150.7z"/>
							</g>
							<g>
								<path class="st11" d="M293,146.1c-0.1,0-0.2,0-0.2-0.1c-0.4-0.9-0.2-1.8,0.4-2.5c0.5-0.5,1.1-0.8,1.4-0.6
									c0.1,0,0.2,0.2,0.1,0.3c0,0.1-0.2,0.2-0.3,0.1c-0.1,0-0.6,0.1-1,0.6c-0.3,0.3-0.7,1-0.3,1.9
									C293.2,145.9,293.2,146,293,146.1C293,146.1,293,146.1,293,146.1z"/>
							</g>
							<g>
								<path class="st11" d="M295.7,148.1C295.7,148.1,295.6,148,295.7,148.1c-0.3-0.1-0.5-0.3-0.6-0.5c-0.1-0.2-0.1-0.5,0.1-0.8
									c0.2-0.3,0.1-0.4-0.1-0.6c-0.1-0.1-0.2-0.2-0.3-0.4c-0.2-0.3-0.3-0.6-0.2-0.9c0.2-0.5,0.7-0.6,0.8-0.7c0.1,0,0.2,0,0.3,0.1
									c0,0.1,0,0.2-0.1,0.3c-0.1,0-0.4,0.2-0.5,0.4c0,0.1,0,0.3,0.1,0.5c0.1,0.1,0.2,0.2,0.2,0.3c0.2,0.2,0.5,0.5,0.2,1.1
									c-0.1,0.1-0.2,0.3-0.1,0.4c0,0.1,0.1,0.2,0.2,0.2c0.1,0,0.2,0.2,0.1,0.3C295.9,148,295.8,148.1,295.7,148.1z"/>
							</g>
						</g>
					</g>
				</g>
				<g>
					
						<ellipse transform="matrix(0.9081 -0.4188 0.4188 0.9081 -12.6942 137.7902)" class="st0" cx="307.6" cy="97.8" rx="7.1" ry="7.1"/>
				</g>
				<g>
					<path class="st12" d="M311.9,100.6c0,0-0.1,0-0.1,0c-0.1-0.1-0.1-0.2-0.1-0.3c0.8-1.4,1-3,0.5-4.3c0-0.1,0-0.2,0.1-0.3
						c0.1,0,0.2,0,0.3,0.1c0.5,1.4,0.3,3.1-0.5,4.7C312.1,100.6,312,100.6,311.9,100.6z"/>
				</g>
				<path class="st0" d="M301.5,120.9l4.3-11.7c0-0.1,0.1-0.2,0.1-0.3c-1.2-0.1-2.3-0.4-3.4-1c0,0,0,0.1,0,0.1l-4.3,11.7
					c-0.3,0.9,0.1,1.9,1,2.3C300.2,122.2,301.2,121.8,301.5,120.9z"/>
				<path class="st12" d="M315.7,94.1c-2.1-4.5-7.4-6.5-11.9-4.4c-4.5,2.1-6.5,7.4-4.4,11.9c0.9,2,2.5,3.5,4.4,4.4l-0.7,1.9
					c-0.2-0.1-0.3-0.1-0.5-0.2l-0.2-0.1l-0.1,0.2c0,0,0,0,0,0.1l-4.3,11.7c-0.2,0.5-0.2,1,0.1,1.5c0.2,0.5,0.6,0.8,1.1,1
					c0.2,0.1,0.5,0.1,0.7,0.1c0.3,0,0.6-0.1,0.8-0.2c0.5-0.2,0.8-0.6,1-1.1l4.3-11.7c0-0.1,0.1-0.2,0.1-0.4l0-0.2l-0.2,0
					c-0.2,0-0.4,0-0.5-0.1l0.7-1.8c0.5,0.1,1,0.1,1.5,0.1c1.3,0,2.6-0.3,3.8-0.8C315.8,103.9,317.8,98.6,315.7,94.1z M305.7,109
					l-4.3,11.7c-0.1,0.4-0.4,0.7-0.8,0.9c-0.4,0.2-0.8,0.2-1.2,0c-0.4-0.1-0.7-0.4-0.9-0.8c-0.2-0.4-0.2-0.8,0-1.2l4.3-11.6
					C303.7,108.6,304.7,108.9,305.7,109C305.7,109,305.7,109,305.7,109z M305,108.4c-0.5-0.1-1-0.2-1.4-0.4l0.7-1.9
					c0.1,0,0.1,0.1,0.2,0.1c0.4,0.1,0.8,0.3,1.2,0.3L305,108.4z M311.1,105.6c-4.3,2-9.4,0.1-11.3-4.2c-2-4.3-0.1-9.4,4.2-11.3
					c1.2-0.5,2.4-0.8,3.6-0.8c3.2,0,6.3,1.8,7.8,5C317.3,98.5,315.4,103.6,311.1,105.6z"/>
				<g id="Text_object_2_">
					<path class="st0" d="M287,127.8l-0.5,0.6c-0.3-0.3-0.6-0.4-1-0.4c-0.7,0-1.2,0.5-1.2,1.7c0,1.3,0.4,1.7,1,1.7
						c0.3,0,0.5-0.1,0.7-0.2v-1.2h-0.7l-0.1-0.7h1.7v2.3c-0.5,0.3-1,0.5-1.7,0.5c-1.4,0-2.1-0.9-2.1-2.5c0-1.6,1-2.5,2.2-2.5
						C286.1,127.2,286.6,127.5,287,127.8z"/>
					<path class="st0" d="M290.9,131.5l-0.2,0.6c-0.4,0-0.7-0.2-0.8-0.5c-0.3,0.4-0.7,0.5-1.1,0.5c-0.7,0-1.2-0.5-1.2-1.1
						c0-0.8,0.6-1.2,1.7-1.2h0.4v-0.2c0-0.4-0.2-0.6-0.6-0.6c-0.2,0-0.6,0.1-1,0.2l-0.2-0.6c0.4-0.2,0.9-0.3,1.3-0.3
						c1,0,1.4,0.4,1.4,1.3v1.5C290.6,131.4,290.7,131.5,290.9,131.5z M289.7,131.1v-0.7h-0.3c-0.5,0-0.8,0.2-0.8,0.6
						c0,0.3,0.2,0.5,0.5,0.5C289.3,131.5,289.5,131.3,289.7,131.1z"/>
					<path class="st0" d="M293.8,131.9c-0.3,0.2-0.6,0.3-0.9,0.3c-0.7,0-1.1-0.4-1.1-1.2v-1.8h-0.5v-0.7h0.5v-0.8l1-0.1v0.9h0.8
						l-0.1,0.7h-0.7v1.8c0,0.4,0.1,0.5,0.4,0.5c0.1,0,0.3,0,0.4-0.1L293.8,131.9z"/>
					<path class="st0" d="M297.2,129.4v2.6h-1v-2.5c0-0.4-0.2-0.5-0.4-0.5c-0.3,0-0.5,0.2-0.7,0.5v2.5h-1V127l1-0.1v1.9
						c0.3-0.3,0.6-0.5,1-0.5C296.8,128.4,297.2,128.8,297.2,129.4z"/>
					<path class="st0" d="M301.2,130.6h-2.3c0.1,0.7,0.4,0.9,0.9,0.9c0.3,0,0.6-0.1,0.9-0.3l0.4,0.5c-0.4,0.3-0.8,0.5-1.4,0.5
						c-1.2,0-1.8-0.8-1.8-1.9c0-1.1,0.6-1.9,1.6-1.9c1,0,1.6,0.7,1.6,1.8C301.2,130.3,301.2,130.5,301.2,130.6z M300.2,129.9
						c0-0.5-0.2-0.9-0.6-0.9c-0.4,0-0.6,0.3-0.7,0.9L300.2,129.9L300.2,129.9z"/>
					<path class="st0" d="M304.1,128.4l-0.2,0.9c-0.1,0-0.2,0-0.3,0c-0.4,0-0.6,0.3-0.8,0.9v1.9h-1v-3.6h0.8l0.1,0.7
						c0.2-0.5,0.5-0.8,0.9-0.8C303.9,128.4,304,128.4,304.1,128.4z"/>
					<path class="st0" d="M307.3,132.1h-1v-4.7h1V132.1z"/>
					<path class="st0" d="M311.3,129.4v2.6h-1v-2.5c0-0.4-0.1-0.5-0.4-0.5c-0.3,0-0.5,0.2-0.7,0.5v2.5h-1v-3.6h0.8l0.1,0.5
						c0.3-0.4,0.6-0.6,1.1-0.6C310.9,128.4,311.3,128.8,311.3,129.4z"/>
					<path class="st0" d="M314.7,128.8l-0.4,0.6c-0.3-0.2-0.6-0.3-0.9-0.3c-0.3,0-0.5,0.1-0.5,0.3c0,0.2,0.1,0.3,0.8,0.5
						c0.7,0.2,1.1,0.5,1.1,1.1c0,0.8-0.7,1.2-1.6,1.2c-0.6,0-1.1-0.2-1.5-0.5l0.5-0.5c0.3,0.2,0.6,0.4,1,0.4c0.4,0,0.6-0.1,0.6-0.4
						c0-0.3-0.1-0.4-0.8-0.5c-0.7-0.2-1.1-0.6-1.1-1.1c0-0.6,0.6-1.1,1.4-1.1C314,128.4,314.4,128.5,314.7,128.8z"/>
					<path class="st0" d="M316.6,127.2c0,0.3-0.2,0.6-0.6,0.6c-0.3,0-0.6-0.2-0.6-0.6c0-0.3,0.2-0.6,0.6-0.6
						C316.3,126.6,316.6,126.8,316.6,127.2z M316.5,132.1h-1v-3.6h1V132.1z"/>
					<path class="st0" d="M320.6,128.7c-0.3,0.1-0.6,0.1-1,0.1c0.4,0.2,0.7,0.5,0.7,0.9c0,0.7-0.6,1.2-1.5,1.2c-0.2,0-0.3,0-0.4,0
						c-0.1,0.1-0.1,0.1-0.1,0.2c0,0.1,0.1,0.2,0.4,0.2h0.6c0.8,0,1.3,0.4,1.3,1c0,0.7-0.6,1.2-1.8,1.2c-1.3,0-1.7-0.4-1.7-1.2h0.9
						c0,0.3,0.1,0.5,0.8,0.5c0.7,0,0.8-0.2,0.8-0.4c0-0.2-0.2-0.4-0.6-0.4h-0.5c-0.8,0-1.1-0.3-1.1-0.7c0-0.3,0.2-0.5,0.4-0.7
						c-0.4-0.2-0.6-0.6-0.6-1c0-0.8,0.6-1.3,1.5-1.3c0.8,0,1.3-0.2,1.7-0.4L320.6,128.7z M318.1,129.6c0,0.4,0.2,0.7,0.6,0.7
						c0.4,0,0.6-0.2,0.6-0.7c0-0.4-0.2-0.6-0.6-0.6C318.4,129,318.1,129.3,318.1,129.6z"/>
					<path class="st0" d="M324.2,129.4v2.6h-1v-2.5c0-0.4-0.2-0.5-0.4-0.5c-0.3,0-0.5,0.2-0.7,0.5v2.5h-1V127l1-0.1v1.9
						c0.3-0.3,0.6-0.5,1-0.5C323.8,128.4,324.2,128.8,324.2,129.4z"/>
					<path class="st0" d="M327.2,131.9c-0.3,0.2-0.6,0.3-0.9,0.3c-0.8,0-1.1-0.4-1.1-1.2v-1.8h-0.5v-0.7h0.5v-0.8l1-0.1v0.9h0.8
						l-0.1,0.7h-0.7v1.8c0,0.4,0.1,0.5,0.4,0.5c0.1,0,0.3,0,0.4-0.1L327.2,131.9z"/>
					<path class="st0" d="M330.2,128.8l-0.4,0.6c-0.3-0.2-0.6-0.3-0.9-0.3c-0.3,0-0.5,0.1-0.5,0.3c0,0.2,0.1,0.3,0.8,0.5
						c0.7,0.2,1.1,0.5,1.1,1.1c0,0.8-0.7,1.2-1.6,1.2c-0.6,0-1.1-0.2-1.5-0.5l0.5-0.5c0.3,0.2,0.6,0.4,1,0.4s0.6-0.1,0.6-0.4
						c0-0.3-0.1-0.4-0.8-0.5c-0.7-0.2-1.1-0.6-1.1-1.1c0-0.6,0.6-1.1,1.4-1.1C329.4,128.4,329.8,128.5,330.2,128.8z"/>
				</g>
			</g>
		</g>
		<g id="STATE:_Ideate_1_">
			<g id="Ideate_-_ACTIVE_1_">
				<g id="Background_2_">
					<defs>
						<circle id="SVGID_5_" cx="359.3" cy="192.7" r="34.3"/>
					</defs>
					<clipPath id="SVGID_6_">
						<use xlink:href="#SVGID_5_"  style="overflow:visible;"/>
					</clipPath>
					<circle class="st13" cx="359.3" cy="192.7" r="34.3"/>
					<g class="st14">
						<g>
							<g>
								<path class="st15" d="M386.6,184.2c-2.7,0-5.6-0.5-6.8-0.9c-0.1,0-0.1-0.1-0.1-0.1s0-0.1,0-0.2c0.2-0.3,0.6-1.3,0.5-3.9
									c-0.2-2.7,0.2-4.5,0.2-4.6c0-0.1,0.1-0.2,0.2-0.2c1.5-0.3,4.4-0.3,7-0.2c1.5,0,2.9,0,3.8,0c0.1,0,0.2,0.1,0.2,0.2
									c0.4,3.9,0.3,6.3-0.2,9c0,0.1-0.1,0.1-0.1,0.2C390.1,184,388.4,184.2,386.6,184.2z M380.2,183c2,0.5,8,1.4,10.7,0.1
									c0.4-2.6,0.6-4.9,0.2-8.6c-0.9,0-2.2,0-3.6,0c-2.4,0-5.2-0.1-6.7,0.2c-0.1,0.5-0.3,2.1-0.1,4.4
									C380.8,181.3,380.5,182.4,380.2,183z"/>
							</g>
							<g>
								<path class="st15" d="M386.1,177c-0.4,0-0.7-0.1-0.9-0.3c-0.2-0.1-0.4-0.2-0.7-0.1c-0.1,0-0.2,0-0.3,0.1
									c-0.8,0.2-1.8,0.5-2.5,0.2c-0.1-0.1-0.2-0.2-0.1-0.3c0.1-0.1,0.2-0.2,0.3-0.1c0.5,0.3,1.5,0,2.2-0.2c0.1,0,0.2-0.1,0.3-0.1
									c0.4-0.1,0.7,0,1,0.2c0.2,0.1,0.5,0.2,0.8,0.2c0.3,0,0.6-0.1,0.9-0.2c0.5-0.2,1.1-0.3,1.5,0.1c0.1,0.1,0.1,0.2,0,0.3
									c-0.1,0.1-0.2,0.1-0.3,0c-0.2-0.2-0.5-0.1-1.1,0C386.9,176.9,386.5,177,386.1,177C386.2,177,386.1,177,386.1,177z"/>
							</g>
							<g>
								<path class="st15" d="M389,181.8c-0.1,0-0.2-0.1-0.2-0.2v-3.5c-1-0.4-4.2,0-5.4,0.2c-0.1,0-0.2-0.1-0.2-0.2
									c0-0.1,0.1-0.2,0.2-0.2c0.5-0.1,4.7-0.7,5.8-0.1c0.1,0,0.1,0.1,0.1,0.2v3.6C389.3,181.7,389.2,181.8,389,181.8z"/>
							</g>
							<g>
								<path class="st15" d="M383.9,182.2c-0.1,0-0.2-0.1-0.2-0.2c0-0.1,0.1-0.2,0.2-0.2l5.7-0.5c0.1,0,0.2,0.1,0.2,0.2
									c0,0.1-0.1,0.2-0.2,0.2L383.9,182.2C383.9,182.2,383.9,182.2,383.9,182.2z"/>
							</g>
							<g>
								<path class="st15" d="M383.1,182.3c-0.1,0-0.2-0.1-0.2-0.2v-3.4c0-0.1,0.1-0.2,0.2-0.2s0.2,0.1,0.2,0.2v3.4
									C383.4,182.2,383.3,182.3,383.1,182.3z"/>
							</g>
							<g>
								<path class="st15" d="M386.3,180c-0.1,0-0.2-0.1-0.2-0.2s0.1-0.2,0.2-0.2c0,0,0.4,0,1.1-0.1c0.1,0,0.2,0.1,0.2,0.2
									c0,0.1-0.1,0.2-0.2,0.2C386.7,180,386.3,180,386.3,180z"/>
							</g>
							<g>
								<path class="st15" d="M386.4,179.2c-0.1,0-0.2-0.1-0.2-0.2c0-0.1,0-0.2,0.1-0.3c0.3-0.1,1.4-0.4,1.7,0.1
									c0.1,0.1,0,0.2-0.1,0.3c-0.1,0.1-0.2,0-0.3-0.1C387.6,179,386.9,179.1,386.4,179.2C386.4,179.2,386.4,179.2,386.4,179.2z"/>
							</g>
							<g>
								<path class="st15" d="M386.5,181.1c-0.1,0-0.2-0.1-0.2-0.2c0-0.1,0.1-0.2,0.2-0.2l1.3-0.2c0.1,0,0.2,0.1,0.2,0.2
									c0,0.1-0.1,0.2-0.2,0.2L386.5,181.1C386.6,181.1,386.5,181.1,386.5,181.1z"/>
							</g>
							<g>
								<path class="st15" d="M384.4,181.2c-0.1,0-0.1,0-0.1-0.1c0,0-0.1-0.1-0.1-0.1l-0.2-1.9c0-0.1,0-0.2,0.1-0.2
									c0.9-0.3,1.4-0.3,1.6,0c0.1,0.3,0.1,1.6,0.1,2c0,0.1-0.1,0.2-0.2,0.2L384.4,181.2C384.4,181.2,384.4,181.2,384.4,181.2z
									 M384.5,179.2l0.1,1.5l0.8-0.1c0-0.7,0-1.4,0-1.6C385.2,179.1,384.8,179.1,384.5,179.2z"/>
							</g>
						</g>
						<g>
							<g>
								<path class="st15" d="M378.1,204.2c-2.8,0-5.6-0.4-6.9-0.8c-0.1,0-0.1-0.1-0.1-0.1c0-0.1,0-0.1,0-0.2
									c0.2-0.5,0.3-6.8,0.4-10.7c0-0.1,0.1-0.2,0.2-0.2c1.8-0.4,5.4-0.3,8.5-0.3c1.9,0,3.6,0.1,4.7,0c0.1,0,0.2,0.1,0.2,0.2
									c0.4,4,0,6.9-0.5,9.6c-0.1,0.4-0.1,0.9-0.2,1.3c0,0.1-0.1,0.1-0.1,0.2C382.6,203.9,380.3,204.2,378.1,204.2z M371.5,203
									c2.4,0.7,9.1,1.4,12.4-0.2c0.1-0.4,0.1-0.8,0.2-1.2c0.4-2.7,0.9-5.4,0.5-9.3c-1.1,0.1-2.7,0-4.5,0c-3-0.1-6.4-0.1-8.3,0.2
									C371.8,194.4,371.8,201.5,371.5,203z"/>
							</g>
							<g>
								<path class="st15" d="M382.1,195c-0.3,0-0.7-0.1-1.1-0.3c-0.6-0.4-1-0.2-1.6,0c-0.3,0.1-0.5,0.2-0.8,0.2
									c-0.6,0.1-1-0.2-1.2-0.4c-0.3-0.2-0.4-0.3-0.7-0.2c-0.6,0.2-2,0.6-2.6,0.4c-0.1,0-0.2-0.1-0.2-0.3c0-0.1,0.1-0.2,0.3-0.2
									c0.4,0.1,1.6-0.1,2.4-0.4c0.5-0.2,0.8,0.1,1.1,0.3c0.3,0.2,0.5,0.4,0.9,0.3c0.3-0.1,0.5-0.1,0.8-0.2c0.6-0.2,1.2-0.4,2,0.1
									c0.8,0.5,1.8,0.1,1.8,0.1c0.1-0.1,0.2,0,0.3,0.1c0.1,0.1,0,0.2-0.1,0.3C383.1,194.8,382.7,195,382.1,195z"/>
							</g>
							<g>
								<path class="st15" d="M380.8,201.5c-0.4,0-0.7-0.1-0.8-0.4c-0.3-0.8,0-4,0-4.4c0-0.1,0.1-0.2,0.2-0.2
									c2.3-0.5,2.5-0.4,2.6-0.3c0.1,0.1,0.3,0.2,0.2,4.6c0,0.1-0.1,0.2-0.1,0.2C382.5,201.1,381.5,201.5,380.8,201.5z
									 M380.4,196.9c-0.2,1.4-0.3,3.5-0.1,4c0.2,0.3,1.3,0.1,2.1-0.3c0.1-1.7,0.1-3.6,0-4.1C382.2,196.6,381.3,196.8,380.4,196.9z
									"/>
							</g>
							<g>
								<path class="st15" d="M373.2,201.4c-0.1,0-0.1,0-0.1-0.1c0,0-0.1-0.1-0.1-0.2c0,0,0.2-3.4,0.2-4.2c0-0.2,0.1-0.3,0.2-0.4
									c0.6-0.5,2.1-0.2,2.3-0.2c0.1,0,0.2,0.1,0.2,0.2c0,0.1-0.1,0.2-0.2,0.2c-0.6-0.1-1.6-0.1-1.9,0.1c0,0-0.1,0.1-0.1,0.1
									c0,0.7-0.2,3.1-0.2,3.9c0.5-0.1,1.6-0.2,2-0.2c0.2-0.2,0.4-2.4,0.4-3.8c0-0.1,0.1-0.2,0.2-0.2c0.1,0,0.2,0.1,0.2,0.2
									c0,0.4,0,4.2-0.9,4.2C374.9,201.2,373.2,201.4,373.2,201.4C373.2,201.4,373.2,201.4,373.2,201.4z"/>
							</g>
							<g>
								<path class="st15" d="M378.9,198.8c-0.1,0-0.2,0-0.2-0.1c-0.1-0.1-0.9-0.1-1.6,0c-0.1,0-0.2-0.1-0.3-0.2
									c0-0.1,0.1-0.2,0.2-0.3c0.7-0.1,1.9-0.3,2.1,0.2C379.2,198.6,379.2,198.7,378.9,198.8C379,198.8,379,198.8,378.9,198.8z
									 M378.8,198.6L378.8,198.6L378.8,198.6z M378.8,198.6L378.8,198.6L378.8,198.6z"/>
							</g>
							<path class="st15" d="M379.2,198.1l-1-1.1c-0.1-0.1-0.2-0.1-0.3,0c-0.1,0.1-0.1,0.2,0,0.3l0.9,1l-0.5,1.3
								c0,0.1,0,0.2,0.1,0.3c0,0,0.1,0,0.1,0c0.1,0,0.2-0.1,0.2-0.1l0.5-1.4C379.3,198.3,379.3,198.2,379.2,198.1z"/>
							<g>
								<path class="st15" d="M374.5,198.3c-0.1,0-0.2-0.1-0.2-0.2c0-0.1,0.1-0.2,0.2-0.2l0.8-0.1c0.1,0,0.2,0.1,0.2,0.2
									c0,0.1-0.1,0.2-0.2,0.2L374.5,198.3C374.5,198.3,374.5,198.3,374.5,198.3z"/>
							</g>
							<g>
								<path class="st15" d="M375.1,199.2h-0.6c-0.1,0-0.2-0.1-0.2-0.2s0.1-0.2,0.2-0.2h0.6c0.1,0,0.2,0.1,0.2,0.2
									S375.2,199.2,375.1,199.2z"/>
							</g>
							<g>
								<path class="st15" d="M374.9,200.1h-0.6c-0.1,0-0.2-0.1-0.2-0.2s0.1-0.2,0.2-0.2h0.6c0.1,0,0.2,0.1,0.2,0.2
									S375,200.1,374.9,200.1z"/>
							</g>
						</g>
						<g>
							<g>
								<path class="st15" d="M335.7,201.5c-2.6,0-4.9-0.3-6.3-0.7c-0.1,0-0.1-0.1-0.1-0.1c0-0.1,0-0.1,0-0.2
									c0.8-1.4,1.7-5.5,1.3-10.5c0-0.1,0-0.1,0.1-0.2c0,0,0.1-0.1,0.2-0.1c0.1,0,8.6,0.2,11.7,0.2c0.1,0,0.2,0.1,0.2,0.2
									c0.5,4.8,0.1,8.4-1.2,10.8c0,0.1-0.1,0.1-0.2,0.1C339.5,201.4,337.5,201.5,335.7,201.5z M329.7,200.5
									c2.4,0.6,7.2,0.9,11.5,0.2c1.2-2.3,1.6-5.7,1.1-10.2c-3,0-9.9-0.1-11.3-0.2C331.3,195.1,330.4,199,329.7,200.5z"/>
							</g>
							<g>
								<path class="st15" d="M334.3,193.1c-0.9,0-1.6-0.8-1.6-0.9c-0.1-0.1-0.1-0.2,0-0.3c0.1-0.1,0.2-0.1,0.3,0
									c0,0,0.6,0.8,1.4,0.7c0.3,0,0.5-0.1,0.6-0.1c0.4-0.1,0.6-0.1,1.1,0.1c0.2,0.1,0.4-0.1,0.7-0.3c0.4-0.3,1-0.6,1.5-0.2
									c0.7,0.5,1.5,0.1,1.5,0.1c0.1-0.1,0.2,0,0.3,0.1s0,0.2-0.1,0.3c0,0-1.1,0.6-2-0.1c-0.3-0.2-0.6-0.1-1,0.2
									c-0.3,0.2-0.7,0.4-1.1,0.3c-0.4-0.2-0.5-0.1-0.8,0c-0.2,0-0.4,0.1-0.7,0.1C334.4,193.1,334.3,193.1,334.3,193.1z"/>
							</g>
							<g>
								<path class="st15" d="M334.6,195.8c-0.4,0-0.5-0.2-0.6-0.3c-0.3-0.5,0-1.3,0.1-1.4c0-0.1,0.2-0.2,0.3-0.1
									c0.1,0,0.2,0.2,0.1,0.3c-0.1,0.2-0.2,0.8-0.1,1c0,0,0.1,0.1,0.3,0.1c0.1,0,0.2,0.1,0.2,0.2S334.8,195.8,334.6,195.8z"/>
							</g>
							<g>
								<path class="st15" d="M334.6,196.7c-0.1,0-0.1,0-0.2-0.1c-0.1-0.1-0.1-0.2,0-0.3c0.3-0.2,0.6-0.5,0.6-0.6
									c0-0.1-0.2-0.5-0.4-0.8c-0.1-0.1,0-0.2,0.1-0.3c0.1-0.1,0.2,0,0.3,0.1c0.6,0.9,0.5,1.1,0.5,1.2c-0.1,0.2-0.5,0.6-0.8,0.8
									C334.7,196.7,334.6,196.7,334.6,196.7z"/>
							</g>
							<g>
								<path class="st15" d="M337.3,196.1c-0.2,0-0.5-0.1-0.7-0.3c-0.1-0.1-0.1-0.2,0-0.3c0.1-0.1,0.2-0.1,0.3,0
									c0.2,0.3,0.5,0.3,0.8,0.1c0.3-0.2,1.1-0.7,1.6,0.1c0.1,0.1,0,0.2-0.1,0.3c-0.1,0.1-0.2,0-0.3-0.1c-0.2-0.3-0.5-0.3-1,0
									C337.9,195.9,337.6,196.1,337.3,196.1z"/>
							</g>
							<g>
								<path class="st15" d="M334.6,198.5C334.6,198.5,334.5,198.5,334.6,198.5l-0.8-0.2c-0.2-0.1-0.4-0.2-0.5-0.4
									c-0.3-0.5,0-1.1,0-1.2c0-0.1,0.2-0.2,0.3-0.1c0.1,0,0.2,0.2,0.1,0.3c-0.1,0.2-0.2,0.6,0,0.9c0.1,0.1,0.1,0.1,0.2,0.2
									l0.8,0.2c0.1,0,0.2,0.1,0.2,0.3C334.8,198.5,334.7,198.5,334.6,198.5z"/>
							</g>
							<g>
								<path class="st15" d="M334.4,199.4c-0.1,0-0.1,0-0.2-0.1c-0.1-0.1-0.1-0.2,0-0.3c0.3-0.3,0.7-0.7,0.7-0.9
									c0-0.2-0.2-0.6-0.4-0.8c-0.1-0.1-0.1-0.2,0-0.3c0.1-0.1,0.2-0.1,0.3,0c0.1,0.1,0.5,0.7,0.5,1.1c0,0.4-0.6,1-0.8,1.2
									C334.5,199.4,334.4,199.4,334.4,199.4z"/>
							</g>
							<g>
								<path class="st15" d="M339.9,198.4c-0.1,0-0.2-0.1-0.2-0.1c-0.1,0-0.7-0.2-1.6,0c-1.2,0.3-1.8-0.5-1.8-0.5
									c-0.1-0.1-0.1-0.2,0-0.3c0.1-0.1,0.2-0.1,0.3,0c0,0,0.5,0.6,1.4,0.3c1.1-0.3,2-0.1,2.2,0.3
									C340.1,198.2,340,198.3,339.9,198.4C339.9,198.4,339.9,198.4,339.9,198.4z"/>
							</g>
						</g>
						<path class="st15" d="M341.3,173.9h-0.9c-0.1-1.1-1-2-2.1-2.2v-1.2c0-0.1-0.1-0.2-0.2-0.2c-0.1,0-0.2,0.1-0.2,0.2v1.2
							c-1.1,0.1-2,1-2.1,2.2h-1.1c-0.1,0-0.2,0.1-0.2,0.2c0,0.1,0.1,0.2,0.2,0.2h1.1c0.1,1.1,1,2,2.1,2.1v1.2c0,0.1,0.1,0.2,0.2,0.2
							c0.1,0,0.2-0.1,0.2-0.2v-1.2c1.1-0.1,2-1,2.1-2.1h0.9c0.1,0,0.2-0.1,0.2-0.2C341.5,174,341.4,173.9,341.3,173.9z M340,173.9
							h-1.7v-1.7C339.2,172.3,339.9,173,340,173.9z M337.9,172.2v1.7h-1.7C336.2,173,337,172.3,337.9,172.2z M336.1,174.3h1.7v1.7
							C337,175.9,336.3,175.2,336.1,174.3z M338.3,176v-1.7h1.7C339.9,175.2,339.2,175.9,338.3,176z"/>
						<path class="st15" d="M372.9,221.1h-1.4c0-0.1,0-0.3,0-0.4c0-1.7-1.3-3.1-3-3.2v-1.6c0-0.1-0.1-0.2-0.2-0.2
							c-0.1,0-0.2,0.1-0.2,0.2v1.6c-0.8,0.1-1.5,0.4-2.1,0.9c-0.7-0.6-1.5-1-2.5-1.1V215c0-0.1-0.1-0.2-0.2-0.2s-0.2,0.1-0.2,0.2
							v2.3c-2,0.1-3.7,1.8-3.8,3.8h-2.1c-0.1,0-0.2,0.1-0.2,0.2c0,0.1,0.1,0.2,0.2,0.2h2.1c0.1,2,1.7,3.6,3.8,3.7v2.3
							c0,0.1,0.1,0.2,0.2,0.2s0.2-0.1,0.2-0.2v-2.3c1.3-0.1,2.5-0.8,3.1-1.8c0.4,0.3,0.9,0.4,1.5,0.5v2.2c0,0.1,0.1,0.2,0.2,0.2
							c0.1,0,0.2-0.1,0.2-0.2v-2.2c1.4-0.1,2.6-1.1,2.9-2.4h1.5c0.1,0,0.2-0.1,0.2-0.2C373.1,221.2,373,221.1,372.9,221.1z
							 M371.1,220.7c0,0.1,0,0.3,0,0.4h-2.6v-3.2C370,218,371.1,219.2,371.1,220.7z M368.1,221.1h-0.8c0-0.9-0.4-1.7-0.9-2.4
							c0.5-0.5,1.1-0.8,1.8-0.8V221.1z M365.7,221.5h1.2c0,0.5-0.2,0.9-0.3,1.3C366.1,222.5,365.8,222,365.7,221.5z M365.6,221.1
							c0-0.1,0-0.3,0-0.4c0-0.6,0.2-1.2,0.5-1.7c0.5,0.6,0.8,1.3,0.8,2.1H365.6z M365.8,218.7c-0.4,0.5-0.7,1.2-0.7,2
							c0,0.1,0,0.3,0,0.4h-1.6v-3.4C364.4,217.8,365.2,218.2,365.8,218.7z M363.1,217.7v3.4h-3.3
							C359.9,219.3,361.3,217.8,363.1,217.7z M359.8,221.5h3.3v3.3C361.3,224.7,359.9,223.3,359.8,221.5z M363.5,224.8v-3.3h1.7
							c0.2,0.7,0.6,1.3,1.1,1.7C365.7,224.1,364.7,224.8,363.5,224.8z M366.9,223.1c0.2-0.5,0.4-1,0.4-1.6h0.8v2
							C367.7,223.5,367.3,223.3,366.9,223.1z M368.6,223.5v-2h2.5C370.7,222.6,369.7,223.4,368.6,223.5z"/>
						<g>
							<g>
								<path class="st15" d="M340.3,217.5c-1.5,0-3-0.3-3.7-0.5c-0.1,0-0.1-0.1-0.1-0.1c0-0.1,0-0.1,0-0.2c0.1-0.2,0.3-0.7,0.2-2.1
									c-0.1-1.5,0.1-2.4,0.1-2.5c0-0.1,0.1-0.2,0.2-0.2c0.8-0.2,2.4-0.2,3.7-0.1c0.8,0,1.6,0,2,0c0.1,0,0.2,0.1,0.2,0.2
									c0.2,2.1,0.1,3.4-0.1,4.8c0,0.1-0.1,0.1-0.1,0.2C342.2,217.4,341.3,217.5,340.3,217.5z M337,216.7c1.1,0.3,4.1,0.7,5.5,0
									c0.2-1.3,0.3-2.5,0.1-4.4c-0.5,0-1.1,0-1.8,0c-1.3,0-2.7,0-3.5,0.1c0,0.3-0.1,1.2-0.1,2.2
									C337.3,215.8,337.1,216.4,337,216.7z"/>
							</g>
							<g>
								<path class="st15" d="M340,213.7c-0.2,0-0.4-0.1-0.5-0.1c-0.1-0.1-0.2-0.1-0.3-0.1l-0.2,0c-0.4,0.1-1,0.3-1.4,0.1
									c-0.1-0.1-0.2-0.2-0.1-0.3c0.1-0.1,0.2-0.2,0.3-0.1c0.2,0.1,0.8,0,1.1-0.1l0.2,0c0.3-0.1,0.4,0,0.6,0.1
									c0.1,0.1,0.2,0.1,0.4,0.1c0.1,0,0.3-0.1,0.4-0.1c0.3-0.1,0.6-0.2,0.9,0.1c0.1,0.1,0.1,0.2,0,0.3c-0.1,0.1-0.2,0.1-0.3,0
									c-0.1-0.1-0.2,0-0.5,0C340.5,213.6,340.3,213.7,340,213.7C340.1,213.7,340,213.7,340,213.7z"/>
							</g>
							<g>
								<path class="st15" d="M340.7,215.3c-0.2,0-0.4-0.1-0.5-0.1c-0.1-0.1-0.2-0.1-0.3-0.1l-0.2,0c-0.4,0.1-1,0.3-1.4,0.1
									c-0.1-0.1-0.2-0.2-0.1-0.3c0.1-0.1,0.2-0.2,0.3-0.1c0.2,0.1,0.8,0,1.1-0.1l0.2,0c0.3-0.1,0.4,0,0.6,0.1
									c0.1,0.1,0.2,0.1,0.4,0.1c0.1,0,0.3-0.1,0.4-0.1c0.3-0.1,0.6-0.2,0.9,0.1c0.1,0.1,0.1,0.2,0,0.3c-0.1,0.1-0.2,0.1-0.3,0
									c-0.1-0.1-0.2,0-0.5,0C341.1,215.2,340.9,215.3,340.7,215.3C340.7,215.3,340.7,215.3,340.7,215.3z"/>
							</g>
						</g>
					</g>
				</g>
				<g id="Icon_2_">
					<g>
						<path class="st0" d="M359.6,198.5c-3.4,0-4.9-4-4.9-5.6c0-2.8-4.1-4.4-4.1-9.6c0-3.9,3-8.1,9-8.1s9,4.2,9,8.1
							c0,5.3-4.1,6.9-4.1,9.6C364.4,194.5,362.9,198.5,359.6,198.5z"/>
						<path class="st12" d="M368.8,183.3c0-4.1-3.2-8.3-9.2-8.3c-6.1,0-9.2,4.2-9.2,8.3c0,3.1,1.4,5,2.6,6.5c0.5,0.7,1,1.4,1.3,2
							h-0.7c-0.1,0-0.2,0.1-0.2,0.2c0,0.1,0.1,0.2,0.2,0.2h0.9c0.1,0.2,0.1,0.4,0.1,0.6c0,0.3,0.1,0.7,0.2,1.1h-1.1
							c-0.1,0-0.2,0.1-0.2,0.2c0,0.1,0.1,0.2,0.2,0.2h1.3c0.6,1.9,2.1,4.3,4.8,4.3c2.7,0,4.3-2.4,4.8-4.3h1c0.1,0,0.2-0.1,0.2-0.2
							c0-0.1-0.1-0.2-0.2-0.2h-0.9c0.1-0.4,0.2-0.8,0.2-1.1c0-0.2,0-0.4,0.1-0.6h0.6c0.1,0,0.2-0.1,0.2-0.2c0-0.1-0.1-0.2-0.2-0.2
							h-0.5c0.3-0.7,0.8-1.3,1.3-2C367.3,188.3,368.8,186.4,368.8,183.3z M359.6,198.3c-2.4,0-3.8-2.1-4.4-3.8h8.8
							C363.4,196.1,361.9,198.3,359.6,198.3z M364.2,192.9c0,0.3-0.1,0.7-0.2,1.1h-9c-0.1-0.4-0.2-0.8-0.2-1.1c0-0.2,0-0.4-0.1-0.6
							h9.5C364.3,192.5,364.2,192.7,364.2,192.9z M364.4,191.8h-9.8c-0.3-0.8-0.8-1.5-1.4-2.3c-1.2-1.5-2.5-3.3-2.5-6.3
							c0-3.9,3-7.8,8.8-7.8c5.8,0,8.8,3.9,8.8,7.8c0,3-1.3,4.7-2.5,6.3C365.2,190.3,364.7,191,364.4,191.8z"/>
						<g>
							<path class="st8" d="M360,191.7c-0.1,0-0.2-0.1-0.2-0.2c0-2.4,0-4.1,0.2-5.3c-0.4,0.1-0.9,0.1-1.3,0.1
								c0.2,2.1,0.2,4.7,0.2,5.2c0,0.1-0.1,0.2-0.2,0.2c-0.1,0-0.2-0.1-0.2-0.2c0-1.5,0-3.6-0.2-5.2c-1-0.3-1.7-1-1.8-1.6
								c-0.1-0.5,0.3-0.9,0.9-1.1c0.2,0,0.4,0,0.5,0.1c0.4,0.3,0.6,1.2,0.7,2.2c0.4,0.1,0.9,0,1.4-0.1c0.2-1,0.4-1.6,0.8-2
								c0.3-0.3,0.7-0.5,1.2-0.5c0.2,0,0.4,0,0.5,0.1c0.1,0.1,0.2,0.2,0.2,0.4c0,0.6-1.1,1.7-2.3,2.2c-0.2,1.2-0.2,3-0.2,5.5
								C360.2,191.6,360.2,191.7,360,191.7C360,191.7,360,191.7,360,191.7z M357.5,183.8C357.5,183.8,357.5,183.8,357.5,183.8
								c-0.3,0.1-0.7,0.3-0.6,0.6c0.1,0.4,0.5,0.9,1.3,1.2C358.1,184.7,357.9,184.1,357.5,183.8
								C357.6,183.8,357.6,183.8,357.5,183.8z M362,183.7c-0.4,0-0.7,0.1-0.9,0.3c-0.3,0.3-0.5,0.7-0.6,1.5c1-0.5,1.8-1.3,1.8-1.7
								c0,0,0-0.1,0-0.1C362.2,183.7,362.2,183.7,362,183.7z"/>
						</g>
					</g>
					<g>
						<path class="st12" d="M359.6,173L359.6,173c-0.1,0-0.2-0.1-0.2-0.2c0-0.4-0.1-1.2-0.2-2.2c-0.3-3.3-0.4-4.6,0-4.8
							c0.1-0.1,0.2-0.1,0.3,0c0.1,0.1,0.1,0.2,0,0.3c-0.2,0.3,0.1,3,0.2,4.5c0.1,1,0.2,1.8,0.2,2.2C359.8,172.9,359.7,173,359.6,173
							z"/>
					</g>
					<g>
						<path class="st12" d="M365.9,174.4c-0.1,0-0.1,0-0.2-0.1c-0.1-0.1-0.1-0.2,0-0.3c0.4-0.4,1.2-0.8,2-1.3c1.2-0.7,2.6-1.5,3-2.3
							c0.1-0.1,0.2-0.1,0.3-0.1c0.1,0.1,0.1,0.2,0.1,0.3c-0.4,0.8-1.8,1.6-3.2,2.4c-0.8,0.5-1.5,0.9-1.9,1.3
							C366,174.4,366,174.4,365.9,174.4z"/>
					</g>
					<g>
						<path class="st12" d="M372.8,182.1c-0.5,0-1,0-1.3-0.1c-0.1,0-0.2,0-0.3,0c-0.1,0-0.2-0.1-0.2-0.2c0-0.1,0.1-0.2,0.2-0.2
							c0.1,0,0.2,0,0.3,0c0.6,0,2.1,0.2,3.1-0.1c0.1,0,0.2,0,0.3,0.1c0,0.1,0,0.2-0.1,0.3C374.2,182,373.4,182.1,372.8,182.1z"/>
					</g>
					<g>
						<path class="st12" d="M351.6,175c0,0-0.1,0-0.1,0c-0.1-0.1-3.4-2.1-4.2-3.3c-0.1-0.1,0-0.2,0.1-0.3c0.1-0.1,0.2,0,0.3,0.1
							c0.8,1.1,4.1,3.2,4.1,3.2c0.1,0.1,0.1,0.2,0.1,0.3C351.7,174.9,351.6,175,351.6,175z"/>
					</g>
					<g>
						<path class="st12" d="M348.1,182.1C348.1,182.1,348,182.1,348.1,182.1c-1.4-0.4-3.6-0.8-4.2-0.5c-0.1,0.1-0.2,0-0.3-0.1
							c-0.1-0.1,0-0.2,0.1-0.3c0.9-0.5,4.1,0.4,4.5,0.5c0.1,0,0.2,0.2,0.1,0.3C348.3,182,348.2,182.1,348.1,182.1z"/>
					</g>
				</g>
				<g id="Text_Object_1_">
					<path class="st0" d="M350.9,210.1h-1v-4.7h1V210.1z"/>
					<path class="st0" d="M355,205v5h-0.8l-0.1-0.4c-0.2,0.3-0.5,0.5-1,0.5c-0.9,0-1.4-0.8-1.4-1.9c0-1.1,0.6-1.9,1.5-1.9
						c0.3,0,0.6,0.1,0.9,0.4v-1.8L355,205z M354,209v-1.6c-0.2-0.2-0.4-0.3-0.6-0.3c-0.4,0-0.7,0.4-0.7,1.2c0,0.9,0.3,1.2,0.7,1.2
						C353.6,209.4,353.8,209.3,354,209z"/>
					<path class="st0" d="M358.9,208.5h-2.2c0.1,0.7,0.4,0.9,0.9,0.9c0.3,0,0.6-0.1,0.9-0.3l0.4,0.5c-0.4,0.3-0.8,0.5-1.4,0.5
						c-1.2,0-1.8-0.8-1.8-1.9c0-1.1,0.6-1.9,1.6-1.9c1,0,1.6,0.7,1.6,1.8C359,208.3,358.9,208.4,358.9,208.5z M358,207.9
						c0-0.5-0.2-0.9-0.6-0.9c-0.4,0-0.6,0.3-0.7,0.9L358,207.9L358,207.9z"/>
					<path class="st0" d="M362.7,209.5l-0.2,0.6c-0.4,0-0.7-0.2-0.8-0.5c-0.3,0.4-0.7,0.5-1.1,0.5c-0.7,0-1.2-0.5-1.2-1.1
						c0-0.8,0.6-1.2,1.7-1.2h0.4v-0.2c0-0.4-0.2-0.6-0.6-0.6c-0.2,0-0.6,0.1-0.9,0.2l-0.2-0.6c0.4-0.2,0.9-0.3,1.3-0.3
						c1,0,1.4,0.4,1.4,1.3v1.5C362.4,209.3,362.5,209.5,362.7,209.5z M361.5,209.1v-0.7h-0.3c-0.5,0-0.8,0.2-0.8,0.6
						c0,0.3,0.2,0.5,0.5,0.5C361.1,209.5,361.3,209.3,361.5,209.1z"/>
					<path class="st0" d="M365.5,209.9c-0.3,0.2-0.6,0.3-0.9,0.3c-0.7,0-1.1-0.4-1.1-1.2v-1.8h-0.5v-0.7h0.5v-0.8l1-0.1v0.9h0.8
						l-0.1,0.7h-0.7v1.8c0,0.4,0.1,0.5,0.4,0.5c0.1,0,0.3,0,0.4-0.1L365.5,209.9z"/>
					<path class="st0" d="M368.9,208.5h-2.2c0.1,0.7,0.4,0.9,0.9,0.9c0.3,0,0.6-0.1,0.9-0.3l0.4,0.5c-0.4,0.3-0.8,0.5-1.4,0.5
						c-1.2,0-1.8-0.8-1.8-1.9c0-1.1,0.6-1.9,1.6-1.9c1,0,1.6,0.7,1.6,1.8C368.9,208.3,368.9,208.4,368.9,208.5z M368,207.9
						c0-0.5-0.2-0.9-0.6-0.9c-0.4,0-0.6,0.3-0.7,0.9L368,207.9L368,207.9z"/>
				</g>
			</g>
		</g>
		<g>
			<g>
				<g>
					<path class="st16" d="M372.1,152.5c-0.2,0-0.4-0.1-0.4-0.4c-2.8-15.7-12-29.6-25.4-38.3c-0.2-0.1-0.3-0.4-0.1-0.6
						c0.1-0.2,0.4-0.3,0.6-0.1c13.6,8.8,23,23,25.8,38.9C372.6,152.2,372.4,152.4,372.1,152.5C372.1,152.5,372.1,152.5,372.1,152.5z
						"/>
				</g>
				<g>
					<path class="st16" d="M372.1,152.5c-0.1,0-0.2,0-0.2-0.1l-3.5-2.4c-0.2-0.1-0.2-0.4-0.1-0.6c0.1-0.2,0.4-0.2,0.6-0.1l3.1,2.2
						l2.2-3.1c0.1-0.2,0.4-0.2,0.6-0.1s0.2,0.4,0.1,0.6l-2.4,3.5C372.4,152.4,372.3,152.5,372.1,152.5
						C372.1,152.5,372.1,152.5,372.1,152.5z"/>
				</g>
			</g>
			<g>
				<g>
					<path class="st16" d="M304,239.7c-11.2,0-21.9-3.6-30.8-10.3c-0.2-0.1-0.2-0.4-0.1-0.6c0.1-0.2,0.4-0.2,0.6-0.1
						c8.8,6.6,19.3,10.2,30.3,10.2c10.8,0,21.1-3.4,29.8-9.8c0.2-0.1,0.5-0.1,0.6,0.1c0.1,0.2,0.1,0.5-0.1,0.6
						C325.5,236.2,315,239.7,304,239.7z"/>
				</g>
				<g>
					<path class="st16" d="M273.8,233.1c-0.2,0-0.4-0.2-0.4-0.4l-0.5-3.7c0-0.2,0.1-0.5,0.4-0.5l3.7-0.5c0.2,0,0.5,0.1,0.5,0.4
						c0,0.2-0.1,0.5-0.4,0.5l-3.2,0.5l0.5,3.2C274.3,232.8,274.1,233.1,273.8,233.1C273.9,233.1,273.8,233.1,273.8,233.1z"/>
				</g>
			</g>
			<g>
				<g>
					<path class="st16" d="M238.2,151.1c0,0-0.1,0-0.1,0c-0.2-0.1-0.4-0.3-0.3-0.5c3.8-15.6,13.3-29,26.9-37.8
						c0.2-0.1,0.5-0.1,0.6,0.1c0.1,0.2,0.1,0.5-0.1,0.6c-13.4,8.6-22.8,21.8-26.5,37.2C238.6,151,238.4,151.1,238.2,151.1z"/>
				</g>
				<g>
					<path class="st16" d="M264.2,118C264.1,118,264.1,118,264.2,118c-0.3-0.1-0.5-0.3-0.4-0.5l0.9-4l-4-0.9
						c-0.2-0.1-0.4-0.3-0.3-0.5c0.1-0.2,0.3-0.4,0.5-0.3l4.4,0.9c0.1,0,0.2,0.1,0.3,0.2c0.1,0.1,0.1,0.2,0.1,0.3l-0.9,4.4
						C264.5,117.8,264.4,118,264.2,118z"/>
				</g>
			</g>
		</g>
		<g id="Prototype__x26__Test_-_ACTIVE_1_">
			<g id="Background_1_">
				<defs>
					<circle id="SVGID_7_" cx="250.2" cy="191" r="34.3"/>
				</defs>
				<clipPath id="SVGID_8_">
					<use xlink:href="#SVGID_7_"  style="overflow:visible;"/>
				</clipPath>
				<circle class="st17" cx="250.2" cy="191" r="34.3"/>
				<g class="st18">
					<path class="st19" d="M259.5,216.6C259.5,216.6,259.5,216.6,259.5,216.6C259.5,216.6,259.5,216.6,259.5,216.6
						c-2.5-2.1-5.2-4.2-5.7-4h0c-0.5,0.2-6.8,7.4-6.9,7.7c0,0.1,0,0.2,0,0.2c0.1,0.1,0.2,0.3,4.3,0.3c2.3,0,5.9,0,11.4-0.2
						c0.5,0,0.9,0,0.9,0c0.1,0,0.2-0.1,0.2-0.1c0.1-0.2,0-0.3-0.3-0.5C263,219.6,261.4,218.2,259.5,216.6z M262.5,220.3
						c-10.8,0.2-14.3,0.2-15.2,0.1c1-1.2,6-6.9,6.6-7.3c0.1,0,0.4,0.2,0.9,0.5l-0.5,0.6c-0.1,0.1-0.1,0.2,0,0.3c0,0,0.1,0.1,0.1,0.1
						c0.1,0,0.1,0,0.2-0.1l0.5-0.6c0.2,0.2,0.5,0.4,0.8,0.6l-0.3,0.3c-0.1,0.1-0.1,0.2,0,0.3c0,0,0.1,0.1,0.1,0.1
						c0.1,0,0.1,0,0.2-0.1l0.3-0.3c0.2,0.2,0.4,0.3,0.7,0.5l-0.5,0.6c-0.1,0.1-0.1,0.2,0,0.3c0,0,0.1,0.1,0.1,0.1
						c0.1,0,0.1,0,0.2-0.1l0.5-0.6c0.2,0.2,0.4,0.3,0.7,0.5l-0.3,0.3c-0.1,0.1-0.1,0.2,0,0.3c0,0,0.1,0.1,0.2,0.1
						c0.1,0,0.1,0,0.2-0.1l0.3-0.3c0.2,0.2,0.5,0.4,0.7,0.6l-0.5,0.5c-0.1,0.1-0.1,0.2,0,0.3c0,0,0.1,0.1,0.1,0.1
						c0.1,0,0.1,0,0.2-0.1l0.5-0.6c0.2,0.2,0.5,0.4,0.7,0.6l-0.2,0.2c-0.1,0.1-0.1,0.2,0,0.3c0,0,0.1,0.1,0.2,0.1
						c0.1,0,0.1,0,0.1-0.1l0.3-0.2c0.2,0.2,0.5,0.4,0.7,0.6l-0.5,0.5c-0.1,0.1-0.1,0.2,0,0.3c0,0,0.1,0.1,0.2,0.1
						c0.1,0,0.1,0,0.2-0.1l0.5-0.6c0.7,0.6,1.3,1.2,1.6,1.5C262.9,220.3,262.7,220.3,262.5,220.3z"/>
					<path class="st19" d="M254.3,215.8c-0.3,0.1-2.5,2.8-2.5,2.8c0,0.1,0,0.2,0,0.2c0.1,0.1,0.1,0.2,1.7,0.2c0.4,0,0.9,0,1.6,0
						c0.7,0,1.5,0,2.4,0c0.1,0,0.2,0,0.3,0c0,0,0,0,0,0c0.1,0,0.2-0.1,0.2-0.1c0.1-0.1,0-0.3-0.1-0.3
						C257.8,218.4,254.7,215.6,254.3,215.8z M252.3,218.5c0.5-0.6,1.8-2.1,2.1-2.3c0.4,0.2,2.2,1.6,2.9,2.3
						C254.1,218.6,252.8,218.6,252.3,218.5z"/>
					<path class="st19" d="M281.3,189.8c-0.1-4-0.3-6.1-0.6-6.5c0,0-0.1,0-0.1-0.1c-0.1,0-0.1,0-0.2-0.1c-0.1,0-0.1,0-0.2,0
						c-0.1-0.3-0.1-0.4-0.2-0.4c0,0-0.1,0-0.1-0.1c-1-0.1-1.9-0.2-2.8-0.2l0-2.1c0-0.1-0.1-0.2-0.1-0.2c-0.1,0-0.2,0-0.2,0.1
						l-0.1,0.2l-0.1-0.1c-0.1-0.1-0.2-0.1-0.3-0.1l-0.3,0.1l-0.4-0.2c-0.1,0-0.2,0-0.2,0l-0.3,0.2l-0.3-0.1c-0.1,0-0.1,0-0.2,0
						c-0.1,0-0.1,0.1-0.1,0.2l0,2c-2.2,0.1-3.3,0.5-3.4,0.5c-0.1,0-0.1,0.1-0.1,0.2c0,0.2,0,0.7,0,1.4c-0.2,9.9-0.1,12.2,0.2,12.4
						c0.1,0.1,0.2,0.1,0.5,0.2c0,0.2,0.1,0.3,0.1,0.3c0.2,0.3,1.5,0.4,3.1,0.4c2.2,0,5-0.2,6.2-0.5c0.1,0,0.1-0.1,0.2-0.2
						C281.3,196.2,281.4,193,281.3,189.8z M275,180.9c0.1,0,0.1,0,0.2,0l0.2-0.2l0.4,0.2c0.1,0,0.1,0,0.2,0l0.2-0.1l0.1,0.2
						c0,0.1,0.1,0.1,0.2,0.1c0,0,0.1,0,0.1,0l0.1,2.9c0,0,0,0,0,0c-0.1,0-0.1,0-0.2,0.1l-0.2,0.2l-0.5-0.1c-0.1,0-0.1,0-0.2,0
						c0,0-0.2,0.1-0.3,0.2c0,0-0.1-0.1-0.2-0.2c0-0.1-0.1-0.1-0.2-0.1c0,0-0.1,0-0.1,0l-0.1,0l-0.1-3.2L275,180.9z M271.3,184.6
						c0-0.6,0-1,0-1.2c0.4-0.1,1.4-0.3,3.1-0.4l0,1.5c0,0.1,0,0.1,0.1,0.2c0.1,0,0.1,0,0.2,0l0.2-0.1c0.1,0.2,0.2,0.2,0.3,0.3
						c0,0,0,0,0,0c0.1,0,0.1,0,0.2,0c0.1,0,0.2-0.2,0.3-0.2l0.5,0.1c0.1,0,0.1,0,0.2-0.1l0.1-0.1l0.1,0.2c0.1,0.1,0.2,0.1,0.2,0.1
						c0.1,0,0.2-0.1,0.1-0.2l0-1.5c0.9,0,1.8,0.1,2.7,0.2c0.2,0.5,0.5,3.2,0.2,13.3l0,0.1c-2.1,0.5-6.7,0.6-8.1,0.4
						c0,0-0.1-0.1-0.2,0c0,0,0,0,0,0c-0.1,0-0.2-0.1-0.3-0.1C271.1,196.2,271.2,187.5,271.3,184.6z M280.7,197
						c-2.3,0.5-7.9,0.6-8.7,0.3c0.6,0.1,1.3,0.1,2.1,0.1c2.2,0,4.8-0.2,6-0.5c0.1,0,0.2-0.1,0.2-0.2l0-0.3
						c0.2-8.1,0.1-11.4-0.1-12.8c0.1,0,0.1,0,0.2,0C280.9,184.6,281.1,194.4,280.7,197z"/>
					<path class="st19" d="M272.7,189.6C272.7,189.6,272.7,189.6,272.7,189.6l6.3-0.1c0.1,0,0.1,0,0.2-0.1c0,0,0.1-0.1,0.1-0.2
						l-0.2-3.3c0-0.1-0.1-0.2-0.2-0.2c0,0,0,0,0,0l-6.1,0.1c-0.1,0-0.2,0.1-0.2,0.2v3.3c0,0.1,0,0.1,0.1,0.2
						C272.6,189.6,272.7,189.6,272.7,189.6z M273,186.5l2.4,1.2l-2.4,1.2V186.5z M278.8,188.9l-2.5-1.2l2.4-1.2L278.8,188.9z
						 M278.2,189.1l-4.9,0.1l2.4-1.3L278.2,189.1z M275.8,187.5l-2.3-1.1l4.5-0.1L275.8,187.5z"/>
					<path class="st19" d="M272.6,191.6c0.2,0.1,0.4,0.1,0.6,0.1c0.3,0,0.6-0.1,0.9-0.2c0.2-0.1,0.4-0.2,0.6-0.2
						c0.3,0,0.8,0,1.2,0.1c0.4,0,0.8,0.1,1.1,0.1c0.7,0,1.7,0,1.7,0c0.1,0,0.2-0.1,0.2-0.2c0-0.1-0.1-0.2-0.2-0.2c0,0-1,0-1.7,0
						c-0.3,0-0.7-0.1-1.1-0.1c-0.4,0-0.9-0.1-1.2-0.1c-0.3,0-0.5,0.1-0.8,0.2c-0.4,0.1-0.7,0.3-1.1,0.1c-0.1,0-0.2,0-0.3,0.1
						C272.4,191.4,272.5,191.5,272.6,191.6z"/>
					<path class="st19" d="M278.6,192.4c0,0-0.1,0-0.2,0c-0.3,0.1-0.8,0.2-1.3,0.1c-0.7-0.2-1.4-0.1-2.4,0.1c-0.7,0.2-1.3,0.1-1.7,0
						c-0.1,0-0.2,0-0.3,0c-0.1,0-0.2,0.1-0.2,0.2c0,0.1,0.1,0.2,0.2,0.2c0.1,0,0.2,0,0.3,0c0.3,0,0.6,0.1,1,0.1c0.3,0,0.6,0,0.9-0.1
						c0.9-0.2,1.6-0.3,2.2-0.1c0.6,0.2,1.2,0,1.5-0.1c0.1,0,0.1,0,0.2,0c0.1,0,0.2-0.1,0.2-0.3C278.9,192.4,278.8,192.4,278.6,192.4
						z"/>
					<path class="st19" d="M277.2,194h-2.9c-0.5,0-0.9,0.4-0.9,0.9c0,0.5,0.4,0.9,0.9,0.9h2.9c0.5,0,0.9-0.4,0.9-0.9
						C278.1,194.4,277.7,194,277.2,194z M277.2,195.4h-2.9c-0.2,0-0.5-0.2-0.5-0.5c0-0.2,0.2-0.5,0.5-0.5h2.9c0.2,0,0.5,0.2,0.5,0.5
						C277.6,195.2,277.4,195.4,277.2,195.4z"/>
					<path class="st19" d="M269.7,164.6l-1.5,1.7c-0.6-0.7-1.5-1.2-2.5-1.2c-1.8,0-3.2,1.4-3.2,3.2s1.4,3.2,3.2,3.2
						c1.8,0,3.2-1.4,3.2-3.2c0-0.6-0.2-1.2-0.5-1.6l1.6-1.7c0.1-0.1,0.1-0.2,0-0.3C269.9,164.5,269.8,164.5,269.7,164.6z
						 M268.5,168.3c0,1.5-1.2,2.7-2.7,2.7c-1.5,0-2.7-1.2-2.7-2.7c0-1.5,1.2-2.7,2.7-2.7c0.9,0,1.7,0.4,2.2,1.1l-2.1,2.4l-1.4-1.5
						c-0.1-0.1-0.2-0.1-0.3,0c-0.1,0.1-0.1,0.2,0,0.3l1.6,1.7c0,0,0.1,0.1,0.2,0.1c0.1,0,0.1,0,0.2-0.1l2.2-2.5
						C268.4,167.3,268.5,167.8,268.5,168.3z"/>
					<path class="st19" d="M235.4,159.7h-5.1c-0.1,0-0.2,0.1-0.2,0.2v22c0,0.1,0.1,0.2,0.2,0.2h5.1c0.1,0,0.2-0.1,0.2-0.2v-22
						C235.6,159.8,235.5,159.7,235.4,159.7z M235.2,181.7h-4.7v-1.3h1.8c0.1,0,0.2-0.1,0.2-0.2c0-0.1-0.1-0.2-0.2-0.2h-1.8v-1.6h0.8
						c0.1,0,0.2-0.1,0.2-0.2c0-0.1-0.1-0.2-0.2-0.2h-0.8v-1.3h1.8c0.1,0,0.2-0.1,0.2-0.2c0-0.1-0.1-0.2-0.2-0.2h-1.8v-1.4h0.8
						c0.1,0,0.2-0.1,0.2-0.2s-0.1-0.2-0.2-0.2h-0.8V173h1.8c0.1,0,0.2-0.1,0.2-0.2c0-0.1-0.1-0.2-0.2-0.2h-1.8v-1.4h0.8
						c0.1,0,0.2-0.1,0.2-0.2c0-0.1-0.1-0.2-0.2-0.2h-0.8v-1.5h1.8c0.1,0,0.2-0.1,0.2-0.2s-0.1-0.2-0.2-0.2h-1.8v-1.3h0.8
						c0.1,0,0.2-0.1,0.2-0.2c0-0.1-0.1-0.2-0.2-0.2h-0.8v-1.5h1.8c0.1,0,0.2-0.1,0.2-0.2s-0.1-0.2-0.2-0.2h-1.8v-1.5h0.8
						c0.1,0,0.2-0.1,0.2-0.2c0-0.1-0.1-0.2-0.2-0.2h-0.8v-1.4h1.8c0.1,0,0.2-0.1,0.2-0.2c0-0.1-0.1-0.2-0.2-0.2h-1.8v-1.2h4.7V181.7
						z"/>
					<path class="st19" d="M225.5,189.4L224,191c-0.6-0.7-1.5-1.2-2.5-1.2c-1.8,0-3.2,1.4-3.2,3.2c0,1.8,1.4,3.2,3.2,3.2
						c1.8,0,3.2-1.4,3.2-3.2c0-0.6-0.2-1.2-0.5-1.6l1.6-1.7c0.1-0.1,0.1-0.2,0-0.3C225.7,189.3,225.6,189.3,225.5,189.4z M224.3,193
						c0,1.5-1.2,2.7-2.7,2.7c-1.5,0-2.7-1.2-2.7-2.7c0-1.5,1.2-2.7,2.7-2.7c0.9,0,1.7,0.4,2.2,1.1l-2.1,2.4l-1.4-1.5
						c-0.1-0.1-0.2-0.1-0.3,0c-0.1,0.1-0.1,0.2,0,0.3l1.6,1.7c0,0,0.1,0.1,0.2,0.1c0.1,0,0.1,0,0.2-0.1l2.2-2.5
						C224.2,192.1,224.3,192.6,224.3,193z"/>
				</g>
			</g>
			<g id="Icon_1_">
				<g>
					<polygon class="st0" points="235.4,195.2 250.3,167.5 255.5,174 255.2,181.7 259.7,178.7 264.3,184.6 					"/>
					<path class="st20" d="M235.4,195.4c0,0-0.1,0-0.1-0.1c0-0.1-0.1-0.1,0-0.2l15-27.8c0-0.1,0.1-0.1,0.1-0.1c0.1,0,0.1,0,0.1,0.1
						l5.1,6.5c0,0,0,0.1,0,0.1l-0.3,7.4l4.3-2.8c0.1,0,0.2,0,0.2,0l4.6,5.8c0,0,0,0.1,0,0.2c0,0.1-0.1,0.1-0.1,0.1L235.4,195.4
						C235.4,195.4,235.4,195.4,235.4,195.4z M250.4,167.8l-14.6,27.2l28.3-10.4l-4.3-5.5l-4.4,2.9c-0.1,0-0.1,0-0.2,0
						c-0.1,0-0.1-0.1-0.1-0.2l0.3-7.7L250.4,167.8z"/>
				</g>
				<g>
					<polygon class="st21" points="255,181.8 236.1,194.6 255.3,174.2 					"/>
				</g>
				<g>
					<path class="st22" d="M235.8,195.1c0,0-0.1,0-0.1-0.1c-0.1-0.1-0.1-0.2,0-0.2l19.5-20.8c0.1-0.1,0.2-0.1,0.2,0
						c0.1,0.1,0.1,0.2,0,0.2l-18.4,19.6l18-12.2c0.1-0.1,0.2,0,0.2,0c0.1,0.1,0,0.2,0,0.2L235.8,195.1
						C235.8,195.1,235.8,195.1,235.8,195.1z"/>
				</g>
			</g>
			<g id="Text_object_1_">
				<path class="st0" d="M227.3,205c0,1.1-0.8,1.6-1.8,1.6h-0.5v1.6h-1v-4.7h1.4C226.5,203.5,227.3,204,227.3,205z M226.2,205
					c0-0.5-0.3-0.8-0.9-0.8h-0.4v1.6h0.5C225.9,205.8,226.2,205.6,226.2,205z"/>
				<path class="st0" d="M230.1,204.5l-0.2,0.9c-0.1,0-0.2,0-0.3,0c-0.4,0-0.6,0.3-0.8,0.9v1.8h-1v-3.6h0.8l0.1,0.7
					c0.2-0.5,0.5-0.8,0.9-0.8C229.9,204.5,230,204.5,230.1,204.5z"/>
				<path class="st0" d="M233.7,206.4c0,1.1-0.6,1.9-1.7,1.9c-1.1,0-1.7-0.7-1.7-1.9c0-1.1,0.6-1.9,1.7-1.9
					C233.1,204.5,233.7,205.2,233.7,206.4z M231.3,206.4c0,0.8,0.2,1.2,0.7,1.2c0.5,0,0.7-0.4,0.7-1.2c0-0.8-0.2-1.2-0.7-1.2
					C231.5,205.2,231.3,205.6,231.3,206.4z"/>
				<path class="st0" d="M236.6,208c-0.3,0.2-0.6,0.3-0.9,0.3c-0.7,0-1.1-0.4-1.1-1.2v-1.8H234v-0.7h0.5v-0.8l1-0.1v0.9h0.8
					l-0.1,0.7h-0.7v1.8c0,0.4,0.1,0.5,0.4,0.5c0.1,0,0.3,0,0.4-0.1L236.6,208z"/>
				<path class="st0" d="M240.2,206.4c0,1.1-0.6,1.9-1.7,1.9c-1.1,0-1.7-0.7-1.7-1.9c0-1.1,0.6-1.9,1.7-1.9
					C239.5,204.5,240.2,205.2,240.2,206.4z M237.7,206.4c0,0.8,0.2,1.2,0.7,1.2c0.5,0,0.7-0.4,0.7-1.2c0-0.8-0.2-1.2-0.7-1.2
					C238,205.2,237.7,205.6,237.7,206.4z"/>
				<path class="st0" d="M243,208c-0.3,0.2-0.6,0.3-0.9,0.3c-0.7,0-1.1-0.4-1.1-1.2v-1.8h-0.5v-0.7h0.5v-0.8l1-0.1v0.9h0.8l-0.1,0.7
					h-0.7v1.8c0,0.4,0.1,0.5,0.4,0.5c0.1,0,0.3,0,0.4-0.1L243,208z"/>
				<path class="st0" d="M245.3,208.2c-0.3,0.9-0.8,1.4-1.9,1.5l-0.1-0.7c0.7-0.1,1-0.3,1.1-0.8h-0.3l-1.1-3.6h1l0.7,3l0.8-3h1
					L245.3,208.2z"/>
				<path class="st0" d="M250.2,206.4c0,1.1-0.5,1.9-1.4,1.9c-0.4,0-0.7-0.1-0.9-0.4v1.7l-1,0.1v-5.1h0.8l0,0.4
					c0.3-0.4,0.7-0.5,1-0.5C249.8,204.5,250.2,205.2,250.2,206.4z M249.2,206.4c0-0.9-0.2-1.2-0.6-1.2c-0.3,0-0.5,0.2-0.7,0.5v1.6
					c0.2,0.2,0.4,0.4,0.6,0.4C248.9,207.6,249.2,207.2,249.2,206.4z"/>
				<path class="st0" d="M253.9,206.7h-2.2c0.1,0.7,0.4,0.9,0.9,0.9c0.3,0,0.6-0.1,0.9-0.3l0.4,0.5c-0.4,0.3-0.8,0.5-1.4,0.5
					c-1.1,0-1.7-0.8-1.7-1.9c0-1.1,0.6-1.9,1.6-1.9c1,0,1.6,0.7,1.6,1.8C254,206.4,253.9,206.6,253.9,206.7z M253,206
					c0-0.5-0.2-0.9-0.6-0.9c-0.4,0-0.6,0.2-0.7,0.9L253,206L253,206z"/>
				<path class="st0" d="M259.3,204.5c0,0.6-0.4,0.9-0.9,1.3l1,0.9c0.1-0.3,0.2-0.6,0.3-1l0.8,0.2c-0.2,0.5-0.4,0.9-0.6,1.3l0.8,0.7
					l-0.8,0.4l-0.6-0.5c-0.4,0.4-0.9,0.5-1.5,0.5c-1,0-1.6-0.5-1.6-1.3c0-0.6,0.3-0.9,0.9-1.3c-0.5-0.4-0.6-0.7-0.6-1.2
					c0-0.6,0.5-1.1,1.4-1.1C258.8,203.4,259.3,203.8,259.3,204.5z M257.3,206.9c0,0.4,0.3,0.7,0.8,0.7c0.3,0,0.6-0.1,0.8-0.3
					l-1.2-1.1C257.4,206.4,257.3,206.6,257.3,206.9z M257.5,204.5c0,0.3,0.1,0.4,0.4,0.7c0.3-0.2,0.5-0.4,0.5-0.7
					c0-0.3-0.2-0.5-0.5-0.5C257.7,204,257.5,204.2,257.5,204.5z"/>
				<path class="st0" d="M266.3,204.3h-1.2v3.9h-1v-3.9h-1.2v-0.8h3.5L266.3,204.3z"/>
				<path class="st0" d="M269.3,206.7h-2.2c0.1,0.7,0.4,0.9,0.9,0.9c0.3,0,0.6-0.1,0.9-0.3l0.4,0.5c-0.4,0.3-0.8,0.5-1.4,0.5
					c-1.1,0-1.7-0.8-1.7-1.9c0-1.1,0.6-1.9,1.6-1.9c1,0,1.6,0.7,1.6,1.8C269.3,206.4,269.3,206.6,269.3,206.7z M268.4,206
					c0-0.5-0.2-0.9-0.6-0.9c-0.4,0-0.6,0.2-0.7,0.9L268.4,206L268.4,206z"/>
				<path class="st0" d="M272.5,204.9l-0.4,0.5c-0.3-0.2-0.6-0.3-0.9-0.3c-0.3,0-0.5,0.1-0.5,0.3c0,0.2,0.1,0.3,0.7,0.5
					c0.7,0.2,1.1,0.5,1.1,1.1c0,0.7-0.7,1.2-1.5,1.2c-0.6,0-1.1-0.2-1.5-0.5l0.5-0.5c0.3,0.2,0.6,0.4,1,0.4s0.6-0.1,0.6-0.4
					c0-0.3-0.1-0.4-0.8-0.5c-0.7-0.2-1.1-0.6-1.1-1.1c0-0.6,0.6-1.1,1.4-1.1C271.8,204.5,272.2,204.6,272.5,204.9z"/>
				<path class="st0" d="M275.4,208c-0.3,0.2-0.6,0.3-0.9,0.3c-0.7,0-1.1-0.4-1.1-1.2v-1.8h-0.5v-0.7h0.5v-0.8l1-0.1v0.9h0.8
					l-0.1,0.7h-0.7v1.8c0,0.4,0.1,0.5,0.4,0.5c0.1,0,0.3,0,0.4-0.1L275.4,208z"/>
			</g>
		</g>
	</g>
	<rect x="24.4" y="28.9" class="st23" width="271.9" height="257.7"/>
	<text transform="matrix(1 0 0 1 24.4196 35.624)"><tspan x="0" y="0" class="st24 st25">The Open Innovation Toolkit is sourced from best practices across </tspan><tspan x="0" y="12" class="st24 st25">multiple industries to help you incorporate human-centered </tspan><tspan x="0" y="24" class="st24 st25">design into your product development process.</tspan><tspan x="0" y="48" class="st24 st25">Whether you have a design method that has worked</tspan><tspan x="0" y="60" class="st24 st25">well in distributed teams, or you want to learn more </tspan><tspan x="0" y="72" class="st24 st25">about the resources already available, the </tspan><tspan x="0" y="84" class="st24 st25">Open Innovation Toolkit is the place to go.</tspan><tspan x="0" y="108" class="st24 st25">More than anything, this toolkit is an invitation </tspan><tspan x="0" y="120" class="st24 st25">to everyone, from developers to advocates, to </tspan><tspan x="0" y="132" class="st24 st25">share your experiences, methods and ideas </tspan><tspan x="0" y="144" class="st24 st25">to help build this collective resource that </tspan><tspan x="0" y="156" class="st24 st25">can help the community learn from each </tspan><tspan x="0" y="168" class="st24 st25">other and build a better way of integrating </tspan><tspan x="0" y="180" class="st24 st25">human-centered design in open source </tspan><tspan x="0" y="192" class="st24 st25">and beyond.</tspan><tspan x="0" y="216" class="st24 st25">Were currently in beta so we invite you to </tspan><tspan x="0" y="228" class="st24 st25">visit us at </tspan><tspan x="41.7" y="228" class="st26 st27 st25">toolkit.mozilla.org</tspan><tspan x="117.3" y="228" class="st24 st25"> and share your ideas!</tspan></text>
</g>
<g id="pattern_overlay">
	<defs>
		<polygon id="SVGID_9_" points="-471.9,306 -35.7,306 -35.7,-8.5 -471.9,-8.5 -471.9,297.9 -471.9,297.9 		"/>
	</defs>
	<clipPath id="SVGID_10_">
		<use xlink:href="#SVGID_9_"  style="overflow:visible;"/>
	</clipPath>
	<g class="st34">
		<g>
			<g>
				<path class="st2" d="M-29.5,77.1c9.5-0.8,18.9,0.2,27.6,4.1c1.5,0.6,2.8-1.5,1.3-2.2c-9.2-4.1-18.9-5.2-28.9-4.4
					C-31.1,74.7-31.1,77.3-29.5,77.1L-29.5,77.1z"/>
			</g>
		</g>
	</g>
</g>
</svg>
