<?xml version="1.0" encoding="utf-8"?>
<!-- Generator: Adobe Illustrator 20.1.0, SVG Export Plug-In . SVG Version: 6.00 Build 0)  -->
<!DOCTYPE svg PUBLIC "-//W3C//DTD SVG 1.1//EN" "http://www.w3.org/Graphics/SVG/1.1/DTD/svg11.dtd">
<svg version="1.1" id="Artwork" xmlns="http://www.w3.org/2000/svg" xmlns:xlink="http://www.w3.org/1999/xlink" x="0px" y="0px"
	 viewBox="0 0 419.5 297.6" style="enable-background:new 0 0 419.5 297.6;" xml:space="preserve">
<style type="text/css">
	.st0{fill:#FFFFFF;}
	.st1{clip-path:url(#SVGID_2_);}
	.st2{fill:#D01843;}
	.st3{fill:#4483C1;}
	.st4{fill:#44B798;}
	.st5{fill:#1AAFE5;}
	.st6{fill:#AC5FA2;}
	.st7{fill:#7EC04D;}
	.st8{fill:#F49C29;}
	.st9{clip-path:url(#SVGID_4_);fill:#11A189;}
	.st10{clip-path:url(#SVGID_4_);}
	.st11{fill:#56BBA0;}
	.st12{fill:#171717;}
	.st13{clip-path:url(#SVGID_6_);fill:#F0831E;}
	.st14{clip-path:url(#SVGID_6_);}
	.st15{fill:#F5A75E;}
	.st16{fill:#2F2F30;}
	.st17{clip-path:url(#SVGID_8_);fill:#AF4993;}
	.st18{clip-path:url(#SVGID_8_);}
	.st19{fill:#BE70AB;}
	.st20{fill:#010100;}
	.st21{fill:#E0C8DE;}
	.st22{fill:#AF4993;}
	.st23{fill:#5869A2;}
	.st24{fill:none;}
	.st25{font-family:'FiraSans-Regular';}
	.st26{font-size:11px;}
	.st27{font-family:'CooperHewitt-Bold';}
	.st28{font-size:13px;}
	.st29{fill:#11A189;}
	.st30{fill:#F0831E;}
	.st31{fill:#328F3A;}
	.st32{fill:#0F4B6E;}
	.st33{fill:#E72E20;}
	.st34{fill:#2A2F33;}
	.st35{clip-path:url(#SVGID_10_);}
</style>
<rect x="-8.5" y="-8.5" class="st0" width="436.5" height="314.6"/>
<rect x="42.5" y="124.4" class="st24" width="334.5" height="132.2"/>
<text transform="matrix(1 0 0 1 47.6256 132.6475)"><tspan x="0" y="0" class="st25 st26">The Open Innovation Toolkit is a collection of tools and methods</tspan><tspan x="4.8" y="16" class="st25 st26">for human-centered design for people engaged in open source</tspan><tspan x="4.4" y="32" class="st25 st26">product design and beyond. We invite everyone to use it, share</tspan><tspan x="16.4" y="48" class="st25 st26">their experiences, methods and ideas to help us build this</tspan><tspan x="113.5" y="64" class="st25 st26">collective resource.</tspan><tspan x="115.3" y="96" class="st25 st26">To learn more visit</tspan><tspan x="107.7" y="112" class="st23 st27 st28">toolkit.mozilla.org</tspan></text>
<g>
	<g>
		<path d="M156,70.5v-0.9c0-6.1,2-8.6,6-8.6c4,0,6,2.5,6,8.6v0.9c0,6.1-2,8.6-6,8.6C158,79.1,156,76.6,156,70.5z M162.1,77.6
			c2.9,0,4.3-2.1,4.3-7.1v-0.9c0-5-1.3-7.1-4.3-7.1h-0.2c-2.9,0-4.3,2.1-4.3,7.1v0.9c0,5,1.3,7.1,4.3,7.1H162.1z"/>
		<path d="M172.3,77.5v5.8h-1.6v-13l-0.1-3.4h1.3l0.2,1.6c0.6-1,1.7-1.9,3.6-1.9c3.3,0,4.6,2.6,4.6,5.9v0.5c0,3.3-1.3,5.9-4.6,5.9
			C174.1,79.1,173,78.4,172.3,77.5z M172.3,75.8c0.5,0.8,1.4,1.8,3,1.8c2.2,0,3.3-1.8,3.3-4.5v-0.5c0-2.8-1.1-4.5-3.3-4.5
			c-1.6,0-2.5,1.1-3,1.8V75.8z"/>
		<path d="M184.1,73.5c0.1,2.6,1.2,4.2,3.6,4.2c2.4,0,3.4-1.5,3.4-2.7h1.5v0.1c0,1.8-1.5,4-4.9,4c-3.6,0-5.2-2.7-5.2-6v-0.5
			c0-3.3,1.6-6,5-6c3.5,0,5,2.7,5,6v0.9H184.1z M184.1,72.2h6.8c-0.1-2.6-1.1-4.2-3.4-4.2C185.2,68,184.1,69.6,184.1,72.2z"/>
		<path d="M202.5,78.8v-8.1c0-1.8-1-2.6-2.6-2.6c-1.9,0-2.8,1.1-3.3,1.8v8.9h-1.6v-8.5l-0.1-3.4h1.3l0.2,1.7c0.7-1.1,2-1.9,4-1.9
			c2.4,0,3.6,1.6,3.6,3.8v8.3H202.5z"/>
	</g>
	<g>
		<path d="M210.9,79.1h-1.6V61.5h1.6V79.1z"/>
		<path d="M221.6,79.1v-8.1c0-1.8-1-2.6-2.6-2.6c-1.9,0-2.8,1.1-3.3,1.8v8.9h-1.6v-8.5l-0.1-3.4h1.3l0.2,1.7c0.7-1.1,2-1.9,4-1.9
			c2.4,0,3.6,1.6,3.6,3.8v8.3H221.6z"/>
		<path d="M233.5,79.1v-8.1c0-1.8-1-2.6-2.6-2.6c-1.9,0-2.8,1.1-3.3,1.8v8.9H226v-8.5l-0.1-3.4h1.3l0.2,1.7c0.7-1.1,2-1.9,4-1.9
			c2.4,0,3.6,1.6,3.6,3.8v8.3H233.5z"/>
		<path d="M237.5,73.4v-0.5c0-3.3,1.5-5.9,5-5.9s5,2.6,5,5.9v0.5c0,3.3-1.5,5.9-5,5.9S237.5,76.7,237.5,73.4z M245.9,73.4v-0.5
			c0-2.7-1.1-4.5-3.4-4.5c-2.4,0-3.4,1.8-3.4,4.5v0.5c0,2.7,1.1,4.5,3.4,4.5C244.9,77.9,245.9,76.1,245.9,73.4z"/>
		<path d="M248.9,67.1h1.7l3.5,10.4l3.5-10.4h1.7l-4.2,11.9h-2.1L248.9,67.1z"/>
		<path d="M268.1,77.4c-0.8,1-2.1,1.9-4.2,1.9c-2.2,0-3.4-1.3-3.4-3.3v-0.2c0-2.6,2-3.3,3.9-3.6l3.6-0.6v-0.3c0-2-0.7-3.1-2.8-3.1
			c-2.2,0-2.8,1.3-2.8,2.9h-1.5v-0.2c0-1.8,0.8-4,4.3-4c3.3,0,4.3,1.8,4.3,4.4v4.4l0.1,3.4h-1.3L268.1,77.4z M267.9,76v-3.3
			l-3.5,0.6c-1.5,0.3-2.5,1-2.5,2.4v0.2c0,1.1,0.7,2,2.3,2C266.5,77.9,267.5,76.7,267.9,76z"/>
		<path d="M278.6,67.1v1.4h-3.8v7c0,1.9,0.8,2.3,2.3,2.3c0.5,0,1.1-0.1,1.3-0.2v1.4c-0.2,0.1-0.7,0.2-1.7,0.2c-2,0-3.5-1-3.5-3.6
			v-7.2h-1.9v-1.4h1.9v-3.4h1.6v3.4H278.6z"/>
		<path d="M283.1,64.3h-2v-2h2V64.3z M281.3,67.1h1.6v11.9h-1.6V67.1z"/>
		<path d="M285.6,73.4v-0.5c0-3.3,1.5-5.9,5-5.9s5,2.6,5,5.9v0.5c0,3.3-1.5,5.9-5,5.9S285.6,76.7,285.6,73.4z M294,73.4v-0.5
			c0-2.7-1.1-4.5-3.4-4.5s-3.4,1.8-3.4,4.5v0.5c0,2.7,1.1,4.5,3.4,4.5S294,76.1,294,73.4z"/>
		<path d="M305.7,79.1v-8.1c0-1.8-1-2.6-2.6-2.6c-1.9,0-2.8,1.1-3.3,1.8v8.9h-1.6v-8.5l-0.1-3.4h1.3l0.2,1.7c0.7-1.1,2-1.9,4-1.9
			c2.4,0,3.6,1.6,3.6,3.8v8.3H305.7z"/>
	</g>
	<g>
		<path d="M163.2,102.4h-3V87.5H156v-2.6h11.4v2.6h-4.2V102.4z"/>
		<path d="M166.2,96.8v-0.7c0-3.4,1.7-5.9,5.4-5.9s5.4,2.5,5.4,5.9v0.7c0,3.4-1.7,5.9-5.4,5.9S166.2,100.2,166.2,96.8z M174,96.8
			v-0.7c0-2.1-0.8-3.4-2.5-3.4c-1.7,0-2.5,1.3-2.5,3.4v0.7c0,2,0.8,3.3,2.5,3.3C173.3,100.2,174,98.9,174,96.8z"/>
		<path d="M178.6,96.8v-0.7c0-3.4,1.7-5.9,5.4-5.9c3.7,0,5.4,2.5,5.4,5.9v0.7c0,3.4-1.7,5.9-5.4,5.9
			C180.3,102.7,178.6,100.2,178.6,96.8z M186.5,96.8v-0.7c0-2.1-0.8-3.4-2.5-3.4c-1.7,0-2.5,1.3-2.5,3.4v0.7c0,2,0.8,3.3,2.5,3.3
			C185.7,100.2,186.5,98.9,186.5,96.8z"/>
		<path d="M191.6,84.5h2.9v18h-2.9V84.5z"/>
		<path d="M197.1,84.5h2.9v10.9l4.1-4.8h3.5l-4,4.5l4,7.4h-3.4l-2.6-5.1l-1.6,1.8v3.3h-2.9V84.5z"/>
		<path d="M212.5,88.5h-3.2v-3.2h3.2V88.5z M209.4,90.5h2.9v11.9h-2.9V90.5z"/>
		<path d="M222.2,90.5v2.6h-3.3v5.2c0,1.6,0.7,1.9,1.9,1.9c0.4,0,1-0.1,1.1-0.2v2.4c-0.2,0.1-0.8,0.3-1.8,0.3
			c-2.5,0-4.2-1.1-4.2-4.2v-5.5h-1.8v-2.6h1.8v-3.4h2.9v3.4H222.2z"/>
	</g>
	<g>
		<path class="st29" d="M135,78.4c3.3-2.6,6.4-5.4,8.9-8.9c2.1-2.9-2.4-6.2-4.5-3.3c-2.3,3.2-5.1,5.8-8.1,8.3
			c0.5,1.2,1.1,2.4,1.6,3.6C133.5,78.2,134.2,78.3,135,78.4z"/>
		<path class="st29" d="M113.6,90.7c-2,3,2.5,6.3,4.5,3.3c2.8-4.3,6.7-7.6,10.7-10.8c-2.5-0.3-5.1-0.5-7.8-0.6
			C118.3,84.9,115.7,87.5,113.6,90.7z"/>
		<path class="st30" d="M146.3,81c-4.1-1.1-7.8-1.9-11.4-2.5c-0.5,0.4-1,0.8-1.5,1.2c0.6,1.5,1.2,2.9,1.8,4.4c2.9,0.5,5.8,1.1,9,2
			C147.6,87.1,149.8,81.9,146.3,81z"/>
		<path class="st30" d="M126.5,77.4c-3.5-0.3-7.1-0.5-11.1-0.8c-3.6-0.2-4.3,5.3-0.7,5.5c2.3,0.1,4.4,0.2,6.5,0.4
			c1.8-1.6,3.8-3,5.7-4.5C126.7,77.8,126.6,77.6,126.5,77.4z"/>
		<path class="st8" d="M128.9,83.2c0,0,0.1,0,0.1,0C129,83.2,129,83.1,128.9,83.2C128.9,83.1,128.9,83.2,128.9,83.2z"/>
		<path class="st31" d="M133.4,79.7c0.5-0.4,1-0.8,1.5-1.2c-0.7-0.1-1.4-0.2-2.2-0.3C133,78.6,133.2,79.1,133.4,79.7z"/>
		<path class="st31" d="M126.8,78c-1.9,1.5-3.8,3-5.7,4.5c2.7,0.2,5.2,0.4,7.8,0.6c0,0,0.1,0,0.1-0.1
			C128.3,81.4,127.5,79.7,126.8,78z"/>
		<path class="st22" d="M135.5,97.7c1.8,3.1,6.9,0.8,5.1-2.3c-2.1-3.6-3.7-7.5-5.3-11.3c-2.1-0.4-4.2-0.6-6.2-0.9
			C130.9,88.1,132.8,93.1,135.5,97.7z"/>
		<path class="st22" d="M131.2,74.6c-1.5-3.2-3.2-6.4-5.4-9.3c-2.2-2.9-6.4,0.7-4.3,3.5c2,2.7,3.6,5.6,5,8.6c0.3,0,0.6,0.1,1,0.1
			C128.7,76.5,130,75.6,131.2,74.6z"/>
		<path class="st32" d="M132.8,78.1c-0.5-1.2-1-2.4-1.6-3.6c-1.2,1-2.5,2-3.7,2.9C129.3,77.7,131,77.9,132.8,78.1z"/>
		<path class="st33" d="M128.9,83.1C129,83.1,129,83.2,128.9,83.1c2.1,0.3,4.2,0.6,6.3,0.9c-0.6-1.5-1.2-2.9-1.8-4.4
			C131.9,80.8,130.4,82,128.9,83.1z"/>
		<path class="st33" d="M127.5,77.5c-0.3,0-0.6-0.1-1-0.1c0.1,0.2,0.2,0.4,0.3,0.6C127,77.9,127.2,77.7,127.5,77.5z"/>
		<path class="st34" d="M127.5,77.5c-0.2,0.2-0.5,0.4-0.7,0.5c0.8,1.7,1.5,3.4,2.2,5.1c1.5-1.2,3-2.3,4.5-3.5
			c-0.2-0.5-0.4-1-0.6-1.5C131,77.9,129.3,77.7,127.5,77.5z"/>
	</g>
</g>
<g id="pattern_overlay">
	<defs>
		<polygon id="SVGID_9_" points="-8.2,306 428,306 428,-8.5 -8.2,-8.5 -8.2,297.9 -8.2,297.9 		"/>
	</defs>
	<clipPath id="SVGID_2_">
		<use xlink:href="#SVGID_9_"  style="overflow:visible;"/>
	</clipPath>
	<g class="st1">
		<g>
			<g>
				<path class="st2" d="M403.1,106.6c8-0.2,15,4.5,22.5,6.4c1.6,0.4,2.2-2,0.7-2.4c-7.8-2.1-14.9-6.7-23.2-6.5
					C401.5,104.1,401.5,106.6,403.1,106.6L403.1,106.6z"/>
			</g>
			<g>
				<path class="st3" d="M416.4,114.4c4.6,4,9.3,7.8,14.2,11.4c1.3,1,2.6-1.2,1.3-2.2c-4.7-3.4-9.3-7.2-13.7-11
					C417,111.6,415.2,113.4,416.4,114.4L416.4,114.4z"/>
			</g>
			<g>
				<path class="st4" d="M407.7,114.5c-1.6,3.8-5.1,6.3-6.6,10.1c-0.6,1.5,1.9,2.2,2.4,0.7c1.4-3.8,5-6.3,6.6-10.1
					C410.7,113.6,408.3,113,407.7,114.5L407.7,114.5z"/>
			</g>
			<g>
				<path class="st2" d="M413,120c8.2,4.8,15.3,11,20.3,19.2c0.8,1.4,3,0.1,2.2-1.3c-5.2-8.6-12.6-15.1-21.2-20.1
					C412.8,117,411.6,119.1,413,120L413,120z"/>
			</g>
			<g>
				<path class="st5" d="M413.6,123.8c-4.2,2.4-8.2,5.2-12.5,7.5c-1.4,0.8-0.2,3,1.3,2.2c4.3-2.3,8.3-5.1,12.5-7.5
					C416.3,125.2,415,123,413.6,123.8L413.6,123.8z"/>
			</g>
			<g>
				<path class="st6" d="M403.1,113.2c-3.8-0.3-7.7-0.2-11.5-0.6c-1.6-0.2-1.6,2.3,0,2.5c3.8,0.4,7.7,0.4,11.5,0.6
					C404.7,115.9,404.7,113.3,403.1,113.2L403.1,113.2z"/>
			</g>
			<g>
				<path class="st6" d="M414.6,131.2c-0.1,3.9-0.7,7.7,0,11.5c0.3,1.6,2.7,0.9,2.4-0.7c-0.6-3.6-0.1-7.2,0-10.8
					C417.2,129.5,414.6,129.5,414.6,131.2L414.6,131.2z"/>
			</g>
			<g>
				<path class="st4" d="M420.4,104.9c4.5-2.4,8.4-5.8,11.4-9.9c1-1.3-1.2-2.6-2.2-1.3c-2.8,3.8-6.4,6.8-10.5,9
					C417.7,103.5,418.9,105.6,420.4,104.9L420.4,104.9z"/>
			</g>
			<g>
				<path class="st8" d="M413,98.5c-2.3-3.2-5.2-5.9-8.1-8.5c-1.2-1.1-3,0.7-1.8,1.8c2.8,2.5,5.5,5,7.7,8
					C411.7,101.1,413.9,99.8,413,98.5L413,98.5z"/>
			</g>
			<g>
				<path class="st7" d="M418,88.2c-1.7,1-3.5,1.8-5.3,2.6c-1.5,0.7-0.2,2.8,1.3,2.2c1.8-0.8,3.6-1.6,5.3-2.6
					C420.7,89.5,419.4,87.4,418,88.2L418,88.2z"/>
			</g>
			<g>
				<path class="st2" d="M402.8,94.5c-2.9,1.8-6.3,2.4-9.2,4.1c-1.4,0.8-0.1,3,1.3,2.2c3-1.7,6.4-2.3,9.2-4.1
					C405.5,95.8,404.2,93.6,402.8,94.5L402.8,94.5z"/>
			</g>
			<g>
				<path class="st4" d="M382.3,97.3c3.7,3.9,7.7,7.7,10.9,12.2c0.9,1.3,3.1,0,2.2-1.3c-3.3-4.6-7.4-8.6-11.3-12.7
					C383,94.3,381.2,96.1,382.3,97.3L382.3,97.3z"/>
			</g>
			<g>
				<path class="st5" d="M396,104.8c1.6-0.9,3.2-1.8,4.8-2.7c1.4-0.8,0.1-3-1.3-2.2c-1.6,0.9-3.2,1.8-4.8,2.7
					C393.4,103.5,394.6,105.6,396,104.8L396,104.8z"/>
			</g>
			<g>
				<path class="st6" d="M388.7,93.5c3.4-1.9,7.1-3.4,10.4-5.5c1.3-0.9,0.1-3.1-1.3-2.2c-3.3,2.2-7,3.6-10.4,5.5
					C386,92.1,387.3,94.3,388.7,93.5L388.7,93.5z"/>
			</g>
			<g>
				<path class="st7" d="M394.3,94.1c1.2-0.1,2.4-0.1,3.6,0c1.6,0.1,1.6-2.5,0-2.5c-1.2,0-2.4,0-3.6,0
					C392.7,91.6,392.7,94.2,394.3,94.1L394.3,94.1z"/>
			</g>
		</g>
		<g>
			<g>
				<path class="st2" d="M353.3,268.1c-2.3,7.6-9,12.8-13.2,19.4c-0.9,1.4,1.3,2.6,2.2,1.3c4.4-6.7,11-12.1,13.4-20
					C356.2,267.2,353.7,266.6,353.3,268.1L353.3,268.1z"/>
			</g>
			<g>
				<path class="st3" d="M341.6,278.3c-5.1,3.1-10.1,6.3-15,9.8c-1.3,0.9,0,3.1,1.3,2.2c4.8-3.5,9.9-6.7,15-9.8
					C344.3,279.7,343,277.5,341.6,278.3L341.6,278.3z"/>
			</g>
			<g>
				<path class="st4" d="M344.6,270.1c-3.1-2.7-4.3-6.9-7.6-9.4c-1.3-1-3.1,0.8-1.8,1.8c3.2,2.5,4.5,6.7,7.6,9.4
					C344,272.9,345.8,271.2,344.6,270.1L344.6,270.1z"/>
			</g>
			<g>
				<path class="st2" d="M337.5,273.3c-7.1,6.3-15.2,11.1-24.6,13.3c-1.6,0.4-0.9,2.8,0.7,2.4c9.8-2.3,18.2-7.3,25.7-13.9
					C340.5,274,338.7,272.2,337.5,273.3L337.5,273.3z"/>
			</g>
			<g>
				<path class="st5" d="M333.7,272.6c-1-4.7-2.4-9.4-3.2-14.2c-0.3-1.6-2.7-0.9-2.4,0.7c0.9,4.8,2.2,9.4,3.2,14.2
					C331.6,274.9,334,274.2,333.7,272.6L333.7,272.6z"/>
			</g>
			<g>
				<path class="st6" d="M347,266c1.4-3.5,2.5-7,4-10.4c0.7-1.5-1.5-2.8-2.2-1.3c-1.7,3.6-2.8,7.4-4.3,11
					C344,266.8,346.4,267.4,347,266L347,266z"/>
			</g>
			<g>
				<path class="st6" d="M326.3,271.3c-3.5-1.3-6.9-3-10.6-3.5c-1.6-0.2-2.3,2.2-0.7,2.4c3.7,0.5,7.1,2.2,10.6,3.5
					C327.2,274.3,327.8,271.8,326.3,271.3L326.3,271.3z"/>
			</g>
			<g>
				<path class="st4" d="M349.5,285.1c0.8,4.9,2.8,9.6,5.7,13.7c0.9,1.3,3.1,0.1,2.2-1.3c-2.8-3.9-4.6-8.3-5.4-13.1
					C351.7,282.8,349.3,283.5,349.5,285.1L349.5,285.1z"/>
			</g>
			<g>
				<path class="st7" d="M348.5,295.4c-4.3-1.3-8.8-0.9-13.2-1c-1.6,0-1.6,2.5,0,2.5c4.2,0.1,8.4-0.4,12.6,0.9
					C349.4,298.3,350.1,295.8,348.5,295.4L348.5,295.4z"/>
			</g>
			<g>
				<path class="st8" d="M323.9,293.1c0.6,3.5,2.2,6.6,3.1,10c0.4,1.6,2.9,0.9,2.4-0.7c-0.9-3.4-2.5-6.5-3.1-10
					C326.1,290.8,323.7,291.5,323.9,293.1L323.9,293.1z"/>
			</g>
			<g>
				<path class="st3" d="M358,280c3.7-1.2,7.2-3.1,10.6-5c1.4-0.8,0.1-3-1.3-2.2c-3.2,1.9-6.5,3.6-10,4.8
					C355.8,278,356.4,280.5,358,280L358,280z"/>
			</g>
			<g>
				<path class="st2" d="M369.7,293.5c-3.6-0.9-6.9-3-10.6-3.5c-1.6-0.2-2.3,2.2-0.7,2.4c3.7,0.5,7,2.6,10.6,3.5
					C370.6,296.4,371.3,293.9,369.7,293.5L369.7,293.5z"/>
			</g>
			<g>
				<path class="st7" d="M366.1,287.9c-0.4-1.8-0.6-3.7-0.8-5.5c-0.2-1.6-2.7-1.6-2.5,0c0.2,2.1,0.4,4.1,0.9,6.2
					C364,290.2,366.4,289.5,366.1,287.9L366.1,287.9z"/>
			</g>
			<g>
				<path class="st2" d="M364.9,271.5c-0.8-3.3-0.4-6.7-1-10c-0.3-1.6-2.7-0.9-2.4,0.7c0.6,3.3,0.2,6.7,1,10
					C362.8,273.8,365.3,273.1,364.9,271.5L364.9,271.5z"/>
			</g>
			<g>
				<path class="st4" d="M368.6,251.3c-4.9,2.3-9.8,4.8-15,6.5c-1.5,0.5-0.9,2.9,0.7,2.4c5.4-1.7,10.4-4.3,15.6-6.8
					C371.3,252.8,370.1,250.6,368.6,251.3L368.6,251.3z"/>
			</g>
			<g>
				<path class="st5" d="M357.2,262c0.4,1.8,0.7,3.6,1.1,5.4c0.3,1.6,2.8,0.9,2.4-0.7c-0.4-1.8-0.7-3.6-1.1-5.4
					C359.3,259.7,356.9,260.4,357.2,262L357.2,262z"/>
			</g>
			<g>
				<path class="st6" d="M370.3,258.6c0.7,3.9,1,7.8,2,11.6c0.4,1.6,2.9,0.9,2.4-0.7c-1-3.8-1.3-7.7-2-11.6
					C372.4,256.3,370,257,370.3,258.6L370.3,258.6z"/>
			</g>
			<g>
				<path class="st7" d="M367.9,263.7c-0.3,1.2-0.7,2.3-1.1,3.4c-0.2,0.6,0.3,1.4,0.9,1.6c0.7,0.2,1.3-0.2,1.6-0.9
					c0.4-1.1,0.8-2.2,1.1-3.4C370.8,262.8,368.3,262.1,367.9,263.7L367.9,263.7z"/>
			</g>
		</g>
		<g>
			<g>
				<path class="st2" d="M418.5,71.9c6.5-4.7,14.8-4.9,22.2-7.6c1.5-0.6,0.9-3-0.7-2.4c-7.5,2.8-16.1,3-22.8,7.8
					C415.9,70.6,417.2,72.8,418.5,71.9L418.5,71.9z"/>
			</g>
			<g>
				<path class="st6" d="M422.5,77.2c-3.3,2-6.4,4.3-9.8,6.1c-1.4,0.8-0.2,2.9,1.3,2.2c3.4-1.8,6.5-4.1,9.8-6.1
					C425.1,78.5,423.9,76.3,422.5,77.2L422.5,77.2z"/>
			</g>
			<g>
				<path class="st3" d="M421.9,59.4c-3.7-1.3-7.6-1.8-11.5-2.3c-1.6-0.2-1.6,2.3,0,2.5c3.7,0.4,7.3,1,10.9,2.2
					C422.7,62.4,423.4,59.9,421.9,59.4L421.9,59.4z"/>
			</g>
			<g>
				<path class="st7" d="M420.4,48.1c-0.8,1.8-1.8,3.5-2.8,5.2c-0.8,1.4,1.3,2.7,2.2,1.3c1-1.7,2-3.4,2.8-5.2
					C423.2,47.9,421,46.6,420.4,48.1L420.4,48.1z"/>
			</g>
			<g>
				<path class="st2" d="M411.5,61.9c-1.3,3.1-3.8,5.6-5.3,8.6c-0.7,1.5,1.5,2.7,2.2,1.3c1.5-3,3.9-5.5,5.3-8.6
					C414.3,61.7,412.1,60.4,411.5,61.9L411.5,61.9z"/>
			</g>
			<g>
				<path class="st4" d="M396.1,76c5.4,1.1,10.9,2,16.2,3.9c1.5,0.5,2.2-1.9,0.7-2.4c-5.3-1.8-10.7-2.7-16.2-3.9
					C395.1,73.2,394.5,75.6,396.1,76L396.1,76z"/>
			</g>
			<g>
				<path class="st5" d="M411.7,74.5c0.8-1.7,1.6-3.3,2.4-5c0.7-1.5-1.5-2.7-2.2-1.3c-0.8,1.7-1.6,3.3-2.4,5
					C408.8,74.7,411,76,411.7,74.5L411.7,74.5z"/>
			</g>
			<g>
				<path class="st6" d="M399.2,69.3c1.8-3.6,4-7,5.5-10.8c0.6-1.5-1.8-2.2-2.4-0.7c-1.4,3.6-3.6,6.7-5.2,10.2
					C396.3,69.5,398.5,70.8,399.2,69.3L399.2,69.3z"/>
			</g>
			<g>
				<path class="st7" d="M404.4,66.4c0.8-0.7,1.7-1.3,2.6-1.9c1.4-0.9,0.1-3.1-1.3-2.2c-1.1,0.7-2.1,1.5-3.2,2.3
					c-0.5,0.4-0.4,1.3,0,1.8C403.1,66.9,403.9,66.8,404.4,66.4L404.4,66.4z"/>
			</g>
		</g>
		<g>
			<g>
				<path class="st2" d="M404.1,29.5c-6.6-4.5-9.6-12.4-14.6-18.3c-1-1.2-2.8,0.5-1.8,1.8c5.2,6.2,8.2,14.1,15.1,18.7
					C404.2,32.6,405.4,30.4,404.1,29.5L404.1,29.5z"/>
			</g>
			<g>
				<path class="st4" d="M404.9,20.6c3.5-2.2,7.8-2.1,11.2-4.4c1.3-0.9,0.1-3.1-1.3-2.2c-3.4,2.3-7.8,2.3-11.2,4.4
					C402.2,19.3,403.5,21.4,404.9,20.6L404.9,20.6z"/>
			</g>
			<g>
				<path class="st6" d="M407.8,24c3,2.4,6.2,4.6,9,7.2c1.2,1.1,3-0.7,1.8-1.8c-2.9-2.6-6-4.7-9-7.2C408.4,21.2,406.6,22.9,407.8,24
					L407.8,24z"/>
			</g>
			<g>
				<path class="st4" d="M389.3,20.9c-5.1-0.7-10.2-0.3-15.1,1.3c-1.5,0.5-0.9,2.9,0.7,2.4c4.4-1.5,9.1-2,13.7-1.3
					C390.3,23.6,390.9,21.2,389.3,20.9L389.3,20.9z"/>
			</g>
			<g>
				<path class="st8" d="M391.4,30.5c0.1,3.9,0.8,7.8,1.7,11.6c0.4,1.6,2.8,0.9,2.4-0.7c-0.8-3.6-1.6-7.2-1.6-11
					C393.9,28.9,391.4,28.9,391.4,30.5L391.4,30.5z"/>
			</g>
			<g>
				<path class="st2" d="M375,37.6c1.9-3.2,4.9-5.6,6.5-9.1c0.7-1.5-1.5-2.8-2.2-1.3c-1.6,3.4-4.5,5.9-6.5,9.1
					C372,37.7,374.2,39,375,37.6L375,37.6z"/>
			</g>
			<g>
				<path class="st3" d="M381.5,35.9c1.9,0.2,3.7,0.5,5.5,0.9c1.6,0.3,2.3-2.1,0.7-2.4c-2-0.4-4.1-0.8-6.2-1
					C379.9,33.2,379.9,35.7,381.5,35.9L381.5,35.9z"/>
			</g>
			<g>
				<path class="st2" d="M397.5,39.6c3.4,0.2,6.5,1.7,9.9,2c1.6,0.2,1.6-2.3,0-2.5c-3.4-0.4-6.5-1.8-9.9-2
					C395.8,36.9,395.9,39.5,397.5,39.6L397.5,39.6z"/>
			</g>
			<g>
				<path class="st4" d="M415.7,49.1c-0.8-5.4-1.7-10.7-1.8-16.2c0-1.6-2.5-1.6-2.5,0c0.1,5.7,1.1,11.3,1.9,16.9
					C413.5,51.3,415.9,50.7,415.7,49.1L415.7,49.1z"/>
			</g>
			<g>
				<path class="st5" d="M408.8,35c-1.8-0.2-3.7-0.4-5.5-0.6c-1.6-0.2-1.6,2.4,0,2.5c1.8,0.2,3.7,0.4,5.5,0.6
					C410.4,37.7,410.4,35.2,408.8,35L408.8,35z"/>
			</g>
			<g>
				<path class="st6" d="M408.1,48.5c-3.9-0.4-7.7-1.4-11.7-1.5c-1.6-0.1-1.6,2.5,0,2.5c3.9,0.1,7.8,1.1,11.7,1.5
					C409.8,51.3,409.7,48.7,408.1,48.5L408.1,48.5z"/>
			</g>
			<g>
				<path class="st7" d="M404,44.8c-1-0.6-2-1.3-2.9-2c-0.5-0.4-1.4-0.1-1.7,0.5c-0.4,0.7-0.1,1.3,0.5,1.7c0.9,0.7,1.9,1.4,2.9,2
					C404.1,47.8,405.3,45.6,404,44.8L404,44.8z"/>
			</g>
		</g>
		<g>
			<g>
				<path class="st2" d="M414.8,254.6c-1.4,7.9-7.3,13.8-10.7,20.8c-0.7,1.5,1.5,2.7,2.2,1.3c3.5-7.2,9.5-13.3,11-21.4
					C417.5,253.7,415,253,414.8,254.6L414.8,254.6z"/>
			</g>
			<g>
				<path class="st3" d="M404.2,266.4c-4.7,3.7-9.3,7.4-13.7,11.5c-1.2,1.1,0.6,2.9,1.8,1.8c4.4-4.1,9-7.8,13.7-11.5
					C407.3,267.2,405.5,265.5,404.2,266.4L404.2,266.4z"/>
			</g>
			<g>
				<path class="st4" d="M406.2,257.7c-3.4-2.3-5.1-6.3-8.6-8.4c-1.4-0.8-2.7,1.3-1.3,2.2c3.5,2.1,5.2,6.2,8.6,8.4
					C406.3,260.8,407.6,258.6,406.2,257.7L406.2,257.7z"/>
			</g>
			<g>
				<path class="st2" d="M399.8,261.7c-6.3,7.1-13.8,12.9-22.8,16.2c-1.5,0.6-0.9,3,0.7,2.4c9.4-3.4,17.3-9.4,23.9-16.8
					C402.6,262.3,400.8,260.5,399.8,261.7L399.8,261.7z"/>
			</g>
			<g>
				<path class="st5" d="M395.9,261.7c-1.6-4.6-3.5-9-4.9-13.7c-0.5-1.5-2.9-0.9-2.4,0.7c1.4,4.6,3.4,9.1,4.9,13.7
					C393.9,263.9,396.4,263.3,395.9,261.7L395.9,261.7z"/>
			</g>
			<g>
				<path class="st6" d="M408.2,253.5c1-3.7,1.7-7.5,2.8-11.2c0.5-1.6-1.9-2.2-2.4-0.7c-1.2,3.7-1.9,7.5-2.8,11.2
					C405.4,254.4,407.8,255.1,408.2,253.5L408.2,253.5z"/>
			</g>
			<g>
				<path class="st6" d="M388.5,261.2c-3.7-0.9-7.4-2.2-11.3-2.2c-1.6,0-1.6,2.5,0,2.5c3.7,0.1,7.1,1.3,10.6,2.1
					C389.4,264,390.1,261.6,388.5,261.2L388.5,261.2z"/>
			</g>
			<g>
				<path class="st4" d="M413,271.9c1.4,4.9,4,9.4,7.4,13.1c1.1,1.2,2.9-0.6,1.8-1.8c-3.1-3.4-5.5-7.6-6.8-12
					C415,269.7,412.6,270.4,413,271.9L413,271.9z"/>
			</g>
			<g>
				<path class="st7" d="M413.5,282.4c-4.5-0.8-8.8,0.1-13.3,0.6c-1.6,0.2-1.6,2.7,0,2.5c4.2-0.5,8.4-1.4,12.6-0.7
					C414.4,285.1,415.1,282.7,413.5,282.4L413.5,282.4z"/>
			</g>
			<g>
				<path class="st8" d="M388.6,283c1,3.4,3,6.3,4.3,9.5c0.6,1.5,3,0.8,2.4-0.7c-1.3-3.2-3.2-6.2-4.3-9.5
					C390.6,280.8,388.1,281.4,388.6,283L388.6,283z"/>
			</g>
			<g>
				<path class="st8" d="M421,265.9c3.5-1.6,6.6-3.8,9.6-6.1c1.3-1,0-3.2-1.3-2.2c-3,2.3-6.2,4.5-9.6,6.1
					C418.2,264.4,419.5,266.6,421,265.9L421,265.9z"/>
			</g>
			<g>
				<path class="st4" d="M428,236.1c-4.7,3-9.3,6.1-14.3,8.4c-1.5,0.7-0.2,2.9,1.3,2.2c5.1-2.3,9.6-5.5,14.3-8.4
					C430.7,237.5,429.4,235.3,428,236.1L428,236.1z"/>
			</g>
			<g>
				<path class="st5" d="M417.8,248.1c0.6,1.8,1.2,3.5,1.7,5.3c0.5,1.5,3,0.9,2.4-0.7c-0.6-1.8-1.2-3.5-1.7-5.3
					C419.8,245.9,417.3,246.5,417.8,248.1L417.8,248.1z"/>
			</g>
		</g>
		<g>
			<g>
				<path class="st2" d="M432.2,148.1c-7.5,2.7-15.6,0.6-23.4,1.2c-1.6,0.1-1.6,2.6,0,2.5c8-0.6,16.3,1.6,24.1-1.2
					C434.4,150,433.7,147.6,432.2,148.1L432.2,148.1z"/>
			</g>
			<g>
				<path class="st4" d="M416.4,155.3c-3.5,3.7-6.1,8.2-7.7,13c-0.5,1.6,1.9,2.2,2.4,0.7c1.4-4.4,3.8-8.5,7-11.9
					C419.3,155.9,417.5,154.1,416.4,155.3L416.4,155.3z"/>
			</g>
			<g>
				<path class="st2" d="M421.7,176.7c-1.5-3.6-1.8-7.5-3.7-10.9c-0.8-1.4-3-0.1-2.2,1.3c1.8,3.2,2.1,6.9,3.5,10.3
					C419.9,178.9,422.3,178.2,421.7,176.7L421.7,176.7z"/>
			</g>
		</g>
		<g>
			<g>
				<path class="st2" d="M-18,101.3c7.3-6.1,15.6-10.6,25-12.5c1.6-0.3,0.9-2.8-0.7-2.4c-9.8,2-18.4,6.8-26.1,13.1
					C-21.1,100.6-19.3,102.3-18,101.3L-18,101.3z"/>
			</g>
			<g>
				<path class="st6" d="M-7,103.7c3.5,1.4,6.8,3.2,10.5,3.8c1.6,0.3,2.3-2.2,0.7-2.4c-3.7-0.6-7-2.4-10.5-3.8
					C-7.8,100.7-8.4,103.1-7,103.7L-7,103.7z"/>
			</g>
		</g>
		<g>
			<g>
				<path class="st2" d="M24.7,276.4c-7.6-2.4-12.8-9.1-19.3-13.3c-1.4-0.9-2.6,1.3-1.3,2.2c6.7,4.4,12,11.1,19.9,13.6
					C25.6,279.3,26.2,276.9,24.7,276.4L24.7,276.4z"/>
			</g>
			<g>
				<path class="st3" d="M14.6,264.6c-3-5.1-6.2-10.2-9.6-15c-0.9-1.3-3.1-0.1-2.2,1.3c3.5,4.9,6.6,9.9,9.6,15
					C13.2,267.3,15.4,266,14.6,264.6L14.6,264.6z"/>
			</g>
			<g>
				<path class="st4" d="M22.8,267.7c2.7-3.1,6.9-4.3,9.5-7.5c1-1.3-0.8-3.1-1.8-1.8c-2.6,3.2-6.8,4.4-9.5,7.5
					C19.9,267.1,21.7,268.9,22.8,267.7L22.8,267.7z"/>
			</g>
			<g>
				<path class="st2" d="M19.6,260.5c-6.3-7.2-11-15.3-13.1-24.7c-0.4-1.6-2.8-0.9-2.4,0.7c2.2,9.8,7.2,18.3,13.7,25.8
					C18.9,263.5,20.7,261.7,19.6,260.5L19.6,260.5z"/>
			</g>
			<g>
				<path class="st5" d="M20.4,256.7c4.8-1,9.4-2.3,14.2-3.1c1.6-0.3,0.9-2.7-0.7-2.4c-4.8,0.8-9.5,2.2-14.2,3.1
					C18.1,254.6,18.8,257.1,20.4,256.7L20.4,256.7z"/>
			</g>
			<g>
				<path class="st6" d="M26.9,270.1c3.5,1.4,7,2.5,10.4,4.1c1.5,0.7,2.7-1.5,1.3-2.2c-3.6-1.7-7.4-2.9-11-4.4
					C26.1,267.1,25.4,269.5,26.9,270.1L26.9,270.1z"/>
			</g>
			<g>
				<path class="st6" d="M21.8,249.4c1.3-3.5,3-6.8,3.6-10.6c0.2-1.6-2.2-2.3-2.4-0.7c-0.6,3.7-2.2,7.1-3.6,10.6
					C18.8,250.3,21.2,250.9,21.8,249.4L21.8,249.4z"/>
			</g>
			<g>
				<path class="st4" d="M7.7,272.5c-4.9,0.8-9.6,2.7-13.7,5.6c-1.3,0.9-0.1,3.1,1.3,2.2c3.9-2.7,8.4-4.6,13.1-5.3
					C10,274.7,9.3,272.3,7.7,272.5L7.7,272.5z"/>
			</g>
			<g>
				<path class="st8" d="M-0.1,246.9c-3.5,0.6-6.6,2.1-10,3c-1.6,0.4-0.9,2.8,0.7,2.4c3.4-0.9,6.5-2.4,10-3
					C2.2,249,1.5,246.6-0.1,246.9L-0.1,246.9z"/>
			</g>
			<g>
				<path class="st8" d="M12.8,281c1.2,3.8,3,7.2,5,10.6c0.8,1.4,3,0.1,2.2-1.3c-1.8-3.2-3.6-6.5-4.7-10
					C14.8,278.8,12.3,279.5,12.8,281L12.8,281z"/>
			</g>
			<g>
				<path class="st2" d="M-0.8,292.6c1-3.6,3-6.8,3.6-10.6c0.2-1.6-2.2-2.3-2.4-0.7c-0.5,3.7-2.6,7-3.6,10.6
					C-3.7,293.5-1.2,294.2-0.8,292.6L-0.8,292.6z"/>
			</g>
			<g>
				<path class="st7" d="M4.8,289.1c1.8-0.4,3.7-0.6,5.5-0.7c1.6-0.2,1.6-2.7,0-2.5c-2.1,0.2-4.1,0.4-6.2,0.8
					C2.6,287,3.2,289.4,4.8,289.1L4.8,289.1z"/>
			</g>
			<g>
				<path class="st2" d="M21.2,288c3.3-0.8,6.7-0.3,10.1-0.9c1.6-0.3,0.9-2.7-0.7-2.4c-3.3,0.6-6.7,0.1-10.1,0.9
					C18.9,285.9,19.6,288.3,21.2,288L21.2,288z"/>
			</g>
			<g>
				<path class="st4" d="M41.4,291.8c-2.3-4.9-4.8-9.8-6.4-15c-0.5-1.5-2.9-0.9-2.4,0.7c1.7,5.4,4.3,10.5,6.6,15.6
					C39.9,294.6,42.1,293.3,41.4,291.8L41.4,291.8z"/>
			</g>
			<g>
				<path class="st5" d="M30.8,280.4c-1.8,0.4-3.6,0.7-5.4,1.1c-1.6,0.3-0.9,2.7,0.7,2.4c1.8-0.4,3.6-0.7,5.4-1.1
					C33.1,282.5,32.4,280,30.8,280.4L30.8,280.4z"/>
			</g>
			<g>
				<path class="st6" d="M34.1,293.5c-3.9,0.7-7.8,0.9-11.6,1.9c-1.6,0.4-0.9,2.9,0.7,2.4c3.8-1,7.8-1.2,11.6-1.9
					C36.3,295.6,35.7,293.2,34.1,293.5L34.1,293.5z"/>
			</g>
			<g>
				<path class="st7" d="M29,291.1c-1.1-0.3-2.3-0.7-3.4-1.1c-0.6-0.2-1.4,0.3-1.6,0.9c-0.2,0.7,0.2,1.3,0.9,1.6
					c1.1,0.4,2.2,0.8,3.4,1.1C29.9,293.9,30.6,291.5,29,291.1L29,291.1z"/>
			</g>
		</g>
		<g>
			<g>
				<path class="st2" d="M8.7,150.3c-7.9-0.6-14.5-6-21.8-8.7c-1.5-0.6-2.2,1.9-0.7,2.4c7.6,2.8,14.2,8.1,22.4,8.7
					C10.4,153,10.3,150.5,8.7,150.3L8.7,150.3z"/>
			</g>
			<g>
				<path class="st4" d="M5,142.3c1.9-3.6,5.7-5.7,7.5-9.4c0.7-1.5-1.5-2.7-2.2-1.3c-1.8,3.7-5.6,5.8-7.5,9.4
					C2,142.4,4.2,143.7,5,142.3L5,142.3z"/>
			</g>
			<g>
				<path class="st2" d="M0.2,136c-7.7-5.6-14.1-12.5-18.3-21.1c-0.7-1.5-2.9-0.2-2.2,1.3c4.4,9,11.1,16.2,19.2,22
					C0.3,139.1,1.5,137,0.2,136L0.2,136z"/>
			</g>
			<g>
				<path class="st5" d="M0.2,132.1c4.3-2,8.5-4.3,12.8-6.1c1.5-0.6,0.8-3.1-0.7-2.4c-4.6,1.9-8.9,4.3-13.4,6.4
					C-2.6,130.6-1.3,132.8,0.2,132.1L0.2,132.1z"/>
			</g>
			<g>
				<path class="st6" d="M9.3,143.7c3.8,0.6,7.6,0.9,11.4,1.7c1.6,0.3,2.3-2.1,0.7-2.4c-3.8-0.8-7.6-1.1-11.4-1.7
					C8.3,141,7.7,143.4,9.3,143.7L9.3,143.7z"/>
			</g>
			<g>
				<path class="st6" d="M-0.2,125c0.5-3.8,1.5-7.6,1.1-11.4c-0.1-1.6-2.7-1.6-2.5,0c0.3,3.6-0.6,7.2-1.1,10.8
					C-2.9,125.9-0.4,126.6-0.2,125L-0.2,125z"/>
			</g>
		</g>
		<g>
			<g>
				<path class="st2" d="M12.1,59.6C7.1,54.8,5.7,48,2.3,42.2c-0.8-1.4-3-0.1-2.2,1.3c3.6,6,5,12.9,10.2,17.9
					C11.5,62.5,13.3,60.7,12.1,59.6L12.1,59.6z"/>
			</g>
			<g>
				<path class="st3" d="M8.1,44.6c-0.5-6.1-1.1-12.1-2.1-18.1c-0.3-1.6-2.7-0.9-2.4,0.7c0.9,5.8,1.5,11.6,2,17.4
					C5.8,46.2,8.3,46.2,8.1,44.6L8.1,44.6z"/>
			</g>
			<g>
				<path class="st4" d="M14.1,50.9c3.9-1.6,8.3-0.9,12.1-2.7c1.5-0.7,0.2-2.9-1.3-2.2c-3.6,1.7-7.8,0.9-11.5,2.4
					C12,49.1,12.6,51.5,14.1,50.9L14.1,50.9z"/>
			</g>
			<g>
				<path class="st2" d="M14.5,43.1c-2.5-9.2-3.1-18.6-0.9-27.9c0.4-1.6-2.1-2.3-2.4-0.7c-2.3,9.8-1.6,19.6,0.9,29.2
					C12.5,45.4,14.9,44.7,14.5,43.1L14.5,43.1z"/>
			</g>
			<g>
				<path class="st5" d="M16.7,39.9c4.7,1.2,9.5,2.1,14.1,3.4c1.6,0.5,2.2-2,0.7-2.4c-4.7-1.4-9.4-2.2-14.1-3.4
					C15.8,37.1,15.2,39.5,16.7,39.9L16.7,39.9z"/>
			</g>
			<g>
				<path class="st6" d="M16.7,54.8c2.5,2.9,5.3,5.5,7.7,8.5c1,1.3,2.8-0.5,1.8-1.8c-2.4-3-5.2-5.6-7.7-8.5
					C17.5,51.8,15.7,53.6,16.7,54.8L16.7,54.8z"/>
			</g>
			<g>
				<path class="st6" d="M21.3,34.1c2.8-2.6,5.9-5,8.1-8.2c0.9-1.4-1.3-2.6-2.2-1.3c-2,3-5,5.2-7.7,7.7
					C18.3,33.4,20.1,35.2,21.3,34.1L21.3,34.1z"/>
			</g>
			<g>
				<path class="st8" d="M-0.6,58.3c-0.6,3.9-0.5,7.8-0.2,11.8c0.1,1.6,2.6,1.6,2.5,0C1.4,66.4,1.3,62.7,1.8,59
					C2,57.4-0.4,56.7-0.6,58.3L-0.6,58.3z"/>
			</g>
			<g>
				<path class="st2" d="M3.7,68.4c3.3,0.8,6.2,2.7,9.4,3.6c1.6,0.4,2.2-2,0.7-2.4c-3.3-0.9-6.1-2.9-9.4-3.6
					C2.8,65.6,2.1,68,3.7,68.4L3.7,68.4z"/>
			</g>
			<g>
				<path class="st4" d="M20.3,80.8c0.1-5.4,0-10.9,0.8-16.3c0.2-1.6-2.2-2.3-2.4-0.7c-0.9,5.6-0.8,11.3-0.9,16.9
					C17.7,82.5,20.2,82.5,20.3,80.8L20.3,80.8z"/>
			</g>
			<g>
				<path class="st5" d="M15.9,65.8c-1.8-0.5-3.6-1-5.3-1.4c-1.6-0.4-2.2,2-0.7,2.4c1.8,0.5,3.6,1,5.3,1.4
					C16.8,68.6,17.5,66.2,15.9,65.8L15.9,65.8z"/>
			</g>
			<g>
				<path class="st6" d="M13.1,79c-3.8-1.1-7.4-2.6-11.3-3.4c-1.6-0.3-2.3,2.1-0.7,2.4c3.9,0.8,7.5,2.3,11.3,3.4
					C14,81.9,14.6,79.4,13.1,79L13.1,79z"/>
			</g>
			<g>
				<path class="st7" d="M9.5,74.6c-0.9-0.8-1.7-1.6-2.6-2.5C5.8,71,4,72.8,5.2,73.9c0.8,0.9,1.7,1.7,2.6,2.5c0.5,0.4,1.3,0.5,1.8,0
					C10,76,10,75.1,9.5,74.6L9.5,74.6z"/>
			</g>
		</g>
		<g>
			<g>
				<path class="st2" d="M49.2,8.2c-6.9,4-15.3,3.2-22.9,5.1c-1.6,0.4-0.9,2.8,0.7,2.4c7.8-1.9,16.3-1.2,23.5-5.3
					C51.9,9.6,50.6,7.4,49.2,8.2L49.2,8.2z"/>
			</g>
			<g>
				<path class="st4" d="M41.5,3.8c-0.4-4.2,1.5-8.2,0.9-12.4c-0.2-1.6-2.7-0.9-2.4,0.7c0.5,3.9-1.4,7.7-1,11.7
					C39.1,5.4,41.6,5.4,41.5,3.8L41.5,3.8z"/>
			</g>
			<g>
				<path class="st6" d="M46,2.4c3.4-1.6,6.6-3.4,10.1-4.8c1.5-0.6,0.8-3-0.7-2.4c-3.7,1.5-7.1,3.4-10.7,5.1C43.3,0.9,44.6,3,46,2.4
					L46,2.4z"/>
			</g>
			<g>
				<path class="st4" d="M34.8,18c-2.8,4.1-4.6,8.9-5.3,13.8c-0.2,1.6,2.2,2.3,2.4,0.7c0.6-4.7,2.3-9.3,5-13.2
					C37.9,17.9,35.7,16.6,34.8,18L34.8,18z"/>
			</g>
			<g>
				<path class="st8" d="M44.4,20.1c3.6,1.7,7.3,2.7,11.2,3.6c1.6,0.4,2.3-2.1,0.7-2.4c-3.6-0.8-7.2-1.8-10.6-3.4
					C44.2,17.2,42.9,19.4,44.4,20.1L44.4,20.1z"/>
			</g>
			<g>
				<path class="st2" d="M43.7,38c-2.1-3.3-3-7-5.5-10.1c-1-1.3-2.8,0.5-1.8,1.8c2.3,2.8,3.2,6.5,5.1,9.6
					C42.4,40.6,44.6,39.4,43.7,38L43.7,38z"/>
			</g>
			<g>
				<path class="st3" d="M44.9,31.5c1-1.7,2.2-3.3,3.4-4.8c0.4-0.5,0.1-1.4-0.5-1.7c-0.6-0.4-1.3-0.1-1.7,0.5
					c-1.2,1.6-2.4,3.1-3.4,4.8C41.9,31.6,44,32.9,44.9,31.5L44.9,31.5z"/>
			</g>
			<g>
				<path class="st2" d="M55.2,18.7c1.7-3,4.4-5.1,6.2-8c0.9-1.4-1.3-2.7-2.2-1.3c-1.8,2.9-4.5,5-6.2,8
					C52.2,18.9,54.4,20.1,55.2,18.7L55.2,18.7z"/>
			</g>
			<g>
				<path class="st4" d="M71.9,6.5C66.7,4.8,61.5,3.3,56.5,1c-1.5-0.7-2.7,1.5-1.3,2.2c5.1,2.5,10.6,4,16,5.8
					C72.8,9.4,73.4,7,71.9,6.5L71.9,6.5z"/>
			</g>
			<g>
				<path class="st5" d="M56.2,6.4c-1,1.6-1.9,3.1-2.9,4.7c-0.9,1.4,1.3,2.7,2.2,1.3c1-1.6,1.9-3.1,2.9-4.7
					C59.3,6.3,57.1,5,56.2,6.4L56.2,6.4z"/>
			</g>
			<g>
				<path class="st6" d="M68.1,12.9c-2.1,3.3-4.7,6.3-6.5,9.8c-0.8,1.4,1.4,2.7,2.2,1.3c1.8-3.5,4.4-6.5,6.5-9.8
					C71.1,12.8,68.9,11.6,68.1,12.9L68.1,12.9z"/>
			</g>
			<g>
				<path class="st7" d="M62.8,15.1c-1,0.6-2,1.2-3.1,1.7c-0.6,0.3-0.8,1.2-0.5,1.7c0.4,0.6,1.1,0.8,1.7,0.5
					c1.1-0.5,2.1-1.1,3.1-1.7C65.5,16.4,64.2,14.2,62.8,15.1L62.8,15.1z"/>
			</g>
		</g>
		<g>
			<g>
				<path class="st2" d="M365.6,7.1c-3.8-7-2.9-15.4-4.6-23c-0.4-1.6-2.9-1.2-2.5,0.3c1.7,7.8,0.9,16.4,4.8,23.6
					C364,9.5,366.4,8.5,365.6,7.1L365.6,7.1z"/>
			</g>
			<g>
				<path class="st4" d="M370.3-0.6c4.1-0.3,7.9,1.7,12,1.2c1.6-0.2,1.3-2.7-0.3-2.5c-4.1,0.5-7.9-1.5-12-1.2
					C368.4-3,368.7-0.5,370.3-0.6L370.3-0.6z"/>
			</g>
			<g>
				<path class="st6" d="M371.4,3.9c1.5,3.5,3.4,6.9,4.7,10.5c0.6,1.5,2.9,0.5,2.3-1c-1.4-3.6-3.2-7-4.7-10.5
					C373.1,1.4,370.7,2.4,371.4,3.9L371.4,3.9z"/>
			</g>
			<g>
				<path class="st3" d="M353.7,2.1c-1.8,3.5-2.8,7.3-3.8,11.1c-0.4,1.6,2.1,1.9,2.5,0.3c0.9-3.6,2-7.1,3.6-10.5
					C356.7,1.7,354.4,0.7,353.7,2.1L353.7,2.1z"/>
			</g>
			<g>
				<path class="st2" d="M337.6,13.3c3.2-2,6.9-2.8,9.9-5.1c1.3-1-0.3-3-1.5-2c-3,2.3-6.7,3.2-9.9,5.1
					C334.6,12.2,336.2,14.2,337.6,13.3L337.6,13.3z"/>
			</g>
			<g>
				<path class="st7" d="M342.3-1.8c1.7,1,3.2,2.3,4.7,3.5c1.3,1,2.8-1,1.5-2c-1.5-1.2-3.1-2.5-4.7-3.5
					C342.4-4.7,340.9-2.7,342.3-1.8L342.3-1.8z"/>
			</g>
			<g>
				<path class="st2" d="M354.8,12.8c2.9,1.7,5,4.5,7.9,6.3c1.4,0.9,2.9-1.1,1.5-2c-2.8-1.9-4.9-4.6-7.9-6.3
					C354.9,9.9,353.4,11.9,354.8,12.8L354.8,12.8z"/>
			</g>
			<g>
				<path class="st4" d="M372.7,14.3c0.7-1.5-1.6-2.4-2.3-1c-2.5,5-4.1,10.3-5.9,15.5c-0.5,1.5,1.8,2.5,2.3,1l0,0"/>
			</g>
			<g>
				<path class="st5" d="M367.3,14.2c-1.5-1-3.1-2-4.6-3c-1.4-0.9-2.9,1.1-1.5,2c1.5,1,3.1,2,4.6,3C367.1,17,368.7,15.1,367.3,14.2
					L367.3,14.2z"/>
			</g>
			<g>
				<path class="st6" d="M360.5,25.9c-3.4-2.2-6.4-4.9-10-6.9c-1.4-0.8-2.4,1.5-1,2.3c3.3,1.9,6.2,4.4,9.4,6.5
					C360.4,28.8,361.9,26.8,360.5,25.9L360.5,25.9z"/>
			</g>
			<g>
				<path class="st7" d="M356.8,17.5c-0.7-1.5-3-0.5-2.3,1c0.6,1.2,1.2,2.3,1.8,3.4c0.3,0.6,1.3,0.6,1.8,0.2
					c0.6-0.5,0.6-1.2,0.2-1.8"/>
			</g>
		</g>
	</g>
</g>
</svg>
