<?xml version="1.0" encoding="utf-8"?>
<!-- Generator: Adobe Illustrator 23.0.2, SVG Export Plug-In . SVG Version: 6.00 Build 0)  -->
<svg version="1.1" xmlns="http://www.w3.org/2000/svg" xmlns:xlink="http://www.w3.org/1999/xlink" x="0px" y="0px"
	 viewBox="0 0 1935 1100" style="enable-background:new 0 0 1935 1100;" xml:space="preserve">
<g id="LiveType" style="display:none;">
</g>
<g id="Outlined">
	<g>
		<path style="fill:#FFFFFF;" d="M99.8105469,349.0292969h267.4257812v72.3369141H176.53125v98.0927734h190.7050781v71.7880859
			H176.53125v157.8251953H99.8105469V349.0292969z M458.2050781,321.0810547
			c26.3046875,0,44.3886719,19.1796875,44.3886719,44.9365234c0,25.7558594-17.5361328,44.9365234-44.9365234,44.9365234
			c-26.3046875,0-44.3886719-18.6328125-44.3886719-43.8408203
			C413.2685547,339.7128906,433.5449219,321.0810547,458.2050781,321.0810547z M420.3925781,453.1503906h75.625v295.921875h-75.625
			V453.1503906z M715.21875,535.3505859c-9.3154297-7.671875-23.5634766-13.1523438-36.7158203-13.1523438
			c-30.6884766,0-48.2246094,19.7285156-48.2246094,63.0205078v163.8535156h-75.0761719v-295.921875h71.7880859v42.7441406
			c15.34375-33.4287109,38.9082031-45.484375,70.6923828-45.484375c17.5361328,0,36.7167969,5.4794922,50.4169922,15.34375
			L715.21875,535.3505859z M746.4550781,602.7548828c0-84.9404297,63.0205078-155.6328125,152.3457031-155.6328125
			c88.7763672,0,151.796875,63.0205078,151.796875,150.7011719v31.2363281H820.4355469
			c8.2207031,37.2636719,37.2646484,61.9238281,81.6533203,61.9238281c34.5234375,0,58.0878906-16.4394531,73.4326172-43.8398438
			l63.0195312,37.8125c-31.2353516,46.0322266-75.6240234,70.1445312-138.6445312,70.1445312
			C803.9960938,755.1005859,746.4550781,690.9833984,746.4550781,602.7548828z M821.5322266,569.3271484h155.6328125
			c-8.2197266-37.8125-38.9082031-58.6367188-78.9130859-58.6367188
			C862.0839844,510.6904297,831.9443359,530.9667969,821.5322266,569.3271484z M1069.2294922,453.1503906h53.15625v-14.796875
			c0-80.5566406,33.9765625-113.984375,108.5048828-113.984375h26.3046875v65.2128906h-21.3720703
			c-35.0722656,0-42.7451172,12.0556641-42.7451172,48.7714844v14.796875h64.1171875v67.9521484h-62.4726562v227.9697266
			h-72.3369141V521.1025391h-53.15625V453.1503906z M1271.4433594,601.1113281
			c0-84.9404297,64.6640625-153.9892578,154.5371094-153.9892578c85.4882812,0,154.5371094,68.5,154.5371094,153.9892578
			c0,85.4882812-69.0488281,153.9892578-154.5371094,153.9892578
			C1333.9160156,755.1005859,1271.4433594,687.6953125,1271.4433594,601.1113281z M1507.0849609,601.1113281
			c0-47.1289062-35.0722656-83.8447266-81.1044922-83.8447266c-46.5800781,0-81.1044922,36.7158203-81.1044922,83.8447266
			c0,47.1279297,34.5244141,83.8447266,81.1044922,83.8447266
			C1472.0126953,684.9560547,1507.0849609,648.2392578,1507.0849609,601.1113281z M1682.4462891,597.8232422
			l-106.8603516-144.6728516h88.7763672l63.0205078,90.96875l64.6640625-90.96875h87.1328125l-108.5048828,144.125
			l113.9853516,151.796875h-88.2285156l-70.6933594-96.4492188l-68.5,96.4492188h-88.2285156L1682.4462891,597.8232422z"/>
	</g>
</g>
<g id="Layer_3">
</g>
<g id="Layer_4">
</g>
<g id="Layer_5">
</g>
</svg>
