<?xml version="1.0" encoding="UTF-8" standalone="no"?>
<!-- Created with Inkscape (http://www.inkscape.org/) -->

<svg
   xmlns:dc="http://purl.org/dc/elements/1.1/"
   xmlns:cc="http://creativecommons.org/ns#"
   xmlns:rdf="http://www.w3.org/1999/02/22-rdf-syntax-ns#"
   xmlns:svg="http://www.w3.org/2000/svg"
   xmlns="http://www.w3.org/2000/svg"
   xmlns:sodipodi="http://sodipodi.sourceforge.net/DTD/sodipodi-0.dtd"
   xmlns:inkscape="http://www.inkscape.org/namespaces/inkscape"
   width="1659.2126"
   height="1892.7872"
   viewBox="0 0 439.00003 500.79993"
   version="1.1"
   id="svg8"
   inkscape:version="0.92.2 (5c3e80d, 2017-08-06)"
   sodipodi:docname="hexagon_sticker_one.svg">
  <defs
     id="defs2" />
  <sodipodi:namedview
     id="base"
     pagecolor="#ffffff"
     bordercolor="#666666"
     borderopacity="1.0"
     inkscape:pageopacity="0.0"
     inkscape:pageshadow="2"
     inkscape:zoom="0.17876543"
     inkscape:cx="554.01508"
     inkscape:cy="826.37163"
     inkscape:document-units="mm"
     inkscape:current-layer="layer1"
     inkscape:document-rotation="0"
     showgrid="false"
     borderlayer="true"
     inkscape:showpageshadow="false"
     units="px"
     inkscape:pagecheckerboard="false"
     showguides="true"
     inkscape:window-width="1366"
     inkscape:window-height="713"
     inkscape:window-x="0"
     inkscape:window-y="0"
     inkscape:window-maximized="1"
     fit-margin-top="0"
     fit-margin-left="0"
     fit-margin-right="0"
     fit-margin-bottom="0">
    <inkscape:grid
       type="xygrid"
       id="grid10"
       originx="411.95226"
       originy="-506.59208" />
  </sodipodi:namedview>
  <metadata
     id="metadata5">
    <rdf:RDF>
      <cc:Work
         rdf:about="">
        <dc:format>image/svg+xml</dc:format>
        <dc:type
           rdf:resource="http://purl.org/dc/dcmitype/StillImage" />
        <dc:title></dc:title>
      </cc:Work>
    </rdf:RDF>
  </metadata>
  <g
     inkscape:label="Layer 1"
     inkscape:groupmode="layer"
     id="layer1"
     transform="translate(411.95225,710.39207)">
    <path
       style="opacity:1;fill:#7ac943;fill-opacity:1;fill-rule:nonzero;stroke:none;stroke-width:7.92568445;stroke-linecap:square;stroke-linejoin:round;stroke-miterlimit:4;stroke-dasharray:none;stroke-opacity:1;paint-order:markers fill stroke"
       d="M 829.60547 0 L 0 473.19727 L 0 1419.5898 L 829.60547 1892.7871 L 1659.2129 1419.5898 L 1659.2129 473.19727 L 829.60547 0 z M 829.60547 154.40625 L 1523.8594 550.40039 L 1523.8594 1342.3867 L 829.60547 1738.3809 L 135.35352 1342.3867 L 135.35352 550.40039 L 829.60547 154.40625 z "
       transform="matrix(0.26458333,0,0,0.26458333,-411.95225,-710.39207)"
       id="path1059" />
    <g
       id="g1091"
       transform="matrix(0.57286205,0,0,0.57286205,-1131.0775,-591.16841)"
       style="fill:#f7931d;fill-opacity:0.98431373"
       inkscape:export-filename="/home/anxhelo/Desktop/image.png"
       inkscape:export-xdpi="26.42654"
       inkscape:export-ydpi="26.42654">
      <g
         style="fill:#f7931d;fill-opacity:0.98431373"
         id="g1089"
         transform="matrix(3.924147,0,0,3.924147,760.02441,-630.8553)">
        <g
           style="fill:#f7931d;fill-opacity:0.98431373"
           id="g1087">
          <path
             id="path1079"
             d="m 267.4,193.35 v -20.69 h -20.69 v 7.89 h 7.46 l -15.94,15.94 c -1.75,-1.28 -3.62,-2.32 -5.57,-3.1 -3.1,-1.31 -6.5,-2.04 -10.08,-2.04 -5.64,0 -10.86,1.82 -15.11,4.89 l -3.76,-3.76 6.34,-6.34 -5.58,-5.58 -6.34,6.34 -6.34,-6.34 h 7 v -7.89 H 178.1 v 20.69 h 7.89 v -7.46 l 6.58,6.58 -6.34,6.34 5.58,5.58 6.34,-6.34 3.72,3.72 c -3.19,4.3 -5.08,9.62 -5.08,15.38 0,7.17 2.92,13.65 7.64,18.33 0.02,0.02 0.05,0.05 0.07,0.08 0,0 0,0.01 0.01,0.01 0,0 0.01,0 0.01,0.01 0.3,0.3 0.6,0.59 0.92,0.87 0.15,0.14 0.3,0.26 0.46,0.4 0.17,0.14 0.33,0.29 0.5,0.43 0.2,0.16 0.4,0.32 0.6,0.47 0.13,0.1 0.26,0.2 0.39,0.3 0.22,0.16 0.45,0.32 0.67,0.48 0.12,0.08 0.23,0.17 0.35,0.24 0.23,0.16 0.47,0.31 0.71,0.45 0.12,0.07 0.24,0.15 0.36,0.22 0.23,0.14 0.47,0.27 0.71,0.41 0.13,0.07 0.26,0.15 0.4,0.22 0.22,0.12 0.45,0.23 0.67,0.35 0.16,0.08 0.31,0.16 0.47,0.23 0.21,0.1 0.41,0.19 0.62,0.28 0.18,0.08 0.36,0.16 0.55,0.24 0.19,0.08 0.37,0.15 0.56,0.22 0.21,0.08 0.42,0.16 0.64,0.24 0.16,0.06 0.33,0.11 0.49,0.17 0.24,0.08 0.48,0.16 0.72,0.23 0.15,0.04 0.29,0.08 0.44,0.13 0.26,0.07 0.52,0.15 0.78,0.21 0.14,0.03 0.27,0.06 0.41,0.09 0.27,0.06 0.54,0.12 0.82,0.18 0.14,0.03 0.28,0.05 0.42,0.08 0.16,0.03 0.32,0.06 0.48,0.09 v 5.54 h -8.96 v 7.89 h 8.96 v 9.32 h 7.89 v -9.32 h 8.96 v -7.89 h -8.96 v -5.46 c 5.38,-0.74 10.57,-3.18 14.7,-7.31 9.13,-9.13 9.99,-23.4 2.58,-33.5 l 15.7,-15.7 v 7 h 7.87 z m -57.09,36.63 c -3.39,-3.39 -5.25,-7.89 -5.25,-12.67 0,-4.79 1.86,-9.29 5.25,-12.67 3.36,-3.36 7.81,-5.22 12.56,-5.25 0.27,0 0.53,0.01 0.8,0.02 0.05,0 0.1,0.01 0.15,0.01 0.26,0.02 0.51,0.03 0.77,0.06 0.01,0 0.03,0 0.04,0 4.16,0.43 7.9,2.29 10.72,5.08 3.2,3.24 5.18,7.68 5.18,12.58 0,9.88 -8.04,17.92 -17.92,17.92 -2.44,0 -4.77,-0.49 -6.89,-1.38 -2.01,-0.88 -3.83,-2.12 -5.41,-3.7 z"
             inkscape:connector-curvature="0"
             style="fill:#f7931d;fill-opacity:0.98431373" />
          <polygon
             id="polygon1081"
             points="274.57,222.92 260.55,236.94 266.13,242.51 285.72,222.92 266.13,203.32 260.55,208.9 "
             style="fill:#7ac943;fill-opacity:1" />
          <g
             style="fill:#f7931d;fill-opacity:0.98431373"
             id="g1085">
            <polygon
               id="polygon1083"
               points="181.59,242.51 187.17,236.94 173.15,222.92 187.17,208.9 181.59,203.32 162,222.92 "
               style="fill:#7ac943;fill-opacity:1" />
          </g>
        </g>
      </g>
    </g>
    <g
       id="g1159"
       transform="matrix(0.9990541,0,0,0.9990541,221.79056,-183.02023)"
       style="fill:#ffffff"
       inkscape:export-filename="/home/anxhelo/Desktop/image.png"
       inkscape:export-xdpi="26.42654"
       inkscape:export-ydpi="26.42654" />
  </g>
</svg>
