<?xml version="1.0" encoding="UTF-8" standalone="no"?>
<!-- Created with Inkscape (http://www.inkscape.org/) -->

<svg
   xmlns:dc="http://purl.org/dc/elements/1.1/"
   xmlns:cc="http://creativecommons.org/ns#"
   xmlns:rdf="http://www.w3.org/1999/02/22-rdf-syntax-ns#"
   xmlns:svg="http://www.w3.org/2000/svg"
   xmlns="http://www.w3.org/2000/svg"
   xmlns:sodipodi="http://sodipodi.sourceforge.net/DTD/sodipodi-0.dtd"
   xmlns:inkscape="http://www.inkscape.org/namespaces/inkscape"
   width="970.24609"
   height="212.57422"
   viewBox="0 0 256.71096 56.243593"
   version="1.1"
   id="svg8"
   inkscape:version="0.92.2 (5c3e80d, 2017-08-06)"
   sodipodi:docname="horizotal_black.svg"
   inkscape:export-filename="/home/anxhelo/Desktop/coding foundation/horizotal_color.png"
   inkscape:export-xdpi="96"
   inkscape:export-ydpi="96">
  <defs
     id="defs2" />
  <sodipodi:namedview
     id="base"
     pagecolor="#ffffff"
     bordercolor="#666666"
     borderopacity="1.0"
     inkscape:pageopacity="0.0"
     inkscape:pageshadow="2"
     inkscape:zoom="0.505625"
     inkscape:cx="413.19"
     inkscape:cy="244.84958"
     inkscape:document-units="mm"
     inkscape:current-layer="layer1"
     inkscape:document-rotation="0"
     showgrid="false"
     borderlayer="true"
     inkscape:showpageshadow="false"
     units="px"
     inkscape:pagecheckerboard="false"
     showguides="true"
     inkscape:window-width="1366"
     inkscape:window-height="713"
     inkscape:window-x="0"
     inkscape:window-y="0"
     inkscape:window-maximized="1"
     fit-margin-top="0"
     fit-margin-left="0"
     fit-margin-right="0"
     fit-margin-bottom="0">
    <inkscape:grid
       type="xygrid"
       id="grid10"
       originx="-83.572844"
       originy="-91.709263" />
  </sodipodi:namedview>
  <metadata
     id="metadata5">
    <rdf:RDF>
      <cc:Work
         rdf:about="">
        <dc:format>image/svg+xml</dc:format>
        <dc:type
           rdf:resource="http://purl.org/dc/dcmitype/StillImage" />
        <dc:title></dc:title>
      </cc:Work>
    </rdf:RDF>
  </metadata>
  <g
     inkscape:label="Layer 1"
     inkscape:groupmode="layer"
     id="layer1"
     transform="translate(-83.572834,-149.04715)">
    <g
       id="g845"
       transform="matrix(0.57286205,0,0,0.57286205,-9.2308182,52.31939)"
       style="fill:#000000">
      <g
         id="g843"
         style="fill:#000000">
        <path
           id="path835"
           d="m 267.4,193.35 v -20.69 h -20.69 v 7.89 h 7.46 l -15.94,15.94 c -1.75,-1.28 -3.62,-2.32 -5.57,-3.1 -3.1,-1.31 -6.5,-2.04 -10.08,-2.04 -5.64,0 -10.86,1.82 -15.11,4.89 l -3.76,-3.76 6.34,-6.34 -5.58,-5.58 -6.34,6.34 -6.34,-6.34 h 7 v -7.89 H 178.1 v 20.69 h 7.89 v -7.46 l 6.58,6.58 -6.34,6.34 5.58,5.58 6.34,-6.34 3.72,3.72 c -3.19,4.3 -5.08,9.62 -5.08,15.38 0,7.17 2.92,13.65 7.64,18.33 0.02,0.02 0.05,0.05 0.07,0.08 0,0 0,0.01 0.01,0.01 0,0 0.01,0 0.01,0.01 0.3,0.3 0.6,0.59 0.92,0.87 0.15,0.14 0.3,0.26 0.46,0.4 0.17,0.14 0.33,0.29 0.5,0.43 0.2,0.16 0.4,0.32 0.6,0.47 0.13,0.1 0.26,0.2 0.39,0.3 0.22,0.16 0.45,0.32 0.67,0.48 0.12,0.08 0.23,0.17 0.35,0.24 0.23,0.16 0.47,0.31 0.71,0.45 0.12,0.07 0.24,0.15 0.36,0.22 0.23,0.14 0.47,0.27 0.71,0.41 0.13,0.07 0.26,0.15 0.4,0.22 0.22,0.12 0.45,0.23 0.67,0.35 0.16,0.08 0.31,0.16 0.47,0.23 0.21,0.1 0.41,0.19 0.62,0.28 0.18,0.08 0.36,0.16 0.55,0.24 0.19,0.08 0.37,0.15 0.56,0.22 0.21,0.08 0.42,0.16 0.64,0.24 0.16,0.06 0.33,0.11 0.49,0.17 0.24,0.08 0.48,0.16 0.72,0.23 0.15,0.04 0.29,0.08 0.44,0.13 0.26,0.07 0.52,0.15 0.78,0.21 0.14,0.03 0.27,0.06 0.41,0.09 0.27,0.06 0.54,0.12 0.82,0.18 0.14,0.03 0.28,0.05 0.42,0.08 0.16,0.03 0.32,0.06 0.48,0.09 v 5.54 h -8.96 v 7.89 h 8.96 v 9.32 h 7.89 v -9.32 h 8.96 v -7.89 h -8.96 v -5.46 c 5.38,-0.74 10.57,-3.18 14.7,-7.31 9.13,-9.13 9.99,-23.4 2.58,-33.5 l 15.7,-15.7 v 7 h 7.87 z m -57.09,36.63 c -3.39,-3.39 -5.25,-7.89 -5.25,-12.67 0,-4.79 1.86,-9.29 5.25,-12.67 3.36,-3.36 7.81,-5.22 12.56,-5.25 0.27,0 0.53,0.01 0.8,0.02 0.05,0 0.1,0.01 0.15,0.01 0.26,0.02 0.51,0.03 0.77,0.06 0.01,0 0.03,0 0.04,0 4.16,0.43 7.9,2.29 10.72,5.08 3.2,3.24 5.18,7.68 5.18,12.58 0,9.88 -8.04,17.92 -17.92,17.92 -2.44,0 -4.77,-0.49 -6.89,-1.38 -2.01,-0.88 -3.83,-2.12 -5.41,-3.7 z"
           inkscape:connector-curvature="0"
           style="fill:#000000" />
        <polygon
           id="polygon837"
           points="285.72,222.92 266.13,203.32 260.55,208.9 274.57,222.92 260.55,236.94 266.13,242.51 "
           style="fill:#000000" />
        <g
           id="g841"
           style="fill:#000000">
          <polygon
             id="polygon839"
             points="162,222.92 181.59,242.51 187.17,236.94 173.15,222.92 187.17,208.9 181.59,203.32 "
             style="fill:#000000" />
        </g>
      </g>
    </g>
    <g
       transform="matrix(0.57286205,0,0,0.57286205,180.19646,305.5868)"
       id="g1048"
       style="fill:#000000">
      <path
         style="fill:#000000"
         inkscape:connector-curvature="0"
         d="m -7.9982235,-252.9689 c -4.2799995,0 -7.2999995,3.31 -7.2999995,8.21 0,4.96 3.02,8.32 7.2999995,8.32 3.14,0 5.59,-1.2 7.13000002,-3.59 l 6.03999998,4.1 c -2.57,4.28 -7.35,6.78 -13.63,6.78 -9.2899995,0 -15.6199995,-6.27 -15.6199995,-15.56 0,-9.41 6.33,-15.73 15.7299995,-15.73 5.87,0 10.55,2.34 13.28,6.44 l -5.92999998,4.28 c -1.64000002,-2.05 -3.98000002,-3.31 -7.00000002,-3.25 z"
         id="path847"
         transform="translate(1.7092539e-6)" />
      <path
         style="fill:#000000"
         inkscape:connector-curvature="0"
         d="m 38.521777,-244.8189 c 0,9.35 -6.61,15.68 -16.42,15.68 -9.86,0 -16.4800005,-6.33 -16.4800005,-15.68 0,-9.41 6.6100005,-15.62 16.4800005,-15.62 9.8,0 16.42,6.22 16.42,15.62 z m -24.12,0.12 c 0,5.02 3.14,8.44 7.7,8.44 4.5,0 7.64,-3.42 7.64,-8.44 0,-5.02 -3.14,-8.44 -7.64,-8.44 -4.56,0 -7.7,3.42 -7.7,8.44 z"
         id="path849"
         transform="translate(1.7092539e-6)" />
      <path
         style="fill:#000000"
         inkscape:connector-curvature="0"
         d="m 73.171777,-271.7789 v 42.3 h -8.72 v -4.5 c -2.17,3.14 -5.47,4.85 -9.69,4.85 -8.72,0 -14.48,-6.33 -14.48,-15.79 0,-9.35 5.7,-15.56 14.25,-15.56 4.33,0 7.7,1.71 9.92,4.85 v -16.13 h 8.72 z m -8.72,27.08 c 0,-5.02 -3.14,-8.49 -7.64,-8.49 -4.56,0 -7.7,3.53 -7.75,8.49 0.06,5.02 3.14,8.49 7.75,8.49 4.5,0 7.64,-3.48 7.64,-8.49 z"
         id="path851"
         transform="translate(1.7092539e-6)" />
      <path
         style="fill:#000000"
         inkscape:connector-curvature="0"
         d="m 89.301777,-260.1489 v 30.67 h -8.78 v -30.67 z m -0.11,-8.72 c 0,2.51 -1.77,4.39 -4.28,4.39 -2.51,0 -4.28,-1.88 -4.28,-4.39 0,-2.57 1.77,-4.39 4.28,-4.39 2.51,0 4.28,1.82 4.28,4.39 z"
         id="path853"
         transform="translate(1.7092539e-6)" />
      <path
         style="fill:#000000"
         inkscape:connector-curvature="0"
         d="m 126.92178,-248.7489 v 19.27 h -8.78 v -16.7 c 0,-3.88 -2.28,-6.27 -6.04,-6.27 -4.39,0.06 -7.01,3.36 -7.01,7.87 v 15.11 h -8.780003 v -30.67 h 8.780003 v 5.36 c 2.17,-3.82 5.81,-5.64 10.6,-5.7 6.84,-0.01 11.23,4.55 11.23,11.73 z"
         id="path855"
         transform="translate(1.7092539e-6)" />
      <path
         style="fill:#000000"
         inkscape:connector-curvature="0"
         d="m 161.80178,-260.1489 v 27.82 c 0,8.72 -6.56,14.25 -16.36,14.25 -5.19,0 -9.8,-1.65 -13.34,-4.05 l 3.25,-6.16 c 2.79,2 6.04,3.08 9.52,3.08 5.02,0 8.21,-2.68 8.21,-6.84 v -3.48 c -2.05,2.85 -5.19,4.45 -9.23,4.45 -7.92,0 -13.4,-5.93 -13.4,-14.82 0,-8.67 5.36,-14.54 13.17,-14.54 4.16,-0.06 7.35,1.6 9.46,4.45 v -4.16 z m -8.72,14.48 c 0,-4.73 -2.91,-7.98 -7.18,-7.98 -4.27,0 -7.18,3.31 -7.24,7.98 0.06,4.67 2.91,7.92 7.24,7.92 4.27,0 7.18,-3.25 7.18,-7.92 z"
         id="path857"
         transform="translate(1.7092539e-6)" />
      <path
         style="fill:#000000"
         inkscape:connector-curvature="0"
         d="m -11.078223,-207.3489 v 2.56 h 7.2399995 v 6.1 h -7.2399995 v 23.2 h -8.72 v -23.2 h -4.1 v -6.1 h 4.1 v -2.91 c 0,-6.84 5.13,-10.49 11.2899995,-10.49 2.85,0 5.87,0.74 8.04000002,2.17 l -3.14000002,6.38 c -1.14,-0.85 -2.57,-1.31 -3.82,-1.31 -2.05,0.01 -3.6499995,1.15 -3.6499995,3.6 z"
         id="path859"
         transform="translate(1.7092539e-6)" />
      <path
         style="fill:#000000"
         inkscape:connector-curvature="0"
         d="m 28.031777,-190.8189 c 0,9.35 -6.61,15.68 -16.42,15.68 -9.8600005,0 -16.4800005,-6.33 -16.4800005,-15.68 0,-9.41 6.61,-15.62 16.4800005,-15.62 9.81,0 16.42,6.22 16.42,15.62 z m -24.1200005,0.12 c 0,5.02 3.14,8.44 7.7000005,8.44 4.5,0 7.64,-3.42 7.64,-8.44 0,-5.02 -3.14,-8.44 -7.64,-8.44 -4.5600005,0 -7.7000005,3.42 -7.7000005,8.44 z"
         id="path861"
         transform="translate(1.7092539e-6)" />
      <path
         style="fill:#000000"
         inkscape:connector-curvature="0"
         d="m 61.541777,-206.1489 v 30.67 h -8.72 v -5.42 c -2.11,3.88 -5.64,5.76 -10.26,5.76 -6.78,0 -11.06,-4.5 -11.06,-11.74 v -19.27 h 8.78 v 16.76 c 0,3.88 2.22,6.21 5.76,6.21 4.22,-0.06 6.78,-3.36 6.78,-7.81 v -15.16 z"
         id="path863"
         transform="translate(1.7092539e-6)" />
      <path
         style="fill:#000000"
         inkscape:connector-curvature="0"
         d="m 99.221777,-194.7489 v 19.27 h -8.78 v -16.7 c 0,-3.88 -2.28,-6.27 -6.04,-6.27 -4.39,0.06 -7.01,3.36 -7.01,7.87 v 15.11 h -8.78 v -30.67 h 8.78 v 5.36 c 2.17,-3.82 5.81,-5.64 10.6,-5.7 6.84,-0.01 11.23,4.55 11.23,11.73 z"
         id="path865"
         transform="translate(1.7092539e-6)" />
      <path
         style="fill:#000000"
         inkscape:connector-curvature="0"
         d="m 135.64178,-213.1089 v 37.63 h -8.72 v -4.5 c -2.17,3.14 -5.47,4.85 -9.69,4.85 -8.72,0 -14.48,-6.33 -14.48,-15.79 0,-9.35 5.7,-15.56 14.25,-15.56 4.33,0 7.7,1.71 9.92,4.85 v -11.48 z m -8.72,22.41 c 0,-5.02 -3.13,-8.49 -7.64,-8.49 -4.56,0 -7.7,3.53 -7.75,8.49 0.06,5.02 3.14,8.49 7.75,8.49 4.51,0 7.64,-3.48 7.64,-8.49 z"
         id="path867"
         transform="translate(1.7092539e-6)" />
      <path
         style="fill:#000000"
         inkscape:connector-curvature="0"
         d="m 160.78178,-175.4789 v -3.59 c -2.05,2.56 -5.36,3.99 -9.63,3.99 -6.56,0 -10.55,-3.99 -10.55,-9.58 0,-5.76 4.16,-9.18 11.69,-9.23 h 8.44 v -0.57 c 0,-3.25 -2.17,-5.13 -6.38,-5.13 -2.74,0 -5.93,0.91 -9.12,2.68 l -2.74,-6.04 c 4.56,-2.28 8.49,-3.53 13.85,-3.53 8.21,0 12.94,4.1 13,11 l 0.06,20.01 h -8.62 z m -0.06,-10.49 v -2.74 h -6.9 c -3.36,0 -5.02,1.03 -5.02,3.48 0,2.34 1.82,3.88 4.79,3.88 3.71,0 6.62,-2 7.13,-4.62 z"
         id="path869"
         transform="translate(1.7092539e-6)" />
      <path
         style="fill:#000000"
         inkscape:connector-curvature="0"
         d="m 194.52178,-177.1889 c -2.28,1.31 -5.13,2.11 -7.98,2.11 -5.47,0 -9.63,-3.14 -9.63,-9.46 v -14.19 h -4.28 v -6.04 h 4.28 v -8.44 h 8.72 v 8.44 h 8.32 v 6.1 h -8.32 v 12.66 c 0,2.57 1.08,3.59 2.96,3.53 1.14,0 2.51,-0.4 4.1,-1.14 z"
         id="path871"
         transform="translate(1.7092539e-6)" />
      <path
         style="fill:#000000"
         inkscape:connector-curvature="0"
         d="m 244.45178,-190.8189 c 0,9.35 -6.61,15.68 -16.42,15.68 -9.86,0 -16.47,-6.33 -16.47,-15.68 0,-9.41 6.61,-15.62 16.47,-15.62 9.81,0 16.42,6.22 16.42,15.62 z m -24.11,0.12 c 0,5.02 3.14,8.44 7.7,8.44 4.5,0 7.64,-3.42 7.64,-8.44 0,-5.02 -3.13,-8.44 -7.64,-8.44 -4.57,0 -7.7,3.42 -7.7,8.44 z"
         id="path873"
         transform="translate(1.7092539e-6)" />
      <path
         style="fill:#000000"
         inkscape:connector-curvature="0"
         d="m 279.45178,-194.7489 v 19.27 h -8.78 v -16.7 c 0,-3.88 -2.28,-6.27 -6.04,-6.27 -4.39,0.06 -7.01,3.36 -7.01,7.87 v 15.11 h -8.78 v -30.67 h 8.78 v 5.36 c 2.17,-3.82 5.82,-5.64 10.6,-5.7 6.84,-0.01 11.23,4.55 11.23,11.73 z"
         id="path875"
         transform="translate(1.7092539e-6)" />
      <g
         transform="translate(-330.66822,-442.1089)"
         id="g883"
         style="fill:#000000">
        <path
           style="fill:#000000"
           inkscape:connector-curvature="0"
           d="m 529.07,240.41 v 26.21 h 8.78 v -26.21 c -1.26,0.77 -2.75,1.21 -4.39,1.21 -1.64,0.01 -3.14,-0.44 -4.39,-1.21 z"
           id="path879" />
        <ellipse
           style="fill:#000000"
           cx="533.46002"
           cy="233.24001"
           rx="4.2800002"
           ry="4.3899999"
           id="ellipse881" />
      </g>
    </g>
  </g>
</svg>
