<?xml version="1.0" encoding="UTF-8" standalone="no"?>
<!-- Created with Inkscape (http://www.inkscape.org/) -->

<svg
   xmlns:dc="http://purl.org/dc/elements/1.1/"
   xmlns:cc="http://creativecommons.org/ns#"
   xmlns:rdf="http://www.w3.org/1999/02/22-rdf-syntax-ns#"
   xmlns:svg="http://www.w3.org/2000/svg"
   xmlns="http://www.w3.org/2000/svg"
   xmlns:sodipodi="http://sodipodi.sourceforge.net/DTD/sodipodi-0.dtd"
   xmlns:inkscape="http://www.inkscape.org/namespaces/inkscape"
   width="400"
   height="400"
   viewBox="0 0 105.83334 105.83333"
   version="1.1"
   id="svg8"
   inkscape:version="0.92.2 (5c3e80d, 2017-08-06)"
   sodipodi:docname="Intent_to_ship_twitter_icon.svg">
  <defs
     id="defs2" />
  <sodipodi:namedview
     id="base"
     pagecolor="#ffffff"
     bordercolor="#666666"
     borderopacity="1.0"
     inkscape:pageopacity="0.0"
     inkscape:pageshadow="2"
     inkscape:zoom="0.35753087"
     inkscape:cx="-100.48108"
     inkscape:cy="95.989934"
     inkscape:document-units="mm"
     inkscape:current-layer="layer1"
     inkscape:document-rotation="0"
     showgrid="false"
     borderlayer="true"
     inkscape:showpageshadow="false"
     units="px"
     inkscape:pagecheckerboard="false"
     showguides="true"
     inkscape:window-width="1366"
     inkscape:window-height="715"
     inkscape:window-x="0"
     inkscape:window-y="0"
     inkscape:window-maximized="1"
     fit-margin-top="0"
     fit-margin-left="0"
     fit-margin-right="0"
     fit-margin-bottom="0">
    <inkscape:grid
       type="xygrid"
       id="grid10"
       originx="-117.74955"
       originy="-91.282762" />
  </sodipodi:namedview>
  <metadata
     id="metadata5">
    <rdf:RDF>
      <cc:Work
         rdf:about="">
        <dc:format>image/svg+xml</dc:format>
        <dc:type
           rdf:resource="http://purl.org/dc/dcmitype/StillImage" />
        <dc:title></dc:title>
      </cc:Work>
    </rdf:RDF>
  </metadata>
  <g
     inkscape:label="Layer 1"
     inkscape:groupmode="layer"
     id="layer1"
     transform="translate(-117.74955,-99.883909)">
    <g
       id="g269548"
       transform="matrix(0.16884328,0,0,0.16884328,134.35343,122.00327)">
      <rect
         style="opacity:1;fill:#1d2b3a;fill-opacity:1;stroke:none;stroke-width:10.5813694;stroke-linecap:round;stroke-linejoin:round;stroke-miterlimit:10;stroke-dasharray:none;stroke-dashoffset:43.76693344;stroke-opacity:0.05882353;paint-order:normal"
         id="rect92230"
         width="626.81403"
         height="626.81403"
         x="-98.339027"
         y="-131.00528"
         inkscape:export-filename="/home/anxhelo/Desktop/icon2.png"
         inkscape:export-xdpi="16.209999"
         inkscape:export-ydpi="16.209999" />
      <path
         inkscape:connector-curvature="0"
         id="path180399-9-5"
         style="fill:none;stroke:#fcffff;stroke-width:6.3963275;stroke-linecap:round;stroke-linejoin:miter;stroke-miterlimit:10;stroke-dasharray:none;stroke-opacity:1"
         d="m 298.54692,304.58002 -66.68259,25.69183"
         inkscape:transform-center-x="-8.4562397"
         inkscape:transform-center-y="-12.332706"
         inkscape:export-filename="/home/anxhelo/Desktop/icon2.png"
         inkscape:export-xdpi="16.209999"
         inkscape:export-ydpi="16.209999" />
      <path
         inkscape:connector-curvature="0"
         id="path180405-6-3"
         style="fill:none;stroke:#fcffff;stroke-width:6.64560413;stroke-linecap:round;stroke-linejoin:miter;stroke-miterlimit:10;stroke-dasharray:none;stroke-opacity:1"
         d="m 201.01979,15.684236 -51.28946,51.67596"
         inkscape:transform-center-x="0.19942267"
         inkscape:transform-center-y="-5.0406561"
         inkscape:export-filename="/home/anxhelo/Desktop/icon2.png"
         inkscape:export-xdpi="16.209999"
         inkscape:export-ydpi="16.209999" />
      <path
         inkscape:export-ydpi="16.209999"
         inkscape:export-xdpi="16.209999"
         inkscape:export-filename="/home/anxhelo/Desktop/icon2.png"
         inkscape:connector-curvature="0"
         id="path180407-1-5"
         style="fill:none;stroke:#ffffff;stroke-width:6.33798742;stroke-linecap:butt;stroke-linejoin:miter;stroke-miterlimit:10;stroke-dasharray:none;stroke-opacity:1"
         d="M 348.19964,261.88947 100.81053,357.04306" />
      <path
         inkscape:connector-curvature="0"
         id="path180409-2-6"
         style="fill:none;stroke:#ffffff;stroke-width:6.33798742;stroke-linecap:butt;stroke-linejoin:miter;stroke-miterlimit:10;stroke-dasharray:none;stroke-opacity:1"
         d="M 17.086192,231.97814 207.4185,39.736836"
         inkscape:export-filename="/home/anxhelo/Desktop/icon2.png"
         inkscape:export-xdpi="16.209999"
         inkscape:export-ydpi="16.209999" />
      <path
         style="fill:none;stroke:#ffffff;stroke-width:6.86836195;stroke-linecap:butt;stroke-linejoin:miter;stroke-miterlimit:10;stroke-dasharray:none;stroke-opacity:1"
         d="M 145.12489,257.338 C 129.82842,217.56872 85.186372,197.7328 45.417062,213.02937 5.6502422,228.32488 -14.192551,272.96369 1.1039172,312.73297 16.400412,352.50214 61.042272,372.33833 100.80912,357.04271 140.57841,341.74625 160.42139,297.10718 145.12489,257.338 Z"
         id="path180411-9-2"
         inkscape:connector-curvature="0"
         inkscape:export-filename="/home/anxhelo/Desktop/icon2.png"
         inkscape:export-xdpi="16.209999"
         inkscape:export-ydpi="16.209999" />
      <path
         style="fill:#fbffff;fill-opacity:1;stroke-width:1.13867462"
         id="path180417-3-9"
         d="m 30.471022,296.76391 c -0.79728,0.68299 -1.02496,1.82184 -0.56942,2.8467 l 8.99551,15.48583 c 0.56934,1.0246 1.70809,1.36654 2.73275,1.02489 l 11.1592,-4.44048 c 2.27734,1.7081 4.78247,3.30221 7.51533,4.3271 l 1.70793,11.84215 c 0.11391,1.02491 1.02499,1.82192 2.1635,1.82205 l 17.87731,-2.4e-4 c 1.13864,5e-5 2.04655,-0.80462 2.16338,-1.82174 l 1.70802,-11.84235 c 2.73296,-1.13834 5.23793,-2.61887 7.51528,-4.32676 l 11.159098,4.44072 c 1.02457,0.34163 2.16344,-1.6e-4 2.7327,-1.02492 l 8.99548,-15.48598 c 0.56929,-1.02487 0.3417,-2.16353 -0.56922,-2.84676 l -9.45117,-7.40153 c 0.22776,-1.48021 0.34164,-2.96029 0.34168,-4.32673 -1.3e-4,-1.36658 -0.11391,-2.96064 -0.34176,-4.32708 l 9.45127,-7.40137 c 0.79698,-0.68311 1.13868,-1.82179 0.56926,-2.84652 l -8.99564,-15.48612 c -0.56916,-1.02486 -1.70783,-1.36633 -2.73266,-1.02484 l -11.159288,4.44045 c -2.27728,-1.70796 -4.78241,-3.3021 -7.5151,-4.32683 l -1.7081,-11.84228 c -0.11381,-1.02489 -1.02479,-1.82187 -2.16337,-1.82181 h -17.87744 c -1.13854,-6e-5 -2.04655,0.80462 -2.16331,1.82186 l -1.70799,11.84223 c -2.73296,1.13834 -5.23803,2.61884 -7.51535,4.32696 l -11.15897,-4.44076 c -1.02476,-0.34171 -2.16344,-1.9e-4 -2.73269,1.02491 l -8.99558,15.48593 c -0.56935,1.02474 -0.34147,2.1635 0.56925,2.84668 l 9.45123,7.40135 c -0.22792,1.48037 -0.34179,2.84684 -0.34167,4.32702 -7e-5,1.48016 0.11374,2.96051 0.34139,4.32687 z m 26.9865,-11.84233 c -1.5e-4,-8.65391 7.05986,-15.59988 15.59986,-15.5998 8.65398,0 15.59959,7.05977 15.5997,15.59985 2.7e-4,8.65397 -7.05986,15.59986 -15.5998,15.59992 -8.53997,0.11377 -15.59975,-6.94598 -15.59976,-15.59997 z"
         class="st2"
         inkscape:connector-curvature="0"
         inkscape:export-filename="/home/anxhelo/Desktop/icon2.png"
         inkscape:export-xdpi="16.209999"
         inkscape:export-ydpi="16.209999" />
      <path
         inkscape:connector-curvature="0"
         id="path180423-1-1"
         d="M 348.19964,261.88947 C 417.32447,235.30189 451.80767,157.71619 425.22006,88.591466 398.63298,19.467806 321.04466,-15.015234 251.91983,11.572336 182.79746,38.158976 148.31545,115.74779 174.90263,184.87141 201.49014,253.9961 279.07494,288.47697 348.19964,261.88947 Z"
         style="fill:none;stroke:#ffffff;stroke-width:6.86836195;stroke-linecap:butt;stroke-linejoin:miter;stroke-miterlimit:10;stroke-dasharray:none;stroke-opacity:1"
         inkscape:export-filename="/home/anxhelo/Desktop/icon2.png"
         inkscape:export-xdpi="16.209999"
         inkscape:export-ydpi="16.209999" />
      <path
         id="path92137-3-2"
         d="m 300.09516,40.121346 c 18.85217,-8e-5 28.86993,2.37744 45.08923,10.69647 9.18713,4.71212 12.99266,7.63639 22.95015,17.64625 13.63509,13.707 19.774,23.92169 25.14631,41.841434 4.11554,13.72678 4.65183,35.57431 1.20076,48.94056 -9.02875,34.96985 -36.01762,62.20214 -70.34736,70.98168 -10.77804,2.75632 -28.36302,3.93242 -37.39084,2.49914 -20.92343,-3.32147 -38.27566,-11.96234 -53.93222,-26.85761 -12.62694,-12.01251 -20.53,-25.17905 -25.97163,-43.2706 -4.35403,-14.47559 -4.6523,-36.86416 -0.67844,-50.85927 9.42229,-33.184044 36.43863,-60.210404 69.04646,-69.072144 7.31718,-1.98853 12.77043,-2.54597 24.88758,-2.54591 z"
         style="fill:#ffffff;fill-opacity:1;stroke-width:1.19367242"
         inkscape:connector-curvature="0"
         inkscape:export-filename="/home/anxhelo/Desktop/icon2.png"
         inkscape:export-xdpi="16.209999"
         inkscape:export-ydpi="16.209999" />
      <path
         inkscape:export-ydpi="16.209999"
         inkscape:export-xdpi="16.209999"
         inkscape:export-filename="/home/anxhelo/Desktop/icon2.png"
         id="path92133-6-7"
         d="m 308.45089,58.122096 3.51345,3.71855 c 1.93231,2.04534 8.78488,6.4259 15.22862,9.73584 7.43509,3.81912 12.42838,7.19747 13.66198,9.24397 1.0692,1.77369 4.12612,5.21327 6.79368,7.64228 4.6964,4.27646 4.78358,4.48995 2.73468,6.75402 -1.16375,1.28611 -3.68949,2.99008 -5.61155,3.78626 -1.97448,0.81772 -3.49486,2.351354 -3.49486,3.527424 0,4.00637 -4.76808,8.30542 -11.33287,10.21372 -9.8943,2.87644 -12.54045,5.51191 -12.54059,12.4986 3e-5,3.1963 -0.54504,6.14824 -1.21224,6.56054 -0.66728,0.41247 -0.87667,1.29753 -0.464,1.96542 0.41288,0.66789 -0.99176,3.01276 -3.12174,5.21063 -4.85788,5.012 -4.1729,7.73316 1.94437,7.73319 2.78622,2e-5 4.93517,-0.75671 5.90085,-2.07725 1.39996,-1.91455 1.62753,-1.83483 2.92348,1.00944 1.70104,3.73324 15.03749,11.81087 19.49974,11.81089 3.17373,-5e-5 4.43789,2.66121 1.98406,4.17778 -0.6564,0.40576 -1.19359,1.57466 -1.19375,2.59728 1.4e-4,1.359 0.72279,1.65473 2.68576,1.09572 6.74061,-1.91932 9.60168,-2.242 8.83142,-0.99542 -0.4345,0.70287 -0.11337,1.50437 0.7111,1.78112 3.74179,1.25593 -8.02542,15.16595 -19.94051,23.57263 -3.50242,2.47118 -6.20448,5.39695 -6.61408,7.16211 -0.88503,3.8145 -6.42289,5.81036 -16.3711,5.90069 -7.01381,0.0633 -15.85563,2.86504 -15.85576,5.02179 0,0.51139 -2.0143,2.33699 -4.47627,4.0567 l -4.47622,3.12637 14.32401,-0.49895 c 22.5494,-0.78553 37.77115,-7.24366 53.0135,-22.48609 9.12694,-9.12702 14.52557,-17.65666 18.94025,-29.93287 2.85147,-7.92922 3.14897,-10.3903 3.1614,-26.06506 0.0127,-15.78051 -0.25818,-18.01691 -3.07975,-25.35377 C 369.96379,98.773666 364.33136,90.027536 355.55908,81.174766 344.07304,69.583556 328.661,61.392526 313.82248,58.991646 Z"
         style="fill:#1d2b3a;fill-opacity:1;stroke:none;stroke-width:1.19367242"
         inkscape:connector-curvature="0" />
      <path
         inkscape:export-ydpi="16.209999"
         inkscape:export-xdpi="16.209999"
         inkscape:export-filename="/home/anxhelo/Desktop/icon2.png"
         id="path92131-7-0"
         d="m 293.31323,58.380776 c -12.41558,1e-5 -30.82166,7.46258 -43.31261,17.5601 l -7.12243,5.75852 0.37071,10.722 c 0.22125,6.40316 0.92641,11.084684 1.75096,11.626804 0.75925,0.49869 4.33451,1.72315 7.94525,2.7183 10.92327,3.01034 16.78506,6.55754 20.49077,12.40076 4.17205,6.57877 4.2827,11.21824 0.39155,16.31961 -4.25233,5.57512 -22.2953,17.29142 -27.75746,18.02408 -4.20688,0.56415 -4.88339,0.1709 -11.33301,-6.59085 -3.77242,-3.95523 -6.8589,-8.24452 -6.8589,-9.53077 3e-5,-1.28627 -1.34297,-3.2191 -2.9842,-4.29449 l -2.98424,-1.95365 8e-5,8.72866 c -8e-5,20.69839 10.96883,43.2543 27.60602,56.76721 6.30364,5.12024 6.36098,5.13823 7.11533,2.31743 1.70455,-6.37366 3.45982,-8.26908 6.94992,-7.50245 2.23625,0.4912 3.8033,0.1297 4.83761,-1.11667 0.84161,-1.01407 2.47613,-1.84428 3.63231,-1.84423 1.72685,3e-5 2.19485,-1.33143 2.62514,-7.46048 0.62029,-8.83301 9.71354,-31.94735 12.89487,-32.77931 1.07849,-0.28204 3.87694,-3.83267 6.22024,-7.88942 3.28203,-5.68206 3.994,-7.8777 3.09867,-9.56329 -0.85585,-1.61101 -0.62172,-2.7846 0.88604,-4.45059 1.81007,-2.00021 1.8701,-2.89373 0.52684,-7.6913 -0.83577,-2.98513 -1.98176,-5.71374 -2.54823,-6.06383 -2.11593,-1.30782 -0.89776,-7.23569 3.34327,-16.273174 l 4.37132,-9.31864 -2.43166,-2.67177 c -1.33813,-1.46943 -3.08469,-3.93031 -3.87945,-5.4694 -1.24079,-2.4029 -1.07799,-3.18724 1.147,-5.55573 2.44943,-2.60711 2.48361,-2.92233 0.64357,-5.73058 -1.25479,-1.91527 -1.66902,-4.07507 -1.16573,-6.08018 0.75255,-2.9985 0.59169,-3.1125 -4.46926,-3.11251 z"
         style="fill:#1d2b3a;fill-opacity:1;stroke:none;stroke-width:1.19367242"
         inkscape:connector-curvature="0" />
    </g>
  </g>
</svg>
