<?xml version="1.0" encoding="UTF-8" standalone="no"?>
<!-- Created with Inkscape (http://www.inkscape.org/) -->

<svg
   xmlns:dc="http://purl.org/dc/elements/1.1/"
   xmlns:cc="http://creativecommons.org/ns#"
   xmlns:rdf="http://www.w3.org/1999/02/22-rdf-syntax-ns#"
   xmlns:svg="http://www.w3.org/2000/svg"
   xmlns="http://www.w3.org/2000/svg"
   xmlns:sodipodi="http://sodipodi.sourceforge.net/DTD/sodipodi-0.dtd"
   xmlns:inkscape="http://www.inkscape.org/namespaces/inkscape"
   width="1500"
   height="500.00003"
   viewBox="0 0 396.87502 132.29167"
   version="1.1"
   id="svg8"
   inkscape:version="0.92.2 (5c3e80d, 2017-08-06)"
   sodipodi:docname="Intent_to_ship_twitter_header.svg">
  <defs
     id="defs2" />
  <sodipodi:namedview
     id="base"
     pagecolor="#ffffff"
     bordercolor="#666666"
     borderopacity="1.0"
     inkscape:pageopacity="0.0"
     inkscape:pageshadow="2"
     inkscape:zoom="0.505625"
     inkscape:cx="682.7429"
     inkscape:cy="335.29587"
     inkscape:document-units="mm"
     inkscape:current-layer="layer1"
     inkscape:document-rotation="0"
     showgrid="false"
     borderlayer="true"
     inkscape:showpageshadow="false"
     units="px"
     inkscape:pagecheckerboard="false"
     showguides="true"
     inkscape:window-width="1366"
     inkscape:window-height="715"
     inkscape:window-x="0"
     inkscape:window-y="0"
     inkscape:window-maximized="1"
     fit-margin-top="0"
     fit-margin-left="0"
     fit-margin-right="0"
     fit-margin-bottom="0">
    <inkscape:grid
       type="xygrid"
       id="grid10"
       originx="-15.430981"
       originy="-58.179089" />
  </sodipodi:namedview>
  <metadata
     id="metadata5">
    <rdf:RDF>
      <cc:Work
         rdf:about="">
        <dc:format>image/svg+xml</dc:format>
        <dc:type
           rdf:resource="http://purl.org/dc/dcmitype/StillImage" />
        <dc:title></dc:title>
      </cc:Work>
    </rdf:RDF>
  </metadata>
  <g
     inkscape:label="Layer 1"
     inkscape:groupmode="layer"
     id="layer1"
     transform="translate(-15.43098,-106.52925)">
    <g
       id="g179888"
       transform="translate(-140.60558,-38.481526)">
      <rect
         inkscape:export-ydpi="95.999992"
         inkscape:export-xdpi="95.999992"
         inkscape:export-filename="/home/anxhelo/Desktop/header2.png"
         style="opacity:1;fill:#1d2b3a;fill-opacity:1;stroke:none;stroke-width:0.70104367;stroke-linecap:butt;stroke-linejoin:round;stroke-miterlimit:4;stroke-dasharray:none;stroke-opacity:1;paint-order:stroke fill markers"
         id="rect90854"
         width="396.875"
         height="132.29167"
         x="156.03656"
         y="145.01077" />
      <text
         inkscape:export-ydpi="95.999992"
         inkscape:export-xdpi="95.999992"
         inkscape:export-filename="/home/anxhelo/Desktop/header2.png"
         xml:space="preserve"
         style="font-style:normal;font-variant:normal;font-weight:bold;font-stretch:normal;font-size:11.20350933px;line-height:1.25;font-family:'Zilla Slab';-inkscape-font-specification:'Zilla Slab Bold';text-align:start;text-anchor:start;opacity:1;fill:#ffffff;fill-opacity:1;stroke:none;stroke-width:6.32689428;stroke-linecap:butt;stroke-linejoin:round;stroke-miterlimit:10;stroke-dasharray:none;stroke-opacity:0.94358975;paint-order:stroke fill markers"
         x="211.59686"
         y="259.3985"
         id="text90902"><tspan
           sodipodi:role="line"
           id="tspan90900"
           x="211.59686"
           y="259.3985"
           style="fill:#ffffff;fill-opacity:1;stroke:none;stroke-width:6.32689428">Bringing you the latest from the engines that run the Web </tspan></text>
      <path
         inkscape:export-ydpi="95.999992"
         inkscape:export-xdpi="95.999992"
         inkscape:export-filename="/home/anxhelo/Desktop/header2.png"
         inkscape:transform-center-y="-12.332706"
         inkscape:transform-center-x="-8.4562397"
         d="m 370.21366,223.60946 -12.57273,4.84409"
         style="fill:none;stroke:#fcffff;stroke-width:1.20599997;stroke-linecap:round;stroke-linejoin:miter;stroke-miterlimit:10;stroke-dasharray:none;stroke-opacity:1"
         id="path180399-9"
         inkscape:connector-curvature="0" />
      <path
         inkscape:export-ydpi="95.999992"
         inkscape:export-xdpi="95.999992"
         inkscape:export-filename="/home/anxhelo/Desktop/header2.png"
         inkscape:transform-center-y="-5.0406561"
         inkscape:transform-center-x="0.19942267"
         d="m 351.82533,169.13941 -9.67041,9.74328"
         style="fill:none;stroke:#fcffff;stroke-width:1.25300002;stroke-linecap:round;stroke-linejoin:miter;stroke-miterlimit:10;stroke-dasharray:none;stroke-opacity:1"
         id="path180405-6"
         inkscape:connector-curvature="0" />
      <path
         inkscape:export-ydpi="95.999992"
         inkscape:export-xdpi="95.999992"
         inkscape:export-filename="/home/anxhelo/Desktop/header2.png"
         d="m 379.57546,215.56035 -46.64414,17.9408"
         style="fill:none;stroke:#ffffff;stroke-width:1.19500005;stroke-linecap:butt;stroke-linejoin:miter;stroke-miterlimit:10;stroke-dasharray:none;stroke-opacity:1"
         id="path180407-1"
         inkscape:connector-curvature="0" />
      <path
         inkscape:export-ydpi="95.999992"
         inkscape:export-xdpi="95.999992"
         inkscape:export-filename="/home/anxhelo/Desktop/header2.png"
         d="m 317.14544,209.9207 35.88635,-36.24627"
         style="fill:none;stroke:#ffffff;stroke-width:1.19500005;stroke-linecap:butt;stroke-linejoin:miter;stroke-miterlimit:10;stroke-dasharray:none;stroke-opacity:1"
         id="path180409-2"
         inkscape:connector-curvature="0" />
      <path
         inkscape:export-ydpi="95.999992"
         inkscape:export-xdpi="95.999992"
         inkscape:export-filename="/home/anxhelo/Desktop/header2.png"
         inkscape:connector-curvature="0"
         id="path180411-9"
         d="m 341.2866,214.70218 c -2.88409,-7.49832 -11.30117,-11.23829 -18.79948,-8.3542 -7.49787,2.88391 -11.23915,11.30037 -8.35506,18.79869 2.88409,7.49832 11.30112,11.23833 18.79899,8.35442 7.49832,-2.88409 11.23963,-11.30059 8.35555,-18.79891 z"
         style="fill:none;stroke:#ffffff;stroke-width:1.29500008;stroke-linecap:butt;stroke-linejoin:miter;stroke-miterlimit:10;stroke-dasharray:none;stroke-opacity:1" />
      <path
         inkscape:export-ydpi="95.999992"
         inkscape:export-xdpi="95.999992"
         inkscape:export-filename="/home/anxhelo/Desktop/header2.png"
         inkscape:connector-curvature="0"
         class="st2"
         d="m 319.66909,222.13577 c -0.15031,0.12879 -0.19325,0.34351 -0.10735,0.53673 l 1.69605,2.9198 c 0.10736,0.19319 0.32206,0.25764 0.51526,0.19323 l 2.10402,-0.83723 c 0.42939,0.32206 0.90172,0.62263 1.41697,0.81585 l 0.32203,2.2328 c 0.0215,0.19323 0.19327,0.34351 0.40792,0.34353 l 3.37069,-4e-5 c 0.21468,1e-5 0.38587,-0.15171 0.4079,-0.34349 l 0.32204,-2.23281 c 0.51528,-0.21465 0.9876,-0.49379 1.41698,-0.8158 l 2.10398,0.83728 c 0.19321,0.0644 0.40791,-3e-5 0.51526,-0.19325 l 1.69604,-2.91982 c 0.10735,-0.19322 0.0644,-0.4079 -0.10732,-0.53673 l -1.78197,-1.39554 c 0.043,-0.27908 0.0644,-0.55815 0.0644,-0.81578 -2e-5,-0.25766 -0.0215,-0.55821 -0.0644,-0.81586 l 1.78199,-1.39548 c 0.15027,-0.1288 0.2147,-0.3435 0.10733,-0.53672 l -1.6961,-2.91982 c -0.10731,-0.19324 -0.32199,-0.25763 -0.51523,-0.19324 l -2.10402,0.83723 c -0.42937,-0.32203 -0.9017,-0.6226 -1.41695,-0.8158 l -0.32204,-2.23282 c -0.0215,-0.19323 -0.19322,-0.34349 -0.40791,-0.3435 l -3.3707,1e-5 c -0.21468,-1e-5 -0.38587,0.1517 -0.4079,0.34351 l -0.32203,2.2328 c -0.51529,0.21463 -0.98761,0.49377 -1.41697,0.81583 l -2.10399,-0.83729 c -0.19322,-0.0644 -0.4079,-4e-5 -0.51523,0.19324 l -1.69608,2.9198 c -0.10734,0.19322 -0.0644,0.40792 0.10732,0.53673 l 1.78199,1.39549 c -0.043,0.27913 -0.0644,0.53676 -0.0644,0.81586 0,0.27907 0.0215,0.55818 0.0644,0.8158 z m 5.08819,-2.23282 c -10e-6,-1.63165 1.33111,-2.94129 2.94129,-2.94127 1.63168,0 2.94125,1.33109 2.94127,2.94129 5e-5,1.63166 -1.33111,2.94128 -2.94128,2.94129 -1.61018,0.0215 -2.94128,-1.30963 -2.94128,-2.94131 z"
         id="path180417-3"
         style="fill:#fbffff;fill-opacity:1;stroke-width:0.21469221" />
      <path
         inkscape:export-ydpi="95.999992"
         inkscape:export-xdpi="95.999992"
         inkscape:export-filename="/home/anxhelo/Desktop/header2.png"
         style="fill:none;stroke:#ffffff;stroke-width:1.29500008;stroke-linecap:butt;stroke-linejoin:miter;stroke-miterlimit:10;stroke-dasharray:none;stroke-opacity:1"
         d="m 379.57546,215.56035 c 13.03319,-5.01297 19.53484,-19.64143 14.52188,-32.67459 -5.01289,-13.03297 -19.64184,-19.5346 -32.67502,-14.52163 -13.03273,5.0128 -19.53416,19.64183 -14.52128,32.6748 5.01296,13.03316 19.64126,19.53438 32.67442,14.52142 z"
         id="path180423-1"
         inkscape:connector-curvature="0" />
      <path
         inkscape:export-ydpi="95.999992"
         inkscape:export-xdpi="95.999992"
         inkscape:export-filename="/home/anxhelo/Desktop/header2.png"
         inkscape:connector-curvature="0"
         style="fill:#ffffff;fill-opacity:1;stroke-width:0.2250618"
         d="m 370.50557,173.74693 c 3.5545,-2e-5 5.4433,0.44825 8.50138,2.01677 1.73218,0.88845 2.4497,1.43981 4.32715,3.32712 2.57083,2.5844 3.7283,4.51033 4.74124,7.88903 0.77595,2.58812 0.87706,6.70737 0.22639,9.22753 -1.70232,6.59341 -6.79097,11.72795 -13.26371,13.38329 -2.03214,0.51968 -5.34771,0.74144 -7.04987,0.47121 -3.94502,-0.62627 -7.21668,-2.25552 -10.16868,-5.0639 -2.38077,-2.26491 -3.87084,-4.7474 -4.89685,-8.15849 -0.82094,-2.7293 -0.87716,-6.95057 -0.1279,-9.58929 1.77652,-6.25671 6.87032,-11.35241 13.01841,-13.02325 1.37962,-0.37493 2.4078,-0.48004 4.69244,-0.48002 z"
         id="path92137-3" />
      <path
         inkscape:export-ydpi="95.999992"
         inkscape:export-xdpi="95.999992"
         inkscape:export-filename="/home/anxhelo/Desktop/header2.png"
         inkscape:connector-curvature="0"
         style="fill:#1d2b3a;fill-opacity:1;stroke:none;stroke-width:0.2250618"
         d="m 372.08101,177.14089 0.66244,0.70112 c 0.36433,0.38564 1.65635,1.21157 2.8713,1.83565 1.40184,0.72007 2.34332,1.35705 2.5759,1.74291 0.20158,0.33442 0.77797,0.98294 1.28091,1.44092 0.88549,0.8063 0.90194,0.84656 0.51562,1.27344 -0.21941,0.24249 -0.69565,0.56376 -1.05804,0.71388 -0.37227,0.15418 -0.65893,0.44334 -0.65893,0.66508 0,0.75539 -0.89901,1.56595 -2.13677,1.92576 -1.86553,0.54233 -2.36445,1.03924 -2.36447,2.35655 0,0.60265 -0.10276,1.15923 -0.22857,1.23696 -0.12581,0.0778 -0.16529,0.24465 -0.0875,0.37058 0.0778,0.12592 -0.18696,0.56805 -0.58859,0.98244 -0.91593,0.945 -0.78679,1.45805 0.36661,1.45805 0.52531,0 0.93049,-0.14266 1.11257,-0.39165 0.26395,-0.36098 0.30687,-0.34594 0.55122,0.19033 0.32071,0.70388 2.83524,2.22689 3.67659,2.22689 0.59839,0 0.83673,0.50176 0.37407,0.78771 -0.12376,0.0765 -0.22504,0.29689 -0.22506,0.48969 2e-5,0.25623 0.13627,0.312 0.50639,0.2066 1.2709,-0.36189 1.81035,-0.42272 1.66512,-0.18769 -0.0819,0.13253 -0.0214,0.28365 0.13407,0.33583 0.70548,0.23686 -1.51316,2.85947 -3.75968,4.44451 -0.66038,0.46595 -1.16985,1.01757 -1.24707,1.35039 -0.16688,0.71921 -1.21101,1.09553 -3.0867,1.11255 -1.32242,0.0119 -2.98952,0.54019 -2.98954,0.94684 0,0.0964 -0.37979,0.44062 -0.84398,0.76488 l -0.84399,0.58946 2.70075,-0.0941 c 4.25159,-0.14811 7.12158,-1.36576 9.99547,-4.23966 1.72084,-1.72086 2.73873,-3.32908 3.5711,-5.64371 0.53762,-1.49502 0.59373,-1.95904 0.59607,-4.91445 0.002,-2.97535 -0.0487,-3.39701 -0.58068,-4.78035 -0.85866,-2.23275 -1.92063,-3.88179 -3.57461,-5.55095 -2.16564,-2.18547 -5.07152,-3.72985 -7.86927,-4.18253 z"
         id="path92133-6" />
      <path
         inkscape:export-ydpi="95.999992"
         inkscape:export-xdpi="95.999992"
         inkscape:export-filename="/home/anxhelo/Desktop/header2.png"
         inkscape:connector-curvature="0"
         style="fill:#1d2b3a;fill-opacity:1;stroke:none;stroke-width:0.2250618"
         d="m 369.22686,177.18966 c -2.34091,0 -5.8113,1.40704 -8.16641,3.31088 l -1.3429,1.08575 0.0699,2.02159 c 0.0417,1.20728 0.17467,2.08996 0.33012,2.19217 0.14317,0.094 0.81727,0.3249 1.49806,0.51253 2.05954,0.56759 3.16475,1.2364 3.86344,2.33811 0.78663,1.2404 0.8075,2.11516 0.0738,3.077 -0.80176,1.05117 -4.20368,3.26022 -5.23357,3.39836 -0.79318,0.10637 -0.92072,0.0322 -2.13678,-1.24268 -0.71128,-0.74573 -1.29322,-1.55447 -1.29322,-1.79699 2e-5,-0.24252 -0.2532,-0.60693 -0.56266,-0.8097 l -0.56265,-0.36835 v 1.64575 c 0,3.90258 2.06813,8.1554 5.205,10.70321 1.18853,0.9654 1.19933,0.96878 1.34157,0.43693 0.32139,-1.20172 0.65234,-1.55909 1.31038,-1.41455 0.42163,0.0926 0.71709,0.0244 0.91211,-0.21055 0.15869,-0.19119 0.46686,-0.34772 0.68486,-0.34772 0.3256,0 0.41382,-0.25104 0.49496,-1.40664 0.11694,-1.66544 1.83143,-6.02354 2.43127,-6.18041 0.20334,-0.0532 0.73098,-0.72262 1.1728,-1.48751 0.6188,-1.07133 0.75305,-1.4853 0.58419,-1.80313 -0.16137,-0.30375 -0.11723,-0.52503 0.16704,-0.83914 0.34128,-0.37713 0.35261,-0.5456 0.0993,-1.45016 -0.15759,-0.56284 -0.37364,-1.0773 -0.48046,-1.14331 -0.39894,-0.24659 -0.16927,-1.36426 0.63035,-3.06824 l 0.8242,-1.75699 -0.45847,-0.50375 c -0.2523,-0.27705 -0.58161,-0.74104 -0.73145,-1.03123 -0.23395,-0.45306 -0.20325,-0.60094 0.21626,-1.04751 0.46183,-0.49156 0.46826,-0.55099 0.12133,-1.08048 -0.23658,-0.36111 -0.31468,-0.76833 -0.21979,-1.14639 0.1419,-0.56535 0.11156,-0.58685 -0.84266,-0.58685 z"
         id="path92131-7" />
    </g>
  </g>
</svg>
