<?xml version="1.0" encoding="utf-8"?>
<!-- Generator: Adobe Illustrator 23.0.2, SVG Export Plug-In . SVG Version: 6.00 Build 0)  -->
<svg version="1.1" xmlns="http://www.w3.org/2000/svg" xmlns:xlink="http://www.w3.org/1999/xlink" x="0px" y="0px"
	 viewBox="0 0 3085 1100" style="enable-background:new 0 0 3085 1100;" xml:space="preserve">
<g id="LiveType" style="display:none;">
	<rect x="-2000.5895996" y="275.0574646" style="display:inline;fill:none;" width="3026.0895996" height="864.9425659"/>
	
		<text transform="matrix(1 0 0 1 -2000.5898438 749.0722656)" style="display:inline; font-family:'FirefoxLogo-FINAL'; font-size:548px;">a</text>
</g>
<g id="Outlined">
	<g>
		<path d="M1251.8105469,349.0292969h267.4257812v72.3369141H1328.53125v98.0927734h190.7050781v71.7880859H1328.53125v157.8251953
			h-76.7207031V349.0292969z M1610.2050781,321.0810547c26.3046875,0,44.3886719,19.1796875,44.3886719,44.9365234
			c0,25.7558594-17.5361328,44.9365234-44.9365234,44.9365234c-26.3046875,0-44.3886719-18.6328125-44.3886719-43.8408203
			C1565.2685547,339.7128906,1585.5449219,321.0810547,1610.2050781,321.0810547z M1572.3925781,453.1503906h75.625v295.921875
			h-75.625V453.1503906z M1867.21875,535.3505859c-9.3154297-7.671875-23.5634766-13.1523438-36.7158203-13.1523438
			c-30.6884766,0-48.2246094,19.7285156-48.2246094,63.0205078v163.8535156h-75.0761719v-295.921875h71.7880859v42.7441406
			c15.34375-33.4287109,38.9082031-45.484375,70.6923828-45.484375c17.5361328,0,36.7167969,5.4794922,50.4169922,15.34375
			L1867.21875,535.3505859z M1898.4550781,602.7548828c0-84.9404297,63.0205078-155.6328125,152.3457031-155.6328125
			c88.7763672,0,151.796875,63.0205078,151.796875,150.7011719v31.2363281h-230.1621094
			c8.2207031,37.2636719,37.2646484,61.9238281,81.6533203,61.9238281c34.5234375,0,58.0878906-16.4394531,73.4326172-43.8398438
			l63.0195312,37.8125c-31.2353516,46.0322266-75.6240234,70.1445312-138.6445312,70.1445312
			C1955.9960938,755.1005859,1898.4550781,690.9833984,1898.4550781,602.7548828z M1973.5322266,569.3271484h155.6328125
			c-8.2197266-37.8125-38.9082031-58.6367188-78.9130859-58.6367188
			C2014.0839844,510.6904297,1983.9443359,530.9667969,1973.5322266,569.3271484z M2221.2294922,453.1503906h53.15625v-14.796875
			c0-80.5566406,33.9765625-113.984375,108.5048828-113.984375h26.3046875v65.2128906h-21.3720703
			c-35.0722656,0-42.7451172,12.0556641-42.7451172,48.7714844v14.796875h64.1171875v67.9521484h-62.4726562v227.9697266
			h-72.3369141V521.1025391h-53.15625V453.1503906z M2423.4433594,601.1113281
			c0-84.9404297,64.6640625-153.9892578,154.5371094-153.9892578c85.4882812,0,154.5371094,68.5,154.5371094,153.9892578
			c0,85.4882812-69.0488281,153.9892578-154.5371094,153.9892578
			C2485.9160156,755.1005859,2423.4433594,687.6953125,2423.4433594,601.1113281z M2659.0849609,601.1113281
			c0-47.1289062-35.0722656-83.8447266-81.1044922-83.8447266c-46.5800781,0-81.1044922,36.7158203-81.1044922,83.8447266
			c0,47.1279297,34.5244141,83.8447266,81.1044922,83.8447266
			C2624.0126953,684.9560547,2659.0849609,648.2392578,2659.0849609,601.1113281z M2834.4462891,597.8232422
			l-106.8603516-144.6728516h88.7763672l63.0205078,90.96875l64.6640625-90.96875h87.1328125l-108.5048828,144.125
			l113.9853516,151.796875h-88.2285156l-70.6933594-96.4492188l-68.5,96.4492188h-88.2285156L2834.4462891,597.8232422z"/>
	</g>
	<path d="M1034.4348145,415.6831055c-0.0300293-0.1125488-0.0588379-0.2255859-0.0891113-0.3381348
		c-0.7286377-2.7182617-1.4837646-5.4255371-2.2567139-8.1252441c-0.1124268-0.3930664-0.2229004-0.7868652-0.3363037-1.1794434
		c-0.7316895-2.5322266-1.4852295-5.0546875-2.2556152-7.5700684c-0.1677246-0.5478516-0.3352051-1.095459-0.5046387-1.642334
		c-0.7480469-2.4128418-1.5134277-4.817627-2.2967529-7.2145996c-0.2071533-0.6340332-0.416626-1.2670898-0.6262207-1.9001465
		c-0.7728271-2.3327637-1.55896-4.6591797-2.3647461-6.9765625c-0.2357788-0.6784668-0.4766846-1.354248-0.715271-2.03125
		c-0.8060913-2.286377-1.6220703-4.567627-2.4602051-6.838623c-0.2476807-0.6711426-0.5028687-1.3388672-0.7532959-2.0087891
		c-0.8532715-2.2817383-1.713623-4.5595703-2.5990601-6.8251953c-0.2294312-0.5874023-0.4676514-1.170166-0.6992188-1.7563477
		c-0.265686-0.6726074-0.5335693-1.3439941-0.802124-2.0151367c-0.6707764-1.6762695-1.3388062-3.3537598-2.0271606-5.0209961
		c-0.0992432-0.2402344-0.203186-0.4780273-0.3027954-0.7182617c-3.227478-7.7832031-6.6471558-15.4658203-10.2492676-23.0456543
		c-0.2441406-0.513916-0.4796143-1.0324707-0.7254028-1.545166c-0.869873-1.8144531-1.7645264-3.614502-2.6554565-5.416748
		c-0.5266724-1.0656738-1.0454712-2.1359863-1.5794678-3.1975098c-0.815918-1.6210938-1.6514282-3.2304688-2.484314-4.8415527
		c-0.6356201-1.2299805-1.267334-2.4621582-1.9128418-3.6860352c-0.7973022-1.5114746-1.6098022-3.0131836-2.4220581-4.5153809
		c-0.7091675-1.3120117-1.4182739-2.6240234-2.1387329-3.9287109c-0.7910767-1.4326172-1.5932007-2.857666-2.3978271-4.2814941
		c-0.7694092-1.3618164-1.5424805-2.7209473-2.3242188-4.0749512c-0.7897339-1.3674316-1.5865479-2.7299805-2.3887939-4.0893555
		c-0.8256836-1.3991699-1.6584473-2.7937012-2.4973145-4.184082c-0.7890015-1.3078613-1.5813599-2.612793-2.381897-3.9125977
		c-0.8823242-1.4331055-1.7751465-2.8586426-2.6714478-4.2819824c-0.7849731-1.2463379-1.5696411-2.4924316-2.3652344-3.7314453
		c-0.9480591-1.4765625-1.9098511-2.9431152-2.8729858-4.4091797c-0.7703857-1.1726074-1.5370483-2.3474121-2.3169556-3.5129395
		c-1.0358887-1.5483398-2.0888672-3.0842285-3.1414795-4.6203613c-0.732605-1.0690918-1.4580078-2.1433105-2.1986694-3.2062988
		c-1.1922607-1.7114258-2.4050903-3.4069824-3.618042-5.1027832c-0.6251221-0.8737793-1.2401733-1.7556152-1.8707886-2.6252441
		c-1.8546753-2.5581055-3.7301025-5.1003418-5.6315918-7.621582c-14.5088501-19.0620117-30.322876-36.9667969-47.2519531-53.619873
		c-11.8849487-12.2426758-24.5072632-23.6325684-37.7559204-34.1726074
		c-7.6890869-6.6362305-15.6912231-12.8999023-23.9348755-18.8395996
		c-15.8497314-11.8962402-33.1977539-22.588623-52.0967407-31.8708496
		c-4.3671875-2.2746582-8.7592163-4.4980469-13.1842041-6.6420898
		c-35.8624878-17.3759766-73.3149414-31.0891113-112.0202637-39.6108398
		c-5.1514893-1.1340332-10.3235474-2.171875-15.5083008-3.1352539c-25.8053589-4.9174805-52.0875244-7.7270508-78.6052856-8.2548828
		c-3.7372437-0.0744629-7.4346313-0.107666-11.0977173-0.1066895
		c-35.0379639-0.1174316-69.5969238,3.3962402-102.3456421,10.2888184
		c-71.2038574,14.986084-133.8203125,45.7270508-173.4199829,84.1589355
		c0.0581055-0.0351562,0.1181641-0.0698242,0.1763306-0.1049805c-0.0657959,0.0666504-0.1208496,0.1228027-0.1623535,0.1655273
		c0.0883789-0.072998,0.1904297-0.1574707,0.2980957-0.2463379c0.0828857-0.0500488,0.1679077-0.0993652,0.2510376-0.1494141
		c-0.0634766,0.0507812-0.1279907,0.0998535-0.1914673,0.1503906c0.1473389-0.1005859,0.329895-0.2211914,0.534668-0.3547363
		c29.625061-17.7512207,70.5021973-32.1340332,99.7186279-39.4985352c1.6119995-0.4064941,3.2277222-0.7929688,4.8434448-1.1794434
		c5.4868774-1.3012695,11.1427002-2.5378418,16.9806519-3.6811523c0.0650024-0.0126953,0.1300659-0.0249023,0.1951294-0.0375977
		c1.6071777-0.3139648,3.2280884-0.6208496,4.8610229-0.9208984
		c129.4906006-23.5751953,267.5733032,15.0864258,363.7075195,107.0622559
		c20.6723022,19.7780762,39.2091675,41.9086914,54.2386475,66.284668
		c61.3394775,99.4853516,55.5358276,224.5554199,7.7124634,298.3190918
		c-35.5273438,54.7980957-111.6057129,106.2053223-182.5895386,105.6469727
		c1.4334717,0.0749512,2.8648682,0.1359863,4.2957153,0.1933594c-0.9492798-0.0202637-1.9003906-0.050293-2.8521118-0.0837402
		c-1.4585571-0.0576172-2.9169922-0.1142578-4.3806152-0.2023926c-35.2756958-2.1196289-65.6027222-10.6079102-90.9519043-23.550293
		c-109.8453369-56.0849609-126.2182617-195.8071289-46.7355347-263.3720703c-0.0009155,0-0.0018921-0.0002441-0.0028076-0.0004883
		c0.0001221,0,0.0002441,0,0.0003662-0.0002441c-26.3901978-5.670166-75.9859009,5.4333496-110.5151367,56.9367676
		c-30.9779663,46.206543-29.2338867,117.6008301-10.1201782,168.2333984
		c-11.6247559-24.3850098-20.1483765-49.1748047-24.5948486-79.1376953
		c-23.9907227-161.6611328,80.678894-300.269043,180.8950195-340.8056641
		c0.7081909-0.286377,1.4151611-0.5490723,2.1228638-0.8256836c0.9077148-0.3547363,1.815979-0.720459,2.7227173-1.059082
		c1.6129761-0.6020508,3.2243042-1.1787109,4.833313-1.7290039l0,0c0.0007935-0.0002441,0.0015259-0.0004883,0.0023193-0.0009766
		c-22.5792847-19.6730957-58.9650879-30.8120117-101.1616821-32.0043945
		c-58.1989136-1.6450195-127.4489136,15.6381836-186.7756348,55.541748
		c-3.5404053,2.3811035-7.0482788,4.8366699-10.5135498,7.3798828c-2.140686,1.5710449-4.2538452,3.1721191-6.3511963,4.7897949
		c-0.6590576,0.5085449-1.309082,1.0263672-1.9638672,1.5393066c-1.444458,1.1315918-2.8809204,2.2714844-4.3043823,3.425293
		c-0.7419434,0.6013184-1.4801025,1.2062988-2.2163086,1.8137207c-1.3626709,1.1240234-2.7137451,2.2600098-4.0567627,3.4042969
		c-0.6972656,0.5942383-1.397522,1.1850586-2.0895386,1.784668c-1.5866699,1.375-3.1563721,2.7670898-4.7150269,4.1704102
		c-0.4051514,0.3647461-0.8179321,0.7216797-1.2211914,1.0883789c-1.9046631,1.7319336-3.7851562,3.4880371-5.6472168,5.262207
		c-0.661438,0.6303711-1.3110352,1.2717285-1.9671021,1.9072266c-1.2240601,1.185791-2.4429321,2.3764648-3.6481323,3.5805664
		c-0.7692261,0.7680664-1.5317383,1.5427246-2.293335,2.3183594c-1.0864868,1.1069336-2.1643677,2.2216797-3.2350464,3.3435059
		c-0.7718506,0.8083496-1.5440063,1.6164551-2.3076782,2.4326172c-1.0991211,1.1750488-2.1838989,2.3632812-3.2659912,3.5541992
		c-0.6884155,0.7575684-1.3847656,1.5073242-2.0662842,2.2712402c-1.626709,1.8234863-3.2336426,3.6650391-4.8206787,5.5244141
		c-0.7688599,0.9003906-1.5206909,1.8161621-2.2802124,2.7250977c-0.8988037,1.0759277-1.7979126,2.1513672-2.6836548,3.2390137
		c-0.8382568,1.0288086-1.6655273,2.0671387-2.4920044,3.1062012c-0.7808838,0.9824219-1.557251,1.9685059-2.3275757,2.9597168
		c-0.8504028,1.0942383-1.6972046,2.190918-2.534729,3.2961426c-0.7111816,0.9387207-1.4119873,1.8862305-2.1138916,2.8327637
		c-0.8605347,1.1604004-1.7249756,2.3171387-2.5714111,3.489502c-0.491394,0.6806641-0.9693604,1.3725586-1.4559937,2.0571289
		c-1.8141479,2.5515137-3.5944824,5.1303711-5.3422852,7.7363281c-0.4992676,0.7446289-1.0042725,1.484375-1.4981079,2.2333984
		c-0.9020386,1.3676758-1.7880249,2.7480469-2.671814,4.130127c-0.4949341,0.7741699-0.9892578,1.548584-1.4784546,2.3273926
		c-0.8913574,1.418457-1.7740479,2.8432617-2.6463013,4.2766113c-0.4237061,0.6965332-0.8413696,1.3977051-1.2605591,2.0974121
		c-0.9232178,1.5412598-1.8441162,3.0837402-2.7454224,4.6416016c-0.0872192,0.1508789-0.1713867,0.3039551-0.2584229,0.4550781
		c-2.246582,3.8962402-4.425354,7.84375-6.5339355,11.8427734c-0.0267334,0.0507812-0.0545044,0.1005859-0.0812378,0.1513672
		c-0.9234619,1.7536621-1.8255615,3.5224609-2.7223511,5.295166c-0.2640381,0.5219727-0.5298462,1.0427246-0.7915649,1.5664062
		c-0.8673706,1.7355957-1.7212524,3.4804688-2.5631104,5.2338867c-0.2366333,0.4929199-0.4702148,0.9880371-0.704834,1.482666
		c-3.848999,8.1101074-7.4251709,16.409668-10.7229614,24.890625c-0.1126099,0.2895508-0.227417,0.5776367-0.3394165,0.8676758
		c-0.7652588,1.9824219-1.5129395,3.9755859-2.2477417,5.9772949c-0.145752,0.3969727-0.2901611,0.7949219-0.4347534,1.192627
		c-0.7440796,2.0476074-1.4767456,4.1020508-2.1889648,6.1694336c-0.0219116,0.0634766-0.0429688,0.1279297-0.0648193,0.1914062
		c-1.5603027,4.5368652-3.0532837,9.1152344-4.4591064,13.7453613c1.7765503-22.2897949,7.079834-50.3937988,16.5305176-81.4367676
		c0.0588989-0.1933594,0.1164551-0.3857422,0.1756592-0.5793457c0.470459-1.5388184,0.9544678-3.0869141,1.4454346-4.6396484
		c0.1201172-0.3796387,0.2389526-0.7585449,0.3602905-1.1391602c0.4507446-1.4143066,0.9128418-2.8359375,1.3806763-4.2609863
		c0.1715088-0.5224609,0.3424683-1.0441895,0.5162964-1.5678711c0.4368896-1.3168945,0.8829956-2.6394043,1.3344727-3.9648438
		c0.2192383-0.6433105,0.4393311-1.2871094,0.6619873-1.932373c0.4243164-1.2302246,0.8556519-2.4641113,1.2925415-3.7009277
		c0.2648315-0.7497559,0.5322266-1.5007324,0.8016968-2.2526855c0.4151001-1.1586914,0.8353882-2.3200684,1.2615356-3.484375
		c0.3064575-0.8369141,0.6168823-1.6757812,0.9290771-2.5153809c0.407959-1.0974121,0.8193359-2.1965332,1.2371216-3.298584
		c0.3479004-0.9172363,0.7014771-1.8371582,1.0562134-2.7575684c0.4003906-1.0388184,0.8024902-2.0786133,1.2116699-3.1210938
		c0.3902588-0.9941406,0.7877808-1.9909668,1.1860352-2.9882812c0.3927002-0.9833984,0.7852783-1.9667969,1.185791-2.953125
		c0.4338989-1.0683594,0.8768311-2.1396484,1.3199463-3.2111816c0.3822632-0.9245605,0.7628784-1.8483887,1.1519775-2.7751465
		c0.4834595-1.1513672,0.9777222-2.3056641,1.4718628-3.4602051c0.3671875-0.8579102,0.7310791-1.7148438,1.104126-2.5744629
		c0.5349731-1.2321777,1.0825195-2.4677734,1.6296997-3.7036133c0.3511353-0.7929688,0.6976929-1.5847168,1.053894-2.3789062
		c0.6016235-1.3413086,1.2174072-2.6855469,1.8334961-4.0300293c0.3164673-0.6904297,0.6268311-1.3798828,0.9471436-2.0710449
		c0.7085571-1.5292969,1.4329834-3.0617676,2.1604004-4.5944824c0.2429199-0.5119629,0.4793091-1.0227051,0.7243652-1.5349121
		c0.9157104-1.9140625,1.8478394-3.8305664,2.7932739-5.7490234c0.0666504-0.1350098,0.1304932-0.2700195,0.1972656-0.4052734
		c1.0328979-2.0913086,2.083374-4.1848145,3.1517944-6.2797852c-0.0008545,0.0004883-0.00177,0.0009766-0.0026245,0.0014648
		c0.0002441-0.0004883,0.0005493-0.0009766,0.0007935-0.0014648c-10.8392944,5.5952148-22.6057739,14.9741211-34.3270264,26.8271484
		c-1.1721191,1.1853027-2.3438721,2.3952637-3.5140991,3.6286621
		c-24.5756226,25.9025879-48.5219116,62.1374512-62.8362427,96.5739746
		c-24.2312012,58.2944336-36.3568726,125.3869629-36.086792,192.4865723
		c0.0799561,19.9770508,1.2461548,39.9543457,3.5344238,59.7006836c0.121521,1.0427246,0.2392578,2.0844727,0.3578491,3.1262207
		c0.5757446,5.0739746,1.1380005,10.1345215,1.7897949,15.1733398c0.0457153,0.3540039,0.0872803,0.7089844,0.1339722,1.0629883
		c40.3497925,236.722168,246.4533081,416.9411621,494.6777954,416.9411621
		c277.1706543,0,501.8643188-224.6936035,501.8643188-501.864502
		C1051.4355469,500.6477051,1045.5097656,457.1135254,1034.4348145,415.6831055z"/>
</g>
<g id="Layer_3">
</g>
<g id="Layer_4">
</g>
<g id="Layer_5">
</g>
</svg>
