<?xml version="1.0" encoding="utf-8"?>
<!-- Generator: Adobe Illustrator 17.0.0, SVG Export Plug-In . SVG Version: 6.00 Build 0)  -->
<!DOCTYPE svg PUBLIC "-//W3C//DTD SVG 1.1//EN" "http://www.w3.org/Graphics/SVG/1.1/DTD/svg11.dtd">
<svg version="1.1" xmlns="http://www.w3.org/2000/svg" xmlns:xlink="http://www.w3.org/1999/xlink" x="0px" y="0px" width="642px"
	 height="308px" viewBox="0 0 642 308" enable-background="new 0 0 642 308" xml:space="preserve">
<g id="Layer_1">
</g>
<g id="Layer_2">
	<g>
		<path fill="#FFFFFF" d="M356.543,5.142H11.566l31.177,54h282.623L356.543,5.142z M274.037,17.826c1.556,0,2.816,1.26,2.816,2.817
			c0,1.556-1.26,2.814-2.816,2.814c-1.556,0-2.817-1.259-2.817-2.814C271.22,19.085,272.481,17.826,274.037,17.826z M254.037,17.826
			c1.556,0,2.816,1.26,2.816,2.817c0,1.556-1.26,2.814-2.816,2.814c-1.556,0-2.817-1.259-2.817-2.814
			C251.22,19.085,252.481,17.826,254.037,17.826z M234.037,17.826c1.556,0,2.816,1.26,2.816,2.817c0,1.556-1.26,2.814-2.816,2.814
			c-1.556,0-2.817-1.259-2.817-2.814C231.22,19.085,232.481,17.826,234.037,17.826z M214.037,17.826c1.556,0,2.816,1.26,2.816,2.817
			c0,1.556-1.26,2.814-2.816,2.814c-1.556,0-2.817-1.259-2.817-2.814C211.22,19.085,212.481,17.826,214.037,17.826z M194.037,17.826
			c1.556,0,2.816,1.26,2.816,2.817c0,1.556-1.26,2.814-2.816,2.814c-1.556,0-2.817-1.259-2.817-2.814
			C191.22,19.085,192.481,17.826,194.037,17.826z M174.037,17.826c1.556,0,2.816,1.26,2.816,2.817c0,1.556-1.26,2.814-2.816,2.814
			c-1.556,0-2.817-1.259-2.817-2.814C171.22,19.085,172.481,17.826,174.037,17.826z M154.037,17.826c1.556,0,2.816,1.26,2.816,2.817
			c0,1.556-1.26,2.814-2.816,2.814c-1.556,0-2.817-1.259-2.817-2.814C151.22,19.085,152.481,17.826,154.037,17.826z M134.037,17.826
			c1.556,0,2.816,1.26,2.816,2.817c0,1.556-1.26,2.814-2.816,2.814c-1.556,0-2.817-1.259-2.817-2.814
			C131.22,19.085,132.481,17.826,134.037,17.826z M114.037,17.826c1.556,0,2.816,1.26,2.816,2.817c0,1.556-1.26,2.814-2.816,2.814
			c-1.556,0-2.817-1.259-2.817-2.814C111.22,19.085,112.481,17.826,114.037,17.826z M94.037,17.826c1.556,0,2.816,1.26,2.816,2.817
			c0,1.556-1.26,2.814-2.816,2.814c-1.556,0-2.817-1.259-2.817-2.814C91.22,19.085,92.481,17.826,94.037,17.826z M99.879,33.334
			c0,0.65-0.531,1.18-1.183,1.18H96.75v11.548c0,0.656-0.53,1.185-1.184,1.185h-3.059c-0.653,0-1.183-0.528-1.183-1.185V34.513
			h-1.946c-0.654,0-1.183-0.529-1.183-1.18v-7.962c0-0.653,0.529-1.184,1.183-1.184h9.318c0.652,0,1.183,0.531,1.183,1.184V33.334z
			 M119.879,33.334c0,0.65-0.531,1.18-1.183,1.18h-1.947v11.548c0,0.656-0.53,1.185-1.184,1.185h-3.059
			c-0.653,0-1.183-0.528-1.183-1.185V34.513h-1.946c-0.654,0-1.183-0.529-1.183-1.18v-7.962c0-0.653,0.529-1.184,1.183-1.184h9.318
			c0.652,0,1.183,0.531,1.183,1.184V33.334z M139.879,33.334c0,0.65-0.531,1.18-1.183,1.18h-1.947v11.548
			c0,0.656-0.53,1.185-1.184,1.185h-3.059c-0.653,0-1.183-0.528-1.183-1.185V34.513h-1.946c-0.654,0-1.183-0.529-1.183-1.18v-7.962
			c0-0.653,0.529-1.184,1.183-1.184h9.318c0.652,0,1.183,0.531,1.183,1.184V33.334z M159.879,33.334c0,0.65-0.531,1.18-1.183,1.18
			h-1.947v11.548c0,0.656-0.53,1.185-1.184,1.185h-3.059c-0.653,0-1.183-0.528-1.183-1.185V34.513h-1.946
			c-0.654,0-1.183-0.529-1.183-1.18v-7.962c0-0.653,0.529-1.184,1.183-1.184h9.318c0.652,0,1.183,0.531,1.183,1.184V33.334z
			 M179.879,33.334c0,0.65-0.531,1.18-1.183,1.18h-1.947v11.548c0,0.656-0.53,1.185-1.184,1.185h-3.059
			c-0.653,0-1.183-0.528-1.183-1.185V34.513h-1.946c-0.654,0-1.183-0.529-1.183-1.18v-7.962c0-0.653,0.529-1.184,1.183-1.184h9.318
			c0.652,0,1.183,0.531,1.183,1.184V33.334z M199.879,33.334c0,0.65-0.531,1.18-1.183,1.18h-1.947v11.548
			c0,0.656-0.53,1.185-1.184,1.185h-3.059c-0.653,0-1.183-0.528-1.183-1.185V34.513h-1.946c-0.654,0-1.183-0.529-1.183-1.18v-7.962
			c0-0.653,0.529-1.184,1.183-1.184h9.318c0.652,0,1.183,0.531,1.183,1.184V33.334z M219.879,33.334c0,0.65-0.531,1.18-1.183,1.18
			h-1.947v11.548c0,0.656-0.53,1.185-1.184,1.185h-3.059c-0.653,0-1.183-0.528-1.183-1.185V34.513h-1.946
			c-0.654,0-1.183-0.529-1.183-1.18v-7.962c0-0.653,0.529-1.184,1.183-1.184h9.318c0.652,0,1.183,0.531,1.183,1.184V33.334z
			 M239.879,33.334c0,0.65-0.531,1.18-1.183,1.18h-1.947v11.548c0,0.656-0.53,1.185-1.184,1.185h-3.059
			c-0.653,0-1.183-0.528-1.183-1.185V34.513h-1.946c-0.654,0-1.183-0.529-1.183-1.18v-7.962c0-0.653,0.529-1.184,1.183-1.184h9.318
			c0.652,0,1.183,0.531,1.183,1.184V33.334z M259.879,33.334c0,0.65-0.531,1.18-1.183,1.18h-1.947v11.548
			c0,0.656-0.53,1.185-1.184,1.185h-3.059c-0.653,0-1.183-0.528-1.183-1.185V34.513h-1.946c-0.654,0-1.183-0.529-1.183-1.18v-7.962
			c0-0.653,0.529-1.184,1.183-1.184h9.318c0.652,0,1.183,0.531,1.183,1.184V33.334z M278.696,34.513h-1.947v11.548
			c0,0.656-0.53,1.185-1.184,1.185h-3.059c-0.653,0-1.183-0.528-1.183-1.185V34.513h-1.946c-0.654,0-1.183-0.529-1.183-1.18v-7.962
			c0-0.653,0.529-1.184,1.183-1.184h9.318c0.652,0,1.183,0.531,1.183,1.184v7.962C279.879,33.984,279.348,34.513,278.696,34.513z"/>
		<path fill="#FFFFFF" d="M83.157,129.143h201.794l39.26-68H43.897L83.157,129.143z M169.716,75.128c0,0,6.154-4.382,12.36-3.704
			c2.786,0.817,5.435,1.84,8.298,2.447c2.524-0.685,5.793-1.442,8.145,0.272c1.565,1.472,3.098,3.405,2.344,5.733
			c4.289,4.731,13.835,5.365,16.452,8.958c0.402,0.579,0.179,4.598,0.964,6.953l-0.067,0.936c-0.837,1.727-2.817,6.311-2.145,5.378
			c-0.743,1.07-1.396,1.275-3.415,0.909c-1.614,1.203-2.554,1.678-4.422,2.714c-2.059,0.442-6.339-1.037-8.3-1.411
			c-3.628-0.693-3.987,0.195-7.145,1.804c-4.691,2.339-3.728,8.171-5.561,11.574c0.009,0.02,0.014,0.04,0.021,0.06
			c0.135,0.369,0.249,0.744,0.348,1.123c0.001,0.003,0.001,0.004,0.001,0.006c0.082,0.31,0.152,0.624,0.216,0.939
			c-5.357,0.611-10.709-0.172-15.619-2.567c-3.768-1.837-7.052-4.547-9.696-7.923c0.647-0.353,1.286-0.697,1.88-1.011
			c0.383-0.203,0.747-0.395,1.079-0.568l-0.667-0.036c-1.23-0.282-0.514-0.16-1.477-0.106c1.09-1.265,2.691-2.395,2.813-2.495
			l0.17-0.164c-1.415,0.486-3.495,1.031-4.6,2.097c0.388-1.863,1.767-3.15,2.525-4.713c-1.68,0.88-3.352,1.982-4.704,3.238
			c0.082-1.551,1.897-3.023,2.671-4.324c0.559-0.94,1.416-1.634,1.807-2.575c-1.688,0.614-5.554,2.65-7.094,3.655
			c0.728-2.386,3.995-5.933,5.771-7.775c-1.714,0.142-5.505,2.388-7.065,3.246c-0.021-0.119,0.079-0.288-0.063-0.358
			c1.196-1.941,4.985-4.98,6.803-6.584c-2.069,0.175-6.247,2.481-8.234,3.162c1.628-3.056,7.207-6.907,9.861-9.098l-6.364,1.651
			c-0.919,0.112-1.786,0.725-2.6,0.608C158.336,83.774,165.288,77.941,169.716,75.128z"/>
		<path fill="#FFFFFF" d="M283.796,131.143H84.312l39.26,68h120.965 M194.164,161.544l9.418-3.837l9.418,3.837
			c0,0,0.051,0.778,0.11,1.997c0.029,0.609,0.061,1.329,0.089,2.118c0.014,0.394,0.028,0.805,0.039,1.228
			c0.018,0.635,0.032,1.296,0.041,1.966c0.006,0.447,0.009,0.897,0.01,1.347c0,0.225,0,0.449-0.002,0.672
			c-0.004,0.67-0.017,1.331-0.039,1.966c-0.007,0.212-0.016,0.42-0.026,0.625c-0.019,0.41-0.044,0.806-0.073,1.182
			c-0.089,1.128-0.227,2.079-0.433,2.71c-1.095,3.37-9.135,8.331-9.135,8.331s-8.04-4.961-9.135-8.331
			C193.353,173.984,194.164,161.544,194.164,161.544z M185.376,140.985h15.826l2.38,4.664h-20.586L185.376,140.985z
			 M158.126,175.729l-2.059-28.375h50.447l-0.586,8.07l-1.215-0.495l-1.132-0.461l-1.132,0.461l-9.418,3.837l-1.74,0.709
			l-0.122,1.874c-0.117,1.793-0.574,9.604-0.052,14.38H158.126z"/>
		<g>
			<path fill="#FFFFFF" d="M124.726,201.143l59.328,102.759l27.875-48.281l0.61-1.056l30.843-53.421H124.726z M185.893,211.318
				h15.826l2.38,4.664h-20.586L185.893,211.318z M190.003,236.714h-1.714v3v6.348h-29.646l-2.059-28.375h50.447l-0.616,8.488
				c-0.982-0.461-2.074-0.726-3.229-0.726h-5.546c-4.212,0-7.638,3.426-7.638,7.638V236.714z M209.539,252.62h-18.25v-12.906h1.714
				v-6.627c0-2.557,2.081-4.638,4.638-4.638h5.546c2.557,0,4.638,2.081,4.638,4.638v6.627h1.714V252.62z"/>
			<path fill="#FFFFFF" d="M203.187,231.272h-5.546c-1.001,0-1.815,0.814-1.815,1.815v6.627h9.175v-6.627
				C205.002,232.086,204.188,231.272,203.187,231.272z"/>
		</g>
	</g>
	<g>
		<path fill="#FFFFFF" d="M431.302,32.613c-0.645,0-1.158,0.21-1.542,0.63c-0.383,0.42-0.609,1.001-0.678,1.743h4.197
			c0-0.767-0.171-1.354-0.513-1.761S431.937,32.613,431.302,32.613z"/>
		<path fill="#FFFFFF" d="M443.054,36.323c-0.427,0.267-0.641,0.68-0.641,1.242c0,0.439,0.133,0.774,0.399,1.003
			c0.266,0.229,0.638,0.344,1.116,0.344c0.757,0,1.352-0.208,1.784-0.623c0.432-0.415,0.647-0.996,0.647-1.743v-0.725l-1.215,0.051
			C444.179,35.907,443.482,36.057,443.054,36.323z"/>
		<path fill="#FFFFFF" d="M422.067,32.613c-0.713,0-1.259,0.277-1.637,0.832c-0.379,0.554-0.568,1.336-0.568,2.347
			c0,1.025,0.188,1.799,0.564,2.322s0.928,0.784,1.655,0.784c0.83,0,1.432-0.226,1.806-0.677c0.373-0.452,0.561-1.181,0.561-2.187
			v-0.256c0-1.138-0.189-1.949-0.568-2.435C423.501,32.857,422.897,32.613,422.067,32.613z"/>
		<path fill="#FFFFFF" d="M413.822,17.915l-20.491,35.491h84.717l20.491-35.491H413.822z M425.663,39.769h-0.988l-0.161-1.077
			h-0.065c-0.563,0.815-1.402,1.223-2.52,1.223c-1.051,0-1.867-0.359-2.45-1.077c-0.584-0.718-0.876-1.738-0.876-3.062
			s0.293-2.351,0.879-3.083s1.401-1.099,2.447-1.099c1.088,0,1.923,0.396,2.504,1.187h0.096l-0.051-0.579l-0.029-0.564v-3.267h1.215
			V39.769z M434.583,35.975h-5.53c0.024,0.942,0.263,1.658,0.715,2.146c0.451,0.488,1.088,0.732,1.908,0.732
			c0.863,0,1.718-0.181,2.563-0.542v1.084c-0.43,0.186-0.836,0.319-1.219,0.399c-0.384,0.081-0.846,0.121-1.389,0.121
			c-1.186,0-2.122-0.361-2.809-1.084c-0.686-0.723-1.029-1.726-1.029-3.01c0-1.294,0.319-2.322,0.956-3.083
			c0.638-0.762,1.493-1.143,2.567-1.143c1.006,0,1.802,0.331,2.388,0.992c0.586,0.662,0.879,1.535,0.879,2.619V35.975z
			 M440.78,29.523c-0.469-0.151-0.869-0.227-1.201-0.227c-0.459,0-0.798,0.153-1.018,0.458s-0.33,0.794-0.33,1.468v0.52h2.044v0.945
			h-2.044v7.083h-1.215v-7.083h-1.436v-0.549l1.436-0.439v-0.447c0-1.973,0.861-2.959,2.585-2.959c0.425,0,0.923,0.085,1.494,0.256
			L440.78,29.523z M447.578,39.769h-0.901l-0.241-1.143h-0.059c-0.401,0.503-0.8,0.844-1.198,1.021
			c-0.397,0.178-0.895,0.268-1.49,0.268c-0.796,0-1.42-0.205-1.871-0.615c-0.452-0.41-0.678-0.994-0.678-1.75
			c0-1.621,1.296-2.471,3.89-2.549l1.361-0.044v-0.498c0-0.63-0.135-1.095-0.406-1.395c-0.271-0.301-0.704-0.451-1.3-0.451
			c-0.669,0-1.426,0.205-2.271,0.615l-0.373-0.93c0.395-0.215,0.828-0.383,1.3-0.505c0.471-0.122,0.943-0.183,1.417-0.183
			c0.957,0,1.666,0.212,2.128,0.637c0.461,0.425,0.692,1.106,0.692,2.043V39.769z M456.711,39.769h-1.004l-0.176-1.077h-0.066
			c-0.248,0.396-0.594,0.698-1.036,0.908c-0.441,0.21-0.946,0.315-1.513,0.315c-0.977,0-1.707-0.232-2.193-0.696
			c-0.485-0.464-0.729-1.206-0.729-2.227v-5.251h1.23v5.208c0,0.654,0.148,1.143,0.447,1.465c0.297,0.322,0.764,0.483,1.398,0.483
			c0.84,0,1.454-0.229,1.842-0.688c0.389-0.459,0.582-1.208,0.582-2.249v-4.219h1.217V39.769z M460.505,39.769h-1.216V28.373h1.216
			V39.769z M466.775,39.696c-0.132,0.063-0.326,0.116-0.582,0.157c-0.257,0.042-0.487,0.063-0.692,0.063
			c-1.553,0-2.329-0.818-2.329-2.454v-4.775h-1.15v-0.586l1.15-0.505l0.513-1.714h0.703v1.86h2.329v0.945h-2.329v4.724
			c0,0.483,0.114,0.854,0.345,1.113c0.229,0.259,0.544,0.388,0.944,0.388c0.215,0,0.422-0.016,0.622-0.047s0.359-0.065,0.477-0.099
			V39.696z"/>
	</g>
	<g>
		<path fill="#FFFFFF" d="M253.034,242.837l-5.537-8.519l1.768-3.034l9.194,8.326l-1.17,2.008l-4.357-3.931
			c-1.033-0.941-1.941-1.807-2.724-2.596l-0.021,0.035l5.748,8.815l-1.175,2.016l-8.381-4.297l-0.017,0.029
			c0.39,0.297,0.889,0.71,1.498,1.237c0.608,0.528,2.504,2.231,5.687,5.111l-1.149,1.973l-9.194-8.326l1.688-2.898l8.123,4.08
			L253.034,242.837z"/>
		<path fill="#FFFFFF" d="M258.966,223.274c1.353,0.788,2.427,1.73,3.218,2.827c0.794,1.095,1.223,2.213,1.288,3.354
			s-0.213,2.246-0.837,3.317c-0.713,1.224-1.623,1.974-2.728,2.249c-1.105,0.275-2.283,0.047-3.536-0.683
			c-1.267-0.738-2.295-1.654-3.083-2.747c-0.788-1.093-1.224-2.222-1.308-3.386s0.191-2.289,0.826-3.38
			c0.711-1.22,1.605-1.964,2.684-2.232S257.728,222.553,258.966,223.274z M254.553,226.083c-0.337,0.579-0.428,1.237-0.272,1.974
			c0.157,0.738,0.537,1.467,1.142,2.188c0.605,0.721,1.354,1.342,2.248,1.863c0.703,0.41,1.326,0.56,1.87,0.451
			c0.544-0.109,0.984-0.453,1.322-1.032c0.337-0.579,0.436-1.227,0.297-1.945c-0.139-0.718-0.51-1.433-1.114-2.144
			c-0.604-0.71-1.38-1.342-2.326-1.894c-0.679-0.396-1.294-0.546-1.846-0.452C255.322,225.189,254.882,225.518,254.553,226.083z"/>
		<path fill="#FFFFFF" d="M269.801,220.145l-4.099,7.035l-1.283-1.112l-3.961-9.773l-2.269,3.894l-1.615-1.45l3.912-6.713
			l1.278,1.138l3.932,9.805l2.491-4.275L269.801,220.145z"/>
		<path fill="#FFFFFF" d="M270.767,218.488l-9.182-8.348l1.275-2.188l9.182,8.348L270.767,218.488z"/>
		<path fill="#FFFFFF" d="M273.52,213.762l-9.194-8.326l1.279-2.195l7.58,6.876l2.14-3.672l1.61,1.457L273.52,213.762z"/>
		<path fill="#FFFFFF" d="M277.954,206.153l-9.194-8.326l1.279-2.195l7.58,6.876l2.14-3.672l1.61,1.457L277.954,206.153z"/>
		<path fill="#FFFFFF" d="M283.19,191.431l-1.977,3.393l1.777,2.688l-1.337,2.295l-7.327-11.63l1.559-2.675l11.143,5.08
			l-1.241,2.131L283.19,191.431z M281.262,190.451l-2.619-1.275c-0.654-0.318-1.272-0.646-1.856-0.986l-0.258-0.15
			c0.451,0.545,0.906,1.16,1.366,1.844l1.976,2.957L281.262,190.451z"/>
		<path fill="#FFFFFF" d="M284.746,174.267c-0.368,0.631-0.505,1.311-0.411,2.041c0.093,0.73,0.428,1.468,1.002,2.212
			c0.575,0.745,1.295,1.37,2.16,1.874c0.799,0.465,1.487,0.647,2.065,0.545c0.578-0.102,1.076-0.511,1.494-1.228
			c0.407-0.699,0.694-1.614,0.861-2.747l1.865,1.087c-0.186,1.166-0.56,2.23-1.119,3.191c-0.708,1.215-1.615,1.951-2.723,2.208
			c-1.108,0.258-2.316,0.004-3.626-0.759c-1.253-0.73-2.261-1.65-3.026-2.762c-0.764-1.111-1.179-2.242-1.241-3.393
			c-0.063-1.151,0.221-2.267,0.85-3.347c0.349-0.598,0.711-1.098,1.09-1.499c0.377-0.401,0.864-0.783,1.461-1.147l1.299,1.892
			c-0.577,0.342-1.008,0.652-1.291,0.929C285.172,173.641,284.936,173.941,284.746,174.267z"/>
		<path fill="#FFFFFF" d="M294.258,162.708c1.353,0.788,2.427,1.73,3.218,2.827c0.794,1.095,1.223,2.213,1.288,3.354
			c0.066,1.14-0.213,2.246-0.837,3.317c-0.713,1.224-1.623,1.974-2.728,2.249c-1.105,0.275-2.283,0.047-3.536-0.683
			c-1.267-0.738-2.295-1.654-3.083-2.747c-0.788-1.093-1.224-2.222-1.308-3.386c-0.084-1.164,0.191-2.289,0.826-3.38
			c0.711-1.22,1.605-1.964,2.684-2.232C291.861,161.76,293.02,161.986,294.258,162.708z M289.845,165.516
			c-0.337,0.579-0.428,1.237-0.272,1.974c0.157,0.738,0.537,1.467,1.142,2.188c0.605,0.721,1.354,1.342,2.248,1.863
			c0.703,0.41,1.326,0.56,1.87,0.451c0.544-0.109,0.984-0.453,1.322-1.032c0.337-0.579,0.436-1.227,0.297-1.945
			c-0.139-0.718-0.51-1.433-1.114-2.144c-0.604-0.71-1.38-1.342-2.326-1.894c-0.679-0.396-1.294-0.546-1.846-0.452
			C290.614,164.623,290.174,164.952,289.845,165.516z"/>
		<path fill="#FFFFFF" d="M306.46,157.231l-1.43,2.454l-9.42-2.069l-0.025,0.042l0.213,0.162c0.943,0.755,1.774,1.451,2.492,2.087
			l4.329,3.915l-1.15,1.973l-9.194-8.326l1.492-2.561l9.145,2.062l0.017-0.029c-0.33-0.269-0.795-0.664-1.394-1.186
			c-0.599-0.522-2.404-2.15-5.416-4.885l1.145-1.965L306.46,157.231z"/>
		<path fill="#FFFFFF" d="M309.206,152.52l-1.275,2.188l-9.194-8.326l3.402-5.838l1.596,1.449l-2.123,3.643l2.374,2.142l1.976-3.392
			l1.581,1.459l-1.976,3.392L309.206,152.52z"/>
		<path fill="#FFFFFF" d="M312.473,146.912l-9.182-8.347l1.275-2.188l9.182,8.347L312.473,146.912z"/>
		<path fill="#FFFFFF" d="M314.016,129.277c1.339,0.78,2.365,1.692,3.079,2.737c0.714,1.044,1.071,2.159,1.071,3.347
			c0,1.188-0.352,2.384-1.054,3.589l-1.885,3.235l-9.194-8.326l1.655-2.84c0.752-1.291,1.676-2.09,2.77-2.397
			C311.554,128.315,312.74,128.533,314.016,129.277z M315.335,137.78c0.413-0.708,0.59-1.431,0.533-2.168
			c-0.057-0.737-0.352-1.461-0.884-2.168c-0.532-0.707-1.253-1.326-2.161-1.855c-0.736-0.429-1.398-0.583-1.985-0.46
			c-0.587,0.123-1.07,0.509-1.449,1.16l-0.48,0.824l5.984,5.427L315.335,137.78z"/>
		<path fill="#FFFFFF" d="M324.434,126.385l-3.415,5.86l-9.194-8.326l3.418-5.867l1.596,1.449l-2.14,3.672l2.022,1.822l1.993-3.421
			l1.592,1.456l-1.993,3.421l2.37,2.149l2.14-3.672L324.434,126.385z"/>
		<path fill="#FFFFFF" d="M330.649,115.72l-1.43,2.454l-9.42-2.069l-0.025,0.042l0.213,0.162c0.943,0.755,1.774,1.451,2.492,2.087
			l4.329,3.915l-1.149,1.973l-9.194-8.326l1.492-2.561l9.145,2.062l0.017-0.029c-0.33-0.269-0.795-0.664-1.394-1.186
			c-0.599-0.522-2.404-2.15-5.416-4.885l1.145-1.965L330.649,115.72z"/>
		<path fill="#FFFFFF" d="M334.285,109.48l-1.275,2.188l-7.574-6.853l-1.471,2.525l-1.62-1.473l4.22-7.243l1.621,1.472l-1.475,2.532
			L334.285,109.48z"/>
		<path fill="#FFFFFF" d="M336.662,105.4l-9.182-8.347l1.275-2.188l9.182,8.347L336.662,105.4z"/>
		<path fill="#FFFFFF" d="M340.218,93.56l-1.977,3.393l1.777,2.688l-1.337,2.295l-7.327-11.63l1.559-2.675l11.143,5.08l-1.241,2.131
			L340.218,93.56z M338.291,92.581l-2.619-1.275c-0.654-0.318-1.272-0.646-1.856-0.986l-0.258-0.15
			c0.451,0.545,0.906,1.16,1.366,1.844l1.976,2.957L338.291,92.581z"/>
		<path fill="#FFFFFF" d="M344.79,91.45l-9.194-8.326l1.279-2.195l7.58,6.876l2.14-3.672l1.61,1.457L344.79,91.45z"/>
	</g>
	<polygon fill="#FFFFFF" points="338.319,148.348 338.354,148.348 338.354,148.287 	"/>
	<g>
		<path fill="#FFFFFF" d="M511.412,169.135c1.188,0,2.083-0.374,2.688-1.121s0.908-1.848,0.908-3.303
			c0-1.44-0.302-2.533-0.904-3.278c-0.604-0.744-1.496-1.117-2.677-1.117c-1.188,0-2.089,0.375-2.707,1.125
			c-0.617,0.75-0.926,1.839-0.926,3.27c0,1.45,0.309,2.55,0.926,3.299C509.339,168.76,510.235,169.135,511.412,169.135z"/>
		<path fill="#FFFFFF" d="M319.106,182.888h256.717l20.491-35.491H339.597L319.106,182.888z M387.962,170.079h-1.216v-8.027h1.216
			V170.079z M396.839,170.079h-1.216v-8.027h1.216V170.079z M531.562,162.052l1.758,4.578c0.386,1.045,0.625,1.799,0.718,2.263
			h0.059c0.063-0.249,0.196-0.675,0.399-1.278c0.202-0.603,0.865-2.457,1.988-5.563h1.304l-3.45,9.141
			c-0.342,0.903-0.74,1.544-1.197,1.923c-0.456,0.378-1.017,0.567-1.681,0.567c-0.371,0-0.737-0.042-1.099-0.125v-0.974
			c0.269,0.059,0.568,0.088,0.9,0.088c0.836,0,1.431-0.469,1.787-1.406l0.447-1.143l-3.237-8.071H531.562z M527.738,158.683h1.216
			v11.396h-1.216V158.683z M518.531,162.052h0.988l0.198,1.099h0.059c0.249-0.396,0.598-0.702,1.048-0.919
			c0.448-0.217,0.949-0.326,1.501-0.326c0.967,0,1.694,0.233,2.183,0.699c0.488,0.467,0.732,1.212,0.732,2.238v5.237h-1.216v-5.193
			c0-0.654-0.149-1.143-0.446-1.465c-0.299-0.322-0.765-0.483-1.399-0.483c-0.84,0-1.455,0.227-1.846,0.681
			s-0.586,1.204-0.586,2.249v4.211h-1.216V162.052z M507.766,160.642c0.858-0.959,2.08-1.439,3.662-1.439
			c1.537,0,2.738,0.488,3.604,1.465c0.863,0.977,1.296,2.324,1.296,4.043c0,1.714-0.434,3.062-1.3,4.043
			c-0.867,0.981-2.072,1.472-3.615,1.472c-1.577,0-2.794-0.482-3.65-1.446c-0.857-0.964-1.285-2.326-1.285-4.083
			C506.477,162.953,506.905,161.602,507.766,160.642z M496.082,162.473c0.532-0.378,1.263-0.567,2.19-0.567
			c0.864,0,1.709,0.176,2.534,0.527l-0.432,0.989c-0.807-0.332-1.536-0.498-2.19-0.498c-0.576,0-1.011,0.09-1.304,0.271
			s-0.439,0.43-0.439,0.747c0,0.215,0.055,0.398,0.165,0.549c0.109,0.151,0.286,0.295,0.53,0.432s0.713,0.334,1.406,0.593
			c0.953,0.347,1.596,0.696,1.931,1.047c0.334,0.352,0.501,0.793,0.501,1.326c0,0.747-0.277,1.323-0.834,1.729
			s-1.339,0.608-2.344,0.608c-1.065,0-1.896-0.168-2.49-0.505v-1.128c0.385,0.195,0.799,0.349,1.241,0.461
			c0.441,0.112,0.868,0.168,1.278,0.168c0.634,0,1.122-0.101,1.465-0.304c0.341-0.202,0.512-0.511,0.512-0.926
			c0-0.313-0.135-0.58-0.406-0.802c-0.271-0.222-0.8-0.484-1.586-0.787c-0.746-0.278-1.277-0.521-1.593-0.729
			c-0.314-0.208-0.549-0.443-0.703-0.707c-0.153-0.264-0.23-0.579-0.23-0.945C495.284,163.368,495.55,162.852,496.082,162.473z
			 M486.605,162.052h0.988l0.169,1.099h0.059c0.313-0.439,0.676-0.757,1.091-0.952s0.892-0.293,1.429-0.293
			c1.064,0,1.886,0.364,2.465,1.091c0.578,0.728,0.868,1.748,0.868,3.062c0,1.318-0.295,2.343-0.883,3.073
			c-0.589,0.73-1.405,1.095-2.45,1.095c-0.522,0-1-0.097-1.432-0.289c-0.433-0.193-0.795-0.49-1.088-0.89h-0.088
			c0.059,0.469,0.088,0.913,0.088,1.333v3.303h-1.216V162.052z M477.311,162.052h1.23v5.208c0,0.654,0.148,1.143,0.447,1.465
			c0.297,0.322,0.764,0.483,1.398,0.483c0.84,0,1.454-0.229,1.842-0.688c0.389-0.459,0.582-1.208,0.582-2.249v-4.219h1.217v8.027
			h-1.004l-0.176-1.077h-0.066c-0.248,0.396-0.594,0.698-1.036,0.908c-0.441,0.21-0.946,0.315-1.513,0.315
			c-0.977,0-1.707-0.232-2.193-0.696c-0.485-0.464-0.729-1.206-0.729-2.227V162.052z M468.873,163
			c0.653-0.729,1.562-1.095,2.725-1.095c1.122,0,2.015,0.374,2.677,1.121c0.661,0.747,0.992,1.758,0.992,3.032
			c0,1.309-0.329,2.331-0.989,3.065c-0.658,0.735-1.569,1.103-2.731,1.103c-0.718,0-1.354-0.168-1.911-0.505s-0.987-0.82-1.289-1.45
			c-0.304-0.63-0.455-1.367-0.455-2.212C467.891,164.75,468.218,163.731,468.873,163z M462.215,162.052h1.004l0.139,1.487h0.059
			c0.298-0.522,0.656-0.925,1.076-1.208s0.882-0.425,1.385-0.425c0.356,0,0.676,0.029,0.959,0.088l-0.168,1.128
			c-0.332-0.073-0.625-0.11-0.879-0.11c-0.649,0-1.205,0.264-1.666,0.791c-0.462,0.527-0.692,1.184-0.692,1.97v4.307h-1.216V162.052
			z M451.592,161.799c0.446-0.837,1.09-1.477,1.93-1.919c0.84-0.441,1.824-0.663,2.951-0.663c1.143,0,2.207,0.21,3.193,0.63
			l-0.482,1.099c-0.967-0.41-1.897-0.615-2.791-0.615c-1.304,0-2.322,0.388-3.055,1.165s-1.098,1.853-1.098,3.23
			c0,1.445,0.353,2.542,1.058,3.289c0.706,0.747,1.742,1.121,3.109,1.121c0.742,0,1.467-0.085,2.175-0.256v-3.296h-2.395v-1.113
			h3.641v5.208c-0.567,0.181-1.143,0.317-1.729,0.41s-1.266,0.139-2.037,0.139c-1.621,0-2.883-0.482-3.786-1.446
			s-1.354-2.316-1.354-4.054C450.922,163.612,451.145,162.637,451.592,161.799z M439.525,158.683h1.201v6.042
			c0,0.269-0.02,0.684-0.059,1.245h0.059c0.21-0.298,0.529-0.688,0.959-1.172l2.594-2.747h1.442l-3.252,3.42l3.479,4.607h-1.473
			l-2.834-3.794l-0.916,0.791v3.003h-1.201V158.683z M433.402,162.052h1.004l0.139,1.487h0.059c0.298-0.522,0.656-0.925,1.076-1.208
			s0.882-0.425,1.385-0.425c0.356,0,0.676,0.029,0.959,0.088l-0.168,1.128c-0.332-0.073-0.625-0.11-0.879-0.11
			c-0.649,0-1.205,0.264-1.666,0.791c-0.462,0.527-0.692,1.184-0.692,1.97v4.307h-1.216V162.052z M424.877,163
			c0.653-0.729,1.562-1.095,2.725-1.095c1.122,0,2.015,0.374,2.677,1.121c0.661,0.747,0.992,1.758,0.992,3.032
			c0,1.309-0.329,2.331-0.989,3.065c-0.658,0.735-1.569,1.103-2.731,1.103c-0.718,0-1.354-0.168-1.911-0.505s-0.987-0.82-1.289-1.45
			c-0.304-0.63-0.455-1.367-0.455-2.212C423.895,164.75,424.222,163.731,424.877,163z M410.682,159.371l1.692,6.614
			c0.234,0.928,0.405,1.768,0.513,2.52c0.132-0.894,0.327-1.768,0.586-2.622l1.919-6.511h1.318l2.015,6.57
			c0.234,0.757,0.432,1.611,0.593,2.563c0.093-0.693,0.269-1.538,0.527-2.534l1.685-6.599h1.318l-2.863,10.708h-1.23l-2.161-7.17
			c-0.103-0.317-0.218-0.718-0.345-1.201s-0.192-0.774-0.197-0.872c-0.107,0.645-0.278,1.35-0.513,2.117l-2.095,7.126h-1.23
			l-2.85-10.708H410.682z M399.94,163.004c0.647-0.732,1.568-1.099,2.766-1.099c0.385,0,0.771,0.042,1.156,0.125
			s0.689,0.181,0.908,0.293l-0.373,1.033c-0.269-0.107-0.562-0.196-0.879-0.268c-0.317-0.07-0.599-0.106-0.842-0.106
			c-1.632,0-2.447,1.04-2.447,3.12c0,0.986,0.199,1.743,0.598,2.271c0.397,0.527,0.987,0.791,1.769,0.791
			c0.669,0,1.354-0.144,2.058-0.432v1.077c-0.537,0.278-1.213,0.417-2.028,0.417c-1.162,0-2.062-0.357-2.699-1.073
			c-0.637-0.715-0.956-1.727-0.956-3.036C398.97,164.774,399.294,163.737,399.94,163.004z M395.726,159.265
			c0.137-0.129,0.308-0.194,0.513-0.194c0.195,0,0.363,0.066,0.505,0.198s0.213,0.334,0.213,0.608s-0.071,0.478-0.213,0.612
			s-0.31,0.201-0.505,0.201c-0.205,0-0.376-0.067-0.513-0.201s-0.205-0.338-0.205-0.612
			C395.521,159.598,395.589,159.395,395.726,159.265z M389.464,162.448l1.436-0.439v-0.447c0-1.973,0.861-2.959,2.585-2.959
			c0.425,0,0.923,0.085,1.494,0.256l-0.315,0.974c-0.469-0.151-0.869-0.227-1.201-0.227c-0.459,0-0.798,0.153-1.018,0.458
			s-0.33,0.794-0.33,1.468v0.52h2.044v0.945h-2.044v7.083h-1.215v-7.083h-1.436V162.448z M386.849,159.265
			c0.137-0.129,0.308-0.194,0.513-0.194c0.195,0,0.363,0.066,0.506,0.198c0.141,0.132,0.212,0.334,0.212,0.608
			s-0.071,0.478-0.212,0.612c-0.143,0.134-0.311,0.201-0.506,0.201c-0.205,0-0.376-0.067-0.513-0.201s-0.205-0.338-0.205-0.612
			C386.644,159.598,386.712,159.395,386.849,159.265z M380.129,163.004c0.647-0.732,1.568-1.099,2.766-1.099
			c0.385,0,0.771,0.042,1.156,0.125s0.689,0.181,0.908,0.293l-0.373,1.033c-0.269-0.107-0.562-0.196-0.879-0.268
			c-0.317-0.07-0.599-0.106-0.842-0.106c-1.632,0-2.447,1.04-2.447,3.12c0,0.986,0.199,1.743,0.598,2.271
			c0.397,0.527,0.987,0.791,1.769,0.791c0.669,0,1.354-0.144,2.058-0.432v1.077c-0.537,0.278-1.213,0.417-2.028,0.417
			c-1.162,0-2.062-0.357-2.699-1.073c-0.637-0.715-0.956-1.727-0.956-3.036C379.158,164.774,379.482,163.737,380.129,163.004z
			 M371.698,163.048c0.638-0.762,1.493-1.143,2.567-1.143c1.006,0,1.802,0.331,2.388,0.992c0.586,0.662,0.879,1.535,0.879,2.619
			v0.769h-5.53c0.024,0.942,0.263,1.658,0.715,2.146c0.451,0.488,1.088,0.732,1.908,0.732c0.863,0,1.718-0.181,2.563-0.542v1.084
			c-0.43,0.186-0.836,0.319-1.219,0.399c-0.384,0.081-0.846,0.121-1.389,0.121c-1.186,0-2.122-0.361-2.809-1.084
			c-0.686-0.723-1.029-1.726-1.029-3.01C370.742,164.838,371.062,163.81,371.698,163.048z M361.998,162.052h0.988l0.169,1.099h0.059
			c0.313-0.439,0.676-0.757,1.091-0.952s0.892-0.293,1.429-0.293c1.064,0,1.886,0.364,2.465,1.091
			c0.578,0.728,0.868,1.748,0.868,3.062c0,1.318-0.295,2.343-0.883,3.073c-0.589,0.73-1.405,1.095-2.45,1.095
			c-0.522,0-1-0.097-1.432-0.289c-0.433-0.193-0.795-0.49-1.088-0.89h-0.088c0.059,0.469,0.088,0.913,0.088,1.333v3.303h-1.216
			V162.052z M353.253,168.534c0.439,0.186,0.918,0.332,1.436,0.439s1.03,0.161,1.538,0.161c0.83,0,1.455-0.158,1.875-0.472
			c0.42-0.315,0.63-0.753,0.63-1.315c0-0.371-0.074-0.675-0.224-0.912c-0.148-0.237-0.397-0.456-0.747-0.656
			c-0.349-0.2-0.88-0.427-1.593-0.681c-0.996-0.356-1.708-0.779-2.135-1.267c-0.428-0.488-0.641-1.125-0.641-1.912
			c0-0.825,0.31-1.482,0.93-1.97s1.44-0.732,2.461-0.732c1.064,0,2.043,0.195,2.938,0.586l-0.389,1.084
			c-0.884-0.371-1.743-0.557-2.578-0.557c-0.659,0-1.175,0.142-1.545,0.425c-0.372,0.283-0.557,0.676-0.557,1.179
			c0,0.371,0.067,0.675,0.205,0.912c0.136,0.237,0.367,0.454,0.691,0.651c0.325,0.198,0.821,0.417,1.49,0.656
			c1.123,0.4,1.896,0.83,2.318,1.289c0.423,0.459,0.634,1.055,0.634,1.787c0,0.942-0.342,1.677-1.025,2.205
			s-1.611,0.791-2.783,0.791c-1.27,0-2.246-0.164-2.93-0.491V168.534z"/>
		<path fill="#FFFFFF" d="M471.575,169.208c0.796,0,1.4-0.267,1.813-0.802c0.413-0.534,0.619-1.317,0.619-2.347
			c0-1.021-0.206-1.795-0.619-2.326c-0.412-0.529-1.021-0.794-1.827-0.794c-0.796,0-1.396,0.261-1.802,0.784
			s-0.608,1.301-0.608,2.336c0,1.025,0.205,1.807,0.615,2.344S470.779,169.208,471.575,169.208z"/>
		<path fill="#FFFFFF" d="M365.587,169.208c0.693,0,1.236-0.281,1.63-0.842c0.393-0.562,0.59-1.335,0.59-2.322
			c0-1.001-0.197-1.769-0.59-2.303c-0.394-0.535-0.946-0.802-1.659-0.802c-0.82,0-1.413,0.227-1.78,0.681
			c-0.365,0.454-0.554,1.177-0.563,2.168v0.271c0,1.128,0.188,1.935,0.563,2.42C364.153,168.965,364.757,169.208,365.587,169.208z"
			/>
		<path fill="#FFFFFF" d="M427.579,169.208c0.796,0,1.4-0.267,1.813-0.802c0.413-0.534,0.619-1.317,0.619-2.347
			c0-1.021-0.206-1.795-0.619-2.326c-0.412-0.529-1.021-0.794-1.827-0.794c-0.796,0-1.396,0.261-1.802,0.784
			s-0.608,1.301-0.608,2.336c0,1.025,0.205,1.807,0.615,2.344S426.783,169.208,427.579,169.208z"/>
		<path fill="#FFFFFF" d="M375.716,163.535c-0.342-0.408-0.83-0.612-1.465-0.612c-0.645,0-1.158,0.21-1.542,0.63
			c-0.383,0.42-0.609,1.001-0.678,1.743h4.197C376.229,164.53,376.058,163.943,375.716,163.535z"/>
		<path fill="#FFFFFF" d="M490.194,169.208c0.693,0,1.236-0.281,1.63-0.842c0.393-0.562,0.59-1.335,0.59-2.322
			c0-1.001-0.197-1.769-0.59-2.303c-0.394-0.535-0.946-0.802-1.659-0.802c-0.82,0-1.413,0.227-1.78,0.681
			c-0.365,0.454-0.554,1.177-0.563,2.168v0.271c0,1.128,0.188,1.935,0.563,2.42C488.761,168.965,489.364,169.208,490.194,169.208z"
			/>
		<path fill="#FFFFFF" d="M474.856,98.693c-0.107,0.469-0.261,0.984-0.461,1.545l-1.26,3.318h3.465l-1.246-3.318
			C475.194,99.818,475.027,99.303,474.856,98.693z"/>
		<path fill="#FFFFFF" d="M463.709,98.451h-1.81v8.555h1.517c1.484,0,2.601-0.365,3.347-1.095c0.748-0.729,1.121-1.81,1.121-3.241
			c0-1.396-0.351-2.449-1.051-3.157C466.132,98.805,465.091,98.451,463.709,98.451z"/>
		<path fill="#FFFFFF" d="M514.071,100.941c-0.796,0-1.396,0.261-1.802,0.784s-0.608,1.301-0.608,2.336
			c0,1.025,0.205,1.807,0.615,2.344s1.014,0.806,1.81,0.806s1.4-0.267,1.813-0.802c0.413-0.534,0.619-1.317,0.619-2.347
			c0-1.021-0.206-1.795-0.619-2.326C515.486,101.206,514.877,100.941,514.071,100.941z"/>
		<path fill="#FFFFFF" d="M419.841,104.636c-0.427,0.267-0.641,0.68-0.641,1.242c0,0.439,0.133,0.774,0.399,1.003
			c0.266,0.229,0.638,0.344,1.116,0.344c0.757,0,1.352-0.208,1.784-0.623c0.432-0.415,0.647-0.996,0.647-1.743v-0.725l-1.215,0.051
			C420.966,104.22,420.269,104.37,419.841,104.636z"/>
		<path fill="#FFFFFF" d="M487.235,100.926c-0.713,0-1.259,0.277-1.637,0.832c-0.379,0.554-0.568,1.336-0.568,2.347
			c0,1.025,0.188,1.799,0.564,2.322s0.928,0.784,1.655,0.784c0.83,0,1.432-0.226,1.806-0.677c0.373-0.452,0.561-1.181,0.561-2.187
			v-0.256c0-1.138-0.189-1.949-0.568-2.435C488.67,101.17,488.065,100.926,487.235,100.926z"/>
		<path fill="#FFFFFF" d="M397.429,104.636c-0.427,0.267-0.641,0.68-0.641,1.242c0,0.439,0.133,0.774,0.399,1.003
			c0.266,0.229,0.638,0.344,1.116,0.344c0.757,0,1.352-0.208,1.784-0.623c0.432-0.415,0.647-0.996,0.647-1.743v-0.725l-1.215,0.051
			C398.554,104.22,397.856,104.37,397.429,104.636z"/>
		<path fill="#FFFFFF" d="M575.282,98.319c-1.188,0-2.089,0.375-2.707,1.125c-0.617,0.75-0.926,1.839-0.926,3.27
			c0,1.45,0.309,2.55,0.926,3.299c0.618,0.75,1.515,1.125,2.691,1.125c1.188,0,2.083-0.374,2.688-1.121s0.908-1.848,0.908-3.303
			c0-1.44-0.302-2.533-0.904-3.278C577.355,98.692,576.463,98.319,575.282,98.319z"/>
		<path fill="#FFFFFF" d="M439.093,100.926c-0.713,0-1.259,0.277-1.637,0.832c-0.379,0.554-0.568,1.336-0.568,2.347
			c0,1.025,0.188,1.799,0.564,2.322s0.928,0.784,1.655,0.784c0.83,0,1.432-0.226,1.806-0.677c0.373-0.452,0.561-1.181,0.561-2.187
			v-0.256c0-1.138-0.189-1.949-0.568-2.435C440.527,101.17,439.923,100.926,439.093,100.926z"/>
		<path fill="#FFFFFF" d="M543.416,104.636c-0.427,0.267-0.641,0.68-0.641,1.242c0,0.439,0.133,0.774,0.399,1.003
			c0.266,0.229,0.638,0.344,1.116,0.344c0.757,0,1.352-0.208,1.784-0.623c0.432-0.415,0.647-0.996,0.647-1.743v-0.725l-1.215,0.051
			C544.541,104.22,543.844,104.37,543.416,104.636z"/>
		<path fill="#FFFFFF" d="M375.577,84.19l-20.491,35.491h256.717l20.491-35.491H375.577z M387.787,107.438
			c-0.684,0.527-1.611,0.791-2.783,0.791c-1.27,0-2.246-0.164-2.93-0.491v-1.201c0.439,0.186,0.918,0.332,1.436,0.439
			s1.03,0.161,1.538,0.161c0.83,0,1.455-0.158,1.875-0.472c0.42-0.315,0.63-0.753,0.63-1.315c0-0.371-0.074-0.675-0.224-0.912
			c-0.148-0.237-0.397-0.456-0.747-0.656c-0.349-0.2-0.88-0.427-1.593-0.681c-0.996-0.356-1.708-0.779-2.135-1.267
			c-0.428-0.488-0.641-1.125-0.641-1.912c0-0.825,0.31-1.482,0.93-1.97s1.44-0.732,2.461-0.732c1.064,0,2.043,0.195,2.938,0.586
			l-0.389,1.084c-0.884-0.371-1.743-0.557-2.578-0.557c-0.659,0-1.175,0.142-1.545,0.425c-0.372,0.283-0.557,0.676-0.557,1.179
			c0,0.371,0.067,0.675,0.205,0.912c0.136,0.237,0.367,0.454,0.691,0.651c0.325,0.198,0.821,0.417,1.49,0.656
			c1.123,0.4,1.896,0.83,2.318,1.289c0.423,0.459,0.634,1.055,0.634,1.787C388.813,106.175,388.471,106.91,387.787,107.438z
			 M394.511,108.009c-0.132,0.063-0.326,0.116-0.582,0.157c-0.257,0.042-0.487,0.063-0.692,0.063c-1.553,0-2.329-0.818-2.329-2.454
			V101h-1.15v-0.586l1.15-0.505l0.513-1.714h0.703v1.86h2.329V101h-2.329v4.724c0,0.483,0.114,0.854,0.345,1.113
			c0.229,0.259,0.544,0.388,0.944,0.388c0.215,0,0.422-0.016,0.622-0.047s0.359-0.065,0.477-0.099V108.009z M401.952,108.082h-0.901
			l-0.241-1.143h-0.059c-0.401,0.503-0.8,0.844-1.198,1.021c-0.397,0.178-0.895,0.268-1.49,0.268c-0.796,0-1.42-0.205-1.871-0.615
			c-0.452-0.41-0.678-0.994-0.678-1.75c0-1.621,1.296-2.471,3.89-2.549l1.361-0.044v-0.498c0-0.63-0.135-1.095-0.406-1.395
			c-0.271-0.301-0.704-0.451-1.3-0.451c-0.669,0-1.426,0.205-2.271,0.615l-0.373-0.93c0.395-0.215,0.828-0.383,1.3-0.505
			c0.471-0.122,0.943-0.183,1.417-0.183c0.957,0,1.666,0.212,2.128,0.637c0.461,0.425,0.692,1.106,0.692,2.043V108.082z
			 M408.074,101h-2.044v7.083h-1.215V101h-1.436v-0.549l1.436-0.439v-0.447c0-1.973,0.861-2.959,2.585-2.959
			c0.425,0,0.923,0.085,1.494,0.256l-0.315,0.974c-0.469-0.151-0.869-0.227-1.201-0.227c-0.459,0-0.798,0.153-1.018,0.458
			s-0.33,0.794-0.33,1.468v0.52h2.044V101z M413.663,97.836c-0.469-0.151-0.87-0.227-1.201-0.227c-0.46,0-0.799,0.153-1.019,0.458
			s-0.329,0.794-0.329,1.468v0.52h2.043V101h-2.043v7.083h-1.217V101h-1.436v-0.549l1.436-0.439v-0.447
			c0-1.973,0.862-2.959,2.586-2.959c0.425,0,0.923,0.085,1.494,0.256L413.663,97.836z M424.364,108.082h-0.901l-0.241-1.143h-0.059
			c-0.401,0.503-0.8,0.844-1.198,1.021c-0.397,0.178-0.895,0.268-1.49,0.268c-0.796,0-1.42-0.205-1.871-0.615
			c-0.452-0.41-0.678-0.994-0.678-1.75c0-1.621,1.296-2.471,3.89-2.549l1.361-0.044v-0.498c0-0.63-0.135-1.095-0.406-1.395
			c-0.271-0.301-0.704-0.451-1.3-0.451c-0.669,0-1.426,0.205-2.271,0.615l-0.373-0.93c0.395-0.215,0.828-0.383,1.3-0.505
			c0.471-0.122,0.943-0.183,1.417-0.183c0.957,0,1.666,0.212,2.128,0.637c0.461,0.425,0.692,1.106,0.692,2.043V108.082z
			 M433.577,108.082h-1.216v-5.193c0-0.654-0.149-1.143-0.446-1.465c-0.299-0.322-0.765-0.483-1.399-0.483
			c-0.84,0-1.455,0.227-1.846,0.681s-0.586,1.204-0.586,2.249v4.211h-1.216v-8.027h0.988l0.198,1.099h0.059
			c0.249-0.396,0.598-0.702,1.048-0.919c0.448-0.217,0.949-0.326,1.501-0.326c0.967,0,1.694,0.233,2.183,0.699
			c0.488,0.467,0.732,1.212,0.732,2.238V108.082z M442.688,108.082H441.7l-0.161-1.077h-0.065c-0.563,0.815-1.402,1.223-2.52,1.223
			c-1.051,0-1.867-0.359-2.45-1.077c-0.584-0.718-0.876-1.738-0.876-3.062s0.293-2.351,0.879-3.083s1.401-1.099,2.447-1.099
			c1.088,0,1.923,0.396,2.504,1.187h0.096l-0.051-0.579l-0.029-0.564v-3.267h1.215V108.082z M457.71,108.082h-1.42l-5.853-8.987
			h-0.059c0.078,1.055,0.117,2.021,0.117,2.9v6.086h-1.149V97.374h1.406l5.837,8.95h0.059c-0.01-0.132-0.032-0.555-0.065-1.271
			c-0.035-0.715-0.047-1.227-0.037-1.535v-6.145h1.164V108.082z M467.763,106.68c-0.959,0.935-2.34,1.402-4.142,1.402h-2.966V97.374
			h3.281c1.664,0,2.959,0.461,3.881,1.384c0.924,0.923,1.385,2.212,1.385,3.867C469.202,104.393,468.723,105.745,467.763,106.68z
			 M478.321,108.082l-1.333-3.406h-4.292l-1.318,3.406h-1.26l4.233-10.752h1.048l4.211,10.752H478.321z M481.653,101.241h-0.769
			l-0.3-3.867h1.361L481.653,101.241z M490.831,108.082h-0.988l-0.161-1.077h-0.065c-0.563,0.815-1.402,1.223-2.52,1.223
			c-1.051,0-1.867-0.359-2.45-1.077c-0.584-0.718-0.876-1.738-0.876-3.062s0.293-2.351,0.879-3.083s1.401-1.099,2.447-1.099
			c1.088,0,1.923,0.396,2.504,1.187h0.096l-0.051-0.579l-0.029-0.564v-3.267h1.215V108.082z M508.095,108.082h-1.246v-6.899
			c0-0.791,0.034-1.65,0.104-2.578h-0.059l-3.662,9.478h-1.004l-3.633-9.492h-0.059c0.068,0.752,0.103,1.646,0.103,2.681v6.812
			h-1.149V97.374h1.875l3.391,8.833h0.059l3.42-8.833h1.861V108.082z M516.788,107.126c-0.658,0.735-1.569,1.103-2.731,1.103
			c-0.718,0-1.354-0.168-1.911-0.505s-0.987-0.82-1.289-1.45c-0.304-0.63-0.455-1.367-0.455-2.212c0-1.309,0.327-2.328,0.982-3.058
			c0.653-0.729,1.562-1.095,2.725-1.095c1.122,0,2.015,0.374,2.677,1.121c0.661,0.747,0.992,1.758,0.992,3.032
			C517.777,105.37,517.448,106.392,516.788,107.126z M525.044,108.082h-5.823v-0.828l4.38-6.255h-4.109v-0.945h5.442V101
			l-4.321,6.138h4.432V108.082z M528.142,108.082h-1.216v-8.027h1.216V108.082z M528.047,98.491
			c-0.143,0.134-0.311,0.201-0.506,0.201c-0.205,0-0.376-0.067-0.513-0.201s-0.205-0.338-0.205-0.612
			c0-0.278,0.068-0.482,0.205-0.612c0.137-0.129,0.308-0.194,0.513-0.194c0.195,0,0.363,0.066,0.506,0.198
			c0.141,0.132,0.212,0.334,0.212,0.608S528.188,98.357,528.047,98.491z M531.936,108.082h-1.216V96.686h1.216V108.082z
			 M535.729,108.082h-1.216V96.686h1.216V108.082z M539.523,108.082h-1.216v-8.027h1.216V108.082z M539.429,98.491
			c-0.143,0.134-0.311,0.201-0.506,0.201c-0.205,0-0.376-0.067-0.513-0.201s-0.205-0.338-0.205-0.612
			c0-0.278,0.068-0.482,0.205-0.612c0.137-0.129,0.308-0.194,0.513-0.194c0.195,0,0.363,0.066,0.506,0.198
			c0.141,0.132,0.212,0.334,0.212,0.608S539.569,98.357,539.429,98.491z M547.939,108.082h-0.901l-0.241-1.143h-0.059
			c-0.401,0.503-0.8,0.844-1.198,1.021c-0.397,0.178-0.895,0.268-1.49,0.268c-0.796,0-1.42-0.205-1.871-0.615
			c-0.452-0.41-0.678-0.994-0.678-1.75c0-1.621,1.296-2.471,3.89-2.549l1.361-0.044v-0.498c0-0.63-0.135-1.095-0.406-1.395
			c-0.271-0.301-0.704-0.451-1.3-0.451c-0.669,0-1.426,0.205-2.271,0.615l-0.373-0.93c0.395-0.215,0.828-0.383,1.3-0.505
			c0.471-0.122,0.943-0.183,1.417-0.183c0.957,0,1.666,0.212,2.128,0.637c0.461,0.425,0.692,1.106,0.692,2.043V108.082z
			 M557.153,108.082h-1.216v-5.193c0-0.654-0.149-1.143-0.446-1.465c-0.299-0.322-0.765-0.483-1.399-0.483
			c-0.84,0-1.455,0.227-1.846,0.681s-0.586,1.204-0.586,2.249v4.211h-1.216v-8.027h0.988l0.198,1.099h0.059
			c0.249-0.396,0.598-0.702,1.048-0.919c0.448-0.217,0.949-0.326,1.501-0.326c0.967,0,1.694,0.233,2.183,0.699
			c0.488,0.467,0.732,1.212,0.732,2.238V108.082z M563.995,107.621c-0.557,0.405-1.339,0.608-2.344,0.608
			c-1.065,0-1.896-0.168-2.49-0.505v-1.128c0.385,0.195,0.799,0.349,1.241,0.461c0.441,0.112,0.868,0.168,1.278,0.168
			c0.634,0,1.122-0.101,1.465-0.304c0.341-0.202,0.512-0.511,0.512-0.926c0-0.313-0.135-0.58-0.406-0.802
			c-0.271-0.222-0.8-0.484-1.586-0.787c-0.746-0.278-1.277-0.521-1.593-0.729c-0.314-0.208-0.549-0.443-0.703-0.707
			c-0.153-0.264-0.23-0.579-0.23-0.945c0-0.654,0.266-1.17,0.798-1.549c0.532-0.378,1.263-0.567,2.19-0.567
			c0.864,0,1.709,0.176,2.534,0.527l-0.432,0.989c-0.807-0.332-1.536-0.498-2.19-0.498c-0.576,0-1.011,0.09-1.304,0.271
			s-0.439,0.43-0.439,0.747c0,0.215,0.055,0.398,0.165,0.549c0.109,0.151,0.286,0.295,0.53,0.432s0.713,0.334,1.406,0.593
			c0.953,0.347,1.596,0.696,1.931,1.047c0.334,0.352,0.501,0.793,0.501,1.326C564.829,106.639,564.552,107.216,563.995,107.621z
			 M578.882,106.757c-0.867,0.981-2.072,1.472-3.615,1.472c-1.577,0-2.794-0.482-3.65-1.446c-0.857-0.964-1.285-2.326-1.285-4.083
			c0-1.743,0.429-3.094,1.289-4.054c0.858-0.959,2.08-1.439,3.662-1.439c1.537,0,2.738,0.488,3.604,1.465
			c0.863,0.977,1.296,2.324,1.296,4.043C580.182,104.427,579.748,105.775,578.882,106.757z M589.095,108.082h-1.216v-5.193
			c0-0.654-0.149-1.143-0.446-1.465c-0.299-0.322-0.765-0.483-1.399-0.483c-0.84,0-1.455,0.227-1.846,0.681
			s-0.586,1.204-0.586,2.249v4.211h-1.216v-8.027h0.988l0.198,1.099h0.059c0.249-0.396,0.598-0.702,1.048-0.919
			c0.448-0.217,0.949-0.326,1.501-0.326c0.967,0,1.694,0.233,2.183,0.699c0.488,0.467,0.732,1.212,0.732,2.238V108.082z
			 M592.809,108.082h-1.216V96.686h1.216V108.082z M598.191,109.195c-0.342,0.903-0.74,1.544-1.197,1.923
			c-0.456,0.378-1.017,0.567-1.681,0.567c-0.371,0-0.737-0.042-1.099-0.125v-0.974c0.269,0.059,0.568,0.088,0.9,0.088
			c0.836,0,1.431-0.469,1.787-1.406l0.447-1.143l-3.237-8.071h1.304l1.758,4.578c0.386,1.045,0.625,1.799,0.718,2.263h0.059
			c0.063-0.249,0.196-0.675,0.399-1.278c0.202-0.603,0.865-2.457,1.988-5.563h1.304L598.191,109.195z"/>
		<path fill="#FFFFFF" d="M341.628,230.499c-0.342-0.408-0.83-0.612-1.465-0.612c-0.645,0-1.158,0.21-1.542,0.63
			c-0.383,0.42-0.609,1.001-0.678,1.743h4.197C342.141,231.493,341.97,230.906,341.628,230.499z"/>
		<path fill="#FFFFFF" d="M392.789,236.171c0.83,0,1.432-0.226,1.806-0.677c0.373-0.452,0.561-1.181,0.561-2.187v-0.257
			c0-1.138-0.189-1.949-0.568-2.435c-0.378-0.486-0.982-0.729-1.813-0.729c-0.713,0-1.259,0.277-1.637,0.832
			c-0.379,0.554-0.568,1.336-0.568,2.347c0,1.025,0.188,1.8,0.564,2.322S392.061,236.171,392.789,236.171z"/>
		<path fill="#FFFFFF" d="M331.5,236.171c0.693,0,1.236-0.28,1.63-0.842c0.393-0.562,0.59-1.336,0.59-2.322
			c0-1.001-0.197-1.769-0.59-2.303c-0.394-0.535-0.946-0.803-1.659-0.803c-0.82,0-1.413,0.228-1.78,0.682
			c-0.365,0.454-0.554,1.177-0.563,2.168v0.271c0,1.128,0.188,1.936,0.563,2.421C330.066,235.928,330.669,236.171,331.5,236.171z"/>
		<path fill="#FFFFFF" d="M280.277,249.017h256.717l20.491-35.491H300.768L280.277,249.017z M353.875,237.043h-1.216v-8.027h1.216
			V237.043z M362.751,237.043h-1.216v-8.027h1.216V237.043z M400.164,237.043h-1.216v-8.027h1.216V237.043z M411.472,237.043h-1.216
			v-8.027h1.216V237.043z M480.349,229.015l1.758,4.577c0.386,1.045,0.625,1.8,0.718,2.264h0.059
			c0.063-0.249,0.196-0.675,0.399-1.278c0.202-0.603,0.865-2.457,1.988-5.563h1.304l-3.45,9.141
			c-0.342,0.903-0.74,1.544-1.197,1.923c-0.456,0.378-1.017,0.567-1.681,0.567c-0.371,0-0.737-0.042-1.099-0.125v-0.974
			c0.269,0.059,0.568,0.088,0.9,0.088c0.836,0,1.431-0.469,1.787-1.406l0.447-1.143l-3.237-8.071H480.349z M476.526,225.646h1.216
			v11.396h-1.216V225.646z M467.319,229.015h0.988l0.198,1.099h0.059c0.249-0.396,0.598-0.702,1.048-0.919
			c0.448-0.218,0.949-0.326,1.501-0.326c0.967,0,1.694,0.233,2.183,0.699c0.488,0.467,0.732,1.212,0.732,2.237v5.237h-1.216v-5.193
			c0-0.654-0.149-1.143-0.446-1.465c-0.299-0.322-0.765-0.483-1.399-0.483c-0.84,0-1.455,0.228-1.846,0.682
			s-0.586,1.203-0.586,2.248v4.212h-1.216V229.015z M456.553,227.605c0.858-0.959,2.08-1.439,3.662-1.439
			c1.537,0,2.738,0.488,3.604,1.465c0.863,0.977,1.296,2.324,1.296,4.043c0,1.714-0.434,3.062-1.3,4.043
			c-0.867,0.981-2.072,1.473-3.615,1.473c-1.577,0-2.794-0.482-3.65-1.446c-0.857-0.965-1.285-2.326-1.285-4.084
			C455.264,229.916,455.693,228.565,456.553,227.605z M444.871,229.436c0.532-0.378,1.263-0.567,2.19-0.567
			c0.864,0,1.709,0.176,2.534,0.527l-0.432,0.988c-0.807-0.332-1.536-0.498-2.19-0.498c-0.576,0-1.011,0.091-1.304,0.271
			s-0.439,0.43-0.439,0.747c0,0.215,0.055,0.397,0.165,0.549c0.109,0.151,0.286,0.296,0.53,0.433s0.713,0.334,1.406,0.593
			c0.953,0.347,1.596,0.696,1.931,1.048c0.334,0.352,0.501,0.793,0.501,1.325c0,0.747-0.277,1.323-0.834,1.729
			s-1.339,0.608-2.344,0.608c-1.065,0-1.896-0.169-2.49-0.506v-1.128c0.385,0.195,0.799,0.35,1.241,0.462
			c0.441,0.112,0.868,0.168,1.278,0.168c0.634,0,1.122-0.101,1.465-0.304c0.341-0.202,0.512-0.512,0.512-0.927
			c0-0.313-0.135-0.579-0.406-0.802c-0.271-0.222-0.8-0.484-1.586-0.787c-0.746-0.278-1.277-0.521-1.593-0.729
			c-0.314-0.208-0.549-0.443-0.703-0.707c-0.153-0.264-0.23-0.579-0.23-0.945C444.073,230.331,444.338,229.815,444.871,229.436z
			 M440.792,225.646h1.216v11.396h-1.216V225.646z M435.739,232.274l1.361-0.044v-0.498c0-0.63-0.135-1.095-0.406-1.395
			c-0.271-0.301-0.704-0.451-1.3-0.451c-0.669,0-1.426,0.205-2.271,0.615l-0.373-0.93c0.395-0.215,0.828-0.384,1.3-0.506
			c0.471-0.122,0.943-0.183,1.417-0.183c0.957,0,1.666,0.212,2.128,0.637c0.461,0.425,0.692,1.106,0.692,2.044v5.479h-0.901
			l-0.241-1.143h-0.059c-0.401,0.503-0.8,0.844-1.198,1.021c-0.397,0.178-0.895,0.268-1.49,0.268c-0.796,0-1.42-0.205-1.871-0.615
			c-0.452-0.41-0.678-0.994-0.678-1.751C431.849,233.202,433.145,232.352,435.739,232.274z M423.155,229.015h1.23v5.207
			c0,0.654,0.148,1.143,0.447,1.465c0.297,0.322,0.764,0.483,1.398,0.483c0.84,0,1.454-0.229,1.842-0.688
			c0.389-0.459,0.582-1.208,0.582-2.248v-4.219h1.217v8.027h-1.004l-0.176-1.077h-0.066c-0.248,0.396-0.594,0.698-1.036,0.908
			c-0.441,0.21-0.946,0.315-1.513,0.315c-0.977,0-1.707-0.232-2.193-0.696c-0.485-0.464-0.729-1.206-0.729-2.227V229.015z
			 M414.482,229.967c0.586-0.732,1.401-1.099,2.447-1.099c1.088,0,1.923,0.396,2.504,1.187h0.096l-0.051-0.579l-0.029-0.563v-3.267
			h1.215v11.396h-0.988l-0.161-1.077h-0.065c-0.563,0.815-1.402,1.224-2.52,1.224c-1.051,0-1.867-0.359-2.45-1.077
			c-0.584-0.718-0.876-1.738-0.876-3.062S413.896,230.7,414.482,229.967z M410.359,226.228c0.137-0.129,0.308-0.194,0.513-0.194
			c0.195,0,0.363,0.066,0.506,0.198c0.141,0.132,0.212,0.334,0.212,0.607s-0.071,0.478-0.212,0.612
			c-0.143,0.134-0.311,0.201-0.506,0.201c-0.205,0-0.376-0.067-0.513-0.201c-0.137-0.135-0.205-0.339-0.205-0.612
			C410.154,226.561,410.222,226.358,410.359,226.228z M402.756,229.015l1.729,4.761c0.391,1.113,0.62,1.836,0.688,2.168h0.059
			c0.054-0.259,0.224-0.795,0.509-1.607c0.286-0.813,0.927-2.587,1.923-5.321h1.304l-3.047,8.027H404.5l-3.047-8.027H402.756z
			 M399.05,226.228c0.137-0.129,0.308-0.194,0.513-0.194c0.195,0,0.363,0.066,0.506,0.198c0.141,0.132,0.212,0.334,0.212,0.607
			s-0.071,0.478-0.212,0.612c-0.143,0.134-0.311,0.201-0.506,0.201c-0.205,0-0.376-0.067-0.513-0.201
			c-0.137-0.135-0.205-0.339-0.205-0.612C398.845,226.561,398.914,226.358,399.05,226.228z M390.188,229.967
			c0.586-0.732,1.401-1.099,2.447-1.099c1.088,0,1.923,0.396,2.504,1.187h0.096l-0.051-0.579l-0.029-0.563v-3.267h1.215v11.396
			h-0.988l-0.161-1.077h-0.065c-0.563,0.815-1.402,1.224-2.52,1.224c-1.051,0-1.867-0.359-2.45-1.077
			c-0.584-0.718-0.876-1.738-0.876-3.062S389.602,230.7,390.188,229.967z M380.549,229.015h0.988l0.198,1.099h0.059
			c0.249-0.396,0.598-0.702,1.048-0.919c0.448-0.218,0.949-0.326,1.501-0.326c0.967,0,1.694,0.233,2.183,0.699
			c0.488,0.467,0.732,1.212,0.732,2.237v5.237h-1.216v-5.193c0-0.654-0.149-1.143-0.446-1.465c-0.299-0.322-0.765-0.483-1.399-0.483
			c-0.84,0-1.455,0.228-1.846,0.682s-0.586,1.203-0.586,2.248v4.212h-1.216V229.015z M376.551,226.335h1.244v10.708h-1.244V226.335z
			 M365.853,229.967c0.647-0.732,1.568-1.099,2.766-1.099c0.385,0,0.771,0.041,1.156,0.124s0.689,0.181,0.908,0.293l-0.373,1.033
			c-0.269-0.107-0.562-0.196-0.879-0.268c-0.317-0.07-0.599-0.106-0.842-0.106c-1.632,0-2.447,1.04-2.447,3.12
			c0,0.986,0.199,1.743,0.598,2.271c0.397,0.527,0.987,0.791,1.769,0.791c0.669,0,1.354-0.144,2.058-0.432v1.076
			c-0.537,0.278-1.213,0.418-2.028,0.418c-1.162,0-2.062-0.357-2.699-1.073c-0.637-0.715-0.956-1.728-0.956-3.036
			C364.882,231.737,365.207,230.7,365.853,229.967z M361.638,226.228c0.137-0.129,0.308-0.194,0.513-0.194
			c0.195,0,0.363,0.066,0.505,0.198s0.213,0.334,0.213,0.607s-0.071,0.478-0.213,0.612c-0.142,0.134-0.31,0.201-0.505,0.201
			c-0.205,0-0.376-0.067-0.513-0.201c-0.137-0.135-0.205-0.339-0.205-0.612C361.433,226.561,361.501,226.358,361.638,226.228z
			 M355.376,229.411l1.436-0.439v-0.447c0-1.973,0.861-2.959,2.585-2.959c0.425,0,0.923,0.086,1.494,0.257l-0.315,0.974
			c-0.469-0.151-0.869-0.227-1.201-0.227c-0.459,0-0.798,0.152-1.018,0.458c-0.22,0.305-0.33,0.794-0.33,1.468v0.521h2.044v0.944
			h-2.044v7.083h-1.215v-7.083h-1.436V229.411z M352.761,226.228c0.137-0.129,0.308-0.194,0.513-0.194
			c0.195,0,0.363,0.066,0.506,0.198c0.141,0.132,0.212,0.334,0.212,0.607s-0.071,0.478-0.212,0.612
			c-0.143,0.134-0.311,0.201-0.506,0.201c-0.205,0-0.376-0.067-0.513-0.201c-0.137-0.135-0.205-0.339-0.205-0.612
			C352.556,226.561,352.625,226.358,352.761,226.228z M346.042,229.967c0.647-0.732,1.568-1.099,2.766-1.099
			c0.385,0,0.771,0.041,1.156,0.124s0.689,0.181,0.908,0.293l-0.373,1.033c-0.269-0.107-0.562-0.196-0.879-0.268
			c-0.317-0.07-0.599-0.106-0.842-0.106c-1.632,0-2.447,1.04-2.447,3.12c0,0.986,0.199,1.743,0.598,2.271
			c0.397,0.527,0.987,0.791,1.769,0.791c0.669,0,1.354-0.144,2.058-0.432v1.076c-0.537,0.278-1.213,0.418-2.028,0.418
			c-1.162,0-2.062-0.357-2.699-1.073c-0.637-0.715-0.956-1.728-0.956-3.036C345.071,231.737,345.395,230.7,346.042,229.967z
			 M337.611,230.011c0.638-0.762,1.493-1.143,2.567-1.143c1.006,0,1.802,0.331,2.388,0.992c0.586,0.662,0.879,1.534,0.879,2.618
			v0.77h-5.53c0.024,0.942,0.263,1.657,0.715,2.146c0.451,0.488,1.088,0.732,1.908,0.732c0.863,0,1.718-0.181,2.563-0.542v1.084
			c-0.43,0.186-0.836,0.319-1.219,0.399c-0.384,0.081-0.846,0.121-1.389,0.121c-1.186,0-2.122-0.361-2.809-1.084
			c-0.686-0.723-1.029-1.727-1.029-3.011C336.655,231.8,336.974,230.773,337.611,230.011z M327.911,229.015h0.988l0.169,1.099h0.059
			c0.313-0.439,0.676-0.757,1.091-0.952s0.892-0.293,1.429-0.293c1.064,0,1.886,0.363,2.465,1.091
			c0.578,0.728,0.868,1.748,0.868,3.062c0,1.318-0.295,2.343-0.883,3.073c-0.589,0.729-1.405,1.095-2.45,1.095
			c-0.522,0-1-0.097-1.432-0.289c-0.433-0.193-0.795-0.49-1.088-0.891h-0.088c0.059,0.469,0.088,0.913,0.088,1.333v3.304h-1.216
			V229.015z M319.166,235.497c0.439,0.186,0.918,0.332,1.436,0.439s1.03,0.161,1.538,0.161c0.83,0,1.455-0.157,1.875-0.472
			c0.42-0.315,0.63-0.754,0.63-1.315c0-0.371-0.074-0.675-0.224-0.911c-0.148-0.237-0.397-0.456-0.747-0.656
			c-0.349-0.2-0.88-0.427-1.593-0.681c-0.996-0.356-1.708-0.779-2.135-1.268c-0.428-0.488-0.641-1.125-0.641-1.911
			c0-0.825,0.31-1.482,0.93-1.971s1.44-0.732,2.461-0.732c1.064,0,2.043,0.195,2.938,0.586l-0.389,1.084
			c-0.884-0.371-1.743-0.557-2.578-0.557c-0.659,0-1.175,0.142-1.545,0.425c-0.372,0.283-0.557,0.677-0.557,1.18
			c0,0.371,0.067,0.675,0.205,0.912c0.136,0.236,0.367,0.454,0.691,0.651c0.325,0.198,0.821,0.416,1.49,0.655
			c1.123,0.4,1.896,0.83,2.318,1.289c0.423,0.459,0.634,1.055,0.634,1.787c0,0.942-0.342,1.678-1.025,2.205
			s-1.611,0.791-2.783,0.791c-1.27,0-2.246-0.164-2.93-0.491V235.497z"/>
		<path fill="#FFFFFF" d="M460.2,236.097c1.188,0,2.083-0.373,2.688-1.12s0.908-1.849,0.908-3.304c0-1.44-0.302-2.532-0.904-3.277
			c-0.604-0.744-1.496-1.117-2.677-1.117c-1.188,0-2.089,0.375-2.707,1.125c-0.617,0.749-0.926,1.839-0.926,3.27
			c0,1.45,0.309,2.551,0.926,3.3C458.126,235.723,459.023,236.097,460.2,236.097z"/>
		<path fill="#FFFFFF" d="M417.083,236.171c0.83,0,1.432-0.226,1.806-0.677c0.373-0.452,0.561-1.181,0.561-2.187v-0.257
			c0-1.138-0.189-1.949-0.568-2.435c-0.378-0.486-0.982-0.729-1.813-0.729c-0.713,0-1.259,0.277-1.637,0.832
			c-0.379,0.554-0.568,1.336-0.568,2.347c0,1.025,0.188,1.8,0.564,2.322S416.355,236.171,417.083,236.171z"/>
		<path fill="#FFFFFF" d="M434.639,236.185c0.757,0,1.352-0.207,1.784-0.622c0.432-0.415,0.647-0.996,0.647-1.743v-0.726
			l-1.215,0.052c-0.967,0.034-1.664,0.185-2.092,0.45c-0.427,0.267-0.641,0.68-0.641,1.241c0,0.439,0.133,0.774,0.399,1.004
			C433.789,236.071,434.161,236.185,434.639,236.185z"/>
	</g>
	<path fill="#FFFFFF" d="M361.261,46.167c1.155,0.667,1.828,1.596,2.018,2.789c0.191,1.192-0.127,2.503-0.951,3.932l-0.356,0.617
		l3.286,2.942l-1.266,2.193l-9.229-8.288l1.402-2.43c0.669-1.16,1.431-1.889,2.284-2.19
		C359.303,45.433,360.24,45.577,361.261,46.167z M360.373,52.056l0.232-0.403c0.393-0.681,0.537-1.312,0.431-1.893
		s-0.436-1.033-0.992-1.354c-0.863-0.498-1.564-0.279-2.103,0.655l-0.307,0.532L360.373,52.056z"/>
	<path fill="#FFFFFF" d="M364.14,34.104l5.967,5.371c1.118,1.008,1.777,2.085,1.979,3.23c0.201,1.146-0.055,2.336-0.768,3.573
		c-0.586,1.016-1.319,1.658-2.2,1.927c-0.88,0.268-1.785,0.135-2.715-0.402c-0.345-0.199-0.655-0.426-0.93-0.681l-5.823-5.239
		l1.265-2.192l5.803,5.207c0.307,0.287,0.583,0.5,0.828,0.641c0.853,0.492,1.541,0.286,2.064-0.621
		c0.34-0.589,0.426-1.162,0.259-1.719c-0.168-0.557-0.571-1.122-1.211-1.696l-5.788-5.2L364.14,34.104z"/>
	<path fill="#FFFFFF" d="M367.331,28.575c0.634-1.098,1.307-1.814,2.022-2.149c0.714-0.335,1.46-0.279,2.236,0.169
		c0.719,0.415,1.197,0.957,1.435,1.624c0.238,0.667,0.222,1.412-0.048,2.234l0.043,0.025c0.402-0.408,0.854-0.656,1.355-0.747
		c0.503-0.09,1.018,0.017,1.545,0.321c1.097,0.633,1.732,1.489,1.903,2.565c0.171,1.076-0.117,2.261-0.863,3.555l-2.166,3.754
		l-9.229-8.288L367.331,28.575z M374.441,36.282l0.747-1.294c0.324-0.561,0.438-1.081,0.345-1.56
		c-0.094-0.479-0.388-0.861-0.882-1.146c-0.776-0.448-1.418-0.233-1.924,0.643l-0.685,1.187L374.441,36.282z M370.485,32.725
		l0.618-1.072c0.335-0.58,0.469-1.082,0.404-1.506c-0.065-0.424-0.316-0.762-0.752-1.013c-0.657-0.379-1.22-0.161-1.69,0.654
		l-0.631,1.093L370.485,32.725z"/>
	<path fill="#FFFFFF" d="M380.061,30.795l-9.229-8.288l1.27-2.2l7.608,6.844l2.124-3.681l1.616,1.45L380.061,30.795z"/>
	<path fill="#FFFFFF" d="M384.464,23.167l-9.216-8.309l1.266-2.193l9.216,8.309L384.464,23.167z"/>
	<path fill="#FFFFFF" d="M381.912,7.212c-0.365,0.633-0.499,1.313-0.403,2.043c0.096,0.73,0.434,1.466,1.011,2.208
		c0.578,0.743,1.301,1.364,2.168,1.865c0.801,0.462,1.489,0.641,2.067,0.537c0.578-0.104,1.074-0.516,1.489-1.235
		c0.404-0.7,0.687-1.617,0.849-2.75l1.869,1.079c-0.181,1.167-0.551,2.233-1.106,3.195c-0.703,1.218-1.607,1.958-2.714,2.22
		c-1.106,0.262-2.316,0.014-3.629-0.744c-1.256-0.725-2.268-1.641-3.038-2.75c-0.769-1.108-1.188-2.237-1.255-3.388
		c-0.068-1.151,0.211-2.268,0.836-3.351c0.346-0.6,0.707-1.101,1.084-1.503c0.375-0.402,0.861-0.786,1.456-1.153l1.307,1.886
		c-0.576,0.344-1.005,0.656-1.287,0.934C382.336,6.584,382.101,6.886,381.912,7.212z"/>
	<path fill="#FFFFFF" d="M391.454,9.145c-0.431-0.249-0.702-0.577-0.813-0.982c-0.111-0.406-0.032-0.841,0.236-1.306
		c0.188-0.326,0.43-0.535,0.726-0.626c0.296-0.091,0.609-0.042,0.94,0.149c0.417,0.241,0.679,0.568,0.785,0.981
		c0.107,0.413,0.037,0.833-0.209,1.259c-0.202,0.35-0.45,0.571-0.742,0.664C392.083,9.376,391.775,9.33,391.454,9.145z
		 M386.279,4.412c-0.441-0.255-0.713-0.588-0.816-1.002c-0.103-0.414-0.024-0.846,0.236-1.297c0.188-0.326,0.43-0.533,0.727-0.62
		c0.297-0.088,0.61-0.036,0.941,0.155c0.412,0.238,0.673,0.562,0.781,0.972s0.038,0.831-0.211,1.263
		c-0.199,0.345-0.444,0.567-0.734,0.665C386.912,4.646,386.605,4.601,386.279,4.412z"/>
</g>
</svg>
