<?xml version="1.0" encoding="utf-8"?>
<!-- Generator: Adobe Illustrator 17.0.0, SVG Export Plug-In . SVG Version: 6.00 Build 0)  -->
<!DOCTYPE svg PUBLIC "-//W3C//DTD SVG 1.1//EN" "http://www.w3.org/Graphics/SVG/1.1/DTD/svg11.dtd">
<svg version="1.1" id="Layer_1" xmlns="http://www.w3.org/2000/svg" xmlns:xlink="http://www.w3.org/1999/xlink" x="0px" y="0px"
	 width="200px" height="53.794px" viewBox="0 0 200 53.794" enable-background="new 0 0 200 53.794" xml:space="preserve">
<g>
	<path fill="#009345" d="M59.006,43.364V16.047c0-4.01-0.694-7.155-2.062-9.351c0.152-0.352,0.229-0.716,0.229-1.084
		c0-1.54-1.253-2.793-2.793-2.793c-0.549,0-1.078,0.164-1.54,0.474c-1.731-0.737-3.821-1.11-6.218-1.11
		c-3.907,0-7.589,1.434-10.946,4.263c-0.519-0.222-1.029-0.293-1.628-0.161C33.943,6.16,33.84,6.04,33.736,5.925
		c-2.424-2.482-5.531-3.741-9.234-3.741c-3.6,0-6.868,1.166-9.722,3.467c-0.051-0.179-0.103-0.353-0.156-0.522
		c0.543-0.527,0.85-1.242,0.85-1.992c0-1.54-1.253-2.793-2.793-2.793c-1.456,0-2.656,1.121-2.779,2.58L5.199,4.206
		C4.702,3.355,3.784,2.819,2.793,2.819C1.253,2.819,0,4.072,0,5.612c0,1.511,1.207,2.746,2.707,2.791
		c0.461,1.938,0.695,4.701,0.695,8.22v26.742c-1.095,0.398-1.84,1.441-1.84,2.615c0,1.54,1.253,2.793,2.793,2.793
		c1.175,0,2.218-0.745,2.615-1.84h5.571c0.398,1.095,1.44,1.84,2.615,1.84c1.54,0,2.793-1.253,2.793-2.793
		c0-1.217-0.807-2.298-1.951-2.661V18.505c1.145-0.362,1.951-1.443,1.951-2.661c0-0.4-0.091-0.799-0.265-1.169
		c1.568-0.968,3.131-1.458,4.651-1.458c0.406,0,0.761,0.043,1.083,0.132c0.224,0.792,0.786,1.44,1.544,1.779
		c0.153,0.775,0.231,1.984,0.231,3.6v24.618c-1.12,0.385-1.882,1.435-1.882,2.633c0,1.54,1.253,2.793,2.793,2.793
		c1.175,0,2.217-0.745,2.615-1.84h5.254c0.397,1.095,1.44,1.84,2.615,1.84c1.54,0,2.793-1.253,2.793-2.793
		c0-1.175-0.745-2.217-1.839-2.615V18.298c0.897-0.486,1.467-1.427,1.467-2.453c0-0.228-0.031-0.456-0.095-0.692
		c1.803-1.284,3.482-1.936,4.994-1.936c0.285,0,0.543,0.024,0.784,0.072c0.213,0.82,0.797,1.504,1.578,1.848
		c0.068,0.525,0.139,1.467,0.139,3.117v25.123c-1.078,0.406-1.812,1.443-1.812,2.604c0,1.54,1.253,2.793,2.793,2.793
		c1.175,0,2.218-0.745,2.615-1.84h5.433c0.397,1.095,1.44,1.84,2.615,1.84c1.54,0,2.793-1.253,2.793-2.793
		C60.846,44.805,60.101,43.763,59.006,43.364z M48.205,15.258c1.162-0.353,1.979-1.432,1.979-2.669c0-1.54-1.253-2.793-2.793-2.793
		c-1.078,0-2.057,0.633-2.515,1.6c-0.329-0.057-0.642-0.084-0.967-0.084c-1.902,0-3.943,0.764-6.071,2.271
		c-0.476-0.344-1.043-0.531-1.62-0.531c-1.54,0-2.793,1.253-2.793,2.793c0,1.328,0.933,2.45,2.212,2.719v24.8
		c-0.771,0.28-1.382,0.892-1.663,1.662H28.72c-0.275-0.752-0.87-1.356-1.62-1.644V18.728c0-1.456-0.061-2.596-0.186-3.471
		c1.166-0.352,1.983-1.429,1.983-2.669c0-1.54-1.253-2.793-2.793-2.793c-1.099,0-2.084,0.649-2.533,1.641
		c-0.402-0.084-0.809-0.125-1.236-0.125c-2.006,0-4.037,0.671-6.039,1.995c-0.368-0.169-0.751-0.254-1.14-0.254
		c-1.54,0-2.793,1.253-2.793,2.793c0,1.136,0.685,2.141,1.728,2.57V43.41c-0.724,0.299-1.284,0.883-1.551,1.617H6.97
		c-0.281-0.77-0.892-1.381-1.662-1.662V16.623c0-3.805-0.259-6.693-0.791-8.817c0.538-0.424,0.897-1.031,1.015-1.714l4.887-1.333
		c0.562,0.791,1.5,1.249,2.453,1.163c0.037,0.127,0.074,0.257,0.11,0.39c-1.242,0.296-2.14,1.4-2.14,2.703
		c0,1.54,1.253,2.793,2.793,2.793c1.54,0,2.793-1.253,2.793-2.793c0-0.638-0.213-1.242-0.606-1.734
		c2.559-2.117,5.478-3.19,8.68-3.19c3.215,0,5.782,1.028,7.84,3.135c0.02,0.023,0.042,0.047,0.063,0.072
		C32.02,7.787,31.81,8.387,31.81,9.014c0,1.54,1.253,2.793,2.793,2.793s2.793-1.253,2.793-2.793c0-0.439-0.105-0.871-0.307-1.263
		c2.955-2.43,6.161-3.661,9.533-3.661c1.95,0,3.652,0.266,5.065,0.792c-0.066,0.24-0.1,0.485-0.1,0.73
		c0,1.54,1.253,2.793,2.793,2.793c0.417,0,0.828-0.096,1.205-0.278c1.005,1.864,1.515,4.526,1.515,7.921v27.318
		c-0.77,0.28-1.381,0.892-1.662,1.662h-5.433c-0.284-0.782-0.906-1.397-1.69-1.674v-25.1C48.316,16.997,48.279,16.012,48.205,15.258
		z"/>
</g>
<g>
	<g>
		<g>
			<path fill="#FFFFFF" d="M81.37,15.102h-1.989V9.944c0-0.397-0.021-0.651-0.061-0.763c-0.082-0.234-0.275-0.351-0.581-0.351
				c-0.418,0-0.872,0.219-1.361,0.656v5.616h-1.943v-5.069c0-0.406-0.026-0.68-0.077-0.822c-0.093-0.254-0.303-0.381-0.632-0.381
				c-0.452,0-0.904,0.198-1.356,0.594v5.678h-1.989V9.641c0-0.989-0.097-1.657-0.291-2.004l1.851-0.505
				c0.112,0.184,0.204,0.449,0.275,0.795c0.551-0.53,1.188-0.795,1.912-0.795c0.642,0,1.173,0.214,1.591,0.642
				c0.082,0.092,0.184,0.219,0.306,0.382c0.673-0.683,1.412-1.025,2.218-1.025c0.785,0,1.346,0.209,1.683,0.627
				c0.296,0.377,0.444,0.969,0.444,1.775V15.102z"/>
		</g>
		<g>
			<path fill="#FFFFFF" d="M89.89,11.155c0,1.193-0.291,2.162-0.872,2.906c-0.632,0.806-1.53,1.208-2.692,1.208
				c-1.132,0-2.014-0.403-2.646-1.208c-0.581-0.734-0.872-1.683-0.872-2.845c0-1.163,0.291-2.116,0.872-2.861
				c0.632-0.826,1.514-1.239,2.646-1.239c1.142,0,2.035,0.398,2.677,1.193C89.594,9.044,89.89,9.993,89.89,11.155z M87.657,11.147
				c0-0.716-0.056-1.253-0.168-1.611c-0.194-0.603-0.571-0.905-1.132-0.905c-0.541,0-0.908,0.312-1.101,0.936
				c-0.112,0.358-0.168,0.895-0.168,1.611c0,0.777,0.051,1.335,0.153,1.672c0.184,0.634,0.566,0.951,1.147,0.951
				C87.233,13.802,87.657,12.917,87.657,11.147z"/>
		</g>
		<g>
			<path fill="#FFFFFF" d="M96.743,13.679l-0.49,1.423h-5.767v-1.27l3.692-5.079h-3.386V7.316h5.813v1.407l-3.457,4.956H96.743z"/>
		</g>
		<g>
			<path fill="#FFFFFF" d="M100.124,5.113c0,0.357-0.122,0.658-0.367,0.903c-0.245,0.245-0.546,0.367-0.903,0.367
				c-0.347,0-0.642-0.125-0.887-0.375C97.722,5.758,97.6,5.46,97.6,5.113c0-0.357,0.125-0.658,0.375-0.903
				c0.25-0.245,0.553-0.367,0.91-0.367c0.357,0,0.653,0.122,0.887,0.367C100.006,4.455,100.124,4.756,100.124,5.113z M99.879,15.102
				h-2.05V7.393l2.05-0.322V15.102z"/>
		</g>
		<g>
			<path fill="#FFFFFF" d="M104.988,15.084c-0.367,0.144-0.775,0.217-1.224,0.217c-0.948,0-1.555-0.357-1.82-1.072
				c-0.122-0.327-0.184-0.914-0.184-1.762V6.616c0-0.919-0.036-1.705-0.107-2.359l2.096-0.475c0.071,0.398,0.107,1.076,0.107,2.035
				v6.104c0,0.785,0,1.168,0,1.147c0.051,0.541,0.234,0.811,0.551,0.811c0.082,0,0.158-0.01,0.229-0.031L104.988,15.084z"/>
		</g>
		<g>
			<path fill="#FFFFFF" d="M109.149,15.084c-0.367,0.144-0.775,0.217-1.224,0.217c-0.948,0-1.555-0.357-1.82-1.072
				c-0.122-0.327-0.184-0.914-0.184-1.762V6.616c0-0.919-0.036-1.705-0.107-2.359l2.096-0.475c0.071,0.398,0.107,1.076,0.107,2.035
				v6.104c0,0.785,0,1.168,0,1.147c0.051,0.541,0.234,0.811,0.551,0.811c0.082,0,0.158-0.01,0.229-0.031L109.149,15.084z"/>
		</g>
		<g>
			<path fill="#FFFFFF" d="M116.553,14.245l-1.086,1.254c-0.53-0.224-0.898-0.54-1.101-0.948c-0.204,0.194-0.362,0.332-0.474,0.413
				c-0.398,0.285-0.923,0.428-1.576,0.428c-0.836,0-1.484-0.198-1.943-0.595c-0.5-0.417-0.75-1.032-0.75-1.845
				c0-1.789,1.25-2.684,3.75-2.684c0.163,0,0.315,0,0.457,0V9.95c0-0.414-0.051-0.696-0.152-0.848
				c-0.122-0.202-0.376-0.303-0.762-0.303c-0.63,0-1.382,0.291-2.255,0.872l-0.869-1.469c0.367-0.234,0.79-0.449,1.27-0.642
				c0.755-0.306,1.469-0.459,2.142-0.459c1.366,0,2.208,0.454,2.524,1.361c0.102,0.296,0.148,0.765,0.138,1.407l-0.046,2.769
				c0,0.408,0.041,0.714,0.122,0.918C116.043,13.792,116.247,14.021,116.553,14.245z M113.784,11.675h-0.09
				c-0.613,0-1.04,0.051-1.28,0.153c-0.402,0.174-0.603,0.52-0.603,1.04c0,0.286,0.079,0.528,0.237,0.727
				c0.158,0.199,0.38,0.298,0.665,0.298c0.387,0,0.744-0.178,1.071-0.535V11.675z"/>
		</g>
	</g>
</g>
<g>
	<path fill="#FFFFFF" d="M78.953,46.31c-4.129,0-7.263-1.438-9.364-3.502l2.617-2.876c1.807,1.659,3.945,2.617,6.562,2.617
		c2.728,0,4.719-1.327,4.719-3.797c0-2.101-1.106-3.097-4.977-4.313c-5.456-1.659-7.705-3.797-7.705-7.668
		c0-4.314,3.76-7.041,8.737-7.041c3.724,0,6.231,1.105,8.406,3.133l-2.47,2.802c-1.733-1.549-3.539-2.212-5.604-2.212
		c-2.359,0-4.018,1.033-4.018,3.023c0,1.843,0.922,2.655,5.161,3.982c4.461,1.438,7.557,3.244,7.557,8
		C88.575,43.067,84.962,46.31,78.953,46.31z"/>
	<path fill="#FFFFFF" d="M95.24,37.463c0.369,3.686,2.176,5.271,4.793,5.271c1.659,0,3.06-0.479,4.719-1.806l2.027,2.839
		c-1.843,1.511-4.202,2.543-7.041,2.543c-6.268,0-9.401-4.24-9.401-10.285c0-5.825,3.133-10.323,8.774-10.323
		c5.346,0,8.479,3.687,8.479,9.843c0,0.626-0.073,1.401-0.111,1.917H95.24z M95.203,34.403h7.705
		c-0.037-3.355-1.069-5.346-3.76-5.346C96.899,29.057,95.461,30.716,95.203,34.403z"/>
	<path fill="#FFFFFF" d="M123.067,40.965l2.175,3.097c-1.843,1.474-3.907,2.248-6.229,2.248c-6.084,0-9.327-4.092-9.327-10.212
		c0-5.972,3.318-10.396,9.252-10.396c2.397,0,4.461,0.7,6.304,2.286l-2.137,2.875c-1.439-1.106-2.617-1.438-3.945-1.438
		c-2.802,0-4.461,1.99-4.461,6.672c0,4.719,1.696,6.378,4.423,6.378C120.45,42.476,121.593,42.071,123.067,40.965z"/>
	<path fill="#FFFFFF" d="M132.315,26.255v13.53c0,1.511,0.294,2.875,2.137,2.875c1.808,0,3.024-0.995,4.056-2.433V26.255h4.719
		v19.502h-4.092l-0.258-2.433c-1.439,1.954-3.613,2.986-5.899,2.986c-3.76,0-5.382-2.285-5.382-5.935v-14.12H132.315z"/>
	<path fill="#FFFFFF" d="M148.05,45.758V26.255h4.165l0.442,3.687c0.994-2.654,2.764-4.203,5.013-4.203
		c0.7,0,1.327,0.073,1.954,0.258l-0.812,4.572c-0.589-0.148-1.068-0.221-1.732-0.221c-2.395,0-3.687,2.212-4.312,4.829v10.581
		H148.05z"/>
	<path fill="#FFFFFF" d="M163.787,22.164c-1.77,0-2.986-1.253-2.986-2.875c0-1.585,1.216-2.839,2.986-2.839
		c1.732,0,2.986,1.253,2.986,2.839C166.773,20.91,165.519,22.164,163.787,22.164z M161.428,45.758V26.255h4.719v19.502H161.428z"/>
	<path fill="#FFFFFF" d="M182.105,44.836c-1.327,0.995-3.207,1.474-4.866,1.474c-4.351-0.037-5.899-2.506-5.899-6.488V29.611h-2.986
		v-3.355h2.986v-4.313l4.719-0.553v4.866h4.756l-0.516,3.355h-4.24v10.212c0,1.917,0.627,2.691,2.064,2.691
		c0.776,0,1.476-0.221,2.324-0.737L182.105,44.836z"/>
	<path fill="#FFFFFF" d="M193.419,45.831c-1.474,4.534-4.35,7.558-10.065,7.963l-0.589-3.429c3.907-0.589,5.272-1.879,6.231-4.608
		h-1.585l-6.157-19.502h5.014l4.129,16.073h0.147l4.312-16.073h4.867L193.419,45.831z"/>
</g>
</svg>
