<?xml version="1.0" encoding="UTF-8" standalone="no"?>
<!DOCTYPE svg PUBLIC "-//W3C//DTD SVG 1.1//EN" "http://www.w3.org/Graphics/SVG/1.1/DTD/svg11.dtd">
<svg width="100%" height="100%" viewBox="0 0 1366 621" version="1.1" xmlns="http://www.w3.org/2000/svg" xmlns:xlink="http://www.w3.org/1999/xlink" xml:space="preserve" style="fill-rule:evenodd;clip-rule:evenodd;stroke-linejoin:round;stroke-miterlimit:1.41421;">
    <g id="black" transform="matrix(1,0,0,1,0,-73.1)">
        <g id="mozilla_logo">
            <path d="M712.4,205.6C693.2,205.6 681.3,219.8 681.3,244.5C681.3,267.2 691.8,284.6 712.1,284.6C731.6,284.6 744.3,268.9 744.3,243.9C744.4,217.5 730.1,205.6 712.4,205.6Z" style="fill-rule:nonzero;"/>
            <path d="M1225.5,271.5C1225.5,279.9 1229.6,286.6 1240.9,286.6C1254.3,286.6 1268.5,277 1269.4,255.2C1263.3,254.3 1256.6,253.5 1250.5,253.5C1237.1,253.5 1225.5,257.3 1225.5,271.5Z" style="fill-rule:nonzero;"/>
            <path d="M319.6,73.1L319.6,372.4L1365.5,372.4L1365.5,73.1L319.6,73.1ZM624.7,311.3L569.5,311.3L569.5,236.6C569.5,213.9 561.1,205.2 546.3,205.2C528.3,205.2 520.2,218 520.2,236.3L520.2,282.2L537.6,282.2L537.6,311.3L485.3,311.3L485.3,236.6C485.3,213.9 476.9,205.2 462.1,205.2C444.1,205.2 436,218 436,236.3L436,282.2L462,282.2L462,311.3L380.6,311.3L380.6,282.2L398,282.2L398,206.7L380.6,206.7L380.6,180.6L435.8,180.6L435.8,199.2C444.5,185.3 457.6,176.8 475.9,176.8C494.8,176.8 512.2,185.8 518.6,205C525.9,187.6 541.3,176.8 561.9,176.8C585.4,176.8 607.5,191 607.5,222.1L607.5,282.2L625,282.2L625,311.3L624.7,311.3ZM708,313.1C667.6,313.1 639.7,288.4 639.7,246.6C639.7,208.2 662.9,176.6 710,176.6C757.1,176.6 780,208.3 780,244.9C780.1,286.6 749.9,313.1 708,313.1ZM919,311.3L804.8,311.3L801,290.4L873.1,206.7L832.1,206.7L826.3,227.6L799.3,225.6L803.9,180.6L918.7,180.6L921.6,200.1L849,282.3L891.4,282.3L897.5,261.7L927.1,264.9L919,311.3ZM993.6,311.3L955.8,311.3L955.8,261.9L993.6,261.9L993.6,311.3ZM993.6,227.1L955.8,227.1L955.8,180.6L993.6,180.6L993.6,227.1ZM1018.3,311.3L1074.7,110.8L1111.6,110.8L1054.9,311.3L1018.3,311.3ZM1094.2,311.3L1150.9,110.8L1187.8,110.8L1131.1,311.3L1094.2,311.3ZM1295.2,313.1C1277.8,313.1 1268.2,302.9 1266.4,287C1258.8,300.4 1245.5,313.1 1224.3,313.1C1205.4,313.1 1183.9,302.9 1183.9,275.6C1183.9,243.4 1215,235.8 1244.9,235.8C1252.2,235.8 1260.6,236.1 1266.4,237L1266.4,232.9C1266.4,219.5 1266.1,203.6 1244.9,203.6C1237.1,203.6 1231,204.2 1224.9,207.4L1220.5,222.2L1190.9,219L1196.1,188.8C1219.1,179.5 1231,176.9 1252.5,176.9C1280.7,176.9 1304.8,191.4 1304.8,221.4L1304.8,278.3C1304.8,285.9 1307.4,288.5 1313.5,288.5C1315.2,288.5 1316.7,288.2 1318.7,287.6L1319,307.4C1311.8,310.8 1303.4,313.1 1295.2,313.1Z" style="fill-rule:nonzero;"/>
        </g>
        <g id="support">
            <path d="M665.7,624.4C692.4,624.4 703.9,601.9 703.9,576.6C703.9,548 688.4,532.5 667.5,532.5C646.1,532.5 630.9,553.3 630.1,571.5L630.1,589.1C630.2,609.2 645.9,624.4 665.7,624.4Z" style="fill-rule:nonzero;stroke:black;stroke-width:1px;"/>
            <path d="M811.4,624.4C838.1,624.4 849.6,601.9 849.6,576.6C849.6,548 834.1,532.5 813.2,532.5C791.8,532.5 776.6,553.3 775.8,571.5L775.8,589.1C775.8,609.2 791.6,624.4 811.4,624.4Z" style="fill-rule:nonzero;stroke:black;stroke-width:1px;"/>
            <path d="M946.4,532.2C921.5,532.2 907.6,551.7 907.6,578.2C907.6,604.1 921,624.4 946.4,624.4C971.8,624.4 985.7,604.6 985.7,577.9C985.7,550.7 971.2,532.2 946.4,532.2Z" style="fill-rule:nonzero;stroke:black;stroke-width:1px;"/>
            <path d="M1129.2,392.7L1122.8,392.7L1018,392.7L1011.6,392.7L882,392.7L875.6,392.7L736.3,392.7L729.9,392.7L590.6,392.7L584.2,392.7L441.4,392.7L435,392.7L319.3,392.7L319.3,694.7L590.5,694.7L590.5,679.5L611.3,679.5L611.3,534.1L590.5,534.1L590.5,518.9L630.1,518.9L630.1,543.8C637.3,529.4 650.4,516.5 672.3,516.5C702.8,516.5 723.6,538.2 723.6,575C723.6,606.8 708.1,640.5 669.3,640.5C652.5,640.5 638,633.6 630,620.5L630,679.6L657.5,679.6L657.5,694.8L736.1,694.8L736.1,679.6L756.9,679.6L756.9,534.1L736.1,534.1L736.1,518.9L775.7,518.9L775.7,543.8C782.9,529.4 796,516.5 817.9,516.5C848.4,516.5 869.2,538.2 869.2,575C869.2,606.8 853.7,640.5 814.9,640.5C798.1,640.5 783.6,633.6 775.6,620.5L775.6,679.6L803.1,679.6L803.1,694.8L1227,694.8L1227,392.8L1129.2,392.8L1129.2,392.7ZM378.1,640.5C361.3,640.5 343.1,635.4 332.9,628.7L336.6,601.7L351.6,603.3L350.8,619.1C358.6,622.8 367.4,625 377.3,625C393.9,625 409.4,618.6 409.4,605C409.4,572.4 334.8,597.2 334.8,551C334.8,525.9 357.3,516.5 378.9,516.5C395.2,516.5 410.4,521.6 420.3,527.5L423.2,555.3L407.7,557.2L404.8,538C397.6,534.3 390.1,532.1 380.5,532.1C365.5,532.1 354.8,537.4 354.8,549.7C354.8,580.7 428.6,556.1 428.6,603.4C428.6,626.6 406.7,640.5 378.1,640.5ZM583.6,637.8L543.5,637.8L543.5,615.3C536,630.3 521,640.4 502.1,640.4C478.8,640.4 460.9,626.8 460.9,595L460.9,534.1L441.4,534.1L441.4,518.9L479.6,518.9L479.6,589.7C479.6,615.4 491.4,624.4 508.2,624.4C528.5,624.4 542.9,605.7 543.5,588.6L543.5,534.1L518.6,534.1L518.6,518.9L562.2,518.9L562.2,622.6L583.6,622.6L583.6,637.8ZM945.8,640.5C909.7,640.5 888.1,615.1 888.1,579.3C888.1,544.6 908.4,516.2 946.9,516.2C985.7,516.2 1005.4,544.5 1005.4,578.2C1005.4,614.3 982.5,640.5 945.8,640.5ZM1099.8,554.7L1095.3,534.4C1092.4,533.3 1089.4,532.8 1086.2,532.8C1072.3,532.8 1061.9,545.6 1061.9,564.1L1061.9,622.6L1089.4,622.6L1089.4,637.8L1022.3,637.8L1022.3,622.6L1043.1,622.6L1043.1,534.1L1021.7,534.1L1021.7,518.9L1060.7,518.9L1060.7,540.3C1065.2,526.9 1076.5,516.8 1090.1,516.8C1098.4,516.8 1104.5,518.1 1110.4,522.9L1114.9,552.8L1099.8,554.7ZM1184.5,640.5C1160.7,640.5 1148.7,626.1 1148.7,602.8L1148.7,533.8L1129.5,533.8L1129.5,518.8L1148.7,518.8L1148.7,480.6L1167.4,480.6L1167.4,518.8L1213.9,518.8L1213.9,533.8L1167.4,533.8L1167.4,600.4C1167.4,614.8 1172.2,624.2 1186.6,624.2C1195.7,624.2 1202.4,620.5 1205.8,601.2L1220.2,605.7C1216.9,628.7 1205.9,640.5 1184.5,640.5Z" style="fill-rule:nonzero;stroke:black;stroke-width:1px;"/>
        </g>
        <g id="icon">
            <path d="M149.1,182.6C151.4,185 161.2,192.3 161.2,192.3C168.2,195.2 166.6,204 166.6,204C177.7,207.1 176.1,195.2 176.1,195.2C179.5,188.7 184,194.5 184,194.5C187.2,203 176.8,207.1 176.8,207.1C168.5,214.5 172.7,221.3 172.7,221.3C179.9,233.5 206.7,233 206.7,233C204.2,251.5 209.2,249 209.2,249C221.1,236.8 214.1,199.7 214.1,199.7C205.6,174.9 188.9,166.2 188.9,166.2C177.7,158.6 163.4,162.2 163.4,162.2C156.4,163.3 149.2,172.1 149.2,172.1C142.5,178.8 149.1,182.6 149.1,182.6Z" style="fill-rule:nonzero;"/>
            <path d="M115.3,223.8C115.3,223.8 114.5,210 127.7,216.2C127.7,216.2 132.6,221.8 140.6,225.6C140.6,225.6 144.9,218 137,201.1C137,201.1 130.3,186 117.6,182.8C117.6,182.8 97.5,178.3 91.3,193.6C91.3,193.6 81.8,213.7 91.3,225.6C91.3,225.6 98.3,228.1 96.7,243C96.7,243 94.7,260.1 106.6,268.2C106.6,268.2 109.5,269.5 107.9,264.4C107.9,264.4 106.6,249.1 111.7,243.5C111.7,243.6 121.3,235.8 115.3,223.8Z" style="fill-rule:nonzero;"/>
            <path d="M0,73.1L0,372.4L299.3,372.4L299.3,73.1L0,73.1ZM169.6,330.4C146.9,345.6 126.1,329.7 126.1,329.7C101.6,330.6 76.3,312.1 76.3,312.1C65.3,303.6 47.3,283.3 47.3,283.3C46.2,277.9 53.1,276.9 53.1,276.9L53.1,276.8C51.4,273.8 49.7,270.8 48.3,267.6C48.4,267.5 48.4,267.3 48.5,267.2C49.9,264.3 51.9,263.5 54,263.6C58.1,263.9 62.5,268.3 62.5,268.3C63.8,269.8 65.1,271.1 66.3,272.3C70,275.7 72.9,277.4 72.9,277.4C82.4,277.2 85.5,279.7 85.5,279.7L102.8,289.5C89.4,296.4 99.2,309.9 99.2,309.9C106.4,313 128.3,311.2 128.3,311.2C148.6,310.8 162.3,313.4 162.3,313.4C170,317.2 170.6,313.4 170.6,313.4C172.8,305.5 145.2,305.5 145.2,305.5C136,306 127.9,305.5 127.9,305.5C120.3,305.3 103.8,305.5 103.8,305.5L102.4,303.2C102.3,303.1 102.3,303 102.2,302.8C102.2,302.8 102.2,302.7 102.1,302.7C102.1,302.6 102,302.5 102,302.4L102,302.3C102,302.2 101.9,302.1 101.9,302C101.9,301.9 101.8,301.8 101.8,301.7L101.8,301.6C101.8,301.5 101.7,301.4 101.7,301.4L101.7,301.3C101.7,301.2 101.6,301.1 101.6,301C101.6,300.9 101.6,300.8 101.5,300.7L101.5,300.6C101.5,300.5 101.5,300.4 101.5,300.4L101.5,300.3C101.5,300.2 101.5,300.1 101.5,300C101.5,299.9 101.5,299.8 101.5,299.8L101.5,299.7C101.5,299.6 101.5,299.6 101.5,299.5L101.5,299.4C101.5,299.3 101.5,299.2 101.5,299.1L101.5,299C101.5,298.9 101.5,298.9 101.5,298.8L101.5,298.7C101.5,298.6 101.5,298.6 101.5,298.5L101.5,298.4C101.5,298.3 101.5,298.2 101.6,298.1L101.6,298C101.6,297.9 101.6,297.9 101.7,297.8L101.7,297.7C101.7,297.6 101.8,297.6 101.8,297.5L101.8,297.4C101.8,297.3 101.9,297.2 101.9,297.2L101.9,297.1C101.9,297 102,297 102,296.9L102,296.8C102,296.7 102.1,296.7 102.1,296.6C102.2,296.5 102.2,296.5 102.3,296.4L102.3,296.3C102.3,296.2 102.4,296.2 102.4,296.1L102.5,296C102.6,295.9 102.6,295.9 102.7,295.8C102.8,295.7 102.8,295.7 102.9,295.6L103,295.5C103.1,295.5 103.1,295.4 103.2,295.4L103.3,295.3C103.4,295.2 103.4,295.2 103.5,295.1C103.6,295 103.7,295 103.7,294.9L103.8,294.9C103.9,294.9 103.9,294.8 104,294.8L104.1,294.7C104.2,294.6 104.3,294.6 104.3,294.5C104.4,294.4 104.5,294.4 104.6,294.3L104.7,294.3C104.8,294.3 104.8,294.2 104.9,294.2L105,294.2C105.2,294.1 105.4,294 105.6,293.9L105.7,293.9C105.8,293.9 105.9,293.8 105.9,293.8L106,293.8C106.1,293.8 106.2,293.7 106.3,293.7C106.4,293.7 106.5,293.6 106.6,293.6L106.7,293.6C106.8,293.6 106.9,293.5 106.9,293.5L107,293.5C107.1,293.5 107.2,293.4 107.3,293.4C107.4,293.4 107.5,293.3 107.6,293.3L107.7,293.3C107.8,293.3 107.9,293.2 108,293.2L108.1,293.2C108.2,293.2 108.3,293.1 108.4,293.1L108.5,293.1C108.6,293.1 108.7,293 108.8,293L108.9,293C109,293 109.1,292.9 109.2,292.9L109.3,292.9C109.4,292.9 109.5,292.8 109.7,292.8L109.8,292.8C109.9,292.8 110,292.7 110.1,292.7L110.2,292.7C110.3,292.7 110.4,292.7 110.5,292.6L110.6,292.6C110.7,292.6 110.8,292.5 111,292.5L111.1,292.5C111.2,292.5 111.3,292.5 111.4,292.4L111.5,292.4C111.6,292.4 111.7,292.4 111.8,292.3L111.9,292.3C112,292.3 112.1,292.3 112.3,292.2L112.4,292.2C112.5,292.2 112.6,292.2 112.7,292.1L112.8,292.1C112.9,292.1 113,292.1 113.1,292L113.2,292C113.3,292 113.4,292 113.6,291.9L114.4,291.9C114.5,291.9 114.7,291.9 114.8,291.8L117.8,291.8C122,291.4 125.4,291.5 125.4,291.5C158.7,292.2 158.5,289.2 158.5,289.2C173.6,268.9 214.1,264.5 214.1,264.5C215.6,262.2 217.1,259.9 218.4,257.4C224.2,246.5 227.6,234 227.6,220.8C227.6,177.9 192.8,143.1 149.9,143.1C107,143.1 72.2,177.9 72.2,220.8C72.2,246.3 84.5,268.9 103.4,283C81.7,266.8 75,272.6 75,272.6C57.4,247.3 45.8,262 45.8,262C40.3,248.6 37.8,234.7 37.8,220.3C37.8,158.5 87.9,108.4 149.7,108.4C211.5,108.4 261.6,158.5 261.6,220.3C261.5,275.3 221.9,321 169.6,330.4ZM77.7,220.3C77.7,180.6 109.9,148.4 149.6,148.4C189.3,148.4 221.5,180.6 221.5,220.3C221.5,234.4 217.5,247.5 210.5,258.6C160.4,268.6 154.7,285.1 154.7,285.1L122,285.1L117,284.4C93.7,272.5 77.7,248.3 77.7,220.3Z" style="fill-rule:nonzero;"/>
        </g>
    </g>
</svg>
