<?xml version="1.0" encoding="utf-8"?>
<!-- Generator: Adobe Illustrator 21.1.0, SVG Export Plug-In . SVG Version: 6.00 Build 0)  -->
<svg version="1.1" id="Firefox" xmlns="http://www.w3.org/2000/svg" xmlns:xlink="http://www.w3.org/1999/xlink" x="0px" y="0px"
	 viewBox="0 0 1024 1024" style="enable-background:new 0 0 1024 1024;" xml:space="preserve">
<style type="text/css">
	.Globe{fill:url(#SVGID_1_);}
	.Tail{fill:url(#SVGID_2_);}
	.Tail_x0020_Behind{fill:url(#SVGID_3_);}
	.Tail_x0020_Flame_x0020_Overlap{fill:url(#SVGID_4_);}
	.Tail_x0020_Swoop_x0020_Inner{fill:url(#SVGID_5_);}
	.Tail_x0020_Flame_x0020_Behind_x0020__x002D__x0020_Top{fill:url(#SVGID_6_);}
	.Tail_x0020_Flame_x0020_Behind_x0020__x002D__x0020_Middle{fill:url(#SVGID_7_);}
	.Tail_x0020_Flame_x0020_Behind_x0020__x002D__x0020_Bottom{fill:url(#SVGID_8_);}
	.Fox_x0020_Body{fill:url(#SVGID_9_);}
	.Ear{fill:url(#SVGID_10_);}
	.Nose{fill:url(#SVGID_11_);}
	.Head_x0020_Shadow{fill:url(#SVGID_12_);}
	.Arm_x0020_Shadow{opacity:0.5;fill:url(#SVGID_13_);}
	.Fox_x0020_Body_x0020_Shadow{fill:url(#SVGID_14_);}
	.st0{fill:url(#SVGID_15_);}
	.st1{fill:url(#XMLID_4_);}
	.st2{fill:url(#SVGID_16_);}
	.st3{fill:url(#SVGID_17_);}
	.st4{fill:url(#SVGID_18_);}
	.st5{fill:url(#SVGID_19_);}
	.st6{fill:url(#SVGID_20_);}
	.st7{fill:url(#SVGID_21_);}
	.st8{fill:url(#SVGID_22_);}
	.st9{fill:url(#SVGID_23_);}
	.st10{opacity:0.5;fill:url(#SVGID_24_);}
	.st11{fill:url(#SVGID_25_);}
	.st12{fill:url(#SVGID_26_);}
	.st13{opacity:0.5;fill:url(#SVGID_27_);}
	.st14{fill:url(#SVGID_28_);}
	.st15{fill:url(#SVGID_29_);}
</style>
<radialGradient id="SVGID_1_" cx="0" cy="0" r="1" gradientUnits="userSpaceOnUse">
	<stop  offset="2.469308e-02" style="stop-color:#005FE7"/>
	<stop  offset="0.1771" style="stop-color:#0042B4"/>
	<stop  offset="0.3226" style="stop-color:#002989"/>
	<stop  offset="0.3967" style="stop-color:#002079"/>
	<stop  offset="0.4732" style="stop-color:#131D78"/>
	<stop  offset="0.6577" style="stop-color:#3B1676"/>
	<stop  offset="0.7534" style="stop-color:#4A1475"/>
</radialGradient>
<linearGradient id="SVGID_2_" gradientUnits="userSpaceOnUse" x1="0" y1="0" x2="-8.861559e-02" y2="0.9961">
	<stop  offset="0" style="stop-color:#00EC00"/>
	<stop  offset="9.636725e-02" style="stop-color:#00E244"/>
	<stop  offset="0.2187" style="stop-color:#00D694"/>
	<stop  offset="0.3057" style="stop-color:#00CFC7"/>
	<stop  offset="0.3484" style="stop-color:#00CCDA"/>
	<stop  offset="0.4505" style="stop-color:#11BDDE;stop-opacity:0.8433"/>
	<stop  offset="0.6519" style="stop-color:#3C96E9;stop-opacity:0.5341"/>
	<stop  offset="0.9312" style="stop-color:#8258FA;stop-opacity:0.1056"/>
	<stop  offset="1" style="stop-color:#9448FF;stop-opacity:0"/>
</linearGradient>
<linearGradient id="SVGID_3_" gradientUnits="userSpaceOnUse" x1="0" y1="0" x2="1" y2="0">
	<stop  offset="0" style="stop-color:#0083FF"/>
	<stop  offset="9.755859e-02" style="stop-color:#0092F8"/>
	<stop  offset="0.3057" style="stop-color:#00ABEB"/>
	<stop  offset="0.5213" style="stop-color:#00BEE1"/>
	<stop  offset="0.7469" style="stop-color:#00C8DC"/>
	<stop  offset="0.9986" style="stop-color:#00CCDA"/>
</linearGradient>
<linearGradient id="SVGID_4_" gradientUnits="userSpaceOnUse" x1="0" y1="0" x2="0.4082" y2="0.9129">
	<stop  offset="0" style="stop-color:#00EC00;stop-opacity:0"/>
	<stop  offset="0.2801" style="stop-color:#00DC6D;stop-opacity:0.4682"/>
	<stop  offset="0.4985" style="stop-color:#00D1BB;stop-opacity:0.8334"/>
	<stop  offset="0.5982" style="stop-color:#00CCDA"/>
	<stop  offset="0.6774" style="stop-color:#04C9DB"/>
	<stop  offset="0.7535" style="stop-color:#0FC1DF"/>
	<stop  offset="0.8283" style="stop-color:#23B2E6"/>
	<stop  offset="0.9023" style="stop-color:#3E9EF0"/>
	<stop  offset="0.9751" style="stop-color:#6184FC"/>
	<stop  offset="0.9853" style="stop-color:#6680FE"/>
</linearGradient>
<linearGradient id="SVGID_5_" gradientUnits="userSpaceOnUse" x1="0" y1="0" x2="-0.349" y2="0.9371">
	<stop  offset="0" style="stop-color:#0083FF"/>
	<stop  offset="5.336332e-02" style="stop-color:#0083FF;stop-opacity:0.9466"/>
	<stop  offset="1" style="stop-color:#0083FF;stop-opacity:0"/>
</linearGradient>
<linearGradient id="SVGID_6_" gradientUnits="userSpaceOnUse" x1="0" y1="0" x2="0.6936" y2="-0.7204">
	<stop  offset="4.875986e-02" style="stop-color:#005FE7"/>
	<stop  offset="0.1768" style="stop-color:#065DE6"/>
	<stop  offset="0.3528" style="stop-color:#1856E1"/>
	<stop  offset="0.5567" style="stop-color:#354ADB"/>
	<stop  offset="0.7797" style="stop-color:#5D3AD1"/>
	<stop  offset="0.9508" style="stop-color:#812CC9"/>
</linearGradient>
<linearGradient id="SVGID_7_" gradientUnits="userSpaceOnUse" x1="0" y1="0" x2="-0.997" y2="-7.695794e-02">
	<stop  offset="0" style="stop-color:#812CC9"/>
	<stop  offset="1" style="stop-color:#005FE7"/>
</linearGradient>
<linearGradient id="SVGID_8_" gradientUnits="userSpaceOnUse" x1="0" y1="0" x2="1" y2="2.345485e-03">
	<stop  offset="0" style="stop-color:#002079"/>
	<stop  offset="0.9948" style="stop-color:#A238FF"/>
</linearGradient>
<radialGradient id="SVGID_9_" cx="0" cy="0" r="1" fx="0.1775" fy="-0.1627" gradientUnits="userSpaceOnUse">
	<stop  offset="0.2032" style="stop-color:#00FDFF"/>
	<stop  offset="0.2638" style="stop-color:#0AF1FF"/>
	<stop  offset="0.3725" style="stop-color:#23D2FF"/>
	<stop  offset="0.5166" style="stop-color:#4DA0FF"/>
	<stop  offset="0.6889" style="stop-color:#855BFF"/>
	<stop  offset="0.7703" style="stop-color:#A238FF"/>
	<stop  offset="0.8092" style="stop-color:#A738FD"/>
	<stop  offset="0.8552" style="stop-color:#B539F9"/>
	<stop  offset="0.9047" style="stop-color:#CD39F1"/>
	<stop  offset="0.9564" style="stop-color:#EE3AE6"/>
	<stop  offset="0.9793" style="stop-color:#FF3BE0"/>
</radialGradient>
<linearGradient id="SVGID_10_" gradientUnits="userSpaceOnUse" x1="0" y1="0" x2="-0.4238" y2="-0.9058">
	<stop  offset="0.1868" style="stop-color:#4A1475;stop-opacity:0.5"/>
	<stop  offset="0.3381" style="stop-color:#3D3486;stop-opacity:0.4001"/>
	<stop  offset="0.6675" style="stop-color:#1D84B3;stop-opacity:0.1825"/>
	<stop  offset="0.9439" style="stop-color:#00CCDA;stop-opacity:0"/>
</linearGradient>
<linearGradient id="SVGID_11_" gradientUnits="userSpaceOnUse" x1="0" y1="0" x2="1" y2="0">
	<stop  offset="0" style="stop-color:#005FE7"/>
	<stop  offset="8.368623e-02" style="stop-color:#0062E9;stop-opacity:0.9163"/>
	<stop  offset="1" style="stop-color:#0083FF;stop-opacity:0"/>
</linearGradient>
<linearGradient id="SVGID_12_" gradientUnits="userSpaceOnUse" x1="0" y1="0" x2="0.6608" y2="0.7506">
	<stop  offset="5.405406e-03" style="stop-color:#002079;stop-opacity:0.5"/>
	<stop  offset="1" style="stop-color:#0083FF;stop-opacity:0"/>
</linearGradient>
<linearGradient id="SVGID_13_" gradientUnits="userSpaceOnUse" x1="0" y1="0" x2="8.924393e-04" y2="-1">
	<stop  offset="4.763233e-03" style="stop-color:#4A1475;stop-opacity:0.9"/>
	<stop  offset="0.1107" style="stop-color:#5C1B91;stop-opacity:0.7966"/>
	<stop  offset="0.2844" style="stop-color:#7526B8;stop-opacity:0.6269"/>
	<stop  offset="0.4561" style="stop-color:#892ED7;stop-opacity:0.4592"/>
	<stop  offset="0.6227" style="stop-color:#9733ED;stop-opacity:0.2965"/>
	<stop  offset="0.782" style="stop-color:#9F37FA;stop-opacity:0.1409"/>
	<stop  offset="0.9263" style="stop-color:#A238FF;stop-opacity:0"/>
</linearGradient>
<linearGradient id="SVGID_14_" gradientUnits="userSpaceOnUse" x1="0" y1="0" x2="-0.2923" y2="-0.9563">
	<stop  offset="3.786671e-04" style="stop-color:#000F43;stop-opacity:0.4"/>
	<stop  offset="0.1736" style="stop-color:#00134F;stop-opacity:0.3307"/>
	<stop  offset="0.7033" style="stop-color:#001C6D;stop-opacity:0.1187"/>
	<stop  offset="1" style="stop-color:#002079;stop-opacity:0"/>
</linearGradient>
<g id="Firefox_-_Large">
</g>
<g>
	
		<linearGradient id="SVGID_15_" gradientUnits="userSpaceOnUse" x1="-14694.3711" y1="-8233.5605" x2="-14431.1289" y2="-8233.5605" gradientTransform="matrix(0.7621 3.394695e-02 -4.995754e-02 1.1202 11560.8936 10069.1035)">
		<stop  offset="0" style="stop-color:#0083FF"/>
		<stop  offset="9.755859e-02" style="stop-color:#0092F8"/>
		<stop  offset="0.3057" style="stop-color:#00ABEB"/>
		<stop  offset="0.5213" style="stop-color:#00BEE1"/>
		<stop  offset="0.7469" style="stop-color:#00C8DC"/>
		<stop  offset="0.9986" style="stop-color:#00CCDA"/>
	</linearGradient>
	<path class="st0" d="M806.6,93.6c-23.9,27.9-35.1,90.6-10.8,154.3c24.3,63.6,61.5,49.8,84.7,114.7c30.6,85.6,16.4,200.6,16.4,200.6
		s36.8,106.6,62.5-6.6C1016.1,343.7,806.6,145.9,806.6,93.6z"/>
	
		<radialGradient id="XMLID_4_" cx="-7529.5327" cy="-7923.085" r="791.2294" gradientTransform="matrix(1.2255 0 0 1.2248 9921.9639 9899.1025)" gradientUnits="userSpaceOnUse">
		<stop  offset="2.469308e-02" style="stop-color:#005FE7"/>
		<stop  offset="0.1771" style="stop-color:#0042B4"/>
		<stop  offset="0.3226" style="stop-color:#002989"/>
		<stop  offset="0.3967" style="stop-color:#002079"/>
		<stop  offset="0.4732" style="stop-color:#131D78"/>
		<stop  offset="0.6577" style="stop-color:#3B1676"/>
		<stop  offset="0.7534" style="stop-color:#4A1475"/>
	</radialGradient>
	<path id="XMLID_1_" class="st1" d="M513.2,974.8c245.2,0,443.9-199.7,443.9-446s-198.7-446-443.7-446S69.8,282.5,69.8,528.8
		C69.3,775.3,268.2,974.8,513.2,974.8z"/>
	<g>
		<g>
			
				<linearGradient id="SVGID_16_" gradientUnits="userSpaceOnUse" x1="575.9866" y1="731.1884" x2="384.5489" y2="104.9597" gradientTransform="matrix(1 0 0 1 1 0)">
				<stop  offset="3.786671e-04" style="stop-color:#000F43;stop-opacity:0.4"/>
				<stop  offset="0.1736" style="stop-color:#00134F;stop-opacity:0.3307"/>
				<stop  offset="0.7033" style="stop-color:#001C6D;stop-opacity:0.1187"/>
				<stop  offset="1" style="stop-color:#002079;stop-opacity:0"/>
			</linearGradient>
			<path class="st2" d="M847,805.6c-9.3,6.7-19.5,12.6-30.1,18.2c12-17.5,25.3-38.8,38.3-63c9.5-10.5,18.1-20.6,25.2-31.7
				c3.4-5.4,7.3-12.1,11.4-19.8c24.9-44.9,52.4-117.6,53.2-192.2c0-0.1,0-0.1,0-0.2c0-1.8,0-3.7,0-5.5c0-18.7-1.7-37.5-5.7-55.7
				c0.2,1.4,0.4,2.9,0.6,4.3c-0.2-1.1-0.4-2.2-0.6-3.3c0.4,2,0.7,4,1,6c5.1,43.2,1.5,85.4-16.7,116.5c-0.3,0.5-0.6,0.9-0.9,1.3
				c9.4-47.2,12.6-99.4,2.1-151.6c0,0-4.2-25.4-35.4-102.4c-18-44.4-49.8-80.7-78-107.2c-24.7-30.5-47.1-51-59.5-64.1
				c-25.8-27.2-36.6-47.6-41.1-60.9c-3.9-1.9-53.1-49.8-57.1-51.6c-21.5,33.4-89.2,137.7-57,235.1c14.6,44.2,51.5,90,90.1,115.7
				c1.7,1.9,23,25,33.1,77.2c10.5,53.8,5,95.9-16.5,158c-25.3,54.5-90.1,108.4-150.7,113.9c-129.7,11.8-177.1-65.1-177.1-65.1
				c46.3,18.5,97.6,14.6,128.7-4.6c31.4-19.4,50.4-33.8,65.8-28.1c15.2,5.7,27.3-10.8,16.4-27.8c-10.6-17-38.3-41.3-79.4-34.6
				c-31.4,5.1-60.2,30-101.4,5.9c-2.5-1.5-5-3-7.7-5.1c-2.7-1.8,8.8,2.7,6.1,0.7c-8-4.4-22.2-13.8-25.9-17.2
				c-0.6-0.6,6.2,2.2,5.6,1.6c-38.5-31.7-33.7-53.1-32.5-66.6c1-10.7,8-24.5,19.8-30.1c5.7,3.1,9.2,5.5,9.2,5.5s-2.4-5-3.7-7.6
				c0.5-0.2,0.9-0.1,1.4-0.3c4.7,2.3,15,8.1,20.4,11.7c7.1,5,9.3,9.4,9.3,9.4s1.9-1,0.5-5.4c-0.5-1.8-2.6-7.5-9.7-13.2l0.4,0
				c3.8,2.2,7.8,4.8,11.9,8.2c2-7.2,5.5-14.7,4.7-28.1c-0.5-9.4-0.3-11.9-1.9-15.5c-1.5-3.1,0.8-4.3,3.4-1.1
				c-0.4-2.5-1.1-4.8-2.2-7.4l0-0.2c3.2-11.2,68.2-40.5,73-43.9c6.8-4.7,13.9-12,19.1-20.8c3.6-5.8,6.3-13.8,7-26.1
				c0.4-8.8-3.8-14.7-69.5-21.6c-18-1.8-28.5-14.8-34.5-26.8c-1.1-2.6-2.2-4.9-3.3-7.3c-1.2-3.3-2.1-6.2-2.6-8.4
				c10.7-30.9,28.8-57,55.4-76.7c1.4-1.3-5.8,0.3-4.3-1c1.7-1.5,12.7-6,14.8-7c2.5-1.2-10.9-6.9-22.7-5.5
				c-12.1,1.4-14.6,2.8-21.1,5.5c2.7-2.7,11.2-6.1,9.2-6.1c-13,2-29.2,9.6-43,18.1c-0.1-1.5,0.2-2.4,0.8-4.3
				c-6.4,2.7-22.3,13.8-26.9,23.1c0.2-2.2,0.3-3.2,0.3-5.4c-4.6,3.9-9.2,8.3-13.2,13.8l-0.2,0.2c-37.4-15-70.2-16-98.1-9.3
				c-6.1-6.1-9.1-1.6-22.9-32.1c-0.9-1.8,0.7,1.8,0,0c-2.3-5.9,1.4,7.9,0,0c-23.3,18.4-53.9,39.2-68.6,53.9c-0.2,0.6,17.2-4.9,0,0
				c-6,1.7-5.6,5.3-6.5,37.5c-0.2,2.4,0,5.2-0.2,7.4c-11.7,15-19.7,27.6-22.8,34.2c-15.2,26.2-31.9,67-48.1,131.6
				c0,0,9.2-23.9,25.8-50.4C98,434.6,85,488.4,82.4,571.3c0.5-2.7,4.3-23.5,12.5-50.7c-2.3,55.3,3.4,123.8,34.7,201.1
				c9.3,22.8,24.8,57.5,51,95.4C263.2,904,379.6,958,508.5,958C643.1,958,764,899.1,847,805.6z"/>
		</g>
		<g>
			<linearGradient id="SVGID_17_" gradientUnits="userSpaceOnUse" x1="576.9866" y1="731.1884" x2="385.5489" y2="104.9597">
				<stop  offset="3.786671e-04" style="stop-color:#000F43;stop-opacity:0.4"/>
				<stop  offset="0.1736" style="stop-color:#00134F;stop-opacity:0.3307"/>
				<stop  offset="0.7033" style="stop-color:#001C6D;stop-opacity:0.1187"/>
				<stop  offset="1" style="stop-color:#002079;stop-opacity:0"/>
			</linearGradient>
			<path class="st3" d="M847,805.6c-9.3,6.7-19.5,12.6-30.1,18.2c12-17.5,25.3-38.8,38.3-63c9.5-10.5,18.1-20.6,25.2-31.7
				c3.4-5.4,7.3-12.1,11.4-19.8c24.9-44.9,52.4-117.6,53.2-192.2c0-0.1,0-0.1,0-0.2c0-1.8,0-3.7,0-5.5c0-18.7-1.7-37.5-5.7-55.7
				c0.2,1.4,0.4,2.9,0.6,4.3c-0.2-1.1-0.4-2.2-0.6-3.3c0.4,2,0.7,4,1,6c5.1,43.2,1.5,85.4-16.7,116.5c-0.3,0.5-0.6,0.9-0.9,1.3
				c9.4-47.2,12.6-99.4,2.1-151.6c0,0-4.2-25.4-35.4-102.4c-18-44.4-49.8-80.7-78-107.2c-24.7-30.5-47.1-51-59.5-64.1
				c-25.8-27.2-36.6-47.6-41.1-60.9c-3.9-1.9-53.1-49.8-57.1-51.6c-21.5,33.4-89.2,137.7-57,235.1c14.6,44.2,51.5,90,90.1,115.7
				c1.7,1.9,23,25,33.1,77.2c10.5,53.8,5,95.9-16.5,158c-25.3,54.5-90.1,108.4-150.7,113.9c-129.7,11.8-177.1-65.1-177.1-65.1
				c46.3,18.5,97.6,14.6,128.7-4.6c31.4-19.4,50.4-33.8,65.8-28.1c15.2,5.7,27.3-10.8,16.4-27.8c-10.6-17-38.3-41.3-79.4-34.6
				c-31.4,5.1-60.2,30-101.4,5.9c-2.5-1.5-5-3-7.7-5.1c-2.7-1.8,8.8,2.7,6.1,0.7c-8-4.4-22.2-13.8-25.9-17.2
				c-0.6-0.6,6.2,2.2,5.6,1.6c-38.5-31.7-33.7-53.1-32.5-66.6c1-10.7,8-24.5,19.8-30.1c5.7,3.1,9.2,5.5,9.2,5.5s-2.4-5-3.7-7.6
				c0.5-0.2,0.9-0.1,1.4-0.3c4.7,2.3,15,8.1,20.4,11.7c7.1,5,9.3,9.4,9.3,9.4s1.9-1,0.5-5.4c-0.5-1.8-2.6-7.5-9.7-13.2l0.4,0
				c3.8,2.2,7.8,4.8,11.9,8.2c2-7.2,5.5-14.7,4.7-28.1c-0.5-9.4-0.3-11.9-1.9-15.5c-1.5-3.1,0.8-4.3,3.4-1.1
				c-0.4-2.5-1.1-4.8-2.2-7.4l0-0.2c3.2-11.2,68.2-40.5,73-43.9c6.8-4.7,13.9-12,19.1-20.8c3.6-5.8,6.3-13.8,7-26.1
				c0.4-8.8-3.8-14.7-69.5-21.6c-18-1.8-28.5-14.8-34.5-26.8c-1.1-2.6-2.2-4.9-3.3-7.3c-1.2-3.3-2.1-6.2-2.6-8.4
				c10.7-30.9,28.8-57,55.4-76.7c1.4-1.3-5.8,0.3-4.3-1c1.7-1.5,12.7-6,14.8-7c2.5-1.2-10.9-6.9-22.7-5.5
				c-12.1,1.4-14.6,2.8-21.1,5.5c2.7-2.7,11.2-6.1,9.2-6.1c-13,2-29.2,9.6-43,18.1c-0.1-1.5,0.2-2.4,0.8-4.3
				c-6.4,2.7-22.3,13.8-26.9,23.1c0.2-2.2,0.3-3.2,0.3-5.4c-4.6,3.9-9.2,8.3-13.2,13.8l-0.2,0.2c-37.4-15-70.2-16-98.1-9.3
				c-6.1-6.1-9.1-1.6-22.9-32.1c-0.9-1.8,0.7,1.8,0,0c-2.3-5.9,1.4,7.9,0,0c-23.3,18.4-53.9,39.2-68.6,53.9c-0.2,0.6,17.2-4.9,0,0
				c-6,1.7-5.6,5.3-6.5,37.5c-0.2,2.4,0,5.2-0.2,7.4c-11.7,15-19.7,27.6-22.8,34.2c-15.2,26.2-31.9,67-48.1,131.6
				c0,0,9.2-23.9,25.8-50.4C98,434.6,85,488.4,82.4,571.3c0.5-2.7,4.3-23.5,12.5-50.7c-2.3,55.3,3.4,123.8,34.7,201.1
				c9.3,22.8,24.8,57.5,51,95.4C263.2,904,379.6,958,508.5,958C643.1,958,764,899.1,847,805.6z"/>
		</g>
	</g>
	
		<linearGradient id="SVGID_18_" gradientUnits="userSpaceOnUse" x1="-8290.0615" y1="-6383.7173" x2="-8405.3057" y2="-6392.6128" gradientTransform="matrix(1.2193 0.1226 -0.1227 1.2186 10296.2646 9597.2295)">
		<stop  offset="0" style="stop-color:#812CC9"/>
		<stop  offset="1" style="stop-color:#005FE7"/>
	</linearGradient>
	<path class="st4" d="M747.4,868.7c162.9-18.9,235-186.7,142.4-190C806.2,676,670.3,877.6,747.4,868.7L747.4,868.7z"/>
	
		<linearGradient id="SVGID_19_" gradientUnits="userSpaceOnUse" x1="-8375.0332" y1="-6548.7754" x2="-8267.083" y2="-6660.8984" gradientTransform="matrix(1.2193 0.1226 -0.1227 1.2186 10296.2646 9597.2295)">
		<stop  offset="4.875986e-02" style="stop-color:#005FE7"/>
		<stop  offset="0.1768" style="stop-color:#065DE6"/>
		<stop  offset="0.3528" style="stop-color:#1856E1"/>
		<stop  offset="0.5567" style="stop-color:#354ADB"/>
		<stop  offset="0.7797" style="stop-color:#5D3AD1"/>
		<stop  offset="0.9508" style="stop-color:#812CC9"/>
	</linearGradient>
	<path class="st5" d="M901.5,644.4c112.1-65.2,82.8-206.1,82.8-206.1s-43.2,50.2-72.6,130.3C882.7,648,834.2,683.8,901.5,644.4z"/>
	
		<linearGradient id="SVGID_20_" gradientUnits="userSpaceOnUse" x1="-8575.3213" y1="-6281.0327" x2="-8344.4326" y2="-6280.4912" gradientTransform="matrix(1.2193 0.1226 -0.1227 1.2186 10296.2646 9597.2295)">
		<stop  offset="0" style="stop-color:#002079"/>
		<stop  offset="0.9948" style="stop-color:#A238FF"/>
	</linearGradient>
	<path class="st6" d="M545.8,952.1c156.2,49.9,290.5-73.2,207.7-114.3C678.3,800.7,471.6,928.5,545.8,952.1z"/>
	
		<radialGradient id="SVGID_21_" cx="680.4305" cy="386.1736" r="793.9498" fx="821.363" fy="257.0289" gradientUnits="userSpaceOnUse">
		<stop  offset="0.2032" style="stop-color:#00FDFF"/>
		<stop  offset="0.2638" style="stop-color:#0AF1FF"/>
		<stop  offset="0.3725" style="stop-color:#23D2FF"/>
		<stop  offset="0.5166" style="stop-color:#4DA0FF"/>
		<stop  offset="0.6889" style="stop-color:#855BFF"/>
		<stop  offset="0.7703" style="stop-color:#A238FF"/>
		<stop  offset="0.8092" style="stop-color:#A738FD"/>
		<stop  offset="0.8552" style="stop-color:#B539F9"/>
		<stop  offset="0.9047" style="stop-color:#CD39F1"/>
		<stop  offset="0.9564" style="stop-color:#EE3AE6"/>
		<stop  offset="0.9793" style="stop-color:#FF3BE0"/>
	</radialGradient>
	<path class="st7" d="M674.9,23.4c0.3-0.4,0.5-0.6,0.5-0.6S675.2,23,674.9,23.4z M913.2,704.2c3.8-5.4,8.9-22.5,13.5-30.2
		c27.6-44.5,27.8-80,27.8-80.8c16.7-83.2,15.1-117.2,4.9-180c-8.3-50.6-44.3-123.1-75.6-158c-32.2-36-9.5-24.2-40.7-50.5
		c-27.3-30.3-53.8-60.3-68.3-72.4C670.5,45.1,672.9,26.6,674.9,23.4c-0.3,0.4-0.8,0.9-1.5,1.6c-1.2-4.9-2.1-9.1-2.1-9.1
		s-57,57-69,152c-7.8,62,15.4,126.7,49,168c28.5,35.1,59,58,59,58l0,0c25.4,36.5,39.4,81.5,39.4,129.9
		c0,121.2-98.3,219.5-219.7,219.5c-16.9,0-33.3-1.9-49.1-5.5c-57.2-10.9-90.3-39.8-106.8-59.4c-9.4-11.2-13.5-19.4-13.5-19.4
		c51.3,18.4,108,14.5,142.5-4.5c34.7-19.3,55.8-33.5,72.8-27.9c16.8,5.6,30.2-10.7,18.2-27.5c-11.8-16.8-42.4-41-87.9-34.3
		c-34.8,5.1-66.7,29.8-112.2,5.8c-2.8-1.5-5.6-3-8.6-5c-3-1.8,9.8,2.7,6.8,0.7c-8.9-4.3-24.6-13.7-28.6-17.1
		c-0.7-0.6,6.9,2.2,6.2,1.6c-42.6-31.4-37.3-52.7-36-66c1.1-10.7,8.8-24.3,21.9-29.9c6.3,3.1,10.2,5.4,10.2,5.4s-2.7-4.9-4.1-7.5
		c0.5-0.2,1-0.1,1.5-0.3c5.2,2.2,16.6,8,22.6,11.6c7.8,4.9,10.3,9.4,10.3,9.4s2.1-1,0.5-5.3c-0.6-1.8-2.9-7.4-10.7-13.1l0.5,0
		c4.2,2.1,8.6,4.8,13.1,8.2c2.2-7.1,6.1-14.6,5.3-27.9c-0.5-9.4-0.3-11.8-2.1-15.4c-1.6-3.1,0.9-4.3,3.8-1.1
		c-0.5-2.5-1.2-4.8-2.4-7.3l0-0.2c3.6-11.1,75.5-40.1,80.8-43.5c7.6-4.6,15.4-11.9,21.2-20.6c4-5.7,7-13.7,7.7-25.9
		c0.2-5.5-1.4-9.8-20.5-14c-11.4-2.5-29.1-4.9-56.4-7.5c-19.9-1.8-31.6-14.7-38.2-26.6c-1.2-2.6-2.4-4.9-3.7-7.2
		c-1.4-3.3-2.3-6.1-2.8-8.4c11.9-30.6,31.9-56.5,61.3-76.1c1.6-1.3-6.4,0.3-4.8-1c1.9-1.5,14.1-5.9,16.4-6.9
		c2.8-1.2-12-6.8-25.2-5.5c-13.4,1.3-16.2,2.8-23.3,5.5c3-2.6,12.4-6.1,10.2-6.1c-14.4,2-32.3,9.5-47.6,18c-0.1-1.5,0.2-2.4,0.9-4.3
		c-7.1,2.7-24.6,13.7-29.7,23c0.2-2.2,0.3-3.1,0.3-5.4c-5,3.9-10.1,8.3-14.6,13.7l-0.3,0.2c-41.3-14.9-77.7-15.9-108.5-9.2
		c-6.7-6.1-17.6-15.2-32.9-45.4c-1-1.8-1.6,3.8-2.4,2c-6-13.8-9.6-36.4-9-52c0,0-12.3,5.6-22.5,29.1c-1.9,4.2-3.1,6.5-4.3,8.9
		c-0.6,0.7,1.3-7.7,1-7.2c-1.8,3-6.4,7.2-8.4,12.6c-1.4,4-3.3,6.3-4.6,11.3l-0.3,0.5c-0.1-1.5,0.4-6.1,0-5.1
		c-4.3,8.6-8.5,18.5-12.3,29.8c-5.5,18-11.9,42.6-12.9,74.6c-0.2,2.4,0,5.1-0.2,7.3c-13,14.8-21.9,27.4-25.2,33.9
		C76.5,329.8,58,370.2,40,434.3c0,0,10.2-23.7,28.5-50c-14.9,34-29.4,87.3-32.2,169.5c0.5-2.6,4.8-23.3,13.9-50.2
		C47.6,558.4,54,626.3,88.6,703c20.6,45.1,67.9,136.6,183.6,208.1l0,0c0,0,39.4,29.3,107,51.3c5,1.8,10.1,3.6,15.2,5.3
		c-1.6-0.7-3.2-1.3-4.7-2.1c38.6,11.6,85.4,20.4,138.8,20.4c175.2,0.1,226.8-70.2,226.8-70.2s-0.2,0.1-0.5,0.4
		c2.5-2.3,4.9-4.7,7.1-7.3c-27.6,26.1-90.7,27.8-114.3,25.9c40.2-11.8,66.7-21.8,118.2-41.5c6-2.2,12.2-4.8,18.5-7.6
		c0.7-0.3,1.4-0.6,2.1-0.9c1.2-0.6,2.5-1.1,3.7-1.7c22.1-10.4,45.7-24.3,70.3-44c51.7-41.3,62.9-81.6,68.8-108.1
		c-0.8,2.5-3.4,8.5-5.2,12.3c-13.3,28.5-42.8,46-74.9,60.9c13.2-17.4,28-38.4,42.4-62.4C902.1,731.4,905.4,715.1,913.2,704.2z"/>
	
		<linearGradient id="SVGID_22_" gradientUnits="userSpaceOnUse" x1="-7424.6079" y1="-8151.9331" x2="-7496.6997" y2="-7341.604" gradientTransform="matrix(1.2255 0 0 1.2248 9921.9639 9899.1025)">
		<stop  offset="0" style="stop-color:#00EC00"/>
		<stop  offset="9.636725e-02" style="stop-color:#00E244"/>
		<stop  offset="0.2187" style="stop-color:#00D694"/>
		<stop  offset="0.3057" style="stop-color:#00CFC7"/>
		<stop  offset="0.3484" style="stop-color:#00CCDA"/>
		<stop  offset="0.4505" style="stop-color:#11BDDE;stop-opacity:0.8433"/>
		<stop  offset="0.6519" style="stop-color:#3C96E9;stop-opacity:0.5341"/>
		<stop  offset="0.9312" style="stop-color:#8258FA;stop-opacity:0.1056"/>
		<stop  offset="1" style="stop-color:#9448FF;stop-opacity:0"/>
	</linearGradient>
	<path class="st8" d="M850.2,803c21.1-23.2,40-49.8,54.3-80c36.9-77.6,94-206.6,49-341.3C918.1,275.2,869.3,217,807.4,160.1
		C706.9,67.8,678.8,26.5,678.8,2c0,0-116.1,129.4-65.7,264.4c50.3,135,153.5,130,221.7,270.9c80.3,165.7-64.9,346.6-185,397.2
		c7.4-1.6,267-60.4,280.6-208.9C930,728.3,924.1,769.4,850.2,803z"/>
	<g>
		
			<linearGradient id="SVGID_23_" gradientUnits="userSpaceOnUse" x1="-8848.4951" y1="-6716.1426" x2="-8712.0273" y2="-6716.1426" gradientTransform="matrix(1.2193 0.1226 -0.1227 1.2186 10296.2646 9597.2295)">
			<stop  offset="0" style="stop-color:#005FE7"/>
			<stop  offset="8.368623e-02" style="stop-color:#0062E9;stop-opacity:0.9163"/>
			<stop  offset="1" style="stop-color:#0083FF;stop-opacity:0"/>
		</linearGradient>
		<path class="st9" d="M513.9,321.4c0.4-8.8-4.2-14.7-76.7-21.5c-29.8-2.8-41.3-30.3-44.7-41.9c-10.6,27.6-15,56.5-12.6,91.5
			c1.6,22.9,17,47.5,24.4,62c0,0,1.6-2.1,2.4-2.9c13.9-14.4,71.9-36.4,77.4-39.5C490,365.2,512.9,348.4,513.9,321.4z"/>
		
			<radialGradient id="SVGID_24_" cx="-8836.5039" cy="-6769.7173" r="165.9733" fx="-8838.2129" fy="-6769.4575" gradientTransform="matrix(1.2193 0.1226 -0.1227 1.2186 10296.2646 9597.2295)" gradientUnits="userSpaceOnUse">
			<stop  offset="0.6254" style="stop-color:#FFE302;stop-opacity:0"/>
			<stop  offset="0.9946" style="stop-color:#FFE302;stop-opacity:0.7"/>
		</radialGradient>
		<path class="st10" d="M513.9,321.4c0.4-8.8-4.2-14.7-76.7-21.5c-29.8-2.8-41.3-30.3-44.7-41.9c-10.6,27.6-15,56.5-12.6,91.5
			c1.6,22.9,17,47.5,24.4,62c0,0,1.6-2.1,2.4-2.9c13.9-14.4,71.9-36.4,77.4-39.5C490,365.2,512.9,348.4,513.9,321.4z"/>
	</g>
	
		<linearGradient id="SVGID_25_" gradientUnits="userSpaceOnUse" x1="271.573" y1="-1032.9534" x2="153.751" y2="-1284.7905" gradientTransform="matrix(0.995 0.1001 -0.1001 0.995 -173.6955 1313.9413)">
		<stop  offset="0.1868" style="stop-color:#4A1475;stop-opacity:0.5"/>
		<stop  offset="0.3381" style="stop-color:#3D3486;stop-opacity:0.4001"/>
		<stop  offset="0.6675" style="stop-color:#1D84B3;stop-opacity:0.1825"/>
		<stop  offset="0.9439" style="stop-color:#00CCDA;stop-opacity:0"/>
	</linearGradient>
	<path class="st11" d="M194.6,158.5c-1-1.8-1.6,3.8-2.4,2c-6-13.8-9.6-36.2-8.7-52c0,0-12.3,5.6-22.5,29.1c-1.9,4.2-3.1,6.5-4.3,8.9
		c-0.6,0.7,1.3-7.7,1-7.2c-1.8,3-6.4,7.2-8.3,12.4c-1.7,4.2-3.3,6.5-4.6,11.8c-0.4,1.4,0.4-6.3,0.1-5.4C121,203.7,116.5,273,119,270
		c50.5-53.9,108.3-66.7,108.3-66.7C221.2,198.8,207.8,185.7,194.6,158.5L194.6,158.5z"/>
	
		<linearGradient id="SVGID_26_" gradientUnits="userSpaceOnUse" x1="23.3508" y1="718.6947" x2="117.4585" y2="825.5825" gradientTransform="matrix(0.995 0.1001 -0.1001 0.995 305.4386 -246.4706)">
		<stop  offset="5.405406e-03" style="stop-color:#002079;stop-opacity:0.5"/>
		<stop  offset="1" style="stop-color:#0083FF;stop-opacity:0"/>
	</linearGradient>
	<path class="st12" d="M386.2,722.1c-69.7-29.8-149-71.8-146-167.1c4.1-125.6,117.1-100.8,117.1-100.8c-4.3,1-15.7,9.2-19.7,17.8
		c-4.3,10.8-12.1,35.3,11.6,60.9c37.1,40.2-76.2,95.4,98.7,199.6C452.2,734.9,406.8,731,386.2,722.1L386.2,722.1z"/>
	
		<linearGradient id="SVGID_27_" gradientUnits="userSpaceOnUse" x1="201.4172" y1="902.0474" x2="201.4649" y2="848.6239" gradientTransform="matrix(0.995 0.1001 -0.1001 0.995 305.4386 -246.4706)">
		<stop  offset="4.763233e-03" style="stop-color:#4A1475;stop-opacity:0.9"/>
		<stop  offset="0.1107" style="stop-color:#5C1B91;stop-opacity:0.7966"/>
		<stop  offset="0.2844" style="stop-color:#7526B8;stop-opacity:0.6269"/>
		<stop  offset="0.4561" style="stop-color:#892ED7;stop-opacity:0.4592"/>
		<stop  offset="0.6227" style="stop-color:#9733ED;stop-opacity:0.2965"/>
		<stop  offset="0.782" style="stop-color:#9F37FA;stop-opacity:0.1409"/>
		<stop  offset="0.9263" style="stop-color:#A238FF;stop-opacity:0"/>
	</linearGradient>
	<path class="st13" d="M361.4,659.5c49.4,17.2,107,14.2,141.5-4.9c23.1-12.9,52.7-33.4,70.9-28.4c-15.8-6.2-27.7-9.2-42.1-9.9
		c-2.4,0-5.4-0.1-8-0.3c-4.9,0-10.1,0.2-15.8,0.9c-8.9,0.8-18.8,6.4-27.7,5.5c-0.5,0,8.7-3.8,8-3.6c-4.8,1-9.9,1.2-15.4,1.9
		c-3.5,0.4-6.4,0.8-9.9,1c-103,8.7-190-55.8-190-55.8C265.5,590.9,306,640.2,361.4,659.5L361.4,659.5z"/>
	<linearGradient id="SVGID_28_" gradientUnits="userSpaceOnUse" x1="656.8483" y1="38.1204" x2="962.5042" y2="721.6149">
		<stop  offset="0" style="stop-color:#00EC00;stop-opacity:0"/>
		<stop  offset="0.2801" style="stop-color:#00DC6D;stop-opacity:0.4682"/>
		<stop  offset="0.4985" style="stop-color:#00D1BB;stop-opacity:0.8334"/>
		<stop  offset="0.5982" style="stop-color:#00CCDA"/>
		<stop  offset="0.6774" style="stop-color:#04C9DB"/>
		<stop  offset="0.7535" style="stop-color:#0FC1DF"/>
		<stop  offset="0.8283" style="stop-color:#23B2E6"/>
		<stop  offset="0.9023" style="stop-color:#3E9EF0"/>
		<stop  offset="0.9751" style="stop-color:#6184FC"/>
		<stop  offset="0.9853" style="stop-color:#6680FE"/>
	</linearGradient>
	<path class="st14" d="M850.1,803.6c104.2-102.3,156.9-226.6,134.6-366c0,0,8.9,71.5-24.8,144.6c16.2-71.4,18.1-160.1-25-252
		c-57.5-122.6-152-187.2-188.1-214.1c-54.7-40.8-77.4-82.3-77.8-90.9c-16.3,33.5-65.8,148.2-5.3,247
		c56.6,92.6,145.9,120,208.3,204.9C987,633.7,850.1,803.6,850.1,803.6z"/>
	<linearGradient id="SVGID_29_" gradientUnits="userSpaceOnUse" x1="717.2021" y1="431.2099" x2="572.4158" y2="819.9599">
		<stop  offset="0" style="stop-color:#0083FF"/>
		<stop  offset="5.336332e-02" style="stop-color:#0083FF;stop-opacity:0.9466"/>
		<stop  offset="1" style="stop-color:#0083FF;stop-opacity:0"/>
	</linearGradient>
	<path class="st15" d="M835.1,537.6c-36.4-75.2-81.8-108-124.8-143.6c5,7,6.2,9.5,9,14c37.8,40.3,93.6,138.7,53.1,262.1
		c-76.2,232.4-381.1,122.9-413.1,92.2c12.9,134.5,238,198.8,384.6,111.6C827.3,795,894.8,660.8,835.1,537.6z"/>
</g>
</svg>
